<svg xmlns="http://www.w3.org/2000/svg" xmlns:xlink="http://www.w3.org/1999/xlink" xmlns:lucid="lucid" width="1520" height="731"><g transform="translate(-340 -1200)" lucid:page-tab-id="0_0"><path d="M1231.83 1388.5v9.83m0 9.84v19.66m0 9.84v19.66m0 9.84v19.66m0 9.84v19.66m0 9.84v19.66m0 9.84v19.66m0 9.84v19.66m0 9.84v19.66m0 9.84v19.66m0 9.84v19.66m0 9.84v19.66m0 9.84v19.66m0 9.84v19.66m0 9.84v19.66m0 9.84v19.66m0 9.84v19.66m0 9.84v19.66m0 9.84v9.83" stroke="#333" fill="none"/><path d="M1232.33 1388.5h-1v-.5h1z" stroke="#333" stroke-width=".05" fill="#333"/><path d="M1231.83 1919.5v.5M1595.04 1388.5v9.83m0 9.84v19.66m0 9.84v19.66m0 9.84v19.66m0 9.84v19.66m0 9.84v19.66m0 9.84v19.66m0 9.84v19.66m0 9.84v19.66m0 9.84v19.66m0 9.84v19.66m0 9.84v19.66m0 9.84v19.66m0 9.84v19.66m0 9.84v19.66m0 9.84v19.66m0 9.84v19.66m0 9.84v19.66m0 9.84v9.83" stroke="#333" fill="none"/><path d="M1595.54 1388.5h-1v-.5h1z" stroke="#333" stroke-width=".05" fill="#333"/><path d="M1595.04 1919.5v.5" stroke="#333" fill="none"/><path d="M1136.8 1268a8 8 0 0 1 8-8h174.06a8 8 0 0 1 8 8v112a8 8 0 0 1-8 8H1144.8a8 8 0 0 1-8-8z" stroke="#000" stroke-opacity="0" fill="#6db1ff"/><use xlink:href="#a" transform="matrix(1,0,0,1,1144.7873887662658,1268) translate(17.28395061728395 60.44444444444444)"/><use xlink:href="#b" transform="matrix(1,0,0,1,1144.7873887662658,1268) translate(83.7037037037037 60.44444444444444)"/><path d="M1500 1268a8 8 0 0 1 8-8h174.08a8 8 0 0 1 8 8v112a8 8 0 0 1-8 8H1508a8 8 0 0 1-8-8z" stroke="#000" stroke-opacity="0" fill="#6db1ff"/><use xlink:href="#c" transform="matrix(1,0,0,1,1508,1268) translate(29.537037037037045 60.44444444444444)"/><use xlink:href="#d" transform="matrix(1,0,0,1,1508,1268) translate(114.66049382716048 60.44444444444444)"/><path d="M739.75 1299.75c0 10.9-8.84 19.75-19.75 19.75-10.9 0-19.75-8.84-19.75-19.75 0-10.9 8.84-19.75 19.75-19.75 10.9 0 19.75 8.84 19.75 19.75z" stroke="#333" fill="#fff"/><path d="M720 1319.5v47.3a27.6 27.6 0 0 0 4.28 14.76L760 1438m-40-63.2l-40 63.2m0-98.75h80" stroke="#333" fill="none"/><path d="M680 1288a8 8 0 0 1 8-8h64a8 8 0 0 1 8 8v164a8 8 0 0 1-8 8h-64a8 8 0 0 1-8-8z" fill="none"/><use xlink:href="#e" transform="matrix(1,0,0,1,600,1438) translate(87.34567901234567 17.77777777777778)"/><path d="M859.75 1299.75c0 10.9-8.84 19.75-19.75 19.75-10.9 0-19.75-8.84-19.75-19.75 0-10.9 8.84-19.75 19.75-19.75 10.9 0 19.75 8.84 19.75 19.75z" stroke="#333" fill="#fff"/><path d="M840 1319.5v47.3a27.6 27.6 0 0 0 4.28 14.76L880 1438m-40-63.2l-40 63.2m0-98.75h80" stroke="#333" fill="none"/><path d="M800 1288a8 8 0 0 1 8-8h64a8 8 0 0 1 8 8v164a8 8 0 0 1-8 8h-64a8 8 0 0 1-8-8z" fill="none"/><use xlink:href="#f" transform="matrix(1,0,0,1,720,1438) translate(58.98148148148148 17.77777777777778)"/><path d="M599.75 1299.75c0 10.9-8.84 19.75-19.75 19.75-10.9 0-19.75-8.84-19.75-19.75 0-10.9 8.84-19.75 19.75-19.75 10.9 0 19.75 8.84 19.75 19.75z" stroke="#333" fill="#fff"/><path d="M580 1319.5v47.3a27.6 27.6 0 0 0 4.28 14.76L620 1438m-40-63.2l-40 63.2m0-98.75h80" stroke="#333" fill="none"/><path d="M540 1288a8 8 0 0 1 8-8h64a8 8 0 0 1 8 8v164a8 8 0 0 1-8 8h-64a8 8 0 0 1-8-8z" fill="none"/><use xlink:href="#g" transform="matrix(1,0,0,1,460,1438) translate(88.58024691358025 17.77777777777778)"/><path d="M1194.94 1539.5v1h-97.27v-1zM840 1533.65v-1h113.15v1zM840 1533.65h-.5v-1h.5z" stroke="#3a414a" stroke-width=".05" fill="#3a414a"/><path d="M1209.7 1540l-14.26 4.63v-9.27z" fill="#3a414a"/><path d="M1211.33 1540l-16.4 5.32v-10.64zm-15.4 3.95l12.16-3.95-12.16-3.95z" stroke="#3a414a" stroke-width=".05" fill="#3a414a"/><use xlink:href="#h" transform="matrix(1,0,0,1,953.1538648812175,1523.1080731687937) translate(0.0049999999999954525 17.955555555555552)"/><use xlink:href="#i" transform="matrix(1,0,0,1,953.1538648812175,1523.1080731687937) translate(89.72043209876541 17.955555555555552)"/><path d="M1354.92 1640.5h-102.1v-1h102.1zm203.23 0h-86.2v-1h86.2z" stroke="#3a414a" stroke-width=".05" fill="#3a414a"/><path d="M1252.84 1640.5h-.5v-1h.5z" fill="#3a414a"/><path d="M1252.86 1640.53h-.56v-1.06h.56zm-.5-1v.94h.45v-.94z" stroke="#3a414a" stroke-width=".05" fill="#3a414a"/><path d="M1572.92 1640l-14.27 4.63v-9.27z" fill="#3a414a"/><path d="M1574.54 1640l-16.4 5.32v-10.64zm-15.4 3.95l12.16-3.95-12.15-3.95z" stroke="#3a414a" stroke-width=".05" fill="#3a414a"/><use xlink:href="#j" transform="matrix(1,0,0,1,1354.9198985969308,1626.5333333333333) translate(0.005000000000002558 17.955555555555552)"/><use xlink:href="#i" transform="matrix(1,0,0,1,1354.9198985969308,1626.5333333333333) translate(62.22598765432097 17.955555555555552)"/><path d="M1574.04 1720.5h-4.87v-1h4.87zm-9.74 0h-9.73v-1h9.73zm-14.6 0h-9.73v-1h9.73zm-14.6 0h-9.73v-1h9.73zm-14.6 0h-9.73v-1h9.73zm-14.6 0h-9.73v-1h9.73zm-163.45 0h-6.2v-1h6.2zm-11.03 0h-9.65v-1h9.65zm-14.47 0h-9.65v-1h9.65zm-14.47 0h-9.65v-1h9.65zm-14.47 0h-9.64v-1h9.65zm-14.47 0h-4.82v-1h4.83zm217.77 0h-6.9v-1h6.9z" stroke="#3a414a" stroke-width=".05" fill="#3a414a"/><path d="M1574.54 1720.5h-.5v-1h.5z" fill="#3a414a"/><path d="M1574.56 1720.53h-.56v-1.06h.56zm-.5-1v.94h.45v-.94z" stroke="#3a414a" stroke-width=".05" fill="#3a414a"/><path d="M1268.2 1724.63l-14.26-4.63 14.27-4.63z" fill="#3a414a"/><path d="M1268.7 1725.32l-16.37-5.32 16.38-5.32zm-13.14-5.32l12.15 3.95v-7.9z" stroke="#3a414a" stroke-width=".05" fill="#3a414a"/><use xlink:href="#k" transform="matrix(1,0,0,1,1342.4508020101478,1706.5333333333328) translate(0.0049999999999954525 17.955555555555552)"/><use xlink:href="#l" transform="matrix(1,0,0,1,1342.4508020101478,1706.5333333333328) translate(67.27598765432097 17.955555555555552)"/><path d="M719.5 1359.43v10.02m0 10.03v20.04m0 10.03v20.04m0 10v20.06m0 10.02v20.05m0 10.02v20.05m0 10.02v20.05m0 10.02v20.04m0 10.02V1610m0 10.03v20.04m0 10.03v20.04m0 10.03v20.04m0 10.03v20.05m0 10.02v20.05m0 10.02v20.05m0 10.02v20.05m0 10v20.06m0 10.02v20.05m0 10.02v20.04m0 10.02v20.04m0 10.03v20.03m0 10.03v20.04m0 10.02v20.05m0 10.02v20.04m0 10.02v20.05m0 10.03v20.05m0 10.02v20.05m0 10.02v20.04m0 10.04v20.04m0 10.03v20.05m0 10.03v20.04m0 10.02v20.05m0 10v10.04M719.5 2321.62v.52M839.5 1359.43v10.02m0 10.03v20.04m0 10.03v20.04m0 10v20.06m0 10.02v20.05m0 10.02v20.05m0 10.02v20.05m0 10.02v20.04m0 10.02V1610m0 10.03v20.04m0 10.03v20.04m0 10.03v20.04m0 10.03v20.05m0 10.02v20.05m0 10.02v20.05m0 10.02v20.05m0 10v20.06m0 10.02v20.05m0 10.02v20.04m0 10.02v20.04m0 10.03v20.03m0 10.03v20.04m0 10.02v20.05m0 10.02v20.04m0 10.02v20.05m0 10.03v20.05m0 10.02v20.05m0 10.02v20.04m0 10.04v20.04m0 10.03v20.05m0 10.03v20.04m0 10.02v20.05m0 10v10.04M839.5 2321.62v.52M579.5 1359.43v10.13m0 10.13v20.26m0 10.13v20.25m0 10.13v20.26m0 10.13v20.27m0 10.13v20.26m0 10.13v20.26m0 10.13v20.27m0 10.13v20.26m0 10.14v20.27m0 10.14v20.26m0 10.13v20.26m0 10.12v20.27m0 10.12v20.26m0 10.13v20.27m0 10.13v20.27m0 10.13v20.26m0 10.13v20.26m0 10.13v20.25m0 10.13v20.26m0 10.13v20.27m0 10.13v20.26m0 10.13v20.26m0 10.13v20.27m0 10.13V2099m0 10.14v20.27m0 10.14v20.26m0 10.13v20.26m0 10.12v20.27m0 10.12v20.26m0 10.13v20.27m0 10.14v10.14M579.5 2301.62v.52" stroke="#3a414a" fill="none"/><path d="M380 1508a8 8 0 0 1 8-8h84a8 8 0 0 1 8 8v4.93a17.07 17.07 0 0 1-5 12.07 17.07 17.07 0 0 1-12.07 5H388a8 8 0 0 1-8-8z" fill="#fff"/><path d="M480 1500v20l-10 10h-90" stroke="#3a414a" fill="none"/><path d="M380 1508a8 8 0 0 1 8-8h1424a8 8 0 0 1 8 8v352.58a8 8 0 0 1-8 8H388a8 8 0 0 1-8-8z" stroke="#3a414a" fill="none"/><use xlink:href="#m" transform="matrix(1,0,0,1,388,1500) translate(16.061728395061735 19.488888888888887)"/><use xlink:href="#n" transform="matrix(1,0,0,1,392,1538) translate(20.778086419753095 17.955555555555552)"/><use xlink:href="#o" transform="matrix(1,0,0,1,392,1538) translate(81.8145061728395 17.955555555555552)"/><use xlink:href="#p" transform="matrix(1,0,0,1,392,1538) translate(8.994753086419777 44.888888888888886)"/><use xlink:href="#q" transform="matrix(1,0,0,1,392,1538) translate(47.58672839506174 44.888888888888886)"/><use xlink:href="#r" transform="matrix(1,0,0,1,392,1538) translate(84.99413580246913 44.888888888888886)"/><path d="M884.02 1533.65v58.13a12 12 0 0 1-12 12H720M884.02 1533.66v-.5M720 1603.78h-.5M771.07 1604.28v33.34a12 12 0 0 1-12 12H580M771.07 1604.3v-.52M580 1649.62h-.5" stroke="#3a414a" fill="none"/><path d="M1210.83 1720.5h-4.97v-1h4.97zm-9.93 0h-9.92v-1h9.92zm-14.88 0h-9.92v-1h9.92zm-14.88 0h-9.92v-1h9.92zm-14.88 0h-9.92v-1h9.92zm-14.88 0h-9.93v-1h9.93zm-14.9 0h-9.9v-1h9.9zm-14.87 0h-9.9v-1h9.9zm-162.04-13.66h-9.86v-1h9.86zm-14.8 0h-9.85v-1h9.87zm-14.78 0h-9.86v-1h9.86zm-14.8 0h-9.85v-1h9.86zm-14.78 0h-9.87v-1h9.87zm-14.8 0h-9.86v-1h9.87zm-14.8 0h-4.92v-1h4.93z" stroke="#3a414a" stroke-width=".05" fill="#3a414a"/><path d="M1211.33 1720.5h-.52v-1h.53z" fill="#3a414a"/><path d="M1211.35 1720.53h-.56v-1.06h.55zm-.5-1v.94h.45v-.94z" stroke="#3a414a" stroke-width=".05" fill="#3a414a"/><path d="M855.38 1710.98l-14.26-4.64 14.26-4.63z" fill="#3a414a"/><path d="M855.88 1711.67l-16.38-5.33 16.38-5.32zm-13.14-5.33l12.14 3.95v-7.9z" stroke="#3a414a" stroke-width=".05" fill="#3a414a"/><use xlink:href="#s" transform="matrix(1,0,0,1,951.283538628739,1699.7045174949037) translate(0.0049999999999954525 17.955555555555552)"/><use xlink:href="#t" transform="matrix(1,0,0,1,951.283538628739,1699.7045174949037) translate(67.27598765432097 17.955555555555552)"/><path d="M909.5 1706.84v5.14m0 5.13v10.28m0 5.13v10.28m0 5.14v5.13l-.16 1.88-.44 1.83-.72 1.74-.33.54m-4.38 4.38l-.53.32-1.74.72-1.84.44-1.87.15h-4.9m-4.9 0h-9.8m-4.9 0h-9.8m-4.9 0h-9.78m-4.9 0h-9.8m-4.9 0h-9.8m-4.88 0h-9.8m-4.9 0h-9.8m-4.88 0h-9.8m-4.9 0h-9.8m-4.9 0h-9.78m-4.9 0h-4.9M909.5 1706.86v-.52" stroke="#3a414a" fill="none"/><path d="M721.12 1765.05l14.26-4.63v9.27z" stroke="#3a414a" fill="#3a414a"/><path d="M885.1 1765.55v4.05m0 4.04v8.1m0 4.03v4.05l-.14 1.87-.44 1.82-.72 1.74-.33.54m-4.38 4.38l-.55.33-1.74.73-1.82.44-1.88.15h-5.13m-5.13 0h-10.27m-5.13 0h-10.27m-5.14 0h-10.26m-5.14 0h-10.26m-5.14 0h-10.26m-5.14 0h-10.27m-5.13 0h-10.27m-5.13 0h-10.27m-5.13 0h-10.27m-5.13 0h-10.27m-5.13 0h-10.27m-5.14 0h-10.26m-5.14 0h-10.26m-5.14 0h-10.26m-5.14 0h-10.27m-5.13 0h-10.27m-5.13 0h-10.27m-5.13 0h-5.14M885.1 1765.57v-.52" stroke="#3a414a" fill="none"/><path d="M581.12 1801.82l14.26-4.64v9.27z" stroke="#3a414a" fill="#3a414a"/><path d="M1211.83 1528a8 8 0 0 1 8-8h24a8 8 0 0 1 8 8v204a8 8 0 0 1-8 8h-24a8 8 0 0 1-8-8zM1575.04 1528a8 8 0 0 1 8-8h24a8 8 0 0 1 8 8v204a8 8 0 0 1-8 8h-24a8 8 0 0 1-8-8z" stroke="#3a414a" fill="#f2f3f5"/><defs><path fill="#333" d="M33-154v-36h34v36H33zM33 0v-36h34V0H33" id="u"/><path fill="#333" d="M212-179c-10-28-35-45-73-45-59 0-87 40-87 99 0 60 29 101 89 101 43 0 62-24 78-52l27 14C228-24 195 4 139 4 59 4 22-46 18-125c-6-104 99-153 187-111 19 9 31 26 39 46" id="v"/><path fill="#333" d="M24 0v-261h32V0H24" id="w"/><path fill="#333" d="M24-231v-30h32v30H24zM24 0v-190h32V0H24" id="x"/><path fill="#333" d="M117-194c89-4 53 116 60 194h-32v-121c0-31-8-49-39-48C34-167 62-67 57 0H25l-1-190h30c1 10-1 24 2 32 11-22 29-35 61-36" id="y"/><path fill="#333" d="M96-169c-40 0-48 33-48 73s9 75 48 75c24 0 41-14 43-38l32 2c-6 37-31 61-74 61-59 0-76-41-82-99-10-93 101-131 147-64 4 7 5 14 7 22l-32 3c-4-21-16-35-41-35" id="z"/><g id="a"><use transform="matrix(0.06172839506172839,0,0,0.06172839506172839,0,0)" xlink:href="#u"/><use transform="matrix(0.06172839506172839,0,0,0.06172839506172839,6.172839506172839,0)" xlink:href="#v"/><use transform="matrix(0.06172839506172839,0,0,0.06172839506172839,22.160493827160494,0)" xlink:href="#w"/><use transform="matrix(0.06172839506172839,0,0,0.06172839506172839,27.037037037037038,0)" xlink:href="#x"/><use transform="matrix(0.06172839506172839,0,0,0.06172839506172839,31.913580246913586,0)" xlink:href="#y"/><use transform="matrix(0.06172839506172839,0,0,0.06172839506172839,44.25925925925926,0)" xlink:href="#x"/><use transform="matrix(0.06172839506172839,0,0,0.06172839506172839,49.135802469135804,0)" xlink:href="#z"/><path fill="#333" d="M-1.1 1.54h68.63v1.63H-1.1z"/></g><path fill="#333" d="M185-189c-5-48-123-54-124 2 14 75 158 14 163 119 3 78-121 87-175 55-17-10-28-26-33-46l33-7c5 56 141 63 141-1 0-78-155-14-162-118-5-82 145-84 179-34 5 7 8 16 11 25" id="A"/><path fill="#333" d="M179-190L93 31C79 59 56 82 12 73V49c39 6 53-20 64-50L1-190h34L92-34l54-156h33" id="B"/><path fill="#333" d="M135-143c-3-34-86-38-87 0 15 53 115 12 119 90S17 21 10-45l28-5c4 36 97 45 98 0-10-56-113-15-118-90-4-57 82-63 122-42 12 7 21 19 24 35" id="C"/><path fill="#333" d="M59-47c-2 24 18 29 38 22v24C64 9 27 4 27-40v-127H5v-23h24l9-43h21v43h35v23H59v120" id="D"/><path fill="#333" d="M100-194c63 0 86 42 84 106H49c0 40 14 67 53 68 26 1 43-12 49-29l28 8c-11 28-37 45-77 45C44 4 14-33 15-96c1-61 26-98 85-98zm52 81c6-60-76-77-97-28-3 7-6 17-6 28h103" id="E"/><path fill="#333" d="M210-169c-67 3-38 105-44 169h-31v-121c0-29-5-50-35-48C34-165 62-65 56 0H25l-1-190h30c1 10-1 24 2 32 10-44 99-50 107 0 11-21 27-35 58-36 85-2 47 119 55 194h-31v-121c0-29-5-49-35-48" id="F"/><g id="b"><use transform="matrix(0.06172839506172839,0,0,0.06172839506172839,0,0)" xlink:href="#A"/><use transform="matrix(0.06172839506172839,0,0,0.06172839506172839,14.814814814814813,0)" xlink:href="#B"/><use transform="matrix(0.06172839506172839,0,0,0.06172839506172839,25.925925925925924,0)" xlink:href="#C"/><use transform="matrix(0.06172839506172839,0,0,0.06172839506172839,37.03703703703704,0)" xlink:href="#D"/><use transform="matrix(0.06172839506172839,0,0,0.06172839506172839,43.20987654320988,0)" xlink:href="#E"/><use transform="matrix(0.06172839506172839,0,0,0.06172839506172839,55.55555555555556,0)" xlink:href="#F"/><path fill="#333" d="M-1.1 1.54H75.1v1.63H-1.1z"/></g><g id="c"><use transform="matrix(0.04938271604938272,0,0,0.04938271604938272,0,0)" xlink:href="#u"/><path fill="#333" d="M-.9 1.23h6.73v1.3H-.9z"/><use transform="matrix(0.06172839506172839,0,0,0.06172839506172839,4.938271604938272,0)" xlink:href="#A"/><use transform="matrix(0.06172839506172839,0,0,0.06172839506172839,19.753086419753085,0)" xlink:href="#B"/><use transform="matrix(0.06172839506172839,0,0,0.06172839506172839,30.864197530864196,0)" xlink:href="#C"/><use transform="matrix(0.06172839506172839,0,0,0.06172839506172839,41.9753086419753,0)" xlink:href="#D"/><use transform="matrix(0.06172839506172839,0,0,0.06172839506172839,48.148148148148145,0)" xlink:href="#E"/><use transform="matrix(0.06172839506172839,0,0,0.06172839506172839,60.49382716049382,0)" xlink:href="#F"/><path fill="#333" d="M3.83 1.54h82.4v1.63H3.84z"/></g><path fill="#333" d="M30-248c118-7 216 8 213 122C240-48 200 0 122 0H30v-248zM63-27c89 8 146-16 146-99s-60-101-146-95v194" id="G"/><path fill="#333" d="M160-131c35 5 61 23 61 61C221 17 115-2 30 0v-248c76 3 177-17 177 60 0 33-19 50-47 57zm-97-11c50-1 110 9 110-42 0-47-63-36-110-37v79zm0 115c55-2 124 14 124-45 0-56-70-42-124-44v89" id="H"/><g id="d"><use transform="matrix(0.06172839506172839,0,0,0.06172839506172839,0,0)" xlink:href="#G"/><use transform="matrix(0.06172839506172839,0,0,0.06172839506172839,15.987654320987653,0)" xlink:href="#H"/><path fill="#333" d="M-1.1 1.54h33v1.63h-33z"/></g><path fill="#3a414a" d="M30-248c118-7 216 8 213 122C240-48 200 0 122 0H30v-248zM63-27c89 8 146-16 146-99s-60-101-146-95v194" id="I"/><path fill="#3a414a" d="M100-194c62-1 85 37 85 99 1 63-27 99-86 99S16-35 15-95c0-66 28-99 85-99zM99-20c44 1 53-31 53-75 0-43-8-75-51-75s-53 32-53 75 10 74 51 75" id="J"/><path fill="#3a414a" d="M96-169c-40 0-48 33-48 73s9 75 48 75c24 0 41-14 43-38l32 2c-6 37-31 61-74 61-59 0-76-41-82-99-10-93 101-131 147-64 4 7 5 14 7 22l-32 3c-4-21-16-35-41-35" id="K"/><path fill="#3a414a" d="M59-47c-2 24 18 29 38 22v24C64 9 27 4 27-40v-127H5v-23h24l9-43h21v43h35v23H59v120" id="L"/><path fill="#3a414a" d="M114-163C36-179 61-72 57 0H25l-1-190h30c1 12-1 29 2 39 6-27 23-49 58-41v29" id="M"/><g id="e"><use transform="matrix(0.06172839506172839,0,0,0.06172839506172839,0,0)" xlink:href="#I"/><use transform="matrix(0.06172839506172839,0,0,0.06172839506172839,15.987654320987653,0)" xlink:href="#J"/><use transform="matrix(0.06172839506172839,0,0,0.06172839506172839,28.333333333333332,0)" xlink:href="#K"/><use transform="matrix(0.06172839506172839,0,0,0.06172839506172839,39.44444444444444,0)" xlink:href="#L"/><use transform="matrix(0.06172839506172839,0,0,0.06172839506172839,45.617283950617285,0)" xlink:href="#J"/><use transform="matrix(0.06172839506172839,0,0,0.06172839506172839,57.96296296296296,0)" xlink:href="#M"/></g><path fill="#3a414a" d="M233-177c-1 41-23 64-60 70L243 0h-38l-65-103H63V0H30v-248c88 3 205-21 203 71zM63-129c60-2 137 13 137-47 0-61-80-42-137-45v92" id="N"/><path fill="#3a414a" d="M100-194c63 0 86 42 84 106H49c0 40 14 67 53 68 26 1 43-12 49-29l28 8c-11 28-37 45-77 45C44 4 14-33 15-96c1-61 26-98 85-98zm52 81c6-60-76-77-97-28-3 7-6 17-6 28h103" id="O"/><path fill="#3a414a" d="M115-194c55 1 70 41 70 98S169 2 115 4C84 4 66-9 55-30l1 105H24l-1-265h31l2 30c10-21 28-34 59-34zm-8 174c40 0 45-34 45-75s-6-73-45-74c-42 0-51 32-51 76 0 43 10 73 51 73" id="P"/><path fill="#3a414a" d="M24-231v-30h32v30H24zM24 0v-190h32V0H24" id="Q"/><path fill="#3a414a" d="M117-194c89-4 53 116 60 194h-32v-121c0-31-8-49-39-48C34-167 62-67 57 0H25l-1-190h30c1 10-1 24 2 32 11-22 29-35 61-36" id="R"/><path fill="#3a414a" d="M135-143c-3-34-86-38-87 0 15 53 115 12 119 90S17 21 10-45l28-5c4 36 97 45 98 0-10-56-113-15-118-90-4-57 82-63 122-42 12 7 21 19 24 35" id="S"/><g id="f"><use transform="matrix(0.06172839506172839,0,0,0.06172839506172839,0,0)" xlink:href="#N"/><use transform="matrix(0.06172839506172839,0,0,0.06172839506172839,15.987654320987653,0)" xlink:href="#O"/><use transform="matrix(0.06172839506172839,0,0,0.06172839506172839,28.333333333333332,0)" xlink:href="#K"/><use transform="matrix(0.06172839506172839,0,0,0.06172839506172839,39.44444444444444,0)" xlink:href="#O"/><use transform="matrix(0.06172839506172839,0,0,0.06172839506172839,51.79012345679012,0)" xlink:href="#P"/><use transform="matrix(0.06172839506172839,0,0,0.06172839506172839,64.1358024691358,0)" xlink:href="#L"/><use transform="matrix(0.06172839506172839,0,0,0.06172839506172839,70.30864197530863,0)" xlink:href="#Q"/><use transform="matrix(0.06172839506172839,0,0,0.06172839506172839,75.18518518518518,0)" xlink:href="#J"/><use transform="matrix(0.06172839506172839,0,0,0.06172839506172839,87.53086419753086,0)" xlink:href="#R"/><use transform="matrix(0.06172839506172839,0,0,0.06172839506172839,99.87654320987654,0)" xlink:href="#Q"/><use transform="matrix(0.06172839506172839,0,0,0.06172839506172839,104.75308641975309,0)" xlink:href="#S"/><use transform="matrix(0.06172839506172839,0,0,0.06172839506172839,115.8641975308642,0)" xlink:href="#L"/></g><path fill="#3a414a" d="M205 0l-28-72H64L36 0H1l101-248h38L239 0h-34zm-38-99l-47-123c-12 45-31 82-46 123h93" id="T"/><path fill="#3a414a" d="M85-194c31 0 48 13 60 33l-1-100h32l1 261h-30c-2-10 0-23-3-31C134-8 116 4 85 4 32 4 16-35 15-94c0-66 23-100 70-100zm9 24c-40 0-46 34-46 75 0 40 6 74 45 74 42 0 51-32 51-76 0-42-9-74-50-73" id="U"/><path fill="#3a414a" d="M210-169c-67 3-38 105-44 169h-31v-121c0-29-5-50-35-48C34-165 62-65 56 0H25l-1-190h30c1 10-1 24 2 32 10-44 99-50 107 0 11-21 27-35 58-36 85-2 47 119 55 194h-31v-121c0-29-5-49-35-48" id="V"/><g id="g"><use transform="matrix(0.06172839506172839,0,0,0.06172839506172839,0,0)" xlink:href="#T"/><use transform="matrix(0.06172839506172839,0,0,0.06172839506172839,14.814814814814813,0)" xlink:href="#U"/><use transform="matrix(0.06172839506172839,0,0,0.06172839506172839,27.160493827160494,0)" xlink:href="#V"/><use transform="matrix(0.06172839506172839,0,0,0.06172839506172839,45.61728395061728,0)" xlink:href="#Q"/><use transform="matrix(0.06172839506172839,0,0,0.06172839506172839,50.49382716049382,0)" xlink:href="#R"/></g><path fill="#3a414a" d="M145-31C134-9 116 4 85 4 32 4 16-35 15-94c0-59 17-99 70-100 32-1 48 14 60 33 0-11-1-24 2-32h30l-1 268h-32zM93-21c41 0 51-33 51-76s-8-73-50-73c-40 0-46 35-46 75s5 74 45 74" id="W"/><path fill="#3a414a" d="M84 4C-5 8 30-112 23-190h32v120c0 31 7 50 39 49 72-2 45-101 50-169h31l1 190h-30c-1-10 1-25-2-33-11 22-28 36-60 37" id="X"/><g id="h"><use transform="matrix(0.06234567901234567,0,0,0.06234567901234567,0,0)" xlink:href="#N"/><use transform="matrix(0.06234567901234567,0,0,0.06234567901234567,16.147530864197527,0)" xlink:href="#O"/><use transform="matrix(0.06234567901234567,0,0,0.06234567901234567,28.61666666666666,0)" xlink:href="#W"/><use transform="matrix(0.06234567901234567,0,0,0.06234567901234567,41.08580246913579,0)" xlink:href="#X"/><use transform="matrix(0.06234567901234567,0,0,0.06234567901234567,53.554938271604925,0)" xlink:href="#O"/><use transform="matrix(0.06234567901234567,0,0,0.06234567901234567,66.02407407407406,0)" xlink:href="#S"/><use transform="matrix(0.06234567901234567,0,0,0.06234567901234567,77.24629629629628,0)" xlink:href="#L"/></g><path fill="#3a414a" d="M30 0v-248h33v221h125V0H30" id="Y"/><path fill="#3a414a" d="M177-190C167-65 218 103 67 71c-23-6-38-20-44-43l32-5c15 47 100 32 89-28v-30C133-14 115 1 83 1 29 1 15-40 15-95c0-56 16-97 71-98 29-1 48 16 59 35 1-10 0-23 2-32h30zM94-22c36 0 50-32 50-73 0-42-14-75-50-75-39 0-46 34-46 75s6 73 46 73" id="Z"/><g id="i"><use transform="matrix(0.06234567901234567,0,0,0.06234567901234567,0,0)" xlink:href="#Y"/><use transform="matrix(0.06234567901234567,0,0,0.06234567901234567,12.469135802469133,0)" xlink:href="#J"/><use transform="matrix(0.06234567901234567,0,0,0.06234567901234567,24.938271604938265,0)" xlink:href="#Z"/><use transform="matrix(0.06234567901234567,0,0,0.06234567901234567,37.4074074074074,0)" xlink:href="#Q"/><use transform="matrix(0.06234567901234567,0,0,0.06234567901234567,42.332716049382704,0)" xlink:href="#R"/></g><path fill="#3a414a" d="M137 0h-34L2-248h35l83 218 83-218h36" id="aa"/><path fill="#3a414a" d="M101-234c-31-9-42 10-38 44h38v23H63V0H32v-167H5v-23h27c-7-52 17-82 69-68v24" id="ab"/><path fill="#3a414a" d="M179-190L93 31C79 59 56 82 12 73V49c39 6 53-20 64-50L1-190h34L92-34l54-156h33" id="ac"/><g id="j"><use transform="matrix(0.06234567901234567,0,0,0.06234567901234567,0,0)" xlink:href="#aa"/><use transform="matrix(0.06234567901234567,0,0,0.06234567901234567,13.716049382716047,0)" xlink:href="#O"/><use transform="matrix(0.06234567901234567,0,0,0.06234567901234567,26.18518518518518,0)" xlink:href="#M"/><use transform="matrix(0.06234567901234567,0,0,0.06234567901234567,33.60432098765431,0)" xlink:href="#Q"/><use transform="matrix(0.06234567901234567,0,0,0.06234567901234567,38.52962962962962,0)" xlink:href="#ab"/><use transform="matrix(0.06234567901234567,0,0,0.06234567901234567,44.76419753086418,0)" xlink:href="#ac"/></g><path fill="#3a414a" d="M140-251c81 0 123 46 123 126C263-53 228-8 163 1c7 30 30 48 69 40v23c-55 16-95-15-103-61C56-3 17-48 17-125c0-80 42-126 123-126zm0 227c63 0 89-41 89-101s-29-99-89-99c-61 0-89 39-89 99S79-25 140-24" id="ad"/><g id="k"><use transform="matrix(0.06234567901234567,0,0,0.06234567901234567,0,0)" xlink:href="#ad"/><use transform="matrix(0.06234567901234567,0,0,0.06234567901234567,17.456790123456788,0)" xlink:href="#X"/><use transform="matrix(0.06234567901234567,0,0,0.06234567901234567,29.92592592592592,0)" xlink:href="#O"/><use transform="matrix(0.06234567901234567,0,0,0.06234567901234567,42.39506172839505,0)" xlink:href="#M"/><use transform="matrix(0.06234567901234567,0,0,0.06234567901234567,49.814197530864185,0)" xlink:href="#ac"/></g><path fill="#3a414a" d="M206 0h-36l-40-164L89 0H53L-1-190h32L70-26l43-164h34l41 164 42-164h31" id="ae"/><g id="l"><use transform="matrix(0.06234567901234567,0,0,0.06234567901234567,0,0)" xlink:href="#T"/><use transform="matrix(0.06234567901234567,0,0,0.06234567901234567,14.96296296296296,0)" xlink:href="#R"/><use transform="matrix(0.06234567901234567,0,0,0.06234567901234567,27.432098765432094,0)" xlink:href="#S"/><use transform="matrix(0.06234567901234567,0,0,0.06234567901234567,38.654320987654316,0)" xlink:href="#ae"/><use transform="matrix(0.06234567901234567,0,0,0.06234567901234567,54.80185185185184,0)" xlink:href="#O"/><use transform="matrix(0.06234567901234567,0,0,0.06234567901234567,67.27098765432098,0)" xlink:href="#M"/></g><g id="m"><use transform="matrix(0.06234567901234567,0,0,0.06234567901234567,0,0)" xlink:href="#Y"/><use transform="matrix(0.06234567901234567,0,0,0.06234567901234567,12.469135802469133,0)" xlink:href="#J"/><use transform="matrix(0.06234567901234567,0,0,0.06234567901234567,24.938271604938265,0)" xlink:href="#J"/><use transform="matrix(0.06234567901234567,0,0,0.06234567901234567,37.4074074074074,0)" xlink:href="#P"/></g><g id="n"><use transform="matrix(0.06234567901234567,0,0,0.06234567901234567,0,0)" xlink:href="#Y"/><use transform="matrix(0.06234567901234567,0,0,0.06234567901234567,12.469135802469133,0)" xlink:href="#J"/><use transform="matrix(0.06234567901234567,0,0,0.06234567901234567,24.938271604938265,0)" xlink:href="#Z"/><use transform="matrix(0.06234567901234567,0,0,0.06234567901234567,37.4074074074074,0)" xlink:href="#Q"/><use transform="matrix(0.06234567901234567,0,0,0.06234567901234567,42.332716049382704,0)" xlink:href="#R"/></g><path fill="#3a414a" d="M33 0v-248h34V0H33" id="af"/><g id="o"><use transform="matrix(0.06234567901234567,0,0,0.06234567901234567,0,0)" xlink:href="#af"/><use transform="matrix(0.06234567901234567,0,0,0.06234567901234567,6.234567901234566,0)" xlink:href="#R"/><use transform="matrix(0.06234567901234567,0,0,0.06234567901234567,18.7037037037037,0)" xlink:href="#ab"/><use transform="matrix(0.06234567901234567,0,0,0.06234567901234567,24.938271604938265,0)" xlink:href="#J"/></g><path fill="#3a414a" d="M141-36C126-15 110 5 73 4 37 3 15-17 15-53c-1-64 63-63 125-63 3-35-9-54-41-54-24 1-41 7-42 31l-33-3c5-37 33-52 76-52 45 0 72 20 72 64v82c-1 20 7 32 28 27v20c-31 9-61-2-59-35zM48-53c0 20 12 33 32 33 41-3 63-29 60-74-43 2-92-5-92 41" id="ag"/><g id="p"><use transform="matrix(0.06234567901234567,0,0,0.06234567901234567,0,0)" xlink:href="#ag"/><use transform="matrix(0.06234567901234567,0,0,0.06234567901234567,12.469135802469133,0)" xlink:href="#M"/><use transform="matrix(0.06234567901234567,0,0,0.06234567901234567,19.888271604938268,0)" xlink:href="#O"/></g><g id="q"><use transform="matrix(0.06234567901234567,0,0,0.06234567901234567,0,0)" xlink:href="#R"/><use transform="matrix(0.06234567901234567,0,0,0.06234567901234567,12.469135802469133,0)" xlink:href="#J"/><use transform="matrix(0.06234567901234567,0,0,0.06234567901234567,24.938271604938265,0)" xlink:href="#L"/></g><path fill="#3a414a" d="M108 0H70L1-190h34L89-25l56-165h34" id="ah"/><path fill="#3a414a" d="M24 0v-261h32V0H24" id="ai"/><g id="r"><use transform="matrix(0.06234567901234567,0,0,0.06234567901234567,0,0)" xlink:href="#ah"/><use transform="matrix(0.06234567901234567,0,0,0.06234567901234567,11.22222222222222,0)" xlink:href="#ag"/><use transform="matrix(0.06234567901234567,0,0,0.06234567901234567,23.691358024691354,0)" xlink:href="#ai"/><use transform="matrix(0.06234567901234567,0,0,0.06234567901234567,28.61666666666666,0)" xlink:href="#Q"/><use transform="matrix(0.06234567901234567,0,0,0.06234567901234567,33.541975308641966,0)" xlink:href="#U"/></g><g id="s"><use transform="matrix(0.06234567901234567,0,0,0.06234567901234567,0,0)" xlink:href="#Y"/><use transform="matrix(0.06234567901234567,0,0,0.06234567901234567,12.469135802469133,0)" xlink:href="#J"/><use transform="matrix(0.06234567901234567,0,0,0.06234567901234567,24.938271604938265,0)" xlink:href="#Z"/><use transform="matrix(0.06234567901234567,0,0,0.06234567901234567,37.4074074074074,0)" xlink:href="#Q"/><use transform="matrix(0.06234567901234567,0,0,0.06234567901234567,42.332716049382704,0)" xlink:href="#R"/></g><path fill="#3a414a" d="M143 4C61 4 22-44 18-125c-5-107 100-154 193-111 17 8 29 25 37 43l-32 9c-13-25-37-40-76-40-61 0-88 39-88 99 0 61 29 100 91 101 35 0 62-11 79-27v-45h-74v-28h105v86C228-13 192 4 143 4" id="aj"/><g id="t"><use transform="matrix(0.06234567901234567,0,0,0.06234567901234567,0,0)" xlink:href="#aj"/><use transform="matrix(0.06234567901234567,0,0,0.06234567901234567,17.456790123456788,0)" xlink:href="#M"/><use transform="matrix(0.06234567901234567,0,0,0.06234567901234567,24.875925925925923,0)" xlink:href="#ag"/><use transform="matrix(0.06234567901234567,0,0,0.06234567901234567,37.34506172839505,0)" xlink:href="#R"/><use transform="matrix(0.06234567901234567,0,0,0.06234567901234567,49.814197530864185,0)" xlink:href="#L"/><use transform="matrix(0.06234567901234567,0,0,0.06234567901234567,56.04876543209875,0)" xlink:href="#O"/><use transform="matrix(0.06234567901234567,0,0,0.06234567901234567,68.51790123456789,0)" xlink:href="#U"/></g></defs></g></svg>