<svg xmlns="http://www.w3.org/2000/svg" xmlns:xlink="http://www.w3.org/1999/xlink" xmlns:lucid="lucid" width="1442.52" height="1236.43"><g transform="translate(-497.9814814814815 -44.07116653319963)" lucid:page-tab-id=".Q4MUjXso07N"><path d="M729.94 72.57a8 8 0 0 1 8-8H1692a8 8 0 0 1 8 8V1252a8 8 0 0 1-8 8H737.94a8 8 0 0 1-8-8z" stroke="#000" fill="#f2f3f5"/><use xlink:href="#a" transform="matrix(1,0,0,1,737.9409460791317,72.57116653319963) translate(267.53611111111127 23.288888888888877)"/><use xlink:href="#b" transform="matrix(1,0,0,1,737.9409460791317,72.57116653319963) translate(333.84475308641987 23.288888888888877)"/><use xlink:href="#c" transform="matrix(1,0,0,1,737.9409460791317,72.57116653319963) translate(412.76820987654327 23.288888888888877)"/><use xlink:href="#d" transform="matrix(1,0,0,1,737.9409460791317,72.57116653319963) translate(590.5077160493827 23.288888888888877)"/><path d="M1320 207.5c0 37.28-40.3 67.5-90 67.5s-90-30.22-90-67.5 40.3-67.5 90-67.5 90 30.22 90 67.5z" stroke="#000" fill="#edf5ff"/><use xlink:href="#e" transform="matrix(1,0,0,1,1167,167) translate(30.44444444444445 45.83333333333333)"/><path d="M1899.75 939.75c0 10.9-8.84 19.75-19.75 19.75-10.9 0-19.75-8.84-19.75-19.75 0-10.9 8.84-19.75 19.75-19.75 10.9 0 19.75 8.84 19.75 19.75z" stroke="#333" fill="#fff"/><path d="M1880 959.5v49.3a20.7 20.7 0 0 0 3.2 11.07L1920 1078m-40-63.2l-40 63.2m0-98.75h80" stroke="#333" fill="none"/><path d="M1840 926a6 6 0 0 1 6-6h68a6 6 0 0 1 6 6v168a6 6 0 0 1-6 6h-68a6 6 0 0 1-6-6z" fill="none"/><use xlink:href="#f" transform="matrix(1,0,0,1,1760,1078) translate(88.58024691358025 17.77777777777778)"/><path d="M599.75 294.75c0 10.9-8.84 19.75-19.75 19.75-10.9 0-19.75-8.84-19.75-19.75 0-10.9 8.84-19.75 19.75-19.75 10.9 0 19.75 8.84 19.75 19.75z" stroke="#333" fill="#fff"/><path d="M580 314.5v49.3a20.7 20.7 0 0 0 3.2 11.07L620 433m-40-63.2L540 433m0-98.75h80" stroke="#333" fill="none"/><path d="M540 281a6 6 0 0 1 6-6h68a6 6 0 0 1 6 6v168a6 6 0 0 1-6 6h-68a6 6 0 0 1-6-6z" fill="none"/><use xlink:href="#g" transform="matrix(1,0,0,1,460,433) translate(87.34567901234567 17.77777777777778)"/><path d="M599.75 599.75c0 10.9-8.84 19.75-19.75 19.75-10.9 0-19.75-8.84-19.75-19.75 0-10.9 8.84-19.75 19.75-19.75 10.9 0 19.75 8.84 19.75 19.75z" stroke="#333" fill="#fff"/><path d="M580 619.5v49.3a20.7 20.7 0 0 0 3.2 11.07L620 738m-40-63.2L540 738m0-98.75h80" stroke="#333" fill="none"/><path d="M540 586a6 6 0 0 1 6-6h68a6 6 0 0 1 6 6v168a6 6 0 0 1-6 6h-68a6 6 0 0 1-6-6z" fill="none"/><use xlink:href="#h" transform="matrix(1,0,0,1,460,738) translate(58.98148148148148 17.77777777777778)"/><path d="M1300 998.93c0 37.28-40.3 67.5-90 67.5s-90-30.22-90-67.5 40.3-67.5 90-67.5 90 30.22 90 67.5z" stroke="#000" fill="#edf5ff"/><use xlink:href="#i" transform="matrix(1,0,0,1,1147,958.4316249010485) translate(23.814814814814824 29.833333333333336)"/><use xlink:href="#j" transform="matrix(1,0,0,1,1147,958.4316249010485) translate(3.851851851851862 61.83333333333333)"/><use xlink:href="#k" transform="matrix(1,0,0,1,1147,958.4316249010485) translate(80.74074074074073 61.83333333333333)"/><path d="M930 872.5c0 37.28-40.3 67.5-90 67.5s-90-30.22-90-67.5 40.3-67.5 90-67.5 90 30.22 90 67.5z" stroke="#000" fill="#edf5ff"/><use xlink:href="#l" transform="matrix(1,0,0,1,777,832) translate(7.518518518518533 45.83333333333333)"/><use xlink:href="#m" transform="matrix(1,0,0,1,777,832) translate(62.333333333333336 45.83333333333333)"/><path d="M920 1020c0 33.14-35.82 60-80 60s-80-26.86-80-60 35.82-60 80-60 80 26.86 80 60z" stroke="#000" fill="#edf5ff"/><use xlink:href="#n" transform="matrix(1,0,0,1,784,984) translate(17.555555555555564 25.333333333333336)"/><use xlink:href="#m" transform="matrix(1,0,0,1,784,984) translate(27.92592592592593 57.33333333333333)"/><path d="M920 1162.5c0 34.52-35.82 62.5-80 62.5s-80-27.98-80-62.5c0-34.52 35.82-62.5 80-62.5s80 27.98 80 62.5z" stroke="#000" fill="#edf5ff"/><use xlink:href="#o" transform="matrix(1,0,0,1,784,1125) translate(1.2962962962963047 42.83333333333333)"/><use xlink:href="#m" transform="matrix(1,0,0,1,784,1125) translate(54.55555555555555 42.83333333333333)"/><path d="M1320 358.83c0 37.28-40.3 67.5-90 67.5s-90-30.22-90-67.5c0-37.27 40.3-67.5 90-67.5s90 30.23 90 67.5z" stroke="#000" fill="#edf5ff"/><use xlink:href="#p" transform="matrix(1,0,0,1,1167,318.33372222528715) translate(7.714814814814822 28.887301587301586)"/><use xlink:href="#q" transform="matrix(1,0,0,1,1167,318.33372222528715) translate(22.93827160493828 62.6015873015873)"/><use xlink:href="#r" transform="matrix(1,0,0,1,1167,318.33372222528715) translate(66.64197530864197 62.6015873015873)"/><path d="M1320 507.5c0 37.28-40.3 67.5-90 67.5s-90-30.22-90-67.5 40.3-67.5 90-67.5 90 30.22 90 67.5z" stroke="#000" fill="#edf5ff"/><use xlink:href="#s" transform="matrix(1,0,0,1,1167,467) translate(1.8518518518518619 45.83333333333333)"/><use xlink:href="#t" transform="matrix(1,0,0,1,1167,467) translate(66.37037037037037 45.83333333333333)"/><path d="M1210.5 924.06h-1v-4.4h1zm0-8.8h-1v-8.78h1zm0-13.18h-1v-8.8h1zm-1.36-23.26l.75 1.82.45 1.9.15 1.94v4.4h-1v-4.36l-.14-1.82-.42-1.75-.7-1.67-.3-.5.85-.52zm-9.18-6.67l1.9.46 1.82.76.56.35-.52.86-.5-.3-1.67-.7-1.75-.42-1.82-.14h-4.92v-1h4.96zm-11.85.85h-9.88v-1h9.9zm-14.82 0h-9.9v-1h9.9zm-14.84 0h-9.88v-1h9.88zm-14.83 0h-9.88v-1h9.9zm-14.82 0h-9.9v-1h9.9zm-14.84 0h-9.88v-1h9.88zm-98.68 0h-.2v-1h.2zm-5.15 0h-9.88v-1h9.9zm-14.82 0h-9.9v-1h9.9zm-14.84 0h-9.88v-1h9.88zm-14.83 0h-9.88v-1h9.9zm-14.82 0h-9.9v-1h9.9zm-14.84 0H931v-1h4.94zm163.17 0h-.2v-1h.2z" stroke="#333" stroke-width=".05" fill="#333"/><path d="M1210 929.95l-7.64-12.9h15.28z" fill="#333"/><path d="M1210 930.93l-8.5-14.4h17zm-6.76-13.4l6.76 11.44 6.76-11.43z" stroke="#333" stroke-width=".05" fill="#333"/><path d="M931 873h-.5v-1h.5z" fill="#333"/><path d="M931.04 873.02h-.58V872h.58zm-.52-1v.96h.47V872z" stroke="#333" stroke-width=".05" fill="#333"/><use xlink:href="#u" transform="matrix(1,0,0,1,1015.2565324868996,856.3666666666667) translate(0.005000000000002558 21.511111111111106)"/><path d="M1204.24 1161.3l-.56.34-1.82.75-1.9.45-1.94.15h-5.15v-1h5.1l1.83-.14 1.75-.42 1.67-.7.5-.3zm-16.5 1.7h-10.26v-1h10.26zm-15.4 0h-10.25v-1h10.25zm-15.38 0h-10.26v-1h10.26zm-15.4 0h-10.24v-1h10.25zm-15.38 0h-10.25v-1h10.25zm-15.38 0h-10.26v-1h10.26zm-15.4 0h-10.25v-1h10.26zm-97.9 0h-4.68v-1h4.68zm-9.82 0h-10.25v-1h10.25zm-15.38 0h-10.26v-1h10.26zm-15.4 0h-10.25v-1h10.26zm-15.38 0h-10.26v-1h10.26zm-15.4 0H921v-1h5.13zm284.38-12.48l-.15 1.94-.46 1.9-.76 1.82-.35.56-.86-.52.3-.5.7-1.67.42-1.75.14-1.82v-5.1h1zm0-10.25h-1v-10.22h1zm0-15.34h-1v-10.22h1zm0-15.33h-1v-10.23h1zm0-15.34h-1v-10.23h1zm0-15.34h-1v-5.12h1z" stroke="#333" stroke-width=".05" fill="#333"/><path d="M1217.64 1080.83h-15.28l7.64-12.92z" fill="#333"/><path d="M1218.5 1081.33h-17l8.5-14.4zm-15.26-1h13.52l-6.76-11.43z" stroke="#333" stroke-width=".05" fill="#333"/><path d="M921 1163h-.5V1162.08l.5-.08z" fill="#333"/><path d="M921.04 1163.03h-.58v-.97l.58-.08zm-.52-.93v.87h.47v-.94z" stroke="#333" stroke-width=".05" fill="#333"/><use xlink:href="#v" transform="matrix(1,0,0,1,997.4999509175551,1146.3666666666666) translate(0.005000000000002558 21.511111111111106)"/><path d="M1878.5 998.93h-577M1878.47 998.93h4.03" stroke="#333" stroke-width="2" fill="none"/><path d="M1301.53 999.93h-1.06l.03-1v-.8l-.02-.2h1.05z" stroke="#333" stroke-width=".05" fill="#333"/><path d="M581.5 346.78H848a12 12 0 0 0 12-12V219.5a12 12 0 0 1 12-12h266.5M581.53 346.78h-4.03" stroke="#333" stroke-width="2" fill="none"/><path d="M1139.5 207.5v.8l.02.2h-1.05v-2h1.06z" stroke="#333" stroke-width=".05" fill="#333"/><path d="M581.5 358.83h557M581.53 358.83h-4.03" stroke="#333" stroke-width="2" fill="none"/><path d="M1139.5 358.83v.8l.02.2h-1.05v-2h1.06z" stroke="#333" stroke-width=".05" fill="#333"/><path d="M581.54 670H840.5a12 12 0 0 1 12 12v53.5a12 12 0 0 0 12 12h258.97M581.56 670h-4.02" stroke="#333" stroke-width="2" fill="none"/><path d="M1124.47 747.5v1h-1.03v-2h1.06z" stroke="#333" stroke-width=".05" fill="#333"/><path d="M581.5 658.93H1218a12 12 0 0 0 12-12V576.5M581.53 658.93h-4.03" stroke="#333" stroke-width="2" fill="none"/><path d="M1230 575.5h1v1.03h-2v-1.06zM1869.96 207.15l1.9.46 1.82.76 1.67 1.03 1.5 1.26 1.26 1.5 1.04 1.66.75 1.82.45 1.9.15 1.94V919h-1V219.52l-.14-1.82-.42-1.75-.7-1.67-.94-1.54-1.17-1.37-1.37-1.17-1.54-.94-1.67-.7-1.75-.42-1.82-.14H1321v-1h547.02z" stroke="#333" stroke-width=".05" fill="#333"/><path d="M1880.5 919.56l-.47-.06h-.53v-.5h1z" fill="#333"/><path d="M1880.53 919.6l-.5-.08-.56.02v-.58h1.06zm-1-.6v.5l.5-.03.44.06V919z" stroke="#333" stroke-width=".05" fill="#333"/><path d="M1321 208h-.5v-1h.5z" fill="#333"/><path d="M1321.04 208.03h-.58v-1.06h.58zm-.52-1v.94h.47v-.94z" stroke="#333" stroke-width=".05" fill="#333"/><path d="M1304.97 747.5c0 37.28-40.3 67.5-90 67.5s-90-30.22-90-67.5 40.3-67.5 90-67.5 90 30.22 90 67.5z" stroke="#000" fill="#edf5ff"/><use xlink:href="#w" transform="matrix(1,0,0,1,1151.9704730395658,707) translate(23.814814814814824 29.833333333333336)"/><use xlink:href="#x" transform="matrix(1,0,0,1,1151.9704730395658,707) translate(17.8888888888889 61.83333333333333)"/><use xlink:href="#y" transform="matrix(1,0,0,1,1151.9704730395658,707) translate(75.66666666666666 61.83333333333333)"/><path d="M581.54 365h266.48a12 12 0 0 1 12 12v118.5a12 12 0 0 0 12 12h266.48M581.56 365h-4.02" stroke="#333" stroke-width="2" fill="none"/><path d="M1139.5 507.5v.8l.02.2h-1.05v-2h1.06z" stroke="#333" stroke-width=".05" fill="#333"/><path d="M1680 587.5c0 37.28-40.3 67.5-90 67.5s-90-30.22-90-67.5 40.3-67.5 90-67.5 90 30.22 90 67.5z" stroke="#000" fill="#edf5ff"/><use xlink:href="#z" transform="matrix(1,0,0,1,1527,547) translate(39.296296296296305 29.833333333333336)"/><use xlink:href="#A" transform="matrix(1,0,0,1,1527,547) translate(-16.925925925925924 61.83333333333333)"/><path d="M1680 907.5c0 37.28-40.3 67.5-90 67.5s-90-30.22-90-67.5 40.3-67.5 90-67.5 90 30.22 90 67.5z" stroke="#000" fill="#edf5ff"/><use xlink:href="#B" transform="matrix(1,0,0,1,1527,867) translate(40.074074074074076 29.833333333333336)"/><use xlink:href="#A" transform="matrix(1,0,0,1,1527,867) translate(-16.925925925925924 61.83333333333333)"/><path d="M1286.8 698.8h-1v-4.73h1zm0-9.46h-1v-9.46h1zm0-14.2h-1v-9.44h1zm0-14.17h-1v-9.46h1zm0-14.2h-1v-9.44h1zm0-14.17h-1v-9.46h1zm0-14.2h-1v-9.44h1zm1.57-24.62l-.3.5-.7 1.67-.42 1.75-.15 1.82v4.7h-1v-4.74l.15-1.94.46-1.9.76-1.82.35-.56zm15.08-5.78h-5.13l-1.82.14-1.75.42-1.67.7-.5.3-.52-.85.57-.34 1.8-.75 1.92-.45 1.93-.15h5.17zm15.44 0h-10.3v-1h10.3zm15.43 0h-10.3v-1h10.3zm15.43 0h-10.3v-1h10.3zm15.44 0h-10.3v-1h10.3zm10.57 0h-5.42v-1h5.42zm97.5 0h-10.3v-1h10.3zm15.44 0h-10.28v-1h10.3zm10.3 0h-5.15v-1h5.15z" stroke="#333" stroke-width=".05" fill="#333"/><path d="M1286.3 704.68l-7.63-12.9h15.27z" fill="#333"/><path d="M1286.3 705.67l-8.5-14.4h17.02zm-6.76-13.4l6.76 11.43 6.76-11.43z" stroke="#333" stroke-width=".05" fill="#333"/><path d="M1499.5 587.5v.5h-.5v-1h.5z" fill="#333"/><path d="M1499.53 587.5v.52h-.57V587h.58zm-.52-.48v.96h.48V587z" stroke="#333" stroke-width=".05" fill="#333"/><use xlink:href="#v" transform="matrix(1,0,0,1,1375.773472152215,571.3666666666667) translate(0.005000000000002558 21.511111111111106)"/><path d="M1271.85 905.75l1.67.7 1.75.4 1.82.15h4.9v1h-4.95l-1.94-.15-1.9-.46-1.8-.76-.58-.35.53-.86zm24.95 2.25h-9.87v-1h9.87zm14.8 0h-9.87v-1h9.86zm14.8 0h-9.88v-1h9.87zm14.78 0h-9.86v-1h9.86zm14.8 0h-9.87v-1h9.88zm103.57 0h-9.87v-1h9.87zm14.8 0h-9.87v-1h9.86zm14.8 0h-9.88v-1h9.87zm9.85 0h-4.93v-1h4.93zm-54.25 0h-3.2v-1h3.2zm-179.18-12.52l.14 1.82.43 1.75.7 1.67.3.5-.85.52-.35-.56-.75-1.82-.46-1.9-.15-1.94v-4.7h1zm0-9.37h-1v-9.38h1zm0-14.07h-1v-9.4h1zm0-14.08h-1v-9.4h1zm0-14.1h-1v-9.37h1zm0-14.07h-1v-9.4h1zm0-14.08h-1V811h1z" stroke="#333" stroke-width=".05" fill="#333"/><path d="M1272.7 818.02h-15.27l7.64-12.9z" fill="#333"/><path d="M1273.58 818.52h-17.02l8.5-14.4zm-15.27-1h13.53l-6.76-11.42z" stroke="#333" stroke-width=".05" fill="#333"/><path d="M1499.5 907.5v.5h-.5v-1h.5z" fill="#333"/><path d="M1499.53 907.5v.52h-.57V907h.58zm-.52-.48v.96h.48V907z" stroke="#333" stroke-width=".05" fill="#333"/><use xlink:href="#v" transform="matrix(1,0,0,1,1357.8885960839714,891.3666666666667) translate(0.005000000000002558 21.511111111111106)"/><path d="M1680 747.5c0 37.28-40.3 67.5-90 67.5s-90-30.22-90-67.5 40.3-67.5 90-67.5 90 30.22 90 67.5z" stroke="#000" fill="#edf5ff"/><use xlink:href="#C" transform="matrix(1,0,0,1,1527,707) translate(24.555555555555564 29.833333333333336)"/><use xlink:href="#D" transform="matrix(1,0,0,1,1527,707) translate(-10.259259259259252 61.83333333333333)"/><path d="M1317.53 748h-5.2v-1h5.2zm15.55 0h-10.37v-1h10.38zm15.56 0h-10.37v-1h10.37zm12.02 0h-6.84v-1h6.84zm96.86 0h-10.37v-1h10.37zm15.56 0h-10.37v-1h10.38zm15.55 0h-10.37v-1h10.37zm10.37 0h-5.18v-1h5.18z" stroke="#333" stroke-width=".05" fill="#333"/><path d="M1319.36 755.14l-12.9-7.64 12.9-7.64z" fill="#333"/><path d="M1319.86 756l-14.4-8.5 14.4-8.5zm-12.42-8.5l11.42 6.76v-13.52z" stroke="#333" stroke-width=".05" fill="#333"/><path d="M1499.5 747.5v.5h-.5v-1h.5z" fill="#333"/><path d="M1499.53 747.5v.52h-.57V747h.58zm-.52-.48v.96h.48V747z" stroke="#333" stroke-width=".05" fill="#333"/><g><use xlink:href="#v" transform="matrix(1,0,0,1,1360.6580760259558,731.3666666666667) translate(0.005000000000002558 21.511111111111106)"/></g><path d="M581.5 651.6H1008a12 12 0 0 0 12-12V512.5c-2.76 0-5-2.24-5-5s2.24-5 5-5V363.83c-2.76 0-5-2.23-5-5 0-2.76 2.24-5 5-5V212.5c-2.76 0-5-2.24-5-5s2.24-5 5-5v-17.47a12 12 0 0 1 12-12h118.97M581.53 651.6h-4.03" stroke="#333" stroke-width="2" fill="none"/><path d="M1152.04 172.93l-.8 1.1h-.3v-2h1.86zM961.1 1020.5h-.78v-1h.8zm-5.7 0h-9.83v-1h9.83zm-14.74 0h-9.83v-1h9.83zm-14.75 0H921v-1h4.9zm110.1-21.07h-5.45l-1.6.13-1.52.36-1.45.6-.44.27-.52-.86.5-.3 1.6-.67 1.7-.4 1.7-.14h5.5zm76.63 0h-5.48v-1h5.48zm-10.95 0h-10.95v-1h10.95zm-16.42 0h-10.94v-1h10.94zm-16.42 0h-10.94v-1h10.94zm-16.4 0h-10.96v-1h10.95z" stroke="#333" stroke-width=".05" fill="#333"/><path d="M1118.52 998.93l-12.9 7.64V991.3z" fill="#333"/><path d="M1119.5 998.93l-14.4 8.5v-17zm-13.4 6.76l11.44-6.77-11.43-6.76z" stroke="#333" stroke-width=".05" fill="#333"/><path d="M921 1020.5h-.5v-1h.5z" fill="#333"/><path d="M921.04 1020.52h-.58v-1.04h.58zm-.52-1v.96h.47v-.96z" stroke="#333" stroke-width=".05" fill="#333"/><g><use xlink:href="#v" transform="matrix(1,0,0,1,961.1068700827085,1003.8666666666667) translate(0.005000000000002558 21.511111111111106)"/></g><defs><path fill="#3a414a" d="M30-248c87 1 191-15 191 75 0 78-77 80-158 76V0H30v-248zm33 125c57 0 124 11 124-50 0-59-68-47-124-48v98" id="E"/><path fill="#3a414a" d="M100-194c63 0 86 42 84 106H49c0 40 14 67 53 68 26 1 43-12 49-29l28 8c-11 28-37 45-77 45C44 4 14-33 15-96c1-61 26-98 85-98zm52 81c6-60-76-77-97-28-3 7-6 17-6 28h103" id="F"/><path fill="#3a414a" d="M59-47c-2 24 18 29 38 22v24C64 9 27 4 27-40v-127H5v-23h24l9-43h21v43h35v23H59v120" id="G"/><path fill="#3a414a" d="M135-143c-3-34-86-38-87 0 15 53 115 12 119 90S17 21 10-45l28-5c4 36 97 45 98 0-10-56-113-15-118-90-4-57 82-63 122-42 12 7 21 19 24 35" id="H"/><g id="a"><use transform="matrix(0.08086419753086416,0,0,0.08086419753086416,0,0)" xlink:href="#E"/><use transform="matrix(0.08086419753086416,0,0,0.08086419753086416,19.407407407407398,0)" xlink:href="#F"/><use transform="matrix(0.08086419753086416,0,0,0.08086419753086416,35.580246913580226,0)" xlink:href="#G"/><use transform="matrix(0.08086419753086416,0,0,0.08086419753086416,43.66666666666664,0)" xlink:href="#H"/></g><path fill="#3a414a" d="M212-179c-10-28-35-45-73-45-59 0-87 40-87 99 0 60 29 101 89 101 43 0 62-24 78-52l27 14C228-24 195 4 139 4 59 4 22-46 18-125c-6-104 99-153 187-111 19 9 31 26 39 46" id="I"/><path fill="#3a414a" d="M24 0v-261h32V0H24" id="J"/><path fill="#3a414a" d="M24-231v-30h32v30H24zM24 0v-190h32V0H24" id="K"/><path fill="#3a414a" d="M117-194c89-4 53 116 60 194h-32v-121c0-31-8-49-39-48C34-167 62-67 57 0H25l-1-190h30c1 10-1 24 2 32 11-22 29-35 61-36" id="L"/><path fill="#3a414a" d="M96-169c-40 0-48 33-48 73s9 75 48 75c24 0 41-14 43-38l32 2c-6 37-31 61-74 61-59 0-76-41-82-99-10-93 101-131 147-64 4 7 5 14 7 22l-32 3c-4-21-16-35-41-35" id="M"/><g id="b"><use transform="matrix(0.08086419753086416,0,0,0.08086419753086416,0,0)" xlink:href="#I"/><use transform="matrix(0.08086419753086416,0,0,0.08086419753086416,20.943827160493818,0)" xlink:href="#J"/><use transform="matrix(0.08086419753086416,0,0,0.08086419753086416,27.332098765432086,0)" xlink:href="#K"/><use transform="matrix(0.08086419753086416,0,0,0.08086419753086416,33.720370370370354,0)" xlink:href="#L"/><use transform="matrix(0.08086419753086416,0,0,0.08086419753086416,49.89320987654318,0)" xlink:href="#K"/><use transform="matrix(0.08086419753086416,0,0,0.08086419753086416,56.28148148148145,0)" xlink:href="#M"/></g><path fill="#3a414a" d="M240 0l2-218c-23 76-54 145-80 218h-23L58-218 59 0H30v-248h44l77 211c21-75 51-140 76-211h43V0h-30" id="N"/><path fill="#3a414a" d="M141-36C126-15 110 5 73 4 37 3 15-17 15-53c-1-64 63-63 125-63 3-35-9-54-41-54-24 1-41 7-42 31l-33-3c5-37 33-52 76-52 45 0 72 20 72 64v82c-1 20 7 32 28 27v20c-31 9-61-2-59-35zM48-53c0 20 12 33 32 33 41-3 63-29 60-74-43 2-92-5-92 41" id="O"/><path fill="#3a414a" d="M177-190C167-65 218 103 67 71c-23-6-38-20-44-43l32-5c15 47 100 32 89-28v-30C133-14 115 1 83 1 29 1 15-40 15-95c0-56 16-97 71-98 29-1 48 16 59 35 1-10 0-23 2-32h30zM94-22c36 0 50-32 50-73 0-42-14-75-50-75-39 0-46 34-46 75s6 73 46 73" id="P"/><path fill="#3a414a" d="M210-169c-67 3-38 105-44 169h-31v-121c0-29-5-50-35-48C34-165 62-65 56 0H25l-1-190h30c1 10-1 24 2 32 10-44 99-50 107 0 11-21 27-35 58-36 85-2 47 119 55 194h-31v-121c0-29-5-49-35-48" id="Q"/><g id="c"><use transform="matrix(0.08086419753086416,0,0,0.08086419753086416,0,0)" xlink:href="#N"/><use transform="matrix(0.08086419753086416,0,0,0.08086419753086416,24.178395061728384,0)" xlink:href="#O"/><use transform="matrix(0.08086419753086416,0,0,0.08086419753086416,40.351234567901216,0)" xlink:href="#L"/><use transform="matrix(0.08086419753086416,0,0,0.08086419753086416,56.52407407407406,0)" xlink:href="#O"/><use transform="matrix(0.08086419753086416,0,0,0.08086419753086416,72.69691358024689,0)" xlink:href="#P"/><use transform="matrix(0.08086419753086416,0,0,0.08086419753086416,88.86975308641972,0)" xlink:href="#F"/><use transform="matrix(0.08086419753086416,0,0,0.08086419753086416,105.04259259259256,0)" xlink:href="#Q"/><use transform="matrix(0.08086419753086416,0,0,0.08086419753086416,129.22098765432094,0)" xlink:href="#F"/><use transform="matrix(0.08086419753086416,0,0,0.08086419753086416,145.39382716049377,0)" xlink:href="#L"/><use transform="matrix(0.08086419753086416,0,0,0.08086419753086416,161.5666666666666,0)" xlink:href="#G"/></g><path fill="#3a414a" d="M185-189c-5-48-123-54-124 2 14 75 158 14 163 119 3 78-121 87-175 55-17-10-28-26-33-46l33-7c5 56 141 63 141-1 0-78-155-14-162-118-5-82 145-84 179-34 5 7 8 16 11 25" id="R"/><path fill="#3a414a" d="M179-190L93 31C79 59 56 82 12 73V49c39 6 53-20 64-50L1-190h34L92-34l54-156h33" id="S"/><g id="d"><use transform="matrix(0.08086419753086416,0,0,0.08086419753086416,0,0)" xlink:href="#R"/><use transform="matrix(0.08086419753086416,0,0,0.08086419753086416,19.407407407407398,0)" xlink:href="#S"/><use transform="matrix(0.08086419753086416,0,0,0.08086419753086416,33.96296296296295,0)" xlink:href="#H"/><use transform="matrix(0.08086419753086416,0,0,0.08086419753086416,48.51851851851849,0)" xlink:href="#G"/><use transform="matrix(0.08086419753086416,0,0,0.08086419753086416,56.60493827160492,0)" xlink:href="#F"/><use transform="matrix(0.08086419753086416,0,0,0.08086419753086416,72.77777777777774,0)" xlink:href="#Q"/></g><path fill="#3a414a" d="M30 0v-248h33v221h125V0H30" id="T"/><path fill="#3a414a" d="M100-194c62-1 85 37 85 99 1 63-27 99-86 99S16-35 15-95c0-66 28-99 85-99zM99-20c44 1 53-31 53-75 0-43-8-75-51-75s-53 32-53 75 10 74 51 75" id="U"/><g id="e"><use transform="matrix(0.07407407407407406,0,0,0.07407407407407406,0,0)" xlink:href="#T"/><use transform="matrix(0.07407407407407406,0,0,0.07407407407407406,14.814814814814811,0)" xlink:href="#U"/><use transform="matrix(0.07407407407407406,0,0,0.07407407407407406,29.629629629629623,0)" xlink:href="#P"/><use transform="matrix(0.07407407407407406,0,0,0.07407407407407406,44.444444444444436,0)" xlink:href="#K"/><use transform="matrix(0.07407407407407406,0,0,0.07407407407407406,50.29629629629628,0)" xlink:href="#L"/></g><path fill="#3a414a" d="M205 0l-28-72H64L36 0H1l101-248h38L239 0h-34zm-38-99l-47-123c-12 45-31 82-46 123h93" id="V"/><path fill="#3a414a" d="M85-194c31 0 48 13 60 33l-1-100h32l1 261h-30c-2-10 0-23-3-31C134-8 116 4 85 4 32 4 16-35 15-94c0-66 23-100 70-100zm9 24c-40 0-46 34-46 75 0 40 6 74 45 74 42 0 51-32 51-76 0-42-9-74-50-73" id="W"/><g id="f"><use transform="matrix(0.06172839506172839,0,0,0.06172839506172839,0,0)" xlink:href="#V"/><use transform="matrix(0.06172839506172839,0,0,0.06172839506172839,14.814814814814813,0)" xlink:href="#W"/><use transform="matrix(0.06172839506172839,0,0,0.06172839506172839,27.160493827160494,0)" xlink:href="#Q"/><use transform="matrix(0.06172839506172839,0,0,0.06172839506172839,45.61728395061728,0)" xlink:href="#K"/><use transform="matrix(0.06172839506172839,0,0,0.06172839506172839,50.49382716049382,0)" xlink:href="#L"/></g><path fill="#3a414a" d="M30-248c118-7 216 8 213 122C240-48 200 0 122 0H30v-248zM63-27c89 8 146-16 146-99s-60-101-146-95v194" id="X"/><path fill="#3a414a" d="M114-163C36-179 61-72 57 0H25l-1-190h30c1 12-1 29 2 39 6-27 23-49 58-41v29" id="Y"/><g id="g"><use transform="matrix(0.06172839506172839,0,0,0.06172839506172839,0,0)" xlink:href="#X"/><use transform="matrix(0.06172839506172839,0,0,0.06172839506172839,15.987654320987653,0)" xlink:href="#U"/><use transform="matrix(0.06172839506172839,0,0,0.06172839506172839,28.333333333333332,0)" xlink:href="#M"/><use transform="matrix(0.06172839506172839,0,0,0.06172839506172839,39.44444444444444,0)" xlink:href="#G"/><use transform="matrix(0.06172839506172839,0,0,0.06172839506172839,45.617283950617285,0)" xlink:href="#U"/><use transform="matrix(0.06172839506172839,0,0,0.06172839506172839,57.96296296296296,0)" xlink:href="#Y"/></g><path fill="#3a414a" d="M233-177c-1 41-23 64-60 70L243 0h-38l-65-103H63V0H30v-248c88 3 205-21 203 71zM63-129c60-2 137 13 137-47 0-61-80-42-137-45v92" id="Z"/><path fill="#3a414a" d="M115-194c55 1 70 41 70 98S169 2 115 4C84 4 66-9 55-30l1 105H24l-1-265h31l2 30c10-21 28-34 59-34zm-8 174c40 0 45-34 45-75s-6-73-45-74c-42 0-51 32-51 76 0 43 10 73 51 73" id="aa"/><g id="h"><use transform="matrix(0.06172839506172839,0,0,0.06172839506172839,0,0)" xlink:href="#Z"/><use transform="matrix(0.06172839506172839,0,0,0.06172839506172839,15.987654320987653,0)" xlink:href="#F"/><use transform="matrix(0.06172839506172839,0,0,0.06172839506172839,28.333333333333332,0)" xlink:href="#M"/><use transform="matrix(0.06172839506172839,0,0,0.06172839506172839,39.44444444444444,0)" xlink:href="#F"/><use transform="matrix(0.06172839506172839,0,0,0.06172839506172839,51.79012345679012,0)" xlink:href="#aa"/><use transform="matrix(0.06172839506172839,0,0,0.06172839506172839,64.1358024691358,0)" xlink:href="#G"/><use transform="matrix(0.06172839506172839,0,0,0.06172839506172839,70.30864197530863,0)" xlink:href="#K"/><use transform="matrix(0.06172839506172839,0,0,0.06172839506172839,75.18518518518518,0)" xlink:href="#U"/><use transform="matrix(0.06172839506172839,0,0,0.06172839506172839,87.53086419753086,0)" xlink:href="#L"/><use transform="matrix(0.06172839506172839,0,0,0.06172839506172839,99.87654320987654,0)" xlink:href="#K"/><use transform="matrix(0.06172839506172839,0,0,0.06172839506172839,104.75308641975309,0)" xlink:href="#H"/><use transform="matrix(0.06172839506172839,0,0,0.06172839506172839,115.8641975308642,0)" xlink:href="#G"/></g><path fill="#3a414a" d="M101-234c-31-9-42 10-38 44h38v23H63V0H32v-167H5v-23h27c-7-52 17-82 69-68v24" id="ab"/><g id="i"><use transform="matrix(0.07407407407407406,0,0,0.07407407407407406,0,0)" xlink:href="#N"/><use transform="matrix(0.07407407407407406,0,0,0.07407407407407406,22.14814814814814,0)" xlink:href="#U"/><use transform="matrix(0.07407407407407406,0,0,0.07407407407407406,36.962962962962955,0)" xlink:href="#W"/><use transform="matrix(0.07407407407407406,0,0,0.07407407407407406,51.777777777777764,0)" xlink:href="#K"/><use transform="matrix(0.07407407407407406,0,0,0.07407407407407406,57.62962962962962,0)" xlink:href="#ab"/><use transform="matrix(0.07407407407407406,0,0,0.07407407407407406,65.03703703703702,0)" xlink:href="#S"/></g><path fill="#3a414a" d="M232-93c-1 65-40 97-104 97C67 4 28-28 28-90v-158h33c8 89-33 224 67 224 102 0 64-133 71-224h33v155" id="ac"/><g id="j"><use transform="matrix(0.07407407407407406,0,0,0.07407407407407406,0,0)" xlink:href="#ac"/><use transform="matrix(0.07407407407407406,0,0,0.07407407407407406,19.18518518518518,0)" xlink:href="#H"/><use transform="matrix(0.07407407407407406,0,0,0.07407407407407406,32.51851851851851,0)" xlink:href="#F"/><use transform="matrix(0.07407407407407406,0,0,0.07407407407407406,47.33333333333332,0)" xlink:href="#Y"/><use transform="matrix(0.07407407407407406,0,0,0.07407407407407406,56.14814814814813,0)" xlink:href="#H"/></g><g id="k"><use transform="matrix(0.07407407407407406,0,0,0.07407407407407406,0,0)" xlink:href="#T"/><use transform="matrix(0.07407407407407406,0,0,0.07407407407407406,14.814814814814811,0)" xlink:href="#K"/><use transform="matrix(0.07407407407407406,0,0,0.07407407407407406,20.66666666666666,0)" xlink:href="#H"/><use transform="matrix(0.07407407407407406,0,0,0.07407407407407406,33.99999999999999,0)" xlink:href="#G"/></g><g id="l"><use transform="matrix(0.07407407407407406,0,0,0.07407407407407406,0,0)" xlink:href="#V"/><use transform="matrix(0.07407407407407406,0,0,0.07407407407407406,17.777777777777775,0)" xlink:href="#W"/><use transform="matrix(0.07407407407407406,0,0,0.07407407407407406,32.59259259259259,0)" xlink:href="#W"/></g><g id="m"><use transform="matrix(0.07407407407407406,0,0,0.07407407407407406,0,0)" xlink:href="#ac"/><use transform="matrix(0.07407407407407406,0,0,0.07407407407407406,19.18518518518518,0)" xlink:href="#H"/><use transform="matrix(0.07407407407407406,0,0,0.07407407407407406,32.51851851851851,0)" xlink:href="#F"/><use transform="matrix(0.07407407407407406,0,0,0.07407407407407406,47.33333333333332,0)" xlink:href="#Y"/></g><g id="n"><use transform="matrix(0.07407407407407406,0,0,0.07407407407407406,0,0)" xlink:href="#X"/><use transform="matrix(0.07407407407407406,0,0,0.07407407407407406,19.18518518518518,0)" xlink:href="#F"/><use transform="matrix(0.07407407407407406,0,0,0.07407407407407406,33.99999999999999,0)" xlink:href="#J"/><use transform="matrix(0.07407407407407406,0,0,0.07407407407407406,39.85185185185184,0)" xlink:href="#F"/><use transform="matrix(0.07407407407407406,0,0,0.07407407407407406,54.66666666666665,0)" xlink:href="#G"/><use transform="matrix(0.07407407407407406,0,0,0.07407407407407406,62.07407407407406,0)" xlink:href="#F"/></g><path fill="#3a414a" d="M30 0v-248h187v28H63v79h144v27H63v87h162V0H30" id="ad"/><g id="o"><use transform="matrix(0.07407407407407406,0,0,0.07407407407407406,0,0)" xlink:href="#ad"/><use transform="matrix(0.07407407407407406,0,0,0.07407407407407406,17.777777777777775,0)" xlink:href="#W"/><use transform="matrix(0.07407407407407406,0,0,0.07407407407407406,32.59259259259259,0)" xlink:href="#K"/><use transform="matrix(0.07407407407407406,0,0,0.07407407407407406,38.444444444444436,0)" xlink:href="#G"/></g><path fill="#202124" d="M30-248c118-7 216 8 213 122C240-48 200 0 122 0H30v-248zM63-27c89 8 146-16 146-99s-60-101-146-95v194" id="ae"/><path fill="#202124" d="M24-231v-30h32v30H24zM24 0v-190h32V0H24" id="af"/><path fill="#202124" d="M141-36C126-15 110 5 73 4 37 3 15-17 15-53c-1-64 63-63 125-63 3-35-9-54-41-54-24 1-41 7-42 31l-33-3c5-37 33-52 76-52 45 0 72 20 72 64v82c-1 20 7 32 28 27v20c-31 9-61-2-59-35zM48-53c0 20 12 33 32 33 41-3 63-29 60-74-43 2-92-5-92 41" id="ag"/><path fill="#202124" d="M177-190C167-65 218 103 67 71c-23-6-38-20-44-43l32-5c15 47 100 32 89-28v-30C133-14 115 1 83 1 29 1 15-40 15-95c0-56 16-97 71-98 29-1 48 16 59 35 1-10 0-23 2-32h30zM94-22c36 0 50-32 50-73 0-42-14-75-50-75-39 0-46 34-46 75s6 73 46 73" id="ah"/><path fill="#202124" d="M117-194c89-4 53 116 60 194h-32v-121c0-31-8-49-39-48C34-167 62-67 57 0H25l-1-190h30c1 10-1 24 2 32 11-22 29-35 61-36" id="ai"/><path fill="#202124" d="M100-194c62-1 85 37 85 99 1 63-27 99-86 99S16-35 15-95c0-66 28-99 85-99zM99-20c44 1 53-31 53-75 0-43-8-75-51-75s-53 32-53 75 10 74 51 75" id="aj"/><path fill="#202124" d="M135-143c-3-34-86-38-87 0 15 53 115 12 119 90S17 21 10-45l28-5c4 36 97 45 98 0-10-56-113-15-118-90-4-57 82-63 122-42 12 7 21 19 24 35" id="ak"/><path fill="#202124" d="M100-194c63 0 86 42 84 106H49c0 40 14 67 53 68 26 1 43-12 49-29l28 8c-11 28-37 45-77 45C44 4 14-33 15-96c1-61 26-98 85-98zm52 81c6-60-76-77-97-28-3 7-6 17-6 28h103" id="al"/><g id="p"><use transform="matrix(0.07283950617283949,0,0,0.07283950617283949,0,0)" xlink:href="#ae"/><use transform="matrix(0.07283950617283949,0,0,0.07283950617283949,18.865432098765428,0)" xlink:href="#af"/><use transform="matrix(0.07283950617283949,0,0,0.07283950617283949,24.61975308641975,0)" xlink:href="#ag"/><use transform="matrix(0.07283950617283949,0,0,0.07283950617283949,39.18765432098765,0)" xlink:href="#ah"/><use transform="matrix(0.07283950617283949,0,0,0.07283950617283949,53.755555555555546,0)" xlink:href="#ai"/><use transform="matrix(0.07283950617283949,0,0,0.07283950617283949,68.32345679012344,0)" xlink:href="#aj"/><use transform="matrix(0.07283950617283949,0,0,0.07283950617283949,82.89135802469134,0)" xlink:href="#ak"/><use transform="matrix(0.07283950617283949,0,0,0.07283950617283949,96.00246913580244,0)" xlink:href="#al"/></g><path fill="#202124" d="M59-47c-2 24 18 29 38 22v24C64 9 27 4 27-40v-127H5v-23h24l9-43h21v43h35v23H59v120" id="am"/><path fill="#202124" d="M106-169C34-169 62-67 57 0H25v-261h32l-1 103c12-21 28-36 61-36 89 0 53 116 60 194h-32v-121c2-32-8-49-39-48" id="an"/><g id="q"><use transform="matrix(0.07283950617283949,0,0,0.07283950617283949,0,0)" xlink:href="#am"/><use transform="matrix(0.07283950617283949,0,0,0.07283950617283949,7.283950617283949,0)" xlink:href="#an"/><use transform="matrix(0.07283950617283949,0,0,0.07283950617283949,21.851851851851848,0)" xlink:href="#al"/></g><path fill="#202124" d="M115-194c55 1 70 41 70 98S169 2 115 4C84 4 66-9 55-30l1 105H24l-1-265h31l2 30c10-21 28-34 59-34zm-8 174c40 0 45-34 45-75s-6-73-45-74c-42 0-51 32-51 76 0 43 10 73 51 73" id="ao"/><g id="r"><use transform="matrix(0.07283950617283949,0,0,0.07283950617283949,0,0)" xlink:href="#ao"/><use transform="matrix(0.07283950617283949,0,0,0.07283950617283949,14.567901234567898,0)" xlink:href="#al"/><use transform="matrix(0.07283950617283949,0,0,0.07283950617283949,29.135802469135797,0)" xlink:href="#am"/></g><path fill="#3a414a" d="M137 0h-34L2-248h35l83 218 83-218h36" id="ap"/><path fill="#3a414a" d="M206 0h-36l-40-164L89 0H53L-1-190h32L70-26l43-164h34l41 164 42-164h31" id="aq"/><g id="s"><use transform="matrix(0.07407407407407406,0,0,0.07407407407407406,0,0)" xlink:href="#ap"/><use transform="matrix(0.07407407407407406,0,0,0.07407407407407406,17.259259259259256,0)" xlink:href="#K"/><use transform="matrix(0.07407407407407406,0,0,0.07407407407407406,23.111111111111107,0)" xlink:href="#F"/><use transform="matrix(0.07407407407407406,0,0,0.07407407407407406,37.92592592592592,0)" xlink:href="#aq"/></g><g id="t"><use transform="matrix(0.07407407407407406,0,0,0.07407407407407406,0,0)" xlink:href="#T"/><use transform="matrix(0.07407407407407406,0,0,0.07407407407407406,14.814814814814811,0)" xlink:href="#U"/><use transform="matrix(0.07407407407407406,0,0,0.07407407407407406,29.629629629629623,0)" xlink:href="#P"/><use transform="matrix(0.07407407407407406,0,0,0.07407407407407406,44.444444444444436,0)" xlink:href="#H"/></g><path d="M30 0v-248h187v28H63v79h144v27H63v87h162V0H30" id="ar"/><path d="M141 0L90-78 38 0H4l68-98-65-92h35l48 74 47-74h35l-64 92 68 98h-35" id="as"/><path d="M59-47c-2 24 18 29 38 22v24C64 9 27 4 27-40v-127H5v-23h24l9-43h21v43h35v23H59v120" id="at"/><path d="M100-194c63 0 86 42 84 106H49c0 40 14 67 53 68 26 1 43-12 49-29l28 8c-11 28-37 45-77 45C44 4 14-33 15-96c1-61 26-98 85-98zm52 81c6-60-76-77-97-28-3 7-6 17-6 28h103" id="au"/><path d="M117-194c89-4 53 116 60 194h-32v-121c0-31-8-49-39-48C34-167 62-67 57 0H25l-1-190h30c1 10-1 24 2 32 11-22 29-35 61-36" id="av"/><path d="M85-194c31 0 48 13 60 33l-1-100h32l1 261h-30c-2-10 0-23-3-31C134-8 116 4 85 4 32 4 16-35 15-94c0-66 23-100 70-100zm9 24c-40 0-46 34-46 75 0 40 6 74 45 74 42 0 51-32 51-76 0-42-9-74-50-73" id="aw"/><g id="u"><use transform="matrix(0.07469135802469135,0,0,0.07469135802469135,0,0)" xlink:href="#ar"/><use transform="matrix(0.07469135802469135,0,0,0.07469135802469135,17.925925925925924,0)" xlink:href="#as"/><use transform="matrix(0.07469135802469135,0,0,0.07469135802469135,31.370370370370367,0)" xlink:href="#at"/><use transform="matrix(0.07469135802469135,0,0,0.07469135802469135,38.8395061728395,0)" xlink:href="#au"/><use transform="matrix(0.07469135802469135,0,0,0.07469135802469135,53.77777777777777,0)" xlink:href="#av"/><use transform="matrix(0.07469135802469135,0,0,0.07469135802469135,68.71604938271604,0)" xlink:href="#aw"/></g><g id="v"><use transform="matrix(0.07469135802469135,0,0,0.07469135802469135,0,0)" xlink:href="#ar"/><use transform="matrix(0.07469135802469135,0,0,0.07469135802469135,17.925925925925924,0)" xlink:href="#as"/><use transform="matrix(0.07469135802469135,0,0,0.07469135802469135,31.370370370370367,0)" xlink:href="#at"/><use transform="matrix(0.07469135802469135,0,0,0.07469135802469135,38.8395061728395,0)" xlink:href="#au"/><use transform="matrix(0.07469135802469135,0,0,0.07469135802469135,53.77777777777777,0)" xlink:href="#av"/><use transform="matrix(0.07469135802469135,0,0,0.07469135802469135,68.71604938271604,0)" xlink:href="#aw"/></g><g id="w"><use transform="matrix(0.07407407407407406,0,0,0.07407407407407406,0,0)" xlink:href="#N"/><use transform="matrix(0.07407407407407406,0,0,0.07407407407407406,22.14814814814814,0)" xlink:href="#U"/><use transform="matrix(0.07407407407407406,0,0,0.07407407407407406,36.962962962962955,0)" xlink:href="#W"/><use transform="matrix(0.07407407407407406,0,0,0.07407407407407406,51.777777777777764,0)" xlink:href="#K"/><use transform="matrix(0.07407407407407406,0,0,0.07407407407407406,57.62962962962962,0)" xlink:href="#ab"/><use transform="matrix(0.07407407407407406,0,0,0.07407407407407406,65.03703703703702,0)" xlink:href="#S"/></g><g id="x"><use transform="matrix(0.07407407407407406,0,0,0.07407407407407406,0,0)" xlink:href="#aa"/><use transform="matrix(0.07407407407407406,0,0,0.07407407407407406,14.814814814814811,0)" xlink:href="#F"/><use transform="matrix(0.07407407407407406,0,0,0.07407407407407406,29.629629629629623,0)" xlink:href="#G"/><use transform="matrix(0.07407407407407406,0,0,0.07407407407407406,37.03703703703703,0)" xlink:href="#H"/></g><g id="y"><use transform="matrix(0.07407407407407406,0,0,0.07407407407407406,0,0)" xlink:href="#J"/><use transform="matrix(0.07407407407407406,0,0,0.07407407407407406,5.85185185185185,0)" xlink:href="#K"/><use transform="matrix(0.07407407407407406,0,0,0.07407407407407406,11.7037037037037,0)" xlink:href="#H"/><use transform="matrix(0.07407407407407406,0,0,0.07407407407407406,25.03703703703703,0)" xlink:href="#G"/></g><g id="z"><use transform="matrix(0.07407407407407406,0,0,0.07407407407407406,0,0)" xlink:href="#V"/><use transform="matrix(0.07407407407407406,0,0,0.07407407407407406,17.777777777777775,0)" xlink:href="#W"/><use transform="matrix(0.07407407407407406,0,0,0.07407407407407406,32.59259259259259,0)" xlink:href="#W"/></g><g id="A"><use transform="matrix(0.07407407407407406,0,0,0.07407407407407406,0,0)" xlink:href="#O"/><use transform="matrix(0.07407407407407406,0,0,0.07407407407407406,14.814814814814811,0)" xlink:href="#aa"/><use transform="matrix(0.07407407407407406,0,0,0.07407407407407406,29.629629629629623,0)" xlink:href="#aa"/><use transform="matrix(0.07407407407407406,0,0,0.07407407407407406,44.444444444444436,0)" xlink:href="#U"/><use transform="matrix(0.07407407407407406,0,0,0.07407407407407406,59.259259259259245,0)" xlink:href="#K"/><use transform="matrix(0.07407407407407406,0,0,0.07407407407407406,65.1111111111111,0)" xlink:href="#L"/><use transform="matrix(0.07407407407407406,0,0,0.07407407407407406,79.92592592592591,0)" xlink:href="#G"/><use transform="matrix(0.07407407407407406,0,0,0.07407407407407406,87.33333333333331,0)" xlink:href="#Q"/><use transform="matrix(0.07407407407407406,0,0,0.07407407407407406,109.48148148148145,0)" xlink:href="#F"/><use transform="matrix(0.07407407407407406,0,0,0.07407407407407406,124.29629629629626,0)" xlink:href="#L"/><use transform="matrix(0.07407407407407406,0,0,0.07407407407407406,139.1111111111111,0)" xlink:href="#G"/><use transform="matrix(0.07407407407407406,0,0,0.07407407407407406,146.5185185185185,0)" xlink:href="#H"/></g><g id="B"><use transform="matrix(0.07407407407407406,0,0,0.07407407407407406,0,0)" xlink:href="#ad"/><use transform="matrix(0.07407407407407406,0,0,0.07407407407407406,17.777777777777775,0)" xlink:href="#W"/><use transform="matrix(0.07407407407407406,0,0,0.07407407407407406,32.59259259259259,0)" xlink:href="#K"/><use transform="matrix(0.07407407407407406,0,0,0.07407407407407406,38.444444444444436,0)" xlink:href="#G"/></g><g id="C"><use transform="matrix(0.07407407407407406,0,0,0.07407407407407406,0,0)" xlink:href="#X"/><use transform="matrix(0.07407407407407406,0,0,0.07407407407407406,19.18518518518518,0)" xlink:href="#F"/><use transform="matrix(0.07407407407407406,0,0,0.07407407407407406,33.99999999999999,0)" xlink:href="#J"/><use transform="matrix(0.07407407407407406,0,0,0.07407407407407406,39.85185185185184,0)" xlink:href="#F"/><use transform="matrix(0.07407407407407406,0,0,0.07407407407407406,54.66666666666665,0)" xlink:href="#G"/><use transform="matrix(0.07407407407407406,0,0,0.07407407407407406,62.07407407407406,0)" xlink:href="#F"/></g><g id="D"><use transform="matrix(0.07407407407407406,0,0,0.07407407407407406,0,0)" xlink:href="#O"/><use transform="matrix(0.07407407407407406,0,0,0.07407407407407406,14.814814814814811,0)" xlink:href="#aa"/><use transform="matrix(0.07407407407407406,0,0,0.07407407407407406,29.629629629629623,0)" xlink:href="#aa"/><use transform="matrix(0.07407407407407406,0,0,0.07407407407407406,44.444444444444436,0)" xlink:href="#U"/><use transform="matrix(0.07407407407407406,0,0,0.07407407407407406,59.259259259259245,0)" xlink:href="#K"/><use transform="matrix(0.07407407407407406,0,0,0.07407407407407406,65.1111111111111,0)" xlink:href="#L"/><use transform="matrix(0.07407407407407406,0,0,0.07407407407407406,79.92592592592591,0)" xlink:href="#G"/><use transform="matrix(0.07407407407407406,0,0,0.07407407407407406,87.33333333333331,0)" xlink:href="#Q"/><use transform="matrix(0.07407407407407406,0,0,0.07407407407407406,109.48148148148145,0)" xlink:href="#F"/><use transform="matrix(0.07407407407407406,0,0,0.07407407407407406,124.29629629629626,0)" xlink:href="#L"/><use transform="matrix(0.07407407407407406,0,0,0.07407407407407406,139.1111111111111,0)" xlink:href="#G"/></g></defs></g></svg>