<svg xmlns="http://www.w3.org/2000/svg" xmlns:xlink="http://www.w3.org/1999/xlink" xmlns:lucid="lucid" width="1425.73" height="1521.53"><g transform="translate(1140.5 580.5)" lucid:page-tab-id="0_0"><path d="M-320-530c0 16.57-14.6 30-32.6 30s-32.6-13.43-32.6-30 14.6-30 32.6-30 32.62 13.43 32.62 30z" stroke="#333"/><path d="M-352.1-356.88h-1v-49.8h1zm0-76.45h-1V-499h1z" stroke="#3a414a" stroke-width=".05" fill="#3a414a"/><path d="M-352.6-499.5h.5v.5h-1v-.54z" fill="#3a414a"/><path d="M-352.6-499.52l.53-.02v.58h-1.06v-.6zm-.47.5h.94v-.46h-.5l-.44-.03z" stroke="#3a414a" stroke-width=".05" fill="#3a414a"/><path d="M-352.6-342.12l-4.63-14.26h9.27z" fill="#3a414a"/><path d="M-352.6-340.5l-5.32-16.38h10.64zm-3.95-15.38l3.95 12.14 3.95-12.14z" stroke="#3a414a" stroke-width=".05" fill="#3a414a"/><use xlink:href="#a" transform="matrix(1,0,0,1,-451.7049382716048,-433.3332639797052) translate(0 17.777777777777775)"/><use xlink:href="#b" transform="matrix(1,0,0,1,-451.7049382716048,-433.3332639797052) translate(145.3086419753086 17.777777777777775)"/><path d="M-352.1-96.88h-1v-46.45h1zm0-99.8h-1V-259h1z" stroke="#3a414a" stroke-width=".05" fill="#3a414a"/><path d="M-352.1-259h-1v-.5h1z" fill="#3a414a"/><path d="M-352.07-258.96h-1.06v-.56h1.06zm-1-.52v.47h.94v-.48z" stroke="#3a414a" stroke-width=".05" fill="#3a414a"/><path d="M-352.6-82.12l-4.63-14.26h9.27z" fill="#3a414a"/><path d="M-352.6-80.5l-5.32-16.38h10.64zm-3.95-15.38l3.95 12.14 3.95-12.14z" stroke="#3a414a" stroke-width=".05" fill="#3a414a"/><use xlink:href="#c" transform="matrix(1,0,0,1,-441.85925925925915,-196.66666666666666) translate(0 17.777777777777775)"/><use xlink:href="#d" transform="matrix(1,0,0,1,-441.85925925925915,-196.66666666666666) translate(139.13580246913577 17.777777777777775)"/><use xlink:href="#e" transform="matrix(1,0,0,1,-441.85925925925915,-196.66666666666666) translate(0 44.44444444444444)"/><use xlink:href="#f" transform="matrix(1,0,0,1,-441.85925925925915,-196.66666666666666) translate(6.1728395061728385 44.44444444444444)"/><path d="M-323.65 890.53c0 16.57-14.6 30-32.62 30-18 0-32.6-13.43-32.6-30s14.6-30 32.6-30c18.02 0 32.62 13.43 32.62 30z" stroke="#333" fill="#fff"/><path d="M-336.7 890.53c0 9.94-8.76 18-19.56 18-10.8 0-19.57-8.06-19.57-18s8.76-18 19.56-18c10.8 0 19.57 8.06 19.57 18z" stroke="#333"/><path d="M-432.6-332a8 8 0 0 1 8-8h144a8 8 0 0 1 8 8v64a8 8 0 0 1-8 8h-144a8 8 0 0 1-8-8z" stroke="#000" fill="#cfe4ff"/><use xlink:href="#g" transform="matrix(1,0,0,1,-432.5999999999999,-340) translate(44.032777777777774 43.5)"/><path d="M40.5-96.88h-1v-46.6h1zm-5.48-203.54l1 .24.93.4.87.52.78.66.66.78.53.87.38.94.24.98.08 1v97.2h-1v-97.16l-.07-.88-.2-.84-.33-.8-.45-.73-.56-.66-.67-.55-.73-.45-.8-.33-.84-.2-.88-.07H-271.6v-1H34.02z" stroke="#3a414a" stroke-width=".05" fill="#3a414a"/><path d="M-271.6-299.5h-.5v-1h.5z" fill="#3a414a"/><path d="M-271.56-299.48h-.56v-1.04h.56zm-.5-1v.96h.45v-.96z" stroke="#3a414a" stroke-width=".05" fill="#3a414a"/><path d="M40-82.12l-4.63-14.26h9.27z" fill="#3a414a"/><path d="M40-80.5l-5.32-16.38h10.64zm-3.95-15.38L40-83.74l3.95-12.14z" stroke="#3a414a" stroke-width=".05" fill="#3a414a"/><use xlink:href="#c" transform="matrix(1,0,0,1,-49.25925925925924,-196.82270317079858) translate(0 17.777777777777775)"/><use xlink:href="#h" transform="matrix(1,0,0,1,-49.25925925925924,-196.82270317079858) translate(139.13580246913577 17.777777777777775)"/><use xlink:href="#e" transform="matrix(1,0,0,1,-49.25925925925924,-196.82270317079858) translate(0 44.44444444444444)"/><use xlink:href="#f" transform="matrix(1,0,0,1,-49.25925925925924,-196.82270317079858) translate(6.1728395061728385 44.44444444444444)"/><path d="M-40-72a8 8 0 0 1 8-8h144a8 8 0 0 1 8 8v64a8 8 0 0 1-8 8H-32a8 8 0 0 1-8-8z" stroke="#000" fill="#cfe4ff"/><use xlink:href="#i" transform="matrix(1,0,0,1,-40,-80) translate(60.64388888888889 31)"/><use xlink:href="#j" transform="matrix(1,0,0,1,-40,-80) translate(26.282777777777774 55)"/><path d="M-432.6-72a8 8 0 0 1 8-8h144a8 8 0 0 1 8 8v64a8 8 0 0 1-8 8h-144a8 8 0 0 1-8-8z" stroke="#000" fill="#cfe4ff"/><use xlink:href="#k" transform="matrix(1,0,0,1,-432.5999999999999,-80) translate(61.17166666666666 31)"/><use xlink:href="#j" transform="matrix(1,0,0,1,-432.5999999999999,-80) translate(26.282777777777774 55)"/><path d="M-780-72a8 8 0 0 1 8-8h144a8 8 0 0 1 8 8v64a8 8 0 0 1-8 8h-144a8 8 0 0 1-8-8z" stroke="#000" fill="#cfe4ff"/><use xlink:href="#l" transform="matrix(1,0,0,1,-780,-80) translate(50.060555555555545 31)"/><use xlink:href="#j" transform="matrix(1,0,0,1,-780,-80) translate(26.282777777777774 55)"/><path d="M-433.6-299.5h-600.38l-.88.07-.84.2-.8.33-.73.45-.66.56-.55.67-.45.73-.33.8-.2.84-.07.88v417.1h-1v-417.14l.08-1 .24-1 .4-.93.52-.87.66-.78.78-.66.87-.53.94-.38.98-.24 1-.08h600.42z" stroke="#3a414a" stroke-width=".05" fill="#3a414a"/><path d="M-433.1-299.5h-.5v-1h.5z" fill="#3a414a"/><path d="M-433.07-299.48h-.57v-1.04h.56zm-.52-1v.96h.48v-.96z" stroke="#3a414a" stroke-width=".05" fill="#3a414a"/><path d="M-1040 137.88l-4.63-14.26h9.27z" fill="#3a414a"/><path d="M-1040 139.5l-5.32-16.38h10.64zm-3.95-15.38l3.95 12.14 3.95-12.14z" stroke="#3a414a" stroke-width=".05" fill="#3a414a"/><path d="M-1120 148a8 8 0 0 1 8-8h144a8 8 0 0 1 8 8v64a8 8 0 0 1-8 8h-144a8 8 0 0 1-8-8z" stroke="#000" fill="#cfe4ff"/><use xlink:href="#m" transform="matrix(1,0,0,1,-1120,140) translate(20.67166666666666 43.5)"/><use xlink:href="#n" transform="matrix(1,0,0,1,-1120,140) translate(98.33833333333334 43.5)"/><path d="M40.5 163.12h-1v-41.97h1zm0-68.64h-1V1h1z" stroke="#3a414a" stroke-width=".05" fill="#3a414a"/><path d="M40.5 1h-1V.5h1z" fill="#3a414a"/><path d="M40.52 1.04h-1.05V.47h1.05zm-1-.52V1h.95V.52z" stroke="#3a414a" stroke-width=".05" fill="#3a414a"/><path d="M40 177.88l-4.63-14.26h9.27z" fill="#3a414a"/><path d="M40 179.5l-5.32-16.38h10.64zm-3.95-15.38L40 176.25l3.95-12.14z" stroke="#3a414a" stroke-width=".05" fill="#3a414a"/><use xlink:href="#o" transform="matrix(1,0,0,1,-52.34567901234564,94.48040800569413) translate(0 17.777777777777775)"/><use xlink:href="#p" transform="matrix(1,0,0,1,-52.34567901234564,94.48040800569413) translate(62.83950617283949 17.777777777777775)"/><path d="M-50.2 180c-10.94 0-19.8 8.86-19.8 19.8v59.4c0 10.92 8.86 19.8 19.8 19.8h180.4c10.94 0 19.8-8.88 19.8-19.8v-59.4c0-10.94-8.86-19.8-19.8-19.8z" stroke="#333" fill="#cfe4ff"/><use xlink:href="#q" transform="matrix(1,0,0,1,-62,188) translate(47.16666666666666 35.099999999999994)"/><use xlink:href="#r" transform="matrix(1,0,0,1,-62,188) translate(65.97222222222223 59.099999999999994)"/><path d="M33.98 425.27a9.14 9.14 0 0 1 12.04 0l56.53 49.46a7 7 0 0 1 0 10.54l-56.53 49.46a9.14 9.14 0 0 1-12.04 0l-56.53-49.46a7 7 0 0 1 0-10.54z" stroke="#333" fill="#fcfcca"/><use xlink:href="#s" transform="matrix(1,0,0,1,-28.57142857142857,420) translate(33.03277777777778 57.01)"/><use xlink:href="#t" transform="matrix(1,0,0,1,-28.57142857142857,420) translate(48.005 81.00999999999999)"/><path d="M40.5 406.12h-1v-58.18h1zm0-84.85h-1V280h1z" stroke="#3a414a" stroke-width=".05" fill="#3a414a"/><path d="M40.5 280h-1v-.5h1z" fill="#3a414a"/><path d="M40.52 280.02h-1.05v-.56h1.05zm-1-.5v.45h.95v-.46z" stroke="#3a414a" stroke-width=".05" fill="#3a414a"/><path d="M40 420.9l-4.63-14.28h9.27z" fill="#3a414a"/><path d="M40 422.5l-5.32-16.38h10.64zm-3.95-15.38L40 419.27l3.95-12.15z" stroke="#3a414a" stroke-width=".05" fill="#3a414a"/><use xlink:href="#u" transform="matrix(1,0,0,1,-84.41358024691355,321.27115160022043) translate(0 17.777777777777775)"/><use xlink:href="#v" transform="matrix(1,0,0,1,-84.41358024691355,321.27115160022043) translate(85.12345679012344 17.777777777777775)"/><use xlink:href="#w" transform="matrix(1,0,0,1,-84.41358024691355,321.27115160022043) translate(163.88888888888886 17.777777777777775)"/><use xlink:href="#x" transform="matrix(1,0,0,1,-84.41358024691355,321.27115160022043) translate(203.27160493827157 17.777777777777775)"/><path d="M248.6 474.02l-.07 1-.24 1-.4.93-.53.87-.67.78-.77.66-.87.53-.95.38-.98.24-1 .08H105.94v-1h136.14l.88-.07.84-.2.8-.33.74-.45.65-.56.55-.67.45-.73.33-.8.2-.84.07-.88V240.86h1zm-5.48-514.44l1 .24.94.4.87.52.77.66.67.78.53.87.4.94.23.98.07 1V214.2h-1V-34l-.06-.88-.2-.84-.34-.8-.45-.73-.56-.66-.66-.55-.74-.45-.8-.33-.84-.2-.88-.07h-105.2v-1h105.25z" stroke="#3a414a" stroke-width=".05" fill="#3a414a"/><path d="M105.96 480.5h-.56l.04-.5-.04-.5h.56z" fill="#3a414a"/><path d="M105.98 480.52h-.6l.04-.52-.05-.52h.6zm-.55-1l.04.48-.04.48h.5v-.96z" stroke="#3a414a" stroke-width=".05" fill="#3a414a"/><path d="M136.38-35.37L122.12-40l14.26-4.63z" fill="#3a414a"/><path d="M136.88-34.68L120.5-40l16.38-5.32zM123.74-40l12.14 3.95v-7.9z" stroke="#3a414a" stroke-width=".05" fill="#3a414a"/><use xlink:href="#y" transform="matrix(1,0,0,1,212.98148046292368,214.19510834559534) translate(0 17.777777777777775)"/><path d="M40.5 643.1h-1v-48h1zm0-74.68h-1V538h1z" stroke="#3a414a" stroke-width=".05" fill="#3a414a"/><path d="M40 537.5l.5-.04v.55h-1v-.54z" fill="#3a414a"/><path d="M40 537.47l.52-.04v.6h-1.05v-.6zm-.48.5h.95v-.48l-.47.02-.48-.03z" stroke="#3a414a" stroke-width=".05" fill="#3a414a"/><path d="M40 657.88l-4.63-14.26h9.27z" fill="#3a414a"/><path d="M40 659.5l-5.32-16.38h10.64zm-3.95-15.38L40 656.25l3.95-12.14z" stroke="#3a414a" stroke-width=".05" fill="#3a414a"/><use xlink:href="#z" transform="matrix(1,0,0,1,-123.73456790123451,568.4251106236833) translate(0 17.777777777777775)"/><use xlink:href="#A" transform="matrix(1,0,0,1,-123.73456790123451,568.4251106236833) translate(91.11111111111109 17.777777777777775)"/><use xlink:href="#B" transform="matrix(1,0,0,1,-123.73456790123451,568.4251106236833) translate(194.56790123456784 17.777777777777775)"/><path d="M-50.2 660c-10.94 0-19.8 8.86-19.8 19.8v59.4c0 10.92 8.86 19.78 19.8 19.78h180.4c10.94 0 19.8-8.86 19.8-19.8V679.8c0-10.94-8.86-19.8-19.8-19.8z" stroke="#333" fill="#cfe4ff"/><use xlink:href="#C" transform="matrix(1,0,0,1,-62,668) translate(40.55555555555556 35.099999999999994)"/><use xlink:href="#D" transform="matrix(1,0,0,1,-62,668) translate(67.08333333333333 59.099999999999994)"/><path d="M-352.1 163.12h-1v-41.97h1zm0-68.64h-1V1h1z" stroke="#3a414a" stroke-width=".05" fill="#3a414a"/><path d="M-352.1 1h-1V.5h1z" fill="#3a414a"/><path d="M-352.07 1.04h-1.06V.47h1.06zm-1-.52V1h.94V.52z" stroke="#3a414a" stroke-width=".05" fill="#3a414a"/><path d="M-352.6 177.88l-4.63-14.26h9.27z" fill="#3a414a"/><path d="M-352.6 179.5l-5.32-16.38h10.64zm-3.95-15.38l3.95 12.14 3.95-12.14z" stroke="#3a414a" stroke-width=".05" fill="#3a414a"/><use xlink:href="#o" transform="matrix(1,0,0,1,-444.9456790123456,94.48040800569412) translate(0 17.777777777777775)"/><use xlink:href="#p" transform="matrix(1,0,0,1,-444.9456790123456,94.48040800569412) translate(62.83950617283949 17.777777777777775)"/><path d="M-442.8 180c-10.94 0-19.8 8.86-19.8 19.8v59.4c0 10.92 8.86 19.8 19.8 19.8h180.4c10.94 0 19.8-8.88 19.8-19.8v-59.4c0-10.94-8.86-19.8-19.8-19.8z" stroke="#333" fill="#cfe4ff"/><use xlink:href="#q" transform="matrix(1,0,0,1,-454.5999999999999,188) translate(47.16666666666666 35.099999999999994)"/><use xlink:href="#r" transform="matrix(1,0,0,1,-454.5999999999999,188) translate(65.97222222222223 59.099999999999994)"/><path d="M-359.5 406.12h-1v-59.4h1zm0-86.06h-1V280h1z" stroke="#3a414a" stroke-width=".05" fill="#3a414a"/><path d="M-359.5 280h-1v-.5h1z" fill="#3a414a"/><path d="M-359.48 280.02h-1.04v-.56h1.04zm-1-.5v.45h.96v-.46z" stroke="#3a414a" stroke-width=".05" fill="#3a414a"/><path d="M-360 420.9l-4.63-14.28h9.26z" fill="#3a414a"/><path d="M-360 422.5l-5.32-16.38h10.64zm-3.95-15.38l3.95 12.15 3.95-12.15z" stroke="#3a414a" stroke-width=".05" fill="#3a414a"/><use xlink:href="#u" transform="matrix(1,0,0,1,-484.41358024691357,320.060930908593) translate(0 17.777777777777775)"/><use xlink:href="#v" transform="matrix(1,0,0,1,-484.41358024691357,320.060930908593) translate(85.12345679012344 17.777777777777775)"/><use xlink:href="#w" transform="matrix(1,0,0,1,-484.41358024691357,320.060930908593) translate(163.88888888888886 17.777777777777775)"/><use xlink:href="#x" transform="matrix(1,0,0,1,-484.41358024691357,320.060930908593) translate(203.27160493827157 17.777777777777775)"/><path d="M-366.02 425.27a9.14 9.14 0 0 1 12.04 0l56.53 49.46a7 7 0 0 1 0 10.54l-56.53 49.46a9.14 9.14 0 0 1-12.04 0l-56.53-49.46a7 7 0 0 1 0-10.54z" stroke="#333" fill="#fcfcca"/><use xlink:href="#s" transform="matrix(1,0,0,1,-428.57142857142856,420) translate(33.03277777777778 57.01)"/><use xlink:href="#t" transform="matrix(1,0,0,1,-428.57142857142856,420) translate(48.005 81.00999999999999)"/><path d="M-149.5 474.02l-.08 1-.24 1-.4.93-.52.87-.66.78-.78.66-.87.53-.94.38-.98.24-1 .08h-138.08v-1h138.04l.88-.07.84-.2.8-.33.73-.45.66-.56.55-.67.45-.73.33-.8.2-.84.07-.88V244.56h1zm-5.48-514.44l1 .24.93.4.87.52.78.66.66.78.53.87.38.94.24.98.08 1V217.9h-1V-33.98l-.07-.88-.2-.84-.33-.8-.45-.73-.56-.66-.67-.55-.73-.45-.8-.33-.84-.2-.88-.07h-99.7v-1h99.74z" stroke="#3a414a" stroke-width=".05" fill="#3a414a"/><path d="M-294.04 480.5h-.56l.04-.5-.04-.5h.56z" fill="#3a414a"/><path d="M-294.02 480.52h-.6l.04-.52-.05-.52h.6zm-.55-1l.04.48-.04.48h.5v-.96z" stroke="#3a414a" stroke-width=".05" fill="#3a414a"/><path d="M-256.22-35.37L-270.48-40l14.26-4.63z" fill="#3a414a"/><path d="M-255.72-34.68L-272.1-40l16.38-5.32zM-268.86-40l12.14 3.95v-7.9z" stroke="#3a414a" stroke-width=".05" fill="#3a414a"/><use xlink:href="#E" transform="matrix(1,0,0,1,-185.12345679012344,217.89510834544964) translate(0 17.77777777777778)"/><path d="M-446.47 660c-10.93 0-19.8 8.86-19.8 19.8v59.4c0 10.92 8.87 19.78 19.8 19.78h180.4c10.94 0 19.8-8.86 19.8-19.8V679.8c0-10.94-8.86-19.8-19.8-19.8z" stroke="#333" fill="#cfe4ff"/><use xlink:href="#C" transform="matrix(1,0,0,1,-458.2654320987655,668) translate(40.55555555555556 35.099999999999994)"/><use xlink:href="#D" transform="matrix(1,0,0,1,-458.2654320987655,668) translate(67.08333333333333 59.099999999999994)"/><path d="M-359.5 643.12h-1V595.1h1zm0-74.7h-1V538h1z" stroke="#3a414a" stroke-width=".05" fill="#3a414a"/><path d="M-360 537.5l.5-.04v.55h-1v-.54z" fill="#3a414a"/><path d="M-360 537.47l.52-.04v.6h-1.04v-.6zm-.48.5h.96v-.48l-.48.02-.48-.03z" stroke="#3a414a" stroke-width=".05" fill="#3a414a"/><path d="M-360 657.88l-4.63-14.26h9.26z" fill="#3a414a"/><path d="M-360 659.5l-5.32-16.38h10.64zm-3.95-15.38l3.95 12.14 3.95-12.14z" stroke="#3a414a" stroke-width=".05" fill="#3a414a"/><use xlink:href="#z" transform="matrix(1,0,0,1,-511.3888889298966,568.4251106236833) translate(0 17.777777777777775)"/><use xlink:href="#F" transform="matrix(1,0,0,1,-511.3888889298966,568.4251106236833) translate(91.11111111111109 17.777777777777775)"/><use xlink:href="#B" transform="matrix(1,0,0,1,-511.3888889298966,568.4251106236833) translate(169.8765432098765 17.777777777777775)"/><path d="M-699.5 143.12h-1v-33.96h1zm0-60.63h-1V1h1z" stroke="#3a414a" stroke-width=".05" fill="#3a414a"/><path d="M-699.5 1h-1V.5h1z" fill="#3a414a"/><path d="M-699.48 1.04h-1.04V.47h1.04zm-1-.52V1h.96V.52z" stroke="#3a414a" stroke-width=".05" fill="#3a414a"/><path d="M-700 157.88l-4.63-14.26h9.26z" fill="#3a414a"/><path d="M-700 159.5l-5.32-16.38h10.64zm-3.95-15.38l3.95 12.14 3.95-12.14z" stroke="#3a414a" stroke-width=".05" fill="#3a414a"/><use xlink:href="#o" transform="matrix(1,0,0,1,-792.3456790123457,82.49004360758056) translate(0 17.777777777777775)"/><use xlink:href="#p" transform="matrix(1,0,0,1,-792.3456790123457,82.49004360758056) translate(62.83950617283949 17.777777777777775)"/><path d="M-790.2 160c-10.94 0-19.8 8.86-19.8 19.8v59.4c0 10.92 8.86 19.8 19.8 19.8h180.4c10.94 0 19.8-8.88 19.8-19.8v-59.4c0-10.94-8.86-19.8-19.8-19.8z" stroke="#333" fill="#cfe4ff"/><use xlink:href="#q" transform="matrix(1,0,0,1,-802,168) translate(47.16666666666666 35.099999999999994)"/><use xlink:href="#r" transform="matrix(1,0,0,1,-802,168) translate(65.97222222222223 59.099999999999994)"/><path d="M-700 260v50.66" stroke="#3a414a" fill="none"/><path d="M-699.5 260h-1v-.5h1zM-699.5 311.16h-1v-.5h1z" stroke="#3a414a" stroke-width=".05" fill="#3a414a"/><path d="M-700 348.33v37.8" stroke="#3a414a" fill="none"/><path d="M-699.5 348.34h-1v-.5h1z" stroke="#3a414a" stroke-width=".05" fill="#3a414a"/><path d="M-700 400.9l-4.63-14.28h9.26z" stroke="#3a414a" fill="#3a414a"/><path d="M-829.4 317.16a6 6 0 0 1 6-6h246.8a6 6 0 0 1 6 6v24.67a6 6 0 0 1-6 6h-246.8a6 6 0 0 1-6-6z" fill="#fff" fill-opacity="0"/><use xlink:href="#u" transform="matrix(1,0,0,1,-824.4135802469136,316.15899757200674) translate(0 17.777777777777775)"/><use xlink:href="#v" transform="matrix(1,0,0,1,-824.4135802469136,316.15899757200674) translate(85.12345679012344 17.777777777777775)"/><use xlink:href="#w" transform="matrix(1,0,0,1,-824.4135802469136,316.15899757200674) translate(163.88888888888886 17.777777777777775)"/><use xlink:href="#x" transform="matrix(1,0,0,1,-824.4135802469136,316.15899757200674) translate(203.27160493827157 17.777777777777775)"/><path d="M-706.02 405.27a9.14 9.14 0 0 1 12.04 0l56.53 49.46a7 7 0 0 1 0 10.54l-56.53 49.46a9.14 9.14 0 0 1-12.04 0l-56.53-49.46a7 7 0 0 1 0-10.54z" stroke="#333" fill="#fcfcca"/><use xlink:href="#s" transform="matrix(1,0,0,1,-768.5714285714286,400) translate(33.03277777777778 57.01)"/><use xlink:href="#t" transform="matrix(1,0,0,1,-768.5714285714286,400) translate(48.005 81.00999999999999)"/><path d="M-889.5 453.98l.07.88.2.84.33.8.45.73.56.66.67.55.73.45.8.33.84.2.88.07h118.04v1h-118.08l-1-.08-1-.24-.93-.4-.87-.52-.78-.66-.66-.78-.53-.87-.38-.94-.24-.98-.08-1v-284.2h1zm92.62-493.48h-87.1l-.88.07-.84.2-.8.33-.73.45-.66.56-.55.67-.45.73-.33.8-.2.84-.07.88v177.14h-1V-34.02l.08-1 .24-1 .4-.93.52-.87.66-.78.78-.66.87-.53.94-.38.98-.24 1-.08h87.14z" stroke="#3a414a" stroke-width=".05" fill="#3a414a"/><path d="M-765.44 460l.04.5h-.56v-1h.56z" fill="#3a414a"/><path d="M-765.42 460l.05.52h-.6v-1.04h.6zm-.5-.48v.96h.5l-.05-.48.04-.48z" stroke="#3a414a" stroke-width=".05" fill="#3a414a"/><path d="M-782.12-40l-14.26 4.63v-9.27z" fill="#3a414a"/><path d="M-780.5-40l-16.38 5.32v-10.64zm-15.38 3.95l12.14-3.95-12.14-3.95z" stroke="#3a414a" stroke-width=".05" fill="#3a414a"/><g><use xlink:href="#E" transform="matrix(1,0,0,1,-925.1234567901234,143.1630872114384) translate(0 17.77777777777778)"/></g><path d="M-699.5 643.1h-1v-51.64h1zm0-78.3h-1V518h1z" stroke="#3a414a" stroke-width=".05" fill="#3a414a"/><path d="M-700 517.5l.5-.04v.55h-1v-.54z" fill="#3a414a"/><path d="M-700 517.47l.52-.04v.6h-1.04v-.6zm-.48.5h.96v-.48l-.48.02-.48-.03z" stroke="#3a414a" stroke-width=".05" fill="#3a414a"/><path d="M-700 657.88l-4.63-14.26h9.26z" fill="#3a414a"/><path d="M-700 659.5l-5.32-16.38h10.64zm-3.95-15.38l3.95 12.14 3.95-12.14z" stroke="#3a414a" stroke-width=".05" fill="#3a414a"/><g><use xlink:href="#z" transform="matrix(1,0,0,1,-851.3888889298967,564.7944485488011) translate(0 17.777777777777775)"/><use xlink:href="#G" transform="matrix(1,0,0,1,-851.3888889298967,564.7944485488011) translate(91.11111111111109 17.777777777777775)"/><use xlink:href="#B" transform="matrix(1,0,0,1,-851.3888889298967,564.7944485488011) translate(169.8765432098765 17.777777777777775)"/></g><path d="M-790.2 660c-10.94 0-19.8 8.86-19.8 19.8v59.4c0 10.92 8.86 19.78 19.8 19.78h180.4c10.94 0 19.8-8.86 19.8-19.8V679.8c0-10.94-8.86-19.8-19.8-19.8z" stroke="#333" fill="#cfe4ff"/><g><use xlink:href="#C" transform="matrix(1,0,0,1,-802,668) translate(40.55555555555556 35.099999999999994)"/><use xlink:href="#D" transform="matrix(1,0,0,1,-802,668) translate(67.08333333333333 59.099999999999994)"/></g><path d="M-1039.5 884.5l.07.9.2.83.33.8.45.73.56.66.67.56.73.45.8.33.84.2.88.07h628.22v1h-628.26l-1-.08-1-.24-.93-.38-.87-.53-.78-.67-.66-.78-.53-.87-.38-.94-.24-1-.08-1V221h1z" stroke="#3a414a" stroke-width=".05" fill="#3a414a"/><path d="M-1039.5 221h-1v-.5h1z" fill="#3a414a"/><path d="M-1039.47 221.04h-1.06v-.56h1.06zm-1-.5v.45h.94v-.47z" stroke="#3a414a" stroke-width=".05" fill="#3a414a"/><path d="M-391 890.53l-14.26 4.63v-9.26z" fill="#3a414a"/><path d="M-389.38 890.53l-16.38 5.32V885.2zm-15.38 3.95l12.14-3.95-12.14-3.95z" stroke="#3a414a" stroke-width=".05" fill="#3a414a"/><path d="M-356.26 760v83.65" stroke="#3a414a" fill="none"/><path d="M-355.76 760h-1v-.5h1z" stroke="#3a414a" stroke-width=".05" fill="#3a414a"/><path d="M-356.26 858.4l-4.64-14.25h9.27z" stroke="#3a414a" fill="#3a414a"/><path d="M40 760V884.5a6 6 0 0 1-6 6h-340.77" stroke="#3a414a" fill="none"/><path d="M40.5 760h-1v-.5h1z" stroke="#3a414a" stroke-width=".05" fill="#3a414a"/><path d="M-321.53 890.53l14.26-4.63v9.26z" stroke="#3a414a" fill="#3a414a"/><path d="M-700 760V867.2a6 6 0 0 0 6 6h294.14" stroke="#3a414a" fill="none"/><path d="M-699.5 760h-1v-.5h1z" stroke="#3a414a" stroke-width=".05" fill="#3a414a"/><path d="M-385.1 873.23l-14.25 4.63v-9.26z" stroke="#3a414a" fill="#3a414a"/><path d="M-699.5-96.88h-1v-42.6h1zm265.9-173.98h-260.38l-.88.07-.84.22-.8.32-.73.46-.66.56-.55.65-.45.75-.33.8-.2.83-.07.88v72.53h-1v-72.57l.08-1 .24-1 .4-.94.52-.88.66-.77.78-.67.87-.53.94-.4.98-.23 1-.08h260.42z" stroke="#3a414a" stroke-width=".05" fill="#3a414a"/><path d="M-433.1-270.86h-.5v-1h.5z" fill="#3a414a"/><path d="M-433.07-270.83h-.57v-1.05h.56zm-.52-1v.95h.48v-.95z" stroke="#3a414a" stroke-width=".05" fill="#3a414a"/><path d="M-700-82.12l-4.63-14.26h9.26z" fill="#3a414a"/><path d="M-700-80.5l-5.32-16.38h10.64zm-3.95-15.38l3.95 12.14 3.95-12.14z" stroke="#3a414a" stroke-width=".05" fill="#3a414a"/><g><use xlink:href="#c" transform="matrix(1,0,0,1,-801.6049382716049,-192.8105466587099) translate(0 17.777777777777775)"/><use xlink:href="#H" transform="matrix(1,0,0,1,-801.6049382716049,-192.8105466587099) translate(139.13580246913577 17.777777777777775)"/><use xlink:href="#e" transform="matrix(1,0,0,1,-801.6049382716049,-192.8105466587099) translate(0 44.44444444444444)"/><use xlink:href="#f" transform="matrix(1,0,0,1,-801.6049382716049,-192.8105466587099) translate(6.1728395061728385 44.44444444444444)"/></g><defs><path fill="#3a414a" d="M240-174c0 40-23 61-54 70L253 0h-59l-57-94H76V0H24v-248c93 4 217-23 216 74zM76-134c48-2 112 12 112-38 0-48-66-32-112-35v73" id="I"/><path fill="#3a414a" d="M185-48c-13 30-37 53-82 52C43 2 14-33 14-96s30-98 90-98c62 0 83 45 84 108H66c0 31 8 55 39 56 18 0 30-7 34-22zm-45-69c5-46-57-63-70-21-2 6-4 13-4 21h74" id="J"/><path fill="#3a414a" d="M190-63c-7 42-38 67-86 67-59 0-84-38-90-98-12-110 154-137 174-36l-49 2c-2-19-15-32-35-32-30 0-35 28-38 64-6 74 65 87 74 30" id="K"/><path fill="#3a414a" d="M135-194c53 0 70 44 70 98 0 56-19 98-73 100-31 1-45-17-59-34 3 33 2 69 2 105H25l-1-265h48c2 10 0 23 3 31 11-24 29-35 60-35zM114-30c33 0 39-31 40-66 0-38-9-64-40-64-56 0-55 130 0 130" id="L"/><path fill="#3a414a" d="M115-3C79 11 28 4 28-45v-112H4v-33h27l15-45h31v45h36v33H77v99c-1 23 16 31 38 25v30" id="M"/><path fill="#3a414a" d="M25-224v-37h50v37H25zM25 0v-190h50V0H25" id="N"/><path fill="#3a414a" d="M110-194c64 0 96 36 96 99 0 64-35 99-97 99-61 0-95-36-95-99 0-62 34-99 96-99zm-1 164c35 0 45-28 45-65 0-40-10-65-43-65-34 0-45 26-45 65 0 36 10 65 43 65" id="O"/><path fill="#3a414a" d="M135-194c87-1 58 113 63 194h-50c-7-57 23-157-34-157-59 0-34 97-39 157H25l-1-190h47c2 12-1 28 3 38 12-26 28-41 61-42" id="P"/><path fill="#3a414a" d="M137-138c1-29-70-34-71-4 15 46 118 7 119 86 1 83-164 76-172 9l43-7c4 19 20 25 44 25 33 8 57-30 24-41C81-84 22-81 20-136c-2-80 154-74 161-7" id="Q"/><g id="a"><use transform="matrix(0.061728395061728385,0,0,0.061728395061728385,0,0)" xlink:href="#I"/><use transform="matrix(0.061728395061728385,0,0,0.061728395061728385,15.987654320987652,0)" xlink:href="#J"/><use transform="matrix(0.061728395061728385,0,0,0.061728395061728385,28.33333333333333,0)" xlink:href="#K"/><use transform="matrix(0.061728395061728385,0,0,0.061728395061728385,40.679012345679006,0)" xlink:href="#J"/><use transform="matrix(0.061728395061728385,0,0,0.061728395061728385,53.02469135802468,0)" xlink:href="#L"/><use transform="matrix(0.061728395061728385,0,0,0.061728395061728385,66.5432098765432,0)" xlink:href="#M"/><use transform="matrix(0.061728395061728385,0,0,0.061728395061728385,73.88888888888889,0)" xlink:href="#N"/><use transform="matrix(0.061728395061728385,0,0,0.061728395061728385,80.06172839506172,0)" xlink:href="#O"/><use transform="matrix(0.061728395061728385,0,0,0.061728395061728385,93.58024691358024,0)" xlink:href="#P"/><use transform="matrix(0.061728395061728385,0,0,0.061728395061728385,107.09876543209876,0)" xlink:href="#N"/><use transform="matrix(0.061728395061728385,0,0,0.061728395061728385,113.2716049382716,0)" xlink:href="#Q"/><use transform="matrix(0.061728395061728385,0,0,0.061728395061728385,125.61728395061726,0)" xlink:href="#M"/></g><path fill="#3a414a" d="M25 0v-261h50V0H25" id="R"/><path fill="#3a414a" d="M195-6C206 82 75 100 31 46c-4-6-6-13-8-21l49-6c3 16 16 24 34 25 40 0 42-37 40-79-11 22-30 35-61 35-53 0-70-43-70-97 0-56 18-96 73-97 30 0 46 14 59 34l2-30h47zm-90-29c32 0 41-27 41-63 0-35-9-62-40-62-32 0-39 29-40 63 0 36 9 62 39 62" id="S"/><g id="b"><use transform="matrix(0.061728395061728385,0,0,0.061728395061728385,0,0)" xlink:href="#R"/><use transform="matrix(0.061728395061728385,0,0,0.061728395061728385,6.1728395061728385,0)" xlink:href="#O"/><use transform="matrix(0.061728395061728385,0,0,0.061728395061728385,19.691358024691354,0)" xlink:href="#S"/><use transform="matrix(0.061728395061728385,0,0,0.061728395061728385,33.20987654320987,0)" xlink:href="#N"/><use transform="matrix(0.061728395061728385,0,0,0.061728395061728385,39.38271604938271,0)" xlink:href="#P"/></g><path fill="#333" d="M240-174c0 40-23 61-54 70L253 0h-59l-57-94H76V0H24v-248c93 4 217-23 216 74zM76-134c48-2 112 12 112-38 0-48-66-32-112-35v73" id="T"/><path fill="#333" d="M185-48c-13 30-37 53-82 52C43 2 14-33 14-96s30-98 90-98c62 0 83 45 84 108H66c0 31 8 55 39 56 18 0 30-7 34-22zm-45-69c5-46-57-63-70-21-2 6-4 13-4 21h74" id="U"/><path fill="#333" d="M190-63c-7 42-38 67-86 67-59 0-84-38-90-98-12-110 154-137 174-36l-49 2c-2-19-15-32-35-32-30 0-35 28-38 64-6 74 65 87 74 30" id="V"/><path fill="#333" d="M135-194c53 0 70 44 70 98 0 56-19 98-73 100-31 1-45-17-59-34 3 33 2 69 2 105H25l-1-265h48c2 10 0 23 3 31 11-24 29-35 60-35zM114-30c33 0 39-31 40-66 0-38-9-64-40-64-56 0-55 130 0 130" id="W"/><path fill="#333" d="M115-3C79 11 28 4 28-45v-112H4v-33h27l15-45h31v45h36v33H77v99c-1 23 16 31 38 25v30" id="X"/><path fill="#333" d="M25-224v-37h50v37H25zM25 0v-190h50V0H25" id="Y"/><path fill="#333" d="M110-194c64 0 96 36 96 99 0 64-35 99-97 99-61 0-95-36-95-99 0-62 34-99 96-99zm-1 164c35 0 45-28 45-65 0-40-10-65-43-65-34 0-45 26-45 65 0 36 10 65 43 65" id="Z"/><path fill="#333" d="M135-194c87-1 58 113 63 194h-50c-7-57 23-157-34-157-59 0-34 97-39 157H25l-1-190h47c2 12-1 28 3 38 12-26 28-41 61-42" id="aa"/><path fill="#333" d="M137-138c1-29-70-34-71-4 15 46 118 7 119 86 1 83-164 76-172 9l43-7c4 19 20 25 44 25 33 8 57-30 24-41C81-84 22-81 20-136c-2-80 154-74 161-7" id="ab"/><g id="c"><use transform="matrix(0.061728395061728385,0,0,0.061728395061728385,0,0)" xlink:href="#T"/><use transform="matrix(0.061728395061728385,0,0,0.061728395061728385,15.987654320987652,0)" xlink:href="#U"/><use transform="matrix(0.061728395061728385,0,0,0.061728395061728385,28.33333333333333,0)" xlink:href="#V"/><use transform="matrix(0.061728395061728385,0,0,0.061728395061728385,40.679012345679006,0)" xlink:href="#U"/><use transform="matrix(0.061728395061728385,0,0,0.061728395061728385,53.02469135802468,0)" xlink:href="#W"/><use transform="matrix(0.061728395061728385,0,0,0.061728395061728385,66.5432098765432,0)" xlink:href="#X"/><use transform="matrix(0.061728395061728385,0,0,0.061728395061728385,73.88888888888889,0)" xlink:href="#Y"/><use transform="matrix(0.061728395061728385,0,0,0.061728395061728385,80.06172839506172,0)" xlink:href="#Z"/><use transform="matrix(0.061728395061728385,0,0,0.061728395061728385,93.58024691358024,0)" xlink:href="#aa"/><use transform="matrix(0.061728395061728385,0,0,0.061728395061728385,107.09876543209876,0)" xlink:href="#Y"/><use transform="matrix(0.061728395061728385,0,0,0.061728395061728385,113.2716049382716,0)" xlink:href="#ab"/><use transform="matrix(0.061728395061728385,0,0,0.061728395061728385,125.61728395061726,0)" xlink:href="#X"/></g><path fill="#333" d="M88-194c31-1 46 15 58 34l-1-101h50l1 261h-48c-2-10 0-23-3-31C134-8 116 4 84 4 32 4 16-41 15-95c0-56 19-97 73-99zm17 164c33 0 40-30 41-66 1-37-9-64-41-64s-38 30-39 65c0 43 13 65 39 65" id="ac"/><g id="d"><use transform="matrix(0.061728395061728385,0,0,0.061728395061728385,0,0)" xlink:href="#U"/><use transform="matrix(0.061728395061728385,0,0,0.061728395061728385,12.345679012345677,0)" xlink:href="#ac"/><use transform="matrix(0.061728395061728385,0,0,0.061728395061728385,25.864197530864192,0)" xlink:href="#Y"/><use transform="matrix(0.061728395061728385,0,0,0.061728395061728385,32.03703703703703,0)" xlink:href="#X"/></g><path fill="#333" d="M133-34C117-15 103 5 69 4 32 3 11-16 11-54c-1-60 55-63 116-61 1-26-3-47-28-47-18 1-26 9-28 27l-52-2c7-38 36-58 82-57s74 22 75 68l1 82c-1 14 12 18 25 15v27c-30 8-71 5-69-32zm-48 3c29 0 43-24 42-57-32 0-66-3-65 30 0 17 8 27 23 27" id="ad"/><path fill="#333" d="M220-157c-53 9-28 100-34 157h-49v-107c1-27-5-49-29-50C55-147 81-57 75 0H25l-1-190h47c2 12-1 28 3 38 10-53 101-56 108 0 13-22 24-43 59-42 82 1 51 116 57 194h-49v-107c-1-25-5-48-29-50" id="ae"/><g id="f"><use transform="matrix(0.061728395061728385,0,0,0.061728395061728385,0,0)" xlink:href="#ad"/><use transform="matrix(0.061728395061728385,0,0,0.061728395061728385,12.345679012345677,0)" xlink:href="#W"/><use transform="matrix(0.061728395061728385,0,0,0.061728395061728385,25.864197530864192,0)" xlink:href="#W"/><use transform="matrix(0.061728395061728385,0,0,0.061728395061728385,39.38271604938271,0)" xlink:href="#Z"/><use transform="matrix(0.061728395061728385,0,0,0.061728395061728385,52.90123456790123,0)" xlink:href="#Y"/><use transform="matrix(0.061728395061728385,0,0,0.061728395061728385,59.07407407407406,0)" xlink:href="#aa"/><use transform="matrix(0.061728395061728385,0,0,0.061728395061728385,72.59259259259258,0)" xlink:href="#X"/><use transform="matrix(0.061728395061728385,0,0,0.061728395061728385,79.93827160493827,0)" xlink:href="#ae"/><use transform="matrix(0.061728395061728385,0,0,0.061728395061728385,99.69135802469134,0)" xlink:href="#U"/><use transform="matrix(0.061728395061728385,0,0,0.061728395061728385,112.03703703703701,0)" xlink:href="#aa"/><use transform="matrix(0.061728395061728385,0,0,0.061728395061728385,125.55555555555553,0)" xlink:href="#X"/></g><path fill="#333" d="M24 0v-248h52v208h133V0H24" id="af"/><path fill="#333" d="M195-6C206 82 75 100 31 46c-4-6-6-13-8-21l49-6c3 16 16 24 34 25 40 0 42-37 40-79-11 22-30 35-61 35-53 0-70-43-70-97 0-56 18-96 73-97 30 0 46 14 59 34l2-30h47zm-90-29c32 0 41-27 41-63 0-35-9-62-40-62-32 0-39 29-40 63 0 36 9 62 39 62" id="ag"/><g id="g"><use transform="matrix(0.05555555555555555,0,0,0.05555555555555555,0,0)" xlink:href="#af"/><use transform="matrix(0.05555555555555555,0,0,0.05555555555555555,12.166666666666666,0)" xlink:href="#Z"/><use transform="matrix(0.05555555555555555,0,0,0.05555555555555555,24.333333333333332,0)" xlink:href="#ag"/><use transform="matrix(0.05555555555555555,0,0,0.05555555555555555,36.5,0)" xlink:href="#ag"/><use transform="matrix(0.05555555555555555,0,0,0.05555555555555555,48.666666666666664,0)" xlink:href="#U"/><use transform="matrix(0.05555555555555555,0,0,0.05555555555555555,59.77777777777777,0)" xlink:href="#ac"/></g><g id="h"><use transform="matrix(0.061728395061728385,0,0,0.061728395061728385,0,0)" xlink:href="#ad"/><use transform="matrix(0.061728395061728385,0,0,0.061728395061728385,12.345679012345677,0)" xlink:href="#ac"/><use transform="matrix(0.061728395061728385,0,0,0.061728395061728385,25.864197530864192,0)" xlink:href="#ac"/></g><path fill="#333" d="M199 0l-22-63H83L61 0H9l90-248h61L250 0h-51zm-33-102l-36-108c-10 38-24 72-36 108h72" id="ah"/><g id="i"><use transform="matrix(0.05555555555555555,0,0,0.05555555555555555,0,0)" xlink:href="#ah"/><use transform="matrix(0.05555555555555555,0,0,0.05555555555555555,14.388888888888888,0)" xlink:href="#ac"/><use transform="matrix(0.05555555555555555,0,0,0.05555555555555555,26.555555555555554,0)" xlink:href="#ac"/></g><g id="j"><use transform="matrix(0.05555555555555555,0,0,0.05555555555555555,0,0)" xlink:href="#ad"/><use transform="matrix(0.05555555555555555,0,0,0.05555555555555555,11.11111111111111,0)" xlink:href="#W"/><use transform="matrix(0.05555555555555555,0,0,0.05555555555555555,23.27777777777778,0)" xlink:href="#Z"/><use transform="matrix(0.05555555555555555,0,0,0.05555555555555555,35.44444444444444,0)" xlink:href="#Y"/><use transform="matrix(0.05555555555555555,0,0,0.05555555555555555,41,0)" xlink:href="#aa"/><use transform="matrix(0.05555555555555555,0,0,0.05555555555555555,53.166666666666664,0)" xlink:href="#X"/><use transform="matrix(0.05555555555555555,0,0,0.05555555555555555,59.77777777777777,0)" xlink:href="#ae"/><use transform="matrix(0.05555555555555555,0,0,0.05555555555555555,77.55555555555554,0)" xlink:href="#U"/><use transform="matrix(0.05555555555555555,0,0,0.05555555555555555,88.66666666666666,0)" xlink:href="#aa"/><use transform="matrix(0.05555555555555555,0,0,0.05555555555555555,100.83333333333333,0)" xlink:href="#X"/></g><path fill="#333" d="M24 0v-248h195v40H76v63h132v40H76v65h150V0H24" id="ai"/><g id="k"><use transform="matrix(0.05555555555555555,0,0,0.05555555555555555,0,0)" xlink:href="#ai"/><use transform="matrix(0.05555555555555555,0,0,0.05555555555555555,13.333333333333332,0)" xlink:href="#ac"/><use transform="matrix(0.05555555555555555,0,0,0.05555555555555555,25.5,0)" xlink:href="#Y"/><use transform="matrix(0.05555555555555555,0,0,0.05555555555555555,31.05555555555556,0)" xlink:href="#X"/></g><path fill="#333" d="M24-248c120-7 223 5 221 122C244-46 201 0 124 0H24v-248zM76-40c74 7 117-18 117-86 0-67-45-88-117-82v168" id="aj"/><path fill="#333" d="M25 0v-261h50V0H25" id="ak"/><g id="l"><use transform="matrix(0.05555555555555555,0,0,0.05555555555555555,0,0)" xlink:href="#aj"/><use transform="matrix(0.05555555555555555,0,0,0.05555555555555555,14.388888888888888,0)" xlink:href="#U"/><use transform="matrix(0.05555555555555555,0,0,0.05555555555555555,25.5,0)" xlink:href="#ak"/><use transform="matrix(0.05555555555555555,0,0,0.05555555555555555,31.05555555555556,0)" xlink:href="#U"/><use transform="matrix(0.05555555555555555,0,0,0.05555555555555555,42.16666666666667,0)" xlink:href="#X"/><use transform="matrix(0.05555555555555555,0,0,0.05555555555555555,48.777777777777786,0)" xlink:href="#U"/></g><path fill="#333" d="M182-130c37 4 62 22 62 59C244 23 116-4 24 0v-248c84 5 203-23 205 63 0 31-19 50-47 55zM76-148c40-3 101 13 101-30 0-44-60-28-101-31v61zm0 110c48-3 116 14 116-37 0-48-69-32-116-35v72" id="al"/><path fill="#333" d="M135-150c-39-12-60 13-60 57V0H25l-1-190h47c2 13-1 29 3 40 6-28 27-53 61-41v41" id="am"/><path fill="#333" d="M231 0h-52l-39-155L100 0H48L-1-190h46L77-45c9-52 24-97 36-145h53l37 145 32-145h46" id="an"/><g id="m"><use transform="matrix(0.05555555555555555,0,0,0.05555555555555555,0,0)" xlink:href="#al"/><use transform="matrix(0.05555555555555555,0,0,0.05555555555555555,14.388888888888888,0)" xlink:href="#am"/><use transform="matrix(0.05555555555555555,0,0,0.05555555555555555,22.166666666666664,0)" xlink:href="#Z"/><use transform="matrix(0.05555555555555555,0,0,0.05555555555555555,34.33333333333333,0)" xlink:href="#an"/><use transform="matrix(0.05555555555555555,0,0,0.05555555555555555,49.888888888888886,0)" xlink:href="#ab"/><use transform="matrix(0.05555555555555555,0,0,0.05555555555555555,61,0)" xlink:href="#U"/></g><g id="n"><use transform="matrix(0.05555555555555555,0,0,0.05555555555555555,0,0)" xlink:href="#ak"/><use transform="matrix(0.05555555555555555,0,0,0.05555555555555555,5.555555555555555,0)" xlink:href="#Z"/><use transform="matrix(0.05555555555555555,0,0,0.05555555555555555,17.72222222222222,0)" xlink:href="#ag"/><use transform="matrix(0.05555555555555555,0,0,0.05555555555555555,29.888888888888886,0)" xlink:href="#ab"/></g><g id="o"><use transform="matrix(0.061728395061728385,0,0,0.061728395061728385,0,0)" xlink:href="#ai"/><use transform="matrix(0.061728395061728385,0,0,0.061728395061728385,14.814814814814813,0)" xlink:href="#aa"/><use transform="matrix(0.061728395061728385,0,0,0.061728395061728385,28.33333333333333,0)" xlink:href="#X"/><use transform="matrix(0.061728395061728385,0,0,0.061728395061728385,35.679012345679006,0)" xlink:href="#U"/><use transform="matrix(0.061728395061728385,0,0,0.061728395061728385,48.02469135802468,0)" xlink:href="#am"/></g><path fill="#333" d="M121-226c-27-7-43 5-38 36h38v33H83V0H34v-157H6v-33h28c-9-59 32-81 87-68v32" id="ao"/><g id="p"><use transform="matrix(0.061728395061728385,0,0,0.061728395061728385,0,0)" xlink:href="#Y"/><use transform="matrix(0.061728395061728385,0,0,0.061728395061728385,6.1728395061728385,0)" xlink:href="#aa"/><use transform="matrix(0.061728395061728385,0,0,0.061728395061728385,19.691358024691354,0)" xlink:href="#ao"/><use transform="matrix(0.061728395061728385,0,0,0.061728395061728385,27.03703703703703,0)" xlink:href="#Z"/><use transform="matrix(0.061728395061728385,0,0,0.061728395061728385,40.55555555555554,0)" xlink:href="#am"/><use transform="matrix(0.061728395061728385,0,0,0.061728395061728385,49.19753086419752,0)" xlink:href="#ae"/><use transform="matrix(0.061728395061728385,0,0,0.061728395061728385,68.9506172839506,0)" xlink:href="#ad"/><use transform="matrix(0.061728395061728385,0,0,0.061728395061728385,81.29629629629628,0)" xlink:href="#X"/><use transform="matrix(0.061728395061728385,0,0,0.061728395061728385,88.64197530864196,0)" xlink:href="#Y"/><use transform="matrix(0.061728395061728385,0,0,0.061728395061728385,94.8148148148148,0)" xlink:href="#Z"/><use transform="matrix(0.061728395061728385,0,0,0.061728395061728385,108.33333333333331,0)" xlink:href="#aa"/></g><path fill="#333" d="M24 0v-248h52V0H24" id="ap"/><g id="q"><use transform="matrix(0.05555555555555555,0,0,0.05555555555555555,0,0)" xlink:href="#ap"/><use transform="matrix(0.05555555555555555,0,0,0.05555555555555555,5.555555555555555,0)" xlink:href="#aa"/><use transform="matrix(0.05555555555555555,0,0,0.05555555555555555,17.72222222222222,0)" xlink:href="#ao"/><use transform="matrix(0.05555555555555555,0,0,0.05555555555555555,24.333333333333332,0)" xlink:href="#Z"/><use transform="matrix(0.05555555555555555,0,0,0.05555555555555555,36.5,0)" xlink:href="#am"/><use transform="matrix(0.05555555555555555,0,0,0.05555555555555555,44.27777777777778,0)" xlink:href="#ae"/><use transform="matrix(0.05555555555555555,0,0,0.05555555555555555,62.05555555555555,0)" xlink:href="#ad"/><use transform="matrix(0.05555555555555555,0,0,0.05555555555555555,73.16666666666667,0)" xlink:href="#X"/><use transform="matrix(0.05555555555555555,0,0,0.05555555555555555,79.77777777777779,0)" xlink:href="#Y"/><use transform="matrix(0.05555555555555555,0,0,0.05555555555555555,85.33333333333334,0)" xlink:href="#Z"/><use transform="matrix(0.05555555555555555,0,0,0.05555555555555555,97.50000000000001,0)" xlink:href="#aa"/></g><g id="r"><use transform="matrix(0.05555555555555555,0,0,0.05555555555555555,0,0)" xlink:href="#U"/><use transform="matrix(0.05555555555555555,0,0,0.05555555555555555,11.11111111111111,0)" xlink:href="#aa"/><use transform="matrix(0.05555555555555555,0,0,0.05555555555555555,23.27777777777778,0)" xlink:href="#X"/><use transform="matrix(0.05555555555555555,0,0,0.05555555555555555,29.888888888888886,0)" xlink:href="#U"/><use transform="matrix(0.05555555555555555,0,0,0.05555555555555555,41,0)" xlink:href="#am"/><use transform="matrix(0.05555555555555555,0,0,0.05555555555555555,48.77777777777778,0)" xlink:href="#U"/><use transform="matrix(0.05555555555555555,0,0,0.05555555555555555,59.888888888888886,0)" xlink:href="#ac"/></g><path fill="#333" d="M67-125c0 53 21 87 73 88 37 1 54-22 65-47l45 17C233-25 199 4 140 4 58 4 20-42 15-125 8-235 124-281 211-232c18 10 29 29 36 50l-46 12c-8-25-30-41-62-41-52 0-71 34-72 86" id="aq"/><g id="s"><use transform="matrix(0.05555555555555555,0,0,0.05555555555555555,0,0)" xlink:href="#aq"/><use transform="matrix(0.05555555555555555,0,0,0.05555555555555555,14.388888888888888,0)" xlink:href="#Z"/><use transform="matrix(0.05555555555555555,0,0,0.05555555555555555,26.555555555555554,0)" xlink:href="#am"/><use transform="matrix(0.05555555555555555,0,0,0.05555555555555555,34.33333333333333,0)" xlink:href="#am"/><use transform="matrix(0.05555555555555555,0,0,0.05555555555555555,42.11111111111111,0)" xlink:href="#U"/><use transform="matrix(0.05555555555555555,0,0,0.05555555555555555,53.222222222222214,0)" xlink:href="#V"/><use transform="matrix(0.05555555555555555,0,0,0.05555555555555555,64.33333333333333,0)" xlink:href="#X"/></g><g id="t"><use transform="matrix(0.05555555555555555,0,0,0.05555555555555555,0,0)" xlink:href="#ac"/><use transform="matrix(0.05555555555555555,0,0,0.05555555555555555,12.166666666666666,0)" xlink:href="#ad"/><use transform="matrix(0.05555555555555555,0,0,0.05555555555555555,23.27777777777778,0)" xlink:href="#X"/><use transform="matrix(0.05555555555555555,0,0,0.05555555555555555,29.888888888888886,0)" xlink:href="#ad"/></g><path fill="#333" d="M169-182c-1-43-94-46-97-3 18 66 151 10 154 114 3 95-165 93-204 36-6-8-10-19-12-30l50-8c3 46 112 56 116 5-17-69-150-10-154-114-4-87 153-88 188-35 5 8 8 18 10 28" id="ar"/><path fill="#333" d="M123 10C108 53 80 86 19 72V37c35 8 53-11 59-39L3-190h52l48 148c12-52 28-100 44-148h51" id="as"/><g id="u"><use transform="matrix(0.061728395061728385,0,0,0.061728395061728385,0,0)" xlink:href="#ar"/><use transform="matrix(0.061728395061728385,0,0,0.061728395061728385,14.814814814814813,0)" xlink:href="#as"/><use transform="matrix(0.061728395061728385,0,0,0.061728395061728385,27.16049382716049,0)" xlink:href="#ab"/><use transform="matrix(0.061728395061728385,0,0,0.061728395061728385,39.50617283950616,0)" xlink:href="#X"/><use transform="matrix(0.061728395061728385,0,0,0.061728395061728385,46.85185185185184,0)" xlink:href="#U"/><use transform="matrix(0.061728395061728385,0,0,0.061728395061728385,59.19753086419752,0)" xlink:href="#ae"/></g><g id="v"><use transform="matrix(0.061728395061728385,0,0,0.061728395061728385,0,0)" xlink:href="#X"/><use transform="matrix(0.061728395061728385,0,0,0.061728395061728385,7.345679012345678,0)" xlink:href="#U"/><use transform="matrix(0.061728395061728385,0,0,0.061728395061728385,19.691358024691354,0)" xlink:href="#ab"/><use transform="matrix(0.061728395061728385,0,0,0.061728395061728385,32.03703703703703,0)" xlink:href="#X"/><use transform="matrix(0.061728395061728385,0,0,0.061728395061728385,39.38271604938271,0)" xlink:href="#Y"/><use transform="matrix(0.061728395061728385,0,0,0.061728395061728385,45.55555555555554,0)" xlink:href="#aa"/><use transform="matrix(0.061728395061728385,0,0,0.061728395061728385,59.07407407407406,0)" xlink:href="#ag"/></g><path fill="#333" d="M114-157C55-157 80-60 75 0H25v-261h50l-1 109c12-26 28-41 61-42 86-1 58 113 63 194h-50c-7-57 23-157-34-157" id="at"/><g id="w"><use transform="matrix(0.061728395061728385,0,0,0.061728395061728385,0,0)" xlink:href="#X"/><use transform="matrix(0.061728395061728385,0,0,0.061728395061728385,7.345679012345678,0)" xlink:href="#at"/><use transform="matrix(0.061728395061728385,0,0,0.061728395061728385,20.864197530864192,0)" xlink:href="#U"/></g><g id="x"><use transform="matrix(0.061728395061728385,0,0,0.061728395061728385,0,0)" xlink:href="#ac"/><use transform="matrix(0.061728395061728385,0,0,0.061728395061728385,13.518518518518515,0)" xlink:href="#ad"/><use transform="matrix(0.061728395061728385,0,0,0.061728395061728385,25.864197530864192,0)" xlink:href="#X"/><use transform="matrix(0.061728395061728385,0,0,0.061728395061728385,33.20987654320987,0)" xlink:href="#ad"/></g><path fill="#333" d="M128 0H69L1-190h53L99-40l48-150h52" id="au"/><g id="y"><use transform="matrix(0.061728395061728385,0,0,0.061728395061728385,0,0)" xlink:href="#ap"/><use transform="matrix(0.061728395061728385,0,0,0.061728395061728385,6.1728395061728385,0)" xlink:href="#aa"/><use transform="matrix(0.061728395061728385,0,0,0.061728395061728385,19.691358024691354,0)" xlink:href="#au"/><use transform="matrix(0.061728395061728385,0,0,0.061728395061728385,32.03703703703703,0)" xlink:href="#ad"/><use transform="matrix(0.061728395061728385,0,0,0.061728395061728385,44.38271604938271,0)" xlink:href="#ak"/><use transform="matrix(0.061728395061728385,0,0,0.061728395061728385,50.55555555555554,0)" xlink:href="#Y"/><use transform="matrix(0.061728395061728385,0,0,0.061728395061728385,56.72839506172838,0)" xlink:href="#ac"/></g><g id="z"><use transform="matrix(0.061728395061728385,0,0,0.061728395061728385,0,0)" xlink:href="#aq"/><use transform="matrix(0.061728395061728385,0,0,0.061728395061728385,15.987654320987652,0)" xlink:href="#Z"/><use transform="matrix(0.061728395061728385,0,0,0.061728395061728385,29.506172839506167,0)" xlink:href="#aa"/><use transform="matrix(0.061728395061728385,0,0,0.061728395061728385,43.02469135802468,0)" xlink:href="#ao"/><use transform="matrix(0.061728395061728385,0,0,0.061728395061728385,50.37037037037036,0)" xlink:href="#Y"/><use transform="matrix(0.061728395061728385,0,0,0.061728395061728385,56.5432098765432,0)" xlink:href="#am"/><use transform="matrix(0.061728395061728385,0,0,0.061728395061728385,65.18518518518518,0)" xlink:href="#ae"/></g><g id="A"><use transform="matrix(0.061728395061728385,0,0,0.061728395061728385,0,0)" xlink:href="#ac"/><use transform="matrix(0.061728395061728385,0,0,0.061728395061728385,13.518518518518515,0)" xlink:href="#U"/><use transform="matrix(0.061728395061728385,0,0,0.061728395061728385,25.864197530864192,0)" xlink:href="#ak"/><use transform="matrix(0.061728395061728385,0,0,0.061728395061728385,32.03703703703703,0)" xlink:href="#U"/><use transform="matrix(0.061728395061728385,0,0,0.061728395061728385,44.38271604938271,0)" xlink:href="#X"/><use transform="matrix(0.061728395061728385,0,0,0.061728395061728385,51.728395061728385,0)" xlink:href="#U"/><use transform="matrix(0.061728395061728385,0,0,0.061728395061728385,64.07407407407406,0)" xlink:href="#Y"/><use transform="matrix(0.061728395061728385,0,0,0.061728395061728385,70.2469135802469,0)" xlink:href="#aa"/><use transform="matrix(0.061728395061728385,0,0,0.061728395061728385,83.76543209876542,0)" xlink:href="#ag"/></g><g id="B"><use transform="matrix(0.061728395061728385,0,0,0.061728395061728385,0,0)" xlink:href="#ad"/><use transform="matrix(0.061728395061728385,0,0,0.061728395061728385,12.345679012345677,0)" xlink:href="#W"/><use transform="matrix(0.061728395061728385,0,0,0.061728395061728385,25.864197530864192,0)" xlink:href="#W"/><use transform="matrix(0.061728395061728385,0,0,0.061728395061728385,39.38271604938271,0)" xlink:href="#Z"/><use transform="matrix(0.061728395061728385,0,0,0.061728395061728385,52.90123456790123,0)" xlink:href="#Y"/><use transform="matrix(0.061728395061728385,0,0,0.061728395061728385,59.07407407407406,0)" xlink:href="#aa"/><use transform="matrix(0.061728395061728385,0,0,0.061728395061728385,72.59259259259258,0)" xlink:href="#X"/><use transform="matrix(0.061728395061728385,0,0,0.061728395061728385,79.93827160493827,0)" xlink:href="#ae"/><use transform="matrix(0.061728395061728385,0,0,0.061728395061728385,99.69135802469134,0)" xlink:href="#U"/><use transform="matrix(0.061728395061728385,0,0,0.061728395061728385,112.03703703703701,0)" xlink:href="#aa"/><use transform="matrix(0.061728395061728385,0,0,0.061728395061728385,125.55555555555553,0)" xlink:href="#X"/></g><g id="C"><use transform="matrix(0.05555555555555555,0,0,0.05555555555555555,0,0)" xlink:href="#ah"/><use transform="matrix(0.05555555555555555,0,0,0.05555555555555555,14.388888888888888,0)" xlink:href="#W"/><use transform="matrix(0.05555555555555555,0,0,0.05555555555555555,26.555555555555554,0)" xlink:href="#W"/><use transform="matrix(0.05555555555555555,0,0,0.05555555555555555,38.72222222222222,0)" xlink:href="#Z"/><use transform="matrix(0.05555555555555555,0,0,0.05555555555555555,50.888888888888886,0)" xlink:href="#Y"/><use transform="matrix(0.05555555555555555,0,0,0.05555555555555555,56.44444444444444,0)" xlink:href="#aa"/><use transform="matrix(0.05555555555555555,0,0,0.05555555555555555,68.61111111111111,0)" xlink:href="#X"/><use transform="matrix(0.05555555555555555,0,0,0.05555555555555555,75.22222222222223,0)" xlink:href="#ae"/><use transform="matrix(0.05555555555555555,0,0,0.05555555555555555,93,0)" xlink:href="#U"/><use transform="matrix(0.05555555555555555,0,0,0.05555555555555555,104.11111111111111,0)" xlink:href="#aa"/><use transform="matrix(0.05555555555555555,0,0,0.05555555555555555,116.2777777777778,0)" xlink:href="#X"/></g><g id="D"><use transform="matrix(0.05555555555555555,0,0,0.05555555555555555,0,0)" xlink:href="#ac"/><use transform="matrix(0.05555555555555555,0,0,0.05555555555555555,12.166666666666666,0)" xlink:href="#U"/><use transform="matrix(0.05555555555555555,0,0,0.05555555555555555,23.27777777777778,0)" xlink:href="#ak"/><use transform="matrix(0.05555555555555555,0,0,0.05555555555555555,28.83333333333334,0)" xlink:href="#U"/><use transform="matrix(0.05555555555555555,0,0,0.05555555555555555,39.94444444444444,0)" xlink:href="#X"/><use transform="matrix(0.05555555555555555,0,0,0.05555555555555555,46.55555555555556,0)" xlink:href="#U"/><use transform="matrix(0.05555555555555555,0,0,0.05555555555555555,57.66666666666668,0)" xlink:href="#ac"/></g><g id="E"><use transform="matrix(0.06172839506172839,0,0,0.06172839506172839,0,0)" xlink:href="#ap"/><use transform="matrix(0.06172839506172839,0,0,0.06172839506172839,6.172839506172839,0)" xlink:href="#aa"/><use transform="matrix(0.06172839506172839,0,0,0.06172839506172839,19.691358024691358,0)" xlink:href="#au"/><use transform="matrix(0.06172839506172839,0,0,0.06172839506172839,32.03703703703704,0)" xlink:href="#ad"/><use transform="matrix(0.06172839506172839,0,0,0.06172839506172839,44.382716049382715,0)" xlink:href="#ak"/><use transform="matrix(0.06172839506172839,0,0,0.06172839506172839,50.55555555555556,0)" xlink:href="#Y"/><use transform="matrix(0.06172839506172839,0,0,0.06172839506172839,56.7283950617284,0)" xlink:href="#ac"/></g><g id="F"><use transform="matrix(0.061728395061728385,0,0,0.061728395061728385,0,0)" xlink:href="#U"/><use transform="matrix(0.061728395061728385,0,0,0.061728395061728385,12.345679012345677,0)" xlink:href="#ac"/><use transform="matrix(0.061728395061728385,0,0,0.061728395061728385,25.864197530864192,0)" xlink:href="#Y"/><use transform="matrix(0.061728395061728385,0,0,0.061728395061728385,32.03703703703703,0)" xlink:href="#X"/><use transform="matrix(0.061728395061728385,0,0,0.061728395061728385,39.38271604938271,0)" xlink:href="#Y"/><use transform="matrix(0.061728395061728385,0,0,0.061728395061728385,45.55555555555554,0)" xlink:href="#aa"/><use transform="matrix(0.061728395061728385,0,0,0.061728395061728385,59.07407407407406,0)" xlink:href="#ag"/></g><g id="G"><use transform="matrix(0.061728395061728385,0,0,0.061728395061728385,0,0)" xlink:href="#ad"/><use transform="matrix(0.061728395061728385,0,0,0.061728395061728385,12.345679012345677,0)" xlink:href="#ac"/><use transform="matrix(0.061728395061728385,0,0,0.061728395061728385,25.864197530864192,0)" xlink:href="#ac"/><use transform="matrix(0.061728395061728385,0,0,0.061728395061728385,39.38271604938271,0)" xlink:href="#Y"/><use transform="matrix(0.061728395061728385,0,0,0.061728395061728385,45.55555555555554,0)" xlink:href="#aa"/><use transform="matrix(0.061728395061728385,0,0,0.061728395061728385,59.07407407407406,0)" xlink:href="#ag"/></g><g id="H"><use transform="matrix(0.061728395061728385,0,0,0.061728395061728385,0,0)" xlink:href="#ac"/><use transform="matrix(0.061728395061728385,0,0,0.061728395061728385,13.518518518518515,0)" xlink:href="#U"/><use transform="matrix(0.061728395061728385,0,0,0.061728395061728385,25.864197530864192,0)" xlink:href="#ak"/><use transform="matrix(0.061728395061728385,0,0,0.061728395061728385,32.03703703703703,0)" xlink:href="#U"/><use transform="matrix(0.061728395061728385,0,0,0.061728395061728385,44.38271604938271,0)" xlink:href="#X"/><use transform="matrix(0.061728395061728385,0,0,0.061728395061728385,51.728395061728385,0)" xlink:href="#U"/></g></defs></g></svg>