<svg xmlns="http://www.w3.org/2000/svg" xmlns:xlink="http://www.w3.org/1999/xlink" xmlns:lucid="lucid" width="1462.41" height="1237.43"><g transform="translate(-479.22222222222223 -43.57116653319963)" lucid:page-tab-id=".Q4MUjXso07N"><path d="M729.94 72.57a8 8 0 0 1 8-8H1692a8 8 0 0 1 8 8V1252a8 8 0 0 1-8 8H737.94a8 8 0 0 1-8-8z" stroke="#000" stroke-width="2" fill="#f2f3f5"/><use xlink:href="#a" transform="matrix(1,0,0,1,737.9409460791317,72.57116653319963) translate(254.6787037037038 23.288888888888877)"/><use xlink:href="#b" transform="matrix(1,0,0,1,737.9409460791317,72.57116653319963) translate(324.1410493827161 23.288888888888877)"/><use xlink:href="#c" transform="matrix(1,0,0,1,737.9409460791317,72.57116653319963) translate(411.3126543209877 23.288888888888877)"/><use xlink:href="#d" transform="matrix(1,0,0,1,737.9409460791317,72.57116653319963) translate(596.895987654321 23.288888888888877)"/><path d="M1320 207.5c0 37.28-40.3 67.5-90 67.5s-90-30.22-90-67.5 40.3-67.5 90-67.5 90 30.22 90 67.5z" stroke="#000" stroke-width="2" fill="#cfe4ff"/><use xlink:href="#e" transform="matrix(1,0,0,1,1167,167) translate(26.851851851851862 45.83333333333333)"/><path d="M1899.75 960.82c0 10.9-8.84 19.75-19.75 19.75-10.9 0-19.75-8.84-19.75-19.75 0-10.9 8.84-19.75 19.75-19.75 10.9 0 19.75 8.84 19.75 19.75z" stroke="#000" stroke-width="2" fill="#fff"/><path d="M1880 980.57v49.3a20.7 20.7 0 0 0 3.2 11.07l36.8 58.13m-40-63.2l-40 63.2m0-98.75h80" stroke="#000" stroke-width="2" fill="none"/><path d="M1840 947.07a6 6 0 0 1 6-6h68a6 6 0 0 1 6 6v168a6 6 0 0 1-6 6h-68a6 6 0 0 1-6-6z" fill="none"/><use xlink:href="#f" transform="matrix(1,0,0,1,1760,1099.0683750989515) translate(78.62962962962963 21.333333333333332)"/><path d="M599.75 294.75c0 10.9-8.84 19.75-19.75 19.75-10.9 0-19.75-8.84-19.75-19.75 0-10.9 8.84-19.75 19.75-19.75 10.9 0 19.75 8.84 19.75 19.75z" stroke="#000" stroke-width="2" fill="#fff"/><path d="M580 314.5v49.3a20.7 20.7 0 0 0 3.2 11.07L620 433m-40-63.2L540 433m0-98.75h80" stroke="#000" stroke-width="2" fill="none"/><path d="M540 281a6 6 0 0 1 6-6h68a6 6 0 0 1 6 6v168a6 6 0 0 1-6 6h-68a6 6 0 0 1-6-6z" fill="none"/><use xlink:href="#g" transform="matrix(1,0,0,1,460,433) translate(77.18518518518519 21.333333333333332)"/><path d="M599.75 599.75c0 10.9-8.84 19.75-19.75 19.75-10.9 0-19.75-8.84-19.75-19.75 0-10.9 8.84-19.75 19.75-19.75 10.9 0 19.75 8.84 19.75 19.75z" stroke="#000" stroke-width="2" fill="#fff"/><path d="M580 619.5v49.3a20.7 20.7 0 0 0 3.2 11.07L620 738m-40-63.2L540 738m0-98.75h80" stroke="#000" stroke-width="2" fill="none"/><path d="M540 586a6 6 0 0 1 6-6h68a6 6 0 0 1 6 6v168a6 6 0 0 1-6 6h-68a6 6 0 0 1-6-6z" fill="none"/><use xlink:href="#h" transform="matrix(1,0,0,1,460,738) translate(40.22222222222223 21.333333333333332)"/><path d="M1300 1020c0 37.28-40.3 67.5-90 67.5s-90-30.22-90-67.5 40.3-67.5 90-67.5 90 30.22 90 67.5z" stroke="#000" stroke-width="2" fill="#cfe4ff"/><use xlink:href="#i" transform="matrix(1,0,0,1,1147,979.5) translate(20.185185185185198 21.33333333333333)"/><use xlink:href="#j" transform="matrix(1,0,0,1,1147,979.5) translate(26.000000000000007 53.33333333333332)"/><use xlink:href="#k" transform="matrix(1,0,0,1,1147,979.5) translate(39.370370370370374 85.33333333333331)"/><path d="M930 872.5c0 37.28-40.3 67.5-90 67.5s-90-30.22-90-67.5 40.3-67.5 90-67.5 90 30.22 90 67.5z" stroke="#000" stroke-width="2" fill="#cfe4ff"/><use xlink:href="#l" transform="matrix(1,0,0,1,777,832) translate(3.8888888888889 45.83333333333333)"/><use xlink:href="#m" transform="matrix(1,0,0,1,777,832) translate(62.925925925925924 45.83333333333333)"/><path d="M920 1020c0 33.14-35.82 60-80 60s-80-26.86-80-60 35.82-60 80-60 80 26.86 80 60z" stroke="#000" stroke-width="2" fill="#cfe4ff"/><use xlink:href="#n" transform="matrix(1,0,0,1,784,984) translate(16.074074074074083 25.333333333333336)"/><use xlink:href="#m" transform="matrix(1,0,0,1,784,984) translate(26.407407407407415 57.33333333333333)"/><path d="M920 1162.5c0 34.52-35.82 62.5-80 62.5s-80-27.98-80-62.5c0-34.52 35.82-62.5 80-62.5s80 27.98 80 62.5z" stroke="#000" stroke-width="2" fill="#cfe4ff"/><use xlink:href="#o" transform="matrix(1,0,0,1,784,1125) translate(30.888888888888893 26.833333333333336)"/><use xlink:href="#m" transform="matrix(1,0,0,1,784,1125) translate(26.407407407407415 58.83333333333333)"/><path d="M1320 358.83c0 37.28-40.3 67.5-90 67.5s-90-30.22-90-67.5c0-37.27 40.3-67.5 90-67.5s90 30.23 90 67.5z" stroke="#000" stroke-width="2" fill="#cfe4ff"/><use xlink:href="#p" transform="matrix(1,0,0,1,1167,318.33372222528715) translate(4.1456790123456955 28.887301587301586)"/><use xlink:href="#q" transform="matrix(1,0,0,1,1167,318.33372222528715) translate(42.64135802469136 62.6015873015873)"/><path d="M1320 507.5c0 37.28-40.3 67.5-90 67.5s-90-30.22-90-67.5 40.3-67.5 90-67.5 90 30.22 90 67.5z" stroke="#000" stroke-width="2" fill="#cfe4ff"/><use xlink:href="#r" transform="matrix(1,0,0,1,1167,467) translate(32.88888888888889 29.833333333333336)"/><use xlink:href="#s" transform="matrix(1,0,0,1,1167,467) translate(31.259259259259267 61.83333333333333)"/><path d="M1211 942.5h-2v-9.66h2zm0-19.33h-2v-19.33h2zm-10.97-51.5l2 .46 1.87.78 1.74 1.08 1.55 1.32 1.32 1.56 1.07 1.74.77 1.88.47 2 .16 1.98v9.7h-2v-9.62l-.14-1.76-.4-1.68-.66-1.6-.9-1.46-1.12-1.32-1.32-1.12-1.47-.9-1.6-.66-1.68-.4-1.76-.14h-9.8v-2h9.88zm-21.73 1.83h-19.7v-2h19.7zm-29.56 0h-19.7v-2h19.7zm-128.34 0h-9.58v-2h9.58zm-19.44 0h-19.7v-2h19.7zm-29.55 0h-19.7v-2h19.7zm-29.55 0H932v-2h9.85zm177.33 0h-9.38v-2h9.38z" stroke="#333" stroke-width=".05" fill="#333"/><path d="M1210 949.53l-7.64-12.9h15.28z" fill="#333"/><path d="M1210 951.5l-9.4-15.88h18.8zm-5.88-13.88l5.88 9.95 5.88-9.95z" stroke="#333" stroke-width=".05" fill="#333"/><path d="M932.03 873.5h-1.06l.03-1v-1h1.03z" fill="#333"/><path d="M932.05 873.52h-1.1l.02-1v-1.06h1.08zm-1.04-2l.02.17v.8l-.02.98h1v-1.96z" stroke="#333" stroke-width=".05" fill="#333"/><use xlink:href="#t" transform="matrix(1,0,0,1,1020.3982056931936,856.3666666666667) translate(0.005000000000002558 21.511111111111106)"/><path d="M1211 1150.54l-.16 2-.47 1.98-.78 1.88-1.08 1.74-1.33 1.55-1.56 1.32-1.74 1.07-1.88.77-2 .47-1.98.16h-10.26v-2h10.18l1.76-.14 1.68-.4 1.6-.66 1.46-.9 1.32-1.12 1.12-1.32.9-1.47.66-1.6.4-1.68.14-1.76v-8.8h2zm-33.44 12.96h-20.45v-2h20.46zm-30.67 0h-20.46v-2h20.45zm-30.68 0h-20.44v-2h20.44zm-127.9 0h-15.2v-2h15.2zm-25.43 0h-20.46v-2h20.45zm-30.68 0H922v-2h10.22zm153.34 0h-7.84v-2h7.84zm125.44-30.67h-2v-17.67h2zm0-26.5h-2v-8.84h2z" stroke="#333" stroke-width=".05" fill="#333"/><path d="M1217.64 1103.38h-15.28l7.64-12.92z" fill="#333"/><path d="M1219.4 1104.38h-18.8l9.4-15.88zm-15.28-2h11.76l-5.88-9.95z" stroke="#333" stroke-width=".05" fill="#333"/><path d="M922.03 1163.5h-1.06l.03-1v-.43l-.02-.57h1.05z" fill="#333"/><path d="M922.05 1163.53h-1.1l.02-1.02v-.43l-.02-.6h1.1zm-1.05-2l.02.54v.44l-.02.97h1v-1.94z" stroke="#333" stroke-width=".05" fill="#333"/><use xlink:href="#t" transform="matrix(1,0,0,1,988.3143174234858,1146.3666666666666) translate(0.005000000000002558 21.511111111111106)"/><path d="M1878.5 1020H1302M1878.47 1020h4.03" stroke="#333" stroke-width="2" fill="none"/><path d="M1302.03 1021h-1.06l.03-1v-1h1.03z" stroke="#333" stroke-width=".05" fill="#333"/><path d="M581.5 346.78h266.25a12 12 0 0 0 12-12V219.5a12 12 0 0 1 12-12H1138M581.53 346.78h-4.03" stroke="#333" stroke-width="2" fill="none"/><path d="M1139 207.5v1h-1.03v-2h1.06z" stroke="#333" stroke-width=".05" fill="#333"/><path d="M581.5 358.83H1138M581.53 358.83h-4.03" stroke="#333" stroke-width="2" fill="none"/><path d="M1139 358.82v1.01h-1.03v-2h1.06z" stroke="#333" stroke-width=".05" fill="#333"/><path d="M582.04 670H840.5a12 12 0 0 1 12 12v53.5a12 12 0 0 0 12 12h258.47M582.07 670h-4.03" stroke="#333" stroke-width="2" fill="none"/><path d="M1123.97 747.5v1h-1.03v-2h1.06z" stroke="#333" stroke-width=".05" fill="#333"/><path d="M581.5 658.93H1218a12 12 0 0 0 12-12V577M581.53 658.93h-4.03" stroke="#333" stroke-width="2" fill="none"/><path d="M1230 576h1v1.03h-2v-1.06zM1870.03 206.66l2 .47 1.87.78 1.74 1.08 1.55 1.33 1.32 1.56 1.07 1.74.77 1.88.47 2 .16 1.98v719.6h-2V219.55l-.14-1.76-.4-1.68-.66-1.6-.9-1.46-1.12-1.32-1.32-1.12-1.47-.9-1.6-.66-1.68-.4-1.76-.14H1322v-2h546.04z" stroke="#333" stroke-width=".05" fill="#333"/><path d="M1881 940.2l-.95-.13-1.05.02v-1.06h2z" fill="#333"/><path d="M1881.03 940.2l-.98-.1-1.08.02v-1.1h2.06zm-2-1.13v1l1.02-.03.92.12v-1.1z" stroke="#333" stroke-width=".05" fill="#333"/><path d="M1322.03 208.5h-1.06l.03-1v-1h1.03z" fill="#333"/><path d="M1322.05 208.53h-1.1l.02-1.02v-1.02h1.08zm-1.04-2l.02.16v.8l-.02.97h1v-1.94z" stroke="#333" stroke-width=".05" fill="#333"/><path d="M1304.97 747.5c0 37.28-40.3 67.5-90 67.5s-90-30.22-90-67.5 40.3-67.5 90-67.5 90 30.22 90 67.5z" stroke="#000" stroke-width="2" fill="#cfe4ff"/><use xlink:href="#i" transform="matrix(1,0,0,1,1151.9704730395658,707) translate(20.185185185185198 29.833333333333336)"/><use xlink:href="#u" transform="matrix(1,0,0,1,1151.9704730395658,707) translate(11.962962962962976 61.83333333333333)"/><use xlink:href="#v" transform="matrix(1,0,0,1,1151.9704730395658,707) translate(75.5925925925926 61.83333333333333)"/><path d="M582.04 365h265.98a12 12 0 0 1 12 12v118.5a12 12 0 0 0 12 12H1138M582.07 365h-4.03" stroke="#333" stroke-width="2" fill="none"/><path d="M1139 507.5v1h-1.03v-2h1.06z" stroke="#333" stroke-width=".05" fill="#333"/><path d="M1680 587.5c0 37.28-40.3 67.5-90 67.5s-90-30.22-90-67.5 40.3-67.5 90-67.5 90 30.22 90 67.5z" stroke="#000" stroke-width="2" fill="#cfe4ff"/><use xlink:href="#w" transform="matrix(1,0,0,1,1527,547) translate(37.18518518518519 29.833333333333336)"/><use xlink:href="#x" transform="matrix(1,0,0,1,1527,547) translate(-18.92592592592591 61.83333333333333)"/><path d="M1680 907.5c0 37.28-40.3 67.5-90 67.5s-90-30.22-90-67.5 40.3-67.5 90-67.5 90 30.22 90 67.5z" stroke="#000" stroke-width="2" fill="#cfe4ff"/><use xlink:href="#o" transform="matrix(1,0,0,1,1527,867) translate(37.88888888888889 29.833333333333336)"/><use xlink:href="#x" transform="matrix(1,0,0,1,1527,867) translate(-18.92592592592591 61.83333333333333)"/><path d="M1287.75 696.4h-2v-8.28h2zm0-16.57h-2v-16.58h2zm-.44-34.08l.33.27.12.54v8.4h-2v-7.77l-.13-.07-.3-.63-.02-8.06h2zm0-15.1h-2v-15.57h2zm20.5-42.15h-9.46l-1.76.14-1.67.4-1.6.66-1.46.9-1.3 1.12-1.13 1.32-.9 1.47-.66 1.6-.4 1.68-.14 1.76v7.75h-2v-7.84l.16-2 .48-1.98.78-1.88 1.06-1.74 1.33-1.56 1.56-1.32 1.74-1.07 1.88-.77 2-.47 1.98-.16h9.55zm28.54 0h-19.02v-2h19.02zm28.53 0h-19.02v-2h19.02zm133.13 0h-9.5v-2h9.5zm-19.02 0h-17.1v-2h17.1z" stroke="#333" stroke-width=".05" fill="#333"/><path d="M1286.75 703.44l-7.63-12.9h15.27z" fill="#333"/><path d="M1286.75 705.4l-9.4-15.87h18.8zm-5.88-13.87l5.88 9.94 5.9-9.94z" stroke="#333" stroke-width=".05" fill="#333"/><path d="M1499 587.5v1h-1.03v-2h1.06z" fill="#333"/><path d="M1499.03 587.5v1.03h-1.08v-2.05h1.1zm-1.03-.98v1.96h1l-.02-.17v-.8l.02-.98z" stroke="#333" stroke-width=".05" fill="#333"/><use xlink:href="#t" transform="matrix(1,0,0,1,1372.4754082870047,571.3666666666667) translate(0.005000000000002558 21.511111111111106)"/><path d="M1266.4 895.46l.15 1.76.4 1.68.66 1.6.9 1.46 1.13 1.32 1.32 1.12 1.47.9 1.6.66 1.67.4 1.75.14h10.46v2h-10.53l-2-.16-1.98-.47-1.9-.78-1.73-1.08-1.56-1.32-1.3-1.56-1.08-1.74-.78-1.88-.47-2-.16-1.98v-9.15h2zm53.03 13.04h-21v-2h21zm31.5 0h-21v-2h21zm126.06 0h-21.02v-2h21zm21 0h-10.5v-2h10.5zm-52.52 0h-1.2v-2h1.2zm-179.07-31.22h-2v-18.22h2zm0-27.33h-2v-18.22h2zm0-27.33h-2v-9.1h2z" stroke="#333" stroke-width=".05" fill="#333"/><path d="M1273.05 819.4h-15.28l7.64-12.92z" fill="#333"/><path d="M1274.8 820.4h-18.78l9.4-15.88zm-15.27-2h11.76l-5.9-9.95z" stroke="#333" stroke-width=".05" fill="#333"/><path d="M1499 907.5v1h-1.03v-2h1.06z" fill="#333"/><path d="M1499.03 907.5v1.03h-1.08v-2.05h1.1zm-1.03-.98v1.96h1l-.02-.17v-.8l.02-.98z" stroke="#333" stroke-width=".05" fill="#333"/><use xlink:href="#t" transform="matrix(1,0,0,1,1354.875148716776,891.3666666666667) translate(0.005000000000002558 21.511111111111106)"/><path d="M1680 747.5c0 37.28-40.3 67.5-90 67.5s-90-30.22-90-67.5 40.3-67.5 90-67.5 90 30.22 90 67.5z" stroke="#000" stroke-width="2" fill="#cfe4ff"/><use xlink:href="#n" transform="matrix(1,0,0,1,1527,707) translate(23.074074074074083 29.833333333333336)"/><use xlink:href="#x" transform="matrix(1,0,0,1,1527,707) translate(-18.92592592592591 61.83333333333333)"/><path d="M1325.13 748.5h-10.17v-2h10.17zm30.5 0h-20.33v-2h20.34zm122.03 0h-20.34v-2h20.34zm20.34 0h-10.17v-2H1498z" stroke="#333" stroke-width=".05" fill="#333"/><path d="M1320.85 755.14l-12.9-7.64 12.9-7.64z" fill="#333"/><path d="M1321.85 756.9l-15.88-9.4 15.88-9.4zm-11.95-9.4l9.95 5.88v-11.76z" stroke="#333" stroke-width=".05" fill="#333"/><path d="M1499 747.5v1h-1.03v-2h1.06z" fill="#333"/><path d="M1499.03 747.5v1.03h-1.08v-2.05h1.1zm-1.03-.98v1.96h1l-.02-.17v-.8l.02-.98z" stroke="#333" stroke-width=".05" fill="#333"/><g><use xlink:href="#t" transform="matrix(1,0,0,1,1357.7824587420052,731.3666666666667) translate(0.005000000000002558 21.511111111111106)"/></g><path d="M581.5 651.6H1008a12 12 0 0 0 12-12V512.5c-2.76 0-5-2.24-5-5s2.24-5 5-5V363.83c-2.76 0-5-2.23-5-5 0-2.76 2.24-5 5-5V212.5c-2.76 0-5-2.24-5-5s2.24-5 5-5v-17.68a12 12 0 0 1 12-12h118.5M581.53 651.6h-4.03" stroke="#333" stroke-width="2" fill="none"/><path d="M1151.65 172.62l-.9 1.2h-.27v-2h1.84zM1110 1021h-10.44v-2H1110zm-20.88 0h-20.9v-2h20.9zm-125.68 0H942.9v-2h20.54zm-31 0H922v-2h10.45zm125.34 0h-4.94v-2h4.94z" stroke="#333" stroke-width=".05" fill="#333"/><path d="M1117.04 1020l-12.92 7.64v-15.28z" fill="#333"/><path d="M1119 1020l-15.88 9.4v-18.8zm-13.88 5.88l9.95-5.88-9.95-5.88z" stroke="#333" stroke-width=".05" fill="#333"/><path d="M922.03 1021h-1.06l.03-1v-.4l-.02-.6h1.05z" fill="#333"/><path d="M922.05 1021.02h-1.1l.02-1v-.42l-.02-.63h1.1zm-1.05-2l.02.58v.4l-.02.98h1V1019z" stroke="#333" stroke-width=".05" fill="#333"/><g><use xlink:href="#t" transform="matrix(1,0,0,1,963.438506847726,1003.8666666666667) translate(0.005000000000002558 21.511111111111106)"/></g><defs><path d="M24-248c93 1 206-16 204 79-1 75-69 88-152 82V0H24v-248zm52 121c47 0 100 7 100-41 0-47-54-39-100-39v80" id="y"/><path d="M185-48c-13 30-37 53-82 52C43 2 14-33 14-96s30-98 90-98c62 0 83 45 84 108H66c0 31 8 55 39 56 18 0 30-7 34-22zm-45-69c5-46-57-63-70-21-2 6-4 13-4 21h74" id="z"/><path d="M115-3C79 11 28 4 28-45v-112H4v-33h27l15-45h31v45h36v33H77v99c-1 23 16 31 38 25v30" id="A"/><path d="M137-138c1-29-70-34-71-4 15 46 118 7 119 86 1 83-164 76-172 9l43-7c4 19 20 25 44 25 33 8 57-30 24-41C81-84 22-81 20-136c-2-80 154-74 161-7" id="B"/><g id="a"><use transform="matrix(0.08086419753086416,0,0,0.08086419753086416,0,0)" xlink:href="#y"/><use transform="matrix(0.08086419753086416,0,0,0.08086419753086416,19.407407407407398,0)" xlink:href="#z"/><use transform="matrix(0.08086419753086416,0,0,0.08086419753086416,35.580246913580226,0)" xlink:href="#A"/><use transform="matrix(0.08086419753086416,0,0,0.08086419753086416,45.20308641975306,0)" xlink:href="#B"/></g><path d="M67-125c0 53 21 87 73 88 37 1 54-22 65-47l45 17C233-25 199 4 140 4 58 4 20-42 15-125 8-235 124-281 211-232c18 10 29 29 36 50l-46 12c-8-25-30-41-62-41-52 0-71 34-72 86" id="C"/><path d="M25 0v-261h50V0H25" id="D"/><path d="M25-224v-37h50v37H25zM25 0v-190h50V0H25" id="E"/><path d="M135-194c87-1 58 113 63 194h-50c-7-57 23-157-34-157-59 0-34 97-39 157H25l-1-190h47c2 12-1 28 3 38 12-26 28-41 61-42" id="F"/><path d="M190-63c-7 42-38 67-86 67-59 0-84-38-90-98-12-110 154-137 174-36l-49 2c-2-19-15-32-35-32-30 0-35 28-38 64-6 74 65 87 74 30" id="G"/><g id="b"><use transform="matrix(0.08086419753086416,0,0,0.08086419753086416,0,0)" xlink:href="#C"/><use transform="matrix(0.08086419753086416,0,0,0.08086419753086416,20.943827160493818,0)" xlink:href="#D"/><use transform="matrix(0.08086419753086416,0,0,0.08086419753086416,29.030246913580235,0)" xlink:href="#E"/><use transform="matrix(0.08086419753086416,0,0,0.08086419753086416,37.11666666666665,0)" xlink:href="#F"/><use transform="matrix(0.08086419753086416,0,0,0.08086419753086416,54.8259259259259,0)" xlink:href="#E"/><use transform="matrix(0.08086419753086416,0,0,0.08086419753086416,62.91234567901231,0)" xlink:href="#G"/></g><path d="M230 0l2-204L168 0h-37L68-204 70 0H24v-248h70l56 185 57-185h69V0h-46" id="H"/><path d="M133-34C117-15 103 5 69 4 32 3 11-16 11-54c-1-60 55-63 116-61 1-26-3-47-28-47-18 1-26 9-28 27l-52-2c7-38 36-58 82-57s74 22 75 68l1 82c-1 14 12 18 25 15v27c-30 8-71 5-69-32zm-48 3c29 0 43-24 42-57-32 0-66-3-65 30 0 17 8 27 23 27" id="I"/><path d="M195-6C206 82 75 100 31 46c-4-6-6-13-8-21l49-6c3 16 16 24 34 25 40 0 42-37 40-79-11 22-30 35-61 35-53 0-70-43-70-97 0-56 18-96 73-97 30 0 46 14 59 34l2-30h47zm-90-29c32 0 41-27 41-63 0-35-9-62-40-62-32 0-39 29-40 63 0 36 9 62 39 62" id="J"/><path d="M220-157c-53 9-28 100-34 157h-49v-107c1-27-5-49-29-50C55-147 81-57 75 0H25l-1-190h47c2 12-1 28 3 38 10-53 101-56 108 0 13-22 24-43 59-42 82 1 51 116 57 194h-49v-107c-1-25-5-48-29-50" id="K"/><g id="c"><use transform="matrix(0.08086419753086416,0,0,0.08086419753086416,0,0)" xlink:href="#H"/><use transform="matrix(0.08086419753086416,0,0,0.08086419753086416,24.178395061728384,0)" xlink:href="#I"/><use transform="matrix(0.08086419753086416,0,0,0.08086419753086416,40.351234567901216,0)" xlink:href="#F"/><use transform="matrix(0.08086419753086416,0,0,0.08086419753086416,58.06049382716047,0)" xlink:href="#I"/><use transform="matrix(0.08086419753086416,0,0,0.08086419753086416,74.2333333333333,0)" xlink:href="#J"/><use transform="matrix(0.08086419753086416,0,0,0.08086419753086416,91.94259259259256,0)" xlink:href="#z"/><use transform="matrix(0.08086419753086416,0,0,0.08086419753086416,108.1154320987654,0)" xlink:href="#K"/><use transform="matrix(0.08086419753086416,0,0,0.08086419753086416,133.99197530864194,0)" xlink:href="#z"/><use transform="matrix(0.08086419753086416,0,0,0.08086419753086416,150.16481481481478,0)" xlink:href="#F"/><use transform="matrix(0.08086419753086416,0,0,0.08086419753086416,167.87407407407403,0)" xlink:href="#A"/></g><path d="M169-182c-1-43-94-46-97-3 18 66 151 10 154 114 3 95-165 93-204 36-6-8-10-19-12-30l50-8c3 46 112 56 116 5-17-69-150-10-154-114-4-87 153-88 188-35 5 8 8 18 10 28" id="L"/><path d="M123 10C108 53 80 86 19 72V37c35 8 53-11 59-39L3-190h52l48 148c12-52 28-100 44-148h51" id="M"/><g id="d"><use transform="matrix(0.08086419753086416,0,0,0.08086419753086416,0,0)" xlink:href="#L"/><use transform="matrix(0.08086419753086416,0,0,0.08086419753086416,19.407407407407398,0)" xlink:href="#M"/><use transform="matrix(0.08086419753086416,0,0,0.08086419753086416,35.580246913580226,0)" xlink:href="#B"/><use transform="matrix(0.08086419753086416,0,0,0.08086419753086416,51.75308641975306,0)" xlink:href="#A"/><use transform="matrix(0.08086419753086416,0,0,0.08086419753086416,61.3759259259259,0)" xlink:href="#z"/><use transform="matrix(0.08086419753086416,0,0,0.08086419753086416,77.54876543209873,0)" xlink:href="#K"/></g><path fill="#3a414a" d="M24 0v-248h52v208h133V0H24" id="N"/><path fill="#3a414a" d="M110-194c64 0 96 36 96 99 0 64-35 99-97 99-61 0-95-36-95-99 0-62 34-99 96-99zm-1 164c35 0 45-28 45-65 0-40-10-65-43-65-34 0-45 26-45 65 0 36 10 65 43 65" id="O"/><path fill="#3a414a" d="M195-6C206 82 75 100 31 46c-4-6-6-13-8-21l49-6c3 16 16 24 34 25 40 0 42-37 40-79-11 22-30 35-61 35-53 0-70-43-70-97 0-56 18-96 73-97 30 0 46 14 59 34l2-30h47zm-90-29c32 0 41-27 41-63 0-35-9-62-40-62-32 0-39 29-40 63 0 36 9 62 39 62" id="P"/><path fill="#3a414a" d="M25-224v-37h50v37H25zM25 0v-190h50V0H25" id="Q"/><path fill="#3a414a" d="M135-194c87-1 58 113 63 194h-50c-7-57 23-157-34-157-59 0-34 97-39 157H25l-1-190h47c2 12-1 28 3 38 12-26 28-41 61-42" id="R"/><g id="e"><use transform="matrix(0.07407407407407406,0,0,0.07407407407407406,0,0)" xlink:href="#N"/><use transform="matrix(0.07407407407407406,0,0,0.07407407407407406,16.222222222222218,0)" xlink:href="#O"/><use transform="matrix(0.07407407407407406,0,0,0.07407407407407406,32.444444444444436,0)" xlink:href="#P"/><use transform="matrix(0.07407407407407406,0,0,0.07407407407407406,48.66666666666666,0)" xlink:href="#Q"/><use transform="matrix(0.07407407407407406,0,0,0.07407407407407406,56.07407407407406,0)" xlink:href="#R"/></g><path fill="#3a414a" d="M199 0l-22-63H83L61 0H9l90-248h61L250 0h-51zm-33-102l-36-108c-10 38-24 72-36 108h72" id="S"/><path fill="#3a414a" d="M88-194c31-1 46 15 58 34l-1-101h50l1 261h-48c-2-10 0-23-3-31C134-8 116 4 84 4 32 4 16-41 15-95c0-56 19-97 73-99zm17 164c33 0 40-30 41-66 1-37-9-64-41-64s-38 30-39 65c0 43 13 65 39 65" id="T"/><path fill="#3a414a" d="M220-157c-53 9-28 100-34 157h-49v-107c1-27-5-49-29-50C55-147 81-57 75 0H25l-1-190h47c2 12-1 28 3 38 10-53 101-56 108 0 13-22 24-43 59-42 82 1 51 116 57 194h-49v-107c-1-25-5-48-29-50" id="U"/><g id="f"><use transform="matrix(0.07407407407407407,0,0,0.07407407407407407,0,0)" xlink:href="#S"/><use transform="matrix(0.07407407407407407,0,0,0.07407407407407407,19.185185185185183,0)" xlink:href="#T"/><use transform="matrix(0.07407407407407407,0,0,0.07407407407407407,35.407407407407405,0)" xlink:href="#U"/><use transform="matrix(0.07407407407407407,0,0,0.07407407407407407,59.11111111111111,0)" xlink:href="#Q"/><use transform="matrix(0.07407407407407407,0,0,0.07407407407407407,66.51851851851852,0)" xlink:href="#R"/></g><path fill="#3a414a" d="M24-248c120-7 223 5 221 122C244-46 201 0 124 0H24v-248zM76-40c74 7 117-18 117-86 0-67-45-88-117-82v168" id="V"/><path fill="#3a414a" d="M190-63c-7 42-38 67-86 67-59 0-84-38-90-98-12-110 154-137 174-36l-49 2c-2-19-15-32-35-32-30 0-35 28-38 64-6 74 65 87 74 30" id="W"/><path fill="#3a414a" d="M115-3C79 11 28 4 28-45v-112H4v-33h27l15-45h31v45h36v33H77v99c-1 23 16 31 38 25v30" id="X"/><path fill="#3a414a" d="M135-150c-39-12-60 13-60 57V0H25l-1-190h47c2 13-1 29 3 40 6-28 27-53 61-41v41" id="Y"/><g id="g"><use transform="matrix(0.07407407407407407,0,0,0.07407407407407407,0,0)" xlink:href="#V"/><use transform="matrix(0.07407407407407407,0,0,0.07407407407407407,19.185185185185183,0)" xlink:href="#O"/><use transform="matrix(0.07407407407407407,0,0,0.07407407407407407,35.407407407407405,0)" xlink:href="#W"/><use transform="matrix(0.07407407407407407,0,0,0.07407407407407407,50.222222222222214,0)" xlink:href="#X"/><use transform="matrix(0.07407407407407407,0,0,0.07407407407407407,59.03703703703703,0)" xlink:href="#O"/><use transform="matrix(0.07407407407407407,0,0,0.07407407407407407,75.25925925925925,0)" xlink:href="#Y"/></g><path fill="#3a414a" d="M240-174c0 40-23 61-54 70L253 0h-59l-57-94H76V0H24v-248c93 4 217-23 216 74zM76-134c48-2 112 12 112-38 0-48-66-32-112-35v73" id="Z"/><path fill="#3a414a" d="M185-48c-13 30-37 53-82 52C43 2 14-33 14-96s30-98 90-98c62 0 83 45 84 108H66c0 31 8 55 39 56 18 0 30-7 34-22zm-45-69c5-46-57-63-70-21-2 6-4 13-4 21h74" id="aa"/><path fill="#3a414a" d="M135-194c53 0 70 44 70 98 0 56-19 98-73 100-31 1-45-17-59-34 3 33 2 69 2 105H25l-1-265h48c2 10 0 23 3 31 11-24 29-35 60-35zM114-30c33 0 39-31 40-66 0-38-9-64-40-64-56 0-55 130 0 130" id="ab"/><path fill="#3a414a" d="M137-138c1-29-70-34-71-4 15 46 118 7 119 86 1 83-164 76-172 9l43-7c4 19 20 25 44 25 33 8 57-30 24-41C81-84 22-81 20-136c-2-80 154-74 161-7" id="ac"/><g id="h"><use transform="matrix(0.07407407407407407,0,0,0.07407407407407407,0,0)" xlink:href="#Z"/><use transform="matrix(0.07407407407407407,0,0,0.07407407407407407,19.185185185185183,0)" xlink:href="#aa"/><use transform="matrix(0.07407407407407407,0,0,0.07407407407407407,34,0)" xlink:href="#W"/><use transform="matrix(0.07407407407407407,0,0,0.07407407407407407,48.81481481481481,0)" xlink:href="#aa"/><use transform="matrix(0.07407407407407407,0,0,0.07407407407407407,63.62962962962962,0)" xlink:href="#ab"/><use transform="matrix(0.07407407407407407,0,0,0.07407407407407407,79.85185185185185,0)" xlink:href="#X"/><use transform="matrix(0.07407407407407407,0,0,0.07407407407407407,88.66666666666666,0)" xlink:href="#Q"/><use transform="matrix(0.07407407407407407,0,0,0.07407407407407407,96.07407407407406,0)" xlink:href="#O"/><use transform="matrix(0.07407407407407407,0,0,0.07407407407407407,112.29629629629628,0)" xlink:href="#R"/><use transform="matrix(0.07407407407407407,0,0,0.07407407407407407,128.5185185185185,0)" xlink:href="#Q"/><use transform="matrix(0.07407407407407407,0,0,0.07407407407407407,135.92592592592592,0)" xlink:href="#ac"/><use transform="matrix(0.07407407407407407,0,0,0.07407407407407407,150.74074074074073,0)" xlink:href="#X"/></g><path fill="#3a414a" d="M230 0l2-204L168 0h-37L68-204 70 0H24v-248h70l56 185 57-185h69V0h-46" id="ad"/><path fill="#3a414a" d="M121-226c-27-7-43 5-38 36h38v33H83V0H34v-157H6v-33h28c-9-59 32-81 87-68v32" id="ae"/><path fill="#3a414a" d="M123 10C108 53 80 86 19 72V37c35 8 53-11 59-39L3-190h52l48 148c12-52 28-100 44-148h51" id="af"/><g id="i"><use transform="matrix(0.07407407407407406,0,0,0.07407407407407406,0,0)" xlink:href="#ad"/><use transform="matrix(0.07407407407407406,0,0,0.07407407407407406,22.14814814814814,0)" xlink:href="#O"/><use transform="matrix(0.07407407407407406,0,0,0.07407407407407406,38.37037037037036,0)" xlink:href="#T"/><use transform="matrix(0.07407407407407406,0,0,0.07407407407407406,54.59259259259258,0)" xlink:href="#Q"/><use transform="matrix(0.07407407407407406,0,0,0.07407407407407406,61.999999999999986,0)" xlink:href="#ae"/><use transform="matrix(0.07407407407407406,0,0,0.07407407407407406,70.8148148148148,0)" xlink:href="#af"/></g><path fill="#3a414a" d="M238-95c0 69-44 99-111 99C63 4 22-25 22-93v-155h51v151c-1 38 19 59 55 60 90 1 49-130 58-211h52v153" id="ag"/><g id="j"><use transform="matrix(0.07407407407407406,0,0,0.07407407407407406,0,0)" xlink:href="#ag"/><use transform="matrix(0.07407407407407406,0,0,0.07407407407407406,19.18518518518518,0)" xlink:href="#ac"/><use transform="matrix(0.07407407407407406,0,0,0.07407407407407406,33.99999999999999,0)" xlink:href="#aa"/><use transform="matrix(0.07407407407407406,0,0,0.07407407407407406,48.8148148148148,0)" xlink:href="#Y"/><use transform="matrix(0.07407407407407406,0,0,0.07407407407407406,59.18518518518517,0)" xlink:href="#ac"/></g><g id="k"><use transform="matrix(0.07407407407407406,0,0,0.07407407407407406,0,0)" xlink:href="#N"/><use transform="matrix(0.07407407407407406,0,0,0.07407407407407406,16.222222222222218,0)" xlink:href="#Q"/><use transform="matrix(0.07407407407407406,0,0,0.07407407407407406,23.629629629629623,0)" xlink:href="#ac"/><use transform="matrix(0.07407407407407406,0,0,0.07407407407407406,38.444444444444436,0)" xlink:href="#X"/></g><g id="l"><use transform="matrix(0.07407407407407406,0,0,0.07407407407407406,0,0)" xlink:href="#S"/><use transform="matrix(0.07407407407407406,0,0,0.07407407407407406,19.18518518518518,0)" xlink:href="#T"/><use transform="matrix(0.07407407407407406,0,0,0.07407407407407406,35.4074074074074,0)" xlink:href="#T"/></g><g id="m"><use transform="matrix(0.07407407407407406,0,0,0.07407407407407406,0,0)" xlink:href="#ag"/><use transform="matrix(0.07407407407407406,0,0,0.07407407407407406,19.18518518518518,0)" xlink:href="#ac"/><use transform="matrix(0.07407407407407406,0,0,0.07407407407407406,33.99999999999999,0)" xlink:href="#aa"/><use transform="matrix(0.07407407407407406,0,0,0.07407407407407406,48.8148148148148,0)" xlink:href="#Y"/></g><path fill="#3a414a" d="M25 0v-261h50V0H25" id="ah"/><g id="n"><use transform="matrix(0.07407407407407406,0,0,0.07407407407407406,0,0)" xlink:href="#V"/><use transform="matrix(0.07407407407407406,0,0,0.07407407407407406,19.18518518518518,0)" xlink:href="#aa"/><use transform="matrix(0.07407407407407406,0,0,0.07407407407407406,33.99999999999999,0)" xlink:href="#ah"/><use transform="matrix(0.07407407407407406,0,0,0.07407407407407406,41.4074074074074,0)" xlink:href="#aa"/><use transform="matrix(0.07407407407407406,0,0,0.07407407407407406,56.22222222222221,0)" xlink:href="#X"/><use transform="matrix(0.07407407407407406,0,0,0.07407407407407406,65.03703703703702,0)" xlink:href="#aa"/></g><path fill="#3a414a" d="M24 0v-248h195v40H76v63h132v40H76v65h150V0H24" id="ai"/><g id="o"><use transform="matrix(0.07407407407407406,0,0,0.07407407407407406,0,0)" xlink:href="#ai"/><use transform="matrix(0.07407407407407406,0,0,0.07407407407407406,17.777777777777775,0)" xlink:href="#T"/><use transform="matrix(0.07407407407407406,0,0,0.07407407407407406,33.99999999999999,0)" xlink:href="#Q"/><use transform="matrix(0.07407407407407406,0,0,0.07407407407407406,41.4074074074074,0)" xlink:href="#X"/></g><path fill="#202124" d="M24-248c120-7 223 5 221 122C244-46 201 0 124 0H24v-248zM76-40c74 7 117-18 117-86 0-67-45-88-117-82v168" id="aj"/><path fill="#202124" d="M25-224v-37h50v37H25zM25 0v-190h50V0H25" id="ak"/><path fill="#202124" d="M133-34C117-15 103 5 69 4 32 3 11-16 11-54c-1-60 55-63 116-61 1-26-3-47-28-47-18 1-26 9-28 27l-52-2c7-38 36-58 82-57s74 22 75 68l1 82c-1 14 12 18 25 15v27c-30 8-71 5-69-32zm-48 3c29 0 43-24 42-57-32 0-66-3-65 30 0 17 8 27 23 27" id="al"/><path fill="#202124" d="M195-6C206 82 75 100 31 46c-4-6-6-13-8-21l49-6c3 16 16 24 34 25 40 0 42-37 40-79-11 22-30 35-61 35-53 0-70-43-70-97 0-56 18-96 73-97 30 0 46 14 59 34l2-30h47zm-90-29c32 0 41-27 41-63 0-35-9-62-40-62-32 0-39 29-40 63 0 36 9 62 39 62" id="am"/><path fill="#202124" d="M135-194c87-1 58 113 63 194h-50c-7-57 23-157-34-157-59 0-34 97-39 157H25l-1-190h47c2 12-1 28 3 38 12-26 28-41 61-42" id="an"/><path fill="#202124" d="M110-194c64 0 96 36 96 99 0 64-35 99-97 99-61 0-95-36-95-99 0-62 34-99 96-99zm-1 164c35 0 45-28 45-65 0-40-10-65-43-65-34 0-45 26-45 65 0 36 10 65 43 65" id="ao"/><path fill="#202124" d="M137-138c1-29-70-34-71-4 15 46 118 7 119 86 1 83-164 76-172 9l43-7c4 19 20 25 44 25 33 8 57-30 24-41C81-84 22-81 20-136c-2-80 154-74 161-7" id="ap"/><path fill="#202124" d="M185-48c-13 30-37 53-82 52C43 2 14-33 14-96s30-98 90-98c62 0 83 45 84 108H66c0 31 8 55 39 56 18 0 30-7 34-22zm-45-69c5-46-57-63-70-21-2 6-4 13-4 21h74" id="aq"/><g id="p"><use transform="matrix(0.07283950617283949,0,0,0.07283950617283949,0,0)" xlink:href="#aj"/><use transform="matrix(0.07283950617283949,0,0,0.07283950617283949,18.865432098765428,0)" xlink:href="#ak"/><use transform="matrix(0.07283950617283949,0,0,0.07283950617283949,26.149382716049377,0)" xlink:href="#al"/><use transform="matrix(0.07283950617283949,0,0,0.07283950617283949,40.71728395061727,0)" xlink:href="#am"/><use transform="matrix(0.07283950617283949,0,0,0.07283950617283949,56.66913580246912,0)" xlink:href="#an"/><use transform="matrix(0.07283950617283949,0,0,0.07283950617283949,72.62098765432097,0)" xlink:href="#ao"/><use transform="matrix(0.07283950617283949,0,0,0.07283950617283949,88.5728395061728,0)" xlink:href="#ap"/><use transform="matrix(0.07283950617283949,0,0,0.07283950617283949,103.1407407407407,0)" xlink:href="#aq"/></g><path fill="#202124" d="M24-248c93 1 206-16 204 79-1 75-69 88-152 82V0H24v-248zm52 121c47 0 100 7 100-41 0-47-54-39-100-39v80" id="ar"/><path fill="#202124" d="M115-3C79 11 28 4 28-45v-112H4v-33h27l15-45h31v45h36v33H77v99c-1 23 16 31 38 25v30" id="as"/><g id="q"><use transform="matrix(0.07283950617283949,0,0,0.07283950617283949,0,0)" xlink:href="#ar"/><use transform="matrix(0.07283950617283949,0,0,0.07283950617283949,17.481481481481477,0)" xlink:href="#aq"/><use transform="matrix(0.07283950617283949,0,0,0.07283950617283949,32.04938271604938,0)" xlink:href="#as"/></g><path fill="#3a414a" d="M147 0H94L2-248h55l64 206c17-72 42-137 63-206h54" id="at"/><path fill="#3a414a" d="M231 0h-52l-39-155L100 0H48L-1-190h46L77-45c9-52 24-97 36-145h53l37 145 32-145h46" id="au"/><g id="r"><use transform="matrix(0.07407407407407406,0,0,0.07407407407407406,0,0)" xlink:href="#at"/><use transform="matrix(0.07407407407407406,0,0,0.07407407407407406,17.259259259259256,0)" xlink:href="#Q"/><use transform="matrix(0.07407407407407406,0,0,0.07407407407407406,24.66666666666666,0)" xlink:href="#aa"/><use transform="matrix(0.07407407407407406,0,0,0.07407407407407406,39.481481481481474,0)" xlink:href="#au"/></g><g id="s"><use transform="matrix(0.07407407407407406,0,0,0.07407407407407406,0,0)" xlink:href="#N"/><use transform="matrix(0.07407407407407406,0,0,0.07407407407407406,16.222222222222218,0)" xlink:href="#O"/><use transform="matrix(0.07407407407407406,0,0,0.07407407407407406,32.444444444444436,0)" xlink:href="#P"/><use transform="matrix(0.07407407407407406,0,0,0.07407407407407406,48.66666666666666,0)" xlink:href="#ac"/></g><path d="M24 0v-248h195v40H76v63h132v40H76v65h150V0H24" id="av"/><path d="M144 0l-44-69L55 0H2l70-98-66-92h53l41 62 40-62h54l-67 91 71 99h-54" id="aw"/><path d="M88-194c31-1 46 15 58 34l-1-101h50l1 261h-48c-2-10 0-23-3-31C134-8 116 4 84 4 32 4 16-41 15-95c0-56 19-97 73-99zm17 164c33 0 40-30 41-66 1-37-9-64-41-64s-38 30-39 65c0 43 13 65 39 65" id="ax"/><g id="t"><use transform="matrix(0.07469135802469135,0,0,0.07469135802469135,0,0)" xlink:href="#av"/><use transform="matrix(0.07469135802469135,0,0,0.07469135802469135,17.925925925925924,0)" xlink:href="#aw"/><use transform="matrix(0.07469135802469135,0,0,0.07469135802469135,32.86419753086419,0)" xlink:href="#A"/><use transform="matrix(0.07469135802469135,0,0,0.07469135802469135,41.75246913580246,0)" xlink:href="#z"/><use transform="matrix(0.07469135802469135,0,0,0.07469135802469135,56.69074074074072,0)" xlink:href="#F"/><use transform="matrix(0.07469135802469135,0,0,0.07469135802469135,73.04814814814813,0)" xlink:href="#ax"/></g><path fill="#3a414a" d="M24-248c93 1 206-16 204 79-1 75-69 88-152 82V0H24v-248zm52 121c47 0 100 7 100-41 0-47-54-39-100-39v80" id="ay"/><g id="u"><use transform="matrix(0.07407407407407406,0,0,0.07407407407407406,0,0)" xlink:href="#ay"/><use transform="matrix(0.07407407407407406,0,0,0.07407407407407406,17.777777777777775,0)" xlink:href="#aa"/><use transform="matrix(0.07407407407407406,0,0,0.07407407407407406,32.59259259259259,0)" xlink:href="#X"/><use transform="matrix(0.07407407407407406,0,0,0.07407407407407406,41.407407407407405,0)" xlink:href="#ac"/></g><g id="v"><use transform="matrix(0.07407407407407406,0,0,0.07407407407407406,0,0)" xlink:href="#ah"/><use transform="matrix(0.07407407407407406,0,0,0.07407407407407406,7.407407407407406,0)" xlink:href="#Q"/><use transform="matrix(0.07407407407407406,0,0,0.07407407407407406,14.814814814814811,0)" xlink:href="#ac"/><use transform="matrix(0.07407407407407406,0,0,0.07407407407407406,29.629629629629623,0)" xlink:href="#X"/></g><g id="w"><use transform="matrix(0.07407407407407406,0,0,0.07407407407407406,0,0)" xlink:href="#S"/><use transform="matrix(0.07407407407407406,0,0,0.07407407407407406,19.18518518518518,0)" xlink:href="#T"/><use transform="matrix(0.07407407407407406,0,0,0.07407407407407406,35.4074074074074,0)" xlink:href="#T"/></g><g id="x"><use transform="matrix(0.07407407407407406,0,0,0.07407407407407406,0,0)" xlink:href="#S"/><use transform="matrix(0.07407407407407406,0,0,0.07407407407407406,19.18518518518518,0)" xlink:href="#ab"/><use transform="matrix(0.07407407407407406,0,0,0.07407407407407406,35.4074074074074,0)" xlink:href="#ab"/><use transform="matrix(0.07407407407407406,0,0,0.07407407407407406,51.62962962962962,0)" xlink:href="#O"/><use transform="matrix(0.07407407407407406,0,0,0.07407407407407406,67.85185185185183,0)" xlink:href="#Q"/><use transform="matrix(0.07407407407407406,0,0,0.07407407407407406,75.25925925925924,0)" xlink:href="#R"/><use transform="matrix(0.07407407407407406,0,0,0.07407407407407406,91.48148148148145,0)" xlink:href="#X"/><use transform="matrix(0.07407407407407406,0,0,0.07407407407407406,100.29629629629626,0)" xlink:href="#U"/><use transform="matrix(0.07407407407407406,0,0,0.07407407407407406,123.99999999999996,0)" xlink:href="#aa"/><use transform="matrix(0.07407407407407406,0,0,0.07407407407407406,138.81481481481478,0)" xlink:href="#R"/><use transform="matrix(0.07407407407407406,0,0,0.07407407407407406,155.037037037037,0)" xlink:href="#X"/></g></defs></g></svg>