<svg xmlns="http://www.w3.org/2000/svg" xmlns:xlink="http://www.w3.org/1999/xlink" xmlns:lucid="lucid" width="1673.5" height="1143.5"><g transform="translate(960.5 -99.5)" lucid:page-tab-id="0_0"><path d="M-940 348a8 8 0 0 1 8-8h344a8 8 0 0 1 8 8v369a8 8 0 0 1-8 8h-344a8 8 0 0 1-8-8z" stroke="#333" fill="#cfe4ff"/><path d="M-940 382.93h360m-360 231.64h360" stroke="#333" fill="none"/><use xlink:href="#a" transform="matrix(1,0,0,1,-932,348) translate(135.9641975308642 17.988888888888887)"/><use xlink:href="#b" transform="matrix(1,0,0,1,-928,390.93333333333334) translate(132.10555555555555 27.111111111111114)"/><use xlink:href="#c" transform="matrix(1,0,0,1,-928,390.93333333333334) translate(144.4074074074074 27.111111111111114)"/><use xlink:href="#b" transform="matrix(1,0,0,1,-928,390.93333333333334) translate(90.0320987654321 51.37777777777778)"/><use xlink:href="#d" transform="matrix(1,0,0,1,-928,390.93333333333334) translate(102.33395061728395 51.37777777777778)"/><use xlink:href="#b" transform="matrix(1,0,0,1,-928,390.93333333333334) translate(132.16172839506174 75.64444444444445)"/><use xlink:href="#e" transform="matrix(1,0,0,1,-928,390.93333333333334) translate(144.46358024691358 75.64444444444445)"/><use xlink:href="#b" transform="matrix(1,0,0,1,-928,390.93333333333334) translate(111.3496913580247 99.91111111111111)"/><use xlink:href="#f" transform="matrix(1,0,0,1,-928,390.93333333333334) translate(123.65154320987655 99.91111111111111)"/><use xlink:href="#b" transform="matrix(1,0,0,1,-928,390.93333333333334) translate(118.65216049382715 124.17777777777778)"/><use xlink:href="#g" transform="matrix(1,0,0,1,-928,390.93333333333334) translate(130.95401234567902 124.17777777777778)"/><use xlink:href="#b" transform="matrix(1,0,0,1,-928,390.93333333333334) translate(125.92654320987654 148.44444444444443)"/><use xlink:href="#h" transform="matrix(1,0,0,1,-928,390.93333333333334) translate(138.2283950617284 148.44444444444443)"/><use xlink:href="#b" transform="matrix(1,0,0,1,-928,390.93333333333334) translate(137.779012345679 172.7111111111111)"/><use xlink:href="#i" transform="matrix(1,0,0,1,-928,390.93333333333334) translate(150.08086419753084 172.7111111111111)"/><use xlink:href="#j" transform="matrix(1,0,0,1,-928,390.93333333333334) translate(168 196.9777777777778)"/><use xlink:href="#k" transform="matrix(1,0,0,1,-928,622.5666666666666) translate(131.31913580246913 27.27777777777778)"/><use xlink:href="#l" transform="matrix(1,0,0,1,-928,622.5666666666666) translate(148.7327160493827 27.27777777777778)"/><use xlink:href="#k" transform="matrix(1,0,0,1,-928,622.5666666666666) translate(98.65462962962962 51.544444444444444)"/><use xlink:href="#m" transform="matrix(1,0,0,1,-928,622.5666666666666) translate(116.06820987654321 51.544444444444444)"/><use xlink:href="#k" transform="matrix(1,0,0,1,-928,622.5666666666666) translate(108.31635802469135 75.8111111111111)"/><use xlink:href="#n" transform="matrix(1,0,0,1,-928,622.5666666666666) translate(125.72993827160494 75.8111111111111)"/><path d="M-329 723a8 8 0 0 1 8-8H23a8 8 0 0 1 8 8v381a8 8 0 0 1-8 8h-344a8 8 0 0 1-8-8z" stroke="#333" fill="#cfe4ff"/><path d="M-329 757.93H31M-329 959.3H31" stroke="#333" fill="none"/><use xlink:href="#o" transform="matrix(1,0,0,1,-320.99777405751996,723) translate(104.85370370370373 17.988888888888887)"/><use xlink:href="#b" transform="matrix(1,0,0,1,-316.99777405751996,765.9333333333333) translate(131.57191358024693 24.24444444444444)"/><use xlink:href="#p" transform="matrix(1,0,0,1,-316.99777405751996,765.9333333333333) translate(143.87376543209876 24.24444444444444)"/><use xlink:href="#b" transform="matrix(1,0,0,1,-316.99777405751996,765.9333333333333) translate(90.0320987654321 48.511111111111106)"/><use xlink:href="#d" transform="matrix(1,0,0,1,-316.99777405751996,765.9333333333333) translate(102.33395061728395 48.511111111111106)"/><use xlink:href="#b" transform="matrix(1,0,0,1,-316.99777405751996,765.9333333333333) translate(132.16172839506174 72.77777777777777)"/><use xlink:href="#e" transform="matrix(1,0,0,1,-316.99777405751996,765.9333333333333) translate(144.46358024691358 72.77777777777777)"/><use xlink:href="#b" transform="matrix(1,0,0,1,-316.99777405751996,765.9333333333333) translate(111.3496913580247 97.04444444444444)"/><use xlink:href="#f" transform="matrix(1,0,0,1,-316.99777405751996,765.9333333333333) translate(123.65154320987655 97.04444444444444)"/><use xlink:href="#b" transform="matrix(1,0,0,1,-316.99777405751996,765.9333333333333) translate(118.65216049382715 121.3111111111111)"/><use xlink:href="#g" transform="matrix(1,0,0,1,-316.99777405751996,765.9333333333333) translate(130.95401234567902 121.3111111111111)"/><use xlink:href="#b" transform="matrix(1,0,0,1,-316.99777405751996,765.9333333333333) translate(125.92654320987654 145.57777777777775)"/><use xlink:href="#h" transform="matrix(1,0,0,1,-316.99777405751996,765.9333333333333) translate(138.2283950617284 145.57777777777775)"/><use xlink:href="#b" transform="matrix(1,0,0,1,-316.99777405751996,765.9333333333333) translate(137.779012345679 169.84444444444443)"/><use xlink:href="#q" transform="matrix(1,0,0,1,-316.99777405751996,765.9333333333333) translate(150.08086419753084 169.84444444444443)"/><use xlink:href="#k" transform="matrix(1,0,0,1,-316.99777405751996,967.3) translate(131.31913580246913 24.011111111111113)"/><use xlink:href="#l" transform="matrix(1,0,0,1,-316.99777405751996,967.3) translate(148.7327160493827 24.011111111111113)"/><use xlink:href="#k" transform="matrix(1,0,0,1,-316.99777405751996,967.3) translate(108.31635802469135 48.27777777777778)"/><use xlink:href="#r" transform="matrix(1,0,0,1,-316.99777405751996,967.3) translate(125.72993827160494 48.27777777777778)"/><use xlink:href="#k" transform="matrix(1,0,0,1,-316.99777405751996,967.3) translate(74.58456790123458 72.54444444444445)"/><use xlink:href="#s" transform="matrix(1,0,0,1,-316.99777405751996,967.3) translate(91.99814814814816 72.54444444444445)"/><use xlink:href="#k" transform="matrix(1,0,0,1,-316.99777405751996,967.3) translate(75.1743827160494 96.8111111111111)"/><use xlink:href="#t" transform="matrix(1,0,0,1,-316.99777405751996,967.3) translate(92.58796296296298 96.8111111111111)"/><use xlink:href="#k" transform="matrix(1,0,0,1,-316.99777405751996,967.3) translate(63.939814814814824 121.07777777777778)"/><use xlink:href="#u" transform="matrix(1,0,0,1,-316.99777405751996,967.3) translate(81.3533950617284 121.07777777777778)"/><path d="M-320 128a8 8 0 0 1 8-8H32a8 8 0 0 1 8 8v369a8 8 0 0 1-8 8h-344a8 8 0 0 1-8-8z" stroke="#333" fill="#cfe4ff"/><path d="M-320 162.93H40M-320 370.3H40" stroke="#333" fill="none"/><use xlink:href="#v" transform="matrix(1,0,0,1,-312,128) translate(137.17993827160495 17.988888888888887)"/><use xlink:href="#b" transform="matrix(1,0,0,1,-308,170.93333333333334) translate(120.92716049382716 27.24444444444444)"/><use xlink:href="#w" transform="matrix(1,0,0,1,-308,170.93333333333334) translate(133.229012345679 27.24444444444444)"/><use xlink:href="#b" transform="matrix(1,0,0,1,-308,170.93333333333334) translate(90.0320987654321 51.511111111111106)"/><use xlink:href="#d" transform="matrix(1,0,0,1,-308,170.93333333333334) translate(102.33395061728395 51.511111111111106)"/><use xlink:href="#b" transform="matrix(1,0,0,1,-308,170.93333333333334) translate(132.16172839506174 75.77777777777777)"/><use xlink:href="#e" transform="matrix(1,0,0,1,-308,170.93333333333334) translate(144.46358024691358 75.77777777777777)"/><use xlink:href="#b" transform="matrix(1,0,0,1,-308,170.93333333333334) translate(111.3496913580247 100.04444444444444)"/><use xlink:href="#f" transform="matrix(1,0,0,1,-308,170.93333333333334) translate(123.65154320987655 100.04444444444444)"/><use xlink:href="#b" transform="matrix(1,0,0,1,-308,170.93333333333334) translate(118.65216049382715 124.3111111111111)"/><use xlink:href="#g" transform="matrix(1,0,0,1,-308,170.93333333333334) translate(130.95401234567902 124.3111111111111)"/><use xlink:href="#b" transform="matrix(1,0,0,1,-308,170.93333333333334) translate(125.92654320987654 148.57777777777775)"/><use xlink:href="#h" transform="matrix(1,0,0,1,-308,170.93333333333334) translate(138.2283950617284 148.57777777777775)"/><use xlink:href="#b" transform="matrix(1,0,0,1,-308,170.93333333333334) translate(137.779012345679 172.84444444444443)"/><use xlink:href="#q" transform="matrix(1,0,0,1,-308,170.93333333333334) translate(150.08086419753084 172.84444444444443)"/><use xlink:href="#k" transform="matrix(1,0,0,1,-308,378.3) translate(131.31913580246913 27.144444444444446)"/><use xlink:href="#l" transform="matrix(1,0,0,1,-308,378.3) translate(148.7327160493827 27.144444444444446)"/><use xlink:href="#k" transform="matrix(1,0,0,1,-308,378.3) translate(110.50709876543209 51.41111111111111)"/><use xlink:href="#x" transform="matrix(1,0,0,1,-308,378.3) translate(127.92067901234567 51.41111111111111)"/><use xlink:href="#k" transform="matrix(1,0,0,1,-308,378.3) translate(111.0969135802469 75.67777777777778)"/><use xlink:href="#y" transform="matrix(1,0,0,1,-308,378.3) translate(128.51049382716047 75.67777777777778)"/><use xlink:href="#k" transform="matrix(1,0,0,1,-308,378.3) translate(99.86234567901234 99.94444444444444)"/><use xlink:href="#z" transform="matrix(1,0,0,1,-308,378.3) translate(117.27592592592592 99.94444444444444)"/><path d="M240 495a8 8 0 0 1 8-8h344a8 8 0 0 1 8 8v186a8 8 0 0 1-8 8H248a8 8 0 0 1-8-8z" stroke="#333" fill="#cfe4ff"/><path d="M240 529.93h360m-360 92.95h360" stroke="#333" fill="none"/><g><use xlink:href="#A" transform="matrix(1,0,0,1,248,495) translate(103.04567901234569 17.988888888888887)"/></g><g><use xlink:href="#B" transform="matrix(1,0,0,1,252,537.9333333333333) translate(85.31358024691359 30.41111111111111)"/><use xlink:href="#C" transform="matrix(1,0,0,1,252,537.9333333333333) translate(93.9922839506173 54.67777777777778)"/></g><path d="M-760 868a8 8 0 0 1 8-8h344a8 8 0 0 1 8 8v269a8 8 0 0 1-8 8h-344a8 8 0 0 1-8-8z" stroke="#333" fill="#cfe4ff"/><path d="M-760 902.93h360m-360 183.1h360" stroke="#333" fill="none"/><g><use xlink:href="#D" transform="matrix(1,0,0,1,-752,868) translate(114.11203703703703 17.988888888888887)"/></g><g><use xlink:href="#E" transform="matrix(1,0,0,1,-748,910.9333333333333) translate(140.47530864197532 27.377777777777766)"/><use xlink:href="#F" transform="matrix(1,0,0,1,-748,910.9333333333333) translate(157.32716049382717 27.377777777777766)"/><use xlink:href="#E" transform="matrix(1,0,0,1,-748,910.9333333333333) translate(125.36481481481482 51.64444444444443)"/><use xlink:href="#G" transform="matrix(1,0,0,1,-748,910.9333333333333) translate(142.21666666666667 51.64444444444443)"/><use xlink:href="#E" transform="matrix(1,0,0,1,-748,910.9333333333333) translate(137.72283950617285 75.9111111111111)"/><use xlink:href="#H" transform="matrix(1,0,0,1,-748,910.9333333333333) translate(154.5746913580247 75.9111111111111)"/><use xlink:href="#E" transform="matrix(1,0,0,1,-748,910.9333333333333) translate(114.69197530864199 100.17777777777776)"/><use xlink:href="#I" transform="matrix(1,0,0,1,-748,910.9333333333333) translate(131.54382716049383 100.17777777777776)"/><use xlink:href="#E" transform="matrix(1,0,0,1,-748,910.9333333333333) translate(142.72222222222223 124.44444444444443)"/><use xlink:href="#J" transform="matrix(1,0,0,1,-748,910.9333333333333) translate(159.57407407407408 124.44444444444443)"/><use xlink:href="#E" transform="matrix(1,0,0,1,-748,910.9333333333333) translate(128.14537037037036 148.71111111111108)"/><use xlink:href="#K" transform="matrix(1,0,0,1,-748,910.9333333333333) translate(144.9972222222222 148.71111111111108)"/></g><path d="M260 832a8 8 0 0 1 8-8h344a8 8 0 0 1 8 8v272a8 8 0 0 1-8 8H268a8 8 0 0 1-8-8z" stroke="#333" fill="#dfe3e8"/><path d="M260 866.93h360m-360 183.1h360" stroke="#333" fill="none"/><g><use xlink:href="#L" transform="matrix(1,0,0,1,268,832) translate(107.69043209876544 17.988888888888887)"/><use xlink:href="#M" transform="matrix(1,0,0,1,268,832) translate(166.54475308641975 17.988888888888887)"/></g><g><use xlink:href="#b" transform="matrix(1,0,0,1,272,874.9333333333333) translate(90.0320987654321 27.377777777777766)"/><use xlink:href="#d" transform="matrix(1,0,0,1,272,874.9333333333333) translate(102.33395061728395 27.377777777777766)"/><use xlink:href="#b" transform="matrix(1,0,0,1,272,874.9333333333333) translate(132.16172839506174 51.64444444444443)"/><use xlink:href="#e" transform="matrix(1,0,0,1,272,874.9333333333333) translate(144.46358024691358 51.64444444444443)"/><use xlink:href="#b" transform="matrix(1,0,0,1,272,874.9333333333333) translate(141.0932098765432 75.9111111111111)"/><use xlink:href="#N" transform="matrix(1,0,0,1,272,874.9333333333333) translate(153.39506172839504 75.9111111111111)"/><use xlink:href="#b" transform="matrix(1,0,0,1,272,874.9333333333333) translate(127.63981481481483 100.17777777777776)"/><use xlink:href="#G" transform="matrix(1,0,0,1,272,874.9333333333333) translate(139.94166666666666 100.17777777777776)"/><use xlink:href="#b" transform="matrix(1,0,0,1,272,874.9333333333333) translate(125.92654320987654 124.44444444444443)"/><use xlink:href="#h" transform="matrix(1,0,0,1,272,874.9333333333333) translate(138.2283950617284 124.44444444444443)"/><use xlink:href="#b" transform="matrix(1,0,0,1,272,874.9333333333333) translate(137.779012345679 148.71111111111108)"/><use xlink:href="#q" transform="matrix(1,0,0,1,272,874.9333333333333) translate(150.08086419753084 148.71111111111108)"/></g><g><use xlink:href="#O" transform="matrix(1,0,0,1,272,1058.0333333333333) translate(141.26172839506174 27.044444444444444)"/></g><path d="M-576 791.5l2 .16 2 .47 1.88.78 1.74 1.08 1.55 1.32 1.33 1.56 1.06 1.74.78 1.88.48 2 .16 1.98v54.04h-2v-53.96l-.14-1.76-.4-1.68-.67-1.6-.9-1.46-1.12-1.32-1.3-1.12-1.48-.9-1.6-.66-1.67-.4-1.76-.14h-35.58v-2zm-182.46-7.6l.66 1.6.9 1.46 1.12 1.32 1.32 1.12 1.47.9 1.6.66 1.68.4 1.76.14h35.57v2h-35.64l-2-.16-1.98-.47-1.88-.78-1.74-1.08-1.56-1.32-1.32-1.56-1.07-1.74-.77-1.88-.47-2-.1-1.22h2l.08.92zm-.54-29.54h-2V726.5h2z" stroke="#333" stroke-width=".05" fill="#333"/><path d="M-759 726.53h-2v-1.03h2z" fill="#333"/><path d="M-758.98 726.55H-761v-1.07h2.04zm-2-1.02v.97h1.96v-.98z" stroke="#333" stroke-width=".05" fill="#333"/><path d="M-563.02 859.5h-2v-1.03h2z" fill="#333"/><path d="M-563 859.52h-2.05v-1.07h2.05zm-2-1.02v.98h1.95v-.98z" stroke="#333" stroke-width=".05" fill="#333"/><g><use xlink:href="#P" transform="matrix(1,0,0,1,-593.4864576821319,761.5666643445941) translate(0.004999999999999005 17.955555555555552)"/><use xlink:href="#Q" transform="matrix(1,0,0,1,-593.4864576821319,761.5666643445941) translate(18.708703703703698 17.955555555555552)"/></g><g><use xlink:href="#R" transform="matrix(1,0,0,1,-712.3873795426549,779.0333310112608) translate(0.005000000000002558 17.955555555555552)"/></g><g><use xlink:href="#P" transform="matrix(1,0,0,1,-779.9506172839506,754.3630740964182) translate(0.004999999999999005 17.955555555555552)"/><use xlink:href="#Q" transform="matrix(1,0,0,1,-779.9506172839506,754.3630740964182) translate(18.708703703703698 17.955555555555552)"/></g><path d="M-449 520.54l-.16 2-.47 1.98-.78 1.88-1.08 1.74-1.32 1.56-1.56 1.32-1.74 1.07-1.88.77-2 .47-1.98.16H-578.5v-2h116.46l1.76-.14 1.68-.4 1.6-.66 1.46-.9 1.32-1.12 1.12-1.32.9-1.47.66-1.6.4-1.68.14-1.76v-84.5h2zm127.5-207.04h-116.46l-1.76.14-1.68.4-1.6.66-1.46.9-1.32 1.12-1.12 1.32-.9 1.47-.66 1.6-.4 1.68-.14 1.76v84.5h-2v-84.58l.16-2 .47-1.98.78-1.88 1.08-1.74 1.32-1.56 1.56-1.32 1.74-1.07 1.88-.77 2-.47 1.98-.16h116.54z" stroke="#000" stroke-width=".05"/><path d="M-320.5 313.5h-1.03v-2h1.03z"/><path d="M-320.48 313.52h-1.07v-2.04h1.07zm-1.02-2v1.96h.98v-1.96z" stroke="#000" stroke-width=".05"/><path d="M-578.47 533.5h-1.03v-2h1.03z"/><path d="M-578.45 533.52h-1.07v-2.04h1.07zm-1.02-2v1.96h.97v-1.96z" stroke="#000" stroke-width=".05"/><g><use xlink:href="#S" transform="matrix(1,0,0,1,-492.3327160493827,409.03333333333336) translate(0.005000000000002558 17.955555555555552)"/></g><g><use xlink:href="#P" transform="matrix(1,0,0,1,-523.4568218206739,501.5666666666668) translate(0.004999999999999005 17.955555555555552)"/><use xlink:href="#Q" transform="matrix(1,0,0,1,-523.4568218206739,501.5666666666668) translate(18.708703703703698 17.955555555555552)"/></g><g><use xlink:href="#P" transform="matrix(1,0,0,1,-366.45002750442796,281.56666666666666) translate(0.004999999999999005 17.955555555555552)"/><use xlink:href="#Q" transform="matrix(1,0,0,1,-366.45002750442796,281.56666666666666) translate(18.708703703703698 17.955555555555552)"/></g><path d="M-139 713.5h-2v-90.03h2zm0-116.97h-2V506.5h2z" stroke="#333" stroke-width=".05" fill="#333"/><path d="M-139 506.53h-2v-1.03h2z" fill="#333"/><path d="M-138.97 506.55h-2.06v-1.07h2.06zm-2-1.03v.98h1.94v-.98z" stroke="#333" stroke-width=".05" fill="#333"/><path d="M-139 714.5h-2v-1.03h2z" fill="#333"/><path d="M-138.97 714.52h-2.06v-1.07h2.06zm-2-1.02v.98h1.94v-.98z" stroke="#333" stroke-width=".05" fill="#333"/><g><use xlink:href="#P" transform="matrix(1,0,0,1,-132,655.354806650809) translate(0.004999999999999005 17.955555555555552)"/><use xlink:href="#Q" transform="matrix(1,0,0,1,-132,655.354806650809) translate(18.708703703703698 17.955555555555552)"/></g><g><use xlink:href="#P" transform="matrix(1,0,0,1,-132,514.2772813293312) translate(0.004999999999999005 17.955555555555552)"/><use xlink:href="#Q" transform="matrix(1,0,0,1,-132,514.2772813293312) translate(18.708703703703698 17.955555555555552)"/></g><g><use xlink:href="#S" transform="matrix(1,0,0,1,-182.33271604938273,596.5333320255173) translate(0.005000000000002558 17.955555555555552)"/></g><path d="M136.5 775.44l-.16 2-.47 1.97-.78 1.9-1.08 1.74-1.32 1.55-1.56 1.32-1.74 1.06-1.88.78-1.98.48-2 .16H32.5v-2h90.96l1.76-.14 1.68-.4 1.6-.66 1.47-.9 1.3-1.13 1.13-1.3.9-1.48.66-1.6.4-1.68.14-1.76v-74.2h2zM208.75 589h-61.2l-1.77.14-1.68.4-1.6.66-1.46.9-1.3 1.12-1.14 1.32-.9 1.47-.66 1.6-.4 1.68-.14 1.76v74.2h-2v-74.28l.16-2 .47-1.98.78-1.88 1.08-1.74 1.33-1.56 1.56-1.32 1.74-1.07 1.88-.77 2-.47 1.98-.16h61.3z" stroke="#333" stroke-width=".05" fill="#333"/><path d="M32.53 788.4H31.5v-2h1.03z" fill="#333"/><path d="M32.55 788.42h-1.07v-2.05h1.07zm-1.02-2v1.95h.97v-1.95z" stroke="#333" stroke-width=".05" fill="#333"/><path d="M238.1 588l-14.86 14.85L208.1 588l15.14-14.85z" fill="#333"/><path d="M239.5 588l-16.26 16.26L206.66 588l16.58-16.26zm-30 0l13.73 13.44L236.67 588l-13.44-13.44z" stroke="#333" stroke-width=".05" fill="#333"/><g><use xlink:href="#T" transform="matrix(1,0,0,1,95.59986185438025,674.2318013343878) translate(0.005000000000002558 17.955555555555552)"/></g><g><use xlink:href="#P" transform="matrix(1,0,0,1,62.59786199753463,756.4636026687756) translate(0.004999999999999005 17.955555555555552)"/><use xlink:href="#Q" transform="matrix(1,0,0,1,62.59786199753463,756.4636026687756) translate(18.708703703703698 17.955555555555552)"/></g><g><use xlink:href="#P" transform="matrix(1,0,0,1,147.89853560439312,557.0666666666666) translate(0.004999999999999005 17.955555555555552)"/><use xlink:href="#Q" transform="matrix(1,0,0,1,147.89853560439312,557.0666666666666) translate(18.708703703703698 17.955555555555552)"/></g><path d="M421 717.54l-.16 2-.47 1.98-.78 1.88-1.08 1.74-1.32 1.56-1.56 1.32-1.74 1.07-1.88.77-2 .47-1.98.16h-226l-1.76.14-1.68.4-1.6.66-1.46.9-1.32 1.12-1.12 1.32-.9 1.47-.66 1.6-.4 1.68-.14 1.76v214.42l.14 1.76.4 1.68.66 1.6.9 1.46 1.12 1.32 1.32 1.12 1.47.9 1.6.66 1.68.4 1.76.14h52.98v2h-53.06l-2-.16-1.98-.47-1.88-.78-1.74-1.08-1.56-1.32-1.32-1.56-1.07-1.74-.77-1.88-.47-2-.16-1.98V741.46l.16-2 .47-1.98.78-1.88 1.08-1.74 1.33-1.56 1.56-1.32 1.74-1.07 1.88-.77 2-.47 1.98-.16h226l1.76-.14 1.68-.4 1.6-.66 1.46-.9 1.32-1.12 1.12-1.32.9-1.47.66-1.6.4-1.68.14-1.76V690.5h2z" stroke="#333" stroke-width=".05" fill="#333"/><path d="M421 690.53h-2v-1.03h2z" fill="#333"/><path d="M421.02 690.55h-2.04v-1.07h2.04zm-2-1.02v.97h1.96v-.98z" stroke="#333" stroke-width=".05" fill="#333"/><path d="M257.54 968l-21.52 12.73v-25.46z" fill="#fff"/><path d="M259.5 968l-24.48 14.48v-28.96zm-22.48 10.97L255.57 968l-18.55-10.97z" stroke="#333" stroke-width=".05" fill="#333"/><g><use xlink:href="#P" transform="matrix(1,0,0,1,178,933.0676400616387) translate(0.004999999999999005 17.955555555555552)"/><use xlink:href="#Q" transform="matrix(1,0,0,1,178,933.0676400616387) translate(18.708703703703698 17.955555555555552)"/></g><path d="M700.03 587.16l2 .47 1.87.78 1.74 1.08 1.56 1.32 1.32 1.56 1.07 1.74.77 1.88.47 2 .16 1.98v628.08l-.16 2-.47 1.98-.78 1.88-1.08 1.74-1.32 1.55-1.56 1.32-1.74 1.07-1.88.77-2 .47-1.98.16H-568.04l-2-.16-1.98-.47-1.88-.78-1.74-1.08-1.56-1.33-1.32-1.56-1.07-1.74-.77-1.88-.47-2-.16-1.98v-58.06h2v57.98l.14 1.76.4 1.68.66 1.6.9 1.46 1.12 1.32 1.32 1.12 1.47.9 1.6.66 1.68.4 1.76.14H697.96l1.76-.14 1.68-.4 1.6-.66 1.46-.9 1.32-1.12 1.12-1.32.9-1.47.66-1.6.4-1.68.14-1.76V600.04l-.14-1.76-.4-1.68-.66-1.6-.9-1.46-1.12-1.32-1.32-1.12-1.47-.9-1.6-.66-1.68-.4-1.76-.14H601.5v-2h96.54z" stroke="#333" stroke-width=".05" fill="#333"/><path d="M601.53 589h-1.03v-2h1.03z" fill="#333"/><path d="M601.55 589.02h-1.07V587h1.07zm-1.02-2V589h.97V587z" stroke="#333" stroke-width=".05" fill="#333"/><path d="M-567.27 1168.98h-25.46l12.73-21.52z" fill="#fff"/><path d="M-565.52 1169.98h-28.96l14.48-24.48zm-25.45-2h21.94l-10.97-18.55z" stroke="#333" stroke-width=".05" fill="#333"/><g><use xlink:href="#P" transform="matrix(1,0,0,1,-528.383901352011,1209.0666666666666) translate(0.004999999999999005 17.955555555555552)"/><use xlink:href="#Q" transform="matrix(1,0,0,1,-528.383901352011,1209.0666666666666) translate(18.708703703703698 17.955555555555552)"/></g><defs><path fill="#333" d="M24-248c120-7 223 5 221 122C244-46 201 0 124 0H24v-248zM76-40c74 7 117-18 117-86 0-67-45-88-117-82v168" id="U"/><path fill="#333" d="M110-194c64 0 96 36 96 99 0 64-35 99-97 99-61 0-95-36-95-99 0-62 34-99 96-99zm-1 164c35 0 45-28 45-65 0-40-10-65-43-65-34 0-45 26-45 65 0 36 10 65 43 65" id="V"/><path fill="#333" d="M190-63c-7 42-38 67-86 67-59 0-84-38-90-98-12-110 154-137 174-36l-49 2c-2-19-15-32-35-32-30 0-35 28-38 64-6 74 65 87 74 30" id="W"/><path fill="#333" d="M115-3C79 11 28 4 28-45v-112H4v-33h27l15-45h31v45h36v33H77v99c-1 23 16 31 38 25v30" id="X"/><path fill="#333" d="M135-150c-39-12-60 13-60 57V0H25l-1-190h47c2 13-1 29 3 40 6-28 27-53 61-41v41" id="Y"/><g id="a"><use transform="matrix(0.06234567901234567,0,0,0.06234567901234567,0,0)" xlink:href="#U"/><use transform="matrix(0.06234567901234567,0,0,0.06234567901234567,16.147530864197527,0)" xlink:href="#V"/><use transform="matrix(0.06234567901234567,0,0,0.06234567901234567,29.80123456790123,0)" xlink:href="#W"/><use transform="matrix(0.06234567901234567,0,0,0.06234567901234567,42.27037037037036,0)" xlink:href="#X"/><use transform="matrix(0.06234567901234567,0,0,0.06234567901234567,49.689506172839494,0)" xlink:href="#V"/><use transform="matrix(0.06234567901234567,0,0,0.06234567901234567,63.3432098765432,0)" xlink:href="#Y"/></g><path fill="#333" d="M16-82v-28h88v28H16" id="Z"/><use transform="matrix(0.056172839506172835,0,0,0.056172839506172835,0,0)" xlink:href="#Z" id="b"/><path fill="#333" d="M85-194c31 0 48 13 60 33l-1-100h32l1 261h-30c-2-10 0-23-3-31C134-8 116 4 85 4 32 4 16-35 15-94c0-66 23-100 70-100zm9 24c-40 0-46 34-46 75 0 40 6 74 45 74 42 0 51-32 51-76 0-42-9-74-50-73" id="aa"/><path fill="#333" d="M100-194c62-1 85 37 85 99 1 63-27 99-86 99S16-35 15-95c0-66 28-99 85-99zM99-20c44 1 53-31 53-75 0-43-8-75-51-75s-53 32-53 75 10 74 51 75" id="ab"/><path fill="#333" d="M96-169c-40 0-48 33-48 73s9 75 48 75c24 0 41-14 43-38l32 2c-6 37-31 61-74 61-59 0-76-41-82-99-10-93 101-131 147-64 4 7 5 14 7 22l-32 3c-4-21-16-35-41-35" id="ac"/><path fill="#333" d="M-5 72V49h209v23H-5" id="ad"/><path fill="#333" d="M24-231v-30h32v30H24zM24 0v-190h32V0H24" id="ae"/><g id="c"><use transform="matrix(0.056172839506172835,0,0,0.056172839506172835,0,0)" xlink:href="#aa"/><use transform="matrix(0.056172839506172835,0,0,0.056172839506172835,11.234567901234566,0)" xlink:href="#ab"/><use transform="matrix(0.056172839506172835,0,0,0.056172839506172835,22.469135802469133,0)" xlink:href="#ac"/><use transform="matrix(0.056172839506172835,0,0,0.056172839506172835,32.58024691358024,0)" xlink:href="#ad"/><use transform="matrix(0.056172839506172835,0,0,0.056172839506172835,43.81481481481481,0)" xlink:href="#ae"/><use transform="matrix(0.056172839506172835,0,0,0.056172839506172835,48.252469135802464,0)" xlink:href="#aa"/></g><path fill="#333" d="M210-169c-67 3-38 105-44 169h-31v-121c0-29-5-50-35-48C34-165 62-65 56 0H25l-1-190h30c1 10-1 24 2 32 10-44 99-50 107 0 11-21 27-35 58-36 85-2 47 119 55 194h-31v-121c0-29-5-49-35-48" id="af"/><path fill="#333" d="M115-194c55 1 70 41 70 98S169 2 115 4C84 4 66-9 55-30l1 105H24l-1-265h31l2 30c10-21 28-34 59-34zm-8 174c40 0 45-34 45-75s-6-73-45-74c-42 0-51 32-51 76 0 43 10 73 51 73" id="ag"/><path fill="#333" d="M24 0v-261h32V0H24" id="ah"/><path fill="#333" d="M100-194c63 0 86 42 84 106H49c0 40 14 67 53 68 26 1 43-12 49-29l28 8c-11 28-37 45-77 45C44 4 14-33 15-96c1-61 26-98 85-98zm52 81c6-60-76-77-97-28-3 7-6 17-6 28h103" id="ai"/><path fill="#333" d="M59-47c-2 24 18 29 38 22v24C64 9 27 4 27-40v-127H5v-23h24l9-43h21v43h35v23H59v120" id="aj"/><path fill="#333" d="M117-194c89-4 53 116 60 194h-32v-121c0-31-8-49-39-48C34-167 62-67 57 0H25l-1-190h30c1 10-1 24 2 32 11-22 29-35 61-36" id="ak"/><path fill="#333" d="M141-36C126-15 110 5 73 4 37 3 15-17 15-53c-1-64 63-63 125-63 3-35-9-54-41-54-24 1-41 7-42 31l-33-3c5-37 33-52 76-52 45 0 72 20 72 64v82c-1 20 7 32 28 27v20c-31 9-61-2-59-35zM48-53c0 20 12 33 32 33 41-3 63-29 60-74-43 2-92-5-92 41" id="al"/><g id="d"><use transform="matrix(0.056172839506172835,0,0,0.056172839506172835,0,0)" xlink:href="#ac"/><use transform="matrix(0.056172839506172835,0,0,0.056172839506172835,10.11111111111111,0)" xlink:href="#ab"/><use transform="matrix(0.056172839506172835,0,0,0.056172839506172835,21.345679012345677,0)" xlink:href="#af"/><use transform="matrix(0.056172839506172835,0,0,0.056172839506172835,38.14135802469136,0)" xlink:href="#ag"/><use transform="matrix(0.056172839506172835,0,0,0.056172839506172835,49.37592592592593,0)" xlink:href="#ah"/><use transform="matrix(0.056172839506172835,0,0,0.056172839506172835,53.81358024691358,0)" xlink:href="#ai"/><use transform="matrix(0.056172839506172835,0,0,0.056172839506172835,65.04814814814814,0)" xlink:href="#aj"/><use transform="matrix(0.056172839506172835,0,0,0.056172839506172835,70.66543209876542,0)" xlink:href="#ai"/><use transform="matrix(0.056172839506172835,0,0,0.056172839506172835,81.89999999999999,0)" xlink:href="#ad"/><use transform="matrix(0.056172839506172835,0,0,0.056172839506172835,93.13456790123456,0)" xlink:href="#ak"/><use transform="matrix(0.056172839506172835,0,0,0.056172839506172835,104.36913580246913,0)" xlink:href="#al"/><use transform="matrix(0.056172839506172835,0,0,0.056172839506172835,115.6037037037037,0)" xlink:href="#af"/><use transform="matrix(0.056172839506172835,0,0,0.056172839506172835,132.3993827160494,0)" xlink:href="#ai"/></g><path fill="#333" d="M115-194c53 0 69 39 70 98 0 66-23 100-70 100C84 3 66-7 56-30L54 0H23l1-261h32v101c10-23 28-34 59-34zm-8 174c40 0 45-34 45-75 0-40-5-75-45-74-42 0-51 32-51 76 0 43 10 73 51 73" id="am"/><g id="e"><use transform="matrix(0.056172839506172835,0,0,0.056172839506172835,0,0)" xlink:href="#af"/><use transform="matrix(0.056172839506172835,0,0,0.056172839506172835,16.795679012345676,0)" xlink:href="#ab"/><use transform="matrix(0.056172839506172835,0,0,0.056172839506172835,28.030246913580243,0)" xlink:href="#am"/><use transform="matrix(0.056172839506172835,0,0,0.056172839506172835,39.26481481481481,0)" xlink:href="#ae"/><use transform="matrix(0.056172839506172835,0,0,0.056172839506172835,43.70246913580247,0)" xlink:href="#ah"/><use transform="matrix(0.056172839506172835,0,0,0.056172839506172835,48.14012345679012,0)" xlink:href="#ai"/></g><path fill="#333" d="M84 4C-5 8 30-112 23-190h32v120c0 31 7 50 39 49 72-2 45-101 50-169h31l1 190h-30c-1-10 1-25-2-33-11 22-28 36-60 37" id="an"/><path fill="#333" d="M135-143c-3-34-86-38-87 0 15 53 115 12 119 90S17 21 10-45l28-5c4 36 97 45 98 0-10-56-113-15-118-90-4-57 82-63 122-42 12 7 21 19 24 35" id="ao"/><path fill="#333" d="M114-163C36-179 61-72 57 0H25l-1-190h30c1 12-1 29 2 39 6-27 23-49 58-41v29" id="ap"/><g id="f"><use transform="matrix(0.056172839506172835,0,0,0.056172839506172835,0,0)" xlink:href="#an"/><use transform="matrix(0.056172839506172835,0,0,0.056172839506172835,11.234567901234566,0)" xlink:href="#ao"/><use transform="matrix(0.056172839506172835,0,0,0.056172839506172835,21.345679012345677,0)" xlink:href="#ai"/><use transform="matrix(0.056172839506172835,0,0,0.056172839506172835,32.58024691358024,0)" xlink:href="#ap"/><use transform="matrix(0.056172839506172835,0,0,0.056172839506172835,39.264814814814805,0)" xlink:href="#ad"/><use transform="matrix(0.056172839506172835,0,0,0.056172839506172835,50.49938271604937,0)" xlink:href="#ak"/><use transform="matrix(0.056172839506172835,0,0,0.056172839506172835,61.73395061728393,0)" xlink:href="#al"/><use transform="matrix(0.056172839506172835,0,0,0.056172839506172835,72.96851851851851,0)" xlink:href="#af"/><use transform="matrix(0.056172839506172835,0,0,0.056172839506172835,89.76419753086418,0)" xlink:href="#ai"/></g><path fill="#333" d="M206 0h-36l-40-164L89 0H53L-1-190h32L70-26l43-164h34l41 164 42-164h31" id="aq"/><g id="g"><use transform="matrix(0.056172839506172835,0,0,0.056172839506172835,0,0)" xlink:href="#ag"/><use transform="matrix(0.056172839506172835,0,0,0.056172839506172835,11.234567901234566,0)" xlink:href="#al"/><use transform="matrix(0.056172839506172835,0,0,0.056172839506172835,22.469135802469133,0)" xlink:href="#ao"/><use transform="matrix(0.056172839506172835,0,0,0.056172839506172835,32.58024691358024,0)" xlink:href="#ao"/><use transform="matrix(0.056172839506172835,0,0,0.056172839506172835,42.691358024691354,0)" xlink:href="#aq"/><use transform="matrix(0.056172839506172835,0,0,0.056172839506172835,57.240123456790116,0)" xlink:href="#ab"/><use transform="matrix(0.056172839506172835,0,0,0.056172839506172835,68.47469135802469,0)" xlink:href="#ap"/><use transform="matrix(0.056172839506172835,0,0,0.056172839506172835,75.15925925925926,0)" xlink:href="#aa"/></g><g id="h"><use transform="matrix(0.056172839506172835,0,0,0.056172839506172835,0,0)" xlink:href="#al"/><use transform="matrix(0.056172839506172835,0,0,0.056172839506172835,11.234567901234566,0)" xlink:href="#aa"/><use transform="matrix(0.056172839506172835,0,0,0.056172839506172835,22.469135802469133,0)" xlink:href="#aa"/><use transform="matrix(0.056172839506172835,0,0,0.056172839506172835,33.703703703703695,0)" xlink:href="#ap"/><use transform="matrix(0.056172839506172835,0,0,0.056172839506172835,40.38827160493826,0)" xlink:href="#ai"/><use transform="matrix(0.056172839506172835,0,0,0.056172839506172835,51.622839506172824,0)" xlink:href="#ao"/><use transform="matrix(0.056172839506172835,0,0,0.056172839506172835,61.73395061728393,0)" xlink:href="#ao"/></g><g id="i"><use transform="matrix(0.056172839506172835,0,0,0.056172839506172835,0,0)" xlink:href="#ai"/><use transform="matrix(0.056172839506172835,0,0,0.056172839506172835,11.234567901234566,0)" xlink:href="#af"/><use transform="matrix(0.056172839506172835,0,0,0.056172839506172835,28.030246913580243,0)" xlink:href="#al"/><use transform="matrix(0.056172839506172835,0,0,0.056172839506172835,39.26481481481481,0)" xlink:href="#ae"/><use transform="matrix(0.056172839506172835,0,0,0.056172839506172835,43.70246913580247,0)" xlink:href="#ah"/></g><path fill="#333" d="M118-107v75H92v-75H18v-26h74v-75h26v75h74v26h-74" id="ar"/><use transform="matrix(0.056172839506172835,0,0,0.056172839506172835,0,0)" xlink:href="#ar" id="k"/><path fill="#333" d="M177-190C167-65 218 103 67 71c-23-6-38-20-44-43l32-5c15 47 100 32 89-28v-30C133-14 115 1 83 1 29 1 15-40 15-95c0-56 16-97 71-98 29-1 48 16 59 35 1-10 0-23 2-32h30zM94-22c36 0 50-32 50-73 0-42-14-75-50-75-39 0-46 34-46 75s6 73 46 73" id="as"/><path fill="#333" d="M87 75C49 33 22-17 22-94c0-76 28-126 65-167h31c-38 41-64 92-64 168S80 34 118 75H87" id="at"/><path fill="#333" d="M33-261c38 41 65 92 65 168S71 34 33 75H2C39 34 66-17 66-93S39-220 2-261h31" id="au"/><g id="l"><use transform="matrix(0.056172839506172835,0,0,0.056172839506172835,0,0)" xlink:href="#ah"/><use transform="matrix(0.056172839506172835,0,0,0.056172839506172835,4.4376543209876536,0)" xlink:href="#ab"/><use transform="matrix(0.056172839506172835,0,0,0.056172839506172835,15.67222222222222,0)" xlink:href="#as"/><use transform="matrix(0.056172839506172835,0,0,0.056172839506172835,26.906790123456787,0)" xlink:href="#ae"/><use transform="matrix(0.056172839506172835,0,0,0.056172839506172835,31.34444444444444,0)" xlink:href="#ak"/><use transform="matrix(0.056172839506172835,0,0,0.056172839506172835,42.579012345679004,0)" xlink:href="#at"/><use transform="matrix(0.056172839506172835,0,0,0.056172839506172835,49.26358024691357,0)" xlink:href="#au"/></g><g id="m"><use transform="matrix(0.056172839506172835,0,0,0.056172839506172835,0,0)" xlink:href="#aa"/><use transform="matrix(0.056172839506172835,0,0,0.056172839506172835,11.234567901234566,0)" xlink:href="#ae"/><use transform="matrix(0.056172839506172835,0,0,0.056172839506172835,15.67222222222222,0)" xlink:href="#al"/><use transform="matrix(0.056172839506172835,0,0,0.056172839506172835,26.906790123456787,0)" xlink:href="#as"/><use transform="matrix(0.056172839506172835,0,0,0.056172839506172835,38.14135802469136,0)" xlink:href="#ak"/><use transform="matrix(0.056172839506172835,0,0,0.056172839506172835,49.37592592592593,0)" xlink:href="#ab"/><use transform="matrix(0.056172839506172835,0,0,0.056172839506172835,60.610493827160504,0)" xlink:href="#ao"/><use transform="matrix(0.056172839506172835,0,0,0.056172839506172835,70.72160493827161,0)" xlink:href="#ai"/><use transform="matrix(0.056172839506172835,0,0,0.056172839506172835,81.95617283950618,0)" xlink:href="#ad"/><use transform="matrix(0.056172839506172835,0,0,0.056172839506172835,93.19074074074075,0)" xlink:href="#ag"/><use transform="matrix(0.056172839506172835,0,0,0.056172839506172835,104.42530864197532,0)" xlink:href="#ai"/><use transform="matrix(0.056172839506172835,0,0,0.056172839506172835,115.65987654320989,0)" xlink:href="#aj"/></g><path fill="#333" d="M108 0H70L1-190h34L89-25l56-165h34" id="av"/><g id="n"><use transform="matrix(0.056172839506172835,0,0,0.056172839506172835,0,0)" xlink:href="#av"/><use transform="matrix(0.056172839506172835,0,0,0.056172839506172835,10.11111111111111,0)" xlink:href="#ae"/><use transform="matrix(0.056172839506172835,0,0,0.056172839506172835,14.548765432098763,0)" xlink:href="#ai"/><use transform="matrix(0.056172839506172835,0,0,0.056172839506172835,25.78333333333333,0)" xlink:href="#aq"/><use transform="matrix(0.056172839506172835,0,0,0.056172839506172835,40.33209876543209,0)" xlink:href="#ad"/><use transform="matrix(0.056172839506172835,0,0,0.056172839506172835,51.56666666666666,0)" xlink:href="#ah"/><use transform="matrix(0.056172839506172835,0,0,0.056172839506172835,56.00432098765432,0)" xlink:href="#ab"/><use transform="matrix(0.056172839506172835,0,0,0.056172839506172835,67.23888888888888,0)" xlink:href="#as"/><use transform="matrix(0.056172839506172835,0,0,0.056172839506172835,78.47345679012345,0)" xlink:href="#ao"/><use transform="matrix(0.056172839506172835,0,0,0.056172839506172835,88.58456790123456,0)" xlink:href="#at"/><use transform="matrix(0.056172839506172835,0,0,0.056172839506172835,95.26913580246914,0)" xlink:href="#au"/></g><path fill="#333" d="M240-174c0 40-23 61-54 70L253 0h-59l-57-94H76V0H24v-248c93 4 217-23 216 74zM76-134c48-2 112 12 112-38 0-48-66-32-112-35v73" id="aw"/><path fill="#333" d="M185-48c-13 30-37 53-82 52C43 2 14-33 14-96s30-98 90-98c62 0 83 45 84 108H66c0 31 8 55 39 56 18 0 30-7 34-22zm-45-69c5-46-57-63-70-21-2 6-4 13-4 21h74" id="ax"/><path fill="#333" d="M135-194c53 0 70 44 70 98 0 56-19 98-73 100-31 1-45-17-59-34 3 33 2 69 2 105H25l-1-265h48c2 10 0 23 3 31 11-24 29-35 60-35zM114-30c33 0 39-31 40-66 0-38-9-64-40-64-56 0-55 130 0 130" id="ay"/><path fill="#333" d="M25-224v-37h50v37H25zM25 0v-190h50V0H25" id="az"/><path fill="#333" d="M135-194c87-1 58 113 63 194h-50c-7-57 23-157-34-157-59 0-34 97-39 157H25l-1-190h47c2 12-1 28 3 38 12-26 28-41 61-42" id="aA"/><path fill="#333" d="M137-138c1-29-70-34-71-4 15 46 118 7 119 86 1 83-164 76-172 9l43-7c4 19 20 25 44 25 33 8 57-30 24-41C81-84 22-81 20-136c-2-80 154-74 161-7" id="aB"/><g id="o"><use transform="matrix(0.06234567901234567,0,0,0.06234567901234567,0,0)" xlink:href="#aw"/><use transform="matrix(0.06234567901234567,0,0,0.06234567901234567,16.147530864197527,0)" xlink:href="#ax"/><use transform="matrix(0.06234567901234567,0,0,0.06234567901234567,28.61666666666666,0)" xlink:href="#W"/><use transform="matrix(0.06234567901234567,0,0,0.06234567901234567,41.08580246913579,0)" xlink:href="#ax"/><use transform="matrix(0.06234567901234567,0,0,0.06234567901234567,53.554938271604925,0)" xlink:href="#ay"/><use transform="matrix(0.06234567901234567,0,0,0.06234567901234567,67.20864197530862,0)" xlink:href="#X"/><use transform="matrix(0.06234567901234567,0,0,0.06234567901234567,74.62777777777775,0)" xlink:href="#az"/><use transform="matrix(0.06234567901234567,0,0,0.06234567901234567,80.86234567901232,0)" xlink:href="#V"/><use transform="matrix(0.06234567901234567,0,0,0.06234567901234567,94.51604938271602,0)" xlink:href="#aA"/><use transform="matrix(0.06234567901234567,0,0,0.06234567901234567,108.16975308641972,0)" xlink:href="#az"/><use transform="matrix(0.06234567901234567,0,0,0.06234567901234567,114.40432098765429,0)" xlink:href="#aB"/><use transform="matrix(0.06234567901234567,0,0,0.06234567901234567,126.87345679012341,0)" xlink:href="#X"/></g><g id="p"><use transform="matrix(0.056172839506172835,0,0,0.056172839506172835,0,0)" xlink:href="#ap"/><use transform="matrix(0.056172839506172835,0,0,0.056172839506172835,6.684567901234567,0)" xlink:href="#ai"/><use transform="matrix(0.056172839506172835,0,0,0.056172839506172835,17.919135802469135,0)" xlink:href="#ac"/><use transform="matrix(0.056172839506172835,0,0,0.056172839506172835,28.030246913580246,0)" xlink:href="#aj"/><use transform="matrix(0.056172839506172835,0,0,0.056172839506172835,33.64753086419753,0)" xlink:href="#ad"/><use transform="matrix(0.056172839506172835,0,0,0.056172839506172835,44.88209876543209,0)" xlink:href="#ae"/><use transform="matrix(0.056172839506172835,0,0,0.056172839506172835,49.319753086419745,0)" xlink:href="#aa"/></g><g id="q"><use transform="matrix(0.056172839506172835,0,0,0.056172839506172835,0,0)" xlink:href="#ai"/><use transform="matrix(0.056172839506172835,0,0,0.056172839506172835,11.234567901234566,0)" xlink:href="#af"/><use transform="matrix(0.056172839506172835,0,0,0.056172839506172835,28.030246913580243,0)" xlink:href="#al"/><use transform="matrix(0.056172839506172835,0,0,0.056172839506172835,39.26481481481481,0)" xlink:href="#ae"/><use transform="matrix(0.056172839506172835,0,0,0.056172839506172835,43.70246913580247,0)" xlink:href="#ah"/></g><g id="r"><use transform="matrix(0.056172839506172835,0,0,0.056172839506172835,0,0)" xlink:href="#av"/><use transform="matrix(0.056172839506172835,0,0,0.056172839506172835,10.11111111111111,0)" xlink:href="#ae"/><use transform="matrix(0.056172839506172835,0,0,0.056172839506172835,14.548765432098763,0)" xlink:href="#ai"/><use transform="matrix(0.056172839506172835,0,0,0.056172839506172835,25.78333333333333,0)" xlink:href="#aq"/><use transform="matrix(0.056172839506172835,0,0,0.056172839506172835,40.33209876543209,0)" xlink:href="#ad"/><use transform="matrix(0.056172839506172835,0,0,0.056172839506172835,51.56666666666666,0)" xlink:href="#ah"/><use transform="matrix(0.056172839506172835,0,0,0.056172839506172835,56.00432098765432,0)" xlink:href="#ab"/><use transform="matrix(0.056172839506172835,0,0,0.056172839506172835,67.23888888888888,0)" xlink:href="#as"/><use transform="matrix(0.056172839506172835,0,0,0.056172839506172835,78.47345679012345,0)" xlink:href="#ao"/><use transform="matrix(0.056172839506172835,0,0,0.056172839506172835,88.58456790123456,0)" xlink:href="#at"/><use transform="matrix(0.056172839506172835,0,0,0.056172839506172835,95.26913580246914,0)" xlink:href="#au"/></g><g id="s"><use transform="matrix(0.056172839506172835,0,0,0.056172839506172835,0,0)" xlink:href="#al"/><use transform="matrix(0.056172839506172835,0,0,0.056172839506172835,11.234567901234566,0)" xlink:href="#aa"/><use transform="matrix(0.056172839506172835,0,0,0.056172839506172835,22.469135802469133,0)" xlink:href="#aa"/><use transform="matrix(0.056172839506172835,0,0,0.056172839506172835,33.703703703703695,0)" xlink:href="#ad"/><use transform="matrix(0.056172839506172835,0,0,0.056172839506172835,44.938271604938265,0)" xlink:href="#al"/><use transform="matrix(0.056172839506172835,0,0,0.056172839506172835,56.172839506172835,0)" xlink:href="#ag"/><use transform="matrix(0.056172839506172835,0,0,0.056172839506172835,67.4074074074074,0)" xlink:href="#ag"/><use transform="matrix(0.056172839506172835,0,0,0.056172839506172835,78.64197530864197,0)" xlink:href="#ab"/><use transform="matrix(0.056172839506172835,0,0,0.056172839506172835,89.87654320987654,0)" xlink:href="#ae"/><use transform="matrix(0.056172839506172835,0,0,0.056172839506172835,94.31419753086419,0)" xlink:href="#ak"/><use transform="matrix(0.056172839506172835,0,0,0.056172839506172835,105.54876543209876,0)" xlink:href="#aj"/><use transform="matrix(0.056172839506172835,0,0,0.056172839506172835,111.16604938271604,0)" xlink:href="#af"/><use transform="matrix(0.056172839506172835,0,0,0.056172839506172835,127.96172839506171,0)" xlink:href="#ai"/><use transform="matrix(0.056172839506172835,0,0,0.056172839506172835,139.19629629629628,0)" xlink:href="#ak"/><use transform="matrix(0.056172839506172835,0,0,0.056172839506172835,150.43086419753084,0)" xlink:href="#aj"/><use transform="matrix(0.056172839506172835,0,0,0.056172839506172835,156.04814814814813,0)" xlink:href="#at"/><use transform="matrix(0.056172839506172835,0,0,0.056172839506172835,162.7327160493827,0)" xlink:href="#au"/></g><g id="t"><use transform="matrix(0.056172839506172835,0,0,0.056172839506172835,0,0)" xlink:href="#ai"/><use transform="matrix(0.056172839506172835,0,0,0.056172839506172835,11.234567901234566,0)" xlink:href="#aa"/><use transform="matrix(0.056172839506172835,0,0,0.056172839506172835,22.469135802469133,0)" xlink:href="#ae"/><use transform="matrix(0.056172839506172835,0,0,0.056172839506172835,26.906790123456787,0)" xlink:href="#aj"/><use transform="matrix(0.056172839506172835,0,0,0.056172839506172835,32.52407407407407,0)" xlink:href="#ad"/><use transform="matrix(0.056172839506172835,0,0,0.056172839506172835,43.758641975308635,0)" xlink:href="#al"/><use transform="matrix(0.056172839506172835,0,0,0.056172839506172835,54.993209876543204,0)" xlink:href="#ag"/><use transform="matrix(0.056172839506172835,0,0,0.056172839506172835,66.22777777777777,0)" xlink:href="#ag"/><use transform="matrix(0.056172839506172835,0,0,0.056172839506172835,77.46234567901234,0)" xlink:href="#ab"/><use transform="matrix(0.056172839506172835,0,0,0.056172839506172835,88.69691358024691,0)" xlink:href="#ae"/><use transform="matrix(0.056172839506172835,0,0,0.056172839506172835,93.13456790123456,0)" xlink:href="#ak"/><use transform="matrix(0.056172839506172835,0,0,0.056172839506172835,104.36913580246913,0)" xlink:href="#aj"/><use transform="matrix(0.056172839506172835,0,0,0.056172839506172835,109.98641975308641,0)" xlink:href="#af"/><use transform="matrix(0.056172839506172835,0,0,0.056172839506172835,126.78209876543208,0)" xlink:href="#ai"/><use transform="matrix(0.056172839506172835,0,0,0.056172839506172835,138.01666666666665,0)" xlink:href="#ak"/><use transform="matrix(0.056172839506172835,0,0,0.056172839506172835,149.2512345679012,0)" xlink:href="#aj"/><use transform="matrix(0.056172839506172835,0,0,0.056172839506172835,154.8685185185185,0)" xlink:href="#at"/><use transform="matrix(0.056172839506172835,0,0,0.056172839506172835,161.55308641975307,0)" xlink:href="#au"/></g><g id="u"><use transform="matrix(0.056172839506172835,0,0,0.056172839506172835,0,0)" xlink:href="#aa"/><use transform="matrix(0.056172839506172835,0,0,0.056172839506172835,11.234567901234566,0)" xlink:href="#ai"/><use transform="matrix(0.056172839506172835,0,0,0.056172839506172835,22.469135802469133,0)" xlink:href="#ah"/><use transform="matrix(0.056172839506172835,0,0,0.056172839506172835,26.906790123456787,0)" xlink:href="#ai"/><use transform="matrix(0.056172839506172835,0,0,0.056172839506172835,38.14135802469136,0)" xlink:href="#aj"/><use transform="matrix(0.056172839506172835,0,0,0.056172839506172835,43.75864197530864,0)" xlink:href="#ai"/><use transform="matrix(0.056172839506172835,0,0,0.056172839506172835,54.993209876543204,0)" xlink:href="#ad"/><use transform="matrix(0.056172839506172835,0,0,0.056172839506172835,66.22777777777777,0)" xlink:href="#al"/><use transform="matrix(0.056172839506172835,0,0,0.056172839506172835,77.46234567901234,0)" xlink:href="#ag"/><use transform="matrix(0.056172839506172835,0,0,0.056172839506172835,88.69691358024691,0)" xlink:href="#ag"/><use transform="matrix(0.056172839506172835,0,0,0.056172839506172835,99.93148148148148,0)" xlink:href="#ab"/><use transform="matrix(0.056172839506172835,0,0,0.056172839506172835,111.16604938271605,0)" xlink:href="#ae"/><use transform="matrix(0.056172839506172835,0,0,0.056172839506172835,115.6037037037037,0)" xlink:href="#ak"/><use transform="matrix(0.056172839506172835,0,0,0.056172839506172835,126.83827160493826,0)" xlink:href="#aj"/><use transform="matrix(0.056172839506172835,0,0,0.056172839506172835,132.45555555555555,0)" xlink:href="#af"/><use transform="matrix(0.056172839506172835,0,0,0.056172839506172835,149.25123456790124,0)" xlink:href="#ai"/><use transform="matrix(0.056172839506172835,0,0,0.056172839506172835,160.4858024691358,0)" xlink:href="#ak"/><use transform="matrix(0.056172839506172835,0,0,0.056172839506172835,171.72037037037035,0)" xlink:href="#aj"/><use transform="matrix(0.056172839506172835,0,0,0.056172839506172835,177.33765432098764,0)" xlink:href="#at"/><use transform="matrix(0.056172839506172835,0,0,0.056172839506172835,184.0222222222222,0)" xlink:href="#au"/></g><path fill="#333" d="M199 0l-22-63H83L61 0H9l90-248h61L250 0h-51zm-33-102l-36-108c-10 38-24 72-36 108h72" id="aC"/><path fill="#333" d="M88-194c31-1 46 15 58 34l-1-101h50l1 261h-48c-2-10 0-23-3-31C134-8 116 4 84 4 32 4 16-41 15-95c0-56 19-97 73-99zm17 164c33 0 40-30 41-66 1-37-9-64-41-64s-38 30-39 65c0 43 13 65 39 65" id="aD"/><path fill="#333" d="M220-157c-53 9-28 100-34 157h-49v-107c1-27-5-49-29-50C55-147 81-57 75 0H25l-1-190h47c2 12-1 28 3 38 10-53 101-56 108 0 13-22 24-43 59-42 82 1 51 116 57 194h-49v-107c-1-25-5-48-29-50" id="aE"/><g id="v"><use transform="matrix(0.06234567901234567,0,0,0.06234567901234567,0,0)" xlink:href="#aC"/><use transform="matrix(0.06234567901234567,0,0,0.06234567901234567,16.147530864197527,0)" xlink:href="#aD"/><use transform="matrix(0.06234567901234567,0,0,0.06234567901234567,29.80123456790123,0)" xlink:href="#aE"/><use transform="matrix(0.06234567901234567,0,0,0.06234567901234567,49.75185185185184,0)" xlink:href="#az"/><use transform="matrix(0.06234567901234567,0,0,0.06234567901234567,55.98641975308641,0)" xlink:href="#aA"/></g><g id="w"><use transform="matrix(0.056172839506172835,0,0,0.056172839506172835,0,0)" xlink:href="#al"/><use transform="matrix(0.056172839506172835,0,0,0.056172839506172835,11.234567901234566,0)" xlink:href="#aa"/><use transform="matrix(0.056172839506172835,0,0,0.056172839506172835,22.469135802469133,0)" xlink:href="#af"/><use transform="matrix(0.056172839506172835,0,0,0.056172839506172835,39.26481481481481,0)" xlink:href="#ae"/><use transform="matrix(0.056172839506172835,0,0,0.056172839506172835,43.70246913580247,0)" xlink:href="#ak"/><use transform="matrix(0.056172839506172835,0,0,0.056172839506172835,54.93703703703703,0)" xlink:href="#ad"/><use transform="matrix(0.056172839506172835,0,0,0.056172839506172835,66.1716049382716,0)" xlink:href="#ae"/><use transform="matrix(0.056172839506172835,0,0,0.056172839506172835,70.60925925925925,0)" xlink:href="#aa"/></g><g id="x"><use transform="matrix(0.056172839506172835,0,0,0.056172839506172835,0,0)" xlink:href="#al"/><use transform="matrix(0.056172839506172835,0,0,0.056172839506172835,11.234567901234566,0)" xlink:href="#aa"/><use transform="matrix(0.056172839506172835,0,0,0.056172839506172835,22.469135802469133,0)" xlink:href="#aa"/><use transform="matrix(0.056172839506172835,0,0,0.056172839506172835,33.703703703703695,0)" xlink:href="#ad"/><use transform="matrix(0.056172839506172835,0,0,0.056172839506172835,44.938271604938265,0)" xlink:href="#an"/><use transform="matrix(0.056172839506172835,0,0,0.056172839506172835,56.172839506172835,0)" xlink:href="#ao"/><use transform="matrix(0.056172839506172835,0,0,0.056172839506172835,66.28395061728395,0)" xlink:href="#ai"/><use transform="matrix(0.056172839506172835,0,0,0.056172839506172835,77.51851851851852,0)" xlink:href="#ap"/><use transform="matrix(0.056172839506172835,0,0,0.056172839506172835,84.20308641975309,0)" xlink:href="#at"/><use transform="matrix(0.056172839506172835,0,0,0.056172839506172835,90.88765432098766,0)" xlink:href="#au"/></g><g id="y"><use transform="matrix(0.056172839506172835,0,0,0.056172839506172835,0,0)" xlink:href="#ai"/><use transform="matrix(0.056172839506172835,0,0,0.056172839506172835,11.234567901234566,0)" xlink:href="#aa"/><use transform="matrix(0.056172839506172835,0,0,0.056172839506172835,22.469135802469133,0)" xlink:href="#ae"/><use transform="matrix(0.056172839506172835,0,0,0.056172839506172835,26.906790123456787,0)" xlink:href="#aj"/><use transform="matrix(0.056172839506172835,0,0,0.056172839506172835,32.52407407407407,0)" xlink:href="#ad"/><use transform="matrix(0.056172839506172835,0,0,0.056172839506172835,43.758641975308635,0)" xlink:href="#an"/><use transform="matrix(0.056172839506172835,0,0,0.056172839506172835,54.993209876543204,0)" xlink:href="#ao"/><use transform="matrix(0.056172839506172835,0,0,0.056172839506172835,65.10432098765432,0)" xlink:href="#ai"/><use transform="matrix(0.056172839506172835,0,0,0.056172839506172835,76.33888888888889,0)" xlink:href="#ap"/><use transform="matrix(0.056172839506172835,0,0,0.056172839506172835,83.02345679012346,0)" xlink:href="#at"/><use transform="matrix(0.056172839506172835,0,0,0.056172839506172835,89.70802469135803,0)" xlink:href="#au"/></g><g id="z"><use transform="matrix(0.056172839506172835,0,0,0.056172839506172835,0,0)" xlink:href="#aa"/><use transform="matrix(0.056172839506172835,0,0,0.056172839506172835,11.234567901234566,0)" xlink:href="#ai"/><use transform="matrix(0.056172839506172835,0,0,0.056172839506172835,22.469135802469133,0)" xlink:href="#ah"/><use transform="matrix(0.056172839506172835,0,0,0.056172839506172835,26.906790123456787,0)" xlink:href="#ai"/><use transform="matrix(0.056172839506172835,0,0,0.056172839506172835,38.14135802469136,0)" xlink:href="#aj"/><use transform="matrix(0.056172839506172835,0,0,0.056172839506172835,43.75864197530864,0)" xlink:href="#ai"/><use transform="matrix(0.056172839506172835,0,0,0.056172839506172835,54.993209876543204,0)" xlink:href="#ad"/><use transform="matrix(0.056172839506172835,0,0,0.056172839506172835,66.22777777777777,0)" xlink:href="#an"/><use transform="matrix(0.056172839506172835,0,0,0.056172839506172835,77.46234567901234,0)" xlink:href="#ao"/><use transform="matrix(0.056172839506172835,0,0,0.056172839506172835,87.57345679012346,0)" xlink:href="#ai"/><use transform="matrix(0.056172839506172835,0,0,0.056172839506172835,98.80802469135803,0)" xlink:href="#ap"/><use transform="matrix(0.056172839506172835,0,0,0.056172839506172835,105.4925925925926,0)" xlink:href="#at"/><use transform="matrix(0.056172839506172835,0,0,0.056172839506172835,112.17716049382717,0)" xlink:href="#au"/></g><g id="A"><use transform="matrix(0.06234567901234567,0,0,0.06234567901234567,0,0)" xlink:href="#aC"/><use transform="matrix(0.06234567901234567,0,0,0.06234567901234567,16.147530864197527,0)" xlink:href="#ay"/><use transform="matrix(0.06234567901234567,0,0,0.06234567901234567,29.80123456790123,0)" xlink:href="#ay"/><use transform="matrix(0.06234567901234567,0,0,0.06234567901234567,43.45493827160493,0)" xlink:href="#V"/><use transform="matrix(0.06234567901234567,0,0,0.06234567901234567,57.10864197530863,0)" xlink:href="#az"/><use transform="matrix(0.06234567901234567,0,0,0.06234567901234567,63.3432098765432,0)" xlink:href="#aA"/><use transform="matrix(0.06234567901234567,0,0,0.06234567901234567,76.9969135802469,0)" xlink:href="#X"/><use transform="matrix(0.06234567901234567,0,0,0.06234567901234567,84.41604938271603,0)" xlink:href="#aE"/><use transform="matrix(0.06234567901234567,0,0,0.06234567901234567,104.36666666666665,0)" xlink:href="#ax"/><use transform="matrix(0.06234567901234567,0,0,0.06234567901234567,116.83580246913579,0)" xlink:href="#aA"/><use transform="matrix(0.06234567901234567,0,0,0.06234567901234567,130.4895061728395,0)" xlink:href="#X"/></g><path fill="#333" d="M30-248c87 1 191-15 191 75 0 78-77 80-158 76V0H30v-248zm33 125c57 0 124 11 124-50 0-59-68-47-124-48v98" id="aF"/><path fill="#333" d="M47-170H22l-4-78h33" id="aG"/><path fill="#333" d="M140-251c81 0 123 46 123 126C263-46 219 4 140 4 59 4 17-45 17-125s42-126 123-126zm0 227c63 0 89-41 89-101s-29-99-89-99c-61 0-89 39-89 99S79-25 140-24" id="aH"/><path fill="#333" d="M101-234c-31-9-42 10-38 44h38v23H63V0H32v-167H5v-23h27c-7-52 17-82 69-68v24" id="aI"/><g id="B"><use transform="matrix(0.056172839506172835,0,0,0.056172839506172835,0,0)" xlink:href="#Z"/><use transform="matrix(0.056172839506172835,0,0,0.056172839506172835,6.684567901234567,0)" xlink:href="#aF"/><use transform="matrix(0.056172839506172835,0,0,0.056172839506172835,20.166049382716047,0)" xlink:href="#ai"/><use transform="matrix(0.056172839506172835,0,0,0.056172839506172835,31.400617283950616,0)" xlink:href="#aj"/><use transform="matrix(0.056172839506172835,0,0,0.056172839506172835,37.017901234567894,0)" xlink:href="#aG"/><use transform="matrix(0.056172839506172835,0,0,0.056172839506172835,40.837654320987646,0)" xlink:href="#ao"/><use transform="matrix(0.056172839506172835,0,0,0.056172839506172835,50.94876543209875,0)" xlink:href="#ad"/><use transform="matrix(0.056172839506172835,0,0,0.056172839506172835,62.18333333333333,0)" xlink:href="#aH"/><use transform="matrix(0.056172839506172835,0,0,0.056172839506172835,77.91172839506171,0)" xlink:href="#aq"/><use transform="matrix(0.056172839506172835,0,0,0.056172839506172835,92.46049382716048,0)" xlink:href="#ak"/><use transform="matrix(0.056172839506172835,0,0,0.056172839506172835,103.69506172839505,0)" xlink:href="#ai"/><use transform="matrix(0.056172839506172835,0,0,0.056172839506172835,114.92962962962962,0)" xlink:href="#ap"/><use transform="matrix(0.056172839506172835,0,0,0.056172839506172835,121.61419753086419,0)" xlink:href="#ad"/><use transform="matrix(0.056172839506172835,0,0,0.056172839506172835,132.84876543209876,0)" xlink:href="#ae"/><use transform="matrix(0.056172839506172835,0,0,0.056172839506172835,137.28641975308642,0)" xlink:href="#ak"/><use transform="matrix(0.056172839506172835,0,0,0.056172839506172835,148.52098765432098,0)" xlink:href="#aI"/><use transform="matrix(0.056172839506172835,0,0,0.056172839506172835,154.13827160493827,0)" xlink:href="#ab"/></g><path fill="#333" d="M0 4l72-265h28L28 4H0" id="aJ"/><path fill="#333" d="M205 0l-28-72H64L36 0H1l101-248h38L239 0h-34zm-38-99l-47-123c-12 45-31 82-46 123h93" id="aK"/><g id="C"><use transform="matrix(0.056172839506172835,0,0,0.056172839506172835,0,0)" xlink:href="#Z"/><use transform="matrix(0.056172839506172835,0,0,0.056172839506172835,6.684567901234567,0)" xlink:href="#aF"/><use transform="matrix(0.056172839506172835,0,0,0.056172839506172835,20.166049382716047,0)" xlink:href="#ai"/><use transform="matrix(0.056172839506172835,0,0,0.056172839506172835,31.400617283950616,0)" xlink:href="#aj"/><use transform="matrix(0.056172839506172835,0,0,0.056172839506172835,37.017901234567894,0)" xlink:href="#aJ"/><use transform="matrix(0.056172839506172835,0,0,0.056172839506172835,42.63518518518518,0)" xlink:href="#aK"/><use transform="matrix(0.056172839506172835,0,0,0.056172839506172835,56.11666666666666,0)" xlink:href="#ak"/><use transform="matrix(0.056172839506172835,0,0,0.056172839506172835,67.35123456790123,0)" xlink:href="#ae"/><use transform="matrix(0.056172839506172835,0,0,0.056172839506172835,71.78888888888888,0)" xlink:href="#af"/><use transform="matrix(0.056172839506172835,0,0,0.056172839506172835,88.58456790123455,0)" xlink:href="#al"/><use transform="matrix(0.056172839506172835,0,0,0.056172839506172835,99.81913580246912,0)" xlink:href="#ah"/><use transform="matrix(0.056172839506172835,0,0,0.056172839506172835,104.25679012345677,0)" xlink:href="#ad"/><use transform="matrix(0.056172839506172835,0,0,0.056172839506172835,115.49135802469135,0)" xlink:href="#ae"/><use transform="matrix(0.056172839506172835,0,0,0.056172839506172835,119.92901234567898,0)" xlink:href="#ak"/><use transform="matrix(0.056172839506172835,0,0,0.056172839506172835,131.16358024691354,0)" xlink:href="#aI"/><use transform="matrix(0.056172839506172835,0,0,0.056172839506172835,136.78086419753083,0)" xlink:href="#ab"/></g><path fill="#333" d="M24-248c93 1 206-16 204 79-1 75-69 88-152 82V0H24v-248zm52 121c47 0 100 7 100-41 0-47-54-39-100-39v80" id="aL"/><path fill="#333" d="M4 7l51-268h42L46 7H4" id="aM"/><path fill="#333" d="M133-34C117-15 103 5 69 4 32 3 11-16 11-54c-1-60 55-63 116-61 1-26-3-47-28-47-18 1-26 9-28 27l-52-2c7-38 36-58 82-57s74 22 75 68l1 82c-1 14 12 18 25 15v27c-30 8-71 5-69-32zm-48 3c29 0 43-24 42-57-32 0-66-3-65 30 0 17 8 27 23 27" id="aN"/><path fill="#333" d="M25 0v-261h50V0H25" id="aO"/><g id="D"><use transform="matrix(0.06234567901234567,0,0,0.06234567901234567,0,0)" xlink:href="#aL"/><use transform="matrix(0.06234567901234567,0,0,0.06234567901234567,14.96296296296296,0)" xlink:href="#ax"/><use transform="matrix(0.06234567901234567,0,0,0.06234567901234567,27.432098765432094,0)" xlink:href="#X"/><use transform="matrix(0.06234567901234567,0,0,0.06234567901234567,34.85123456790123,0)" xlink:href="#aM"/><use transform="matrix(0.06234567901234567,0,0,0.06234567901234567,41.0858024691358,0)" xlink:href="#aC"/><use transform="matrix(0.06234567901234567,0,0,0.06234567901234567,57.23333333333333,0)" xlink:href="#aA"/><use transform="matrix(0.06234567901234567,0,0,0.06234567901234567,70.88703703703703,0)" xlink:href="#az"/><use transform="matrix(0.06234567901234567,0,0,0.06234567901234567,77.1216049382716,0)" xlink:href="#aE"/><use transform="matrix(0.06234567901234567,0,0,0.06234567901234567,97.07222222222222,0)" xlink:href="#aN"/><use transform="matrix(0.06234567901234567,0,0,0.06234567901234567,109.54135802469136,0)" xlink:href="#aO"/></g><path fill="#333" d="M158-156l-14 65h45v19h-49L124 0h-19l15-72H56L41 0H22l15-72H2v-19h39l14-65H11v-19h48l15-71h20l-16 71h64l16-71h19l-16 71h37v19h-40zm-83 0L61-91h63l14-65H75" id="aP"/><use transform="matrix(0.056172839506172835,0,0,0.056172839506172835,0,0)" xlink:href="#aP" id="E"/><path fill="#333" d="M179-190L93 31C79 59 56 82 12 73V49c39 6 53-20 64-50L1-190h34L92-34l54-156h33" id="aQ"/><g id="F"><use transform="matrix(0.056172839506172835,0,0,0.056172839506172835,0,0)" xlink:href="#aj"/><use transform="matrix(0.056172839506172835,0,0,0.056172839506172835,5.617283950617283,0)" xlink:href="#aQ"/><use transform="matrix(0.056172839506172835,0,0,0.056172839506172835,15.728395061728394,0)" xlink:href="#ag"/><use transform="matrix(0.056172839506172835,0,0,0.056172839506172835,26.962962962962962,0)" xlink:href="#ai"/></g><g id="G"><use transform="matrix(0.056172839506172835,0,0,0.056172839506172835,0,0)" xlink:href="#aH"/><use transform="matrix(0.056172839506172835,0,0,0.056172839506172835,15.728395061728394,0)" xlink:href="#aq"/><use transform="matrix(0.056172839506172835,0,0,0.056172839506172835,30.277160493827157,0)" xlink:href="#ak"/><use transform="matrix(0.056172839506172835,0,0,0.056172839506172835,41.51172839506172,0)" xlink:href="#ad"/><use transform="matrix(0.056172839506172835,0,0,0.056172839506172835,52.74629629629629,0)" xlink:href="#ae"/><use transform="matrix(0.056172839506172835,0,0,0.056172839506172835,57.18395061728395,0)" xlink:href="#aa"/></g><g id="H"><use transform="matrix(0.056172839506172835,0,0,0.056172839506172835,0,0)" xlink:href="#ac"/><use transform="matrix(0.056172839506172835,0,0,0.056172839506172835,10.11111111111111,0)" xlink:href="#ab"/><use transform="matrix(0.056172839506172835,0,0,0.056172839506172835,21.345679012345677,0)" xlink:href="#ah"/><use transform="matrix(0.056172839506172835,0,0,0.056172839506172835,25.78333333333333,0)" xlink:href="#ab"/><use transform="matrix(0.056172839506172835,0,0,0.056172839506172835,37.0179012345679,0)" xlink:href="#ap"/></g><path fill="#333" d="M106-169C34-169 62-67 57 0H25v-261h32l-1 103c12-21 28-36 61-36 89 0 53 116 60 194h-32v-121c2-32-8-49-39-48" id="aR"/><g id="I"><use transform="matrix(0.056172839506172835,0,0,0.056172839506172835,0,0)" xlink:href="#am"/><use transform="matrix(0.056172839506172835,0,0,0.056172839506172835,11.234567901234566,0)" xlink:href="#ae"/><use transform="matrix(0.056172839506172835,0,0,0.056172839506172835,15.67222222222222,0)" xlink:href="#ap"/><use transform="matrix(0.056172839506172835,0,0,0.056172839506172835,22.35679012345679,0)" xlink:href="#aj"/><use transform="matrix(0.056172839506172835,0,0,0.056172839506172835,27.974074074074075,0)" xlink:href="#aR"/><use transform="matrix(0.056172839506172835,0,0,0.056172839506172835,39.20864197530864,0)" xlink:href="#ad"/><use transform="matrix(0.056172839506172835,0,0,0.056172839506172835,50.44320987654321,0)" xlink:href="#aa"/><use transform="matrix(0.056172839506172835,0,0,0.056172839506172835,61.67777777777777,0)" xlink:href="#al"/><use transform="matrix(0.056172839506172835,0,0,0.056172839506172835,72.91234567901235,0)" xlink:href="#aj"/><use transform="matrix(0.056172839506172835,0,0,0.056172839506172835,78.52962962962962,0)" xlink:href="#ai"/></g><g id="J"><use transform="matrix(0.056172839506172835,0,0,0.056172839506172835,0,0)" xlink:href="#al"/><use transform="matrix(0.056172839506172835,0,0,0.056172839506172835,11.234567901234566,0)" xlink:href="#as"/><use transform="matrix(0.056172839506172835,0,0,0.056172839506172835,22.469135802469133,0)" xlink:href="#ai"/></g><g id="K"><use transform="matrix(0.056172839506172835,0,0,0.056172839506172835,0,0)" xlink:href="#as"/><use transform="matrix(0.056172839506172835,0,0,0.056172839506172835,11.234567901234566,0)" xlink:href="#ai"/><use transform="matrix(0.056172839506172835,0,0,0.056172839506172835,22.469135802469133,0)" xlink:href="#ak"/><use transform="matrix(0.056172839506172835,0,0,0.056172839506172835,33.703703703703695,0)" xlink:href="#aa"/><use transform="matrix(0.056172839506172835,0,0,0.056172839506172835,44.938271604938265,0)" xlink:href="#ai"/><use transform="matrix(0.056172839506172835,0,0,0.056172839506172835,56.172839506172835,0)" xlink:href="#ap"/></g><path fill="#333" d="M62-158H24l-5-90h48" id="aS"/><g id="L"><use transform="matrix(0.06234567901234567,0,0,0.06234567901234567,0,0)" xlink:href="#aL"/><use transform="matrix(0.06234567901234567,0,0,0.06234567901234567,14.96296296296296,0)" xlink:href="#ax"/><use transform="matrix(0.06234567901234567,0,0,0.06234567901234567,27.432098765432094,0)" xlink:href="#X"/><use transform="matrix(0.06234567901234567,0,0,0.06234567901234567,34.85123456790123,0)" xlink:href="#aS"/><use transform="matrix(0.06234567901234567,0,0,0.06234567901234567,40.15061728395061,0)" xlink:href="#aB"/></g><path fill="#333" d="M140-251c80 0 125 45 125 126S219 4 139 4C58 4 15-44 15-125s44-126 125-126zm-1 214c52 0 73-35 73-88 0-50-21-86-72-86-52 0-73 35-73 86s22 88 72 88" id="aT"/><path fill="#333" d="M231 0h-52l-39-155L100 0H48L-1-190h46L77-45c9-52 24-97 36-145h53l37 145 32-145h46" id="aU"/><g id="M"><use transform="matrix(0.06234567901234567,0,0,0.06234567901234567,0,0)" xlink:href="#aT"/><use transform="matrix(0.06234567901234567,0,0,0.06234567901234567,17.456790123456788,0)" xlink:href="#aU"/><use transform="matrix(0.06234567901234567,0,0,0.06234567901234567,34.913580246913575,0)" xlink:href="#aA"/><use transform="matrix(0.06234567901234567,0,0,0.06234567901234567,48.56728395061728,0)" xlink:href="#ax"/><use transform="matrix(0.06234567901234567,0,0,0.06234567901234567,61.03641975308641,0)" xlink:href="#Y"/></g><path fill="#333" d="M185-189c-5-48-123-54-124 2 14 75 158 14 163 119 3 78-121 87-175 55-17-10-28-26-33-46l33-7c5 56 141 63 141-1 0-78-155-14-162-118-5-82 145-84 179-34 5 7 8 16 11 25" id="aV"/><path fill="#333" d="M190 0L58-211 59 0H30v-248h39L202-35l-2-213h31V0h-41" id="aW"/><g id="N"><use transform="matrix(0.056172839506172835,0,0,0.056172839506172835,0,0)" xlink:href="#aV"/><use transform="matrix(0.056172839506172835,0,0,0.056172839506172835,13.481481481481481,0)" xlink:href="#aV"/><use transform="matrix(0.056172839506172835,0,0,0.056172839506172835,26.962962962962962,0)" xlink:href="#aW"/></g><g id="O"><use transform="matrix(0.056172839506172835,0,0,0.056172839506172835,0,0)" xlink:href="#Z"/><use transform="matrix(0.056172839506172835,0,0,0.056172839506172835,6.684567901234567,0)" xlink:href="#Z"/><use transform="matrix(0.056172839506172835,0,0,0.056172839506172835,13.369135802469135,0)" xlink:href="#Z"/><use transform="matrix(0.056172839506172835,0,0,0.056172839506172835,20.053703703703704,0)" xlink:href="#Z"/><use transform="matrix(0.056172839506172835,0,0,0.056172839506172835,26.73827160493827,0)" xlink:href="#Z"/><use transform="matrix(0.056172839506172835,0,0,0.056172839506172835,33.422839506172835,0)" xlink:href="#Z"/><use transform="matrix(0.056172839506172835,0,0,0.056172839506172835,40.1074074074074,0)" xlink:href="#Z"/><use transform="matrix(0.056172839506172835,0,0,0.056172839506172835,46.791975308641966,0)" xlink:href="#Z"/></g><path fill="#333" d="M23 0v-37h61v-169l-59 37v-38l62-41h46v211h57V0H23" id="aX"/><use transform="matrix(0.06234567901234567,0,0,0.06234567901234567,0,0)" xlink:href="#aX" id="P"/><path fill="#333" d="M24 0v-54h51V0H24" id="aY"/><path fill="#333" d="M86-200l42-18 12 35-44 11 32 37-32 21-26-44-26 44-32-21 33-37-44-11 12-35 42 18-3-48h38" id="aZ"/><g id="Q"><use transform="matrix(0.06234567901234567,0,0,0.06234567901234567,0,0)" xlink:href="#aY"/><use transform="matrix(0.06234567901234567,0,0,0.06234567901234567,6.234567901234566,0)" xlink:href="#aY"/><use transform="matrix(0.06234567901234567,0,0,0.06234567901234567,12.469135802469133,0)" xlink:href="#aZ"/></g><path fill="#333" d="M195-6C206 82 75 100 31 46c-4-6-6-13-8-21l49-6c3 16 16 24 34 25 40 0 42-37 40-79-11 22-30 35-61 35-53 0-70-43-70-97 0-56 18-96 73-97 30 0 46 14 59 34l2-30h47zm-90-29c32 0 41-27 41-63 0-35-9-62-40-62-32 0-39 29-40 63 0 36 9 62 39 62" id="ba"/><g id="R"><use transform="matrix(0.06234567901234567,0,0,0.06234567901234567,0,0)" xlink:href="#U"/><use transform="matrix(0.06234567901234567,0,0,0.06234567901234567,16.147530864197527,0)" xlink:href="#az"/><use transform="matrix(0.06234567901234567,0,0,0.06234567901234567,22.382098765432094,0)" xlink:href="#aN"/><use transform="matrix(0.06234567901234567,0,0,0.06234567901234567,34.85123456790123,0)" xlink:href="#ba"/><use transform="matrix(0.06234567901234567,0,0,0.06234567901234567,48.50493827160493,0)" xlink:href="#aA"/><use transform="matrix(0.06234567901234567,0,0,0.06234567901234567,62.158641975308626,0)" xlink:href="#V"/><use transform="matrix(0.06234567901234567,0,0,0.06234567901234567,75.81234567901232,0)" xlink:href="#aB"/><use transform="matrix(0.06234567901234567,0,0,0.06234567901234567,88.28148148148145,0)" xlink:href="#ax"/></g><g id="S"><use transform="matrix(0.06234567901234567,0,0,0.06234567901234567,0,0)" xlink:href="#aE"/><use transform="matrix(0.06234567901234567,0,0,0.06234567901234567,19.950617283950614,0)" xlink:href="#aN"/><use transform="matrix(0.06234567901234567,0,0,0.06234567901234567,32.419753086419746,0)" xlink:href="#aA"/><use transform="matrix(0.06234567901234567,0,0,0.06234567901234567,46.073456790123444,0)" xlink:href="#aN"/><use transform="matrix(0.06234567901234567,0,0,0.06234567901234567,58.54259259259258,0)" xlink:href="#ba"/><use transform="matrix(0.06234567901234567,0,0,0.06234567901234567,72.19629629629628,0)" xlink:href="#ax"/></g><path fill="#333" d="M128 0H69L1-190h53L99-40l48-150h52" id="bb"/><g id="T"><use transform="matrix(0.06234567901234567,0,0,0.06234567901234567,0,0)" xlink:href="#Y"/><use transform="matrix(0.06234567901234567,0,0,0.06234567901234567,8.728395061728394,0)" xlink:href="#ax"/><use transform="matrix(0.06234567901234567,0,0,0.06234567901234567,21.197530864197525,0)" xlink:href="#aB"/><use transform="matrix(0.06234567901234567,0,0,0.06234567901234567,33.66666666666666,0)" xlink:href="#ax"/><use transform="matrix(0.06234567901234567,0,0,0.06234567901234567,46.13580246913579,0)" xlink:href="#Y"/><use transform="matrix(0.06234567901234567,0,0,0.06234567901234567,54.86419753086418,0)" xlink:href="#bb"/><use transform="matrix(0.06234567901234567,0,0,0.06234567901234567,67.33333333333331,0)" xlink:href="#ax"/></g></defs></g></svg>