<svg xmlns="http://www.w3.org/2000/svg" xmlns:xlink="http://www.w3.org/1999/xlink" xmlns:lucid="lucid" width="1327.89" height="1561"><g transform="translate(1140.7687730914683 1220.5)" lucid:page-tab-id="0_0"><path d="M-527.77-1170c0 16.57-13.43 30-30 30s-30-13.43-30-30 13.43-30 30-30 30 13.43 30 30z" stroke="#666"/><path d="M-557-1040.23h-1v-28.1h1zm-.27-54.78h-1v-44h1z" stroke="#3a414a" stroke-width=".05" fill="#3a414a"/><path d="M-557.78-1139.5l.5-.02v.53h-1v-.54z" fill="#3a414a"/><path d="M-557.78-1139.52l.54-.02v.58h-1.05v-.6zm-.46.5h.95v-.47l-.48.03-.46-.04z" stroke="#3a414a" stroke-width=".05" fill="#3a414a"/><path d="M-557.5-1025.46l-4.63-14.27h9.26z" fill="#3a414a"/><path d="M-557.5-1023.85l-5.32-16.38h10.64zm-3.95-15.38l3.95 12.15 3.95-12.15z" stroke="#3a414a" stroke-width=".05" fill="#3a414a"/><use xlink:href="#a" transform="matrix(1,0,0,1,-621.6467322247464,-1095.006446582219) translate(0 17.77777777777778)"/><use xlink:href="#b" transform="matrix(1,0,0,1,-621.6467322247464,-1095.006446582219) translate(75.12345679012344 17.77777777777778)"/><path d="M-557.5-1024.35v-6.35" stroke="#3a414a" fill="none"/><path d="M-557-1023.85h-1v-.5h1z" stroke="#3a414a" stroke-width=".05" fill="#3a414a"/><path d="M-557.5-1030.68v-.52" stroke="#3a414a" fill="none"/><path d="M-112.27-773.54h-1v-105.04h1zm-5.48-200.74l1 .24.93.4.87.53.78.65.66.77.52.87.4.94.23 1 .08 1v62.62h-1v-62.6l-.07-.87-.2-.85-.33-.8-.45-.74-.56-.64-.66-.56-.73-.45-.8-.33-.84-.2-.9-.07h-327.7v-1h327.75z" stroke="#3a414a" stroke-width=".05" fill="#3a414a"/><path d="M-446.5-973.35h-.5v-1h.5z" fill="#3a414a"/><path d="M-446.46-973.33h-.56v-1.05h.56zm-.52-1v.95h.47v-.95z" stroke="#3a414a" stroke-width=".05" fill="#3a414a"/><path d="M-112.77-758.77l-4.63-14.27h9.27z" fill="#3a414a"/><path d="M-112.77-757.15l-5.32-16.4h10.66zm-3.95-15.4l3.95 12.16 3.95-12.14z" stroke="#3a414a" stroke-width=".05" fill="#3a414a"/><use xlink:href="#a" transform="matrix(1,0,0,1,-226.7502545729498,-905.2452728085763) translate(0 17.77777777777778)"/><use xlink:href="#c" transform="matrix(1,0,0,1,-226.7502545729498,-905.2452728085763) translate(75.12345679012344 17.77777777777778)"/><use xlink:href="#d" transform="matrix(1,0,0,1,-226.7502545729498,-905.2452728085763) translate(181.1111111111111 17.77777777777778)"/><path d="M-557-841l.1.03.3.2.22.34v66.9h-1v-66.5l-.3-.12-.24-.3-.08-.3v-16.08h1zm0-42.5h-1v-39.86h1z" stroke="#3a414a" stroke-width=".05" fill="#3a414a"/><path d="M-557-923.35h-1v-.5h1z" fill="#3a414a"/><path d="M-556.98-923.32H-558v-.57h1.04zm-1-.52v.47h.96v-.47z" stroke="#3a414a" stroke-width=".05" fill="#3a414a"/><path d="M-556.87-758.77l-4.63-14.27h9.27z" fill="#3a414a"/><path d="M-556.87-757.15l-5.32-16.4h10.66zm-3.94-15.4l3.93 12.16 3.95-12.14z" stroke="#3a414a" stroke-width=".05" fill="#3a414a"/><use xlink:href="#a" transform="matrix(1,0,0,1,-657.8703703703703,-883.4920099860777) translate(0 17.77777777777778)"/><use xlink:href="#e" transform="matrix(1,0,0,1,-657.8703703703703,-883.4920099860777) translate(75.12345679012344 17.77777777777778)"/><use xlink:href="#d" transform="matrix(1,0,0,1,-657.8703703703703,-883.4920099860777) translate(153.88888888888886 17.77777777777778)"/><path d="M-1009.77-773.54h-1V-883.4h1zm341.27-199.8h-335.75l-.88.06-.84.2-.8.33-.73.45-.66.56-.56.65-.45.75-.33.8-.2.84-.07.87v57.78h-1v-57.82l.08-1 .25-1 .4-.94.52-.88.66-.77.78-.66.88-.55.94-.4 1-.23 1-.07h335.78z" stroke="#3a414a" stroke-width=".05" fill="#3a414a"/><path d="M-668-973.35h-.5v-1h.5z" fill="#3a414a"/><path d="M-667.98-973.33h-.56v-1.05h.56zm-.5-1v.95h.46v-.95z" stroke="#3a414a" stroke-width=".05" fill="#3a414a"/><path d="M-1010.27-758.77l-4.63-14.27h9.27z" fill="#3a414a"/><path d="M-1010.27-757.15l-5.32-16.4h10.65zm-3.95-15.4l3.95 12.16 3.95-12.14z" stroke="#3a414a" stroke-width=".05" fill="#3a414a"/><use xlink:href="#a" transform="matrix(1,0,0,1,-1110.6391434618388,-910.0529122727611) translate(0 17.77777777777778)"/><use xlink:href="#f" transform="matrix(1,0,0,1,-1110.6391434618388,-910.0529122727611) translate(75.12345679012344 17.77777777777778)"/><use xlink:href="#d" transform="matrix(1,0,0,1,-1110.6391434618388,-910.0529122727611) translate(153.88888888888886 17.77777777777778)"/><path d="M-112.27-496.9h-1v-41.02h1zm0-67.7h-1v-92.07h1z" stroke="#3a414a" stroke-width=".05" fill="#3a414a"/><path d="M-112.27-656.66h-1v-.5h1z" fill="#3a414a"/><path d="M-112.24-656.63h-1.05v-.56h1.06zm-1-.5v.45h.95v-.46z" stroke="#3a414a" stroke-width=".05" fill="#3a414a"/><path d="M-112.77-482.12l-4.63-14.26h9.27z" fill="#3a414a"/><path d="M-112.77-480.5l-5.32-16.38h10.66zm-3.95-15.38l3.95 12.14 3.95-12.14z" stroke="#3a414a" stroke-width=".05" fill="#3a414a"/><use xlink:href="#g" transform="matrix(1,0,0,1,-205.11445210381402,-564.5859687003925) translate(0 17.77777777777778)"/><use xlink:href="#h" transform="matrix(1,0,0,1,-205.11445210381402,-564.5859687003925) translate(62.8395061728395 17.77777777777778)"/><path d="M-557-496.88h-1v-44h1zm0-70.68h-1v-89.1h1z" stroke="#3a414a" stroke-width=".05" fill="#3a414a"/><path d="M-557-656.66h-1v-.5h1z" fill="#3a414a"/><path d="M-556.98-656.63H-558v-.56h1.04zm-1-.5v.45h.96v-.46z" stroke="#3a414a" stroke-width=".05" fill="#3a414a"/><path d="M-557.5-482.12l-4.63-14.26h9.26z" fill="#3a414a"/><path d="M-557.5-480.5l-5.32-16.38h10.64zm-3.95-15.38l3.95 12.14 3.95-12.14z" stroke="#3a414a" stroke-width=".05" fill="#3a414a"/><use xlink:href="#g" transform="matrix(1,0,0,1,-649.8456790123457,-567.5604804457776) translate(0 17.77777777777778)"/><use xlink:href="#h" transform="matrix(1,0,0,1,-649.8456790123457,-567.5604804457776) translate(62.8395061728395 17.77777777777778)"/><path d="M-1009.77-496.88h-1v-44h1zm0-70.68h-1v-89.1h1z" stroke="#3a414a" stroke-width=".05" fill="#3a414a"/><path d="M-1009.77-656.66h-1v-.5h1z" fill="#3a414a"/><path d="M-1009.74-656.63h-1.05v-.56h1.06zm-1-.5v.45h.95v-.46z" stroke="#3a414a" stroke-width=".05" fill="#3a414a"/><path d="M-1010.27-482.12l-4.63-14.26h9.27z" fill="#3a414a"/><path d="M-1010.27-480.5l-5.32-16.38h10.65zm-3.95-15.38l3.95 12.14 3.95-12.14z" stroke="#3a414a" stroke-width=".05" fill="#3a414a"/><use xlink:href="#g" transform="matrix(1,0,0,1,-1102.614452103814,-567.5604804457777) translate(0 17.77777777777778)"/><use xlink:href="#h" transform="matrix(1,0,0,1,-1102.614452103814,-567.5604804457777) translate(62.8395061728395 17.77777777777778)"/><path d="M-528.13 290c0 16.57-13.43 30-30 30s-30-13.43-30-30 13.43-30 30-30 30 13.43 30 30z" stroke="#333" fill="#fff"/><path d="M-540.13 290c0 9.94-8.06 18-18 18s-18-8.06-18-18 8.06-18 18-18 18 8.06 18 18z" stroke="#333"/><path d="M-557.5 160.34v49a.32.32 0 0 1-.32.33.32.32 0 0 0-.3.32v33.12" stroke="#3a414a" fill="none"/><path d="M-557 160.35h-1v-.5h1z" stroke="#3a414a" stroke-width=".05" fill="#3a414a"/><path d="M-558.13 257.88l-4.64-14.26h9.27z" stroke="#3a414a" fill="#3a414a"/><path d="M-105.27 160.34V284a6 6 0 0 1-6 6h-399.98" stroke="#3a414a" fill="none"/><path d="M-104.77 160.35h-1v-.5h1z" stroke="#3a414a" stroke-width=".05" fill="#3a414a"/><path d="M-526 290l14.25-4.63v9.26z" stroke="#3a414a" fill="#3a414a"/><path d="M-1009.73 160.34V284a6 6 0 0 0 6 6h398.7" stroke="#3a414a" fill="none"/><path d="M-1009.23 160.35h-1v-.5h1z" stroke="#3a414a" stroke-width=".05" fill="#3a414a"/><path d="M-590.25 290l-14.27 4.63v-9.26z" stroke="#3a414a" fill="#3a414a"/><path d="M-104.7-221.04h-1l-.05-58.2h1zm-.07-84.88h-1v-74.1h1z" stroke="#3a414a" stroke-width=".05" fill="#3a414a"/><path d="M-104.77-380h-1v-.5h1z" fill="#3a414a"/><path d="M-104.74-379.98h-1.05v-.56h1.06zm-1-.5v.45h.95v-.46z" stroke="#3a414a" stroke-width=".05" fill="#3a414a"/><path d="M-105.2-206.28l-4.63-14.26h9.27z" fill="#3a414a"/><path d="M-105.2-204.66l-5.32-16.38h10.65zm-3.94-15.38l3.95 12.15 3.95-12.14z" stroke="#3a414a" stroke-width=".05" fill="#3a414a"/><use xlink:href="#i" transform="matrix(1,0,0,1,-229.6449685563162,-305.9192614982938) translate(0 17.77777777777778)"/><use xlink:href="#j" transform="matrix(1,0,0,1,-229.6449685563162,-305.9192614982938) translate(85.12345679012344 17.77777777777778)"/><use xlink:href="#k" transform="matrix(1,0,0,1,-229.6449685563162,-305.9192614982938) translate(163.88888888888886 17.77777777777778)"/><use xlink:href="#l" transform="matrix(1,0,0,1,-229.6449685563162,-305.9192614982938) translate(203.27160493827157 17.77777777777778)"/><path d="M-104.77 43.47h-1l.06-45.04h1zm.08-71.7h-1v-60.94h1z" stroke="#3a414a" stroke-width=".05" fill="#3a414a"/><path d="M-105.2-89.67l.5-.03v.55h-1v-.55z" fill="#3a414a"/><path d="M-105.2-89.7l.53-.03v.6h-1.05v-.6zm-.47.52h.95v-.5l-.47.04-.47-.03z" stroke="#3a414a" stroke-width=".05" fill="#3a414a"/><path d="M-105.27 58.23l-4.63-14.26h9.27z" fill="#3a414a"/><path d="M-105.27 59.85l-5.32-16.38h10.66zm-3.95-15.38l3.95 12.15 3.95-12.15z" stroke="#3a414a" stroke-width=".05" fill="#3a414a"/><use xlink:href="#m" transform="matrix(1,0,0,1,-227.20669695137792,-28.2398516735419) translate(0 17.77777777777778)"/><use xlink:href="#c" transform="matrix(1,0,0,1,-227.20669695137792,-28.2398516735419) translate(91.11111111111111 17.77777777777778)"/><use xlink:href="#n" transform="matrix(1,0,0,1,-227.20669695137792,-28.2398516735419) translate(197.09876543209876 17.77777777777778)"/><path d="M150.5-153.14l-.08 1-.24 1-.4.93-.52.86-.66.78-.78.66-.87.53-.94.4-.98.23-1 .08H-39.25v-1h183.23l.88-.07.84-.2.8-.33.73-.45.66-.57.55-.66.45-.73.33-.8.2-.84.07-.88v-241.9h1zm-5.48-554.44l1 .24.93.4.87.52.78.66.66.78.53.87.38.93.24 1 .08 1v279.42h-1v-279.4l-.07-.87-.2-.84-.33-.8-.45-.73-.56-.65-.67-.56-.73-.46-.8-.33-.84-.2-.88-.06H14.12v-1h129.9z" stroke="#3a414a" stroke-width=".05" fill="#3a414a"/><path d="M-39.24-146.66h-.55l.05-.5-.04-.5h.56z" fill="#3a414a"/><path d="M-39.2-146.64h-.62l.04-.52-.04-.53h.6zm-.57-1l.04.48-.04.47h.5v-.94z" stroke="#3a414a" stroke-width=".05" fill="#3a414a"/><path d="M13.62-702.53l-14.27-4.63 14.27-4.64z" fill="#3a414a"/><path d="M14.12-701.84l-16.4-5.32 16.4-5.33zM.96-707.16l12.14 3.95.02-7.9z" stroke="#3a414a" stroke-width=".05" fill="#3a414a"/><use xlink:href="#o" transform="matrix(1,0,0,1,114.87654320987654,-421.7533821713923) translate(0 17.77777777777778)"/><path d="M-557.63-221.04h-1v-58.2h1zm.63-84.88h-1v-74.1h1z" stroke="#3a414a" stroke-width=".05" fill="#3a414a"/><path d="M-557-380h-1v-.5h1z" fill="#3a414a"/><path d="M-556.98-379.98H-558v-.56h1.04zm-1-.5v.45h.96v-.46z" stroke="#3a414a" stroke-width=".05" fill="#3a414a"/><path d="M-558.13-206.28l-4.64-14.26h9.27z" fill="#3a414a"/><path d="M-558.13-204.66l-5.33-16.38h10.65zm-3.95-15.38l3.95 12.15 3.94-12.14z" stroke="#3a414a" stroke-width=".05" fill="#3a414a"/><use xlink:href="#i" transform="matrix(1,0,0,1,-682.2299382716049,-305.91926151985564) translate(0 17.77777777777778)"/><use xlink:href="#j" transform="matrix(1,0,0,1,-682.2299382716049,-305.91926151985564) translate(85.12345679012344 17.77777777777778)"/><use xlink:href="#k" transform="matrix(1,0,0,1,-682.2299382716049,-305.91926151985564) translate(163.88888888888886 17.77777777777778)"/><use xlink:href="#l" transform="matrix(1,0,0,1,-682.2299382716049,-305.91926151985564) translate(203.27160493827157 17.77777777777778)"/><path d="M-557 43.47h-1v-44.9h1zm-.63-71.55h-1v-60.77h1z" stroke="#3a414a" stroke-width=".05" fill="#3a414a"/><path d="M-558.13-89.35l.5-.04v.56h-1v-.55z" fill="#3a414a"/><path d="M-558.13-89.38l.52-.04v.6h-1.06v-.6zm-.48.52h.94v-.5l-.47.03-.48-.03z" stroke="#3a414a" stroke-width=".05" fill="#3a414a"/><path d="M-557.5 58.23l-4.63-14.26h9.26z" fill="#3a414a"/><path d="M-557.5 59.85l-5.32-16.38h10.64zm-3.95-15.38l3.95 12.15 3.95-12.15z" stroke="#3a414a" stroke-width=".05" fill="#3a414a"/><use xlink:href="#m" transform="matrix(1,0,0,1,-666.1805555555555,-28.083601657123758) translate(0 17.77777777777778)"/><use xlink:href="#e" transform="matrix(1,0,0,1,-666.1805555555555,-28.083601657123758) translate(91.11111111111111 17.77777777777778)"/><use xlink:href="#n" transform="matrix(1,0,0,1,-666.1805555555555,-28.083601657123758) translate(169.87654320987656 17.77777777777778)"/><path d="M-302-153l-.08 1-.24 1-.4.95-.52.87-.66.77-.78.66-.87.53-.94.38-.98.24-1 .08H-492v-1h183.48l.88-.07.84-.2.8-.34.73-.46.66-.56.55-.65.45-.74.33-.8.2-.84.07-.9v-240.62h1zm-5.48-554.58l1 .24.93.4.87.52.78.66.66.78.53.87.38.93.24 1 .08 1V-415h-1v-286.14l-.07-.88-.2-.84-.33-.8-.45-.73-.56-.65-.67-.56-.73-.46-.8-.33-.84-.2-.88-.06h-122.1v-1h122.14z" stroke="#3a414a" stroke-width=".05" fill="#3a414a"/><path d="M-492-146.5h-.55l.04-.5-.05-.5h.55z" fill="#3a414a"/><path d="M-491.97-146.48h-.6l.03-.53-.04-.53h.6zm-.56-1l.04.47-.03.47h.5v-.95z" stroke="#3a414a" stroke-width=".05" fill="#3a414a"/><path d="M-431.12-702.53l-14.26-4.63 14.26-4.64z" fill="#3a414a"/><path d="M-430.62-701.84l-16.38-5.32 16.38-5.33zm-13.14-5.32l12.14 3.95v-7.9z" stroke="#3a414a" stroke-width=".05" fill="#3a414a"/><use xlink:href="#p" transform="matrix(1,0,0,1,-330.598765432099,-414.9941334836828) translate(0 14.222222222222223)"/><path d="M-1010.75-205.47h-1v-73.94h1zm.98-100.6h-1v-58.06h1z" stroke="#3a414a" stroke-width=".05" fill="#3a414a"/><path d="M-1005.63-364.63h-9.27l4.63-14.27z" fill="#3a414a"/><path d="M-1004.95-364.13h-10.64l5.33-16.38zm-9.27-1h7.9l-3.95-12.15z" stroke="#3a414a" stroke-width=".05" fill="#3a414a"/><path d="M-1010.75-204.93l-.5-.04-.5.04v-.55h1z" fill="#3a414a"/><path d="M-1010.73-204.9l-.52-.04-.52.03v-.6h1.04zm-1-.56v.5l.48-.03.48.04v-.5z" stroke="#3a414a" stroke-width=".05" fill="#3a414a"/><use xlink:href="#i" transform="matrix(1,0,0,1,-1135.1729667926477,-306.07551151985564) translate(0 17.77777777777778)"/><use xlink:href="#j" transform="matrix(1,0,0,1,-1135.1729667926477,-306.07551151985564) translate(85.12345679012344 17.77777777777778)"/><use xlink:href="#k" transform="matrix(1,0,0,1,-1135.1729667926477,-306.07551151985564) translate(163.88888888888886 17.77777777777778)"/><use xlink:href="#l" transform="matrix(1,0,0,1,-1135.1729667926477,-306.07551151985564) translate(203.27160493827157 17.77777777777778)"/><path d="M-1009.23 43.47h-1V-1.57h1zm-1.52-71.7h-1v-60.94h1z" stroke="#3a414a" stroke-width=".05" fill="#3a414a"/><path d="M-1011.25-89.67l.5-.03v.55h-1v-.55z" fill="#3a414a"/><path d="M-1011.25-89.7l.52-.03v.6h-1.04v-.6zm-.48.52h.96v-.5l-.48.04-.48-.03z" stroke="#3a414a" stroke-width=".05" fill="#3a414a"/><path d="M-1009.73 58.23l-4.64-14.26h9.27z" fill="#3a414a"/><path d="M-1009.73 59.85l-5.32-16.38h10.64zm-3.95-15.38l3.95 12.15 3.95-12.15z" stroke="#3a414a" stroke-width=".05" fill="#3a414a"/><use xlink:href="#m" transform="matrix(1,0,0,1,-1118.85481098513,-28.239851657123808) translate(0 17.77777777777778)"/><use xlink:href="#f" transform="matrix(1,0,0,1,-1118.85481098513,-28.239851657123808) translate(91.11111111111111 17.77777777777778)"/><use xlink:href="#n" transform="matrix(1,0,0,1,-1118.85481098513,-28.239851657123808) translate(169.87654320987656 17.77777777777778)"/><path d="M-754.5-153.3l-.08 1-.24 1-.4.93-.52.87-.66.78-.78.66-.87.54-.94.4-.98.22-1 .08h-184.15v-1h184.1l.9-.07.83-.2.8-.32.73-.45.66-.56.55-.66.45-.72.33-.8.2-.84.07-.88v-240.3h1zm-5.48-554.28l1 .24.93.4.87.52.78.66.66.78.53.87.38.93.24 1 .08 1v286.2h-1v-286.17l-.07-.88-.2-.84-.33-.8-.45-.73-.56-.65-.67-.56-.73-.46-.8-.33-.84-.2-.88-.06H-883.4v-1h122.42z" stroke="#3a414a" stroke-width=".05" fill="#3a414a"/><path d="M-945.12-146.82h-.55l.04-.5-.04-.5h.55z" fill="#3a414a"/><path d="M-945.1-146.8h-.6l.05-.52-.05-.52h.6zm-.54-1l.04.48-.04.48h.5v-.95z" stroke="#3a414a" stroke-width=".05" fill="#3a414a"/><path d="M-883.9-702.53l-14.25-4.63 14.26-4.64z" fill="#3a414a"/><path d="M-883.4-701.84l-16.37-5.32 16.38-5.33zm-13.13-5.32l12.14 3.95v-7.9z" stroke="#3a414a" stroke-width=".05" fill="#3a414a"/><use xlink:href="#p" transform="matrix(1,0,0,1,-783.0987654320991,-414.9761280541084) translate(0 14.222222222222223)"/><path d="M-647.7-1023.35c-10.94 0-19.8 8.87-19.8 19.8v59.4c0 10.92 8.86 19.8 19.8 19.8h180.4c10.94 0 19.8-8.88 19.8-19.8v-59.4c0-10.93-8.86-19.8-19.8-19.8z" stroke="#333" fill="#cfe4ff"/><use xlink:href="#q" transform="matrix(1,0,0,1,-659.5,-1015.346538359738) translate(54.3888888888889 47.099999999999994)"/><use xlink:href="#r" transform="matrix(1,0,0,1,-659.5,-1015.346538359738) translate(131.8888888888889 47.099999999999994)"/><path d="M-202.97-756.65c-10.94 0-19.8 8.86-19.8 19.8v59.38c0 10.94 8.87 19.8 19.8 19.8h180.4c10.94 0 19.8-8.86 19.8-19.8v-59.4c0-10.92-8.86-19.78-19.8-19.78z" stroke="#333" fill="#cfe4ff"/><g><use xlink:href="#s" transform="matrix(1,0,0,1,-214.76877309146835,-748.6534616402618) translate(39.30555555555556 47.099999999999994)"/><use xlink:href="#t" transform="matrix(1,0,0,1,-214.76877309146835,-748.6534616402618) translate(122.52777777777779 47.099999999999994)"/></g><path d="M-195.47-480c-10.94 0-19.8 8.86-19.8 19.8v59.4c0 10.92 8.87 19.8 19.8 19.8h180.4c10.94 0 19.8-8.88 19.8-19.8v-59.4c0-10.94-8.86-19.8-19.8-19.8z" stroke="#333" fill="#cfe4ff"/><g><use xlink:href="#u" transform="matrix(1,0,0,1,-207.26877309146835,-472) translate(47.16666666666666 35.099999999999994)"/><use xlink:href="#v" transform="matrix(1,0,0,1,-207.26877309146835,-472) translate(65.97222222222223 59.099999999999994)"/></g><path d="M-195.47 60.35c-10.94 0-19.8 8.87-19.8 19.8v59.4c0 10.92 8.87 19.8 19.8 19.8h180.4c10.94 0 19.8-8.88 19.8-19.8v-59.4c0-10.93-8.86-19.8-19.8-19.8z" stroke="#333" fill="#cfe4ff"/><g><use xlink:href="#w" transform="matrix(1,0,0,1,-207.26877309146835,68.35270644921772) translate(35.41666666666667 47.099999999999994)"/><use xlink:href="#x" transform="matrix(1,0,0,1,-207.26877309146835,68.35270644921772) translate(85.36111111111111 47.099999999999994)"/></g><path d="M-647.7-756.65c-10.94 0-19.8 8.86-19.8 19.8v59.38c0 10.94 8.86 19.8 19.8 19.8h180.4c10.94 0 19.8-8.86 19.8-19.8v-59.4c0-10.92-8.86-19.78-19.8-19.78z" stroke="#333" fill="#cfe4ff"/><g><use xlink:href="#y" transform="matrix(1,0,0,1,-659.5,-748.6534616402616) translate(59.30555555555556 47.099999999999994)"/><use xlink:href="#t" transform="matrix(1,0,0,1,-659.5,-748.6534616402616) translate(102.52777777777779 47.099999999999994)"/></g><path d="M-1100.47-756.65c-10.93 0-19.8 8.86-19.8 19.8v59.38c0 10.94 8.87 19.8 19.8 19.8h180.4c10.94 0 19.8-8.86 19.8-19.8v-59.4c0-10.92-8.86-19.78-19.8-19.78z" stroke="#333" fill="#cfe4ff"/><g><use xlink:href="#z" transform="matrix(1,0,0,1,-1112.2687730914683,-748.6534616402618) translate(58.777777777777786 47.099999999999994)"/><use xlink:href="#t" transform="matrix(1,0,0,1,-1112.2687730914683,-748.6534616402618) translate(103.05555555555556 47.099999999999994)"/></g><path d="M-1100.47-480c-10.93 0-19.8 8.86-19.8 19.8v59.4c0 10.92 8.87 19.8 19.8 19.8h180.4c10.94 0 19.8-8.88 19.8-19.8v-59.4c0-10.94-8.86-19.8-19.8-19.8z" stroke="#333" fill="#cfe4ff"/><g><use xlink:href="#u" transform="matrix(1,0,0,1,-1112.2687730914683,-472) translate(47.16666666666666 35.099999999999994)"/><use xlink:href="#v" transform="matrix(1,0,0,1,-1112.2687730914683,-472) translate(65.97222222222223 59.099999999999994)"/></g><path d="M-647.7-480c-10.94 0-19.8 8.86-19.8 19.8v59.4c0 10.92 8.86 19.8 19.8 19.8h180.4c10.94 0 19.8-8.88 19.8-19.8v-59.4c0-10.94-8.86-19.8-19.8-19.8z" stroke="#333" fill="#cfe4ff"/><g><use xlink:href="#u" transform="matrix(1,0,0,1,-659.5,-472) translate(47.16666666666666 35.099999999999994)"/><use xlink:href="#v" transform="matrix(1,0,0,1,-659.5,-472) translate(65.97222222222223 59.099999999999994)"/></g><path d="M-1099.93 60.35c-10.94 0-19.8 8.87-19.8 19.8v59.4c0 10.92 8.86 19.8 19.8 19.8h180.4c10.93 0 19.8-8.88 19.8-19.8v-59.4c0-10.93-8.87-19.8-19.8-19.8z" stroke="#333" fill="#cfe4ff"/><g><use xlink:href="#w" transform="matrix(1,0,0,1,-1111.7312269085317,68.35270644921772) translate(47.66666666666667 47.099999999999994)"/><use xlink:href="#A" transform="matrix(1,0,0,1,-1111.7312269085317,68.35270644921772) translate(97.61111111111111 47.099999999999994)"/></g><path d="M-647.7 60.35c-10.94 0-19.8 8.87-19.8 19.8v59.4c0 10.92 8.86 19.8 19.8 19.8h180.4c10.94 0 19.8-8.88 19.8-19.8v-59.4c0-10.93-8.86-19.8-19.8-19.8z" stroke="#333" fill="#cfe4ff"/><g><use xlink:href="#B" transform="matrix(1,0,0,1,-659.5,68.35270644921772) translate(43.05555555555556 35.099999999999994)"/><use xlink:href="#C" transform="matrix(1,0,0,1,-659.5,68.35270644921772) translate(119.94444444444444 35.099999999999994)"/><use xlink:href="#D" transform="matrix(1,0,0,1,-659.5,68.35270644921772) translate(60.44444444444444 59.099999999999994)"/></g><path d="M-111.22-201.9a9.14 9.14 0 0 1 12.05 0l56.53 49.47a7 7 0 0 1 0 10.54l-56.53 49.47a9.14 9.14 0 0 1-12.05 0l-56.53-49.46a7 7 0 0 1 0-10.53z" stroke="#333" fill="#fcfcca"/><g><use xlink:href="#E" transform="matrix(1,0,0,1,-173.76543209876547,-207.1611307349217) translate(33.03277777777778 57.01)"/><use xlink:href="#F" transform="matrix(1,0,0,1,-173.76543209876547,-207.1611307349217) translate(48.005 81.00999999999999)"/></g><path d="M-564.15-201.9a9.14 9.14 0 0 1 12.04 0l56.7 49.63a7 7 0 0 1 0 10.53l-56.7 49.62a9.14 9.14 0 0 1-12.05 0l-56.7-49.62a7 7 0 0 1 0-10.53z" stroke="#333" fill="#fcfcca"/><g><use xlink:href="#E" transform="matrix(1,0,0,1,-626.8827160493827,-207.16113073492158) translate(33.03277777777778 57.01)"/><use xlink:href="#F" transform="matrix(1,0,0,1,-626.8827160493827,-207.16113073492158) translate(48.505 81.00999999999999)"/></g><path d="M-1017.27-202.2a9.14 9.14 0 0 1 12.04 0l56.7 49.6a7 7 0 0 1 0 10.55l-56.7 49.62a9.14 9.14 0 0 1-12.04 0l-56.7-49.62a7 7 0 0 1 0-10.53z" stroke="#333" fill="#fcfcca"/><g><use xlink:href="#E" transform="matrix(1,0,0,1,-1080,-207.4736307349217) translate(33.03277777777778 57.01)"/><use xlink:href="#F" transform="matrix(1,0,0,1,-1080,-207.4736307349217) translate(48.505 81.00999999999999)"/></g><defs><path fill="#333" d="M199 0l-22-63H83L61 0H9l90-248h61L250 0h-51zm-33-102l-36-108c-10 38-24 72-36 108h72" id="G"/><path fill="#333" d="M88-194c31-1 46 15 58 34l-1-101h50l1 261h-48c-2-10 0-23-3-31C134-8 116 4 84 4 32 4 16-41 15-95c0-56 19-97 73-99zm17 164c33 0 40-30 41-66 1-37-9-64-41-64s-38 30-39 65c0 43 13 65 39 65" id="H"/><path fill="#333" d="M220-157c-53 9-28 100-34 157h-49v-107c1-27-5-49-29-50C55-147 81-57 75 0H25l-1-190h47c2 12-1 28 3 38 10-53 101-56 108 0 13-22 24-43 59-42 82 1 51 116 57 194h-49v-107c-1-25-5-48-29-50" id="I"/><path fill="#333" d="M25-224v-37h50v37H25zM25 0v-190h50V0H25" id="J"/><path fill="#333" d="M135-194c87-1 58 113 63 194h-50c-7-57 23-157-34-157-59 0-34 97-39 157H25l-1-190h47c2 12-1 28 3 38 12-26 28-41 61-42" id="K"/><g id="a"><use transform="matrix(0.06172839506172839,0,0,0.06172839506172839,0,0)" xlink:href="#G"/><use transform="matrix(0.06172839506172839,0,0,0.06172839506172839,15.987654320987653,0)" xlink:href="#H"/><use transform="matrix(0.06172839506172839,0,0,0.06172839506172839,29.50617283950617,0)" xlink:href="#I"/><use transform="matrix(0.06172839506172839,0,0,0.06172839506172839,49.25925925925925,0)" xlink:href="#J"/><use transform="matrix(0.06172839506172839,0,0,0.06172839506172839,55.432098765432094,0)" xlink:href="#K"/></g><path fill="#333" d="M25 0v-261h50V0H25" id="L"/><path fill="#333" d="M110-194c64 0 96 36 96 99 0 64-35 99-97 99-61 0-95-36-95-99 0-62 34-99 96-99zm-1 164c35 0 45-28 45-65 0-40-10-65-43-65-34 0-45 26-45 65 0 36 10 65 43 65" id="M"/><path fill="#333" d="M195-6C206 82 75 100 31 46c-4-6-6-13-8-21l49-6c3 16 16 24 34 25 40 0 42-37 40-79-11 22-30 35-61 35-53 0-70-43-70-97 0-56 18-96 73-97 30 0 46 14 59 34l2-30h47zm-90-29c32 0 41-27 41-63 0-35-9-62-40-62-32 0-39 29-40 63 0 36 9 62 39 62" id="N"/><g id="b"><use transform="matrix(0.06172839506172839,0,0,0.06172839506172839,0,0)" xlink:href="#L"/><use transform="matrix(0.06172839506172839,0,0,0.06172839506172839,6.172839506172839,0)" xlink:href="#M"/><use transform="matrix(0.06172839506172839,0,0,0.06172839506172839,19.691358024691358,0)" xlink:href="#N"/><use transform="matrix(0.06172839506172839,0,0,0.06172839506172839,33.20987654320987,0)" xlink:href="#J"/><use transform="matrix(0.06172839506172839,0,0,0.06172839506172839,39.382716049382715,0)" xlink:href="#K"/></g><path fill="#333" d="M135-150c-39-12-60 13-60 57V0H25l-1-190h47c2 13-1 29 3 40 6-28 27-53 61-41v41" id="O"/><path fill="#333" d="M185-48c-13 30-37 53-82 52C43 2 14-33 14-96s30-98 90-98c62 0 83 45 84 108H66c0 31 8 55 39 56 18 0 30-7 34-22zm-45-69c5-46-57-63-70-21-2 6-4 13-4 21h74" id="P"/><path fill="#333" d="M128 0H69L1-190h53L99-40l48-150h52" id="Q"/><g id="c"><use transform="matrix(0.06172839506172839,0,0,0.06172839506172839,0,0)" xlink:href="#O"/><use transform="matrix(0.06172839506172839,0,0,0.06172839506172839,8.641975308641975,0)" xlink:href="#P"/><use transform="matrix(0.06172839506172839,0,0,0.06172839506172839,20.98765432098765,0)" xlink:href="#I"/><use transform="matrix(0.06172839506172839,0,0,0.06172839506172839,40.74074074074073,0)" xlink:href="#M"/><use transform="matrix(0.06172839506172839,0,0,0.06172839506172839,54.25925925925925,0)" xlink:href="#Q"/><use transform="matrix(0.06172839506172839,0,0,0.06172839506172839,66.60493827160494,0)" xlink:href="#J"/><use transform="matrix(0.06172839506172839,0,0,0.06172839506172839,72.77777777777777,0)" xlink:href="#K"/><use transform="matrix(0.06172839506172839,0,0,0.06172839506172839,86.29629629629629,0)" xlink:href="#N"/></g><path fill="#333" d="M85 4C-2 5 27-109 22-190h50c7 57-23 150 33 157 60-5 35-97 40-157h50l1 190h-47c-2-12 1-28-3-38-12 25-28 42-61 42" id="R"/><path fill="#333" d="M137-138c1-29-70-34-71-4 15 46 118 7 119 86 1 83-164 76-172 9l43-7c4 19 20 25 44 25 33 8 57-30 24-41C81-84 22-81 20-136c-2-80 154-74 161-7" id="S"/><g id="d"><use transform="matrix(0.06172839506172839,0,0,0.06172839506172839,0,0)" xlink:href="#R"/><use transform="matrix(0.06172839506172839,0,0,0.06172839506172839,13.518518518518517,0)" xlink:href="#S"/><use transform="matrix(0.06172839506172839,0,0,0.06172839506172839,25.864197530864196,0)" xlink:href="#P"/><use transform="matrix(0.06172839506172839,0,0,0.06172839506172839,38.20987654320987,0)" xlink:href="#O"/></g><path fill="#333" d="M115-3C79 11 28 4 28-45v-112H4v-33h27l15-45h31v45h36v33H77v99c-1 23 16 31 38 25v30" id="T"/><g id="e"><use transform="matrix(0.06172839506172839,0,0,0.06172839506172839,0,0)" xlink:href="#P"/><use transform="matrix(0.06172839506172839,0,0,0.06172839506172839,12.345679012345679,0)" xlink:href="#H"/><use transform="matrix(0.06172839506172839,0,0,0.06172839506172839,25.864197530864196,0)" xlink:href="#J"/><use transform="matrix(0.06172839506172839,0,0,0.06172839506172839,32.03703703703704,0)" xlink:href="#T"/><use transform="matrix(0.06172839506172839,0,0,0.06172839506172839,39.382716049382715,0)" xlink:href="#J"/><use transform="matrix(0.06172839506172839,0,0,0.06172839506172839,45.55555555555556,0)" xlink:href="#K"/><use transform="matrix(0.06172839506172839,0,0,0.06172839506172839,59.074074074074076,0)" xlink:href="#N"/></g><path fill="#333" d="M133-34C117-15 103 5 69 4 32 3 11-16 11-54c-1-60 55-63 116-61 1-26-3-47-28-47-18 1-26 9-28 27l-52-2c7-38 36-58 82-57s74 22 75 68l1 82c-1 14 12 18 25 15v27c-30 8-71 5-69-32zm-48 3c29 0 43-24 42-57-32 0-66-3-65 30 0 17 8 27 23 27" id="U"/><g id="f"><use transform="matrix(0.06172839506172839,0,0,0.06172839506172839,0,0)" xlink:href="#U"/><use transform="matrix(0.06172839506172839,0,0,0.06172839506172839,12.345679012345679,0)" xlink:href="#H"/><use transform="matrix(0.06172839506172839,0,0,0.06172839506172839,25.864197530864196,0)" xlink:href="#H"/><use transform="matrix(0.06172839506172839,0,0,0.06172839506172839,39.382716049382715,0)" xlink:href="#J"/><use transform="matrix(0.06172839506172839,0,0,0.06172839506172839,45.55555555555556,0)" xlink:href="#K"/><use transform="matrix(0.06172839506172839,0,0,0.06172839506172839,59.074074074074076,0)" xlink:href="#N"/></g><path fill="#333" d="M24 0v-248h195v40H76v63h132v40H76v65h150V0H24" id="V"/><g id="g"><use transform="matrix(0.06172839506172839,0,0,0.06172839506172839,0,0)" xlink:href="#V"/><use transform="matrix(0.06172839506172839,0,0,0.06172839506172839,14.814814814814813,0)" xlink:href="#K"/><use transform="matrix(0.06172839506172839,0,0,0.06172839506172839,28.33333333333333,0)" xlink:href="#T"/><use transform="matrix(0.06172839506172839,0,0,0.06172839506172839,35.679012345679006,0)" xlink:href="#P"/><use transform="matrix(0.06172839506172839,0,0,0.06172839506172839,48.02469135802468,0)" xlink:href="#O"/></g><path fill="#333" d="M121-226c-27-7-43 5-38 36h38v33H83V0H34v-157H6v-33h28c-9-59 32-81 87-68v32" id="W"/><g id="h"><use transform="matrix(0.06172839506172839,0,0,0.06172839506172839,0,0)" xlink:href="#J"/><use transform="matrix(0.06172839506172839,0,0,0.06172839506172839,6.172839506172839,0)" xlink:href="#K"/><use transform="matrix(0.06172839506172839,0,0,0.06172839506172839,19.691358024691358,0)" xlink:href="#W"/><use transform="matrix(0.06172839506172839,0,0,0.06172839506172839,27.037037037037038,0)" xlink:href="#M"/><use transform="matrix(0.06172839506172839,0,0,0.06172839506172839,40.55555555555556,0)" xlink:href="#O"/><use transform="matrix(0.06172839506172839,0,0,0.06172839506172839,49.19753086419753,0)" xlink:href="#I"/><use transform="matrix(0.06172839506172839,0,0,0.06172839506172839,68.95061728395062,0)" xlink:href="#U"/><use transform="matrix(0.06172839506172839,0,0,0.06172839506172839,81.2962962962963,0)" xlink:href="#T"/><use transform="matrix(0.06172839506172839,0,0,0.06172839506172839,88.64197530864199,0)" xlink:href="#J"/><use transform="matrix(0.06172839506172839,0,0,0.06172839506172839,94.81481481481482,0)" xlink:href="#M"/><use transform="matrix(0.06172839506172839,0,0,0.06172839506172839,108.33333333333334,0)" xlink:href="#K"/></g><path fill="#333" d="M169-182c-1-43-94-46-97-3 18 66 151 10 154 114 3 95-165 93-204 36-6-8-10-19-12-30l50-8c3 46 112 56 116 5-17-69-150-10-154-114-4-87 153-88 188-35 5 8 8 18 10 28" id="X"/><path fill="#333" d="M123 10C108 53 80 86 19 72V37c35 8 53-11 59-39L3-190h52l48 148c12-52 28-100 44-148h51" id="Y"/><g id="i"><use transform="matrix(0.06172839506172839,0,0,0.06172839506172839,0,0)" xlink:href="#X"/><use transform="matrix(0.06172839506172839,0,0,0.06172839506172839,14.814814814814813,0)" xlink:href="#Y"/><use transform="matrix(0.06172839506172839,0,0,0.06172839506172839,27.160493827160494,0)" xlink:href="#S"/><use transform="matrix(0.06172839506172839,0,0,0.06172839506172839,39.50617283950617,0)" xlink:href="#T"/><use transform="matrix(0.06172839506172839,0,0,0.06172839506172839,46.85185185185185,0)" xlink:href="#P"/><use transform="matrix(0.06172839506172839,0,0,0.06172839506172839,59.197530864197525,0)" xlink:href="#I"/></g><g id="j"><use transform="matrix(0.06172839506172839,0,0,0.06172839506172839,0,0)" xlink:href="#T"/><use transform="matrix(0.06172839506172839,0,0,0.06172839506172839,7.345679012345679,0)" xlink:href="#P"/><use transform="matrix(0.06172839506172839,0,0,0.06172839506172839,19.691358024691358,0)" xlink:href="#S"/><use transform="matrix(0.06172839506172839,0,0,0.06172839506172839,32.03703703703704,0)" xlink:href="#T"/><use transform="matrix(0.06172839506172839,0,0,0.06172839506172839,39.382716049382715,0)" xlink:href="#J"/><use transform="matrix(0.06172839506172839,0,0,0.06172839506172839,45.55555555555556,0)" xlink:href="#K"/><use transform="matrix(0.06172839506172839,0,0,0.06172839506172839,59.074074074074076,0)" xlink:href="#N"/></g><path fill="#333" d="M114-157C55-157 80-60 75 0H25v-261h50l-1 109c12-26 28-41 61-42 86-1 58 113 63 194h-50c-7-57 23-157-34-157" id="Z"/><g id="k"><use transform="matrix(0.06172839506172839,0,0,0.06172839506172839,0,0)" xlink:href="#T"/><use transform="matrix(0.06172839506172839,0,0,0.06172839506172839,7.345679012345679,0)" xlink:href="#Z"/><use transform="matrix(0.06172839506172839,0,0,0.06172839506172839,20.864197530864196,0)" xlink:href="#P"/></g><g id="l"><use transform="matrix(0.06172839506172839,0,0,0.06172839506172839,0,0)" xlink:href="#H"/><use transform="matrix(0.06172839506172839,0,0,0.06172839506172839,13.518518518518517,0)" xlink:href="#U"/><use transform="matrix(0.06172839506172839,0,0,0.06172839506172839,25.864197530864196,0)" xlink:href="#T"/><use transform="matrix(0.06172839506172839,0,0,0.06172839506172839,33.20987654320987,0)" xlink:href="#U"/></g><path fill="#333" d="M67-125c0 53 21 87 73 88 37 1 54-22 65-47l45 17C233-25 199 4 140 4 58 4 20-42 15-125 8-235 124-281 211-232c18 10 29 29 36 50l-46 12c-8-25-30-41-62-41-52 0-71 34-72 86" id="aa"/><g id="m"><use transform="matrix(0.06172839506172839,0,0,0.06172839506172839,0,0)" xlink:href="#aa"/><use transform="matrix(0.06172839506172839,0,0,0.06172839506172839,15.987654320987653,0)" xlink:href="#M"/><use transform="matrix(0.06172839506172839,0,0,0.06172839506172839,29.50617283950617,0)" xlink:href="#K"/><use transform="matrix(0.06172839506172839,0,0,0.06172839506172839,43.02469135802469,0)" xlink:href="#W"/><use transform="matrix(0.06172839506172839,0,0,0.06172839506172839,50.37037037037037,0)" xlink:href="#J"/><use transform="matrix(0.06172839506172839,0,0,0.06172839506172839,56.54320987654321,0)" xlink:href="#O"/><use transform="matrix(0.06172839506172839,0,0,0.06172839506172839,65.18518518518519,0)" xlink:href="#I"/></g><g id="n"><use transform="matrix(0.06172839506172839,0,0,0.06172839506172839,0,0)" xlink:href="#R"/><use transform="matrix(0.06172839506172839,0,0,0.06172839506172839,13.518518518518517,0)" xlink:href="#S"/><use transform="matrix(0.06172839506172839,0,0,0.06172839506172839,25.864197530864196,0)" xlink:href="#P"/><use transform="matrix(0.06172839506172839,0,0,0.06172839506172839,38.20987654320987,0)" xlink:href="#O"/></g><path fill="#333" d="M24 0v-248h52V0H24" id="ab"/><g id="o"><use transform="matrix(0.06172839506172839,0,0,0.06172839506172839,0,0)" xlink:href="#ab"/><use transform="matrix(0.06172839506172839,0,0,0.06172839506172839,6.172839506172839,0)" xlink:href="#K"/><use transform="matrix(0.06172839506172839,0,0,0.06172839506172839,19.691358024691358,0)" xlink:href="#Q"/><use transform="matrix(0.06172839506172839,0,0,0.06172839506172839,32.03703703703704,0)" xlink:href="#U"/><use transform="matrix(0.06172839506172839,0,0,0.06172839506172839,44.382716049382715,0)" xlink:href="#L"/><use transform="matrix(0.06172839506172839,0,0,0.06172839506172839,50.55555555555556,0)" xlink:href="#J"/><use transform="matrix(0.06172839506172839,0,0,0.06172839506172839,56.7283950617284,0)" xlink:href="#H"/></g><g id="p"><use transform="matrix(0.04938271604938272,0,0,0.04938271604938272,0,0)" xlink:href="#ab"/><use transform="matrix(0.04938271604938272,0,0,0.04938271604938272,4.938271604938272,0)" xlink:href="#K"/><use transform="matrix(0.04938271604938272,0,0,0.04938271604938272,15.753086419753087,0)" xlink:href="#Q"/><use transform="matrix(0.04938271604938272,0,0,0.04938271604938272,25.629629629629633,0)" xlink:href="#U"/><use transform="matrix(0.04938271604938272,0,0,0.04938271604938272,35.50617283950618,0)" xlink:href="#L"/><use transform="matrix(0.04938271604938272,0,0,0.04938271604938272,40.44444444444445,0)" xlink:href="#J"/><use transform="matrix(0.04938271604938272,0,0,0.04938271604938272,45.38271604938272,0)" xlink:href="#H"/></g><path fill="#333" d="M24 0v-248h52v208h133V0H24" id="ac"/><g id="q"><use transform="matrix(0.05555555555555555,0,0,0.05555555555555555,0,0)" xlink:href="#ac"/><use transform="matrix(0.05555555555555555,0,0,0.05555555555555555,12.166666666666666,0)" xlink:href="#M"/><use transform="matrix(0.05555555555555555,0,0,0.05555555555555555,24.333333333333332,0)" xlink:href="#N"/><use transform="matrix(0.05555555555555555,0,0,0.05555555555555555,36.5,0)" xlink:href="#N"/><use transform="matrix(0.05555555555555555,0,0,0.05555555555555555,48.666666666666664,0)" xlink:href="#P"/><use transform="matrix(0.05555555555555555,0,0,0.05555555555555555,59.77777777777777,0)" xlink:href="#H"/></g><g id="r"><use transform="matrix(0.05555555555555555,0,0,0.05555555555555555,0,0)" xlink:href="#J"/><use transform="matrix(0.05555555555555555,0,0,0.05555555555555555,5.555555555555555,0)" xlink:href="#K"/></g><path fill="#333" d="M240-174c0 40-23 61-54 70L253 0h-59l-57-94H76V0H24v-248c93 4 217-23 216 74zM76-134c48-2 112 12 112-38 0-48-66-32-112-35v73" id="ad"/><g id="s"><use transform="matrix(0.05555555555555555,0,0,0.05555555555555555,0,0)" xlink:href="#ad"/><use transform="matrix(0.05555555555555555,0,0,0.05555555555555555,14.388888888888888,0)" xlink:href="#P"/><use transform="matrix(0.05555555555555555,0,0,0.05555555555555555,25.5,0)" xlink:href="#I"/><use transform="matrix(0.05555555555555555,0,0,0.05555555555555555,43.27777777777778,0)" xlink:href="#M"/><use transform="matrix(0.05555555555555555,0,0,0.05555555555555555,55.44444444444444,0)" xlink:href="#Q"/><use transform="matrix(0.05555555555555555,0,0,0.05555555555555555,66.55555555555556,0)" xlink:href="#P"/></g><g id="t"><use transform="matrix(0.05555555555555555,0,0,0.05555555555555555,0,0)" xlink:href="#R"/><use transform="matrix(0.05555555555555555,0,0,0.05555555555555555,12.166666666666666,0)" xlink:href="#S"/><use transform="matrix(0.05555555555555555,0,0,0.05555555555555555,23.27777777777778,0)" xlink:href="#P"/><use transform="matrix(0.05555555555555555,0,0,0.05555555555555555,34.388888888888886,0)" xlink:href="#O"/></g><g id="u"><use transform="matrix(0.05555555555555555,0,0,0.05555555555555555,0,0)" xlink:href="#ab"/><use transform="matrix(0.05555555555555555,0,0,0.05555555555555555,5.555555555555555,0)" xlink:href="#K"/><use transform="matrix(0.05555555555555555,0,0,0.05555555555555555,17.72222222222222,0)" xlink:href="#W"/><use transform="matrix(0.05555555555555555,0,0,0.05555555555555555,24.333333333333332,0)" xlink:href="#M"/><use transform="matrix(0.05555555555555555,0,0,0.05555555555555555,36.5,0)" xlink:href="#O"/><use transform="matrix(0.05555555555555555,0,0,0.05555555555555555,44.27777777777778,0)" xlink:href="#I"/><use transform="matrix(0.05555555555555555,0,0,0.05555555555555555,62.05555555555555,0)" xlink:href="#U"/><use transform="matrix(0.05555555555555555,0,0,0.05555555555555555,73.16666666666667,0)" xlink:href="#T"/><use transform="matrix(0.05555555555555555,0,0,0.05555555555555555,79.77777777777779,0)" xlink:href="#J"/><use transform="matrix(0.05555555555555555,0,0,0.05555555555555555,85.33333333333334,0)" xlink:href="#M"/><use transform="matrix(0.05555555555555555,0,0,0.05555555555555555,97.50000000000001,0)" xlink:href="#K"/></g><g id="v"><use transform="matrix(0.05555555555555555,0,0,0.05555555555555555,0,0)" xlink:href="#P"/><use transform="matrix(0.05555555555555555,0,0,0.05555555555555555,11.11111111111111,0)" xlink:href="#K"/><use transform="matrix(0.05555555555555555,0,0,0.05555555555555555,23.27777777777778,0)" xlink:href="#T"/><use transform="matrix(0.05555555555555555,0,0,0.05555555555555555,29.888888888888886,0)" xlink:href="#P"/><use transform="matrix(0.05555555555555555,0,0,0.05555555555555555,41,0)" xlink:href="#O"/><use transform="matrix(0.05555555555555555,0,0,0.05555555555555555,48.77777777777778,0)" xlink:href="#P"/><use transform="matrix(0.05555555555555555,0,0,0.05555555555555555,59.888888888888886,0)" xlink:href="#H"/></g><path fill="#333" d="M238-95c0 69-44 99-111 99C63 4 22-25 22-93v-155h51v151c-1 38 19 59 55 60 90 1 49-130 58-211h52v153" id="ae"/><g id="w"><use transform="matrix(0.05555555555555555,0,0,0.05555555555555555,0,0)" xlink:href="#ae"/><use transform="matrix(0.05555555555555555,0,0,0.05555555555555555,14.388888888888888,0)" xlink:href="#S"/><use transform="matrix(0.05555555555555555,0,0,0.05555555555555555,25.5,0)" xlink:href="#P"/><use transform="matrix(0.05555555555555555,0,0,0.05555555555555555,36.611111111111114,0)" xlink:href="#O"/></g><g id="x"><use transform="matrix(0.05555555555555555,0,0,0.05555555555555555,0,0)" xlink:href="#O"/><use transform="matrix(0.05555555555555555,0,0,0.05555555555555555,7.777777777777778,0)" xlink:href="#P"/><use transform="matrix(0.05555555555555555,0,0,0.05555555555555555,18.88888888888889,0)" xlink:href="#I"/><use transform="matrix(0.05555555555555555,0,0,0.05555555555555555,36.66666666666667,0)" xlink:href="#M"/><use transform="matrix(0.05555555555555555,0,0,0.05555555555555555,48.833333333333336,0)" xlink:href="#Q"/><use transform="matrix(0.05555555555555555,0,0,0.05555555555555555,59.94444444444444,0)" xlink:href="#P"/><use transform="matrix(0.05555555555555555,0,0,0.05555555555555555,71.05555555555556,0)" xlink:href="#H"/></g><g id="y"><use transform="matrix(0.05555555555555555,0,0,0.05555555555555555,0,0)" xlink:href="#V"/><use transform="matrix(0.05555555555555555,0,0,0.05555555555555555,13.333333333333332,0)" xlink:href="#H"/><use transform="matrix(0.05555555555555555,0,0,0.05555555555555555,25.5,0)" xlink:href="#J"/><use transform="matrix(0.05555555555555555,0,0,0.05555555555555555,31.05555555555556,0)" xlink:href="#T"/></g><g id="z"><use transform="matrix(0.05555555555555555,0,0,0.05555555555555555,0,0)" xlink:href="#G"/><use transform="matrix(0.05555555555555555,0,0,0.05555555555555555,14.388888888888888,0)" xlink:href="#H"/><use transform="matrix(0.05555555555555555,0,0,0.05555555555555555,26.555555555555554,0)" xlink:href="#H"/></g><g id="A"><use transform="matrix(0.05555555555555555,0,0,0.05555555555555555,0,0)" xlink:href="#U"/><use transform="matrix(0.05555555555555555,0,0,0.05555555555555555,11.11111111111111,0)" xlink:href="#H"/><use transform="matrix(0.05555555555555555,0,0,0.05555555555555555,23.27777777777778,0)" xlink:href="#H"/><use transform="matrix(0.05555555555555555,0,0,0.05555555555555555,35.44444444444444,0)" xlink:href="#P"/><use transform="matrix(0.05555555555555555,0,0,0.05555555555555555,46.55555555555556,0)" xlink:href="#H"/></g><path fill="#333" d="M62-158H24l-5-90h48" id="af"/><g id="B"><use transform="matrix(0.05555555555555555,0,0,0.05555555555555555,0,0)" xlink:href="#ae"/><use transform="matrix(0.05555555555555555,0,0,0.05555555555555555,14.388888888888888,0)" xlink:href="#S"/><use transform="matrix(0.05555555555555555,0,0,0.05555555555555555,25.5,0)" xlink:href="#P"/><use transform="matrix(0.05555555555555555,0,0,0.05555555555555555,36.611111111111114,0)" xlink:href="#O"/><use transform="matrix(0.05555555555555555,0,0,0.05555555555555555,44.38888888888889,0)" xlink:href="#S"/><use transform="matrix(0.05555555555555555,0,0,0.05555555555555555,55.5,0)" xlink:href="#af"/><use transform="matrix(0.05555555555555555,0,0,0.05555555555555555,60.22222222222222,0)" xlink:href="#S"/></g><g id="C"><use transform="matrix(0.05555555555555555,0,0,0.05555555555555555,0,0)" xlink:href="#H"/><use transform="matrix(0.05555555555555555,0,0,0.05555555555555555,12.166666666666666,0)" xlink:href="#U"/><use transform="matrix(0.05555555555555555,0,0,0.05555555555555555,23.27777777777778,0)" xlink:href="#T"/><use transform="matrix(0.05555555555555555,0,0,0.05555555555555555,29.888888888888886,0)" xlink:href="#U"/></g><g id="D"><use transform="matrix(0.05555555555555555,0,0,0.05555555555555555,0,0)" xlink:href="#I"/><use transform="matrix(0.05555555555555555,0,0,0.05555555555555555,17.77777777777778,0)" xlink:href="#M"/><use transform="matrix(0.05555555555555555,0,0,0.05555555555555555,29.944444444444443,0)" xlink:href="#H"/><use transform="matrix(0.05555555555555555,0,0,0.05555555555555555,42.11111111111111,0)" xlink:href="#J"/><use transform="matrix(0.05555555555555555,0,0,0.05555555555555555,47.666666666666664,0)" xlink:href="#W"/><use transform="matrix(0.05555555555555555,0,0,0.05555555555555555,54.27777777777777,0)" xlink:href="#J"/><use transform="matrix(0.05555555555555555,0,0,0.05555555555555555,59.83333333333333,0)" xlink:href="#P"/><use transform="matrix(0.05555555555555555,0,0,0.05555555555555555,70.94444444444444,0)" xlink:href="#H"/></g><path fill="#333" d="M190-63c-7 42-38 67-86 67-59 0-84-38-90-98-12-110 154-137 174-36l-49 2c-2-19-15-32-35-32-30 0-35 28-38 64-6 74 65 87 74 30" id="ag"/><g id="E"><use transform="matrix(0.05555555555555555,0,0,0.05555555555555555,0,0)" xlink:href="#aa"/><use transform="matrix(0.05555555555555555,0,0,0.05555555555555555,14.388888888888888,0)" xlink:href="#M"/><use transform="matrix(0.05555555555555555,0,0,0.05555555555555555,26.555555555555554,0)" xlink:href="#O"/><use transform="matrix(0.05555555555555555,0,0,0.05555555555555555,34.33333333333333,0)" xlink:href="#O"/><use transform="matrix(0.05555555555555555,0,0,0.05555555555555555,42.11111111111111,0)" xlink:href="#P"/><use transform="matrix(0.05555555555555555,0,0,0.05555555555555555,53.222222222222214,0)" xlink:href="#ag"/><use transform="matrix(0.05555555555555555,0,0,0.05555555555555555,64.33333333333333,0)" xlink:href="#T"/></g><g id="F"><use transform="matrix(0.05555555555555555,0,0,0.05555555555555555,0,0)" xlink:href="#H"/><use transform="matrix(0.05555555555555555,0,0,0.05555555555555555,12.166666666666666,0)" xlink:href="#U"/><use transform="matrix(0.05555555555555555,0,0,0.05555555555555555,23.27777777777778,0)" xlink:href="#T"/><use transform="matrix(0.05555555555555555,0,0,0.05555555555555555,29.888888888888886,0)" xlink:href="#U"/></g></defs></g></svg>