<svg xmlns="http://www.w3.org/2000/svg" xmlns:xlink="http://www.w3.org/1999/xlink" xmlns:lucid="lucid" width="720.65" height="1161"><g transform="translate(-1181.1635802469136 -259.5)" lucid:page-tab-id="0_0"><path d="M1710 300c0 11.05-8.95 20-20 20s-20-8.95-20-20 8.95-20 20-20 20 8.95 20 20z" stroke="#666"/><path d="M1690 321v53.13" stroke="#333" fill="none"/><path d="M1689.98 320.5l.52-.02v.53h-1v-.56z" stroke="#333" stroke-width=".05" fill="#333"/><path d="M1690 388.9l-4.63-14.27h9.27z" stroke="#333" fill="#333"/><path d="M1280 757.47l.14 1.82.42 1.75.7 1.66.94 1.55 1.17 1.37 1.37 1.17 1.54.94 1.67.7 1.75.4 1.82.15h291.26v1h-291.3l-1.94-.16-1.9-.46-1.82-.75-1.67-1.02-1.5-1.27-1.26-1.5-1.04-1.66-.75-1.8-.45-1.92-.15-1.94v-76.8h1zM1319 550h-27.48l-1.82.13-1.75.43-1.67.7-1.54.93-1.37 1.16-1.17 1.37-.94 1.54-.7 1.67-.42 1.75-.14 1.8v94.93h-1v-94.96l.15-1.93.46-1.9.76-1.82 1.03-1.68 1.26-1.5 1.5-1.26 1.66-1.03 1.82-.75 1.9-.46 1.94-.15H1319z" stroke="#333" stroke-width=".05" fill="#333"/><path d="M1319.5 550h-.5v-1h.5z" fill="#333"/><path d="M1319.53 550.02h-.57v-1.05h.57zm-.52-1v.95h.47v-.95z" stroke="#333" stroke-width=".05" fill="#333"/><path d="M1597.54 769.5l-14.26 4.63v-9.27z" fill="#333"/><path d="M1599.16 769.5l-16.38 5.32v-10.65zm-15.38 3.94l12.15-3.95-12.15-3.96z" stroke="#333" stroke-width=".05" fill="#333"/><use xlink:href="#a" transform="matrix(1,0,0,1,1183.1635802469136,656.4258894098965) translate(0.0049999999999954525 16.177777777777777)"/><use xlink:href="#b" transform="matrix(1,0,0,1,1183.1635802469136,656.4258894098965) translate(68.31117283950616 16.177777777777777)"/><use xlink:href="#c" transform="matrix(1,0,0,1,1183.1635802469136,656.4258894098965) translate(162.4568518518518 16.177777777777777)"/><path d="M1599.8 391c-10.94 0-19.8 8.88-19.8 19.8v59.4c0 10.94 8.86 19.8 19.8 19.8h180.4c10.94 0 19.8-8.86 19.8-19.8v-59.4c0-10.92-8.86-19.8-19.8-19.8z" stroke="#333" fill="#cfe4ff"/><use xlink:href="#d" transform="matrix(1,0,0,1,1588,399.01533818931983) translate(16.189506172839582 33.45555555555556)"/><use xlink:href="#e" transform="matrix(1,0,0,1,1588,399.01533818931983) translate(127.31666666666665 33.45555555555556)"/><use xlink:href="#f" transform="matrix(1,0,0,1,1588,399.01533818931983) translate(157.56358024691355 33.45555555555556)"/><use xlink:href="#g" transform="matrix(1,0,0,1,1588,399.01533818931983) translate(67.54876543209879 61.45555555555554)"/><path d="M1619.46 720c-10.93 0-19.8 8.86-19.8 19.8v59.4c0 10.92 8.87 19.78 19.8 19.78h141.08c10.93 0 19.8-8.86 19.8-19.8V739.8c0-10.94-8.87-19.8-19.8-19.8z" stroke="#333" fill="#cfe4ff"/><use xlink:href="#h" transform="matrix(1,0,0,1,1607.6623830148183,728) translate(32.3203703703704 47.45555555555555)"/><path d="M1720.34 1370c0 16.57-13.43 30-30 30s-30-13.43-30-30 13.43-30 30-30 30 13.43 30 30z" stroke="#333" fill="#fff"/><path d="M1708.34 1370c0 9.94-8.06 18-18 18s-18-8.06-18-18 8.06-18 18-18 18 8.06 18 18z" stroke="#333"/><path d="M1821.34 967.03l-.15 1.93-.47 1.9-.75 1.82-1.03 1.68-1.27 1.5-1.5 1.26-1.67 1.03-1.8.75-1.9.46-1.94.15h-291.3v-1h291.26l1.82-.14 1.75-.42 1.66-.7 1.54-.93 1.37-1.16 1.17-1.37.94-1.54.7-1.67.4-1.75.16-1.8v-66.56h1zm-10.55-197.88l1.9.45 1.8.75 1.7 1.03 1.48 1.27 1.27 1.5 1.03 1.67.75 1.8.45 1.92.16 1.93v94.7h-1V781.5l-.14-1.8-.43-1.76-.7-1.67-.93-1.54-1.17-1.37-1.37-1.17-1.54-.95-1.67-.7-1.76-.4-1.82-.16h-27.48v-1h27.52z" stroke="#333" stroke-width=".05" fill="#333"/><path d="M1781.35 770h-.5v-1h.5z" fill="#333"/><path d="M1781.38 770.02h-.57v-1.05h.58zm-.52-1v.95h.47v-.95z" stroke="#333" stroke-width=".05" fill="#333"/><path d="M1517.06 983.64L1502.8 979l14.26-4.63z" fill="#333"/><path d="M1517.56 984.33l-16.38-5.32 16.38-5.32zM1504.4 979l12.16 3.95v-7.9z" stroke="#333" stroke-width=".05" fill="#333"/><use xlink:href="#i" transform="matrix(1,0,0,1,1741.8586046691394,876.1707134750854) translate(0.0049999999999954525 16.177777777777777)"/><use xlink:href="#j" transform="matrix(1,0,0,1,1741.8586046691394,876.1707134750854) translate(66.06425925925925 16.177777777777777)"/><path d="M1339.8 900c-10.94 0-19.8 8.86-19.8 19.8v59.4c0 10.92 8.86 19.78 19.8 19.78h141.08c10.93 0 19.8-8.86 19.8-19.8V919.8c0-10.94-8.87-19.8-19.8-19.8z" stroke="#333" fill="#cfe4ff"/><use xlink:href="#k" transform="matrix(1,0,0,1,1328,908) translate(24.486419753086448 47.45555555555555)"/><path d="M1339.8 500c-10.94 0-19.8 8.86-19.8 19.8v59.4c0 10.92 8.86 19.78 19.8 19.78h141.08c10.93 0 19.8-8.86 19.8-19.8V519.8c0-10.94-8.87-19.8-19.8-19.8z" stroke="#333" fill="#cfe4ff"/><use xlink:href="#l" transform="matrix(1,0,0,1,1328,508) translate(49.07716049382718 47.45555555555555)"/><path d="M1690.5 537.5l-.15 1.95-.46 1.9-.76 1.82-1.03 1.67-1.26 1.5-1.5 1.27-1.66 1.03-1.82.75-1.9.46-1.94.15h-160.46v-1h160.42l1.82-.15 1.75-.42 1.67-.7 1.54-.94 1.37-1.18 1.17-1.37.94-1.54.7-1.65.42-1.76.14-1.83v-1.68h1zm0-25.98h-1V491h1z" stroke="#333" stroke-width=".05" fill="#333"/><path d="M1690.5 491h-1v-.5h1z" fill="#333"/><path d="M1690.53 491.04h-1.06v-.56h1.06zm-1-.52v.47h.94v-.48z" stroke="#333" stroke-width=".05" fill="#333"/><path d="M1517.06 554.13l-14.27-4.64 14.26-4.64z" fill="#333"/><path d="M1517.56 554.82l-16.38-5.33 16.38-5.33zm-13.15-5.33l12.16 3.94v-7.9z" stroke="#333" stroke-width=".05" fill="#333"/><use xlink:href="#m" transform="matrix(1,0,0,1,1576.3061728395062,511.5245214520435) translate(0.0049999999999954525 16.177777777777777)"/><use xlink:href="#n" transform="matrix(1,0,0,1,1576.3061728395062,511.5245214520435) translate(44.77475308641974 16.177777777777777)"/><use xlink:href="#o" transform="matrix(1,0,0,1,1576.3061728395062,511.5245214520435) translate(62.69388888888888 16.177777777777777)"/><use xlink:href="#p" transform="matrix(1,0,0,1,1576.3061728395062,511.5245214520435) translate(87.29759259259258 16.177777777777777)"/><use xlink:href="#q" transform="matrix(1,0,0,1,1576.3061728395062,511.5245214520435) translate(123.13586419753085 16.177777777777777)"/><use xlink:href="#r" transform="matrix(1,0,0,1,1576.3061728395062,511.5245214520435) translate(198.23895061728393 16.177777777777777)"/><path d="M1319 950h-27.48l-1.82.13-1.75.43-1.67.7-1.54.93-1.37 1.16-1.17 1.37-.94 1.54-.7 1.67-.42 1.75-.14 1.8v155.97l.14 1.82.42 1.75.7 1.66.94 1.55 1.17 1.37 1.37 1.18 1.54.94 1.67.7 1.75.4 1.82.15h291.6v1h-291.64l-1.94-.16-1.9-.46-1.82-.75-1.67-1.02-1.5-1.27-1.26-1.5-1.04-1.66-.75-1.8-.45-1.92-.15-1.94V961.48l.15-1.93.46-1.9.76-1.82 1.03-1.68 1.26-1.5 1.5-1.26 1.66-1.03 1.82-.75 1.9-.46 1.94-.15H1319z" stroke="#333" stroke-width=".05" fill="#333"/><path d="M1319.5 950h-.5v-1h.5z" fill="#333"/><path d="M1319.53 950.02h-.57v-1.05h.57zm-.52-1v.95h.47v-.95z" stroke="#333" stroke-width=".05" fill="#333"/><path d="M1597.88 1129.5l-14.26 4.63v-9.27z" fill="#333"/><path d="M1599.5 1129.5l-16.38 5.32v-10.65zm-15.38 3.94l12.14-3.95-12.14-3.95z" stroke="#333" stroke-width=".05" fill="#333"/><g><use xlink:href="#s" transform="matrix(1,0,0,1,1279.5,1080.7489052786104) translate(0.004999999999999005 18.844444444444438)"/></g><path d="M1619.8 1080c-10.94 0-19.8 8.86-19.8 19.8v59.4c0 10.92 8.86 19.78 19.8 19.78h141.08c10.93 0 19.8-8.86 19.8-19.8v-59.38c0-10.94-8.87-19.8-19.8-19.8z" stroke="#333" fill="#cfe4ff"/><g><use xlink:href="#t" transform="matrix(1,0,0,1,1608.0000000177354,1088) translate(36.585185185185196 47.45555555555555)"/></g><path d="M1691.17 1323.14h-1v-51.3h1zm-.33-103.1h-1v-40.06h1z" stroke="#333" stroke-width=".05" fill="#333"/><path d="M1690.84 1180h-1v-.52h1z" fill="#333"/><path d="M1690.86 1180.02h-1.05v-.56h1.06zm-1-.5v.45h.95v-.46z" stroke="#333" stroke-width=".05" fill="#333"/><path d="M1690.67 1337.9l-4.63-14.26h9.27z" fill="#333"/><path d="M1690.67 1339.53l-5.32-16.4H1696zm-3.94-15.4l3.94 12.16 3.95-12.16z" stroke="#333" stroke-width=".05" fill="#333"/><g><use xlink:href="#u" transform="matrix(1,0,0,1,1635.0660120646455,1220.0432063725477) translate(28.197592592592574 18.844444444444438)"/><use xlink:href="#v" transform="matrix(1,0,0,1,1635.0660120646455,1220.0432063725477) translate(0.004999999999999005 43.98730158730157)"/></g><defs><path fill="#333" d="M88-194c31-1 46 15 58 34l-1-101h50l1 261h-48c-2-10 0-23-3-31C134-8 116 4 84 4 32 4 16-41 15-95c0-56 19-97 73-99zm17 164c33 0 40-30 41-66 1-37-9-64-41-64s-38 30-39 65c0 43 13 65 39 65" id="w"/><path fill="#333" d="M110-194c64 0 96 36 96 99 0 64-35 99-97 99-61 0-95-36-95-99 0-62 34-99 96-99zm-1 164c35 0 45-28 45-65 0-40-10-65-43-65-34 0-45 26-45 65 0 36 10 65 43 65" id="x"/><path fill="#333" d="M190-63c-7 42-38 67-86 67-59 0-84-38-90-98-12-110 154-137 174-36l-49 2c-2-19-15-32-35-32-30 0-35 28-38 64-6 74 65 87 74 30" id="y"/><path fill="#333" d="M115-3C79 11 28 4 28-45v-112H4v-33h27l15-45h31v45h36v33H77v99c-1 23 16 31 38 25v30" id="z"/><path fill="#333" d="M135-150c-39-12-60 13-60 57V0H25l-1-190h47c2 13-1 29 3 40 6-28 27-53 61-41v41" id="A"/><g id="a"><use transform="matrix(0.056172839506172835,0,0,0.056172839506172835,0,0)" xlink:href="#w"/><use transform="matrix(0.056172839506172835,0,0,0.056172839506172835,12.30185185185185,0)" xlink:href="#x"/><use transform="matrix(0.056172839506172835,0,0,0.056172839506172835,24.6037037037037,0)" xlink:href="#y"/><use transform="matrix(0.056172839506172835,0,0,0.056172839506172835,35.83827160493827,0)" xlink:href="#z"/><use transform="matrix(0.056172839506172835,0,0,0.056172839506172835,42.522839506172836,0)" xlink:href="#x"/><use transform="matrix(0.056172839506172835,0,0,0.056172839506172835,54.82469135802469,0)" xlink:href="#A"/></g><path fill="#333" d="M25-224v-37h50v37H25zM25 0v-190h50V0H25" id="B"/><path fill="#333" d="M133-34C117-15 103 5 69 4 32 3 11-16 11-54c-1-60 55-63 116-61 1-26-3-47-28-47-18 1-26 9-28 27l-52-2c7-38 36-58 82-57s74 22 75 68l1 82c-1 14 12 18 25 15v27c-30 8-71 5-69-32zm-48 3c29 0 43-24 42-57-32 0-66-3-65 30 0 17 8 27 23 27" id="C"/><path fill="#333" d="M195-6C206 82 75 100 31 46c-4-6-6-13-8-21l49-6c3 16 16 24 34 25 40 0 42-37 40-79-11 22-30 35-61 35-53 0-70-43-70-97 0-56 18-96 73-97 30 0 46 14 59 34l2-30h47zm-90-29c32 0 41-27 41-63 0-35-9-62-40-62-32 0-39 29-40 63 0 36 9 62 39 62" id="D"/><path fill="#333" d="M135-194c87-1 58 113 63 194h-50c-7-57 23-157-34-157-59 0-34 97-39 157H25l-1-190h47c2 12-1 28 3 38 12-26 28-41 61-42" id="E"/><path fill="#333" d="M137-138c1-29-70-34-71-4 15 46 118 7 119 86 1 83-164 76-172 9l43-7c4 19 20 25 44 25 33 8 57-30 24-41C81-84 22-81 20-136c-2-80 154-74 161-7" id="F"/><path fill="#333" d="M185-48c-13 30-37 53-82 52C43 2 14-33 14-96s30-98 90-98c62 0 83 45 84 108H66c0 31 8 55 39 56 18 0 30-7 34-22zm-45-69c5-46-57-63-70-21-2 6-4 13-4 21h74" id="G"/><g id="b"><use transform="matrix(0.056172839506172835,0,0,0.056172839506172835,0,0)" xlink:href="#w"/><use transform="matrix(0.056172839506172835,0,0,0.056172839506172835,12.30185185185185,0)" xlink:href="#B"/><use transform="matrix(0.056172839506172835,0,0,0.056172839506172835,17.919135802469135,0)" xlink:href="#C"/><use transform="matrix(0.056172839506172835,0,0,0.056172839506172835,29.1537037037037,0)" xlink:href="#D"/><use transform="matrix(0.056172839506172835,0,0,0.056172839506172835,41.45555555555555,0)" xlink:href="#E"/><use transform="matrix(0.056172839506172835,0,0,0.056172839506172835,53.7574074074074,0)" xlink:href="#x"/><use transform="matrix(0.056172839506172835,0,0,0.056172839506172835,66.05925925925925,0)" xlink:href="#F"/><use transform="matrix(0.056172839506172835,0,0,0.056172839506172835,77.29382716049382,0)" xlink:href="#G"/></g><path fill="#333" d="M135-194c53 0 70 44 70 98 0 56-19 98-73 100-31 1-45-17-59-34 3 33 2 69 2 105H25l-1-265h48c2 10 0 23 3 31 11-24 29-35 60-35zM114-30c33 0 39-31 40-66 0-38-9-64-40-64-56 0-55 130 0 130" id="H"/><g id="c"><use transform="matrix(0.056172839506172835,0,0,0.056172839506172835,0,0)" xlink:href="#H"/><use transform="matrix(0.056172839506172835,0,0,0.056172839506172835,12.30185185185185,0)" xlink:href="#G"/><use transform="matrix(0.056172839506172835,0,0,0.056172839506172835,23.536419753086417,0)" xlink:href="#z"/></g><path d="M233-177c-1 41-23 64-60 70L243 0h-38l-65-103H63V0H30v-248c88 3 205-21 203 71zM63-129c60-2 137 13 137-47 0-61-80-42-137-45v92" id="I"/><path d="M100-194c63 0 86 42 84 106H49c0 40 14 67 53 68 26 1 43-12 49-29l28 8c-11 28-37 45-77 45C44 4 14-33 15-96c1-61 26-98 85-98zm52 81c6-60-76-77-97-28-3 7-6 17-6 28h103" id="J"/><path d="M177-190C167-65 218 103 67 71c-23-6-38-20-44-43l32-5c15 47 100 32 89-28v-30C133-14 115 1 83 1 29 1 15-40 15-95c0-56 16-97 71-98 29-1 48 16 59 35 1-10 0-23 2-32h30zM94-22c36 0 50-32 50-73 0-42-14-75-50-75-39 0-46 34-46 75s6 73 46 73" id="K"/><path d="M24-231v-30h32v30H24zM24 0v-190h32V0H24" id="L"/><path d="M135-143c-3-34-86-38-87 0 15 53 115 12 119 90S17 21 10-45l28-5c4 36 97 45 98 0-10-56-113-15-118-90-4-57 82-63 122-42 12 7 21 19 24 35" id="M"/><path d="M59-47c-2 24 18 29 38 22v24C64 9 27 4 27-40v-127H5v-23h24l9-43h21v43h35v23H59v120" id="N"/><path d="M114-163C36-179 61-72 57 0H25l-1-190h30c1 12-1 29 2 39 6-27 23-49 58-41v29" id="O"/><path d="M85-194c31 0 48 13 60 33l-1-100h32l1 261h-30c-2-10 0-23-3-31C134-8 116 4 85 4 32 4 16-35 15-94c0-66 23-100 70-100zm9 24c-40 0-46 34-46 75 0 40 6 74 45 74 42 0 51-32 51-76 0-42-9-74-50-73" id="P"/><g id="d"><use transform="matrix(0.06049382716049378,0,0,0.06049382716049378,0,0)" xlink:href="#I"/><use transform="matrix(0.06049382716049378,0,0,0.06049382716049378,15.66790123456789,0)" xlink:href="#J"/><use transform="matrix(0.06049382716049378,0,0,0.06049382716049378,27.766666666666644,0)" xlink:href="#K"/><use transform="matrix(0.06049382716049378,0,0,0.06049382716049378,39.865432098765396,0)" xlink:href="#L"/><use transform="matrix(0.06049382716049378,0,0,0.06049382716049378,44.6444444444444,0)" xlink:href="#M"/><use transform="matrix(0.06049382716049378,0,0,0.06049382716049378,55.53333333333328,0)" xlink:href="#N"/><use transform="matrix(0.06049382716049378,0,0,0.06049382716049378,61.58271604938266,0)" xlink:href="#J"/><use transform="matrix(0.06049382716049378,0,0,0.06049382716049378,73.68148148148141,0)" xlink:href="#O"/><use transform="matrix(0.06049382716049378,0,0,0.06049382716049378,80.88024691358017,0)" xlink:href="#J"/><use transform="matrix(0.06049382716049378,0,0,0.06049382716049378,92.97901234567892,0)" xlink:href="#P"/></g><path d="M100-194c62-1 85 37 85 99 1 63-27 99-86 99S16-35 15-95c0-66 28-99 85-99zM99-20c44 1 53-31 53-75 0-43-8-75-51-75s-53 32-53 75 10 74 51 75" id="Q"/><path d="M117-194c89-4 53 116 60 194h-32v-121c0-31-8-49-39-48C34-167 62-67 57 0H25l-1-190h30c1 10-1 24 2 32 11-22 29-35 61-36" id="R"/><g id="e"><use transform="matrix(0.06049382716049378,0,0,0.06049382716049378,0,0)" xlink:href="#Q"/><use transform="matrix(0.06049382716049378,0,0,0.06049382716049378,12.098765432098755,0)" xlink:href="#R"/></g><path d="M106-169C34-169 62-67 57 0H25v-261h32l-1 103c12-21 28-36 61-36 89 0 53 116 60 194h-32v-121c2-32-8-49-39-48" id="S"/><g id="f"><use transform="matrix(0.06049382716049378,0,0,0.06049382716049378,0,0)" xlink:href="#N"/><use transform="matrix(0.06049382716049378,0,0,0.06049382716049378,6.049382716049378,0)" xlink:href="#S"/><use transform="matrix(0.06049382716049378,0,0,0.06049382716049378,18.14814814814813,0)" xlink:href="#J"/></g><path d="M179-190L93 31C79 59 56 82 12 73V49c39 6 53-20 64-50L1-190h34L92-34l54-156h33" id="T"/><path d="M210-169c-67 3-38 105-44 169h-31v-121c0-29-5-50-35-48C34-165 62-65 56 0H25l-1-190h30c1 10-1 24 2 32 10-44 99-50 107 0 11-21 27-35 58-36 85-2 47 119 55 194h-31v-121c0-29-5-49-35-48" id="U"/><g id="g"><use transform="matrix(0.06049382716049378,0,0,0.06049382716049378,0,0)" xlink:href="#M"/><use transform="matrix(0.06049382716049378,0,0,0.06049382716049378,10.88888888888888,0)" xlink:href="#T"/><use transform="matrix(0.06049382716049378,0,0,0.06049382716049378,21.77777777777776,0)" xlink:href="#M"/><use transform="matrix(0.06049382716049378,0,0,0.06049382716049378,32.66666666666664,0)" xlink:href="#N"/><use transform="matrix(0.06049382716049378,0,0,0.06049382716049378,38.71604938271602,0)" xlink:href="#J"/><use transform="matrix(0.06049382716049378,0,0,0.06049382716049378,50.81481481481478,0)" xlink:href="#U"/></g><path d="M141-36C126-15 110 5 73 4 37 3 15-17 15-53c-1-64 63-63 125-63 3-35-9-54-41-54-24 1-41 7-42 31l-33-3c5-37 33-52 76-52 45 0 72 20 72 64v82c-1 20 7 32 28 27v20c-31 9-61-2-59-35zM48-53c0 20 12 33 32 33 41-3 63-29 60-74-43 2-92-5-92 41" id="V"/><g id="h"><use transform="matrix(0.0604938271604938,0,0,0.0604938271604938,0,0)" xlink:href="#P"/><use transform="matrix(0.0604938271604938,0,0,0.0604938271604938,12.09876543209876,0)" xlink:href="#L"/><use transform="matrix(0.0604938271604938,0,0,0.0604938271604938,16.87777777777777,0)" xlink:href="#V"/><use transform="matrix(0.0604938271604938,0,0,0.0604938271604938,28.97654320987653,0)" xlink:href="#K"/><use transform="matrix(0.0604938271604938,0,0,0.0604938271604938,41.07530864197529,0)" xlink:href="#R"/><use transform="matrix(0.0604938271604938,0,0,0.0604938271604938,53.17407407407405,0)" xlink:href="#Q"/><use transform="matrix(0.0604938271604938,0,0,0.0604938271604938,65.27283950617282,0)" xlink:href="#M"/><use transform="matrix(0.0604938271604938,0,0,0.0604938271604938,76.1617283950617,0)" xlink:href="#J"/><use transform="matrix(0.0604938271604938,0,0,0.0604938271604938,88.26049382716046,0)" xlink:href="#P"/></g><g id="i"><use transform="matrix(0.056172839506172835,0,0,0.056172839506172835,0,0)" xlink:href="#D"/><use transform="matrix(0.056172839506172835,0,0,0.056172839506172835,12.30185185185185,0)" xlink:href="#G"/><use transform="matrix(0.056172839506172835,0,0,0.056172839506172835,23.536419753086417,0)" xlink:href="#z"/><use transform="matrix(0.056172839506172835,0,0,0.056172839506172835,30.220987654320986,0)" xlink:href="#B"/><use transform="matrix(0.056172839506172835,0,0,0.056172839506172835,35.83827160493827,0)" xlink:href="#E"/><use transform="matrix(0.056172839506172835,0,0,0.056172839506172835,48.14012345679012,0)" xlink:href="#D"/></g><path fill="#333" d="M220-157c-53 9-28 100-34 157h-49v-107c1-27-5-49-29-50C55-147 81-57 75 0H25l-1-190h47c2 12-1 28 3 38 10-53 101-56 108 0 13-22 24-43 59-42 82 1 51 116 57 194h-49v-107c-1-25-5-48-29-50" id="W"/><g id="j"><use transform="matrix(0.056172839506172835,0,0,0.056172839506172835,0,0)" xlink:href="#z"/><use transform="matrix(0.056172839506172835,0,0,0.056172839506172835,6.684567901234567,0)" xlink:href="#A"/><use transform="matrix(0.056172839506172835,0,0,0.056172839506172835,14.548765432098763,0)" xlink:href="#G"/><use transform="matrix(0.056172839506172835,0,0,0.056172839506172835,25.78333333333333,0)" xlink:href="#C"/><use transform="matrix(0.056172839506172835,0,0,0.056172839506172835,37.0179012345679,0)" xlink:href="#z"/><use transform="matrix(0.056172839506172835,0,0,0.056172839506172835,43.70246913580247,0)" xlink:href="#W"/><use transform="matrix(0.056172839506172835,0,0,0.056172839506172835,61.67777777777777,0)" xlink:href="#G"/><use transform="matrix(0.056172839506172835,0,0,0.056172839506172835,72.91234567901235,0)" xlink:href="#E"/><use transform="matrix(0.056172839506172835,0,0,0.056172839506172835,85.2141975308642,0)" xlink:href="#z"/></g><g id="k"><use transform="matrix(0.06049382716049381,0,0,0.06049382716049381,0,0)" xlink:href="#N"/><use transform="matrix(0.06049382716049381,0,0,0.06049382716049381,6.049382716049381,0)" xlink:href="#O"/><use transform="matrix(0.06049382716049381,0,0,0.06049382716049381,13.248148148148145,0)" xlink:href="#J"/><use transform="matrix(0.06049382716049381,0,0,0.06049382716049381,25.346913580246905,0)" xlink:href="#V"/><use transform="matrix(0.06049382716049381,0,0,0.06049382716049381,37.445679012345664,0)" xlink:href="#N"/><use transform="matrix(0.06049382716049381,0,0,0.06049382716049381,43.495061728395044,0)" xlink:href="#U"/><use transform="matrix(0.06049382716049381,0,0,0.06049382716049381,61.5827160493827,0)" xlink:href="#J"/><use transform="matrix(0.06049382716049381,0,0,0.06049382716049381,73.68148148148146,0)" xlink:href="#R"/><use transform="matrix(0.06049382716049381,0,0,0.06049382716049381,85.78024691358021,0)" xlink:href="#N"/><use transform="matrix(0.06049382716049381,0,0,0.06049382716049381,91.8296296296296,0)" xlink:href="#J"/><use transform="matrix(0.06049382716049381,0,0,0.06049382716049381,103.92839506172835,0)" xlink:href="#P"/></g><path d="M266 0h-40l-56-210L115 0H75L2-248h35L96-30l15-64 43-154h32l59 218 59-218h35" id="X"/><g id="l"><use transform="matrix(0.06049382716049381,0,0,0.06049382716049381,0,0)" xlink:href="#X"/><use transform="matrix(0.06049382716049381,0,0,0.06049382716049381,19.720987654320982,0)" xlink:href="#V"/><use transform="matrix(0.06049382716049381,0,0,0.06049382716049381,31.819753086419745,0)" xlink:href="#N"/><use transform="matrix(0.06049382716049381,0,0,0.06049382716049381,37.869135802469124,0)" xlink:href="#L"/><use transform="matrix(0.06049382716049381,0,0,0.06049382716049381,42.64814814814814,0)" xlink:href="#R"/><use transform="matrix(0.06049382716049381,0,0,0.06049382716049381,54.7469135802469,0)" xlink:href="#K"/></g><path fill="#333" d="M199 0l-22-63H83L61 0H9l90-248h61L250 0h-51zm-33-102l-36-108c-10 38-24 72-36 108h72" id="Y"/><g id="m"><use transform="matrix(0.056172839506172835,0,0,0.056172839506172835,0,0)" xlink:href="#Y"/><use transform="matrix(0.056172839506172835,0,0,0.056172839506172835,14.548765432098763,0)" xlink:href="#w"/><use transform="matrix(0.056172839506172835,0,0,0.056172839506172835,26.850617283950612,0)" xlink:href="#w"/></g><g id="n"><use transform="matrix(0.056172839506172835,0,0,0.056172839506172835,0,0)" xlink:href="#B"/><use transform="matrix(0.056172839506172835,0,0,0.056172839506172835,5.617283950617283,0)" xlink:href="#z"/></g><g id="o"><use transform="matrix(0.056172839506172835,0,0,0.056172839506172835,0,0)" xlink:href="#z"/><use transform="matrix(0.056172839506172835,0,0,0.056172839506172835,6.684567901234567,0)" xlink:href="#x"/></g><path fill="#333" d="M114-157C55-157 80-60 75 0H25v-261h50l-1 109c12-26 28-41 61-42 86-1 58 113 63 194h-50c-7-57 23-157-34-157" id="Z"/><g id="p"><use transform="matrix(0.056172839506172835,0,0,0.056172839506172835,0,0)" xlink:href="#z"/><use transform="matrix(0.056172839506172835,0,0,0.056172839506172835,6.684567901234567,0)" xlink:href="#Z"/><use transform="matrix(0.056172839506172835,0,0,0.056172839506172835,18.986419753086416,0)" xlink:href="#G"/></g><path fill="#333" d="M231 0h-52l-39-155L100 0H48L-1-190h46L77-45c9-52 24-97 36-145h53l37 145 32-145h46" id="aa"/><g id="q"><use transform="matrix(0.056172839506172835,0,0,0.056172839506172835,0,0)" xlink:href="#aa"/><use transform="matrix(0.056172839506172835,0,0,0.056172839506172835,15.728395061728394,0)" xlink:href="#C"/><use transform="matrix(0.056172839506172835,0,0,0.056172839506172835,26.962962962962962,0)" xlink:href="#B"/><use transform="matrix(0.056172839506172835,0,0,0.056172839506172835,32.58024691358025,0)" xlink:href="#z"/><use transform="matrix(0.056172839506172835,0,0,0.056172839506172835,39.26481481481481,0)" xlink:href="#B"/><use transform="matrix(0.056172839506172835,0,0,0.056172839506172835,44.8820987654321,0)" xlink:href="#E"/><use transform="matrix(0.056172839506172835,0,0,0.056172839506172835,57.18395061728395,0)" xlink:href="#D"/></g><path fill="#333" d="M25 0v-261h50V0H25" id="ab"/><g id="r"><use transform="matrix(0.056172839506172835,0,0,0.056172839506172835,0,0)" xlink:href="#ab"/><use transform="matrix(0.056172839506172835,0,0,0.056172839506172835,5.617283950617283,0)" xlink:href="#B"/><use transform="matrix(0.056172839506172835,0,0,0.056172839506172835,11.234567901234566,0)" xlink:href="#F"/><use transform="matrix(0.056172839506172835,0,0,0.056172839506172835,22.469135802469133,0)" xlink:href="#z"/></g><path d="M96-169c-40 0-48 33-48 73s9 75 48 75c24 0 41-14 43-38l32 2c-6 37-31 61-74 61-59 0-76-41-82-99-10-93 101-131 147-64 4 7 5 14 7 22l-32 3c-4-21-16-35-41-35" id="ac"/><path d="M108 0H70L1-190h34L89-25l56-165h34" id="ad"/><g id="t"><use transform="matrix(0.06049382716049381,0,0,0.06049382716049381,0,0)" xlink:href="#I"/><use transform="matrix(0.06049382716049381,0,0,0.06049382716049381,15.667901234567898,0)" xlink:href="#J"/><use transform="matrix(0.06049382716049381,0,0,0.06049382716049381,27.76666666666666,0)" xlink:href="#ac"/><use transform="matrix(0.06049382716049381,0,0,0.06049382716049381,38.655555555555544,0)" xlink:href="#Q"/><use transform="matrix(0.06049382716049381,0,0,0.06049382716049381,50.75432098765431,0)" xlink:href="#ad"/><use transform="matrix(0.06049382716049381,0,0,0.06049382716049381,61.643209876543196,0)" xlink:href="#J"/><use transform="matrix(0.06049382716049381,0,0,0.06049382716049381,73.74197530864195,0)" xlink:href="#O"/><use transform="matrix(0.06049382716049381,0,0,0.06049382716049381,80.94074074074072,0)" xlink:href="#T"/></g><path d="M85 4C-2 5 27-109 22-190h50c7 57-23 150 33 157 60-5 35-97 40-157h50l1 190h-47c-2-12 1-28-3-38-12 25-28 42-61 42" id="ae"/><path d="M135-194c87-1 58 113 63 194h-50c-7-57 23-157-34-157-59 0-34 97-39 157H25l-1-190h47c2 12-1 28 3 38 12-26 28-41 61-42" id="af"/><path d="M88-194c31-1 46 15 58 34l-1-101h50l1 261h-48c-2-10 0-23-3-31C134-8 116 4 84 4 32 4 16-41 15-95c0-56 19-97 73-99zm17 164c33 0 40-30 41-66 1-37-9-64-41-64s-38 30-39 65c0 43 13 65 39 65" id="ag"/><path d="M185-48c-13 30-37 53-82 52C43 2 14-33 14-96s30-98 90-98c62 0 83 45 84 108H66c0 31 8 55 39 56 18 0 30-7 34-22zm-45-69c5-46-57-63-70-21-2 6-4 13-4 21h74" id="ah"/><path d="M135-150c-39-12-60 13-60 57V0H25l-1-190h47c2 13-1 29 3 40 6-28 27-53 61-41v41" id="ai"/><g id="u"><use transform="matrix(0.05432098765432096,0,0,0.05432098765432096,0,0)" xlink:href="#ae"/><use transform="matrix(0.05432098765432096,0,0,0.05432098765432096,11.89629629629629,0)" xlink:href="#af"/><use transform="matrix(0.05432098765432096,0,0,0.05432098765432096,23.79259259259258,0)" xlink:href="#ag"/><use transform="matrix(0.05432098765432096,0,0,0.05432098765432096,35.68888888888887,0)" xlink:href="#ah"/><use transform="matrix(0.05432098765432096,0,0,0.05432098765432096,46.55308641975306,0)" xlink:href="#ai"/></g><path d="M110-194c64 0 96 36 96 99 0 64-35 99-97 99-61 0-95-36-95-99 0-62 34-99 96-99zm-1 164c35 0 45-28 45-65 0-40-10-65-43-65-34 0-45 26-45 65 0 36 10 65 43 65" id="aj"/><path d="M135-194c52 0 70 43 70 98 0 56-19 99-73 100-30 1-46-15-58-35L72 0H24l1-261h50v104c11-23 29-37 60-37zM114-30c31 0 40-27 40-66 0-37-7-63-39-63s-41 28-41 65c0 36 8 64 40 64" id="ak"/><path d="M137-138c1-29-70-34-71-4 15 46 118 7 119 86 1 83-164 76-172 9l43-7c4 19 20 25 44 25 33 8 57-30 24-41C81-84 22-81 20-136c-2-80 154-74 161-7" id="al"/><path d="M128 0H69L1-190h53L99-40l48-150h52" id="am"/><path d="M133-34C117-15 103 5 69 4 32 3 11-16 11-54c-1-60 55-63 116-61 1-26-3-47-28-47-18 1-26 9-28 27l-52-2c7-38 36-58 82-57s74 22 75 68l1 82c-1 14 12 18 25 15v27c-30 8-71 5-69-32zm-48 3c29 0 43-24 42-57-32 0-66-3-65 30 0 17 8 27 23 27" id="an"/><path d="M115-3C79 11 28 4 28-45v-112H4v-33h27l15-45h31v45h36v33H77v99c-1 23 16 31 38 25v30" id="ao"/><path d="M25-224v-37h50v37H25zM25 0v-190h50V0H25" id="ap"/><g id="v"><use transform="matrix(0.05432098765432096,0,0,0.05432098765432096,0,0)" xlink:href="#aj"/><use transform="matrix(0.05432098765432096,0,0,0.05432098765432096,11.89629629629629,0)" xlink:href="#ak"/><use transform="matrix(0.05432098765432096,0,0,0.05432098765432096,23.79259259259258,0)" xlink:href="#al"/><use transform="matrix(0.05432098765432096,0,0,0.05432098765432096,34.65679012345677,0)" xlink:href="#ah"/><use transform="matrix(0.05432098765432096,0,0,0.05432098765432096,45.52098765432096,0)" xlink:href="#ai"/><use transform="matrix(0.05432098765432096,0,0,0.05432098765432096,53.1259259259259,0)" xlink:href="#am"/><use transform="matrix(0.05432098765432096,0,0,0.05432098765432096,63.99012345679009,0)" xlink:href="#an"/><use transform="matrix(0.05432098765432096,0,0,0.05432098765432096,74.85432098765428,0)" xlink:href="#ao"/><use transform="matrix(0.05432098765432096,0,0,0.05432098765432096,81.31851851851847,0)" xlink:href="#ap"/><use transform="matrix(0.05432098765432096,0,0,0.05432098765432096,86.75061728395058,0)" xlink:href="#aj"/><use transform="matrix(0.05432098765432096,0,0,0.05432098765432096,98.64691358024686,0)" xlink:href="#af"/></g></defs></g></svg>