<svg xmlns="http://www.w3.org/2000/svg" xmlns:xlink="http://www.w3.org/1999/xlink" xmlns:lucid="lucid" width="712.5" height="921.5"><g transform="translate(-519.5 80.5)" lucid:page-tab-id="0_0"><path d="M540-60h156l24 24v96H540z" stroke="#333" fill="#fcfcca"/><path d="M696-59.52V-36h23.52" stroke="#333" fill="#fcfcca"/><use xlink:href="#a" transform="matrix(1,0,0,1,545,-55) translate(28.62579666666666 36.26948)"/><use xlink:href="#b" transform="matrix(1,0,0,1,545,-55) translate(107.71733444444445 36.26948)"/><use xlink:href="#c" transform="matrix(1,0,0,1,545,-55) translate(12.845513888888874 57.19388000000001)"/><use xlink:href="#d" transform="matrix(1,0,0,1,545,-55) translate(128.82108611111113 57.19388000000001)"/><use xlink:href="#e" transform="matrix(1,0,0,1,545,-55) translate(3.6380855555555485 78.11828000000001)"/><use xlink:href="#f" transform="matrix(1,0,0,1,545,-55) translate(55.62338888888889 78.11828000000001)"/><path d="M1050 0c0 16.57-13.43 30-30 30s-30-13.43-30-30 13.43-30 30-30 30 13.43 30 30z" stroke="#3a414a"/><path d="M721 0h4.96m4.97 0h9.92m4.97 0h9.92m4.96 0h9.93m4.96 0h9.92m4.96 0h9.93m4.97 0h9.93m4.96 0h9.92m4.97 0h9.92m4.97 0h9.92m4.97 0h9.92m4.97 0h9.92m4.96 0h9.93m4.96 0h9.92m4.96 0h9.93m4.97 0h9.93m4.96 0h9.92m4.97 0h9.92m4.97 0H989" stroke="#3a414a" fill="none"/><path d="M721 .5h-.5v-1h.5zM989.5 0l.02.5H989v-1h.54z" stroke="#3a414a" stroke-width=".05" fill="#3a414a"/><path d="M956 180c-8.84 0-16 7.16-16 16v48c0 8.84 7.16 16 16 16h128c8.84 0 16-7.16 16-16v-48c0-8.84-7.16-16-16-16z" stroke="#3a414a" fill="#cfe4ff"/><use xlink:href="#g" transform="matrix(1,0,0,1,948,188) translate(33.172839506172835 23.111111111111114)"/><use xlink:href="#h" transform="matrix(1,0,0,1,948,188) translate(31.320987654320987 49.77777777777778)"/><path d="M1050 790c0 16.57-13.43 30-30 30s-30-13.43-30-30 13.43-30 30-30 30 13.43 30 30z" stroke="#000" stroke-width="2" fill="#fff"/><path d="M998.78 768.78l42.44 42.44m0-42.44l-42.44 42.44" stroke="#000" stroke-width="2" fill="none"/><path d="M1020 261v64.6" stroke="#3a414a" fill="none"/><path d="M1020.5 261h-1v-.5h1z" stroke="#3a414a" stroke-width=".05" fill="#3a414a"/><path d="M1020 340.37l-4.63-14.27h9.26z" stroke="#3a414a" fill="#3a414a"/><path d="M1015.76 344.24a6 6 0 0 1 8.48 0l31.52 31.52a6 6 0 0 1 0 8.48l-31.52 31.52a6 6 0 0 1-8.48 0l-31.52-31.52a6 6 0 0 1 0-8.48z" stroke="#3a414a" fill="#fcfcca"/><path d="M1020.5 563.12h-1v-56.48h1zm0-99.15h-1v-45.45h1z" stroke="#3a414a" stroke-width=".05" fill="#3a414a"/><path d="M1020 418.02l.5-.04v.55h-1v-.55z" fill="#3a414a"/><path d="M1020 418l.52-.05v.6h-1.04v-.6zm-.48.5h.96v-.5l-.48.04-.48-.04z" stroke="#3a414a" stroke-width=".05" fill="#3a414a"/><path d="M1020 577.88l-4.63-14.26h9.26z" fill="#3a414a"/><path d="M1020 579.5l-5.32-16.38h10.64zm-3.95-15.38l3.95 12.14 3.95-12.14z" stroke="#3a414a" stroke-width=".05" fill="#3a414a"/><use xlink:href="#i" transform="matrix(1,0,0,1,948.0246913580247,463.9712718148422) translate(0 14.222222222222223)"/><use xlink:href="#j" transform="matrix(1,0,0,1,948.0246913580247,463.9712718148422) translate(76.93827160493828 14.222222222222223)"/><use xlink:href="#k" transform="matrix(1,0,0,1,948.0246913580247,463.9712718148422) translate(0 35.55555555555556)"/><use xlink:href="#l" transform="matrix(1,0,0,1,948.0246913580247,463.9712718148422) translate(4.938271604938272 35.55555555555556)"/><use xlink:href="#m" transform="matrix(1,0,0,1,948.0246913580247,463.9712718148422) translate(33.48148148148148 35.55555555555556)"/><use xlink:href="#n" transform="matrix(1,0,0,1,948.0246913580247,463.9712718148422) translate(76.83950617283952 35.55555555555556)"/><use xlink:href="#o" transform="matrix(1,0,0,1,948.0246913580247,463.9712718148422) translate(86.71604938271606 35.55555555555556)"/><path d="M800.5 373.98l.07.88.2.84.33.8.45.73.56.66.67.55.73.45.8.33.84.2.88.07h175.46v1h-175.5l-1-.08-1-.24-.93-.4-.87-.52-.78-.66-.66-.78-.53-.87-.38-.94-.24-.98-.08-1v-107.2h1zm203.12-290.83h-197.6l-.88.07-.84.2-.8.34-.73.45-.66.57-.55.65-.45.74-.33.8-.2.84-.07.87v135.5h-1V88.63l.08-1 .24-1 .4-.94.52-.87.66-.77.78-.67.87-.54.94-.4.98-.23 1-.08h197.64z" stroke="#3a414a" stroke-width=".05" fill="#3a414a"/><path d="M981.98 380l.04.5h-.55v-1h.55z" fill="#3a414a"/><path d="M982 380l.05.52h-.6v-1.04h.6zm-.5-.48v.96h.5l-.04-.48.04-.48z" stroke="#3a414a" stroke-width=".05" fill="#3a414a"/><path d="M1018.38 82.66l-14.26 4.63V78z" fill="#3a414a"/><path d="M1020 82.66l-16.38 5.32V77.33zm-15.38 3.94l12.14-3.94-12.14-3.95z" stroke="#3a414a" stroke-width=".05" fill="#3a414a"/><use xlink:href="#p" transform="matrix(1,0,0,1,715.7037037037037,224.15507948230882) translate(0 14.222222222222223)"/><use xlink:href="#q" transform="matrix(1,0,0,1,715.7037037037037,224.15507948230882) translate(26.567901234567902 14.222222222222223)"/><use xlink:href="#r" transform="matrix(1,0,0,1,715.7037037037037,224.15507948230882) translate(103.50617283950618 14.222222222222223)"/><use xlink:href="#k" transform="matrix(1,0,0,1,715.7037037037037,224.15507948230882) translate(0 35.55555555555556)"/><use xlink:href="#l" transform="matrix(1,0,0,1,715.7037037037037,224.15507948230882) translate(4.938271604938272 35.55555555555556)"/><use xlink:href="#m" transform="matrix(1,0,0,1,715.7037037037037,224.15507948230882) translate(33.48148148148148 35.55555555555556)"/><use xlink:href="#n" transform="matrix(1,0,0,1,715.7037037037037,224.15507948230882) translate(76.83950617283952 35.55555555555556)"/><use xlink:href="#o" transform="matrix(1,0,0,1,715.7037037037037,224.15507948230882) translate(86.71604938271606 35.55555555555556)"/><path d="M1020 31v132.12" stroke="#3a414a" fill="none"/><path d="M1020 30.5l.5-.02V31h-1v-.54z" stroke="#3a414a" stroke-width=".05" fill="#3a414a"/><path d="M1020 177.88l-4.63-14.26h9.26z" stroke="#3a414a" fill="#3a414a"/><path d="M1225.02 219.58l1 .24.93.4.87.52.78.66.66.78.53.87.38.94.24.98.08 1v558.04l-.08 1-.24 1-.4.93-.52.87-.66.78-.78.66-.87.53-.94.38-.98.24-1 .08H1067.4l-.02-1h156.6l.88-.07.84-.2.8-.33.73-.45.66-.56.55-.67.45-.73.33-.8.2-.84.07-.88V226.02l-.07-.88-.2-.84-.33-.8-.45-.73-.56-.66-.67-.55-.73-.45-.8-.33-.84-.2-.88-.07H1101v-1h123.02z" stroke="#3a414a" stroke-width=".05" fill="#3a414a"/><path d="M1101 220.5h-.5v-1h.5z" fill="#3a414a"/><path d="M1101.04 220.53h-.57v-1.06h.57zm-.5-1v.94h.45v-.94z" stroke="#3a414a" stroke-width=".05" fill="#3a414a"/><path d="M1066.88 794.63l-14.26-4.63 14.26-4.63z" fill="#3a414a"/><path d="M1067.38 795.32L1051 790l16.38-5.32zm-13.14-5.32l12.14 3.95v-7.9z" stroke="#3a414a" stroke-width=".05" fill="#3a414a"/><path d="M924 580c-13.25 0-24 10.75-24 24v72c0 13.25 10.75 24 24 24h192c13.26 0 24-10.75 24-24v-72c0-13.25-10.74-24-24-24z" stroke="#3a414a" fill="#cfe4ff"/><g><use xlink:href="#s" transform="matrix(1,0,0,1,908,588) translate(6.043209876543216 29.77777777777778)"/><use xlink:href="#t" transform="matrix(1,0,0,1,908,588) translate(89.87037037037038 29.77777777777778)"/><use xlink:href="#u" transform="matrix(1,0,0,1,908,588) translate(177.40123456790124 29.77777777777778)"/><use xlink:href="#v" transform="matrix(1,0,0,1,908,588) translate(9.098765432098773 56.44444444444445)"/><use xlink:href="#w" transform="matrix(1,0,0,1,908,588) translate(80.58024691358024 56.44444444444445)"/><use xlink:href="#x" transform="matrix(1,0,0,1,908,588) translate(131.07407407407408 56.44444444444445)"/><use xlink:href="#y" transform="matrix(1,0,0,1,908,588) translate(195.20987654320987 56.44444444444445)"/><use xlink:href="#z" transform="matrix(1,0,0,1,908,588) translate(42.9567901234568 83.11111111111111)"/><use xlink:href="#A" transform="matrix(1,0,0,1,908,588) translate(120.67283950617283 83.11111111111111)"/><use xlink:href="#B" transform="matrix(1,0,0,1,908,588) translate(133.01851851851853 83.11111111111111)"/></g><path d="M1020 701v41.62" stroke="#3a414a" fill="none"/><path d="M1020.5 701h-1v-.5h1z" stroke="#3a414a" stroke-width=".05" fill="#3a414a"/><path d="M1020 757.38l-4.63-14.26h9.26z" stroke="#3a414a" fill="#3a414a"/><defs><path d="M24-248c120-7 223 5 221 122C244-46 201 0 124 0H24v-248zM76-40c74 7 117-18 117-86 0-67-45-88-117-82v168" id="C"/><path d="M110-194c64 0 96 36 96 99 0 64-35 99-97 99-61 0-95-36-95-99 0-62 34-99 96-99zm-1 164c35 0 45-28 45-65 0-40-10-65-43-65-34 0-45 26-45 65 0 36 10 65 43 65" id="D"/><path d="M190-63c-7 42-38 67-86 67-59 0-84-38-90-98-12-110 154-137 174-36l-49 2c-2-19-15-32-35-32-30 0-35 28-38 64-6 74 65 87 74 30" id="E"/><path d="M115-3C79 11 28 4 28-45v-112H4v-33h27l15-45h31v45h36v33H77v99c-1 23 16 31 38 25v30" id="F"/><path d="M135-150c-39-12-60 13-60 57V0H25l-1-190h47c2 13-1 29 3 40 6-28 27-53 61-41v41" id="G"/><path d="M137-138c1-29-70-34-71-4 15 46 118 7 119 86 1 83-164 76-172 9l43-7c4 19 20 25 44 25 33 8 57-30 24-41C81-84 22-81 20-136c-2-80 154-74 161-7" id="H"/><g id="a"><use transform="matrix(0.05432111111111112,0,0,0.05432111111111112,0,0)" xlink:href="#C"/><use transform="matrix(0.05432111111111112,0,0,0.05432111111111112,14.06916777777778,0)" xlink:href="#D"/><use transform="matrix(0.05432111111111112,0,0,0.05432111111111112,25.965491111111113,0)" xlink:href="#E"/><use transform="matrix(0.05432111111111112,0,0,0.05432111111111112,36.82971333333334,0)" xlink:href="#F"/><use transform="matrix(0.05432111111111112,0,0,0.05432111111111112,43.29392555555556,0)" xlink:href="#D"/><use transform="matrix(0.05432111111111112,0,0,0.05432111111111112,55.190248888888895,0)" xlink:href="#G"/><use transform="matrix(0.05432111111111112,0,0,0.05432111111111112,62.79520444444445,0)" xlink:href="#H"/></g><path d="M133-34C117-15 103 5 69 4 32 3 11-16 11-54c-1-60 55-63 116-61 1-26-3-47-28-47-18 1-26 9-28 27l-52-2c7-38 36-58 82-57s74 22 75 68l1 82c-1 14 12 18 25 15v27c-30 8-71 5-69-32zm-48 3c29 0 43-24 42-57-32 0-66-3-65 30 0 17 8 27 23 27" id="I"/><path d="M135-194c87-1 58 113 63 194h-50c-7-57 23-157-34-157-59 0-34 97-39 157H25l-1-190h47c2 12-1 28 3 38 12-26 28-41 61-42" id="J"/><path d="M88-194c31-1 46 15 58 34l-1-101h50l1 261h-48c-2-10 0-23-3-31C134-8 116 4 84 4 32 4 16-41 15-95c0-56 19-97 73-99zm17 164c33 0 40-30 41-66 1-37-9-64-41-64s-38 30-39 65c0 43 13 65 39 65" id="K"/><g id="b"><use transform="matrix(0.05432111111111112,0,0,0.05432111111111112,0,0)" xlink:href="#I"/><use transform="matrix(0.05432111111111112,0,0,0.05432111111111112,10.864222222222224,0)" xlink:href="#J"/><use transform="matrix(0.05432111111111112,0,0,0.05432111111111112,22.76054555555556,0)" xlink:href="#K"/></g><path d="M185-48c-13 30-37 53-82 52C43 2 14-33 14-96s30-98 90-98c62 0 83 45 84 108H66c0 31 8 55 39 56 18 0 30-7 34-22zm-45-69c5-46-57-63-70-21-2 6-4 13-4 21h74" id="L"/><path d="M135-194c53 0 70 44 70 98 0 56-19 98-73 100-31 1-45-17-59-34 3 33 2 69 2 105H25l-1-265h48c2 10 0 23 3 31 11-24 29-35 60-35zM114-30c33 0 39-31 40-66 0-38-9-64-40-64-56 0-55 130 0 130" id="M"/><path d="M25-224v-37h50v37H25zM25 0v-190h50V0H25" id="N"/><g id="c"><use transform="matrix(0.05432111111111112,0,0,0.05432111111111112,0,0)" xlink:href="#G"/><use transform="matrix(0.05432111111111112,0,0,0.05432111111111112,7.604955555555557,0)" xlink:href="#L"/><use transform="matrix(0.05432111111111112,0,0,0.05432111111111112,18.46917777777778,0)" xlink:href="#E"/><use transform="matrix(0.05432111111111112,0,0,0.05432111111111112,29.333400000000005,0)" xlink:href="#L"/><use transform="matrix(0.05432111111111112,0,0,0.05432111111111112,40.19762222222223,0)" xlink:href="#M"/><use transform="matrix(0.05432111111111112,0,0,0.05432111111111112,52.093945555555564,0)" xlink:href="#F"/><use transform="matrix(0.05432111111111112,0,0,0.05432111111111112,58.55815777777779,0)" xlink:href="#N"/><use transform="matrix(0.05432111111111112,0,0,0.05432111111111112,63.9902688888889,0)" xlink:href="#D"/><use transform="matrix(0.05432111111111112,0,0,0.05432111111111112,75.88659222222223,0)" xlink:href="#J"/><use transform="matrix(0.05432111111111112,0,0,0.05432111111111112,87.78291555555558,0)" xlink:href="#N"/><use transform="matrix(0.05432111111111112,0,0,0.05432111111111112,93.21502666666669,0)" xlink:href="#H"/><use transform="matrix(0.05432111111111112,0,0,0.05432111111111112,104.07924888888891,0)" xlink:href="#F"/></g><g id="d"><use transform="matrix(0.05432111111111112,0,0,0.05432111111111112,0,0)" xlink:href="#I"/><use transform="matrix(0.05432111111111112,0,0,0.05432111111111112,10.864222222222224,0)" xlink:href="#G"/><use transform="matrix(0.05432111111111112,0,0,0.05432111111111112,18.46917777777778,0)" xlink:href="#L"/></g><path d="M25 0v-261h50V0H25" id="O"/><path d="M195-6C206 82 75 100 31 46c-4-6-6-13-8-21l49-6c3 16 16 24 34 25 40 0 42-37 40-79-11 22-30 35-61 35-53 0-70-43-70-97 0-56 18-96 73-97 30 0 46 14 59 34l2-30h47zm-90-29c32 0 41-27 41-63 0-35-9-62-40-62-32 0-39 29-40 63 0 36 9 62 39 62" id="P"/><g id="e"><use transform="matrix(0.05432111111111112,0,0,0.05432111111111112,0,0)" xlink:href="#O"/><use transform="matrix(0.05432111111111112,0,0,0.05432111111111112,5.432111111111112,0)" xlink:href="#D"/><use transform="matrix(0.05432111111111112,0,0,0.05432111111111112,17.328434444444447,0)" xlink:href="#P"/><use transform="matrix(0.05432111111111112,0,0,0.05432111111111112,29.224757777777782,0)" xlink:href="#N"/><use transform="matrix(0.05432111111111112,0,0,0.05432111111111112,34.656868888888894,0)" xlink:href="#J"/></g><path d="M85 4C-2 5 27-109 22-190h50c7 57-23 150 33 157 60-5 35-97 40-157h50l1 190h-47c-2-12 1-28-3-38-12 25-28 42-61 42" id="Q"/><path d="M121-226c-27-7-43 5-38 36h38v33H83V0H34v-157H6v-33h28c-9-59 32-81 87-68v32" id="R"/><path d="M123 10C108 53 80 86 19 72V37c35 8 53-11 59-39L3-190h52l48 148c12-52 28-100 44-148h51" id="S"/><g id="f"><use transform="matrix(0.05432111111111112,0,0,0.05432111111111112,0,0)" xlink:href="#H"/><use transform="matrix(0.05432111111111112,0,0,0.05432111111111112,10.864222222222224,0)" xlink:href="#Q"/><use transform="matrix(0.05432111111111112,0,0,0.05432111111111112,22.76054555555556,0)" xlink:href="#E"/><use transform="matrix(0.05432111111111112,0,0,0.05432111111111112,33.624767777777784,0)" xlink:href="#E"/><use transform="matrix(0.05432111111111112,0,0,0.05432111111111112,44.48899000000001,0)" xlink:href="#L"/><use transform="matrix(0.05432111111111112,0,0,0.05432111111111112,55.35321222222223,0)" xlink:href="#H"/><use transform="matrix(0.05432111111111112,0,0,0.05432111111111112,66.21743444444445,0)" xlink:href="#H"/><use transform="matrix(0.05432111111111112,0,0,0.05432111111111112,77.08165666666667,0)" xlink:href="#R"/><use transform="matrix(0.05432111111111112,0,0,0.05432111111111112,83.54586888888889,0)" xlink:href="#Q"/><use transform="matrix(0.05432111111111112,0,0,0.05432111111111112,95.44219222222222,0)" xlink:href="#O"/><use transform="matrix(0.05432111111111112,0,0,0.05432111111111112,100.87430333333333,0)" xlink:href="#S"/></g><path fill="#3a414a" d="M135-194c52 0 70 43 70 98 0 56-19 99-73 100-30 1-46-15-58-35L72 0H24l1-261h50v104c11-23 29-37 60-37zM114-30c31 0 40-27 40-66 0-37-7-63-39-63s-41 28-41 65c0 36 8 64 40 64" id="T"/><path fill="#3a414a" d="M135-150c-39-12-60 13-60 57V0H25l-1-190h47c2 13-1 29 3 40 6-28 27-53 61-41v41" id="U"/><path fill="#3a414a" d="M110-194c64 0 96 36 96 99 0 64-35 99-97 99-61 0-95-36-95-99 0-62 34-99 96-99zm-1 164c35 0 45-28 45-65 0-40-10-65-43-65-34 0-45 26-45 65 0 36 10 65 43 65" id="V"/><path fill="#3a414a" d="M231 0h-52l-39-155L100 0H48L-1-190h46L77-45c9-52 24-97 36-145h53l37 145 32-145h46" id="W"/><path fill="#3a414a" d="M137-138c1-29-70-34-71-4 15 46 118 7 119 86 1 83-164 76-172 9l43-7c4 19 20 25 44 25 33 8 57-30 24-41C81-84 22-81 20-136c-2-80 154-74 161-7" id="X"/><path fill="#3a414a" d="M185-48c-13 30-37 53-82 52C43 2 14-33 14-96s30-98 90-98c62 0 83 45 84 108H66c0 31 8 55 39 56 18 0 30-7 34-22zm-45-69c5-46-57-63-70-21-2 6-4 13-4 21h74" id="Y"/><g id="g"><use transform="matrix(0.06172839506172839,0,0,0.06172839506172839,0,0)" xlink:href="#T"/><use transform="matrix(0.06172839506172839,0,0,0.06172839506172839,13.518518518518517,0)" xlink:href="#U"/><use transform="matrix(0.06172839506172839,0,0,0.06172839506172839,22.160493827160494,0)" xlink:href="#V"/><use transform="matrix(0.06172839506172839,0,0,0.06172839506172839,35.67901234567901,0)" xlink:href="#W"/><use transform="matrix(0.06172839506172839,0,0,0.06172839506172839,52.96296296296296,0)" xlink:href="#X"/><use transform="matrix(0.06172839506172839,0,0,0.06172839506172839,65.30864197530865,0)" xlink:href="#Y"/></g><path fill="#3a414a" d="M190-63c-7 42-38 67-86 67-59 0-84-38-90-98-12-110 154-137 174-36l-49 2c-2-19-15-32-35-32-30 0-35 28-38 64-6 74 65 87 74 30" id="Z"/><path fill="#3a414a" d="M88-194c31-1 46 15 58 34l-1-101h50l1 261h-48c-2-10 0-23-3-31C134-8 116 4 84 4 32 4 16-41 15-95c0-56 19-97 73-99zm17 164c33 0 40-30 41-66 1-37-9-64-41-64s-38 30-39 65c0 43 13 65 39 65" id="aa"/><g id="h"><use transform="matrix(0.06172839506172839,0,0,0.06172839506172839,0,0)" xlink:href="#U"/><use transform="matrix(0.06172839506172839,0,0,0.06172839506172839,8.641975308641975,0)" xlink:href="#Y"/><use transform="matrix(0.06172839506172839,0,0,0.06172839506172839,20.98765432098765,0)" xlink:href="#Z"/><use transform="matrix(0.06172839506172839,0,0,0.06172839506172839,33.33333333333333,0)" xlink:href="#V"/><use transform="matrix(0.06172839506172839,0,0,0.06172839506172839,46.85185185185185,0)" xlink:href="#U"/><use transform="matrix(0.06172839506172839,0,0,0.06172839506172839,55.49382716049382,0)" xlink:href="#aa"/><use transform="matrix(0.06172839506172839,0,0,0.06172839506172839,69.01234567901234,0)" xlink:href="#X"/></g><path fill="#333" d="M220-157c-53 9-28 100-34 157h-49v-107c1-27-5-49-29-50C55-147 81-57 75 0H25l-1-190h47c2 12-1 28 3 38 10-53 101-56 108 0 13-22 24-43 59-42 82 1 51 116 57 194h-49v-107c-1-25-5-48-29-50" id="ab"/><path fill="#333" d="M133-34C117-15 103 5 69 4 32 3 11-16 11-54c-1-60 55-63 116-61 1-26-3-47-28-47-18 1-26 9-28 27l-52-2c7-38 36-58 82-57s74 22 75 68l1 82c-1 14 12 18 25 15v27c-30 8-71 5-69-32zm-48 3c29 0 43-24 42-57-32 0-66-3-65 30 0 17 8 27 23 27" id="ac"/><path fill="#333" d="M115-3C79 11 28 4 28-45v-112H4v-33h27l15-45h31v45h36v33H77v99c-1 23 16 31 38 25v30" id="ad"/><path fill="#333" d="M190-63c-7 42-38 67-86 67-59 0-84-38-90-98-12-110 154-137 174-36l-49 2c-2-19-15-32-35-32-30 0-35 28-38 64-6 74 65 87 74 30" id="ae"/><path fill="#333" d="M114-157C55-157 80-60 75 0H25v-261h50l-1 109c12-26 28-41 61-42 86-1 58 113 63 194h-50c-7-57 23-157-34-157" id="af"/><path fill="#333" d="M185-48c-13 30-37 53-82 52C43 2 14-33 14-96s30-98 90-98c62 0 83 45 84 108H66c0 31 8 55 39 56 18 0 30-7 34-22zm-45-69c5-46-57-63-70-21-2 6-4 13-4 21h74" id="ag"/><path fill="#333" d="M137-138c1-29-70-34-71-4 15 46 118 7 119 86 1 83-164 76-172 9l43-7c4 19 20 25 44 25 33 8 57-30 24-41C81-84 22-81 20-136c-2-80 154-74 161-7" id="ah"/><g id="i"><use transform="matrix(0.04938271604938272,0,0,0.04938271604938272,0,0)" xlink:href="#ab"/><use transform="matrix(0.04938271604938272,0,0,0.04938271604938272,15.80246913580247,0)" xlink:href="#ac"/><use transform="matrix(0.04938271604938272,0,0,0.04938271604938272,25.679012345679016,0)" xlink:href="#ad"/><use transform="matrix(0.04938271604938272,0,0,0.04938271604938272,31.555555555555557,0)" xlink:href="#ae"/><use transform="matrix(0.04938271604938272,0,0,0.04938271604938272,41.4320987654321,0)" xlink:href="#af"/><use transform="matrix(0.04938271604938272,0,0,0.04938271604938272,52.24691358024692,0)" xlink:href="#ag"/><use transform="matrix(0.04938271604938272,0,0,0.04938271604938272,62.12345679012346,0)" xlink:href="#ah"/></g><path fill="#333" d="M135-150c-39-12-60 13-60 57V0H25l-1-190h47c2 13-1 29 3 40 6-28 27-53 61-41v41" id="ai"/><path fill="#333" d="M110-194c64 0 96 36 96 99 0 64-35 99-97 99-61 0-95-36-95-99 0-62 34-99 96-99zm-1 164c35 0 45-28 45-65 0-40-10-65-43-65-34 0-45 26-45 65 0 36 10 65 43 65" id="aj"/><path fill="#333" d="M88-194c31-1 46 15 58 34l-1-101h50l1 261h-48c-2-10 0-23-3-31C134-8 116 4 84 4 32 4 16-41 15-95c0-56 19-97 73-99zm17 164c33 0 40-30 41-66 1-37-9-64-41-64s-38 30-39 65c0 43 13 65 39 65" id="ak"/><g id="j"><use transform="matrix(0.04938271604938272,0,0,0.04938271604938272,0,0)" xlink:href="#ai"/><use transform="matrix(0.04938271604938272,0,0,0.04938271604938272,6.913580246913581,0)" xlink:href="#ag"/><use transform="matrix(0.04938271604938272,0,0,0.04938271604938272,16.790123456790127,0)" xlink:href="#ae"/><use transform="matrix(0.04938271604938272,0,0,0.04938271604938272,26.666666666666668,0)" xlink:href="#aj"/><use transform="matrix(0.04938271604938272,0,0,0.04938271604938272,37.48148148148149,0)" xlink:href="#ai"/><use transform="matrix(0.04938271604938272,0,0,0.04938271604938272,44.39506172839507,0)" xlink:href="#ak"/><use transform="matrix(0.04938271604938272,0,0,0.04938271604938272,55.209876543209894,0)" xlink:href="#ah"/></g><path fill="#333" d="M121-226c-27-7-43 5-38 36h38v33H83V0H34v-157H6v-33h28c-9-59 32-81 87-68v32" id="al"/><g id="l"><use transform="matrix(0.04938271604938272,0,0,0.04938271604938272,0,0)" xlink:href="#al"/><use transform="matrix(0.04938271604938272,0,0,0.04938271604938272,5.8765432098765435,0)" xlink:href="#aj"/><use transform="matrix(0.04938271604938272,0,0,0.04938271604938272,16.691358024691358,0)" xlink:href="#ai"/></g><path fill="#333" d="M25-224v-37h50v37H25zM25 0v-190h50V0H25" id="am"/><path fill="#333" d="M25 0v-261h50V0H25" id="an"/><g id="m"><use transform="matrix(0.04938271604938272,0,0,0.04938271604938272,0,0)" xlink:href="#al"/><use transform="matrix(0.04938271604938272,0,0,0.04938271604938272,5.8765432098765435,0)" xlink:href="#am"/><use transform="matrix(0.04938271604938272,0,0,0.04938271604938272,10.814814814814817,0)" xlink:href="#an"/><use transform="matrix(0.04938271604938272,0,0,0.04938271604938272,15.753086419753087,0)" xlink:href="#ad"/><use transform="matrix(0.04938271604938272,0,0,0.04938271604938272,21.629629629629633,0)" xlink:href="#ag"/><use transform="matrix(0.04938271604938272,0,0,0.04938271604938272,31.506172839506174,0)" xlink:href="#ai"/></g><path fill="#333" d="M4 7l51-268h42L46 7H4" id="ao"/><use transform="matrix(0.04938271604938272,0,0,0.04938271604938272,0,0)" xlink:href="#ao" id="n"/><g id="o"><use transform="matrix(0.04938271604938272,0,0,0.04938271604938272,0,0)" xlink:href="#ah"/><use transform="matrix(0.04938271604938272,0,0,0.04938271604938272,9.876543209876544,0)" xlink:href="#ag"/><use transform="matrix(0.04938271604938272,0,0,0.04938271604938272,19.75308641975309,0)" xlink:href="#ac"/><use transform="matrix(0.04938271604938272,0,0,0.04938271604938272,29.629629629629633,0)" xlink:href="#ai"/><use transform="matrix(0.04938271604938272,0,0,0.04938271604938272,36.543209876543216,0)" xlink:href="#ae"/><use transform="matrix(0.04938271604938272,0,0,0.04938271604938272,46.41975308641976,0)" xlink:href="#af"/></g><path fill="#333" d="M135-194c87-1 58 113 63 194h-50c-7-57 23-157-34-157-59 0-34 97-39 157H25l-1-190h47c2 12-1 28 3 38 12-26 28-41 61-42" id="ap"/><g id="p"><use transform="matrix(0.04938271604938272,0,0,0.04938271604938272,0,0)" xlink:href="#ap"/><use transform="matrix(0.04938271604938272,0,0,0.04938271604938272,10.814814814814815,0)" xlink:href="#aj"/></g><g id="q"><use transform="matrix(0.04938271604938272,0,0,0.04938271604938272,0,0)" xlink:href="#ab"/><use transform="matrix(0.04938271604938272,0,0,0.04938271604938272,15.80246913580247,0)" xlink:href="#ac"/><use transform="matrix(0.04938271604938272,0,0,0.04938271604938272,25.679012345679016,0)" xlink:href="#ad"/><use transform="matrix(0.04938271604938272,0,0,0.04938271604938272,31.555555555555557,0)" xlink:href="#ae"/><use transform="matrix(0.04938271604938272,0,0,0.04938271604938272,41.4320987654321,0)" xlink:href="#af"/><use transform="matrix(0.04938271604938272,0,0,0.04938271604938272,52.24691358024692,0)" xlink:href="#ag"/><use transform="matrix(0.04938271604938272,0,0,0.04938271604938272,62.12345679012346,0)" xlink:href="#ah"/></g><g id="r"><use transform="matrix(0.04938271604938272,0,0,0.04938271604938272,0,0)" xlink:href="#ai"/><use transform="matrix(0.04938271604938272,0,0,0.04938271604938272,6.913580246913581,0)" xlink:href="#ag"/><use transform="matrix(0.04938271604938272,0,0,0.04938271604938272,16.790123456790127,0)" xlink:href="#ae"/><use transform="matrix(0.04938271604938272,0,0,0.04938271604938272,26.666666666666668,0)" xlink:href="#aj"/><use transform="matrix(0.04938271604938272,0,0,0.04938271604938272,37.48148148148149,0)" xlink:href="#ai"/><use transform="matrix(0.04938271604938272,0,0,0.04938271604938272,44.39506172839507,0)" xlink:href="#ak"/><use transform="matrix(0.04938271604938272,0,0,0.04938271604938272,55.209876543209894,0)" xlink:href="#ah"/></g><g id="s"><use transform="matrix(0.06172839506172839,0,0,0.06172839506172839,0,0)" xlink:href="#T"/><use transform="matrix(0.06172839506172839,0,0,0.06172839506172839,13.518518518518517,0)" xlink:href="#U"/><use transform="matrix(0.06172839506172839,0,0,0.06172839506172839,22.160493827160494,0)" xlink:href="#V"/><use transform="matrix(0.06172839506172839,0,0,0.06172839506172839,35.67901234567901,0)" xlink:href="#W"/><use transform="matrix(0.06172839506172839,0,0,0.06172839506172839,52.96296296296296,0)" xlink:href="#X"/><use transform="matrix(0.06172839506172839,0,0,0.06172839506172839,65.30864197530865,0)" xlink:href="#Y"/></g><g id="t"><use transform="matrix(0.06172839506172839,0,0,0.06172839506172839,0,0)" xlink:href="#U"/><use transform="matrix(0.06172839506172839,0,0,0.06172839506172839,8.641975308641975,0)" xlink:href="#Y"/><use transform="matrix(0.06172839506172839,0,0,0.06172839506172839,20.98765432098765,0)" xlink:href="#Z"/><use transform="matrix(0.06172839506172839,0,0,0.06172839506172839,33.33333333333333,0)" xlink:href="#V"/><use transform="matrix(0.06172839506172839,0,0,0.06172839506172839,46.85185185185185,0)" xlink:href="#U"/><use transform="matrix(0.06172839506172839,0,0,0.06172839506172839,55.49382716049382,0)" xlink:href="#aa"/><use transform="matrix(0.06172839506172839,0,0,0.06172839506172839,69.01234567901234,0)" xlink:href="#X"/></g><path fill="#3a414a" d="M115-3C79 11 28 4 28-45v-112H4v-33h27l15-45h31v45h36v33H77v99c-1 23 16 31 38 25v30" id="aq"/><path fill="#3a414a" d="M114-157C55-157 80-60 75 0H25v-261h50l-1 109c12-26 28-41 61-42 86-1 58 113 63 194h-50c-7-57 23-157-34-157" id="ar"/><path fill="#3a414a" d="M133-34C117-15 103 5 69 4 32 3 11-16 11-54c-1-60 55-63 116-61 1-26-3-47-28-47-18 1-26 9-28 27l-52-2c7-38 36-58 82-57s74 22 75 68l1 82c-1 14 12 18 25 15v27c-30 8-71 5-69-32zm-48 3c29 0 43-24 42-57-32 0-66-3-65 30 0 17 8 27 23 27" id="as"/><g id="u"><use transform="matrix(0.06172839506172839,0,0,0.06172839506172839,0,0)" xlink:href="#aq"/><use transform="matrix(0.06172839506172839,0,0,0.06172839506172839,7.345679012345679,0)" xlink:href="#ar"/><use transform="matrix(0.06172839506172839,0,0,0.06172839506172839,20.864197530864196,0)" xlink:href="#as"/><use transform="matrix(0.06172839506172839,0,0,0.06172839506172839,33.20987654320987,0)" xlink:href="#aq"/></g><path fill="#3a414a" d="M220-157c-53 9-28 100-34 157h-49v-107c1-27-5-49-29-50C55-147 81-57 75 0H25l-1-190h47c2 12-1 28 3 38 10-53 101-56 108 0 13-22 24-43 59-42 82 1 51 116 57 194h-49v-107c-1-25-5-48-29-50" id="at"/><g id="v"><use transform="matrix(0.06172839506172839,0,0,0.06172839506172839,0,0)" xlink:href="#at"/><use transform="matrix(0.06172839506172839,0,0,0.06172839506172839,19.753086419753085,0)" xlink:href="#as"/><use transform="matrix(0.06172839506172839,0,0,0.06172839506172839,32.098765432098766,0)" xlink:href="#aq"/><use transform="matrix(0.06172839506172839,0,0,0.06172839506172839,39.44444444444444,0)" xlink:href="#Z"/><use transform="matrix(0.06172839506172839,0,0,0.06172839506172839,51.79012345679012,0)" xlink:href="#ar"/></g><path fill="#3a414a" d="M25-224v-37h50v37H25zM25 0v-190h50V0H25" id="au"/><g id="w"><use transform="matrix(0.06172839506172839,0,0,0.06172839506172839,0,0)" xlink:href="#W"/><use transform="matrix(0.06172839506172839,0,0,0.06172839506172839,17.28395061728395,0)" xlink:href="#au"/><use transform="matrix(0.06172839506172839,0,0,0.06172839506172839,23.456790123456788,0)" xlink:href="#aq"/><use transform="matrix(0.06172839506172839,0,0,0.06172839506172839,30.80246913580247,0)" xlink:href="#ar"/></g><g id="x"><use transform="matrix(0.06172839506172839,0,0,0.06172839506172839,0,0)" xlink:href="#au"/><use transform="matrix(0.06172839506172839,0,0,0.06172839506172839,6.172839506172839,0)" xlink:href="#aq"/><use transform="matrix(0.06172839506172839,0,0,0.06172839506172839,13.518518518518519,0)" xlink:href="#Y"/><use transform="matrix(0.06172839506172839,0,0,0.06172839506172839,25.864197530864196,0)" xlink:href="#at"/><use transform="matrix(0.06172839506172839,0,0,0.06172839506172839,45.61728395061728,0)" xlink:href="#X"/></g><path fill="#3a414a" d="M135-194c87-1 58 113 63 194h-50c-7-57 23-157-34-157-59 0-34 97-39 157H25l-1-190h47c2 12-1 28 3 38 12-26 28-41 61-42" id="av"/><g id="y"><use transform="matrix(0.06172839506172839,0,0,0.06172839506172839,0,0)" xlink:href="#au"/><use transform="matrix(0.06172839506172839,0,0,0.06172839506172839,6.172839506172839,0)" xlink:href="#av"/></g><g id="z"><use transform="matrix(0.06172839506172839,0,0,0.06172839506172839,0,0)" xlink:href="#X"/><use transform="matrix(0.06172839506172839,0,0,0.06172839506172839,12.345679012345679,0)" xlink:href="#Y"/><use transform="matrix(0.06172839506172839,0,0,0.06172839506172839,24.691358024691358,0)" xlink:href="#as"/><use transform="matrix(0.06172839506172839,0,0,0.06172839506172839,37.03703703703704,0)" xlink:href="#U"/><use transform="matrix(0.06172839506172839,0,0,0.06172839506172839,45.67901234567901,0)" xlink:href="#Z"/><use transform="matrix(0.06172839506172839,0,0,0.06172839506172839,58.02469135802469,0)" xlink:href="#ar"/></g><path fill="#3a414a" d="M4 7l51-268h42L46 7H4" id="aw"/><use transform="matrix(0.06172839506172839,0,0,0.06172839506172839,0,0)" xlink:href="#aw" id="A"/><path fill="#3a414a" d="M121-226c-27-7-43 5-38 36h38v33H83V0H34v-157H6v-33h28c-9-59 32-81 87-68v32" id="ax"/><path fill="#3a414a" d="M25 0v-261h50V0H25" id="ay"/><g id="B"><use transform="matrix(0.06172839506172839,0,0,0.06172839506172839,0,0)" xlink:href="#ax"/><use transform="matrix(0.06172839506172839,0,0,0.06172839506172839,7.345679012345679,0)" xlink:href="#au"/><use transform="matrix(0.06172839506172839,0,0,0.06172839506172839,13.518518518518519,0)" xlink:href="#ay"/><use transform="matrix(0.06172839506172839,0,0,0.06172839506172839,19.691358024691358,0)" xlink:href="#aq"/><use transform="matrix(0.06172839506172839,0,0,0.06172839506172839,27.037037037037038,0)" xlink:href="#Y"/><use transform="matrix(0.06172839506172839,0,0,0.06172839506172839,39.382716049382715,0)" xlink:href="#U"/></g></defs></g></svg>