<svg xmlns="http://www.w3.org/2000/svg" xmlns:xlink="http://www.w3.org/1999/xlink" xmlns:lucid="lucid" width="521" height="941"><g transform="translate(-819.5 -119.5)" lucid:page-tab-id="0_0"><path d="M840 140h136l24 24v96H840z" stroke="#333" fill="#fcfcca"/><path d="M976 140.48V164h23.52" stroke="#333" fill="#fcfcca"/><use xlink:href="#a" transform="matrix(1,0,0,1,845,145) translate(16.15000000000002 38.46249999999999)"/><use xlink:href="#b" transform="matrix(1,0,0,1,845,145) translate(49.10000000000001 38.46249999999999)"/><use xlink:href="#c" transform="matrix(1,0,0,1,845,145) translate(112.89999999999999 38.46249999999999)"/><use xlink:href="#d" transform="matrix(1,0,0,1,845,145) translate(4.675000000000026 60.062499999999986)"/><use xlink:href="#e" transform="matrix(1,0,0,1,845,145) translate(96.52499999999999 60.062499999999986)"/><use xlink:href="#f" transform="matrix(1,0,0,1,845,145) translate(118.42499999999998 60.062499999999986)"/><use xlink:href="#g" transform="matrix(1,0,0,1,845,145) translate(44.025000000000006 81.66249999999998)"/><path d="M1260 200c0 11.05-8.95 20-20 20s-20-8.95-20-20 8.95-20 20-20 20 8.95 20 20z" stroke="#333"/><path d="M1001 200h4.84m4.85 0h9.68m4.84 0h9.7m4.84 0h9.68m4.85 0h9.68m4.84 0h9.7m4.84 0h9.68m4.85 0h9.68m4.84 0h9.7m4.84 0h9.68m4.85 0h9.68m4.84 0h9.7m4.84 0h9.68m4.85 0h9.68m4.84 0h9.7m4.84 0h4.84" stroke="#333" fill="none"/><path d="M1001 200.5h-.5v-1h.5zM1219.5 199.98l.02.52h-.53v-1h.56z" stroke="#333" stroke-width=".05" fill="#333"/><path d="M1176 300c-8.84 0-16 7.16-16 16v48c0 8.84 7.16 16 16 16h128c8.84 0 16-7.16 16-16v-48c0-8.84-7.16-16-16-16z" stroke="#333" fill="#cfe4ff"/><use xlink:href="#h" transform="matrix(1,0,0,1,1168,308) translate(6.446296296296339 16.177777777777774)"/><use xlink:href="#i" transform="matrix(1,0,0,1,1168,308) translate(76.99938271604938 16.177777777777774)"/><use xlink:href="#j" transform="matrix(1,0,0,1,1168,308) translate(13.77685185185188 40.44444444444443)"/><use xlink:href="#k" transform="matrix(1,0,0,1,1168,308) translate(49.61512345679014 40.44444444444443)"/><use xlink:href="#l" transform="matrix(1,0,0,1,1168,308) translate(75.39845679012345 40.44444444444443)"/><use xlink:href="#m" transform="matrix(1,0,0,1,1168,308) translate(100.00216049382715 40.44444444444443)"/><use xlink:href="#n" transform="matrix(1,0,0,1,1168,308) translate(56.2996913580247 64.7111111111111)"/><path d="M1240 292.63V221" stroke="#333" fill="none"/><path d="M1240 298.52l-7.64-12.9h15.28z" stroke="#333" fill="#333"/><path d="M1239.98 220.5l.52-.02v.53h-1v-.56z" stroke="#333" stroke-width=".05" fill="#333"/><path d="M1240 381v72.12" stroke="#333" fill="none"/><path d="M1240.5 381h-1v-.5h1z" stroke="#333" stroke-width=".05" fill="#333"/><path d="M1240 467.88l-4.63-14.26h9.27z" stroke="#333" fill="#333"/><path d="M856 470c-8.84 0-16 7.16-16 16v48c0 8.84 7.16 16 16 16h128c8.84 0 16-7.16 16-16v-48c0-8.84-7.16-16-16-16z" stroke="#333" fill="#cfe4ff"/><use xlink:href="#o" transform="matrix(1,0,0,1,848,478) translate(8.693209876543236 23.911111111111115)"/><use xlink:href="#p" transform="matrix(1,0,0,1,848,478) translate(105.08580246913579 23.911111111111115)"/><use xlink:href="#n" transform="matrix(1,0,0,1,848,478) translate(56.2996913580247 48.17777777777778)"/><path d="M1159 510h-151.63" stroke="#333" fill="none"/><path d="M1159.5 510.5h-.5v-1h.5z" stroke="#333" stroke-width=".05" fill="#333"/><path d="M1001.48 510l12.9-7.64v15.28z" stroke="#333" fill="#333"/><path d="M913.98 605.27a9.14 9.14 0 0 1 12.04 0l67.96 59.46a7 7 0 0 1 0 10.54l-67.96 59.46a9.14 9.14 0 0 1-12.04 0l-67.96-59.46a7 7 0 0 1 0-10.54z" stroke="#333" fill="#fcfcca"/><use xlink:href="#q" transform="matrix(1,0,0,1,840,600) translate(73.85407407407408 46.80277777777778)"/><use xlink:href="#r" transform="matrix(1,0,0,1,840,600) translate(36.246358024691375 71.06944444444443)"/><use xlink:href="#s" transform="matrix(1,0,0,1,840,600) translate(52.059012345679015 95.3361111111111)"/><path d="M920 551v35.12" stroke="#333" fill="none"/><path d="M920.5 551h-1v-.5h1z" stroke="#333" stroke-width=".05" fill="#333"/><path d="M920 600.9l-4.63-14.28h9.26z" stroke="#333" fill="#333"/><path d="M1060.77 670.5h-63.4v-1h63.4zm91.86 0h-57.03v-1h57.03z" stroke="#333" stroke-width=".05" fill="#333"/><path d="M997.38 670.5h-.55l.04-.5-.04-.5h.55z" fill="#333"/><path d="M997.4 670.52h-.6l.05-.52-.05-.52h.6zm-.54-1l.04.48-.04.48h.5v-.96z" stroke="#333" stroke-width=".05" fill="#333"/><path d="M1158.52 670l-12.9 7.64v-15.28z" fill="#333"/><path d="M1159.5 670l-14.4 8.5v-17zm-13.4 6.76l11.44-6.76-11.43-6.76z" stroke="#333" stroke-width=".05" fill="#333"/><use xlink:href="#t" transform="matrix(1,0,0,1,1060.7722388598722,657.8666666666667) translate(0.004999999999999005 16.177777777777777)"/><path d="M1176 630c-8.84 0-16 7.16-16 16v48c0 8.84 7.16 16 16 16h128c8.84 0 16-7.16 16-16v-48c0-8.84-7.16-16-16-16z" stroke="#333" fill="#cfe4ff"/><use xlink:href="#u" transform="matrix(1,0,0,1,1168,638) translate(37.84691358024693 23.911111111111115)"/><use xlink:href="#p" transform="matrix(1,0,0,1,1168,638) translate(75.9320987654321 23.911111111111115)"/><use xlink:href="#v" transform="matrix(1,0,0,1,1168,638) translate(28.24135802469138 48.17777777777778)"/><path d="M1176 860c-8.84 0-16 7.16-16 16v48c0 8.84 7.16 16 16 16h128c8.84 0 16-7.16 16-16v-48c0-8.84-7.16-16-16-16z" stroke="#333" fill="#cfe4ff"/><g><use xlink:href="#w" transform="matrix(1,0,0,1,1168,868) translate(11.445679012345707 16.177777777777774)"/><use xlink:href="#p" transform="matrix(1,0,0,1,1168,868) translate(102.33333333333331 16.177777777777774)"/><use xlink:href="#x" transform="matrix(1,0,0,1,1168,868) translate(42.256481481481494 40.44444444444443)"/><use xlink:href="#y" transform="matrix(1,0,0,1,1168,868) translate(79.27438271604939 40.44444444444443)"/><use xlink:href="#z" transform="matrix(1,0,0,1,1168,868) translate(21.584876543209894 64.7111111111111)"/></g><path d="M1240 711v141.63" stroke="#333" fill="none"/><path d="M1240.5 711h-1v-.5h1z" stroke="#333" stroke-width=".05" fill="#333"/><path d="M1240 858.52l-7.64-12.9h15.28z" stroke="#333" fill="#333"/><path d="M920.5 887.98l.14 1.82.42 1.75.7 1.67.94 1.54 1.17 1.37 1.37 1.17 1.54.95 1.67.7 1.75.4 1.82.15h220.6v1H932l-1.94-.15-1.9-.46-1.82-.76-1.67-1.03-1.5-1.26-1.26-1.5-1.04-1.66-.75-1.82-.45-1.9-.15-1.94v-56.86h1zm0-81.1h-1V738h1z" stroke="#333" stroke-width=".05" fill="#333"/><path d="M920 737.5l.5-.04v.55h-1v-.54z" fill="#333"/><path d="M920 737.47l.52-.04v.6h-1.04v-.6zm-.48.5h.96v-.48l-.48.02-.48-.03z" stroke="#333" stroke-width=".05" fill="#333"/><path d="M1158.52 900l-12.9 7.64v-15.28z" fill="#333"/><path d="M1159.5 900l-14.4 8.5v-17zm-13.4 6.76l11.44-6.76-11.43-6.76z" stroke="#333" stroke-width=".05" fill="#333"/><g><use xlink:href="#A" transform="matrix(1,0,0,1,906.5746913580247,806.890743512974) translate(0.005000000000000782 16.177777777777777)"/></g><path d="M1240 941v51.63" stroke="#333" fill="none"/><path d="M1240.5 941h-1v-.5h1z" stroke="#333" stroke-width=".05" fill="#333"/><path d="M1240 998.52l-7.64-12.9h15.28z" stroke="#333" fill="#333"/><path d="M1260 1020c0 11.05-8.95 20-20 20s-20-8.95-20-20 8.95-20 20-20 20 8.95 20 20z" stroke="#333" fill="#fff"/><path d="M1225.86 1005.86l28.28 28.28m0-28.28l-28.28 28.28" stroke="#333" fill="none"/><path d="M1176 470c-8.84 0-16 7.16-16 16v48c0 8.84 7.16 16 16 16h128c8.84 0 16-7.16 16-16v-48c0-8.84-7.16-16-16-16z" stroke="#333" fill="#cfe4ff"/><g><use xlink:href="#B" transform="matrix(1,0,0,1,1168,478) translate(6.979938271604965 36.044444444444444)"/><use xlink:href="#C" transform="matrix(1,0,0,1,1168,478) translate(73.15154320987654 36.044444444444444)"/><use xlink:href="#n" transform="matrix(1,0,0,1,1168,478) translate(105.61944444444443 36.044444444444444)"/></g><defs><path fill="#333" d="M24-248c93 1 206-16 204 79-1 75-69 88-152 82V0H24v-248zm52 121c47 0 100 7 100-41 0-47-54-39-100-39v80" id="D"/><path fill="#333" d="M185-48c-13 30-37 53-82 52C43 2 14-33 14-96s30-98 90-98c62 0 83 45 84 108H66c0 31 8 55 39 56 18 0 30-7 34-22zm-45-69c5-46-57-63-70-21-2 6-4 13-4 21h74" id="E"/><path fill="#333" d="M115-3C79 11 28 4 28-45v-112H4v-33h27l15-45h31v45h36v33H77v99c-1 23 16 31 38 25v30" id="F"/><g id="a"><use transform="matrix(0.04999999999999998,0,0,0.04999999999999998,0,0)" xlink:href="#D"/><use transform="matrix(0.04999999999999998,0,0,0.04999999999999998,11.999999999999996,0)" xlink:href="#E"/><use transform="matrix(0.04999999999999998,0,0,0.04999999999999998,21.999999999999993,0)" xlink:href="#F"/></g><path fill="#333" d="M137-138c1-29-70-34-71-4 15 46 118 7 119 86 1 83-164 76-172 9l43-7c4 19 20 25 44 25 33 8 57-30 24-41C81-84 22-81 20-136c-2-80 154-74 161-7" id="G"/><path fill="#333" d="M114-157C55-157 80-60 75 0H25v-261h50l-1 109c12-26 28-41 61-42 86-1 58 113 63 194h-50c-7-57 23-157-34-157" id="H"/><path fill="#333" d="M110-194c64 0 96 36 96 99 0 64-35 99-97 99-61 0-95-36-95-99 0-62 34-99 96-99zm-1 164c35 0 45-28 45-65 0-40-10-65-43-65-34 0-45 26-45 65 0 36 10 65 43 65" id="I"/><path fill="#333" d="M85 4C-2 5 27-109 22-190h50c7 57-23 150 33 157 60-5 35-97 40-157h50l1 190h-47c-2-12 1-28-3-38-12 25-28 42-61 42" id="J"/><path fill="#333" d="M25 0v-261h50V0H25" id="K"/><path fill="#333" d="M88-194c31-1 46 15 58 34l-1-101h50l1 261h-48c-2-10 0-23-3-31C134-8 116 4 84 4 32 4 16-41 15-95c0-56 19-97 73-99zm17 164c33 0 40-30 41-66 1-37-9-64-41-64s-38 30-39 65c0 43 13 65 39 65" id="L"/><g id="b"><use transform="matrix(0.04999999999999998,0,0,0.04999999999999998,0,0)" xlink:href="#G"/><use transform="matrix(0.04999999999999998,0,0,0.04999999999999998,9.999999999999996,0)" xlink:href="#H"/><use transform="matrix(0.04999999999999998,0,0,0.04999999999999998,20.949999999999992,0)" xlink:href="#I"/><use transform="matrix(0.04999999999999998,0,0,0.04999999999999998,31.899999999999988,0)" xlink:href="#J"/><use transform="matrix(0.04999999999999998,0,0,0.04999999999999998,42.84999999999998,0)" xlink:href="#K"/><use transform="matrix(0.04999999999999998,0,0,0.04999999999999998,47.84999999999998,0)" xlink:href="#L"/></g><path fill="#333" d="M135-194c52 0 70 43 70 98 0 56-19 99-73 100-30 1-46-15-58-35L72 0H24l1-261h50v104c11-23 29-37 60-37zM114-30c31 0 40-27 40-66 0-37-7-63-39-63s-41 28-41 65c0 36 8 64 40 64" id="M"/><g id="c"><use transform="matrix(0.04999999999999998,0,0,0.04999999999999998,0,0)" xlink:href="#M"/><use transform="matrix(0.04999999999999998,0,0,0.04999999999999998,10.949999999999996,0)" xlink:href="#E"/></g><path fill="#333" d="M135-150c-39-12-60 13-60 57V0H25l-1-190h47c2 13-1 29 3 40 6-28 27-53 61-41v41" id="N"/><path fill="#333" d="M195-6C206 82 75 100 31 46c-4-6-6-13-8-21l49-6c3 16 16 24 34 25 40 0 42-37 40-79-11 22-30 35-61 35-53 0-70-43-70-97 0-56 18-96 73-97 30 0 46 14 59 34l2-30h47zm-90-29c32 0 41-27 41-63 0-35-9-62-40-62-32 0-39 29-40 63 0 36 9 62 39 62" id="O"/><path fill="#333" d="M25-224v-37h50v37H25zM25 0v-190h50V0H25" id="P"/><g id="d"><use transform="matrix(0.04999999999999998,0,0,0.04999999999999998,0,0)" xlink:href="#N"/><use transform="matrix(0.04999999999999998,0,0,0.04999999999999998,6.999999999999997,0)" xlink:href="#E"/><use transform="matrix(0.04999999999999998,0,0,0.04999999999999998,16.999999999999993,0)" xlink:href="#O"/><use transform="matrix(0.04999999999999998,0,0,0.04999999999999998,27.94999999999999,0)" xlink:href="#P"/><use transform="matrix(0.04999999999999998,0,0,0.04999999999999998,32.94999999999999,0)" xlink:href="#G"/><use transform="matrix(0.04999999999999998,0,0,0.04999999999999998,42.94999999999999,0)" xlink:href="#F"/><use transform="matrix(0.04999999999999998,0,0,0.04999999999999998,48.899999999999984,0)" xlink:href="#E"/><use transform="matrix(0.04999999999999998,0,0,0.04999999999999998,58.89999999999998,0)" xlink:href="#N"/><use transform="matrix(0.04999999999999998,0,0,0.04999999999999998,65.89999999999998,0)" xlink:href="#E"/><use transform="matrix(0.04999999999999998,0,0,0.04999999999999998,75.89999999999998,0)" xlink:href="#L"/></g><g id="e"><use transform="matrix(0.04999999999999998,0,0,0.04999999999999998,0,0)" xlink:href="#F"/><use transform="matrix(0.04999999999999998,0,0,0.04999999999999998,5.9499999999999975,0)" xlink:href="#I"/></g><g id="f"><use transform="matrix(0.04999999999999998,0,0,0.04999999999999998,0,0)" xlink:href="#F"/><use transform="matrix(0.04999999999999998,0,0,0.04999999999999998,5.9499999999999975,0)" xlink:href="#H"/><use transform="matrix(0.04999999999999998,0,0,0.04999999999999998,16.89999999999999,0)" xlink:href="#E"/></g><path fill="#333" d="M123 10C108 53 80 86 19 72V37c35 8 53-11 59-39L3-190h52l48 148c12-52 28-100 44-148h51" id="Q"/><path fill="#333" d="M220-157c-53 9-28 100-34 157h-49v-107c1-27-5-49-29-50C55-147 81-57 75 0H25l-1-190h47c2 12-1 28 3 38 10-53 101-56 108 0 13-22 24-43 59-42 82 1 51 116 57 194h-49v-107c-1-25-5-48-29-50" id="R"/><g id="g"><use transform="matrix(0.04999999999999998,0,0,0.04999999999999998,0,0)" xlink:href="#G"/><use transform="matrix(0.04999999999999998,0,0,0.04999999999999998,9.999999999999996,0)" xlink:href="#Q"/><use transform="matrix(0.04999999999999998,0,0,0.04999999999999998,19.999999999999993,0)" xlink:href="#G"/><use transform="matrix(0.04999999999999998,0,0,0.04999999999999998,29.99999999999999,0)" xlink:href="#F"/><use transform="matrix(0.04999999999999998,0,0,0.04999999999999998,35.94999999999999,0)" xlink:href="#E"/><use transform="matrix(0.04999999999999998,0,0,0.04999999999999998,45.94999999999999,0)" xlink:href="#R"/></g><path fill="#333" d="M24-248c120-7 223 5 221 122C244-46 201 0 124 0H24v-248zM76-40c74 7 117-18 117-86 0-67-45-88-117-82v168" id="S"/><path fill="#333" d="M190-63c-7 42-38 67-86 67-59 0-84-38-90-98-12-110 154-137 174-36l-49 2c-2-19-15-32-35-32-30 0-35 28-38 64-6 74 65 87 74 30" id="T"/><g id="h"><use transform="matrix(0.056172839506172814,0,0,0.056172839506172814,0,0)" xlink:href="#S"/><use transform="matrix(0.056172839506172814,0,0,0.056172839506172814,14.548765432098758,0)" xlink:href="#I"/><use transform="matrix(0.056172839506172814,0,0,0.056172839506172814,26.850617283950605,0)" xlink:href="#T"/><use transform="matrix(0.056172839506172814,0,0,0.056172839506172814,38.08518518518517,0)" xlink:href="#F"/><use transform="matrix(0.056172839506172814,0,0,0.056172839506172814,44.76975308641973,0)" xlink:href="#I"/><use transform="matrix(0.056172839506172814,0,0,0.056172839506172814,57.07160493827158,0)" xlink:href="#N"/></g><path fill="#333" d="M135-194c87-1 58 113 63 194h-50c-7-57 23-157-34-157-59 0-34 97-39 157H25l-1-190h47c2 12-1 28 3 38 12-26 28-41 61-42" id="U"/><g id="i"><use transform="matrix(0.056172839506172814,0,0,0.056172839506172814,0,0)" xlink:href="#E"/><use transform="matrix(0.056172839506172814,0,0,0.056172839506172814,11.234567901234563,0)" xlink:href="#U"/><use transform="matrix(0.056172839506172814,0,0,0.056172839506172814,23.53641975308641,0)" xlink:href="#F"/><use transform="matrix(0.056172839506172814,0,0,0.056172839506172814,30.220987654320975,0)" xlink:href="#E"/><use transform="matrix(0.056172839506172814,0,0,0.056172839506172814,41.455555555555534,0)" xlink:href="#N"/><use transform="matrix(0.056172839506172814,0,0,0.056172839506172814,49.31975308641973,0)" xlink:href="#G"/></g><g id="j"><use transform="matrix(0.056172839506172814,0,0,0.056172839506172814,0,0)" xlink:href="#F"/><use transform="matrix(0.056172839506172814,0,0,0.056172839506172814,6.684567901234565,0)" xlink:href="#H"/><use transform="matrix(0.056172839506172814,0,0,0.056172839506172814,18.986419753086412,0)" xlink:href="#E"/></g><path fill="#333" d="M24 0v-248h52V0H24" id="V"/><g id="k"><use transform="matrix(0.056172839506172814,0,0,0.056172839506172814,0,0)" xlink:href="#V"/><use transform="matrix(0.056172839506172814,0,0,0.056172839506172814,5.617283950617281,0)" xlink:href="#S"/></g><path fill="#333" d="M121-226c-27-7-43 5-38 36h38v33H83V0H34v-157H6v-33h28c-9-59 32-81 87-68v32" id="W"/><g id="l"><use transform="matrix(0.056172839506172814,0,0,0.056172839506172814,0,0)" xlink:href="#I"/><use transform="matrix(0.056172839506172814,0,0,0.056172839506172814,12.301851851851847,0)" xlink:href="#W"/></g><g id="m"><use transform="matrix(0.056172839506172814,0,0,0.056172839506172814,0,0)" xlink:href="#F"/><use transform="matrix(0.056172839506172814,0,0,0.056172839506172814,6.684567901234565,0)" xlink:href="#H"/><use transform="matrix(0.056172839506172814,0,0,0.056172839506172814,18.986419753086412,0)" xlink:href="#E"/></g><g id="n"><use transform="matrix(0.056172839506172814,0,0,0.056172839506172814,0,0)" xlink:href="#D"/><use transform="matrix(0.056172839506172814,0,0,0.056172839506172814,13.481481481481476,0)" xlink:href="#E"/><use transform="matrix(0.056172839506172814,0,0,0.056172839506172814,24.716049382716037,0)" xlink:href="#F"/></g><path fill="#333" d="M133-34C117-15 103 5 69 4 32 3 11-16 11-54c-1-60 55-63 116-61 1-26-3-47-28-47-18 1-26 9-28 27l-52-2c7-38 36-58 82-57s74 22 75 68l1 82c-1 14 12 18 25 15v27c-30 8-71 5-69-32zm-48 3c29 0 43-24 42-57-32 0-66-3-65 30 0 17 8 27 23 27" id="X"/><g id="o"><use transform="matrix(0.056172839506172814,0,0,0.056172839506172814,0,0)" xlink:href="#S"/><use transform="matrix(0.056172839506172814,0,0,0.056172839506172814,14.548765432098758,0)" xlink:href="#P"/><use transform="matrix(0.056172839506172814,0,0,0.056172839506172814,20.16604938271604,0)" xlink:href="#X"/><use transform="matrix(0.056172839506172814,0,0,0.056172839506172814,31.400617283950602,0)" xlink:href="#O"/><use transform="matrix(0.056172839506172814,0,0,0.056172839506172814,43.702469135802446,0)" xlink:href="#U"/><use transform="matrix(0.056172839506172814,0,0,0.056172839506172814,56.004320987654296,0)" xlink:href="#I"/><use transform="matrix(0.056172839506172814,0,0,0.056172839506172814,68.30617283950615,0)" xlink:href="#G"/><use transform="matrix(0.056172839506172814,0,0,0.056172839506172814,79.54074074074072,0)" xlink:href="#E"/></g><g id="p"><use transform="matrix(0.056172839506172814,0,0,0.056172839506172814,0,0)" xlink:href="#F"/><use transform="matrix(0.056172839506172814,0,0,0.056172839506172814,6.684567901234565,0)" xlink:href="#H"/><use transform="matrix(0.056172839506172814,0,0,0.056172839506172814,18.986419753086412,0)" xlink:href="#E"/></g><g id="q"><use transform="matrix(0.056172839506172814,0,0,0.056172839506172814,0,0)" xlink:href="#V"/><use transform="matrix(0.056172839506172814,0,0,0.056172839506172814,5.617283950617281,0)" xlink:href="#W"/></g><g id="r"><use transform="matrix(0.056172839506172814,0,0,0.056172839506172814,0,0)" xlink:href="#R"/><use transform="matrix(0.056172839506172814,0,0,0.056172839506172814,17.9753086419753,0)" xlink:href="#E"/><use transform="matrix(0.056172839506172814,0,0,0.056172839506172814,29.209876543209862,0)" xlink:href="#L"/><use transform="matrix(0.056172839506172814,0,0,0.056172839506172814,41.51172839506171,0)" xlink:href="#P"/><use transform="matrix(0.056172839506172814,0,0,0.056172839506172814,47.12901234567899,0)" xlink:href="#T"/><use transform="matrix(0.056172839506172814,0,0,0.056172839506172814,58.36358024691356,0)" xlink:href="#P"/><use transform="matrix(0.056172839506172814,0,0,0.056172839506172814,63.980864197530835,0)" xlink:href="#U"/><use transform="matrix(0.056172839506172814,0,0,0.056172839506172814,76.28271604938269,0)" xlink:href="#E"/></g><g id="s"><use transform="matrix(0.056172839506172814,0,0,0.056172839506172814,0,0)" xlink:href="#W"/><use transform="matrix(0.056172839506172814,0,0,0.056172839506172814,6.684567901234565,0)" xlink:href="#I"/><use transform="matrix(0.056172839506172814,0,0,0.056172839506172814,18.986419753086412,0)" xlink:href="#J"/><use transform="matrix(0.056172839506172814,0,0,0.056172839506172814,31.288271604938256,0)" xlink:href="#U"/><use transform="matrix(0.056172839506172814,0,0,0.056172839506172814,43.59012345679011,0)" xlink:href="#L"/></g><path fill="#333" d="M146-102V0H94v-102L6-248h54l60 105 60-105h54" id="Y"/><g id="t"><use transform="matrix(0.056172839506172835,0,0,0.056172839506172835,0,0)" xlink:href="#Y"/><use transform="matrix(0.056172839506172835,0,0,0.056172839506172835,12.358024691358024,0)" xlink:href="#E"/><use transform="matrix(0.056172839506172835,0,0,0.056172839506172835,23.592592592592588,0)" xlink:href="#G"/></g><g id="u"><use transform="matrix(0.056172839506172814,0,0,0.056172839506172814,0,0)" xlink:href="#D"/><use transform="matrix(0.056172839506172814,0,0,0.056172839506172814,13.481481481481476,0)" xlink:href="#J"/><use transform="matrix(0.056172839506172814,0,0,0.056172839506172814,25.783333333333324,0)" xlink:href="#F"/></g><g id="v"><use transform="matrix(0.056172839506172814,0,0,0.056172839506172814,0,0)" xlink:href="#R"/><use transform="matrix(0.056172839506172814,0,0,0.056172839506172814,17.9753086419753,0)" xlink:href="#E"/><use transform="matrix(0.056172839506172814,0,0,0.056172839506172814,29.209876543209862,0)" xlink:href="#L"/><use transform="matrix(0.056172839506172814,0,0,0.056172839506172814,41.51172839506171,0)" xlink:href="#P"/><use transform="matrix(0.056172839506172814,0,0,0.056172839506172814,47.12901234567899,0)" xlink:href="#T"/><use transform="matrix(0.056172839506172814,0,0,0.056172839506172814,58.36358024691356,0)" xlink:href="#P"/><use transform="matrix(0.056172839506172814,0,0,0.056172839506172814,63.980864197530835,0)" xlink:href="#U"/><use transform="matrix(0.056172839506172814,0,0,0.056172839506172814,76.28271604938269,0)" xlink:href="#E"/></g><g id="w"><use transform="matrix(0.056172839506172814,0,0,0.056172839506172814,0,0)" xlink:href="#S"/><use transform="matrix(0.056172839506172814,0,0,0.056172839506172814,14.548765432098758,0)" xlink:href="#E"/><use transform="matrix(0.056172839506172814,0,0,0.056172839506172814,25.78333333333332,0)" xlink:href="#G"/><use transform="matrix(0.056172839506172814,0,0,0.056172839506172814,37.01790123456789,0)" xlink:href="#T"/><use transform="matrix(0.056172839506172814,0,0,0.056172839506172814,48.25246913580245,0)" xlink:href="#N"/><use transform="matrix(0.056172839506172814,0,0,0.056172839506172814,56.116666666666646,0)" xlink:href="#P"/><use transform="matrix(0.056172839506172814,0,0,0.056172839506172814,61.733950617283924,0)" xlink:href="#M"/><use transform="matrix(0.056172839506172814,0,0,0.056172839506172814,74.03580246913577,0)" xlink:href="#E"/></g><g id="x"><use transform="matrix(0.056172839506172814,0,0,0.056172839506172814,0,0)" xlink:href="#D"/><use transform="matrix(0.056172839506172814,0,0,0.056172839506172814,13.481481481481476,0)" xlink:href="#E"/><use transform="matrix(0.056172839506172814,0,0,0.056172839506172814,24.716049382716037,0)" xlink:href="#F"/></g><g id="y"><use transform="matrix(0.056172839506172814,0,0,0.056172839506172814,0,0)" xlink:href="#X"/><use transform="matrix(0.056172839506172814,0,0,0.056172839506172814,11.234567901234563,0)" xlink:href="#G"/></g><g id="z"><use transform="matrix(0.056172839506172814,0,0,0.056172839506172814,0,0)" xlink:href="#L"/><use transform="matrix(0.056172839506172814,0,0,0.056172839506172814,12.301851851851847,0)" xlink:href="#P"/><use transform="matrix(0.056172839506172814,0,0,0.056172839506172814,17.91913580246913,0)" xlink:href="#X"/><use transform="matrix(0.056172839506172814,0,0,0.056172839506172814,29.15370370370369,0)" xlink:href="#O"/><use transform="matrix(0.056172839506172814,0,0,0.056172839506172814,41.455555555555534,0)" xlink:href="#U"/><use transform="matrix(0.056172839506172814,0,0,0.056172839506172814,53.757407407407385,0)" xlink:href="#I"/><use transform="matrix(0.056172839506172814,0,0,0.056172839506172814,66.05925925925924,0)" xlink:href="#G"/><use transform="matrix(0.056172839506172814,0,0,0.056172839506172814,77.2938271604938,0)" xlink:href="#E"/><use transform="matrix(0.056172839506172814,0,0,0.056172839506172814,88.52839506172836,0)" xlink:href="#L"/></g><path fill="#333" d="M175 0L67-191c6 58 2 128 3 191H24v-248h59L193-55c-6-58-2-129-3-193h46V0h-61" id="Z"/><g id="A"><use transform="matrix(0.056172839506172835,0,0,0.056172839506172835,0,0)" xlink:href="#Z"/><use transform="matrix(0.056172839506172835,0,0,0.056172839506172835,14.548765432098763,0)" xlink:href="#I"/></g><path fill="#333" d="M67-125c0 53 21 87 73 88 37 1 54-22 65-47l45 17C233-25 199 4 140 4 58 4 20-42 15-125 8-235 124-281 211-232c18 10 29 29 36 50l-46 12c-8-25-30-41-62-41-52 0-71 34-72 86" id="aa"/><path fill="#333" d="M147 0L96-86 75-71V0H25v-261h50v150l67-79h53l-66 74L201 0h-54" id="ab"/><g id="B"><use transform="matrix(0.056172839506172814,0,0,0.056172839506172814,0,0)" xlink:href="#aa"/><use transform="matrix(0.056172839506172814,0,0,0.056172839506172814,14.548765432098758,0)" xlink:href="#H"/><use transform="matrix(0.056172839506172814,0,0,0.056172839506172814,26.850617283950605,0)" xlink:href="#E"/><use transform="matrix(0.056172839506172814,0,0,0.056172839506172814,38.08518518518517,0)" xlink:href="#T"/><use transform="matrix(0.056172839506172814,0,0,0.056172839506172814,49.31975308641973,0)" xlink:href="#ab"/></g><g id="C"><use transform="matrix(0.056172839506172814,0,0,0.056172839506172814,0,0)" xlink:href="#W"/><use transform="matrix(0.056172839506172814,0,0,0.056172839506172814,6.684567901234565,0)" xlink:href="#I"/><use transform="matrix(0.056172839506172814,0,0,0.056172839506172814,18.986419753086412,0)" xlink:href="#N"/></g></defs></g></svg>