<svg xmlns="http://www.w3.org/2000/svg" xmlns:xlink="http://www.w3.org/1999/xlink" xmlns:lucid="lucid" width="1574.08" height="1662"><g transform="translate(-938.25 -119.5)" lucid:page-tab-id="0_0"><path d="M1730 200c0 11.05-8.95 20-20 20s-20-8.95-20-20 8.95-20 20-20 20 8.95 20 20z" stroke="#000"/><path d="M1320 140h176l24 24v96h-200z" stroke="#000" fill="#fcfcca"/><path d="M1496 140.48V164h23.52" stroke="#000" fill="#fcfcca"/><use xlink:href="#a" transform="matrix(1,0,0,1,1325,145) translate(17.305555555555543 22.875)"/><use xlink:href="#b" transform="matrix(1,0,0,1,1325,145) translate(58.30555555555554 22.875)"/><use xlink:href="#c" transform="matrix(1,0,0,1,1325,145) translate(106.02777777777777 22.875)"/><use xlink:href="#d" transform="matrix(1,0,0,1,1325,145) translate(2.944444444444443 46.875)"/><use xlink:href="#e" transform="matrix(1,0,0,1,1325,145) translate(54 46.875)"/><use xlink:href="#f" transform="matrix(1,0,0,1,1325,145) translate(82.83333333333333 46.875)"/><use xlink:href="#g" transform="matrix(1,0,0,1,1325,145) translate(164.83333333333331 46.875)"/><use xlink:href="#e" transform="matrix(1,0,0,1,1325,145) translate(5.194444444444443 70.875)"/><use xlink:href="#h" transform="matrix(1,0,0,1,1325,145) translate(34.02777777777778 70.875)"/><use xlink:href="#i" transform="matrix(1,0,0,1,1325,145) translate(167.08333333333331 70.875)"/><use xlink:href="#j" transform="matrix(1,0,0,1,1325,145) translate(40.08333333333333 94.875)"/><use xlink:href="#k" transform="matrix(1,0,0,1,1325,145) translate(75.52777777777777 94.875)"/><path d="M1521 200h5.1m5.08 0h10.18m5.1 0h10.18m5.1 0h10.17m5.1 0h10.18m5.1 0h10.17m5.1 0h10.18m5.1 0H1633m5.1 0h10.17m5.1 0h10.18m5.1 0h10.17m5.1 0h5.08" stroke="#000" fill="none"/><path d="M1521 200.5h-.5v-1h.5zM1689.5 199.98l.02.52h-.53v-1h.56z" stroke="#000" stroke-width=".05"/><path d="M1629.24 328a8 8 0 0 1 8-8h144a8 8 0 0 1 8 8v64a8 8 0 0 1-8 8h-144a8 8 0 0 1-8-8z" stroke="#000" fill="#cfe4ff"/><use xlink:href="#l" transform="matrix(1,0,0,1,1629.240361783341,320) translate(19.03277777777778 31)"/><use xlink:href="#m" transform="matrix(1,0,0,1,1629.240361783341,320) translate(75.58833333333334 31)"/><use xlink:href="#n" transform="matrix(1,0,0,1,1629.240361783341,320) translate(36.17166666666667 55)"/><use xlink:href="#o" transform="matrix(1,0,0,1,1629.240361783341,320) translate(95.005 55)"/><path d="M1710 221v91.63" stroke="#000" fill="none"/><path d="M1709.98 220.5l.52-.02v.53h-1v-.56z" stroke="#000" stroke-width=".05"/><path d="M1710 318.52l-7.64-12.9h15.28z" stroke="#000"/><path d="M1940 608a8 8 0 0 1 8-8h144a8 8 0 0 1 8 8v64a8 8 0 0 1-8 8h-144a8 8 0 0 1-8-8z" stroke="#000" fill="#cfe4ff"/><use xlink:href="#p" transform="matrix(1,0,0,1,1940,600) translate(37.31055555555555 43.5)"/><use xlink:href="#q" transform="matrix(1,0,0,1,1940,600) translate(80.53277777777778 43.5)"/><path d="M1320 608a8 8 0 0 1 8-8h144a8 8 0 0 1 8 8v64a8 8 0 0 1-8 8h-144a8 8 0 0 1-8-8z" stroke="#000" fill="#cfe4ff"/><use xlink:href="#r" transform="matrix(1,0,0,1,1320,600) translate(17.310555555555545 43.5)"/><use xlink:href="#q" transform="matrix(1,0,0,1,1320,600) translate(100.53277777777778 43.5)"/><path d="M1629.24 688a8 8 0 0 1 8-8h144a8 8 0 0 1 8 8v64a8 8 0 0 1-8 8h-144a8 8 0 0 1-8-8z" stroke="#000" fill="#cfe4ff"/><use xlink:href="#s" transform="matrix(1,0,0,1,1629.240361783341,680) translate(36.782777777777774 43.5)"/><use xlink:href="#q" transform="matrix(1,0,0,1,1629.240361783341,680) translate(81.06055555555555 43.5)"/><path d="M1120 708a8 8 0 0 1 8-8h144a8 8 0 0 1 8 8v64a8 8 0 0 1-8 8h-144a8 8 0 0 1-8-8z" stroke="#000" fill="#cfe4ff"/><use xlink:href="#t" transform="matrix(1,0,0,1,1120,700) translate(11.088333333333333 43.5)"/><use xlink:href="#u" transform="matrix(1,0,0,1,1120,700) translate(67.6438888888889 43.5)"/><use xlink:href="#v" transform="matrix(1,0,0,1,1120,700) translate(131.19944444444445 43.5)"/><path d="M1319 640h-107a12 12 0 0 0-12 12v40.63" stroke="#000" fill="none"/><path d="M1319.5 640.5h-.5v-1h.5z" stroke="#000" stroke-width=".05"/><path d="M1200 698.52l-7.64-12.9h15.28z" stroke="#000"/><path d="M1044.34 905.66a8 8 0 0 1 11.32 0l18.68 18.68a8 8 0 0 1 0 11.32l-18.68 18.68a8 8 0 0 1-11.32 0l-18.68-18.68a8 8 0 0 1 0-11.32z" stroke="#000" fill="#fcfcca"/><path d="M1050.5 895.94h-1v-72.87h1zM1119 740.5h-56.98l-1.82.14-1.75.42-1.67.7-1.54.94-1.37 1.17-1.17 1.37-.94 1.54-.7 1.67-.42 1.75-.14 1.82v47.05h-1v-47.1l.15-1.93.46-1.9.76-1.82 1.03-1.67 1.26-1.5 1.5-1.26 1.66-1.04 1.82-.75 1.9-.45 1.94-.15H1119z" stroke="#000" stroke-width=".05"/><path d="M1119.5 740.5h-.5v-1h.5z"/><path d="M1119.53 740.52h-.57v-1.04h.57zm-.52-1v.96h.47v-.96z" stroke="#000" stroke-width=".05"/><path d="M1050 901.83l-7.64-12.9h15.28z"/><path d="M1050 902.8l-8.5-14.38h17zm-6.76-13.38l6.76 11.43 6.76-11.43z" stroke="#000" stroke-width=".05"/><use xlink:href="#w" transform="matrix(1,0,0,1,949.6666666666666,799.0673030034695) translate(0.0049999999999954525 16)"/><use xlink:href="#x" transform="matrix(1,0,0,1,949.6666666666666,799.0673030034695) translate(76.61611111111112 16)"/><use xlink:href="#y" transform="matrix(1,0,0,1,949.6666666666666,799.0673030034695) translate(147.505 16)"/><use xlink:href="#v" transform="matrix(1,0,0,1,949.6666666666666,799.0673030034695) translate(182.94944444444445 16)"/><path d="M958.75 1088a8 8 0 0 1 8-8h166.5a8 8 0 0 1 8 8v75.25a8 8 0 0 1-8 8h-166.5a8 8 0 0 1-8-8z" stroke="#000" fill="#cfe4ff"/><use xlink:href="#z" transform="matrix(1,0,0,1,958.75,1079.9999) translate(32.782777777777774 24.625)"/><use xlink:href="#A" transform="matrix(1,0,0,1,958.75,1079.9999) translate(120.33833333333334 24.625)"/><use xlink:href="#B" transform="matrix(1,0,0,1,958.75,1079.9999) translate(52.69944444444444 48.625)"/><use xlink:href="#C" transform="matrix(1,0,0,1,958.75,1079.9999) translate(45.588333333333324 72.625)"/><path d="M1050.5 1072.63h-1v-42.3h1zm0-66.3h-1V957.7h1z" stroke="#000" stroke-width=".05"/><path d="M1050 957.2l.5-.05v.55h-1v-.55z"/><path d="M1050 957.16l.53-.04v.6h-1.06v-.6zm-.47.52h.94v-.5l-.47.03-.47-.03z" stroke="#000" stroke-width=".05"/><path d="M1050 1078.52l-7.64-12.9h15.28z"/><path d="M1050 1079.5l-8.5-14.4h17zm-6.76-13.4l6.76 11.44 6.76-11.43z" stroke="#000" stroke-width=".05"/><use xlink:href="#D" transform="matrix(1,0,0,1,1026.6944444444443,1006.3438783513187) translate(0.004999999999999005 16)"/><path d="M1200.5 918.02l-.15 1.94-.46 1.9-.76 1.82-1.03 1.67-1.26 1.5-1.5 1.26-1.66 1.04-1.82.75-1.9.45-1.94.15H1077.7v-1h110.28l1.82-.14 1.75-.42 1.67-.7 1.54-.94 1.37-1.17 1.17-1.37.94-1.54.7-1.67.42-1.75.14-1.82v-37.3h1zm0-61.34h-1v-69.3h1z" stroke="#000" stroke-width=".05"/><path d="M1077.7 930.5h-.55l.04-.5-.05-.5h.55z"/><path d="M1077.73 930.52h-.6l.03-.52-.04-.52h.6zm-.55-1l.03.48-.03.48h.5v-.96z" stroke="#000" stroke-width=".05"/><path d="M1207.64 794.4h-15.28l7.64-12.92z"/><path d="M1208.5 794.9h-17l8.5-14.4zm-15.26-1h13.52l-6.76-11.44z" stroke="#000" stroke-width=".05"/><use xlink:href="#E" transform="matrix(1,0,0,1,1168.388888888889,856.678540103079) translate(0.004999999999999005 16)"/><path d="M1399.06 1375.28l1.9.45 1.82.76 1.67 1 1.5 1.3 1.27 1.48 1.02 1.67.75 1.8.45 1.92.15 1.93v185.03h-1v-185l-.14-1.8-.42-1.76-.7-1.66-.93-1.53-1.17-1.38-1.37-1.18-1.54-.94-1.66-.7-1.76-.4-.22-.03v-1zm-348.42-9.86l.42 1.76.7 1.66.94 1.54 1.17 1.38 1.37 1.17 1.54.94 1.67.7 1.75.4 1.82.15h122.5v1h-122.54l-1.94-.15-1.9-.45-1.82-.76-1.67-1.02-1.5-1.28-1.26-1.5-1.04-1.66-.75-1.8-.45-1.92-.15-1.93v-191.4h1v191.36z" stroke="#000" stroke-width=".05"/><path d="M1050.5 1172.26h-1v-.5h1z"/><path d="M1050.53 1172.3h-1.06v-.58h1.06zm-1-.52v.46h.94v-.46z" stroke="#000" stroke-width=".05"/><path d="M1409.1 1578.52l-7.63-12.9h15.27z"/><path d="M1409.1 1579.5l-8.5-14.4h17.02zm-6.76-13.4l6.76 11.44 6.76-11.43z" stroke="#000" stroke-width=".05"/><use xlink:href="#F" transform="matrix(1,0,0,1,1184.517792907015,1351.6249696922325) translate(38.866111111111124 16)"/><use xlink:href="#G" transform="matrix(1,0,0,1,1184.517792907015,1351.6249696922325) translate(88.81055555555557 16)"/><use xlink:href="#H" transform="matrix(1,0,0,1,1184.517792907015,1351.6249696922325) translate(128.755 16)"/><use xlink:href="#I" transform="matrix(1,0,0,1,1184.517792907015,1351.6249696922325) translate(0.0049999999999954525 40)"/><use xlink:href="#J" transform="matrix(1,0,0,1,1184.517792907015,1351.6249696922325) translate(5.560555555555551 40)"/><use xlink:href="#K" transform="matrix(1,0,0,1,1184.517792907015,1351.6249696922325) translate(94.33833333333334 40)"/><g stroke="#000" stroke-width="3"><path d="M1709.24 1760c-11.05 0-20-8.95-20-20s8.95-20 20-20 20 8.95 20 20-8.95 20-20 20z" fill="#fff"/><path d="M1723.38 1725.86l-28.28 28.28m28.28 0l-28.28-28.28" fill="none"/></g><path d="M1580 848a8 8 0 0 1 8-8h244a8 8 0 0 1 8 8v124a8 8 0 0 1-8 8h-244a8 8 0 0 1-8-8z" stroke="#000" fill="#cfe4ff"/><use xlink:href="#t" transform="matrix(1,0,0,1,1580,839.99995) translate(46.2272222222222 51.25)"/><use xlink:href="#L" transform="matrix(1,0,0,1,1580,839.99995) translate(102.78277777777777 51.25)"/><use xlink:href="#M" transform="matrix(1,0,0,1,1580,839.99995) translate(5.61611111111109 75.25)"/><use xlink:href="#N" transform="matrix(1,0,0,1,1580,839.99995) translate(109.89388888888888 75.25)"/><use xlink:href="#O" transform="matrix(1,0,0,1,1580,839.99995) translate(218.94944444444445 75.25)"/><use xlink:href="#P" transform="matrix(1,0,0,1,1580,839.99995) translate(62.19944444444443 99.25)"/><path d="M1709.24 761v38.76a.24.24 0 0 1-.24.24.24.24 0 0 0-.24.24v32.4" stroke="#000" fill="none"/><path d="M1709.74 761h-1v-.5h1z" stroke="#000" stroke-width=".05"/><path d="M1708.76 838.52l-7.64-12.9h15.27z" stroke="#000"/><path d="M1704.34 1116.9a8 8 0 0 1 11.32 0l18.68 18.7a8 8 0 0 1 0 11.3l-18.68 18.7a8 8 0 0 1-11.32 0l-18.68-18.7a8 8 0 0 1 0-11.3z" stroke="#000" fill="#fcfcca"/><path d="M1710.5 1312.63h-1V1247h1zm0-89.63h-1v-54.06h1z" stroke="#000" stroke-width=".05"/><path d="M1710 1168.44l.5-.04v.55h-1v-.55z"/><path d="M1710 1168.4l.53-.03v.6h-1.06v-.6zm-.47.53h.94v-.5l-.47.03-.47-.04z" stroke="#000" stroke-width=".05"/><path d="M1710 1318.52l-7.64-12.9h15.28z"/><path d="M1710 1319.5l-8.5-14.4h17zm-6.76-13.4l6.76 11.44 6.76-11.43z" stroke="#000" stroke-width=".05"/><use xlink:href="#Q" transform="matrix(1,0,0,1,1686.6944444444443,1222.999667041591) translate(0.004999999999999005 16)"/><path d="M1630 1328a8 8 0 0 1 8-8h144a8 8 0 0 1 8 8v64a8 8 0 0 1-8 8h-144a8 8 0 0 1-8-8z" stroke="#000" fill="#cfe4ff"/><use xlink:href="#z" transform="matrix(1,0,0,1,1630,1320) translate(21.282777777777774 31)"/><use xlink:href="#A" transform="matrix(1,0,0,1,1630,1320) translate(108.83833333333334 31)"/><use xlink:href="#C" transform="matrix(1,0,0,1,1630,1320) translate(34.588333333333324 55)"/><path d="M1710.5 1572.63h-1v-80.43h1zm0-104.43h-1V1401h1z" stroke="#000" stroke-width=".05"/><path d="M1710.5 1401h-1v-.5h1z"/><path d="M1710.53 1401.04h-1.06v-.57h1.06zm-1-.5v.45h.94v-.47z" stroke="#000" stroke-width=".05"/><path d="M1710 1578.52l-7.64-12.9h15.28z"/><path d="M1710 1579.5l-8.5-14.4h17zm-6.76-13.4l6.76 11.44 6.76-11.43z" stroke="#000" stroke-width=".05"/><use xlink:href="#R" transform="matrix(1,0,0,1,1524.75,1468.198394343933) translate(0.0049999999999954525 16)"/><use xlink:href="#S" transform="matrix(1,0,0,1,1524.75,1468.198394343933) translate(46.61611111111111 16)"/><use xlink:href="#T" transform="matrix(1,0,0,1,1524.75,1468.198394343933) translate(94.33833333333334 16)"/><use xlink:href="#U" transform="matrix(1,0,0,1,1524.75,1468.198394343933) translate(134.28277777777777 16)"/><use xlink:href="#V" transform="matrix(1,0,0,1,1524.75,1468.198394343933) translate(186.39388888888888 16)"/><use xlink:href="#K" transform="matrix(1,0,0,1,1524.75,1468.198394343933) translate(250.67166666666665 16)"/><path d="M1990.5 1129.27l-.15 1.94-.46 1.9-.76 1.83-1.03 1.67-1.26 1.5-1.5 1.26-1.66 1.03-1.82.74-1.9.46-1.94.15H1737.7v-1h240.28l1.82-.14 1.75-.4 1.67-.7 1.54-.95 1.37-1.17 1.17-1.37.94-1.53.7-1.67.42-1.75.14-1.82v-90.96h1zm-10.54-219.62l1.9.46 1.82.76 1.67 1.03 1.5 1.26 1.26 1.5 1.04 1.66.75 1.82.45 1.9.15 1.94v92.3h-1V922l-.14-1.82-.42-1.75-.7-1.67-.94-1.54-1.17-1.37-1.37-1.17-1.54-.95-1.67-.7-1.75-.4-1.82-.15h-130.6v-1H1978z" stroke="#000" stroke-width=".05"/><path d="M1737.7 1141.75h-.55l.04-.5-.05-.5h.55z"/><path d="M1737.73 1141.78h-.6l.03-.53-.04-.53h.6zm-.55-1l.03.47-.03.47h.5v-.94z" stroke="#000" stroke-width=".05"/><path d="M1854.4 917.64l-12.92-7.64 12.9-7.64z"/><path d="M1854.9 918.5l-14.4-8.5 14.4-8.5zm-12.44-8.5l11.43 6.76v-13.52z" stroke="#000" stroke-width=".05"/><use xlink:href="#W" transform="matrix(1,0,0,1,1961.1666666666667,1014.273729332517) translate(0.004999999999999005 16)"/><path d="M2101 640h127a12 12 0 0 1 12 12v40.63" stroke="#000" fill="none"/><path d="M2101 640.5h-.5v-1h.5z" stroke="#000" stroke-width=".05"/><path d="M2240 698.52l-7.64-12.9h15.28z" stroke="#000"/><path d="M2160 708a8 8 0 0 1 8-8h144a8 8 0 0 1 8 8v64a8 8 0 0 1-8 8h-144a8 8 0 0 1-8-8z" stroke="#000" fill="#cfe4ff"/><use xlink:href="#t" transform="matrix(1,0,0,1,2160,700) translate(11.088333333333333 43.5)"/><use xlink:href="#u" transform="matrix(1,0,0,1,2160,700) translate(67.6438888888889 43.5)"/><use xlink:href="#v" transform="matrix(1,0,0,1,2160,700) translate(131.19944444444445 43.5)"/><path d="M2404.34 905.66a8 8 0 0 1 11.32 0l18.68 18.68a8 8 0 0 1 0 11.32l-18.68 18.68a8 8 0 0 1-11.32 0l-18.68-18.68a8 8 0 0 1 0-11.32z" stroke="#000" fill="#fcfcca"/><path d="M2410.5 895.94h-1v-80.77h1zm-10.54-156.3l1.9.47 1.82.76 1.67 1.03 1.5 1.26 1.26 1.5 1.04 1.66.75 1.82.45 1.9.15 1.94v39.2h-1V752l-.14-1.82-.42-1.75-.7-1.67-.94-1.54-1.17-1.37-1.37-1.17-1.54-.95-1.67-.7-1.75-.4-1.82-.15H2321v-1h77.02z" stroke="#000" stroke-width=".05"/><path d="M2321 740.5h-.5v-1h.5z"/><path d="M2321.04 740.52h-.57v-1.04h.57zm-.5-1v.96h.45v-.96z" stroke="#000" stroke-width=".05"/><path d="M2410 901.83l-7.64-12.9h15.28z"/><path d="M2410 902.8l-8.5-14.38h17zm-6.76-13.38l6.76 11.43 6.76-11.43z" stroke="#000" stroke-width=".05"/><use xlink:href="#w" transform="matrix(1,0,0,1,2309.6666666666665,791.1688910221037) translate(0.0049999999999954525 16)"/><use xlink:href="#x" transform="matrix(1,0,0,1,2309.6666666666665,791.1688910221037) translate(76.61611111111112 16)"/><use xlink:href="#y" transform="matrix(1,0,0,1,2309.6666666666665,791.1688910221037) translate(147.505 16)"/><use xlink:href="#v" transform="matrix(1,0,0,1,2309.6666666666665,791.1688910221037) translate(182.94944444444445 16)"/><path d="M2240.5 917.98l.14 1.82.42 1.75.7 1.67.94 1.54 1.17 1.37 1.37 1.17 1.54.95 1.67.7 1.75.4 1.82.15h130.3v1h-130.34l-1.94-.15-1.9-.46-1.82-.76-1.67-1.03-1.5-1.26-1.26-1.5-1.04-1.66-.75-1.82-.45-1.9-.15-1.94v-43.9h1zm0-67.87h-1v-62.73h1z" stroke="#000" stroke-width=".05"/><path d="M2382.8 930l.05.5h-.55v-1h.55z"/><path d="M2382.84 930l.04.52h-.6v-1.04h.6zm-.52-.48v.96h.5l-.03-.48.02-.48z" stroke="#000" stroke-width=".05"/><path d="M2247.64 794.4h-15.28l7.64-12.92z"/><path d="M2248.5 794.9h-17l8.5-14.4zm-15.26-1h13.52l-6.76-11.44z" stroke="#000" stroke-width=".05"/><g><use xlink:href="#E" transform="matrix(1,0,0,1,2208.3888888888887,850.1121116322058) translate(0.004999999999999005 16)"/></g><path d="M2410.5 1072.63h-1v-42.3h1zm0-66.3h-1V957.7h1z" stroke="#000" stroke-width=".05"/><path d="M2410 957.2l.5-.05v.55h-1v-.55z"/><path d="M2410 957.16l.53-.04v.6h-1.06v-.6zm-.47.52h.94v-.5l-.47.03-.47-.03z" stroke="#000" stroke-width=".05"/><path d="M2410 1078.52l-7.64-12.9h15.28z"/><path d="M2410 1079.5l-8.5-14.4h17zm-6.76-13.4l6.76 11.44 6.76-11.43z" stroke="#000" stroke-width=".05"/><g><use xlink:href="#Q" transform="matrix(1,0,0,1,2386.6944444444443,1006.3438783513187) translate(0.004999999999999005 16)"/></g><path d="M2330 1088a8 8 0 0 1 8-8h144a8 8 0 0 1 8 8v64a8 8 0 0 1-8 8h-144a8 8 0 0 1-8-8z" stroke="#000" fill="#cfe4ff"/><g><use xlink:href="#X" transform="matrix(1,0,0,1,2330,1079.9999) translate(16.116111111111103 31)"/><use xlink:href="#Y" transform="matrix(1,0,0,1,2330,1079.9999) translate(85.8938888888889 31)"/><use xlink:href="#Z" transform="matrix(1,0,0,1,2330,1079.9999) translate(59.505 55)"/></g><path d="M2410 1161v91.63" stroke="#000" fill="none"/><path d="M2410.5 1161h-1v-.5h1z" stroke="#000" stroke-width=".05"/><path d="M2410 1258.52l-7.64-12.9h15.28z" stroke="#000"/><path d="M2330 1268a8 8 0 0 1 8-8h144a8 8 0 0 1 8 8v64a8 8 0 0 1-8 8h-144a8 8 0 0 1-8-8z" stroke="#000" fill="#cfe4ff"/><g><use xlink:href="#aa" transform="matrix(1,0,0,1,2330,1260) translate(24.060555555555553 31)"/><use xlink:href="#A" transform="matrix(1,0,0,1,2330,1260) translate(106.06055555555557 31)"/><use xlink:href="#C" transform="matrix(1,0,0,1,2330,1260) translate(34.588333333333324 55)"/></g><path d="M2098.34 1460.5h-85.58l-1.82.14-1.75.42-1.68.7-1.54.94-1.37 1.17-1.16 1.37-.94 1.54-.7 1.67-.42 1.75-.14 1.82v100.6h-1V1472l.15-1.94.45-1.9.75-1.82 1.03-1.67 1.27-1.5 1.5-1.26 1.66-1.04 1.82-.75 1.9-.45 1.94-.15h85.62zm312.16-12.48l-.15 1.94-.46 1.9-.76 1.82-1.03 1.67-1.26 1.5-1.5 1.26-1.66 1.04-1.82.75-1.9.45-1.94.15h-85.62v-1h85.58l1.82-.14 1.75-.42 1.67-.7 1.54-.94 1.37-1.17 1.17-1.37.94-1.54.7-1.67.42-1.75.14-1.82V1341h1z" stroke="#000" stroke-width=".05"/><path d="M2410.5 1341h-1v-.5h1z"/><path d="M2410.53 1341.04h-1.06v-.57h1.06zm-1-.5v.45h.94v-.47z" stroke="#000" stroke-width=".05"/><path d="M2000.74 1578.52l-7.63-12.9h15.28z"/><path d="M2000.74 1579.5l-8.5-14.4h17zm-6.76-13.4l6.76 11.44 6.76-11.43z" stroke="#000" stroke-width=".05"/><g><use xlink:href="#F" transform="matrix(1,0,0,1,2098.342693432826,1435.9999809724513) translate(38.81055555555558 16)"/><use xlink:href="#G" transform="matrix(1,0,0,1,2098.342693432826,1435.9999809724513) translate(88.75500000000002 16)"/><use xlink:href="#H" transform="matrix(1,0,0,1,2098.342693432826,1435.9999809724513) translate(128.69944444444445 16)"/><use xlink:href="#I" transform="matrix(1,0,0,1,2098.342693432826,1435.9999809724513) translate(0.0049999999999954525 40)"/><use xlink:href="#ab" transform="matrix(1,0,0,1,2098.342693432826,1435.9999809724513) translate(5.560555555555551 40)"/><use xlink:href="#K" transform="matrix(1,0,0,1,2098.342693432826,1435.9999809724513) translate(94.22722222222222 40)"/></g><path d="M1319.24 468a8 8 0 0 1 8-8h764a8 8 0 0 1 8 8v.84a8 8 0 0 1-8 8h-764a8 8 0 0 1-8-8z" stroke="#000"/><path d="M1709.24 401v51.63" stroke="#000" fill="none"/><path d="M1709.74 401h-1v-.5h1z" stroke="#000" stroke-width=".05"/><path d="M1709.24 458.52l-7.63-12.9h15.28z" stroke="#000"/><path d="M1400 592.63V477.83" stroke="#000" fill="none"/><path d="M1400 598.52l-7.64-12.9h15.28z" stroke="#000"/><path d="M1400.5 477.86h-1v-.52h1z" stroke="#000" stroke-width=".05"/><path d="M1709.24 672.63v-194.8" stroke="#000" fill="none"/><path d="M1709.24 678.52l-7.63-12.9h15.28z" stroke="#000"/><path d="M1709.74 477.86h-1v-.52h1z" stroke="#000" stroke-width=".05"/><path d="M2020 592.63V477.83" stroke="#000" fill="none"/><path d="M2020 598.52l-7.64-12.9h15.28z" stroke="#000"/><path d="M2020.5 477.86h-1v-.52h1z" stroke="#000" stroke-width=".05"/><path d="M1320 1588a8 8 0 0 1 8-8h764a8 8 0 0 1 8 8v.84a8 8 0 0 1-8 8h-764a8 8 0 0 1-8-8z" stroke="#000"/><path d="M1710 1597.84v113.87" stroke="#000" fill="none"/><path d="M1710.5 1597.86h-1v-.52h1z" stroke="#000" stroke-width=".05"/><path d="M1710 1717.6l-7.64-12.9h15.28z" stroke="#000"/><path d="M1710.5 1107.2h-1v-47.92h1zm0-71.92h-1V981h1z" stroke="#000" stroke-width=".05"/><path d="M1710.5 981h-1v-.5h1z"/><path d="M1710.53 981.04h-1.06v-.56h1.06zm-1-.5v.45h.94v-.48z" stroke="#000" stroke-width=".05"/><path d="M1710 1113.08l-7.64-12.9h15.28z"/><path d="M1710 1114.06l-8.5-14.4h17zm-6.76-13.4l6.76 11.44 6.76-11.43z" stroke="#000" stroke-width=".05"/><g><use xlink:href="#w" transform="matrix(1,0,0,1,1598.0277777777778,1035.2810216486812) translate(0.0049999999999954525 16)"/><use xlink:href="#x" transform="matrix(1,0,0,1,1598.0277777777778,1035.2810216486812) translate(76.61611111111112 16)"/><use xlink:href="#y" transform="matrix(1,0,0,1,1598.0277777777778,1035.2810216486812) translate(147.505 16)"/><use xlink:href="#Z" transform="matrix(1,0,0,1,1598.0277777777778,1035.2810216486812) translate(182.94944444444445 16)"/></g><defs><path d="M136-208V0H84v-208H4v-40h212v40h-80" id="ac"/><path d="M114-157C55-157 80-60 75 0H25v-261h50l-1 109c12-26 28-41 61-42 86-1 58 113 63 194h-50c-7-57 23-157-34-157" id="ad"/><path d="M185-48c-13 30-37 53-82 52C43 2 14-33 14-96s30-98 90-98c62 0 83 45 84 108H66c0 31 8 55 39 56 18 0 30-7 34-22zm-45-69c5-46-57-63-70-21-2 6-4 13-4 21h74" id="ae"/><g id="a"><use transform="matrix(0.05555555555555555,0,0,0.05555555555555555,0,0)" xlink:href="#ac"/><use transform="matrix(0.05555555555555555,0,0,0.05555555555555555,12.166666666666666,0)" xlink:href="#ad"/><use transform="matrix(0.05555555555555555,0,0,0.05555555555555555,24.333333333333332,0)" xlink:href="#ae"/></g><path d="M85 4C-2 5 27-109 22-190h50c7 57-23 150 33 157 60-5 35-97 40-157h50l1 190h-47c-2-12 1-28-3-38-12 25-28 42-61 42" id="af"/><path d="M137-138c1-29-70-34-71-4 15 46 118 7 119 86 1 83-164 76-172 9l43-7c4 19 20 25 44 25 33 8 57-30 24-41C81-84 22-81 20-136c-2-80 154-74 161-7" id="ag"/><path d="M135-150c-39-12-60 13-60 57V0H25l-1-190h47c2 13-1 29 3 40 6-28 27-53 61-41v41" id="ah"/><g id="b"><use transform="matrix(0.05555555555555555,0,0,0.05555555555555555,0,0)" xlink:href="#af"/><use transform="matrix(0.05555555555555555,0,0,0.05555555555555555,12.166666666666666,0)" xlink:href="#ag"/><use transform="matrix(0.05555555555555555,0,0,0.05555555555555555,23.27777777777778,0)" xlink:href="#ae"/><use transform="matrix(0.05555555555555555,0,0,0.05555555555555555,34.388888888888886,0)" xlink:href="#ah"/></g><path d="M220-157c-53 9-28 100-34 157h-49v-107c1-27-5-49-29-50C55-147 81-57 75 0H25l-1-190h47c2 12-1 28 3 38 10-53 101-56 108 0 13-22 24-43 59-42 82 1 51 116 57 194h-49v-107c-1-25-5-48-29-50" id="ai"/><path d="M115-3C79 11 28 4 28-45v-112H4v-33h27l15-45h31v45h36v33H77v99c-1 23 16 31 38 25v30" id="aj"/><g id="c"><use transform="matrix(0.05555555555555555,0,0,0.05555555555555555,0,0)" xlink:href="#ai"/><use transform="matrix(0.05555555555555555,0,0,0.05555555555555555,17.77777777777778,0)" xlink:href="#af"/><use transform="matrix(0.05555555555555555,0,0,0.05555555555555555,29.944444444444443,0)" xlink:href="#ag"/><use transform="matrix(0.05555555555555555,0,0,0.05555555555555555,41.05555555555556,0)" xlink:href="#aj"/></g><path d="M133-34C117-15 103 5 69 4 32 3 11-16 11-54c-1-60 55-63 116-61 1-26-3-47-28-47-18 1-26 9-28 27l-52-2c7-38 36-58 82-57s74 22 75 68l1 82c-1 14 12 18 25 15v27c-30 8-71 5-69-32zm-48 3c29 0 43-24 42-57-32 0-66-3-65 30 0 17 8 27 23 27" id="ak"/><path d="M128 0H69L1-190h53L99-40l48-150h52" id="al"/><g id="d"><use transform="matrix(0.05555555555555555,0,0,0.05555555555555555,0,0)" xlink:href="#ad"/><use transform="matrix(0.05555555555555555,0,0,0.05555555555555555,12.166666666666666,0)" xlink:href="#ak"/><use transform="matrix(0.05555555555555555,0,0,0.05555555555555555,23.27777777777778,0)" xlink:href="#al"/><use transform="matrix(0.05555555555555555,0,0,0.05555555555555555,34.388888888888886,0)" xlink:href="#ae"/></g><path d="M135-194c87-1 58 113 63 194h-50c-7-57 23-157-34-157-59 0-34 97-39 157H25l-1-190h47c2 12-1 28 3 38 12-26 28-41 61-42" id="am"/><g id="e"><use transform="matrix(0.05555555555555555,0,0,0.05555555555555555,0,0)" xlink:href="#ak"/><use transform="matrix(0.05555555555555555,0,0,0.05555555555555555,11.11111111111111,0)" xlink:href="#am"/></g><path d="M190-63c-7 42-38 67-86 67-59 0-84-38-90-98-12-110 154-137 174-36l-49 2c-2-19-15-32-35-32-30 0-35 28-38 64-6 74 65 87 74 30" id="an"/><path d="M110-194c64 0 96 36 96 99 0 64-35 99-97 99-61 0-95-36-95-99 0-62 34-99 96-99zm-1 164c35 0 45-28 45-65 0-40-10-65-43-65-34 0-45 26-45 65 0 36 10 65 43 65" id="ao"/><g id="f"><use transform="matrix(0.05555555555555555,0,0,0.05555555555555555,0,0)" xlink:href="#ak"/><use transform="matrix(0.05555555555555555,0,0,0.05555555555555555,11.11111111111111,0)" xlink:href="#an"/><use transform="matrix(0.05555555555555555,0,0,0.05555555555555555,22.22222222222222,0)" xlink:href="#an"/><use transform="matrix(0.05555555555555555,0,0,0.05555555555555555,33.33333333333333,0)" xlink:href="#ao"/><use transform="matrix(0.05555555555555555,0,0,0.05555555555555555,45.49999999999999,0)" xlink:href="#af"/><use transform="matrix(0.05555555555555555,0,0,0.05555555555555555,57.666666666666664,0)" xlink:href="#am"/><use transform="matrix(0.05555555555555555,0,0,0.05555555555555555,69.83333333333333,0)" xlink:href="#aj"/></g><g id="g"><use transform="matrix(0.05555555555555555,0,0,0.05555555555555555,0,0)" xlink:href="#ak"/><use transform="matrix(0.05555555555555555,0,0,0.05555555555555555,11.11111111111111,0)" xlink:href="#ag"/></g><path d="M88-194c31-1 46 15 58 34l-1-101h50l1 261h-48c-2-10 0-23-3-31C134-8 116 4 84 4 32 4 16-41 15-95c0-56 19-97 73-99zm17 164c33 0 40-30 41-66 1-37-9-64-41-64s-38 30-39 65c0 43 13 65 39 65" id="ap"/><path d="M25-224v-37h50v37H25zM25 0v-190h50V0H25" id="aq"/><g id="h"><use transform="matrix(0.05555555555555555,0,0,0.05555555555555555,0,0)" xlink:href="#ak"/><use transform="matrix(0.05555555555555555,0,0,0.05555555555555555,11.11111111111111,0)" xlink:href="#ap"/><use transform="matrix(0.05555555555555555,0,0,0.05555555555555555,23.27777777777778,0)" xlink:href="#ai"/><use transform="matrix(0.05555555555555555,0,0,0.05555555555555555,41.05555555555556,0)" xlink:href="#aq"/><use transform="matrix(0.05555555555555555,0,0,0.05555555555555555,46.611111111111114,0)" xlink:href="#am"/><use transform="matrix(0.05555555555555555,0,0,0.05555555555555555,58.77777777777777,0)" xlink:href="#aq"/><use transform="matrix(0.05555555555555555,0,0,0.05555555555555555,64.33333333333333,0)" xlink:href="#ag"/><use transform="matrix(0.05555555555555555,0,0,0.05555555555555555,75.44444444444444,0)" xlink:href="#aj"/><use transform="matrix(0.05555555555555555,0,0,0.05555555555555555,82.05555555555556,0)" xlink:href="#ah"/><use transform="matrix(0.05555555555555555,0,0,0.05555555555555555,89.83333333333333,0)" xlink:href="#ak"/><use transform="matrix(0.05555555555555555,0,0,0.05555555555555555,100.94444444444444,0)" xlink:href="#aj"/><use transform="matrix(0.05555555555555555,0,0,0.05555555555555555,107.55555555555556,0)" xlink:href="#ao"/><use transform="matrix(0.05555555555555555,0,0,0.05555555555555555,119.72222222222224,0)" xlink:href="#ah"/></g><g id="i"><use transform="matrix(0.05555555555555555,0,0,0.05555555555555555,0,0)" xlink:href="#aq"/><use transform="matrix(0.05555555555555555,0,0,0.05555555555555555,5.555555555555555,0)" xlink:href="#am"/></g><g id="j"><use transform="matrix(0.05555555555555555,0,0,0.05555555555555555,0,0)" xlink:href="#aj"/><use transform="matrix(0.05555555555555555,0,0,0.05555555555555555,6.611111111111111,0)" xlink:href="#ad"/><use transform="matrix(0.05555555555555555,0,0,0.05555555555555555,18.77777777777778,0)" xlink:href="#ae"/></g><path d="M123 10C108 53 80 86 19 72V37c35 8 53-11 59-39L3-190h52l48 148c12-52 28-100 44-148h51" id="ar"/><path d="M24 0v-54h51V0H24" id="as"/><g id="k"><use transform="matrix(0.05555555555555555,0,0,0.05555555555555555,0,0)" xlink:href="#ag"/><use transform="matrix(0.05555555555555555,0,0,0.05555555555555555,11.11111111111111,0)" xlink:href="#ar"/><use transform="matrix(0.05555555555555555,0,0,0.05555555555555555,22.22222222222222,0)" xlink:href="#ag"/><use transform="matrix(0.05555555555555555,0,0,0.05555555555555555,33.33333333333333,0)" xlink:href="#aj"/><use transform="matrix(0.05555555555555555,0,0,0.05555555555555555,39.94444444444444,0)" xlink:href="#ae"/><use transform="matrix(0.05555555555555555,0,0,0.05555555555555555,51.05555555555556,0)" xlink:href="#ai"/><use transform="matrix(0.05555555555555555,0,0,0.05555555555555555,68.83333333333334,0)" xlink:href="#as"/></g><path fill="#333" d="M140-251c80 0 125 45 125 126S219 4 139 4C58 4 15-44 15-125s44-126 125-126zm-1 214c52 0 73-35 73-88 0-50-21-86-72-86-52 0-73 35-73 86s22 88 72 88" id="at"/><path fill="#333" d="M135-194c53 0 70 44 70 98 0 56-19 98-73 100-31 1-45-17-59-34 3 33 2 69 2 105H25l-1-265h48c2 10 0 23 3 31 11-24 29-35 60-35zM114-30c33 0 39-31 40-66 0-38-9-64-40-64-56 0-55 130 0 130" id="au"/><path fill="#333" d="M185-48c-13 30-37 53-82 52C43 2 14-33 14-96s30-98 90-98c62 0 83 45 84 108H66c0 31 8 55 39 56 18 0 30-7 34-22zm-45-69c5-46-57-63-70-21-2 6-4 13-4 21h74" id="av"/><path fill="#333" d="M135-194c87-1 58 113 63 194h-50c-7-57 23-157-34-157-59 0-34 97-39 157H25l-1-190h47c2 12-1 28 3 38 12-26 28-41 61-42" id="aw"/><g id="l"><use transform="matrix(0.05555555555555555,0,0,0.05555555555555555,0,0)" xlink:href="#at"/><use transform="matrix(0.05555555555555555,0,0,0.05555555555555555,15.555555555555555,0)" xlink:href="#au"/><use transform="matrix(0.05555555555555555,0,0,0.05555555555555555,27.72222222222222,0)" xlink:href="#av"/><use transform="matrix(0.05555555555555555,0,0,0.05555555555555555,38.83333333333333,0)" xlink:href="#aw"/></g><path fill="#333" d="M220-157c-53 9-28 100-34 157h-49v-107c1-27-5-49-29-50C55-147 81-57 75 0H25l-1-190h47c2 12-1 28 3 38 10-53 101-56 108 0 13-22 24-43 59-42 82 1 51 116 57 194h-49v-107c-1-25-5-48-29-50" id="ax"/><path fill="#333" d="M110-194c64 0 96 36 96 99 0 64-35 99-97 99-61 0-95-36-95-99 0-62 34-99 96-99zm-1 164c35 0 45-28 45-65 0-40-10-65-43-65-34 0-45 26-45 65 0 36 10 65 43 65" id="ay"/><path fill="#333" d="M88-194c31-1 46 15 58 34l-1-101h50l1 261h-48c-2-10 0-23-3-31C134-8 116 4 84 4 32 4 16-41 15-95c0-56 19-97 73-99zm17 164c33 0 40-30 41-66 1-37-9-64-41-64s-38 30-39 65c0 43 13 65 39 65" id="az"/><path fill="#333" d="M25-224v-37h50v37H25zM25 0v-190h50V0H25" id="aA"/><path fill="#333" d="M121-226c-27-7-43 5-38 36h38v33H83V0H34v-157H6v-33h28c-9-59 32-81 87-68v32" id="aB"/><path fill="#333" d="M123 10C108 53 80 86 19 72V37c35 8 53-11 59-39L3-190h52l48 148c12-52 28-100 44-148h51" id="aC"/><g id="m"><use transform="matrix(0.05555555555555555,0,0,0.05555555555555555,0,0)" xlink:href="#ax"/><use transform="matrix(0.05555555555555555,0,0,0.05555555555555555,17.77777777777778,0)" xlink:href="#ay"/><use transform="matrix(0.05555555555555555,0,0,0.05555555555555555,29.944444444444443,0)" xlink:href="#az"/><use transform="matrix(0.05555555555555555,0,0,0.05555555555555555,42.11111111111111,0)" xlink:href="#aA"/><use transform="matrix(0.05555555555555555,0,0,0.05555555555555555,47.666666666666664,0)" xlink:href="#aB"/><use transform="matrix(0.05555555555555555,0,0,0.05555555555555555,54.27777777777777,0)" xlink:href="#aC"/></g><path fill="#333" d="M85 4C-2 5 27-109 22-190h50c7 57-23 150 33 157 60-5 35-97 40-157h50l1 190h-47c-2-12 1-28-3-38-12 25-28 42-61 42" id="aD"/><path fill="#333" d="M137-138c1-29-70-34-71-4 15 46 118 7 119 86 1 83-164 76-172 9l43-7c4 19 20 25 44 25 33 8 57-30 24-41C81-84 22-81 20-136c-2-80 154-74 161-7" id="aE"/><path fill="#333" d="M135-150c-39-12-60 13-60 57V0H25l-1-190h47c2 13-1 29 3 40 6-28 27-53 61-41v41" id="aF"/><g id="n"><use transform="matrix(0.05555555555555555,0,0,0.05555555555555555,0,0)" xlink:href="#aD"/><use transform="matrix(0.05555555555555555,0,0,0.05555555555555555,12.166666666666666,0)" xlink:href="#aE"/><use transform="matrix(0.05555555555555555,0,0,0.05555555555555555,23.27777777777778,0)" xlink:href="#av"/><use transform="matrix(0.05555555555555555,0,0,0.05555555555555555,34.388888888888886,0)" xlink:href="#aF"/><use transform="matrix(0.05555555555555555,0,0,0.05555555555555555,42.166666666666664,0)" xlink:href="#aE"/></g><path fill="#333" d="M25 0v-261h50V0H25" id="aG"/><path fill="#333" d="M115-3C79 11 28 4 28-45v-112H4v-33h27l15-45h31v45h36v33H77v99c-1 23 16 31 38 25v30" id="aH"/><g id="o"><use transform="matrix(0.05555555555555555,0,0,0.05555555555555555,0,0)" xlink:href="#aG"/><use transform="matrix(0.05555555555555555,0,0,0.05555555555555555,5.555555555555555,0)" xlink:href="#aA"/><use transform="matrix(0.05555555555555555,0,0,0.05555555555555555,11.11111111111111,0)" xlink:href="#aE"/><use transform="matrix(0.05555555555555555,0,0,0.05555555555555555,22.22222222222222,0)" xlink:href="#aH"/></g><path fill="#333" d="M24 0v-248h195v40H76v63h132v40H76v65h150V0H24" id="aI"/><g id="p"><use transform="matrix(0.05555555555555555,0,0,0.05555555555555555,0,0)" xlink:href="#aI"/><use transform="matrix(0.05555555555555555,0,0,0.05555555555555555,13.333333333333332,0)" xlink:href="#az"/><use transform="matrix(0.05555555555555555,0,0,0.05555555555555555,25.5,0)" xlink:href="#aA"/><use transform="matrix(0.05555555555555555,0,0,0.05555555555555555,31.05555555555556,0)" xlink:href="#aH"/></g><g id="q"><use transform="matrix(0.05555555555555555,0,0,0.05555555555555555,0,0)" xlink:href="#aD"/><use transform="matrix(0.05555555555555555,0,0,0.05555555555555555,12.166666666666666,0)" xlink:href="#aE"/><use transform="matrix(0.05555555555555555,0,0,0.05555555555555555,23.27777777777778,0)" xlink:href="#av"/><use transform="matrix(0.05555555555555555,0,0,0.05555555555555555,34.388888888888886,0)" xlink:href="#aF"/></g><path fill="#333" d="M240-174c0 40-23 61-54 70L253 0h-59l-57-94H76V0H24v-248c93 4 217-23 216 74zM76-134c48-2 112 12 112-38 0-48-66-32-112-35v73" id="aJ"/><path fill="#333" d="M128 0H69L1-190h53L99-40l48-150h52" id="aK"/><g id="r"><use transform="matrix(0.05555555555555555,0,0,0.05555555555555555,0,0)" xlink:href="#aJ"/><use transform="matrix(0.05555555555555555,0,0,0.05555555555555555,14.388888888888888,0)" xlink:href="#av"/><use transform="matrix(0.05555555555555555,0,0,0.05555555555555555,25.5,0)" xlink:href="#ax"/><use transform="matrix(0.05555555555555555,0,0,0.05555555555555555,43.27777777777778,0)" xlink:href="#ay"/><use transform="matrix(0.05555555555555555,0,0,0.05555555555555555,55.44444444444444,0)" xlink:href="#aK"/><use transform="matrix(0.05555555555555555,0,0,0.05555555555555555,66.55555555555556,0)" xlink:href="#av"/></g><path fill="#333" d="M199 0l-22-63H83L61 0H9l90-248h61L250 0h-51zm-33-102l-36-108c-10 38-24 72-36 108h72" id="aL"/><g id="s"><use transform="matrix(0.05555555555555555,0,0,0.05555555555555555,0,0)" xlink:href="#aL"/><use transform="matrix(0.05555555555555555,0,0,0.05555555555555555,14.388888888888888,0)" xlink:href="#az"/><use transform="matrix(0.05555555555555555,0,0,0.05555555555555555,26.555555555555554,0)" xlink:href="#az"/></g><g id="t"><use transform="matrix(0.05555555555555555,0,0,0.05555555555555555,0,0)" xlink:href="#aI"/><use transform="matrix(0.05555555555555555,0,0,0.05555555555555555,13.333333333333332,0)" xlink:href="#aw"/><use transform="matrix(0.05555555555555555,0,0,0.05555555555555555,25.5,0)" xlink:href="#aH"/><use transform="matrix(0.05555555555555555,0,0,0.05555555555555555,32.111111111111114,0)" xlink:href="#av"/><use transform="matrix(0.05555555555555555,0,0,0.05555555555555555,43.22222222222223,0)" xlink:href="#aF"/></g><path fill="#333" d="M62-158H24l-5-90h48" id="aM"/><g id="u"><use transform="matrix(0.05555555555555555,0,0,0.05555555555555555,0,0)" xlink:href="#aD"/><use transform="matrix(0.05555555555555555,0,0,0.05555555555555555,12.166666666666666,0)" xlink:href="#aE"/><use transform="matrix(0.05555555555555555,0,0,0.05555555555555555,23.27777777777778,0)" xlink:href="#av"/><use transform="matrix(0.05555555555555555,0,0,0.05555555555555555,34.388888888888886,0)" xlink:href="#aF"/><use transform="matrix(0.05555555555555555,0,0,0.05555555555555555,42.166666666666664,0)" xlink:href="#aM"/><use transform="matrix(0.05555555555555555,0,0,0.05555555555555555,46.888888888888886,0)" xlink:href="#aE"/></g><g id="v"><use transform="matrix(0.05555555555555555,0,0,0.05555555555555555,0,0)" xlink:href="#aA"/><use transform="matrix(0.05555555555555555,0,0,0.05555555555555555,5.555555555555555,0)" xlink:href="#az"/></g><path fill="#333" d="M169-182c-1-43-94-46-97-3 18 66 151 10 154 114 3 95-165 93-204 36-6-8-10-19-12-30l50-8c3 46 112 56 116 5-17-69-150-10-154-114-4-87 153-88 188-35 5 8 8 18 10 28" id="aN"/><g id="w"><use transform="matrix(0.05555555555555555,0,0,0.05555555555555555,0,0)" xlink:href="#aN"/><use transform="matrix(0.05555555555555555,0,0,0.05555555555555555,13.333333333333332,0)" xlink:href="#aC"/><use transform="matrix(0.05555555555555555,0,0,0.05555555555555555,24.444444444444443,0)" xlink:href="#aE"/><use transform="matrix(0.05555555555555555,0,0,0.05555555555555555,35.55555555555556,0)" xlink:href="#aH"/><use transform="matrix(0.05555555555555555,0,0,0.05555555555555555,42.16666666666667,0)" xlink:href="#av"/><use transform="matrix(0.05555555555555555,0,0,0.05555555555555555,53.277777777777786,0)" xlink:href="#ax"/></g><path fill="#333" d="M195-6C206 82 75 100 31 46c-4-6-6-13-8-21l49-6c3 16 16 24 34 25 40 0 42-37 40-79-11 22-30 35-61 35-53 0-70-43-70-97 0-56 18-96 73-97 30 0 46 14 59 34l2-30h47zm-90-29c32 0 41-27 41-63 0-35-9-62-40-62-32 0-39 29-40 63 0 36 9 62 39 62" id="aO"/><g id="x"><use transform="matrix(0.05555555555555555,0,0,0.05555555555555555,0,0)" xlink:href="#aH"/><use transform="matrix(0.05555555555555555,0,0,0.05555555555555555,6.611111111111111,0)" xlink:href="#av"/><use transform="matrix(0.05555555555555555,0,0,0.05555555555555555,17.72222222222222,0)" xlink:href="#aE"/><use transform="matrix(0.05555555555555555,0,0,0.05555555555555555,28.833333333333332,0)" xlink:href="#aH"/><use transform="matrix(0.05555555555555555,0,0,0.05555555555555555,35.44444444444444,0)" xlink:href="#aA"/><use transform="matrix(0.05555555555555555,0,0,0.05555555555555555,41,0)" xlink:href="#aw"/><use transform="matrix(0.05555555555555555,0,0,0.05555555555555555,53.166666666666664,0)" xlink:href="#aO"/></g><path fill="#333" d="M114-157C55-157 80-60 75 0H25v-261h50l-1 109c12-26 28-41 61-42 86-1 58 113 63 194h-50c-7-57 23-157-34-157" id="aP"/><g id="y"><use transform="matrix(0.05555555555555555,0,0,0.05555555555555555,0,0)" xlink:href="#aH"/><use transform="matrix(0.05555555555555555,0,0,0.05555555555555555,6.611111111111111,0)" xlink:href="#aP"/><use transform="matrix(0.05555555555555555,0,0,0.05555555555555555,18.77777777777778,0)" xlink:href="#av"/></g><path fill="#333" d="M67-125c0 53 21 87 73 88 37 1 54-22 65-47l45 17C233-25 199 4 140 4 58 4 20-42 15-125 8-235 124-281 211-232c18 10 29 29 36 50l-46 12c-8-25-30-41-62-41-52 0-71 34-72 86" id="aQ"/><g id="z"><use transform="matrix(0.05555555555555555,0,0,0.05555555555555555,0,0)" xlink:href="#aQ"/><use transform="matrix(0.05555555555555555,0,0,0.05555555555555555,14.388888888888888,0)" xlink:href="#ay"/><use transform="matrix(0.05555555555555555,0,0,0.05555555555555555,26.555555555555554,0)" xlink:href="#aw"/><use transform="matrix(0.05555555555555555,0,0,0.05555555555555555,38.72222222222222,0)" xlink:href="#aB"/><use transform="matrix(0.05555555555555555,0,0,0.05555555555555555,45.33333333333333,0)" xlink:href="#av"/><use transform="matrix(0.05555555555555555,0,0,0.05555555555555555,56.44444444444444,0)" xlink:href="#aF"/><use transform="matrix(0.05555555555555555,0,0,0.05555555555555555,64.22222222222221,0)" xlink:href="#ax"/></g><g id="A"><use transform="matrix(0.05555555555555555,0,0,0.05555555555555555,0,0)" xlink:href="#aH"/><use transform="matrix(0.05555555555555555,0,0,0.05555555555555555,6.611111111111111,0)" xlink:href="#aP"/><use transform="matrix(0.05555555555555555,0,0,0.05555555555555555,18.77777777777778,0)" xlink:href="#av"/></g><path fill="#333" d="M133-34C117-15 103 5 69 4 32 3 11-16 11-54c-1-60 55-63 116-61 1-26-3-47-28-47-18 1-26 9-28 27l-52-2c7-38 36-58 82-57s74 22 75 68l1 82c-1 14 12 18 25 15v27c-30 8-71 5-69-32zm-48 3c29 0 43-24 42-57-32 0-66-3-65 30 0 17 8 27 23 27" id="aR"/><g id="B"><use transform="matrix(0.05555555555555555,0,0,0.05555555555555555,0,0)" xlink:href="#aF"/><use transform="matrix(0.05555555555555555,0,0,0.05555555555555555,7.777777777777778,0)" xlink:href="#av"/><use transform="matrix(0.05555555555555555,0,0,0.05555555555555555,18.88888888888889,0)" xlink:href="#ax"/><use transform="matrix(0.05555555555555555,0,0,0.05555555555555555,36.66666666666667,0)" xlink:href="#ay"/><use transform="matrix(0.05555555555555555,0,0,0.05555555555555555,48.833333333333336,0)" xlink:href="#aK"/><use transform="matrix(0.05555555555555555,0,0,0.05555555555555555,59.94444444444444,0)" xlink:href="#aR"/><use transform="matrix(0.05555555555555555,0,0,0.05555555555555555,71.05555555555556,0)" xlink:href="#aG"/></g><g id="C"><use transform="matrix(0.05555555555555555,0,0,0.05555555555555555,0,0)" xlink:href="#ay"/><use transform="matrix(0.05555555555555555,0,0,0.05555555555555555,12.166666666666666,0)" xlink:href="#au"/><use transform="matrix(0.05555555555555555,0,0,0.05555555555555555,24.333333333333332,0)" xlink:href="#av"/><use transform="matrix(0.05555555555555555,0,0,0.05555555555555555,35.44444444444444,0)" xlink:href="#aF"/><use transform="matrix(0.05555555555555555,0,0,0.05555555555555555,43.22222222222222,0)" xlink:href="#aR"/><use transform="matrix(0.05555555555555555,0,0,0.05555555555555555,54.33333333333333,0)" xlink:href="#aH"/><use transform="matrix(0.05555555555555555,0,0,0.05555555555555555,60.94444444444444,0)" xlink:href="#aA"/><use transform="matrix(0.05555555555555555,0,0,0.05555555555555555,66.5,0)" xlink:href="#ay"/><use transform="matrix(0.05555555555555555,0,0,0.05555555555555555,78.66666666666667,0)" xlink:href="#aw"/></g><path fill="#333" d="M147 0H94L2-248h55l64 206c17-72 42-137 63-206h54" id="aS"/><g id="D"><use transform="matrix(0.05555555555555555,0,0,0.05555555555555555,0,0)" xlink:href="#aS"/><use transform="matrix(0.05555555555555555,0,0,0.05555555555555555,12.222222222222221,0)" xlink:href="#aR"/><use transform="matrix(0.05555555555555555,0,0,0.05555555555555555,23.333333333333332,0)" xlink:href="#aG"/><use transform="matrix(0.05555555555555555,0,0,0.05555555555555555,28.888888888888886,0)" xlink:href="#aA"/><use transform="matrix(0.05555555555555555,0,0,0.05555555555555555,34.44444444444444,0)" xlink:href="#az"/></g><path fill="#333" d="M24 0v-248h52V0H24" id="aT"/><g id="E"><use transform="matrix(0.05555555555555555,0,0,0.05555555555555555,0,0)" xlink:href="#aT"/><use transform="matrix(0.05555555555555555,0,0,0.05555555555555555,5.555555555555555,0)" xlink:href="#aw"/><use transform="matrix(0.05555555555555555,0,0,0.05555555555555555,17.72222222222222,0)" xlink:href="#aK"/><use transform="matrix(0.05555555555555555,0,0,0.05555555555555555,28.833333333333332,0)" xlink:href="#aR"/><use transform="matrix(0.05555555555555555,0,0,0.05555555555555555,39.94444444444444,0)" xlink:href="#aG"/><use transform="matrix(0.05555555555555555,0,0,0.05555555555555555,45.5,0)" xlink:href="#aA"/><use transform="matrix(0.05555555555555555,0,0,0.05555555555555555,51.05555555555556,0)" xlink:href="#az"/></g><path fill="#333" d="M238-95c0 69-44 99-111 99C63 4 22-25 22-93v-155h51v151c-1 38 19 59 55 60 90 1 49-130 58-211h52v153" id="aU"/><g id="F"><use transform="matrix(0.05555555555555555,0,0,0.05555555555555555,0,0)" xlink:href="#aU"/><use transform="matrix(0.05555555555555555,0,0,0.05555555555555555,14.388888888888888,0)" xlink:href="#aE"/><use transform="matrix(0.05555555555555555,0,0,0.05555555555555555,25.5,0)" xlink:href="#av"/><use transform="matrix(0.05555555555555555,0,0,0.05555555555555555,36.611111111111114,0)" xlink:href="#aF"/></g><g id="G"><use transform="matrix(0.05555555555555555,0,0,0.05555555555555555,0,0)" xlink:href="#aP"/><use transform="matrix(0.05555555555555555,0,0,0.05555555555555555,12.166666666666666,0)" xlink:href="#aR"/><use transform="matrix(0.05555555555555555,0,0,0.05555555555555555,23.27777777777778,0)" xlink:href="#aE"/></g><path fill="#333" d="M135-194c52 0 70 43 70 98 0 56-19 99-73 100-30 1-46-15-58-35L72 0H24l1-261h50v104c11-23 29-37 60-37zM114-30c31 0 40-27 40-66 0-37-7-63-39-63s-41 28-41 65c0 36 8 64 40 64" id="aV"/><g id="H"><use transform="matrix(0.05555555555555555,0,0,0.05555555555555555,0,0)" xlink:href="#aV"/><use transform="matrix(0.05555555555555555,0,0,0.05555555555555555,12.166666666666666,0)" xlink:href="#av"/><use transform="matrix(0.05555555555555555,0,0,0.05555555555555555,23.27777777777778,0)" xlink:href="#av"/><use transform="matrix(0.05555555555555555,0,0,0.05555555555555555,34.388888888888886,0)" xlink:href="#aw"/></g><g id="J"><use transform="matrix(0.05555555555555555,0,0,0.05555555555555555,0,0)" xlink:href="#aF"/><use transform="matrix(0.05555555555555555,0,0,0.05555555555555555,7.777777777777778,0)" xlink:href="#av"/><use transform="matrix(0.05555555555555555,0,0,0.05555555555555555,18.88888888888889,0)" xlink:href="#ax"/><use transform="matrix(0.05555555555555555,0,0,0.05555555555555555,36.66666666666667,0)" xlink:href="#ay"/><use transform="matrix(0.05555555555555555,0,0,0.05555555555555555,48.833333333333336,0)" xlink:href="#aK"/><use transform="matrix(0.05555555555555555,0,0,0.05555555555555555,59.94444444444444,0)" xlink:href="#av"/><use transform="matrix(0.05555555555555555,0,0,0.05555555555555555,71.05555555555556,0)" xlink:href="#az"/></g><path fill="#333" d="M190-63c-7 42-38 67-86 67-59 0-84-38-90-98-12-110 154-137 174-36l-49 2c-2-19-15-32-35-32-30 0-35 28-38 64-6 74 65 87 74 30" id="aW"/><g id="K"><use transform="matrix(0.05555555555555555,0,0,0.05555555555555555,0,0)" xlink:href="#aE"/><use transform="matrix(0.05555555555555555,0,0,0.05555555555555555,11.11111111111111,0)" xlink:href="#aD"/><use transform="matrix(0.05555555555555555,0,0,0.05555555555555555,23.27777777777778,0)" xlink:href="#aW"/><use transform="matrix(0.05555555555555555,0,0,0.05555555555555555,34.388888888888886,0)" xlink:href="#aW"/><use transform="matrix(0.05555555555555555,0,0,0.05555555555555555,45.5,0)" xlink:href="#av"/><use transform="matrix(0.05555555555555555,0,0,0.05555555555555555,56.611111111111114,0)" xlink:href="#aE"/><use transform="matrix(0.05555555555555555,0,0,0.05555555555555555,67.72222222222223,0)" xlink:href="#aE"/><use transform="matrix(0.05555555555555555,0,0,0.05555555555555555,78.83333333333334,0)" xlink:href="#aB"/><use transform="matrix(0.05555555555555555,0,0,0.05555555555555555,85.44444444444446,0)" xlink:href="#aD"/><use transform="matrix(0.05555555555555555,0,0,0.05555555555555555,97.61111111111113,0)" xlink:href="#aG"/><use transform="matrix(0.05555555555555555,0,0,0.05555555555555555,103.16666666666669,0)" xlink:href="#aG"/><use transform="matrix(0.05555555555555555,0,0,0.05555555555555555,108.72222222222224,0)" xlink:href="#aC"/></g><path fill="#333" d="M-4 44V30h207v14H-4" id="aX"/><path fill="#333" d="M76-54c-1 42 2 86-19 110H24C36 42 46 24 48 0H25v-54h51" id="aY"/><g id="L"><use transform="matrix(0.05555555555555555,0,0,0.05555555555555555,0,0)" xlink:href="#aD"/><use transform="matrix(0.05555555555555555,0,0,0.05555555555555555,12.166666666666666,0)" xlink:href="#aE"/><use transform="matrix(0.05555555555555555,0,0,0.05555555555555555,23.27777777777778,0)" xlink:href="#av"/><use transform="matrix(0.05555555555555555,0,0,0.05555555555555555,34.388888888888886,0)" xlink:href="#aF"/><use transform="matrix(0.05555555555555555,0,0,0.05555555555555555,42.166666666666664,0)" xlink:href="#aX"/><use transform="matrix(0.05555555555555555,0,0,0.05555555555555555,53.27777777777777,0)" xlink:href="#aw"/><use transform="matrix(0.05555555555555555,0,0,0.05555555555555555,65.44444444444444,0)" xlink:href="#aR"/><use transform="matrix(0.05555555555555555,0,0,0.05555555555555555,76.55555555555556,0)" xlink:href="#ax"/><use transform="matrix(0.05555555555555555,0,0,0.05555555555555555,94.33333333333334,0)" xlink:href="#av"/><use transform="matrix(0.05555555555555555,0,0,0.05555555555555555,105.44444444444446,0)" xlink:href="#aY"/></g><path fill="#333" d="M231 0h-52l-39-155L100 0H48L-1-190h46L77-45c9-52 24-97 36-145h53l37 145 32-145h46" id="aZ"/><g id="M"><use transform="matrix(0.05555555555555555,0,0,0.05555555555555555,0,0)" xlink:href="#au"/><use transform="matrix(0.05555555555555555,0,0,0.05555555555555555,12.166666666666666,0)" xlink:href="#aR"/><use transform="matrix(0.05555555555555555,0,0,0.05555555555555555,23.27777777777778,0)" xlink:href="#aE"/><use transform="matrix(0.05555555555555555,0,0,0.05555555555555555,34.388888888888886,0)" xlink:href="#aE"/><use transform="matrix(0.05555555555555555,0,0,0.05555555555555555,45.5,0)" xlink:href="#aZ"/><use transform="matrix(0.05555555555555555,0,0,0.05555555555555555,61.05555555555555,0)" xlink:href="#ay"/><use transform="matrix(0.05555555555555555,0,0,0.05555555555555555,73.22222222222223,0)" xlink:href="#aF"/><use transform="matrix(0.05555555555555555,0,0,0.05555555555555555,81,0)" xlink:href="#az"/><use transform="matrix(0.05555555555555555,0,0,0.05555555555555555,93.16666666666667,0)" xlink:href="#aY"/></g><g id="N"><use transform="matrix(0.05555555555555555,0,0,0.05555555555555555,0,0)" xlink:href="#aD"/><use transform="matrix(0.05555555555555555,0,0,0.05555555555555555,12.166666666666666,0)" xlink:href="#aE"/><use transform="matrix(0.05555555555555555,0,0,0.05555555555555555,23.27777777777778,0)" xlink:href="#av"/><use transform="matrix(0.05555555555555555,0,0,0.05555555555555555,34.388888888888886,0)" xlink:href="#aF"/><use transform="matrix(0.05555555555555555,0,0,0.05555555555555555,42.166666666666664,0)" xlink:href="#aM"/><use transform="matrix(0.05555555555555555,0,0,0.05555555555555555,46.888888888888886,0)" xlink:href="#aE"/><use transform="matrix(0.05555555555555555,0,0,0.05555555555555555,58,0)" xlink:href="#aX"/><use transform="matrix(0.05555555555555555,0,0,0.05555555555555555,69.11111111111111,0)" xlink:href="#aR"/><use transform="matrix(0.05555555555555555,0,0,0.05555555555555555,80.22222222222223,0)" xlink:href="#aO"/><use transform="matrix(0.05555555555555555,0,0,0.05555555555555555,92.3888888888889,0)" xlink:href="#av"/></g><g id="O"><use transform="matrix(0.05555555555555555,0,0,0.05555555555555555,0,0)" xlink:href="#aR"/><use transform="matrix(0.05555555555555555,0,0,0.05555555555555555,11.11111111111111,0)" xlink:href="#aw"/><use transform="matrix(0.05555555555555555,0,0,0.05555555555555555,23.27777777777778,0)" xlink:href="#az"/></g><g id="P"><use transform="matrix(0.05555555555555555,0,0,0.05555555555555555,0,0)" xlink:href="#aD"/><use transform="matrix(0.05555555555555555,0,0,0.05555555555555555,12.166666666666666,0)" xlink:href="#aE"/><use transform="matrix(0.05555555555555555,0,0,0.05555555555555555,23.27777777777778,0)" xlink:href="#av"/><use transform="matrix(0.05555555555555555,0,0,0.05555555555555555,34.388888888888886,0)" xlink:href="#aF"/><use transform="matrix(0.05555555555555555,0,0,0.05555555555555555,42.166666666666664,0)" xlink:href="#aM"/><use transform="matrix(0.05555555555555555,0,0,0.05555555555555555,46.888888888888886,0)" xlink:href="#aE"/><use transform="matrix(0.05555555555555555,0,0,0.05555555555555555,58,0)" xlink:href="#aX"/><use transform="matrix(0.05555555555555555,0,0,0.05555555555555555,69.11111111111111,0)" xlink:href="#aO"/><use transform="matrix(0.05555555555555555,0,0,0.05555555555555555,81.27777777777779,0)" xlink:href="#av"/><use transform="matrix(0.05555555555555555,0,0,0.05555555555555555,92.3888888888889,0)" xlink:href="#aw"/><use transform="matrix(0.05555555555555555,0,0,0.05555555555555555,104.55555555555557,0)" xlink:href="#az"/><use transform="matrix(0.05555555555555555,0,0,0.05555555555555555,116.72222222222224,0)" xlink:href="#av"/><use transform="matrix(0.05555555555555555,0,0,0.05555555555555555,127.83333333333336,0)" xlink:href="#aF"/></g><g id="Q"><use transform="matrix(0.05555555555555555,0,0,0.05555555555555555,0,0)" xlink:href="#aS"/><use transform="matrix(0.05555555555555555,0,0,0.05555555555555555,12.222222222222221,0)" xlink:href="#aR"/><use transform="matrix(0.05555555555555555,0,0,0.05555555555555555,23.333333333333332,0)" xlink:href="#aG"/><use transform="matrix(0.05555555555555555,0,0,0.05555555555555555,28.888888888888886,0)" xlink:href="#aA"/><use transform="matrix(0.05555555555555555,0,0,0.05555555555555555,34.44444444444444,0)" xlink:href="#az"/></g><path fill="#333" d="M175 0L67-191c6 58 2 128 3 191H24v-248h59L193-55c-6-58-2-129-3-193h46V0h-61" id="ba"/><g id="R"><use transform="matrix(0.05555555555555555,0,0,0.05555555555555555,0,0)" xlink:href="#ba"/><use transform="matrix(0.05555555555555555,0,0,0.05555555555555555,14.388888888888888,0)" xlink:href="#av"/><use transform="matrix(0.05555555555555555,0,0,0.05555555555555555,25.5,0)" xlink:href="#aZ"/></g><g id="S"><use transform="matrix(0.05555555555555555,0,0,0.05555555555555555,0,0)" xlink:href="#aD"/><use transform="matrix(0.05555555555555555,0,0,0.05555555555555555,12.166666666666666,0)" xlink:href="#aE"/><use transform="matrix(0.05555555555555555,0,0,0.05555555555555555,23.27777777777778,0)" xlink:href="#av"/><use transform="matrix(0.05555555555555555,0,0,0.05555555555555555,34.388888888888886,0)" xlink:href="#aF"/></g><g id="T"><use transform="matrix(0.05555555555555555,0,0,0.05555555555555555,0,0)" xlink:href="#aP"/><use transform="matrix(0.05555555555555555,0,0,0.05555555555555555,12.166666666666666,0)" xlink:href="#aR"/><use transform="matrix(0.05555555555555555,0,0,0.05555555555555555,23.27777777777778,0)" xlink:href="#aE"/></g><g id="U"><use transform="matrix(0.05555555555555555,0,0,0.05555555555555555,0,0)" xlink:href="#aV"/><use transform="matrix(0.05555555555555555,0,0,0.05555555555555555,12.166666666666666,0)" xlink:href="#av"/><use transform="matrix(0.05555555555555555,0,0,0.05555555555555555,23.27777777777778,0)" xlink:href="#av"/><use transform="matrix(0.05555555555555555,0,0,0.05555555555555555,34.388888888888886,0)" xlink:href="#aw"/></g><g id="V"><use transform="matrix(0.05555555555555555,0,0,0.05555555555555555,0,0)" xlink:href="#aR"/><use transform="matrix(0.05555555555555555,0,0,0.05555555555555555,11.11111111111111,0)" xlink:href="#az"/><use transform="matrix(0.05555555555555555,0,0,0.05555555555555555,23.27777777777778,0)" xlink:href="#az"/><use transform="matrix(0.05555555555555555,0,0,0.05555555555555555,35.44444444444444,0)" xlink:href="#av"/><use transform="matrix(0.05555555555555555,0,0,0.05555555555555555,46.55555555555556,0)" xlink:href="#az"/></g><g id="W"><use transform="matrix(0.05555555555555555,0,0,0.05555555555555555,0,0)" xlink:href="#aT"/><use transform="matrix(0.05555555555555555,0,0,0.05555555555555555,5.555555555555555,0)" xlink:href="#aw"/><use transform="matrix(0.05555555555555555,0,0,0.05555555555555555,17.72222222222222,0)" xlink:href="#aK"/><use transform="matrix(0.05555555555555555,0,0,0.05555555555555555,28.833333333333332,0)" xlink:href="#aR"/><use transform="matrix(0.05555555555555555,0,0,0.05555555555555555,39.94444444444444,0)" xlink:href="#aA"/><use transform="matrix(0.05555555555555555,0,0,0.05555555555555555,45.5,0)" xlink:href="#az"/></g><path fill="#333" d="M230 0l2-204L168 0h-37L68-204 70 0H24v-248h70l56 185 57-185h69V0h-46" id="bb"/><g id="X"><use transform="matrix(0.05555555555555555,0,0,0.05555555555555555,0,0)" xlink:href="#bb"/><use transform="matrix(0.05555555555555555,0,0,0.05555555555555555,16.61111111111111,0)" xlink:href="#ay"/><use transform="matrix(0.05555555555555555,0,0,0.05555555555555555,28.777777777777775,0)" xlink:href="#az"/><use transform="matrix(0.05555555555555555,0,0,0.05555555555555555,40.94444444444444,0)" xlink:href="#aA"/><use transform="matrix(0.05555555555555555,0,0,0.05555555555555555,46.5,0)" xlink:href="#aB"/><use transform="matrix(0.05555555555555555,0,0,0.05555555555555555,53.111111111111114,0)" xlink:href="#aC"/></g><g id="Y"><use transform="matrix(0.05555555555555555,0,0,0.05555555555555555,0,0)" xlink:href="#aD"/><use transform="matrix(0.05555555555555555,0,0,0.05555555555555555,12.166666666666666,0)" xlink:href="#aE"/><use transform="matrix(0.05555555555555555,0,0,0.05555555555555555,23.27777777777778,0)" xlink:href="#av"/><use transform="matrix(0.05555555555555555,0,0,0.05555555555555555,34.388888888888886,0)" xlink:href="#aF"/><use transform="matrix(0.05555555555555555,0,0,0.05555555555555555,42.166666666666664,0)" xlink:href="#aM"/><use transform="matrix(0.05555555555555555,0,0,0.05555555555555555,46.888888888888886,0)" xlink:href="#aE"/></g><g id="Z"><use transform="matrix(0.05555555555555555,0,0,0.05555555555555555,0,0)" xlink:href="#az"/><use transform="matrix(0.05555555555555555,0,0,0.05555555555555555,12.166666666666666,0)" xlink:href="#aR"/><use transform="matrix(0.05555555555555555,0,0,0.05555555555555555,23.27777777777778,0)" xlink:href="#aH"/><use transform="matrix(0.05555555555555555,0,0,0.05555555555555555,29.888888888888886,0)" xlink:href="#aR"/></g><g id="aa"><use transform="matrix(0.05555555555555555,0,0,0.05555555555555555,0,0)" xlink:href="#aQ"/><use transform="matrix(0.05555555555555555,0,0,0.05555555555555555,14.388888888888888,0)" xlink:href="#ay"/><use transform="matrix(0.05555555555555555,0,0,0.05555555555555555,26.555555555555554,0)" xlink:href="#aw"/><use transform="matrix(0.05555555555555555,0,0,0.05555555555555555,38.72222222222222,0)" xlink:href="#aB"/><use transform="matrix(0.05555555555555555,0,0,0.05555555555555555,45.33333333333333,0)" xlink:href="#aA"/><use transform="matrix(0.05555555555555555,0,0,0.05555555555555555,50.888888888888886,0)" xlink:href="#aF"/><use transform="matrix(0.05555555555555555,0,0,0.05555555555555555,58.666666666666664,0)" xlink:href="#ax"/></g><g id="ab"><use transform="matrix(0.05555555555555555,0,0,0.05555555555555555,0,0)" xlink:href="#ax"/><use transform="matrix(0.05555555555555555,0,0,0.05555555555555555,17.77777777777778,0)" xlink:href="#ay"/><use transform="matrix(0.05555555555555555,0,0,0.05555555555555555,29.944444444444443,0)" xlink:href="#az"/><use transform="matrix(0.05555555555555555,0,0,0.05555555555555555,42.11111111111111,0)" xlink:href="#aA"/><use transform="matrix(0.05555555555555555,0,0,0.05555555555555555,47.666666666666664,0)" xlink:href="#aB"/><use transform="matrix(0.05555555555555555,0,0,0.05555555555555555,54.27777777777777,0)" xlink:href="#aA"/><use transform="matrix(0.05555555555555555,0,0,0.05555555555555555,59.83333333333333,0)" xlink:href="#av"/><use transform="matrix(0.05555555555555555,0,0,0.05555555555555555,70.94444444444444,0)" xlink:href="#az"/></g></defs></g></svg>