<svg xmlns="http://www.w3.org/2000/svg" xmlns:xlink="http://www.w3.org/1999/xlink" xmlns:lucid="lucid" width="1611.61" height="1911.26"><g transform="translate(-1039.5 -79.50000000000003)" lucid:page-tab-id="0_0"><path d="M1978.36 165.83c0 16.85-13.28 30.5-29.67 30.5-16.4 0-29.67-13.65-29.67-30.5s13.28-30.5 29.66-30.5c16.38 0 29.65 13.65 29.65 30.5z" stroke="#666"/><path d="M1949.2 960.97h-1v-78.6h1zm0-102.6h-1V669.92h1z" stroke="#333" stroke-width=".05" fill="#333"/><path d="M1949.2 669.93h-1v-.52h1z" fill="#333"/><path d="M1949.22 669.95h-1.05v-.56h1.05zm-1-.5v.45h.95v-.46z" stroke="#333" stroke-width=".05" fill="#333"/><path d="M1948.7 966.86l-7.64-12.9h15.27z" fill="#333"/><path d="M1948.7 967.84l-8.52-14.4h17.02zm-6.77-13.4l6.76 11.44 6.75-11.43z" stroke="#333" stroke-width=".05" fill="#333"/><use xlink:href="#a" transform="matrix(1,0,0,1,1865.637496655475,858.3788957229146) translate(0.0049999999999954525 16)"/><use xlink:href="#b" transform="matrix(1,0,0,1,1865.637496655475,858.3788957229146) translate(43.227222222222224 16)"/><path d="M1436 1099.36c-8.84 0-16 7.16-16 16v48c0 8.83 7.16 16 16 16h128c8.84 0 16-7.17 16-16v-48c0-8.84-7.16-16-16-16z" stroke="#333" fill="#cfe4ff"/><use xlink:href="#c" transform="matrix(1,0,0,1,1428,1107.3578302935932) translate(34.91666666666667 25.599999999999998)"/><use xlink:href="#d" transform="matrix(1,0,0,1,1428,1107.3578302935932) translate(79.19444444444446 25.599999999999998)"/><use xlink:href="#e" transform="matrix(1,0,0,1,1428,1107.3578302935932) translate(17.16666666666666 49.599999999999994)"/><path d="M1884.7 968.34c-8.84 0-16 7.17-16 16v48c0 8.84 7.16 16 16 16h128c8.83 0 16-7.16 16-16v-48c0-8.83-7.17-16-16-16z" stroke="#333" fill="#cfe4ff"/><use xlink:href="#f" transform="matrix(1,0,0,1,1876.6930522110306,976.3424921042733) translate(35.44444444444444 25.599999999999998)"/><use xlink:href="#g" transform="matrix(1,0,0,1,1876.6930522110306,976.3424921042733) translate(10.555555555555554 49.599999999999994)"/><path d="M1500 1180.36v101.74a12 12 0 0 1-12 12h-96.97a12 12 0 0 0-12 12v95.37" stroke="#333" fill="none"/><path d="M1500.5 1180.37h-1v-.5h1z" stroke="#333" stroke-width=".05" fill="#333"/><path d="M1379.03 1407.36l-7.63-12.9h15.27z" stroke="#333" fill="#333"/><path d="M1681.5 165.83h9.5m9.5 0h19m9.5 0h19m9.5 0h19.02m9.5 0h19m9.5 0h19m9.5 0h19m9.5 0h19.02m9.5 0h9.5" stroke="#333" stroke-width="2" fill="none"/><path d="M1681.53 166.83h-1.03v-2h1.03z" stroke="#333" stroke-width=".05" fill="#333"/><path d="M1916.57 165.83l-12.9 7.64-.02-15.27z" stroke="#333" stroke-width="2" fill="#333"/><path d="M1480 100h175.8l24.2 24.2V221h-200z" stroke="#333" fill="#fcfcca"/><path d="M1655.8 100.48v23.72h23.72" stroke="#333" fill="#fcfcca"/><use xlink:href="#h" transform="matrix(1,0,0,1,1485,105.00000000000003) translate(8.555555555555543 47.5)"/><use xlink:href="#i" transform="matrix(1,0,0,1,1485,105.00000000000003) translate(133.77777777777777 47.5)"/><use xlink:href="#j" transform="matrix(1,0,0,1,1485,105.00000000000003) translate(36.27777777777777 71.5)"/><use xlink:href="#k" transform="matrix(1,0,0,1,1485,105.00000000000003) translate(65.11111111111111 71.5)"/><use xlink:href="#l" transform="matrix(1,0,0,1,1485,105.00000000000003) translate(136 71.5)"/><path d="M1545.1 778.88h-214.05l-1.82.14-1.75.42-1.67.7-1.53.94-1.37 1.17-1.17 1.37-.94 1.54-.7 1.67-.43 1.75-.14 1.82v90.57h-1v-90.6l.15-1.95.46-1.9.75-1.82 1.02-1.67 1.27-1.5 1.48-1.27 1.67-1.02 1.82-.75 1.9-.47 1.94-.15h214.1zm346.2-12.48l-.14 1.93-.46 1.9-.75 1.82-1.03 1.68-1.27 1.5-1.5 1.26-1.67 1.02-1.8.75-1.9.46-1.95.15h-125.45v-1h125.4l1.83-.14 1.76-.43 1.67-.68 1.54-.94 1.37-1.17 1.17-1.36.96-1.54.68-1.67.43-1.75.14-1.82V669.4h1z" stroke="#333" stroke-width=".05" fill="#333"/><path d="M1891.3 669.43h-1l1-.02z" fill="#333"/><path d="M1891.34 669.45h-1.05l-.02-.05h1.06z" stroke="#333" stroke-width=".05" fill="#333"/><path d="M1319.03 886.86l-7.63-12.9h15.27z" fill="#333"/><path d="M1319.03 887.84l-8.5-14.4h17zm-6.76-13.4l6.76 11.44 6.76-11.43z" stroke="#333" stroke-width=".05" fill="#333"/><use xlink:href="#m" transform="matrix(1,0,0,1,1545.099516013627,766.3779552889471) translate(0.0049999999999954525 16)"/><use xlink:href="#n" transform="matrix(1,0,0,1,1545.099516013627,766.3779552889471) translate(44.282777777777774 16)"/><use xlink:href="#o" transform="matrix(1,0,0,1,1545.099516013627,766.3779552889471) translate(88.67166666666667 16)"/><path d="M1199.03 896.34a8 8 0 0 1 8-8h224a8 8 0 0 1 8 8v5.02a8 8 0 0 1-8 8h-224a8 8 0 0 1-8-8z" stroke="#333"/><path d="M1379.03 909.86v82.25a12 12 0 0 0 12 12H1488a12 12 0 0 1 12 12V1092" stroke="#333" fill="none"/><path d="M1379.53 909.87h-1 1z" stroke="#333" stroke-width=".05" fill="#333"/><path d="M1500 1097.88l-7.64-12.92h15.28z" stroke="#333" fill="#333"/><path d="M1076 1099.36c-8.84 0-16 7.16-16 16v48c0 8.83 7.16 16 16 16h128c8.84 0 16-7.17 16-16v-48c0-8.84-7.16-16-16-16z" stroke="#333" fill="#cfe4ff"/><use xlink:href="#m" transform="matrix(1,0,0,1,1068,1107.3578302935932) translate(20.47222222222222 24)"/><use xlink:href="#p" transform="matrix(1,0,0,1,1068,1107.3578302935932) translate(64.75 24)"/><use xlink:href="#q" transform="matrix(1,0,0,1,1068,1107.3578302935932) translate(40.388888888888886 48)"/><path d="M1259.03 909.86v82.25a12 12 0 0 1-12 12H1152a12 12 0 0 0-12 12V1092" stroke="#333" fill="none"/><path d="M1259.53 909.87h-1 1z" stroke="#333" stroke-width=".05" fill="#333"/><path d="M1140 1097.88l-7.64-12.92h15.28z" stroke="#333" fill="#333"/><path d="M1199.03 1416.34a8 8 0 0 1 8-8h224a8 8 0 0 1 8 8v3a8 8 0 0 1-8 8h-224a8 8 0 0 1-8-8z" stroke="#333"/><path d="M1140 1180.36v101.74a12 12 0 0 0 12 12h95.03a12 12 0 0 1 12 12v95.37" stroke="#333" fill="none"/><path d="M1140.5 1180.37h-1v-.5h1z" stroke="#333" stroke-width=".05" fill="#333"/><path d="M1259.03 1407.36l-7.63-12.9h15.27z" stroke="#333" fill="#333"/><path d="M1880.77 1652.63l1.9.45 1.8.75 1.7 1.03 1.48 1.27 1.27 1.5 1.03 1.67.75 1.8.46 1.92.15 1.93v117.44h-1V1665l-.13-1.83-.43-1.75-.68-1.67-.95-1.54-1.16-1.36-1.37-1.17-1.54-.94-1.67-.7-1.75-.4-1.8-.16h-22.75v-1h22.78zm-239.77.84v-1h27.88v1z" stroke="#333" stroke-width=".05" fill="#333"/><path d="M1641 1653.47h-.5v-1h.5z" fill="#333"/><path d="M1641.04 1653.5h-.57v-1.05h.57zm-.5-1v.95h.45v-.95z" stroke="#333" stroke-width=".05" fill="#333"/><path d="M1890.8 1788.28l-7.63-12.9h15.27z" fill="#333"/><path d="M1890.8 1789.26l-8.5-14.4h17.02zm-6.75-13.4l6.76 11.44 6.77-11.43z" stroke="#333" stroke-width=".05" fill="#333"/><use xlink:href="#r" transform="matrix(1,0,0,1,1668.8798067577948,1640.9725236871795) translate(0.0049999999999954525 16)"/><use xlink:href="#s" transform="matrix(1,0,0,1,1668.8798067577948,1640.9725236871795) translate(128.44944444444445 16)"/><path d="M1876 1198.34c-8.84 0-16 7.17-16 16v48c0 8.84 7.16 16 16 16h148c8.84 0 16-7.16 16-16v-48c0-8.83-7.16-16-16-16z" stroke="#333" fill="#cfe4ff"/><use xlink:href="#t" transform="matrix(1,0,0,1,1868,1206.3424921042733) translate(49.888888888888886 19.2)"/><use xlink:href="#u" transform="matrix(1,0,0,1,1868,1206.3424921042733) translate(20.555555555555554 43.2)"/><use xlink:href="#v" transform="matrix(1,0,0,1,1868,1206.3424921042733) translate(27.16666666666666 67.2)"/><path d="M1948.7 1049.34v141.63" stroke="#333" fill="none"/><path d="M1949.2 1049.36h-1v-.52h1z" stroke="#333" stroke-width=".05" fill="#333"/><path d="M1948.7 1196.86l-7.64-12.9h15.27z" stroke="#333" fill="#333"/><path d="M2528.63 817.88l1.94.15 1.9.46 1.82.74 1.66 1.02 1.5 1.28 1.27 1.5 1.02 1.66.75 1.8.46 1.92.15 1.94v130.6h-1V830.4l-.13-1.82-.42-1.75-.7-1.67-.93-1.54-1.18-1.37-1.37-1.17-1.54-.95-1.66-.7-1.76-.4-1.8-.15h-161.5v-1zm-521.52-9.7l.43 1.75.7 1.67.93 1.54 1.17 1.37 1.37 1.18 1.54.94 1.67.7 1.76.4 1.82.16h161.5v1h-161.54l-1.93-.15-1.9-.46-1.8-.75-1.68-1.03-1.5-1.28-1.27-1.5-1.03-1.67-.75-1.8-.45-1.92-.16-1.93v-137h1v136.96z" stroke="#333" stroke-width=".05" fill="#333"/><path d="M2006.96 669.43h-1l1-.02z" fill="#333"/><path d="M2007 669.45h-1.06v-.05h1.05z" stroke="#333" stroke-width=".05" fill="#333"/><path d="M2540.6 966.86l-7.62-12.9h15.27z" fill="#333"/><path d="M2540.6 967.84l-8.5-14.4h17.03zm-6.74-13.4l6.75 11.44 6.77-11.43z" stroke="#333" stroke-width=".05" fill="#333"/><use xlink:href="#w" transform="matrix(1,0,0,1,2179.982828301351,806.2445969556139) translate(0.0049999999999954525 16.177777777777777)"/><use xlink:href="#x" transform="matrix(1,0,0,1,2179.982828301351,806.2445969556139) translate(66.17660493827158 16.177777777777777)"/><path d="M2476.6 968.34c-8.82 0-16 7.17-16 16v48c0 8.84 7.18 16 16 16h128c8.85 0 16-7.16 16-16v-48c0-8.83-7.15-16-16-16z" stroke="#333" fill="#cfe4ff"/><use xlink:href="#f" transform="matrix(1,0,0,1,2468.6142754915154,976.3424921042733) translate(35.44444444444444 25.599999999999998)"/><use xlink:href="#g" transform="matrix(1,0,0,1,2468.6142754915154,976.3424921042733) translate(10.555555555555554 49.599999999999994)"/><path d="M2534.6 1173.6a9.14 9.14 0 0 1 12.04 0l67.95 59.47a7 7 0 0 1 0 10.54l-67.96 59.47a9.14 9.14 0 0 1-12.05 0l-67.96-59.46a7 7 0 0 1 0-10.53z" stroke="#333" fill="#fcfcca"/><use xlink:href="#y" transform="matrix(1,0,0,1,2460.6142754915154,1168.3424921042733) translate(41.782777777777774 64.125)"/><use xlink:href="#z" transform="matrix(1,0,0,1,2460.6142754915154,1168.3424921042733) translate(41.782777777777774 88.125)"/><path d="M2540.6 1049.34v114.63" stroke="#333" fill="none"/><path d="M2541.1 1049.36h-1v-.52h1z" stroke="#333" stroke-width=".05" fill="#333"/><path d="M2540.6 1169.87l-7.62-12.92h15.27z" stroke="#333" fill="#333"/><path d="M2466.6 1408.34c-8.82 0-16 7.17-16 16v48c0 8.84 7.18 16 16 16h148c8.85 0 16-7.16 16-16v-48c0-8.83-7.15-16-16-16z" stroke="#333" fill="#cfe4ff"/><use xlink:href="#A" transform="matrix(1,0,0,1,2458.6142754915154,1416.3424921042733) translate(17.19444444444444 37.599999999999994)"/><use xlink:href="#B" transform="matrix(1,0,0,1,2458.6142754915154,1416.3424921042733) translate(76.97222222222221 37.599999999999994)"/><path d="M2541.6 1398.85h-2v-30h2zm0-54h-2v-38h2z" stroke="#333" stroke-width=".05" fill="#333"/><path d="M2540.6 1305.84l1-.07v1.1h-2v-1.1z" fill="#333"/><path d="M2540.6 1305.8l1.04-.06v1.15h-2.05v-1.16zm-.96 1.04h1.95v-1.05l-1 .06-.96-.07z" stroke="#333" stroke-width=".05" fill="#333"/><path d="M2540.6 1405.88l-7.62-12.9h15.27z" fill="#333"/><path d="M2540.6 1407.84l-9.38-15.87H2550zm-5.87-13.87l5.88 9.94 5.9-9.93z" stroke="#333" stroke-width=".05" fill="#333"/><use xlink:href="#C" transform="matrix(1,0,0,1,2490.753164380404,1344.840185923335) translate(0.005000000000002558 16)"/><path d="M2541.1 1627.07l-.14 1.94-.46 1.9-.75 1.83-1.02 1.67-1.28 1.5-1.5 1.26-1.66 1.03-1.82.74-1.9.46-1.95.15h-510.15l-1.82.14-1.75.42-1.66.7-1.54.93-1.37 1.17-1.17 1.37-.94 1.53-.7 1.67-.4 1.75-.16 1.82v131.32h-1v-131.37l.15-1.93.47-1.9.75-1.82 1.03-1.68 1.27-1.5 1.5-1.26 1.67-1.03 1.8-.74 1.9-.46 1.94-.15h510.15l1.8-.14 1.77-.4 1.66-.7 1.54-.95 1.38-1.17 1.17-1.37.94-1.53.7-1.67.4-1.75.15-1.82v-137.7h1z" stroke="#333" stroke-width=".05" fill="#333"/><path d="M2541.1 1489.36h-1v-.52h1z" fill="#333"/><path d="M2541.14 1489.38h-1.05v-.56h1.04zm-1-.5v.45h.95v-.46z" stroke="#333" stroke-width=".05" fill="#333"/><path d="M2006.46 1788.28l-7.63-12.9h15.27z" fill="#333"/><path d="M2006.46 1789.26l-8.5-14.4h17zm-6.76-13.4l6.76 11.44 6.76-11.43z" stroke="#333" stroke-width=".05" fill="#333"/><use xlink:href="#r" transform="matrix(1,0,0,1,2211.2055897982245,1643.0512776350433) translate(0.0049999999999954525 16)"/><use xlink:href="#D" transform="matrix(1,0,0,1,2211.2055897982245,1643.0512776350433) translate(128.44944444444445 16)"/><path d="M1968.64 1949.26c0 11.05-8.96 20-20 20-11.05 0-20-8.95-20-20s8.95-20 20-20c11.04 0 20 8.95 20 20z" stroke="#333" stroke-width="3" fill="#fff"/><path d="M1934.5 1935.12l28.28 28.28m0-28.28l-28.3 28.28" stroke="#333" stroke-width="3" fill="none"/><path d="M1884.83 290.83c-8.84 0-16 7.16-16 16v48c0 8.84 7.16 16 16 16h128c8.83 0 16-7.16 16-16v-48c0-8.84-7.17-16-16-16z" stroke="#333" fill="#cfe4ff"/><use xlink:href="#E" transform="matrix(1,0,0,1,1876.8265894971596,298.8302578206285) translate(49.41666666666667 19.2)"/><use xlink:href="#F" transform="matrix(1,0,0,1,1876.8265894971596,298.8302578206285) translate(5.000000000000011 43.2)"/><use xlink:href="#G" transform="matrix(1,0,0,1,1876.8265894971596,298.8302578206285) translate(57.58333333333334 67.2)"/><path d="M1948.7 197.34v86.12" stroke="#333" fill="none"/><path d="M1948.68 196.84l.5-.02v.53h-1v-.55z" stroke="#333" stroke-width=".05" fill="#333"/><path d="M1948.7 289.35l-7.64-12.9h15.27z" stroke="#333" fill="#333"/><path d="M1949.33 632.63h-1V498.3h1zm0-158.6h-1v-102.2h1z" stroke="#333" stroke-width=".05" fill="#333"/><path d="M1949.33 371.84h-1v-.5h1z" fill="#333"/><path d="M1949.35 371.87h-1.05v-.56h1.05zm-1-.5v.45h.95v-.46z" stroke="#333" stroke-width=".05" fill="#333"/><path d="M1948.83 638.52l-7.64-12.9h15.26z" fill="#333"/><path d="M1948.83 639.5l-8.52-14.4h17.04zm-6.76-13.4l6.76 11.44 6.76-11.43z" stroke="#333" stroke-width=".05" fill="#333"/><use xlink:href="#H" transform="matrix(1,0,0,1,1876.5883178922213,474.0391291652904) translate(0.0049999999999954525 16.177777777777777)"/><use xlink:href="#I" transform="matrix(1,0,0,1,1876.5883178922213,474.0391291652904) translate(79.54574074074073 16.177777777777777)"/><path d="M1950.5 1781.9h-1v-277.53h1zm0-301.53h-1v-201.03h1z" stroke="#333" stroke-width=".05" fill="#333"/><path d="M1950.5 1279.36h-1v-.52h1z" fill="#333"/><path d="M1950.53 1279.38h-1.06v-.56h1.06zm-1-.5v.45h.94v-.46z" stroke="#333" stroke-width=".05" fill="#333"/><path d="M1950 1787.78l-7.64-12.9h15.28z" fill="#333"/><path d="M1950 1788.76l-8.5-14.4h17zm-6.76-13.4l6.76 11.44 6.76-11.43z" stroke="#333" stroke-width=".05" fill="#333"/><g><use xlink:href="#J" transform="matrix(1,0,0,1,1847.0277777777778,1480.3708690451863) translate(0.0049999999999954525 16)"/><use xlink:href="#K" transform="matrix(1,0,0,1,1847.0277777777778,1480.3708690451863) translate(128.44944444444445 16)"/></g><path d="M1319.03 1428.33v212.64a12 12 0 0 0 12 12h121.6" stroke="#333" fill="none"/><path d="M1319.53 1428.34h-1v-.5h1z" stroke="#333" stroke-width=".05" fill="#333"/><path d="M1458.52 1652.97l-12.9 7.64v-15.26z" stroke="#333" fill="#333"/><path d="M1476 1612.97c-8.84 0-16 7.17-16 16v48c0 8.84 7.16 16 16 16h148c8.84 0 16-7.16 16-16v-48c0-8.83-7.16-16-16-16z" stroke="#333" fill="#cfe4ff"/><g><use xlink:href="#L" transform="matrix(1,0,0,1,1468,1620.9725236871795) translate(62.6388888888889 25.599999999999998)"/><use xlink:href="#g" transform="matrix(1,0,0,1,1468,1620.9725236871795) translate(20.555555555555554 49.599999999999994)"/></g><path d="M1832.98 648a8 8 0 0 1 8-8h215.3a8 8 0 0 1 8 8v12.9a8 8 0 0 1-8 8H1841a8 8 0 0 1-8-8z" stroke="#333"/><path d="M2320.5 1226.32l.14 1.82.42 1.76.7 1.66.94 1.54 1.17 1.37 1.37 1.17 1.54.95 1.67.68 1.75.42 1.82.14h131.22v1h-131.26l-1.94-.15-1.9-.47-1.82-.75-1.67-1.02-1.5-1.28-1.26-1.5-1.04-1.66-.75-1.8-.45-1.92-.15-1.94v-89.07h1zm132.74-217.48h-121.22l-1.82.15-1.75.4-1.67.7-1.54.94-1.37 1.17-1.17 1.38-.94 1.54-.7 1.67-.42 1.74-.14 1.82v92.66h-1v-92.7l.15-1.93.46-1.92.76-1.8 1.03-1.7 1.26-1.48 1.5-1.27 1.66-1.03 1.82-.75 1.9-.46 1.94-.16h121.26z" stroke="#333" stroke-width=".05" fill="#333"/><path d="M2463.74 1238.34l.05.5h-.57v-1h.55z" fill="#333"/><path d="M2463.77 1238.34l.04.53h-.6v-1.05h.6zm-.5-.47v.95h.5l-.05-.48.04-.47z" stroke="#333" stroke-width=".05" fill="#333"/><path d="M2459.13 1008.34l-12.9 7.64v-15.27z" fill="#333"/><path d="M2460.1 1008.34l-14.38 8.5v-17zm-13.38 6.76l11.43-6.76-11.43-6.76z" stroke="#333" stroke-width=".05" fill="#333"/><g><use xlink:href="#M" transform="matrix(1,0,0,1,2284.1055555555554,1113.023339664154) translate(0.005000000000002558 16.177777777777777)"/></g><path d="M1832.98 1797.26a8 8 0 0 1 8-8h215.3a8 8 0 0 1 8 8v12.9a8 8 0 0 1-8 8H1841a8 8 0 0 1-8-8z" stroke="#333"/><path d="M1948.64 1819.17v101.72" stroke="#333" fill="none"/><path d="M1949.14 1819.2h-1v-.53h1z" stroke="#333" stroke-width=".05" fill="#333"/><path d="M1948.64 1926.78l-7.64-12.9h15.27z" stroke="#333" fill="#333"/><defs><path fill="#333" d="M24 0v-248h195v40H76v63h132v40H76v65h150V0H24" id="N"/><path fill="#333" d="M88-194c31-1 46 15 58 34l-1-101h50l1 261h-48c-2-10 0-23-3-31C134-8 116 4 84 4 32 4 16-41 15-95c0-56 19-97 73-99zm17 164c33 0 40-30 41-66 1-37-9-64-41-64s-38 30-39 65c0 43 13 65 39 65" id="O"/><path fill="#333" d="M25-224v-37h50v37H25zM25 0v-190h50V0H25" id="P"/><path fill="#333" d="M115-3C79 11 28 4 28-45v-112H4v-33h27l15-45h31v45h36v33H77v99c-1 23 16 31 38 25v30" id="Q"/><g id="a"><use transform="matrix(0.05555555555555555,0,0,0.05555555555555555,0,0)" xlink:href="#N"/><use transform="matrix(0.05555555555555555,0,0,0.05555555555555555,13.333333333333332,0)" xlink:href="#O"/><use transform="matrix(0.05555555555555555,0,0,0.05555555555555555,25.5,0)" xlink:href="#P"/><use transform="matrix(0.05555555555555555,0,0,0.05555555555555555,31.05555555555556,0)" xlink:href="#Q"/></g><path fill="#333" d="M199 0l-22-63H83L61 0H9l90-248h61L250 0h-51zm-33-102l-36-108c-10 38-24 72-36 108h72" id="R"/><path fill="#333" d="M135-194c53 0 70 44 70 98 0 56-19 98-73 100-31 1-45-17-59-34 3 33 2 69 2 105H25l-1-265h48c2 10 0 23 3 31 11-24 29-35 60-35zM114-30c33 0 39-31 40-66 0-38-9-64-40-64-56 0-55 130 0 130" id="S"/><path fill="#333" d="M110-194c64 0 96 36 96 99 0 64-35 99-97 99-61 0-95-36-95-99 0-62 34-99 96-99zm-1 164c35 0 45-28 45-65 0-40-10-65-43-65-34 0-45 26-45 65 0 36 10 65 43 65" id="T"/><path fill="#333" d="M135-194c87-1 58 113 63 194h-50c-7-57 23-157-34-157-59 0-34 97-39 157H25l-1-190h47c2 12-1 28 3 38 12-26 28-41 61-42" id="U"/><path fill="#333" d="M220-157c-53 9-28 100-34 157h-49v-107c1-27-5-49-29-50C55-147 81-57 75 0H25l-1-190h47c2 12-1 28 3 38 10-53 101-56 108 0 13-22 24-43 59-42 82 1 51 116 57 194h-49v-107c-1-25-5-48-29-50" id="V"/><path fill="#333" d="M185-48c-13 30-37 53-82 52C43 2 14-33 14-96s30-98 90-98c62 0 83 45 84 108H66c0 31 8 55 39 56 18 0 30-7 34-22zm-45-69c5-46-57-63-70-21-2 6-4 13-4 21h74" id="W"/><g id="b"><use transform="matrix(0.05555555555555555,0,0,0.05555555555555555,0,0)" xlink:href="#R"/><use transform="matrix(0.05555555555555555,0,0,0.05555555555555555,14.388888888888888,0)" xlink:href="#S"/><use transform="matrix(0.05555555555555555,0,0,0.05555555555555555,26.555555555555554,0)" xlink:href="#S"/><use transform="matrix(0.05555555555555555,0,0,0.05555555555555555,38.72222222222222,0)" xlink:href="#T"/><use transform="matrix(0.05555555555555555,0,0,0.05555555555555555,50.888888888888886,0)" xlink:href="#P"/><use transform="matrix(0.05555555555555555,0,0,0.05555555555555555,56.44444444444444,0)" xlink:href="#U"/><use transform="matrix(0.05555555555555555,0,0,0.05555555555555555,68.61111111111111,0)" xlink:href="#Q"/><use transform="matrix(0.05555555555555555,0,0,0.05555555555555555,75.22222222222223,0)" xlink:href="#V"/><use transform="matrix(0.05555555555555555,0,0,0.05555555555555555,93,0)" xlink:href="#W"/><use transform="matrix(0.05555555555555555,0,0,0.05555555555555555,104.11111111111111,0)" xlink:href="#U"/><use transform="matrix(0.05555555555555555,0,0,0.05555555555555555,116.2777777777778,0)" xlink:href="#Q"/></g><g id="c"><use transform="matrix(0.05555555555555555,0,0,0.05555555555555555,0,0)" xlink:href="#R"/><use transform="matrix(0.05555555555555555,0,0,0.05555555555555555,14.388888888888888,0)" xlink:href="#O"/><use transform="matrix(0.05555555555555555,0,0,0.05555555555555555,26.555555555555554,0)" xlink:href="#O"/></g><g id="d"><use transform="matrix(0.05555555555555555,0,0,0.05555555555555555,0,0)" xlink:href="#S"/><use transform="matrix(0.05555555555555555,0,0,0.05555555555555555,12.166666666666666,0)" xlink:href="#W"/><use transform="matrix(0.05555555555555555,0,0,0.05555555555555555,23.27777777777778,0)" xlink:href="#Q"/></g><path fill="#333" d="M121-226c-27-7-43 5-38 36h38v33H83V0H34v-157H6v-33h28c-9-59 32-81 87-68v32" id="X"/><path fill="#333" d="M135-150c-39-12-60 13-60 57V0H25l-1-190h47c2 13-1 29 3 40 6-28 27-53 61-41v41" id="Y"/><path fill="#333" d="M133-34C117-15 103 5 69 4 32 3 11-16 11-54c-1-60 55-63 116-61 1-26-3-47-28-47-18 1-26 9-28 27l-52-2c7-38 36-58 82-57s74 22 75 68l1 82c-1 14 12 18 25 15v27c-30 8-71 5-69-32zm-48 3c29 0 43-24 42-57-32 0-66-3-65 30 0 17 8 27 23 27" id="Z"/><g id="e"><use transform="matrix(0.05555555555555555,0,0,0.05555555555555555,0,0)" xlink:href="#P"/><use transform="matrix(0.05555555555555555,0,0,0.05555555555555555,5.555555555555555,0)" xlink:href="#U"/><use transform="matrix(0.05555555555555555,0,0,0.05555555555555555,17.72222222222222,0)" xlink:href="#X"/><use transform="matrix(0.05555555555555555,0,0,0.05555555555555555,24.333333333333332,0)" xlink:href="#T"/><use transform="matrix(0.05555555555555555,0,0,0.05555555555555555,36.5,0)" xlink:href="#Y"/><use transform="matrix(0.05555555555555555,0,0,0.05555555555555555,44.27777777777778,0)" xlink:href="#V"/><use transform="matrix(0.05555555555555555,0,0,0.05555555555555555,62.05555555555555,0)" xlink:href="#Z"/><use transform="matrix(0.05555555555555555,0,0,0.05555555555555555,73.16666666666667,0)" xlink:href="#Q"/><use transform="matrix(0.05555555555555555,0,0,0.05555555555555555,79.77777777777779,0)" xlink:href="#P"/><use transform="matrix(0.05555555555555555,0,0,0.05555555555555555,85.33333333333334,0)" xlink:href="#T"/><use transform="matrix(0.05555555555555555,0,0,0.05555555555555555,97.50000000000001,0)" xlink:href="#U"/></g><path fill="#333" d="M67-125c0 53 21 87 73 88 37 1 54-22 65-47l45 17C233-25 199 4 140 4 58 4 20-42 15-125 8-235 124-281 211-232c18 10 29 29 36 50l-46 12c-8-25-30-41-62-41-52 0-71 34-72 86" id="aa"/><path fill="#333" d="M114-157C55-157 80-60 75 0H25v-261h50l-1 109c12-26 28-41 61-42 86-1 58 113 63 194h-50c-7-57 23-157-34-157" id="ab"/><path fill="#333" d="M137-138c1-29-70-34-71-4 15 46 118 7 119 86 1 83-164 76-172 9l43-7c4 19 20 25 44 25 33 8 57-30 24-41C81-84 22-81 20-136c-2-80 154-74 161-7" id="ac"/><g id="f"><use transform="matrix(0.05555555555555555,0,0,0.05555555555555555,0,0)" xlink:href="#aa"/><use transform="matrix(0.05555555555555555,0,0,0.05555555555555555,14.388888888888888,0)" xlink:href="#ab"/><use transform="matrix(0.05555555555555555,0,0,0.05555555555555555,26.555555555555554,0)" xlink:href="#T"/><use transform="matrix(0.05555555555555555,0,0,0.05555555555555555,38.72222222222222,0)" xlink:href="#T"/><use transform="matrix(0.05555555555555555,0,0,0.05555555555555555,50.888888888888886,0)" xlink:href="#ac"/><use transform="matrix(0.05555555555555555,0,0,0.05555555555555555,62,0)" xlink:href="#W"/></g><g id="g"><use transform="matrix(0.05555555555555555,0,0,0.05555555555555555,0,0)" xlink:href="#R"/><use transform="matrix(0.05555555555555555,0,0,0.05555555555555555,14.388888888888888,0)" xlink:href="#S"/><use transform="matrix(0.05555555555555555,0,0,0.05555555555555555,26.555555555555554,0)" xlink:href="#S"/><use transform="matrix(0.05555555555555555,0,0,0.05555555555555555,38.72222222222222,0)" xlink:href="#T"/><use transform="matrix(0.05555555555555555,0,0,0.05555555555555555,50.888888888888886,0)" xlink:href="#P"/><use transform="matrix(0.05555555555555555,0,0,0.05555555555555555,56.44444444444444,0)" xlink:href="#U"/><use transform="matrix(0.05555555555555555,0,0,0.05555555555555555,68.61111111111111,0)" xlink:href="#Q"/><use transform="matrix(0.05555555555555555,0,0,0.05555555555555555,75.22222222222223,0)" xlink:href="#V"/><use transform="matrix(0.05555555555555555,0,0,0.05555555555555555,93,0)" xlink:href="#W"/><use transform="matrix(0.05555555555555555,0,0,0.05555555555555555,104.11111111111111,0)" xlink:href="#U"/><use transform="matrix(0.05555555555555555,0,0,0.05555555555555555,116.2777777777778,0)" xlink:href="#Q"/></g><path fill="#333" d="M240-174c0 40-23 61-54 70L253 0h-59l-57-94H76V0H24v-248c93 4 217-23 216 74zM76-134c48-2 112 12 112-38 0-48-66-32-112-35v73" id="ad"/><path fill="#333" d="M190-63c-7 42-38 67-86 67-59 0-84-38-90-98-12-110 154-137 174-36l-49 2c-2-19-15-32-35-32-30 0-35 28-38 64-6 74 65 87 74 30" id="ae"/><g id="h"><use transform="matrix(0.05555555555555555,0,0,0.05555555555555555,0,0)" xlink:href="#ad"/><use transform="matrix(0.05555555555555555,0,0,0.05555555555555555,14.388888888888888,0)" xlink:href="#W"/><use transform="matrix(0.05555555555555555,0,0,0.05555555555555555,25.5,0)" xlink:href="#ae"/><use transform="matrix(0.05555555555555555,0,0,0.05555555555555555,36.611111111111114,0)" xlink:href="#W"/><use transform="matrix(0.05555555555555555,0,0,0.05555555555555555,47.72222222222223,0)" xlink:href="#S"/><use transform="matrix(0.05555555555555555,0,0,0.05555555555555555,59.8888888888889,0)" xlink:href="#Q"/><use transform="matrix(0.05555555555555555,0,0,0.05555555555555555,66.5,0)" xlink:href="#P"/><use transform="matrix(0.05555555555555555,0,0,0.05555555555555555,72.05555555555556,0)" xlink:href="#T"/><use transform="matrix(0.05555555555555555,0,0,0.05555555555555555,84.22222222222223,0)" xlink:href="#U"/><use transform="matrix(0.05555555555555555,0,0,0.05555555555555555,96.3888888888889,0)" xlink:href="#P"/><use transform="matrix(0.05555555555555555,0,0,0.05555555555555555,101.94444444444446,0)" xlink:href="#ac"/><use transform="matrix(0.05555555555555555,0,0,0.05555555555555555,113.05555555555557,0)" xlink:href="#Q"/></g><path fill="#333" d="M85 4C-2 5 27-109 22-190h50c7 57-23 150 33 157 60-5 35-97 40-157h50l1 190h-47c-2-12 1-28-3-38-12 25-28 42-61 42" id="af"/><g id="i"><use transform="matrix(0.05555555555555555,0,0,0.05555555555555555,0,0)" xlink:href="#V"/><use transform="matrix(0.05555555555555555,0,0,0.05555555555555555,17.77777777777778,0)" xlink:href="#af"/><use transform="matrix(0.05555555555555555,0,0,0.05555555555555555,29.944444444444443,0)" xlink:href="#ac"/><use transform="matrix(0.05555555555555555,0,0,0.05555555555555555,41.05555555555556,0)" xlink:href="#Q"/></g><path fill="#333" d="M135-194c52 0 70 43 70 98 0 56-19 99-73 100-30 1-46-15-58-35L72 0H24l1-261h50v104c11-23 29-37 60-37zM114-30c31 0 40-27 40-66 0-37-7-63-39-63s-41 28-41 65c0 36 8 64 40 64" id="ag"/><g id="j"><use transform="matrix(0.05555555555555555,0,0,0.05555555555555555,0,0)" xlink:href="#ag"/><use transform="matrix(0.05555555555555555,0,0,0.05555555555555555,12.166666666666666,0)" xlink:href="#W"/></g><path fill="#333" d="M25 0v-261h50V0H25" id="ah"/><path fill="#333" d="M195-6C206 82 75 100 31 46c-4-6-6-13-8-21l49-6c3 16 16 24 34 25 40 0 42-37 40-79-11 22-30 35-61 35-53 0-70-43-70-97 0-56 18-96 73-97 30 0 46 14 59 34l2-30h47zm-90-29c32 0 41-27 41-63 0-35-9-62-40-62-32 0-39 29-40 63 0 36 9 62 39 62" id="ai"/><g id="k"><use transform="matrix(0.05555555555555555,0,0,0.05555555555555555,0,0)" xlink:href="#ah"/><use transform="matrix(0.05555555555555555,0,0,0.05555555555555555,5.555555555555555,0)" xlink:href="#T"/><use transform="matrix(0.05555555555555555,0,0,0.05555555555555555,17.72222222222222,0)" xlink:href="#ai"/><use transform="matrix(0.05555555555555555,0,0,0.05555555555555555,29.888888888888886,0)" xlink:href="#ai"/><use transform="matrix(0.05555555555555555,0,0,0.05555555555555555,42.05555555555555,0)" xlink:href="#W"/><use transform="matrix(0.05555555555555555,0,0,0.05555555555555555,53.16666666666666,0)" xlink:href="#O"/></g><g id="l"><use transform="matrix(0.05555555555555555,0,0,0.05555555555555555,0,0)" xlink:href="#P"/><use transform="matrix(0.05555555555555555,0,0,0.05555555555555555,5.555555555555555,0)" xlink:href="#U"/></g><g id="m"><use transform="matrix(0.05555555555555555,0,0,0.05555555555555555,0,0)" xlink:href="#R"/><use transform="matrix(0.05555555555555555,0,0,0.05555555555555555,14.388888888888888,0)" xlink:href="#O"/><use transform="matrix(0.05555555555555555,0,0,0.05555555555555555,26.555555555555554,0)" xlink:href="#O"/></g><path fill="#333" d="M231 0h-52l-39-155L100 0H48L-1-190h46L77-45c9-52 24-97 36-145h53l37 145 32-145h46" id="aj"/><g id="n"><use transform="matrix(0.05555555555555555,0,0,0.05555555555555555,0,0)" xlink:href="#U"/><use transform="matrix(0.05555555555555555,0,0,0.05555555555555555,12.166666666666666,0)" xlink:href="#W"/><use transform="matrix(0.05555555555555555,0,0,0.05555555555555555,23.27777777777778,0)" xlink:href="#aj"/></g><g id="o"><use transform="matrix(0.05555555555555555,0,0,0.05555555555555555,0,0)" xlink:href="#Z"/><use transform="matrix(0.05555555555555555,0,0,0.05555555555555555,11.11111111111111,0)" xlink:href="#S"/><use transform="matrix(0.05555555555555555,0,0,0.05555555555555555,23.27777777777778,0)" xlink:href="#S"/><use transform="matrix(0.05555555555555555,0,0,0.05555555555555555,35.44444444444444,0)" xlink:href="#T"/><use transform="matrix(0.05555555555555555,0,0,0.05555555555555555,47.61111111111111,0)" xlink:href="#P"/><use transform="matrix(0.05555555555555555,0,0,0.05555555555555555,53.166666666666664,0)" xlink:href="#U"/><use transform="matrix(0.05555555555555555,0,0,0.05555555555555555,65.33333333333333,0)" xlink:href="#Q"/><use transform="matrix(0.05555555555555555,0,0,0.05555555555555555,71.94444444444444,0)" xlink:href="#V"/><use transform="matrix(0.05555555555555555,0,0,0.05555555555555555,89.72222222222223,0)" xlink:href="#W"/><use transform="matrix(0.05555555555555555,0,0,0.05555555555555555,100.83333333333334,0)" xlink:href="#U"/><use transform="matrix(0.05555555555555555,0,0,0.05555555555555555,113.00000000000001,0)" xlink:href="#Q"/></g><g id="p"><use transform="matrix(0.05555555555555555,0,0,0.05555555555555555,0,0)" xlink:href="#T"/><use transform="matrix(0.05555555555555555,0,0,0.05555555555555555,12.166666666666666,0)" xlink:href="#aj"/><use transform="matrix(0.05555555555555555,0,0,0.05555555555555555,27.72222222222222,0)" xlink:href="#U"/><use transform="matrix(0.05555555555555555,0,0,0.05555555555555555,39.888888888888886,0)" xlink:href="#W"/><use transform="matrix(0.05555555555555555,0,0,0.05555555555555555,51,0)" xlink:href="#Y"/></g><g id="q"><use transform="matrix(0.05555555555555555,0,0,0.05555555555555555,0,0)" xlink:href="#O"/><use transform="matrix(0.05555555555555555,0,0,0.05555555555555555,12.166666666666666,0)" xlink:href="#W"/><use transform="matrix(0.05555555555555555,0,0,0.05555555555555555,23.27777777777778,0)" xlink:href="#Q"/><use transform="matrix(0.05555555555555555,0,0,0.05555555555555555,29.888888888888886,0)" xlink:href="#Z"/><use transform="matrix(0.05555555555555555,0,0,0.05555555555555555,41,0)" xlink:href="#P"/><use transform="matrix(0.05555555555555555,0,0,0.05555555555555555,46.55555555555556,0)" xlink:href="#ah"/><use transform="matrix(0.05555555555555555,0,0,0.05555555555555555,52.111111111111114,0)" xlink:href="#ac"/></g><g id="r"><use transform="matrix(0.05555555555555555,0,0,0.05555555555555555,0,0)" xlink:href="#R"/><use transform="matrix(0.05555555555555555,0,0,0.05555555555555555,14.388888888888888,0)" xlink:href="#S"/><use transform="matrix(0.05555555555555555,0,0,0.05555555555555555,26.555555555555554,0)" xlink:href="#S"/><use transform="matrix(0.05555555555555555,0,0,0.05555555555555555,38.72222222222222,0)" xlink:href="#T"/><use transform="matrix(0.05555555555555555,0,0,0.05555555555555555,50.888888888888886,0)" xlink:href="#P"/><use transform="matrix(0.05555555555555555,0,0,0.05555555555555555,56.44444444444444,0)" xlink:href="#U"/><use transform="matrix(0.05555555555555555,0,0,0.05555555555555555,68.61111111111111,0)" xlink:href="#Q"/><use transform="matrix(0.05555555555555555,0,0,0.05555555555555555,75.22222222222223,0)" xlink:href="#V"/><use transform="matrix(0.05555555555555555,0,0,0.05555555555555555,93,0)" xlink:href="#W"/><use transform="matrix(0.05555555555555555,0,0,0.05555555555555555,104.11111111111111,0)" xlink:href="#U"/><use transform="matrix(0.05555555555555555,0,0,0.05555555555555555,116.2777777777778,0)" xlink:href="#Q"/></g><g id="s"><use transform="matrix(0.05555555555555555,0,0,0.05555555555555555,0,0)" xlink:href="#Z"/><use transform="matrix(0.05555555555555555,0,0,0.05555555555555555,11.11111111111111,0)" xlink:href="#O"/><use transform="matrix(0.05555555555555555,0,0,0.05555555555555555,23.27777777777778,0)" xlink:href="#O"/><use transform="matrix(0.05555555555555555,0,0,0.05555555555555555,35.44444444444444,0)" xlink:href="#W"/><use transform="matrix(0.05555555555555555,0,0,0.05555555555555555,46.55555555555556,0)" xlink:href="#O"/></g><path fill="#333" d="M230 0l2-204L168 0h-37L68-204 70 0H24v-248h70l56 185 57-185h69V0h-46" id="ak"/><path fill="#333" d="M123 10C108 53 80 86 19 72V37c35 8 53-11 59-39L3-190h52l48 148c12-52 28-100 44-148h51" id="al"/><g id="t"><use transform="matrix(0.05555555555555555,0,0,0.05555555555555555,0,0)" xlink:href="#ak"/><use transform="matrix(0.05555555555555555,0,0,0.05555555555555555,16.61111111111111,0)" xlink:href="#T"/><use transform="matrix(0.05555555555555555,0,0,0.05555555555555555,28.777777777777775,0)" xlink:href="#O"/><use transform="matrix(0.05555555555555555,0,0,0.05555555555555555,40.94444444444444,0)" xlink:href="#X"/><use transform="matrix(0.05555555555555555,0,0,0.05555555555555555,47.55555555555556,0)" xlink:href="#P"/><use transform="matrix(0.05555555555555555,0,0,0.05555555555555555,53.111111111111114,0)" xlink:href="#al"/></g><g id="u"><use transform="matrix(0.05555555555555555,0,0,0.05555555555555555,0,0)" xlink:href="#R"/><use transform="matrix(0.05555555555555555,0,0,0.05555555555555555,14.388888888888888,0)" xlink:href="#S"/><use transform="matrix(0.05555555555555555,0,0,0.05555555555555555,26.555555555555554,0)" xlink:href="#S"/><use transform="matrix(0.05555555555555555,0,0,0.05555555555555555,38.72222222222222,0)" xlink:href="#T"/><use transform="matrix(0.05555555555555555,0,0,0.05555555555555555,50.888888888888886,0)" xlink:href="#P"/><use transform="matrix(0.05555555555555555,0,0,0.05555555555555555,56.44444444444444,0)" xlink:href="#U"/><use transform="matrix(0.05555555555555555,0,0,0.05555555555555555,68.61111111111111,0)" xlink:href="#Q"/><use transform="matrix(0.05555555555555555,0,0,0.05555555555555555,75.22222222222223,0)" xlink:href="#V"/><use transform="matrix(0.05555555555555555,0,0,0.05555555555555555,93,0)" xlink:href="#W"/><use transform="matrix(0.05555555555555555,0,0,0.05555555555555555,104.11111111111111,0)" xlink:href="#U"/><use transform="matrix(0.05555555555555555,0,0,0.05555555555555555,116.2777777777778,0)" xlink:href="#Q"/></g><g id="v"><use transform="matrix(0.05555555555555555,0,0,0.05555555555555555,0,0)" xlink:href="#P"/><use transform="matrix(0.05555555555555555,0,0,0.05555555555555555,5.555555555555555,0)" xlink:href="#U"/><use transform="matrix(0.05555555555555555,0,0,0.05555555555555555,17.72222222222222,0)" xlink:href="#X"/><use transform="matrix(0.05555555555555555,0,0,0.05555555555555555,24.333333333333332,0)" xlink:href="#T"/><use transform="matrix(0.05555555555555555,0,0,0.05555555555555555,36.5,0)" xlink:href="#Y"/><use transform="matrix(0.05555555555555555,0,0,0.05555555555555555,44.27777777777778,0)" xlink:href="#V"/><use transform="matrix(0.05555555555555555,0,0,0.05555555555555555,62.05555555555555,0)" xlink:href="#Z"/><use transform="matrix(0.05555555555555555,0,0,0.05555555555555555,73.16666666666667,0)" xlink:href="#Q"/><use transform="matrix(0.05555555555555555,0,0,0.05555555555555555,79.77777777777779,0)" xlink:href="#P"/><use transform="matrix(0.05555555555555555,0,0,0.05555555555555555,85.33333333333334,0)" xlink:href="#T"/><use transform="matrix(0.05555555555555555,0,0,0.05555555555555555,97.50000000000001,0)" xlink:href="#U"/></g><path fill="#333" d="M24-248c120-7 223 5 221 122C244-46 201 0 124 0H24v-248zM76-40c74 7 117-18 117-86 0-67-45-88-117-82v168" id="am"/><g id="w"><use transform="matrix(0.056172839506172835,0,0,0.056172839506172835,0,0)" xlink:href="#am"/><use transform="matrix(0.056172839506172835,0,0,0.056172839506172835,14.548765432098763,0)" xlink:href="#W"/><use transform="matrix(0.056172839506172835,0,0,0.056172839506172835,25.78333333333333,0)" xlink:href="#ah"/><use transform="matrix(0.056172839506172835,0,0,0.056172839506172835,31.400617283950616,0)" xlink:href="#W"/><use transform="matrix(0.056172839506172835,0,0,0.056172839506172835,42.63518518518518,0)" xlink:href="#Q"/><use transform="matrix(0.056172839506172835,0,0,0.056172839506172835,49.319753086419745,0)" xlink:href="#W"/></g><g id="x"><use transform="matrix(0.056172839506172835,0,0,0.056172839506172835,0,0)" xlink:href="#Z"/><use transform="matrix(0.056172839506172835,0,0,0.056172839506172835,11.234567901234566,0)" xlink:href="#S"/><use transform="matrix(0.056172839506172835,0,0,0.056172839506172835,23.536419753086417,0)" xlink:href="#S"/><use transform="matrix(0.056172839506172835,0,0,0.056172839506172835,35.83827160493827,0)" xlink:href="#T"/><use transform="matrix(0.056172839506172835,0,0,0.056172839506172835,48.14012345679012,0)" xlink:href="#P"/><use transform="matrix(0.056172839506172835,0,0,0.056172839506172835,53.757407407407406,0)" xlink:href="#U"/><use transform="matrix(0.056172839506172835,0,0,0.056172839506172835,66.05925925925925,0)" xlink:href="#Q"/><use transform="matrix(0.056172839506172835,0,0,0.056172839506172835,72.74382716049382,0)" xlink:href="#V"/><use transform="matrix(0.056172839506172835,0,0,0.056172839506172835,90.71913580246913,0)" xlink:href="#W"/><use transform="matrix(0.056172839506172835,0,0,0.056172839506172835,101.9537037037037,0)" xlink:href="#U"/><use transform="matrix(0.056172839506172835,0,0,0.056172839506172835,114.25555555555555,0)" xlink:href="#Q"/></g><g id="y"><use transform="matrix(0.05555555555555555,0,0,0.05555555555555555,0,0)" xlink:href="#aa"/><use transform="matrix(0.05555555555555555,0,0,0.05555555555555555,14.388888888888888,0)" xlink:href="#T"/><use transform="matrix(0.05555555555555555,0,0,0.05555555555555555,26.555555555555554,0)" xlink:href="#U"/><use transform="matrix(0.05555555555555555,0,0,0.05555555555555555,38.72222222222222,0)" xlink:href="#X"/><use transform="matrix(0.05555555555555555,0,0,0.05555555555555555,45.33333333333333,0)" xlink:href="#P"/><use transform="matrix(0.05555555555555555,0,0,0.05555555555555555,50.888888888888886,0)" xlink:href="#Y"/><use transform="matrix(0.05555555555555555,0,0,0.05555555555555555,58.666666666666664,0)" xlink:href="#V"/></g><g id="z"><use transform="matrix(0.05555555555555555,0,0,0.05555555555555555,0,0)" xlink:href="#O"/><use transform="matrix(0.05555555555555555,0,0,0.05555555555555555,12.166666666666666,0)" xlink:href="#W"/><use transform="matrix(0.05555555555555555,0,0,0.05555555555555555,23.27777777777778,0)" xlink:href="#ah"/><use transform="matrix(0.05555555555555555,0,0,0.05555555555555555,28.83333333333334,0)" xlink:href="#W"/><use transform="matrix(0.05555555555555555,0,0,0.05555555555555555,39.94444444444444,0)" xlink:href="#Q"/><use transform="matrix(0.05555555555555555,0,0,0.05555555555555555,46.55555555555556,0)" xlink:href="#P"/><use transform="matrix(0.05555555555555555,0,0,0.05555555555555555,52.111111111111114,0)" xlink:href="#T"/><use transform="matrix(0.05555555555555555,0,0,0.05555555555555555,64.27777777777779,0)" xlink:href="#U"/></g><path fill="#333" d="M76-208v77h127v40H76V0H24v-248h183v40H76" id="an"/><g id="A"><use transform="matrix(0.05555555555555555,0,0,0.05555555555555555,0,0)" xlink:href="#an"/><use transform="matrix(0.05555555555555555,0,0,0.05555555555555555,12.166666666666666,0)" xlink:href="#ah"/><use transform="matrix(0.05555555555555555,0,0,0.05555555555555555,17.72222222222222,0)" xlink:href="#P"/><use transform="matrix(0.05555555555555555,0,0,0.05555555555555555,23.27777777777778,0)" xlink:href="#ai"/><use transform="matrix(0.05555555555555555,0,0,0.05555555555555555,35.44444444444444,0)" xlink:href="#ab"/><use transform="matrix(0.05555555555555555,0,0,0.05555555555555555,47.61111111111111,0)" xlink:href="#Q"/></g><g id="B"><use transform="matrix(0.05555555555555555,0,0,0.05555555555555555,0,0)" xlink:href="#O"/><use transform="matrix(0.05555555555555555,0,0,0.05555555555555555,12.166666666666666,0)" xlink:href="#W"/><use transform="matrix(0.05555555555555555,0,0,0.05555555555555555,23.27777777777778,0)" xlink:href="#ah"/><use transform="matrix(0.05555555555555555,0,0,0.05555555555555555,28.83333333333334,0)" xlink:href="#W"/><use transform="matrix(0.05555555555555555,0,0,0.05555555555555555,39.94444444444444,0)" xlink:href="#Q"/><use transform="matrix(0.05555555555555555,0,0,0.05555555555555555,46.55555555555556,0)" xlink:href="#W"/><use transform="matrix(0.05555555555555555,0,0,0.05555555555555555,57.66666666666668,0)" xlink:href="#O"/></g><g id="C"><use transform="matrix(0.05555555555555555,0,0,0.05555555555555555,0,0)" xlink:href="#aa"/><use transform="matrix(0.05555555555555555,0,0,0.05555555555555555,14.388888888888888,0)" xlink:href="#T"/><use transform="matrix(0.05555555555555555,0,0,0.05555555555555555,26.555555555555554,0)" xlink:href="#U"/><use transform="matrix(0.05555555555555555,0,0,0.05555555555555555,38.72222222222222,0)" xlink:href="#X"/><use transform="matrix(0.05555555555555555,0,0,0.05555555555555555,45.33333333333333,0)" xlink:href="#P"/><use transform="matrix(0.05555555555555555,0,0,0.05555555555555555,50.888888888888886,0)" xlink:href="#Y"/><use transform="matrix(0.05555555555555555,0,0,0.05555555555555555,58.666666666666664,0)" xlink:href="#V"/><use transform="matrix(0.05555555555555555,0,0,0.05555555555555555,76.44444444444444,0)" xlink:href="#W"/><use transform="matrix(0.05555555555555555,0,0,0.05555555555555555,87.55555555555556,0)" xlink:href="#O"/></g><g id="D"><use transform="matrix(0.05555555555555555,0,0,0.05555555555555555,0,0)" xlink:href="#O"/><use transform="matrix(0.05555555555555555,0,0,0.05555555555555555,12.166666666666666,0)" xlink:href="#W"/><use transform="matrix(0.05555555555555555,0,0,0.05555555555555555,23.27777777777778,0)" xlink:href="#ah"/><use transform="matrix(0.05555555555555555,0,0,0.05555555555555555,28.83333333333334,0)" xlink:href="#W"/><use transform="matrix(0.05555555555555555,0,0,0.05555555555555555,39.94444444444444,0)" xlink:href="#Q"/><use transform="matrix(0.05555555555555555,0,0,0.05555555555555555,46.55555555555556,0)" xlink:href="#W"/><use transform="matrix(0.05555555555555555,0,0,0.05555555555555555,57.66666666666668,0)" xlink:href="#O"/></g><path fill="#333" d="M147 0H94L2-248h55l64 206c17-72 42-137 63-206h54" id="ao"/><g id="E"><use transform="matrix(0.05555555555555555,0,0,0.05555555555555555,0,0)" xlink:href="#ao"/><use transform="matrix(0.05555555555555555,0,0,0.05555555555555555,12.944444444444443,0)" xlink:href="#P"/><use transform="matrix(0.05555555555555555,0,0,0.05555555555555555,18.5,0)" xlink:href="#W"/><use transform="matrix(0.05555555555555555,0,0,0.05555555555555555,29.61111111111111,0)" xlink:href="#aj"/></g><g id="F"><use transform="matrix(0.05555555555555555,0,0,0.05555555555555555,0,0)" xlink:href="#R"/><use transform="matrix(0.05555555555555555,0,0,0.05555555555555555,14.388888888888888,0)" xlink:href="#S"/><use transform="matrix(0.05555555555555555,0,0,0.05555555555555555,26.555555555555554,0)" xlink:href="#S"/><use transform="matrix(0.05555555555555555,0,0,0.05555555555555555,38.72222222222222,0)" xlink:href="#T"/><use transform="matrix(0.05555555555555555,0,0,0.05555555555555555,50.888888888888886,0)" xlink:href="#P"/><use transform="matrix(0.05555555555555555,0,0,0.05555555555555555,56.44444444444444,0)" xlink:href="#U"/><use transform="matrix(0.05555555555555555,0,0,0.05555555555555555,68.61111111111111,0)" xlink:href="#Q"/><use transform="matrix(0.05555555555555555,0,0,0.05555555555555555,75.22222222222223,0)" xlink:href="#V"/><use transform="matrix(0.05555555555555555,0,0,0.05555555555555555,93,0)" xlink:href="#W"/><use transform="matrix(0.05555555555555555,0,0,0.05555555555555555,104.11111111111111,0)" xlink:href="#U"/><use transform="matrix(0.05555555555555555,0,0,0.05555555555555555,116.2777777777778,0)" xlink:href="#Q"/><use transform="matrix(0.05555555555555555,0,0,0.05555555555555555,122.88888888888891,0)" xlink:href="#ac"/></g><g id="G"><use transform="matrix(0.05555555555555555,0,0,0.05555555555555555,0,0)" xlink:href="#ah"/><use transform="matrix(0.05555555555555555,0,0,0.05555555555555555,5.555555555555555,0)" xlink:href="#P"/><use transform="matrix(0.05555555555555555,0,0,0.05555555555555555,11.11111111111111,0)" xlink:href="#ac"/><use transform="matrix(0.05555555555555555,0,0,0.05555555555555555,22.22222222222222,0)" xlink:href="#Q"/></g><g id="H"><use transform="matrix(0.056172839506172835,0,0,0.056172839506172835,0,0)" xlink:href="#aa"/><use transform="matrix(0.056172839506172835,0,0,0.056172839506172835,14.548765432098763,0)" xlink:href="#ab"/><use transform="matrix(0.056172839506172835,0,0,0.056172839506172835,26.850617283950612,0)" xlink:href="#T"/><use transform="matrix(0.056172839506172835,0,0,0.056172839506172835,39.15246913580246,0)" xlink:href="#T"/><use transform="matrix(0.056172839506172835,0,0,0.056172839506172835,51.45432098765431,0)" xlink:href="#ac"/><use transform="matrix(0.056172839506172835,0,0,0.056172839506172835,62.68888888888888,0)" xlink:href="#W"/></g><path fill="#333" d="M140-251c80 0 125 45 125 126S219 4 139 4C58 4 15-44 15-125s44-126 125-126zm-1 214c52 0 73-35 73-88 0-50-21-86-72-86-52 0-73 35-73 86s22 88 72 88" id="ap"/><g id="I"><use transform="matrix(0.056172839506172835,0,0,0.056172839506172835,0,0)" xlink:href="#ap"/><use transform="matrix(0.056172839506172835,0,0,0.056172839506172835,15.728395061728394,0)" xlink:href="#S"/><use transform="matrix(0.056172839506172835,0,0,0.056172839506172835,28.030246913580243,0)" xlink:href="#Q"/><use transform="matrix(0.056172839506172835,0,0,0.056172839506172835,34.71481481481481,0)" xlink:href="#P"/><use transform="matrix(0.056172839506172835,0,0,0.056172839506172835,40.33209876543209,0)" xlink:href="#T"/><use transform="matrix(0.056172839506172835,0,0,0.056172839506172835,52.63395061728394,0)" xlink:href="#U"/></g><g id="J"><use transform="matrix(0.05555555555555555,0,0,0.05555555555555555,0,0)" xlink:href="#R"/><use transform="matrix(0.05555555555555555,0,0,0.05555555555555555,14.388888888888888,0)" xlink:href="#S"/><use transform="matrix(0.05555555555555555,0,0,0.05555555555555555,26.555555555555554,0)" xlink:href="#S"/><use transform="matrix(0.05555555555555555,0,0,0.05555555555555555,38.72222222222222,0)" xlink:href="#T"/><use transform="matrix(0.05555555555555555,0,0,0.05555555555555555,50.888888888888886,0)" xlink:href="#P"/><use transform="matrix(0.05555555555555555,0,0,0.05555555555555555,56.44444444444444,0)" xlink:href="#U"/><use transform="matrix(0.05555555555555555,0,0,0.05555555555555555,68.61111111111111,0)" xlink:href="#Q"/><use transform="matrix(0.05555555555555555,0,0,0.05555555555555555,75.22222222222223,0)" xlink:href="#V"/><use transform="matrix(0.05555555555555555,0,0,0.05555555555555555,93,0)" xlink:href="#W"/><use transform="matrix(0.05555555555555555,0,0,0.05555555555555555,104.11111111111111,0)" xlink:href="#U"/><use transform="matrix(0.05555555555555555,0,0,0.05555555555555555,116.2777777777778,0)" xlink:href="#Q"/></g><g id="K"><use transform="matrix(0.05555555555555555,0,0,0.05555555555555555,0,0)" xlink:href="#af"/><use transform="matrix(0.05555555555555555,0,0,0.05555555555555555,12.166666666666666,0)" xlink:href="#S"/><use transform="matrix(0.05555555555555555,0,0,0.05555555555555555,24.333333333333332,0)" xlink:href="#O"/><use transform="matrix(0.05555555555555555,0,0,0.05555555555555555,36.5,0)" xlink:href="#Z"/><use transform="matrix(0.05555555555555555,0,0,0.05555555555555555,47.611111111111114,0)" xlink:href="#Q"/><use transform="matrix(0.05555555555555555,0,0,0.05555555555555555,54.22222222222223,0)" xlink:href="#W"/><use transform="matrix(0.05555555555555555,0,0,0.05555555555555555,65.33333333333334,0)" xlink:href="#O"/></g><g id="L"><use transform="matrix(0.05555555555555555,0,0,0.05555555555555555,0,0)" xlink:href="#R"/><use transform="matrix(0.05555555555555555,0,0,0.05555555555555555,14.388888888888888,0)" xlink:href="#O"/><use transform="matrix(0.05555555555555555,0,0,0.05555555555555555,26.555555555555554,0)" xlink:href="#O"/></g><g id="M"><use transform="matrix(0.056172839506172835,0,0,0.056172839506172835,0,0)" xlink:href="#am"/><use transform="matrix(0.056172839506172835,0,0,0.056172839506172835,14.548765432098763,0)" xlink:href="#W"/><use transform="matrix(0.056172839506172835,0,0,0.056172839506172835,25.78333333333333,0)" xlink:href="#ae"/><use transform="matrix(0.056172839506172835,0,0,0.056172839506172835,37.0179012345679,0)" xlink:href="#ah"/><use transform="matrix(0.056172839506172835,0,0,0.056172839506172835,42.635185185185186,0)" xlink:href="#P"/><use transform="matrix(0.056172839506172835,0,0,0.056172839506172835,48.25246913580247,0)" xlink:href="#U"/><use transform="matrix(0.056172839506172835,0,0,0.056172839506172835,60.554320987654314,0)" xlink:href="#W"/></g></defs></g></svg>