<svg xmlns="http://www.w3.org/2000/svg" xmlns:xlink="http://www.w3.org/1999/xlink" xmlns:lucid="lucid" width="1881" height="2054"><g transform="translate(-286 851)" lucid:page-tab-id="0_0"><path d="M366.72 235.9a8 8 0 0 1 8-8h109a8 8 0 0 1 8 8v4.93a17.07 17.07 0 0 1-5 12.07 17.07 17.07 0 0 1-12.07 5h-99.93a8 8 0 0 1-8-8z" fill="#fff"/><path d="M491.72 227.9v20l-10 10h-115" stroke="#3a414a" fill="none"/><path d="M366.72 235.9a8 8 0 0 1 8-8h1704a8 8 0 0 1 8 8v855.8a8 8 0 0 1-8 8h-1704a8 8 0 0 1-8-8zM366.72 539.7h20m15 0h20m15 0h20m15 0h20m15 0h20m15 0h20m15 0h20m15 0h20m15 0h20m15 0h20m15 0h20m15 0h20m15 0h20m15 0h20m15 0h20m15 0h20m15 0h20m15 0h20m15 0h20m15 0h20m15 0h20m15 0h20m15 0h20m15 0h20m15 0h20m15 0h20m15 0h20m15 0h20m15 0h20m15 0h20m15 0h20m15 0h20m15 0h20m15 0h20m15 0h20m15 0h20m15 0h20m15 0h20m15 0h20m15 0h20m15 0h20m15 0h20m15 0h20m15 0h20m15 0h20m15 0h20m15 0h20m15 0h20m15 0h20m15 0h5" stroke="#3a414a" fill="none"/><use xlink:href="#a" transform="matrix(1,0,0,1,374.72119895872083,227.9020140208084) translate(0.5996913580246996 19.488888888888887)"/><use xlink:href="#b" transform="matrix(1,0,0,1,378.72119895872083,265.9020140208084) translate(5.174074074074099 16.177777777777774)"/><use xlink:href="#c" transform="matrix(1,0,0,1,378.72119895872083,265.9020140208084) translate(20.846296296296316 16.177777777777774)"/><use xlink:href="#d" transform="matrix(1,0,0,1,378.72119895872083,265.9020140208084) translate(7.3929012345679155 40.44444444444443)"/><use xlink:href="#e" transform="matrix(1,0,0,1,378.72119895872083,265.9020140208084) translate(50.02808641975308 40.44444444444443)"/><use xlink:href="#b" transform="matrix(1,0,0,1,378.72119895872083,547.7126200814143) translate(11.325000000000017 16.177777777777774)"/><use xlink:href="#f" transform="matrix(1,0,0,1,378.72119895872083,547.7126200814143) translate(26.997222222222234 16.177777777777774)"/><use xlink:href="#d" transform="matrix(1,0,0,1,378.72119895872083,547.7126200814143) translate(7.3929012345679155 40.44444444444443)"/><use xlink:href="#e" transform="matrix(1,0,0,1,378.72119895872083,547.7126200814143) translate(50.02808641975308 40.44444444444443)"/><path d="M519.07 767.7a8 8 0 0 1 8-8h114a8 8 0 0 1 8 8v4.94a17.07 17.07 0 0 1-5 12.07 17.07 17.07 0 0 1-12.07 5H527.07a8 8 0 0 1-8-8z" fill="#fff"/><path d="M649.07 759.7v20l-10 10h-120" stroke="#3a414a" fill="none"/><path d="M519.07 767.7a8 8 0 0 1 8-8h1504a8 8 0 0 1 8 8v304a8 8 0 0 1-8 8h-1504a8 8 0 0 1-8-8zM519.07 1033.7h20m15 0h20m15 0h20m15 0h20m15 0h20m15 0h20m15 0h20m15 0h20m15 0h20m15 0h20m15 0h20m15 0h20m15 0h20m15 0h20m15 0h20m15 0h20m15 0h20m15 0h20m15 0h20m15 0h20m15 0h20m15 0h20m15 0h20m15 0h20m15 0h20m15 0h20m15 0h20m15 0h20m15 0h20m15 0h20m15 0h20m15 0h20m15 0h20m15 0h20m15 0h20m15 0h20m15 0h20m15 0h20m15 0h20m15 0h20m15 0h20m15 0h20m15 0h20m15 0h15" stroke="#3a414a" fill="none"/><use xlink:href="#a" transform="matrix(1,0,0,1,527.069683807206,759.7126200814143) translate(3.0996913580246996 19.488888888888887)"/><use xlink:href="#g" transform="matrix(1,0,0,1,531.069683807206,797.7126200814143) translate(6.613888888888901 19.488888888888887)"/><use xlink:href="#h" transform="matrix(1,0,0,1,531.069683807206,797.7126200814143) translate(25.3175925925926 19.488888888888887)"/><use xlink:href="#g" transform="matrix(1,0,0,1,531.069683807206,1041.7126200814143) translate(13.222530864197537 19.488888888888887)"/><use xlink:href="#i" transform="matrix(1,0,0,1,531.069683807206,1041.7126200814143) translate(31.926234567901236 19.488888888888887)"/><path d="M686.72 887.7a8 8 0 0 1 8-8h84a8 8 0 0 1 8 8v4.94a17.07 17.07 0 0 1-5 12.07 17.07 17.07 0 0 1-12.07 5h-74.93a8 8 0 0 1-8-8z" fill="#fff"/><path d="M786.72 879.7v20l-10 10h-90" stroke="#3a414a" fill="none"/><path d="M686.72 887.7a8 8 0 0 1 8-8h1104a8 8 0 0 1 8 8v124a8 8 0 0 1-8 8h-1104a8 8 0 0 1-8-8zM686.72 966.05h20m15 0h20m15 0h20m15 0h20m15 0h20m15 0h20m15 0h20m15 0h20m15 0h20m15 0h20m15 0h20m15 0h20m15 0h20m15 0h20m15 0h20m15 0h20m15 0h20m15 0h20m15 0h20m15 0h20m15 0h20m15 0h20m15 0h20m15 0h20m15 0h20m15 0h20m15 0h20m15 0h20m15 0h20m15 0h20m15 0h20m15 0h20" stroke="#3a414a" fill="none"/><use xlink:href="#j" transform="matrix(1,0,0,1,694.7211989587208,879.7126200814143) translate(3.8126543209876758 18.155555555555555)"/><use xlink:href="#k" transform="matrix(1,0,0,1,698.7211989587208,917.7126200814143) translate(7.137037037037068 18.155555555555555)"/><use xlink:href="#l" transform="matrix(1,0,0,1,698.7211989587208,917.7126200814143) translate(20.285185185185206 18.155555555555555)"/><use xlink:href="#m" transform="matrix(1,0,0,1,698.7211989587208,974.0459534147477) translate(20.299691358024702 18.155555555555555)"/><path d="M1038.55-635.6v10.08m0 10.08v20.16m0 10.08v20.16m0 10.08v20.16m0 10.08v20.16m0 10.08v20.16m0 10.08v20.16m0 10.08v20.16m0 10.07v20.16m0 10.07v20.16m0 10.08v20.17m0 10.08v20.16m0 10.1v20.15m0 10.08v20.16m0 10.07v20.16m0 10.08v20.17m0 10.08v20.16m0 10.1v20.15m0 10.08v20.16m0 10.07v20.15m0 10.08v20.16m0 10.08V9.5m0 10.08v20.16m0 10.08v20.16m0 10.08v20.16m0 10.08v20.16m0 10.08v20.16m0 10.08v20.16m0 10.08v20.16m0 10.08v20.16m0 10.08v20.16m0 10.07v20.16m0 10.07v20.16m0 10.08v20.17m0 10.08v20.16m0 10.1v20.15m0 10.08v20.16m0 10.07v20.16m0 10.08v20.17m0 10.08v20.16m0 10.1v20.15m0 10.08v20.16m0 10.07v20.15m0 10.1v20.14m0 10.08V705m0 10.08v20.16m0 10.08v10.08" stroke="#333" fill="none"/><path d="M1039.05-635.6h-1v-.5h1z" stroke="#333" stroke-width=".05" fill="#333"/><path d="M1038.55 755.4v.5" stroke="#333" fill="none"/><path d="M943.5-756.1a8 8 0 0 1 8-8h174.08a8 8 0 0 1 8 8v112a8 8 0 0 1-8 8H951.5a8 8 0 0 1-8-8z" stroke="#000" stroke-opacity="0" fill="#6db1ff"/><use xlink:href="#n" transform="matrix(1,0,0,1,951.5085877249867,-756.0979859791917) translate(17.28395061728395 60.44444444444444)"/><use xlink:href="#o" transform="matrix(1,0,0,1,951.5085877249867,-756.0979859791917) translate(83.7037037037037 60.44444444444444)"/><path d="M1686.72-756.1a8 8 0 0 1 8-8h174.08a8 8 0 0 1 8 8v112a8 8 0 0 1-8 8h-174.08a8 8 0 0 1-8-8z" stroke="#000" stroke-opacity="0" fill="#6db1ff"/><use xlink:href="#p" transform="matrix(1,0,0,1,1694.7211989587202,-756.0979859791917) translate(29.537037037037045 60.44444444444444)"/><use xlink:href="#q" transform="matrix(1,0,0,1,1694.7211989587202,-756.0979859791917) translate(114.66049382716048 60.44444444444444)"/><path d="M666.47-770.35c0 10.9-8.84 19.75-19.75 19.75-10.9 0-19.75-8.84-19.75-19.75 0-10.9 8.84-19.75 19.75-19.75 10.9 0 19.75 8.84 19.75 19.75z" stroke="#333" fill="#fff"/><path d="M646.72-750.6v47.3a27.6 27.6 0 0 0 4.28 14.76l35.72 56.44m-40-63.2l-40 63.2m0-98.75h80" stroke="#333" fill="none"/><path d="M606.72-782.1a8 8 0 0 1 8-8h64a8 8 0 0 1 8 8v164a8 8 0 0 1-8 8h-64a8 8 0 0 1-8-8z" fill="none"/><use xlink:href="#r" transform="matrix(1,0,0,1,526.7211989587208,-632.0979859791917) translate(88.58024691358025 17.77777777777778)"/><path d="M646.72-693.86v10.06m0 10.07v20.12m0 10.06v20.13m0 10.05v20.13m0 10.07v20.12m0 10.07v20.13m0 10.06v20.13m0 10.06v20.13m0 10.07v20.13m0 10.06v20.14m0 10.06v20.13m0 10.07v20.13m0 10.06v20.12m0 10.06v20.13m0 10.07v20.13m0 10.07v20.13m0 10.06v20.13m0 10.05v20.13m0 10.07v20.13m0 10.06v20.13m0 10.06v20.13m0 10.07v20.13m0 10.06v20.13m0 10.06v20.14m0 10.06v20.13m0 10.07v20.13m0 10.06v20.12m0 10.06v20.13m0 10.08v20.13m0 10.07v20.13m0 10.06V222m0 10.06v20.13m0 10.05v20.13m0 10.06v20.13m0 10.06v20.13m0 10.07v20.13m0 10.06v20.13m0 10.06v20.14m0 10.07v20.14m0 10.06v20.13m0 10.06v20.12m0 10.07v20.12m0 10.06v20.13m0 10.07v20.13m0 10.07v20.12m0 10.06v20.13m0 10.05v20.13m0 10.06v20.13m0 10.07v10.06M646.72-693.85v-3.5M646.72 755.4v.5" stroke="#333" fill="none"/><path d="M1382.26 735.4h-1v-9.93h1zm0-19.87h-1v-19.87h1zm0-29.8h-1v-19.87h1zm0-29.8h-1v-19.88h1zm0-29.8h-1v-19.88h1zm0-29.8h-1v-19.88h1zm0-29.82h-1v-19.86h1zm0-29.8h-1v-19.86h1zm0-29.8h-1v-19.87h1zm0-29.8h-1v-19.87h1zm0-29.8h-1V427.4h1zm0-29.8h-1v-7.14h1zm0-34.08h-1v-15.6h1zm0-25.54h-1V338h1zm0-29.8h-1V308.2h1zm0-29.8h-1V278.4h1zm0-29.8h-1V248.6h1zm0-29.82h-1V218.8h1zm0-29.8h-1V189h1zm0-29.8h-1v-19.88h1zm0-29.8h-1v-19.88h1zm0-29.8l-1-.02V99.58h1zm0-29.82h-1V69.77h1zm0-29.8h-1V39.97h1zm0-29.8h-1V10.15h1zm0-29.8h-1v-19.88h1zm0-29.82h-1v-19.87h1zm0-29.8h-1v-19.87h1zm0-29.8h-1v-19.88h1zm0-29.8h-1v-19.88h1zm0-29.8h-1v-19.88h1zm0-29.82h-1v-19.87h1zm0-29.8h-1v-19.87h1zm0-29.8h-1v-19.88h1zm0-29.8h-1v-19.88h1zm0-29.8h-1v-19.88h1zm0-29.82h-1v-19.87h1zm0-29.8h-1v-19.87h1zm0-29.8h-1v-19.88h1zm0-29.8h-1v-19.88h1zm0-29.82h-1v-19.87h1zm0-29.8h-1v-19.87h1zm0-29.8h-1v-19.88h1zm0-29.8h-1v-19.88h1zm0-29.8h-1v-19.88h1zm0-29.82h-1v-19.87h1zm0-29.8h-1v-9.94h1z" stroke="#333" stroke-width=".05" fill="#333"/><path d="M1382.26-635.6h-1v-.5h1z" fill="#333"/><path d="M1382.28-635.56h-1.05v-.56h1.05zm-1-.5v.45h.95v-.47zM1382.26 735.9h-1v-.5h1z" stroke="#333" stroke-width=".05" fill="#333"/><path d="M1286.72-756.1a8 8 0 0 1 8-8h174.08a8 8 0 0 1 8 8v112a8 8 0 0 1-8 8h-174.08a8 8 0 0 1-8-8z" stroke="#000" stroke-opacity="0" fill="#6db1ff"/><use xlink:href="#s" transform="matrix(1,0,0,1,1294.7211989587208,-756.0979859791917) translate(36.57407407407407 60.44444444444444)"/><path d="M1781.76-635.6v10.08m0 10.08v20.16m0 10.08v20.16m0 10.08v20.16m0 10.08v20.16m0 10.08v20.16m0 10.08v20.16m0 10.08v20.16m0 10.07v20.16m0 10.07v20.16m0 10.08v20.17m0 10.08v20.16m0 10.1v20.15m0 10.08v20.16m0 10.07v20.16m0 10.08v20.17m0 10.08v20.16m0 10.1v20.15m0 10.08v20.16m0 10.07v20.15m0 10.08v20.16m0 10.08V9.5m0 10.08v20.16m0 10.08v20.16m0 10.08v20.16m0 10.08v20.16m0 10.08v20.16m0 10.08v20.16m0 10.08v20.16m0 10.08v20.16m0 10.08v20.15m0 10.1v20.14m0 10.07v20.16m0 10.08v20.17m0 10.08v20.16m0 10.1v20.15m0 10.08v20.16m0 10.07v20.16m0 10.08v20.17m0 10.08v20.16m0 10.1v20.15m0 10.08v20.15m0 10.1v20.14m0 10.08v20.16m0 10.08V705m0 10.08v20.16m0 10.08v10.08" stroke="#333" fill="none"/><path d="M1782.26-635.6h-1v-.5h1z" stroke="#333" stroke-width=".05" fill="#333"/><path d="M1781.76 755.4v.5" stroke="#333" fill="none"/><path d="M757.9-371.2H647.2v-1H757.9zm244.28 0H907.4v-1h94.78z" stroke="#3a414a" stroke-width=".05" fill="#3a414a"/><path d="M647.23-371.2h-.5v-1h.5z" stroke="#3a414a" stroke-width=".05" fill="#3a414a"/><path d="M1016.95-371.7l-14.27 4.63v-9.27z" fill="#3a414a"/><path d="M1018.57-371.7l-16.4 5.32v-10.65zm-15.4 3.94l12.16-3.94-12.15-3.95z" stroke="#3a414a" stroke-width=".05" fill="#3a414a"/><use xlink:href="#t" transform="matrix(1,0,0,1,757.8930075609819,-385.1714720915249) translate(0.0049999999999954525 17.955555555555552)"/><use xlink:href="#u" transform="matrix(1,0,0,1,757.8930075609819,-385.1714720915249) translate(83.48586419753083 17.955555555555552)"/><path d="M346.72-332a8 8 0 0 1 8-8h109a8 8 0 0 1 8 8v4.93a17.07 17.07 0 0 1-5 12.07 17.07 17.07 0 0 1-12.07 5h-99.93a8 8 0 0 1-8-8z" fill="#fff"/><path d="M471.72-340v20l-10 10h-115" stroke="#3a414a" fill="none"/><path d="M346.72-332a8 8 0 0 1 8-8h1744a8 8 0 0 1 8 8v1443.7a8 8 0 0 1-8 8h-1744a8 8 0 0 1-8-8zM346.72 185h20m15 0h20m15 0h20m15 0h20m15 0h20m15 0h20m15 0h20m15 0h20m15 0h20m15 0h20m15 0h20m15 0h20m15 0h20m15 0h20m15 0h20m15 0h20m15 0h20m15 0h20m15 0h20m15 0h20m15 0h20m15 0h20m15 0h20m15 0h20m15 0h20m15 0h20m15 0h20m15 0h20m15 0h20m15 0h20m15 0h20m15 0h20m15 0h20m15 0h20m15 0h20m15 0h20m15 0h20m15 0h20m15 0h20m15 0h20m15 0h20m15 0h20m15 0h20m15 0h20m15 0h20m15 0h20m15 0h20m15 0h20m15 0h20m15 0h20m15 0h10" stroke="#3a414a" fill="none"/><use xlink:href="#a" transform="matrix(1,0,0,1,354.72119895872083,-340) translate(0.5996913580246996 19.488888888888887)"/><use xlink:href="#v" transform="matrix(1,0,0,1,358.72119895872083,-302) translate(15.050000000000011 14.399999999999995)"/><use xlink:href="#w" transform="matrix(1,0,0,1,358.72119895872083,-302) translate(29.000000000000007 14.399999999999995)"/><use xlink:href="#x" transform="matrix(1,0,0,1,358.72119895872083,-302) translate(7.575000000000017 35.999999999999986)"/><use xlink:href="#y" transform="matrix(1,0,0,1,358.72119895872083,-302) translate(45.525000000000006 35.999999999999986)"/><use xlink:href="#z" transform="matrix(1,0,0,1,358.72119895872083,193) translate(18.21018518518519 19.488888888888887)"/><path d="M1442.9-538.7h-382.83v-1h382.83zm299.28 0h-70.23v-1h70.23z" stroke="#3a414a" stroke-width=".05" fill="#3a414a"/><path d="M1060.08-538.7h-.5v-1h.5z" fill="#3a414a"/><path d="M1060.1-538.67h-.55v-1.05h.56zm-.5-1v.95h.46v-.95z" stroke="#3a414a" stroke-width=".05" fill="#3a414a"/><path d="M1756.95-539.2l-14.27 4.64v-9.27z" fill="#3a414a"/><path d="M1758.57-539.2l-16.38 5.33-.02-10.65zm-15.38 3.95l12.13-3.95-12.14-3.94z" stroke="#3a414a" stroke-width=".05" fill="#3a414a"/><use xlink:href="#A" transform="matrix(1,0,0,1,1442.8964803659892,-552.6640695977809) translate(0.0049999999999954525 17.955555555555552)"/><use xlink:href="#B" transform="matrix(1,0,0,1,1442.8964803659892,-552.6640695977809) translate(89.72043209876541 17.955555555555552)"/><use xlink:href="#C" transform="matrix(1,0,0,1,1442.8964803659892,-552.6640695977809) translate(170.58277777777775 17.955555555555552)"/><path d="M1758.07-490.08H1753v-1h5.07zm-10.12 0h-10.1v-1h10.1zm-15.17 0h-10.12v-1h10.12zm-15.17 0h-10.1v-1h10.1zm-15.17 0h-10.1v-1h10.1zm-15.17 0h-10.12v-1h10.12zm-15.18 0h-10.1v-1h10.1zm-15.17 0h-10.1v-1h10.1zm-15.16 0h-10.12v-1h10.12zm-15.18 0h-10.1v-1h10.1zm-139.5 0h-7.18v-1h7.18zm-12.24 0h-10.1v-1h10.1zm-15.17 0h-10.12v-1h10.12zm-15.18 0h-10.1v-1h10.1zm-15.17 0h-10.1v-1h10.1zm-15.17 0h-10.1v-1h10.1zm-15.16 0h-10.1v-1h10.1zm-15.14 0h-10.1v-1h10.1zm-15.14 0h-10.1v-1h10.1zm-15.15 0h-10.1v-1h10.1zm-15.14 0h-10.1v-1h10.1zm-15.13 0h-10.1v-1h10.1zm-15.14 0h-10.1v-1h10.1zm-15.15 0h-10.1v-1h10.1zm-15.14 0h-10.1v-1h10.1zm-15.14 0h-10.1v-1h10.1zm-15.14 0h-10.1v-1h10.1zm-15.14 0h-10.1v-1h10.1zm-15.14 0h-10.1v-1h10.1zm-15.15 0h-10.1v-1h10.1zm-15.14 0h-10.1v-1h10.1zm-15.15 0h-10.1v-1h10.1zm-15.14 0h-10.1l.02-1h10.1zm-15.13 0h-10.1v-1h10.1zm-15.14 0h-10.1v-1h10.1zm-15.14 0h-10.1v-1h10.1zm-15.16 0h-10.1v-1h10.1zm-15.14 0h-5.05v-1h5.05z" stroke="#3a414a" stroke-width=".05" fill="#3a414a"/><path d="M1758.57-490.08h-.5v-1h.5z" fill="#3a414a"/><path d="M1758.6-490.05h-.57v-1.05h.57zm-.52-1v.95h.47v-.95z" stroke="#3a414a" stroke-width=".05" fill="#3a414a"/><path d="M1075.45-485.94l-14.26-4.64 14.25-4.63z" fill="#3a414a"/><path d="M1075.95-485.25l-16.38-5.33 16.38-5.32zm-13.14-5.33l12.15 3.95v-7.9z" stroke="#3a414a" stroke-width=".05" fill="#3a414a"/><use xlink:href="#D" transform="matrix(1,0,0,1,1487.0608614111384,-504.0444245802333) translate(0.005000000000002558 17.955555555555552)"/><use xlink:href="#E" transform="matrix(1,0,0,1,1487.0608614111384,-504.0444245802333) translate(41.0908024691358 17.955555555555552)"/><use xlink:href="#C" transform="matrix(1,0,0,1,1487.0608614111384,-504.0444245802333) translate(66.02907407407406 17.955555555555552)"/><path d="M1018.07-445.34h-5.15v-1h5.15zm-10.3 0h-10.3v-1h10.3zm-15.45 0h-10.3v-1h10.3zm-15.46 0h-10.3v-1h10.3zm-15.45 0h-10.3v-1h10.3zm-15.44 0h-10.3v-1h10.3zm-15.45 0h-10.3v-1h10.3zm-15.44 0h-10.3v-1h10.3zm-154.34 0h-10.27v-1h10.27zm-15.4 0H735v-1h10.3zm-15.43 0H719.6v-1h10.27zm-15.42 0H704.2v-1h10.28zm-15.4 0h-10.3v-1h10.3zm-15.42 0h-10.28v-1h10.28zm-15.42 0h-5.13v-1h5.14z" stroke="#3a414a" stroke-width=".05" fill="#3a414a"/><path d="M1018.57-445.34h-.5v-1h.5z" fill="#3a414a"/><path d="M1018.6-445.3h-.57v-1.06h.57zm-.52-1v.94h.46v-.95z" stroke="#3a414a" stroke-width=".05" fill="#3a414a"/><path d="M662.6-441.2l-14.26-4.64 14.27-4.63z" fill="#3a414a"/><path d="M663.1-440.5l-16.38-5.34 16.4-5.32zm-13.14-5.34l12.15 3.95v-7.88z" stroke="#3a414a" stroke-width=".05" fill="#3a414a"/><use xlink:href="#F" transform="matrix(1,0,0,1,763.5976241393748,-459.30256712572873) translate(0.0049999999999954525 17.955555555555552)"/><use xlink:href="#C" transform="matrix(1,0,0,1,763.5976241393748,-459.30256712572873) translate(79.6204320987654 17.955555555555552)"/><path d="M748.63-312.4h-101.4v-1h101.4zm253.55 0h-85.52v-1h85.52zM647.23-312.4h-.5v-1h.5z" stroke="#3a414a" stroke-width=".05" fill="#3a414a"/><path d="M1016.95-312.9l-14.27 4.65v-9.27z" fill="#3a414a"/><path d="M1018.57-312.9l-16.4 5.34v-10.65zm-15.4 3.96l12.16-3.95-12.15-3.94z" stroke="#3a414a" stroke-width=".05" fill="#3a414a"/><use xlink:href="#G" transform="matrix(1,0,0,1,748.6346845827969,-326.35429360599784) translate(0.0049999999999954525 17.955555555555552)"/><use xlink:href="#H" transform="matrix(1,0,0,1,748.6346845827969,-326.35429360599784) translate(46.14080246913579 17.955555555555552)"/><use xlink:href="#I" transform="matrix(1,0,0,1,748.6346845827969,-326.35429360599784) translate(99.63339506172838 17.955555555555552)"/><path d="M1135.38-222.8h-75.3v-1h75.3zm209.5 0h-59.43v-1h59.42z" stroke="#3a414a" stroke-width=".05" fill="#3a414a"/><path d="M1060.08-222.8h-.5v-1h.5z" fill="#3a414a"/><path d="M1060.1-222.77h-.55v-1.05h.56zm-.5-1v.95h.46v-.95z" stroke="#3a414a" stroke-width=".05" fill="#3a414a"/><path d="M1359.64-223.3l-14.27 4.64v-9.27z" fill="#3a414a"/><path d="M1361.26-223.3l-16.4 5.33v-10.65zm-15.4 3.95l12.16-3.95-12.15-3.94z" stroke="#3a414a" stroke-width=".05" fill="#3a414a"/><use xlink:href="#J" transform="matrix(1,0,0,1,1135.381194123572,-236.76304442981967) translate(0.0049999999999954525 17.955555555555552)"/><use xlink:href="#K" transform="matrix(1,0,0,1,1135.381194123572,-236.76304442981967) translate(69.7698148148148 17.955555555555552)"/><path d="M466.72-184.1a8 8 0 0 1 8-8h114a8 8 0 0 1 8 8v4.93a17.07 17.07 0 0 1-5 12.07 17.07 17.07 0 0 1-12.07 5H474.72a8 8 0 0 1-8-8z" fill="#fff"/><path d="M596.72-192.1v20l-10 10h-120" stroke="#3a414a" fill="none"/><path d="M466.72-184.1a8 8 0 0 1 8-8h1604a8 8 0 0 1 8 8v324a8 8 0 0 1-8 8h-1604a8 8 0 0 1-8-8zM466.72 55.82h20m15 0h20m15 0h20m15 0h20m15 0h20m15 0h20m15 0h20m15 0h20m15 0h20m15 0h20m15 0h20m15 0h20m15 0h20m15 0h20m15 0h20m15 0h20m15 0h20m15 0h20m15 0h20m15 0h20m15 0h20m15 0h20m15 0h20m15 0h20m15 0h20m15 0h20m15 0h20m15 0h20m15 0h20m15 0h20m15 0h20m15 0h20m15 0h20m15 0h20m15 0h20m15 0h20m15 0h20m15 0h20m15 0h20m15 0h20m15 0h20m15 0h20m15 0h20m15 0h20m15 0h20m15 0h20m15 0h10" stroke="#3a414a" fill="none"/><use xlink:href="#a" transform="matrix(1,0,0,1,474.72119895872083,-192.09798597919155) translate(3.0996913580246996 19.488888888888887)"/><use xlink:href="#g" transform="matrix(1,0,0,1,478.72119895872083,-154.09798597919155) translate(6.613888888888901 19.488888888888887)"/><use xlink:href="#h" transform="matrix(1,0,0,1,478.72119895872083,-154.09798597919155) translate(25.3175925925926 19.488888888888887)"/><use xlink:href="#g" transform="matrix(1,0,0,1,478.72119895872083,63.81868068747511) translate(13.222530864197537 19.488888888888887)"/><use xlink:href="#i" transform="matrix(1,0,0,1,478.72119895872083,63.81868068747511) translate(31.926234567901236 19.488888888888887)"/><path d="M1478.92-35.8h-76.16v-1h76.16zm263.26 0h-60.27v-1h60.28z" stroke="#3a414a" stroke-width=".05" fill="#3a414a"/><path d="M1402.77-35.8h-.5v-1h.5z" fill="#3a414a"/><path d="M1402.8-35.78h-.57v-1.05h.57zm-.52-1v.95h.47v-.95z" stroke="#3a414a" stroke-width=".05" fill="#3a414a"/><path d="M1756.95-36.3l-14.27 4.63v-9.27z" fill="#3a414a"/><path d="M1758.57-36.3l-16.38 5.32-.02-10.65zm-15.38 3.94l12.13-3.94-12.14-3.95z" stroke="#3a414a" stroke-width=".05" fill="#3a414a"/><use xlink:href="#G" transform="matrix(1,0,0,1,1478.915502085781,-49.769457392380644) translate(0.0049999999999954525 17.955555555555552)"/><use xlink:href="#L" transform="matrix(1,0,0,1,1478.915502085781,-49.769457392380644) translate(46.14080246913579 17.955555555555552)"/><use xlink:href="#H" transform="matrix(1,0,0,1,1478.915502085781,-49.769457392380644) translate(93.46117283950615 17.955555555555552)"/><use xlink:href="#M" transform="matrix(1,0,0,1,1478.915502085781,-49.769457392380644) translate(146.95376543209875 17.955555555555552)"/><use xlink:href="#N" transform="matrix(1,0,0,1,1478.915502085781,-49.769457392380644) translate(171.89203703703703 17.955555555555552)"/><path d="M1360.76 96.6h-5v-1h5zm-10 0h-10v-1h10zm-14.98 0h-10v-1h10zm-15 0h-10v-1h10zm-14.98 0h-10v-1h10zm-169.42 0h-5.46v-1h5.46zm-10.46 0h-10v-1h10zm-15 0h-9.98v-1h10zm-14.98 0h-10v-1h10zm-15 0h-5v-1h5zm209.87 0h-6.35v-1h6.36z" stroke="#3a414a" stroke-width=".05" fill="#3a414a"/><path d="M1361.26 96.6h-.5v-1h.5z" fill="#3a414a"/><path d="M1361.28 96.63h-.56v-1.05h.56zm-.5-1v.95h.45v-.95z" stroke="#3a414a" stroke-width=".05" fill="#3a414a"/><path d="M1075.45 100.74l-14.26-4.63 14.25-4.63z" fill="#3a414a"/><path d="M1075.95 101.43l-16.38-5.32 16.38-5.32zm-13.14-5.32l12.15 3.96v-7.9z" stroke="#3a414a" stroke-width=".05" fill="#3a414a"/><use xlink:href="#O" transform="matrix(1,0,0,1,1136.3787420674464,82.64095705015555) translate(0.0049999999999954525 17.955555555555552)"/><use xlink:href="#P" transform="matrix(1,0,0,1,1136.3787420674464,82.64095705015555) translate(67.15129629629628 17.955555555555552)"/><path d="M1360.76-157.8h-5v-1h5zm-10 0h-10v-1h10zm-14.98 0h-10v-1h10zm-15 0h-10v-1h10zm-14.98 0h-10v-1h10zm-179.88 0h-10v-1h10zm-15 0h-9.98v-1h10zm-14.98 0h-10v-1h10zm-15 0h-5v-1h5z" stroke="#3a414a" stroke-width=".05" fill="#3a414a"/><path d="M1361.26-157.8h-.5v-1h.5z" fill="#3a414a"/><path d="M1361.28-157.78h-.56v-1.05h.56zm-.5-1v.95h.45v-.95z" stroke="#3a414a" stroke-width=".05" fill="#3a414a"/><path d="M1075.45-153.67l-14.26-4.63 14.25-4.64z" fill="#3a414a"/><path d="M1075.95-152.98l-16.38-5.32 16.38-5.33zm-13.14-5.32l12.15 3.95v-7.9z" stroke="#3a414a" stroke-width=".05" fill="#3a414a"/><use xlink:href="#Q" transform="matrix(1,0,0,1,1127.9932884251812,-171.7688779979712) translate(0.0049999999999954525 17.955555555555552)"/><use xlink:href="#K" transform="matrix(1,0,0,1,1127.9932884251812,-171.7688779979712) translate(84.54574074074071 17.955555555555552)"/><path d="M1018.07-148.9h-5.15v-1h5.15zm-10.3 0h-10.3v-1h10.3zm-15.45 0h-10.3v-1h10.3zm-15.46 0h-10.3v-1h10.3zm-15.45 0h-10.3v-1h10.3zm-237.05 0h-4.73v-1h4.73zm-9.87 0H704.2v-1h10.28zm-15.4 0h-10.3v-1h10.3zm-15.42 0h-10.28v-1h10.28zm-15.42 0h-5.13v-1h5.14zm277.72 0h-5.02v-1h5.02z" stroke="#3a414a" stroke-width=".05" fill="#3a414a"/><path d="M1018.57-148.9h-.5v-1h.5z" fill="#3a414a"/><path d="M1018.6-148.88h-.57v-1.05h.57zm-.52-1v.95h.46v-.95z" stroke="#3a414a" stroke-width=".05" fill="#3a414a"/><path d="M662.6-144.77l-14.26-4.63 14.27-4.64z" fill="#3a414a"/><path d="M663.1-144.08l-16.38-5.32 16.4-5.33zm-13.14-5.32l12.15 3.94v-7.9z" stroke="#3a414a" stroke-width=".05" fill="#3a414a"/><use xlink:href="#A" transform="matrix(1,0,0,1,724.3510304800802,-162.86897197218454) translate(0.0049999999999954525 17.955555555555552)"/><use xlink:href="#R" transform="matrix(1,0,0,1,724.3510304800802,-162.86897197218454) translate(89.72043209876541 17.955555555555552)"/><path d="M726.72-74.1a8 8 0 0 1 8-8h84a8 8 0 0 1 8 8v4.93a17.07 17.07 0 0 1-5 12.07 17.07 17.07 0 0 1-12.07 5h-74.93a8 8 0 0 1-8-8z" fill="#fff"/><path d="M826.72-82.1v20l-10 10h-90" stroke="#3a414a" fill="none"/><path d="M726.72-74.1a8 8 0 0 1 8-8h1104a8 8 0 0 1 8 8v104a8 8 0 0 1-8 8h-1104a8 8 0 0 1-8-8zM726.72-6.1h20m15 0h20m15 0h20m15 0h20m15 0h20m15 0h20m15 0h20m15 0h20m15 0h20m15 0h20m15 0h20m15 0h20m15 0h20m15 0h20m15 0h20m15 0h20m15 0h20m15 0h20m15 0h20m15 0h20m15 0h20m15 0h20m15 0h20m15 0h20m15 0h20m15 0h20m15 0h20m15 0h20m15 0h20m15 0h20m15 0h20m15 0h20" stroke="#3a414a" fill="none"/><use xlink:href="#j" transform="matrix(1,0,0,1,734.7211989587208,-82.09798597919155) translate(3.8126543209876758 18.155555555555555)"/><use xlink:href="#k" transform="matrix(1,0,0,1,738.7211989587208,-44.09798597919155) translate(7.137037037037068 18.155555555555555)"/><use xlink:href="#l" transform="matrix(1,0,0,1,738.7211989587208,-44.09798597919155) translate(20.285185185185206 18.155555555555555)"/><use xlink:href="#m" transform="matrix(1,0,0,1,738.7211989587208,1.9020140208084513) translate(20.299691358024702 18.155555555555555)"/><path d="M729-115.56h-81.78v-1H729zm273.68 0H936.8v-1h65.88z" stroke="#3a414a" stroke-width=".05" fill="#3a414a"/><path d="M647.23-115.56h-.5v-1h.5z" stroke="#3a414a" stroke-width=".05" fill="#3a414a"/><path d="M1017.45-116.06l-14.27 4.63v-9.27z" fill="#3a414a"/><path d="M1019.07-116.06l-16.4 5.32v-10.65zm-15.4 3.94l12.16-3.94-12.15-3.95z" stroke="#3a414a" stroke-width=".05" fill="#3a414a"/><use xlink:href="#S" transform="matrix(1,0,0,1,728.9963673088893,-129.5307034313997) translate(0.0049999999999954525 17.955555555555552)"/><use xlink:href="#T" transform="matrix(1,0,0,1,728.9963673088893,-129.5307034313997) translate(133.11302469135796 17.955555555555552)"/><path d="M1781.76 714.62v10.17m0 10.16v20.33m0 10.16v20.34m0 10.17v20.33m0 10.17v20.33m0 10.17v20.34m0 10.18v20.33m0 10.18v20.33m0 10.18v20.34m0 10.16v20.34m0 10.17v20.32m0 10.17v20.33m0 10.16v20.33m0 10.17v20.33m0 10.17v20.34m0 10.16v20.34m0 10.17v20.34m0 10.17v20.34m0 10.17v20.35m0 10.16v20.35m0 10.17v20.33m0 10.17v20.34m0 10.16v20.34m0 10.17v20.33m0 10.17v20.34m0 10.16v20.34m0 10.17v20.33m0 10.17v20.33m0 10.17v20.34m0 10.16v10.17M1781.76 714.64v-.52M1781.76 1599.2v.5M1381.76 710.7v9.87m0 9.88v19.74m0 9.86v19.75m0 9.88v19.75m0 9.87v19.74m0 9.87v19.76m0 9.87v19.75m0 9.87v19.74m0 9.87v19.74m0 9.88v19.75m0 9.87v19.74m0 9.88v19.74m0 9.87v19.75m0 9.87v19.75m0 9.87v19.74m0 9.88v19.75m0 9.87v19.75m0 9.87v19.74m0 9.88v19.74m0 9.87v19.75m0 9.87v19.74m0 9.9v19.73m0 9.87v19.75m0 9.87v19.75m0 9.87v19.74m0 9.87V1461m0 9.87v19.75m0 9.87v19.73m0 9.88v19.75m0 9.87v19.75m0 9.87v9.87M1381.76 1599.2v.5M1039.05 738.34h.02v9.92m0 9.9v19.77m0 9.9v19.78m0 9.9v19.8m0 9.88v19.8m0 9.88v19.8m0 9.88v19.8m0 9.88V956m0 9.9v19.78m0 9.9v19.78m0 9.9v19.78m0 9.9v19.78m0 9.9v19.78m0 9.9v19.78m0 9.9v19.78m0 9.9v19.77m0 9.9v19.78m0 9.9v19.8m0 9.88v19.8m0 9.88v19.8m0 9.88v19.8m0 9.88v19.8m0 9.88v19.8m0 9.88v19.8m0 9.88v19.78m0 9.9v19.78m0 9.9v19.78m0 9.9v19.78m0 9.9v19.78m0 9.9v19.78m0 9.9v9.88M1039.06 738.34h-.5M1039.07 1628.7v.52M646.72 760.2v10m0 10v19.96m0 10v19.97m0 10v19.96m0 9.98v19.98m0 10V920m0 10v19.97m0 9.98v19.97m0 10v19.96m0 10v19.98m0 10v19.96m0 10v19.97m0 10v19.97m0 10v19.97m0 9.98v19.98m0 10v19.96m0 10v19.97m0 10v19.96m0 9.98v19.98m0 10v19.96m0 10v19.97m0 9.97v19.98m0 10v19.96m0 10v19.98m0 10v19.96m0 10v19.97m0 10v19.97m0 10v19.97m0 9.98v10M646.72 760.23v-.52M646.72 1599.2v.5" stroke="#3a414a" fill="none"/><path d="M719.07 279.9h-71.85v-1h71.85zm282.6 0H945.7v-1h55.96z" stroke="#333" stroke-width=".05" fill="#333"/><path d="M647.23 279.9h-.5v-1h.5z" stroke="#333" stroke-width=".05" fill="#333"/><path d="M1016.43 279.4l-14.27 4.64v-9.27z" fill="#333"/><path d="M1018.05 279.4l-16.4 5.33v-10.65zm-15.4 3.95l12.16-3.95-12.14-3.95z" stroke="#333" stroke-width=".05" fill="#333"/><use xlink:href="#U" transform="matrix(1,0,0,1,719.0704390361831,265.9345216448523) translate(0.0049999999999954525 17.955555555555552)"/><use xlink:href="#V" transform="matrix(1,0,0,1,719.0704390361831,265.9345216448523) translate(83.48586419753083 17.955555555555552)"/><use xlink:href="#W" transform="matrix(1,0,0,1,719.0704390361831,265.9345216448523) translate(136.9784567901234 17.955555555555552)"/><use xlink:href="#X" transform="matrix(1,0,0,1,719.0704390361831,265.9345216448523) translate(161.91672839506168 17.955555555555552)"/><path d="M519.07 367.7a8 8 0 0 1 8-8h84a8 8 0 0 1 8 8v4.94a17.07 17.07 0 0 1-5 12.07 17.07 17.07 0 0 1-12.07 5h-74.93a8 8 0 0 1-8-8z" fill="#fff"/><path d="M619.07 359.7v20l-10 10h-90" stroke="#333" fill="none"/><path d="M519.07 367.7a8 8 0 0 1 8-8h1504a8 8 0 0 1 8 8v104a8 8 0 0 1-8 8h-1504a8 8 0 0 1-8-8zM519.07 435.7h20m15 0h20m15 0h20m15 0h20m15 0h20m15 0h20m15 0h20m15 0h20m15 0h20m15 0h20m15 0h20m15 0h20m15 0h20m15 0h20m15 0h20m15 0h20m15 0h20m15 0h20m15 0h20m15 0h20m15 0h20m15 0h20m15 0h20m15 0h20m15 0h20m15 0h20m15 0h20m15 0h20m15 0h20m15 0h20m15 0h20m15 0h20m15 0h20m15 0h20m15 0h20m15 0h20m15 0h20m15 0h20m15 0h20m15 0h20m15 0h20m15 0h20m15 0h20m15 0h15" stroke="#333" fill="none"/><use xlink:href="#Y" transform="matrix(1,0,0,1,527.069683807206,359.71262008141434) translate(-1.4249999999999972 18.6)"/><use xlink:href="#Z" transform="matrix(1,0,0,1,531.069683807206,397.71262008141434) translate(7.074999999999996 18.6)"/><use xlink:href="#aa" transform="matrix(1,0,0,1,531.069683807206,443.71262008141434) translate(17.525 18.6)"/><path d="M1018.07 643.5h-5.15v-1h5.15zm-10.3 0h-10.3v-1h10.3zm-15.45 0h-10.3v-1h10.3zm-15.46 0h-10.3v-1h10.3zm-15.45 0h-10.3v-1h10.3zm-238.23 0h-3.55v-1h3.55zm-8.7 0h-10.26v-1h10.28zm-15.4 0H688.8v-1h10.27zm-15.4 0h-10.3v-1h10.3zm-15.43 0h-5.13v-1h5.14zm277.72 0h-3.84v-1h3.84z" stroke="#333" stroke-width=".05" fill="#333"/><path d="M1018.57 643.5h-.5v-1h.5z" fill="#333"/><path d="M1018.6 643.52h-.57v-1.05h.57zm-.52-1v.95h.46v-.95z" stroke="#333" stroke-width=".05" fill="#333"/><path d="M662.6 647.63L648.35 643l14.27-4.64z" fill="#333"/><path d="M663.1 648.32L646.73 643l16.4-5.33zM649.97 643l12.15 3.94v-7.9z" stroke="#333" stroke-width=".05" fill="#333"/><use xlink:href="#ab" transform="matrix(1,0,0,1,723.1664422905817,616.0580152047972) translate(0.0049999999999954525 17.955555555555552)"/><use xlink:href="#ac" transform="matrix(1,0,0,1,723.1664422905817,616.0580152047972) translate(73.4482098765432 17.955555555555552)"/><use xlink:href="#ad" transform="matrix(1,0,0,1,723.1664422905817,616.0580152047972) translate(108.23709876543208 17.955555555555552)"/><use xlink:href="#ae" transform="matrix(1,0,0,1,723.1664422905817,616.0580152047972) translate(53.90438271604937 44.888888888888886)"/><use xlink:href="#af" transform="matrix(1,0,0,1,723.1664422905817,616.0580152047972) translate(60.13895061728394 44.888888888888886)"/><use xlink:href="#ag" transform="matrix(1,0,0,1,723.1664422905817,616.0580152047972) translate(122.48462962962961 44.888888888888886)"/><path d="M728.5 325.9H647.2v-1h81.26zm273.16 0h-65.38v-1h65.38z" stroke="#3a414a" stroke-width=".05" fill="#3a414a"/><path d="M647.23 325.9h-.5v-1h.5z" stroke="#3a414a" stroke-width=".05" fill="#3a414a"/><path d="M1016.43 325.4l-14.27 4.63v-9.27z" fill="#3a414a"/><path d="M1018.05 325.4l-16.4 5.32v-10.65zm-15.4 3.94l12.16-3.94-12.14-3.95z" stroke="#3a414a" stroke-width=".05" fill="#3a414a"/><use xlink:href="#ah" transform="matrix(1,0,0,1,728.4846478405291,311.930327248174) translate(0.0049999999999954525 17.95555555555555)"/><use xlink:href="#ai" transform="matrix(1,0,0,1,728.4846478405291,311.930327248174) translate(133.11302469135794 17.95555555555555)"/><path d="M1307.78 397.4h-248.23v-1h248.23zm434.4 0h-232.34v-1h232.35z" stroke="#3a414a" stroke-width=".05" fill="#3a414a"/><path d="M1059.56 397.4h-.5v-1h.5z" fill="#3a414a"/><path d="M1059.58 397.42h-.56v-1.05h.56zm-.5-1v.95h.45v-.95z" stroke="#3a414a" stroke-width=".05" fill="#3a414a"/><path d="M1756.95 396.9l-14.26 4.63v-9.27z" fill="#3a414a"/><path d="M1758.57 396.9l-16.38 5.3v-10.63zm-15.38 3.94l12.13-3.95-12.14-3.96z" stroke="#3a414a" stroke-width=".05" fill="#3a414a"/><use xlink:href="#aj" transform="matrix(1,0,0,1,1307.7783213535886,383.42420854085873) translate(0.0049999999999954525 17.95555555555555)"/><use xlink:href="#ak" transform="matrix(1,0,0,1,1307.7783213535886,383.42420854085873) translate(67.27598765432097 17.95555555555555)"/><use xlink:href="#al" transform="matrix(1,0,0,1,1307.7783213535886,383.42420854085873) translate(92.21425925925924 17.95555555555555)"/><use xlink:href="#ag" transform="matrix(1,0,0,1,1307.7783213535886,383.42420854085873) translate(159.4852469135802 17.95555555555555)"/><path d="M734.73 576.25h-87.5v-1h87.5zm267.45 0h-71.62v-1h71.63zM647.23 576.25h-.5v-1h.5z" stroke="#333" stroke-width=".05" fill="#333"/><path d="M1016.95 575.75l-14.27 4.63v-9.27z" fill="#333"/><path d="M1018.57 575.75l-16.4 5.32v-10.65zm-15.4 3.95l12.16-3.95-12.15-3.95z" stroke="#333" stroke-width=".05" fill="#333"/><use xlink:href="#am" transform="matrix(1,0,0,1,734.7330971186207,562.2812775356389) translate(0.0049999999999954525 17.955555555555552)"/><use xlink:href="#an" transform="matrix(1,0,0,1,734.7330971186207,562.2812775356389) translate(83.48586419753083 17.955555555555552)"/><use xlink:href="#W" transform="matrix(1,0,0,1,734.7330971186207,562.2812775356389) translate(132.2994444444444 17.955555555555552)"/><use xlink:href="#ao" transform="matrix(1,0,0,1,734.7330971186207,562.2812775356389) translate(157.23771604938264 17.955555555555552)"/><path d="M792.18 702.1H647.22v-1h144.96zm210 0H873.1v-1h129.08z" stroke="#3a414a" stroke-width=".05" fill="#3a414a"/><path d="M647.23 702.1h-.5v-1h.5z" stroke="#3a414a" stroke-width=".05" fill="#3a414a"/><path d="M1016.95 701.6l-14.27 4.64v-9.27z" fill="#3a414a"/><path d="M1018.57 701.6l-16.4 5.32v-10.64zm-15.4 3.95l12.16-3.95-12.15-3.95z" stroke="#3a414a" stroke-width=".05" fill="#3a414a"/><g><use xlink:href="#ap" transform="matrix(1,0,0,1,792.1831192757595,688.1338264226159) translate(0.005000000000002558 17.955555555555552)"/><use xlink:href="#aq" transform="matrix(1,0,0,1,792.1831192757595,688.1338264226159) translate(44.831543209876536 17.955555555555552)"/></g><path d="M1135.38 727.58h-75.3v-1h75.3zm209.5 0h-59.43v-1h59.42z" stroke="#3a414a" stroke-width=".05" fill="#3a414a"/><path d="M1060.08 727.58h-.5v-1h.5z" fill="#3a414a"/><path d="M1060.1 727.6h-.55v-1.05h.56zm-.5-1v.95h.46v-.94z" stroke="#3a414a" stroke-width=".05" fill="#3a414a"/><path d="M1359.64 727.08l-14.27 4.63v-9.26z" fill="#3a414a"/><path d="M1361.26 727.08l-16.4 5.32v-10.64zm-15.4 3.95l12.16-3.95-12.15-3.95z" stroke="#3a414a" stroke-width=".05" fill="#3a414a"/><g><use xlink:href="#J" transform="matrix(1,0,0,1,1135.3812110063727,713.6131111249342) translate(0.0049999999999954525 17.955555555555552)"/><use xlink:href="#K" transform="matrix(1,0,0,1,1135.3812110063727,713.6131111249342) translate(69.7698148148148 17.955555555555552)"/></g><path d="M1360.76 803.08h-5v-1h5zm-10 0h-10v-1h10zm-14.98 0h-10v-1h10zm-15 0h-10v-1h10zm-14.98 0h-10v-1h10zm-179.88 0h-10v-1h10zm-15 0h-9.98v-1h10zm-14.98 0h-10v-1h10zm-15 0h-5v-1h5z" stroke="#3a414a" stroke-width=".05" fill="#3a414a"/><path d="M1361.26 803.08h-.5v-1h.5z" fill="#3a414a"/><path d="M1361.28 803.1h-.56v-1.05h.56zm-.5-1v.95h.45v-.95z" stroke="#3a414a" stroke-width=".05" fill="#3a414a"/><path d="M1075.45 807.2l-14.26-4.62 14.25-4.64z" fill="#3a414a"/><path d="M1075.95 807.9l-16.38-5.32 16.38-5.32zm-13.14-5.32l12.15 3.95v-7.9z" stroke="#3a414a" stroke-width=".05" fill="#3a414a"/><g><use xlink:href="#Q" transform="matrix(1,0,0,1,1127.993287550571,789.1124040135501) translate(0.0049999999999954525 17.955555555555552)"/><use xlink:href="#K" transform="matrix(1,0,0,1,1127.993287550571,789.1124040135501) translate(84.54574074074071 17.955555555555552)"/></g><path d="M1018.07 801.82h-4.93v-1h4.93zm-9.86 0h-9.85v-1h9.86zm-14.78 0h-9.86v-1h9.86zm-14.8 0h-9.85v-1h9.86zm-14.78 0h-9.86v-1h9.86zm-239.5 0h-7v-1h7zm-11.93 0h-9.85v-1h9.86zm-14.78 0h-9.87v-1h9.87zm-14.8 0h-9.86v-1h9.87zm-14.8 0h-4.9v-1h4.9zm281.03 0h-8.1v-1h8.1z" stroke="#3a414a" stroke-width=".05" fill="#3a414a"/><path d="M1018.57 801.82h-.5v-1h.5z" fill="#3a414a"/><path d="M1018.6 801.85h-.57v-1.05h.57zm-.52-1v.95h.46v-.95z" stroke="#3a414a" stroke-width=".05" fill="#3a414a"/><path d="M662.6 805.96l-14.26-4.64 14.26-4.63z" fill="#3a414a"/><path d="M663.1 806.65l-16.38-5.33L663.1 796zm-13.14-5.33l12.14 3.95v-7.9z" stroke="#3a414a" stroke-width=".05" fill="#3a414a"/><g><use xlink:href="#A" transform="matrix(1,0,0,1,724.3510380670009,787.855731609956) translate(0.0049999999999954525 17.955555555555552)"/><use xlink:href="#R" transform="matrix(1,0,0,1,724.3510380670009,787.855731609956) translate(89.72043209876541 17.955555555555552)"/></g><path d="M728.75 843.14h-81.53v-1h81.53zm273.43 0h-65.63v-1h65.63z" stroke="#3a414a" stroke-width=".05" fill="#3a414a"/><path d="M647.23 843.14h-.5v-1h.5z" stroke="#3a414a" stroke-width=".05" fill="#3a414a"/><path d="M1016.95 842.64l-14.27 4.63V838z" fill="#3a414a"/><path d="M1018.57 842.64l-16.4 5.32V837.3zm-15.4 3.94l12.16-3.94-12.15-3.95z" stroke="#3a414a" stroke-width=".05" fill="#3a414a"/><g><use xlink:href="#S" transform="matrix(1,0,0,1,728.7464157109628,829.1697308598566) translate(0.0049999999999954525 17.955555555555552)"/><use xlink:href="#T" transform="matrix(1,0,0,1,728.7464157109628,829.1697308598566) translate(133.11302469135796 17.955555555555552)"/></g><path d="M1443.57 929.62h-61.3v-1h61.3zm298.6 0h-45.4v-1h45.4zM1382.27 929.62h-.5v-1h.5z" stroke="#3a414a" stroke-width=".05" fill="#3a414a"/><path d="M1756.95 929.12l-14.27 4.63v-9.27z" fill="#3a414a"/><path d="M1758.57 929.12l-16.38 5.32-.02-10.65zm-15.38 3.94l12.13-3.94-12.14-3.95z" stroke="#3a414a" stroke-width=".05" fill="#3a414a"/><g><use xlink:href="#ar" transform="matrix(1,0,0,1,1443.572917213238,915.6497578845501) translate(0.0049999999999954525 17.955555555555552)"/><use xlink:href="#L" transform="matrix(1,0,0,1,1443.572917213238,915.6497578845501) translate(57.36302469135801 17.955555555555552)"/><use xlink:href="#as" transform="matrix(1,0,0,1,1443.572917213238,915.6497578845501) translate(104.68339506172836 17.955555555555552)"/><use xlink:href="#at" transform="matrix(1,0,0,1,1443.572917213238,915.6497578845501) translate(153.49697530864194 17.955555555555552)"/><use xlink:href="#M" transform="matrix(1,0,0,1,1443.572917213238,915.6497578845501) translate(197.1389506172839 17.955555555555552)"/><use xlink:href="#N" transform="matrix(1,0,0,1,1443.572917213238,915.6497578845501) translate(222.0772222222222 17.955555555555552)"/></g><path d="M1759.07-572.3a8 8 0 0 1 8-8h24a8 8 0 0 1 8 8v104a8 8 0 0 1-8 8h-24a8 8 0 0 1-8-8zM1019.07-572.3a8 8 0 0 1 8-8h24a8 8 0 0 1 8 8v284a8 8 0 0 1-8 8h-24a8 8 0 0 1-8-8zM1361.76-252.3a8 8 0 0 1 8-8h24a8 8 0 0 1 8 8v104a8 8 0 0 1-8 8h-24a8 8 0 0 1-8-8zM1019.07-233.2a8 8 0 0 1 8-8h24a8 8 0 0 1 8 8v124.9a8 8 0 0 1-8 8h-24a8 8 0 0 1-8-8zM1759.07-52.3a8 8 0 0 1 8-8h24a8 8 0 0 1 8 8v24a8 8 0 0 1-8 8h-24a8 8 0 0 1-8-8zM1361.76 87.7a8 8 0 0 1 8-8h24a8 8 0 0 1 8 8v24a8 8 0 0 1-8 8h-24a8 8 0 0 1-8-8zM1019.07 87.7a8 8 0 0 1 8-8h24a8 8 0 0 1 8 8v24a8 8 0 0 1-8 8h-24a8 8 0 0 1-8-8zM1018.55 247.7a8 8 0 0 1 8-8h24a8 8 0 0 1 8 8v204a8 8 0 0 1-8 8h-24a8 8 0 0 1-8-8zM1759.07 387.7a8 8 0 0 1 8-8h24a8 8 0 0 1 8 8v24a8 8 0 0 1-8 8h-24a8 8 0 0 1-8-8zM1019.07 567.7a8 8 0 0 1 8-8h24a8 8 0 0 1 8 8v284a8 8 0 0 1-8 8h-24a8 8 0 0 1-8-8zM1361.76 707.7a8 8 0 0 1 8-8h24a8 8 0 0 1 8 8v144a8 8 0 0 1-8 8h-24a8 8 0 0 1-8-8zM1759.07 907.7a8 8 0 0 1 8-8h24a8 8 0 0 1 8 8v44a8 8 0 0 1-8 8h-24a8 8 0 0 1-8-8zM1361.76-52.3a8 8 0 0 1 8-8h24a8 8 0 0 1 8 8v24a8 8 0 0 1-8 8h-24a8 8 0 0 1-8-8z" stroke="#333" fill="#f2f3f5"/><defs><path fill="#3a414a" d="M205 0l-28-72H64L36 0H1l101-248h38L239 0h-34zm-38-99l-47-123c-12 45-31 82-46 123h93" id="au"/><path fill="#3a414a" d="M24 0v-261h32V0H24" id="av"/><path fill="#3a414a" d="M59-47c-2 24 18 29 38 22v24C64 9 27 4 27-40v-127H5v-23h24l9-43h21v43h35v23H59v120" id="aw"/><path fill="#3a414a" d="M100-194c63 0 86 42 84 106H49c0 40 14 67 53 68 26 1 43-12 49-29l28 8c-11 28-37 45-77 45C44 4 14-33 15-96c1-61 26-98 85-98zm52 81c6-60-76-77-97-28-3 7-6 17-6 28h103" id="ax"/><path fill="#3a414a" d="M114-163C36-179 61-72 57 0H25l-1-190h30c1 12-1 29 2 39 6-27 23-49 58-41v29" id="ay"/><path fill="#3a414a" d="M117-194c89-4 53 116 60 194h-32v-121c0-31-8-49-39-48C34-167 62-67 57 0H25l-1-190h30c1 10-1 24 2 32 11-22 29-35 61-36" id="az"/><path fill="#3a414a" d="M141-36C126-15 110 5 73 4 37 3 15-17 15-53c-1-64 63-63 125-63 3-35-9-54-41-54-24 1-41 7-42 31l-33-3c5-37 33-52 76-52 45 0 72 20 72 64v82c-1 20 7 32 28 27v20c-31 9-61-2-59-35zM48-53c0 20 12 33 32 33 41-3 63-29 60-74-43 2-92-5-92 41" id="aA"/><path fill="#3a414a" d="M24-231v-30h32v30H24zM24 0v-190h32V0H24" id="aB"/><path fill="#3a414a" d="M108 0H70L1-190h34L89-25l56-165h34" id="aC"/><g id="a"><use transform="matrix(0.06234567901234567,0,0,0.06234567901234567,0,0)" xlink:href="#au"/><use transform="matrix(0.06234567901234567,0,0,0.06234567901234567,14.96296296296296,0)" xlink:href="#av"/><use transform="matrix(0.06234567901234567,0,0,0.06234567901234567,19.888271604938268,0)" xlink:href="#aw"/><use transform="matrix(0.06234567901234567,0,0,0.06234567901234567,26.122839506172834,0)" xlink:href="#ax"/><use transform="matrix(0.06234567901234567,0,0,0.06234567901234567,38.59197530864196,0)" xlink:href="#ay"/><use transform="matrix(0.06234567901234567,0,0,0.06234567901234567,46.0111111111111,0)" xlink:href="#az"/><use transform="matrix(0.06234567901234567,0,0,0.06234567901234567,58.48024691358023,0)" xlink:href="#aA"/><use transform="matrix(0.06234567901234567,0,0,0.06234567901234567,70.94938271604937,0)" xlink:href="#aw"/><use transform="matrix(0.06234567901234567,0,0,0.06234567901234567,77.18395061728394,0)" xlink:href="#aB"/><use transform="matrix(0.06234567901234567,0,0,0.06234567901234567,82.10925925925925,0)" xlink:href="#aC"/><use transform="matrix(0.06234567901234567,0,0,0.06234567901234567,93.33148148148146,0)" xlink:href="#ax"/></g><path fill="#3a414a" d="M101-234c-31-9-42 10-38 44h38v23H63V0H32v-167H5v-23h27c-7-52 17-82 69-68v24" id="aD"/><g id="b"><use transform="matrix(0.056172839506172814,0,0,0.056172839506172814,0,0)" xlink:href="#aB"/><use transform="matrix(0.056172839506172814,0,0,0.056172839506172814,4.437654320987653,0)" xlink:href="#aD"/></g><path fill="#3a414a" d="M30-248c118-7 216 8 213 122C240-48 200 0 122 0H30v-248zM63-27c89 8 146-16 146-99s-60-101-146-95v194" id="aE"/><path fill="#3a414a" d="M177-190C167-65 218 103 67 71c-23-6-38-20-44-43l32-5c15 47 100 32 89-28v-30C133-14 115 1 83 1 29 1 15-40 15-95c0-56 16-97 71-98 29-1 48 16 59 35 1-10 0-23 2-32h30zM94-22c36 0 50-32 50-73 0-42-14-75-50-75-39 0-46 34-46 75s6 73 46 73" id="aF"/><g id="c"><use transform="matrix(0.056172839506172814,0,0,0.056172839506172814,0,0)" xlink:href="#aE"/><use transform="matrix(0.056172839506172814,0,0,0.056172839506172814,14.548765432098758,0)" xlink:href="#ax"/><use transform="matrix(0.056172839506172814,0,0,0.056172839506172814,25.78333333333332,0)" xlink:href="#av"/><use transform="matrix(0.056172839506172814,0,0,0.056172839506172814,30.220987654320975,0)" xlink:href="#ax"/><use transform="matrix(0.056172839506172814,0,0,0.056172839506172814,41.455555555555534,0)" xlink:href="#aw"/><use transform="matrix(0.056172839506172814,0,0,0.056172839506172814,47.07283950617281,0)" xlink:href="#aB"/><use transform="matrix(0.056172839506172814,0,0,0.056172839506172814,51.51049382716047,0)" xlink:href="#az"/><use transform="matrix(0.056172839506172814,0,0,0.056172839506172814,62.74506172839504,0)" xlink:href="#aF"/></g><path fill="#3a414a" d="M206 0h-36l-40-164L89 0H53L-1-190h32L70-26l43-164h34l41 164 42-164h31" id="aG"/><g id="d"><use transform="matrix(0.056172839506172814,0,0,0.056172839506172814,0,0)" xlink:href="#az"/><use transform="matrix(0.056172839506172814,0,0,0.056172839506172814,11.234567901234563,0)" xlink:href="#ax"/><use transform="matrix(0.056172839506172814,0,0,0.056172839506172814,22.469135802469125,0)" xlink:href="#aG"/></g><path fill="#3a414a" d="M232-93c-1 65-40 97-104 97C67 4 28-28 28-90v-158h33c8 89-33 224 67 224 102 0 64-133 71-224h33v155" id="aH"/><path fill="#3a414a" d="M135-143c-3-34-86-38-87 0 15 53 115 12 119 90S17 21 10-45l28-5c4 36 97 45 98 0-10-56-113-15-118-90-4-57 82-63 122-42 12 7 21 19 24 35" id="aI"/><g id="e"><use transform="matrix(0.056172839506172814,0,0,0.056172839506172814,0,0)" xlink:href="#aH"/><use transform="matrix(0.056172839506172814,0,0,0.056172839506172814,14.548765432098758,0)" xlink:href="#aI"/><use transform="matrix(0.056172839506172814,0,0,0.056172839506172814,24.659876543209865,0)" xlink:href="#ax"/><use transform="matrix(0.056172839506172814,0,0,0.056172839506172814,35.89444444444443,0)" xlink:href="#ay"/></g><path fill="#3a414a" d="M30 0v-248h187v28H63v79h144v27H63v87h162V0H30" id="aJ"/><path fill="#3a414a" d="M85-194c31 0 48 13 60 33l-1-100h32l1 261h-30c-2-10 0-23-3-31C134-8 116 4 85 4 32 4 16-35 15-94c0-66 23-100 70-100zm9 24c-40 0-46 34-46 75 0 40 6 74 45 74 42 0 51-32 51-76 0-42-9-74-50-73" id="aK"/><g id="f"><use transform="matrix(0.056172839506172814,0,0,0.056172839506172814,0,0)" xlink:href="#aJ"/><use transform="matrix(0.056172839506172814,0,0,0.056172839506172814,13.481481481481476,0)" xlink:href="#aK"/><use transform="matrix(0.056172839506172814,0,0,0.056172839506172814,24.716049382716037,0)" xlink:href="#aB"/><use transform="matrix(0.056172839506172814,0,0,0.056172839506172814,29.15370370370369,0)" xlink:href="#aw"/><use transform="matrix(0.056172839506172814,0,0,0.056172839506172814,34.770987654320976,0)" xlink:href="#aB"/><use transform="matrix(0.056172839506172814,0,0,0.056172839506172814,39.20864197530863,0)" xlink:href="#az"/><use transform="matrix(0.056172839506172814,0,0,0.056172839506172814,50.44320987654319,0)" xlink:href="#aF"/></g><path fill="#3a414a" d="M33 0v-248h34V0H33" id="aL"/><g id="g"><use transform="matrix(0.06234567901234567,0,0,0.06234567901234567,0,0)" xlink:href="#aL"/><use transform="matrix(0.06234567901234567,0,0,0.06234567901234567,6.234567901234566,0)" xlink:href="#aD"/></g><path fill="#3a414a" d="M137 0h-34L2-248h35l83 218 83-218h36" id="aM"/><g id="h"><use transform="matrix(0.06234567901234567,0,0,0.06234567901234567,0,0)" xlink:href="#aM"/><use transform="matrix(0.06234567901234567,0,0,0.06234567901234567,13.279629629629627,0)" xlink:href="#aA"/><use transform="matrix(0.06234567901234567,0,0,0.06234567901234567,25.748765432098757,0)" xlink:href="#av"/><use transform="matrix(0.06234567901234567,0,0,0.06234567901234567,30.674074074074063,0)" xlink:href="#aB"/><use transform="matrix(0.06234567901234567,0,0,0.06234567901234567,35.59938271604937,0)" xlink:href="#aK"/></g><path fill="#3a414a" d="M190 0L58-211 59 0H30v-248h39L202-35l-2-213h31V0h-41" id="aN"/><path fill="#3a414a" d="M100-194c62-1 85 37 85 99 1 63-27 99-86 99S16-35 15-95c0-66 28-99 85-99zM99-20c44 1 53-31 53-75 0-43-8-75-51-75s-53 32-53 75 10 74 51 75" id="aO"/><g id="i"><use transform="matrix(0.06234567901234567,0,0,0.06234567901234567,0,0)" xlink:href="#aN"/><use transform="matrix(0.06234567901234567,0,0,0.06234567901234567,16.147530864197527,0)" xlink:href="#aO"/><use transform="matrix(0.06234567901234567,0,0,0.06234567901234567,28.61666666666666,0)" xlink:href="#aw"/></g><g id="j"><use transform="matrix(0.043827160493827136,0,0,0.043827160493827136,0,0)" xlink:href="#au"/><use transform="matrix(0.043827160493827136,0,0,0.043827160493827136,10.518518518518512,0)" xlink:href="#av"/><use transform="matrix(0.043827160493827136,0,0,0.043827160493827136,13.980864197530856,0)" xlink:href="#aw"/><use transform="matrix(0.043827160493827136,0,0,0.043827160493827136,18.36358024691357,0)" xlink:href="#ax"/><use transform="matrix(0.043827160493827136,0,0,0.043827160493827136,27.129012345678998,0)" xlink:href="#ay"/><use transform="matrix(0.043827160493827136,0,0,0.043827160493827136,32.34444444444443,0)" xlink:href="#az"/><use transform="matrix(0.043827160493827136,0,0,0.043827160493827136,41.10987654320985,0)" xlink:href="#aA"/><use transform="matrix(0.043827160493827136,0,0,0.043827160493827136,49.87530864197528,0)" xlink:href="#aw"/><use transform="matrix(0.043827160493827136,0,0,0.043827160493827136,54.258024691357996,0)" xlink:href="#aB"/><use transform="matrix(0.043827160493827136,0,0,0.043827160493827136,57.72037037037034,0)" xlink:href="#aC"/><use transform="matrix(0.043827160493827136,0,0,0.043827160493827136,65.60925925925922,0)" xlink:href="#ax"/></g><g id="k"><use transform="matrix(0.043827160493827136,0,0,0.043827160493827136,0,0)" xlink:href="#aL"/><use transform="matrix(0.043827160493827136,0,0,0.043827160493827136,4.382716049382713,0)" xlink:href="#aD"/></g><path fill="#3a414a" d="M212-179c-10-28-35-45-73-45-59 0-87 40-87 99 0 60 29 101 89 101 43 0 62-24 78-52l27 14C228-24 195 4 139 4 59 4 22-46 18-125c-6-104 99-153 187-111 19 9 31 26 39 46" id="aP"/><path fill="#3a414a" d="M210-169c-67 3-38 105-44 169h-31v-121c0-29-5-50-35-48C34-165 62-65 56 0H25l-1-190h30c1 10-1 24 2 32 10-44 99-50 107 0 11-21 27-35 58-36 85-2 47 119 55 194h-31v-121c0-29-5-49-35-48" id="aQ"/><g id="l"><use transform="matrix(0.043827160493827136,0,0,0.043827160493827136,0,0)" xlink:href="#aP"/><use transform="matrix(0.043827160493827136,0,0,0.043827160493827136,11.351234567901228,0)" xlink:href="#aO"/><use transform="matrix(0.043827160493827136,0,0,0.043827160493827136,20.116666666666653,0)" xlink:href="#az"/><use transform="matrix(0.043827160493827136,0,0,0.043827160493827136,28.882098765432076,0)" xlink:href="#aD"/><use transform="matrix(0.043827160493827136,0,0,0.043827160493827136,33.26481481481479,0)" xlink:href="#aB"/><use transform="matrix(0.043827160493827136,0,0,0.043827160493827136,36.727160493827135,0)" xlink:href="#ay"/><use transform="matrix(0.043827160493827136,0,0,0.043827160493827136,41.94259259259256,0)" xlink:href="#aQ"/><use transform="matrix(0.043827160493827136,0,0,0.043827160493827136,55.04691358024687,0)" xlink:href="#ax"/><use transform="matrix(0.043827160493827136,0,0,0.043827160493827136,63.8123456790123,0)" xlink:href="#aK"/></g><path fill="#3a414a" d="M26 75v-336h71v23H56V52h41v23H26" id="aR"/><path fill="#3a414a" d="M3 75V52h41v-290H3v-23h71V75H3" id="aS"/><g id="m"><use transform="matrix(0.043827160493827136,0,0,0.043827160493827136,0,0)" xlink:href="#aR"/><use transform="matrix(0.043827160493827136,0,0,0.043827160493827136,4.382716049382713,0)" xlink:href="#aJ"/><use transform="matrix(0.043827160493827136,0,0,0.043827160493827136,14.901234567901227,0)" xlink:href="#av"/><use transform="matrix(0.043827160493827136,0,0,0.043827160493827136,18.363580246913568,0)" xlink:href="#aI"/><use transform="matrix(0.043827160493827136,0,0,0.043827160493827136,26.252469135802453,0)" xlink:href="#ax"/><use transform="matrix(0.043827160493827136,0,0,0.043827160493827136,35.01790123456788,0)" xlink:href="#aS"/></g><path fill="#333" d="M33-154v-36h34v36H33zM33 0v-36h34V0H33" id="aT"/><path fill="#333" d="M212-179c-10-28-35-45-73-45-59 0-87 40-87 99 0 60 29 101 89 101 43 0 62-24 78-52l27 14C228-24 195 4 139 4 59 4 22-46 18-125c-6-104 99-153 187-111 19 9 31 26 39 46" id="aU"/><path fill="#333" d="M24 0v-261h32V0H24" id="aV"/><path fill="#333" d="M24-231v-30h32v30H24zM24 0v-190h32V0H24" id="aW"/><path fill="#333" d="M117-194c89-4 53 116 60 194h-32v-121c0-31-8-49-39-48C34-167 62-67 57 0H25l-1-190h30c1 10-1 24 2 32 11-22 29-35 61-36" id="aX"/><path fill="#333" d="M96-169c-40 0-48 33-48 73s9 75 48 75c24 0 41-14 43-38l32 2c-6 37-31 61-74 61-59 0-76-41-82-99-10-93 101-131 147-64 4 7 5 14 7 22l-32 3c-4-21-16-35-41-35" id="aY"/><g id="n"><use transform="matrix(0.06172839506172839,0,0,0.06172839506172839,0,0)" xlink:href="#aT"/><use transform="matrix(0.06172839506172839,0,0,0.06172839506172839,6.172839506172839,0)" xlink:href="#aU"/><use transform="matrix(0.06172839506172839,0,0,0.06172839506172839,22.160493827160494,0)" xlink:href="#aV"/><use transform="matrix(0.06172839506172839,0,0,0.06172839506172839,27.037037037037038,0)" xlink:href="#aW"/><use transform="matrix(0.06172839506172839,0,0,0.06172839506172839,31.913580246913586,0)" xlink:href="#aX"/><use transform="matrix(0.06172839506172839,0,0,0.06172839506172839,44.25925925925926,0)" xlink:href="#aW"/><use transform="matrix(0.06172839506172839,0,0,0.06172839506172839,49.135802469135804,0)" xlink:href="#aY"/><path fill="#333" d="M-1.1 1.54h68.63v1.63H-1.1z"/></g><path fill="#333" d="M185-189c-5-48-123-54-124 2 14 75 158 14 163 119 3 78-121 87-175 55-17-10-28-26-33-46l33-7c5 56 141 63 141-1 0-78-155-14-162-118-5-82 145-84 179-34 5 7 8 16 11 25" id="aZ"/><path fill="#333" d="M179-190L93 31C79 59 56 82 12 73V49c39 6 53-20 64-50L1-190h34L92-34l54-156h33" id="ba"/><path fill="#333" d="M135-143c-3-34-86-38-87 0 15 53 115 12 119 90S17 21 10-45l28-5c4 36 97 45 98 0-10-56-113-15-118-90-4-57 82-63 122-42 12 7 21 19 24 35" id="bb"/><path fill="#333" d="M59-47c-2 24 18 29 38 22v24C64 9 27 4 27-40v-127H5v-23h24l9-43h21v43h35v23H59v120" id="bc"/><path fill="#333" d="M100-194c63 0 86 42 84 106H49c0 40 14 67 53 68 26 1 43-12 49-29l28 8c-11 28-37 45-77 45C44 4 14-33 15-96c1-61 26-98 85-98zm52 81c6-60-76-77-97-28-3 7-6 17-6 28h103" id="bd"/><path fill="#333" d="M210-169c-67 3-38 105-44 169h-31v-121c0-29-5-50-35-48C34-165 62-65 56 0H25l-1-190h30c1 10-1 24 2 32 10-44 99-50 107 0 11-21 27-35 58-36 85-2 47 119 55 194h-31v-121c0-29-5-49-35-48" id="be"/><g id="o"><use transform="matrix(0.06172839506172839,0,0,0.06172839506172839,0,0)" xlink:href="#aZ"/><use transform="matrix(0.06172839506172839,0,0,0.06172839506172839,14.814814814814813,0)" xlink:href="#ba"/><use transform="matrix(0.06172839506172839,0,0,0.06172839506172839,25.925925925925924,0)" xlink:href="#bb"/><use transform="matrix(0.06172839506172839,0,0,0.06172839506172839,37.03703703703704,0)" xlink:href="#bc"/><use transform="matrix(0.06172839506172839,0,0,0.06172839506172839,43.20987654320988,0)" xlink:href="#bd"/><use transform="matrix(0.06172839506172839,0,0,0.06172839506172839,55.55555555555556,0)" xlink:href="#be"/><path fill="#333" d="M-1.1 1.54H75.1v1.63H-1.1z"/></g><g id="p"><use transform="matrix(0.04938271604938272,0,0,0.04938271604938272,0,0)" xlink:href="#aT"/><path fill="#333" d="M-.9 1.23h6.73v1.3H-.9z"/><use transform="matrix(0.06172839506172839,0,0,0.06172839506172839,4.938271604938272,0)" xlink:href="#aZ"/><use transform="matrix(0.06172839506172839,0,0,0.06172839506172839,19.753086419753085,0)" xlink:href="#ba"/><use transform="matrix(0.06172839506172839,0,0,0.06172839506172839,30.864197530864196,0)" xlink:href="#bb"/><use transform="matrix(0.06172839506172839,0,0,0.06172839506172839,41.9753086419753,0)" xlink:href="#bc"/><use transform="matrix(0.06172839506172839,0,0,0.06172839506172839,48.148148148148145,0)" xlink:href="#bd"/><use transform="matrix(0.06172839506172839,0,0,0.06172839506172839,60.49382716049382,0)" xlink:href="#be"/><path fill="#333" d="M3.83 1.54h82.4v1.63H3.84z"/></g><path fill="#333" d="M30-248c118-7 216 8 213 122C240-48 200 0 122 0H30v-248zM63-27c89 8 146-16 146-99s-60-101-146-95v194" id="bf"/><path fill="#333" d="M160-131c35 5 61 23 61 61C221 17 115-2 30 0v-248c76 3 177-17 177 60 0 33-19 50-47 57zm-97-11c50-1 110 9 110-42 0-47-63-36-110-37v79zm0 115c55-2 124 14 124-45 0-56-70-42-124-44v89" id="bg"/><g id="q"><use transform="matrix(0.06172839506172839,0,0,0.06172839506172839,0,0)" xlink:href="#bf"/><use transform="matrix(0.06172839506172839,0,0,0.06172839506172839,15.987654320987653,0)" xlink:href="#bg"/><path fill="#333" d="M-1.1 1.54h33v1.63h-33z"/></g><g id="r"><use transform="matrix(0.06172839506172839,0,0,0.06172839506172839,0,0)" xlink:href="#au"/><use transform="matrix(0.06172839506172839,0,0,0.06172839506172839,14.814814814814813,0)" xlink:href="#aK"/><use transform="matrix(0.06172839506172839,0,0,0.06172839506172839,27.160493827160494,0)" xlink:href="#aQ"/><use transform="matrix(0.06172839506172839,0,0,0.06172839506172839,45.61728395061728,0)" xlink:href="#aB"/><use transform="matrix(0.06172839506172839,0,0,0.06172839506172839,50.49382716049382,0)" xlink:href="#az"/></g><path fill="#333" d="M137 0h-34L2-248h35l83 218 83-218h36" id="bh"/><path fill="#333" d="M141-36C126-15 110 5 73 4 37 3 15-17 15-53c-1-64 63-63 125-63 3-35-9-54-41-54-24 1-41 7-42 31l-33-3c5-37 33-52 76-52 45 0 72 20 72 64v82c-1 20 7 32 28 27v20c-31 9-61-2-59-35zM48-53c0 20 12 33 32 33 41-3 63-29 60-74-43 2-92-5-92 41" id="bi"/><path fill="#333" d="M85-194c31 0 48 13 60 33l-1-100h32l1 261h-30c-2-10 0-23-3-31C134-8 116 4 85 4 32 4 16-35 15-94c0-66 23-100 70-100zm9 24c-40 0-46 34-46 75 0 40 6 74 45 74 42 0 51-32 51-76 0-42-9-74-50-73" id="bj"/><path fill="#333" d="M100-194c62-1 85 37 85 99 1 63-27 99-86 99S16-35 15-95c0-66 28-99 85-99zM99-20c44 1 53-31 53-75 0-43-8-75-51-75s-53 32-53 75 10 74 51 75" id="bk"/><g id="s"><use transform="matrix(0.06172839506172839,0,0,0.06172839506172839,0,0)" xlink:href="#aT"/><use transform="matrix(0.06172839506172839,0,0,0.06172839506172839,6.172839506172839,0)" xlink:href="#bh"/><use transform="matrix(0.06172839506172839,0,0,0.06172839506172839,19.320987654320987,0)" xlink:href="#bi"/><use transform="matrix(0.06172839506172839,0,0,0.06172839506172839,31.666666666666664,0)" xlink:href="#aV"/><use transform="matrix(0.06172839506172839,0,0,0.06172839506172839,36.54320987654321,0)" xlink:href="#aW"/><use transform="matrix(0.06172839506172839,0,0,0.06172839506172839,41.41975308641975,0)" xlink:href="#bj"/><use transform="matrix(0.06172839506172839,0,0,0.06172839506172839,53.76543209876543,0)" xlink:href="#bi"/><use transform="matrix(0.06172839506172839,0,0,0.06172839506172839,66.11111111111111,0)" xlink:href="#bc"/><use transform="matrix(0.06172839506172839,0,0,0.06172839506172839,72.28395061728395,0)" xlink:href="#aW"/><use transform="matrix(0.06172839506172839,0,0,0.06172839506172839,77.1604938271605,0)" xlink:href="#bk"/><use transform="matrix(0.06172839506172839,0,0,0.06172839506172839,89.50617283950618,0)" xlink:href="#aX"/><path fill="#333" d="M-1.1 1.54h104.06v1.63H-1.1z"/></g><path fill="#3a414a" d="M106-169C34-169 62-67 57 0H25v-261h32l-1 103c12-21 28-36 61-36 89 0 53 116 60 194h-32v-121c2-32-8-49-39-48" id="bl"/><g id="t"><use transform="matrix(0.06234567901234567,0,0,0.06234567901234567,0,0)" xlink:href="#aP"/><use transform="matrix(0.06234567901234567,0,0,0.06234567901234567,16.147530864197527,0)" xlink:href="#bl"/><use transform="matrix(0.06234567901234567,0,0,0.06234567901234567,28.61666666666666,0)" xlink:href="#aO"/><use transform="matrix(0.06234567901234567,0,0,0.06234567901234567,41.08580246913579,0)" xlink:href="#aO"/><use transform="matrix(0.06234567901234567,0,0,0.06234567901234567,53.554938271604925,0)" xlink:href="#aI"/><use transform="matrix(0.06234567901234567,0,0,0.06234567901234567,64.77716049382714,0)" xlink:href="#ax"/></g><path fill="#3a414a" d="M140-251c81 0 123 46 123 126C263-46 219 4 140 4 59 4 17-45 17-125s42-126 123-126zm0 227c63 0 89-41 89-101s-29-99-89-99c-61 0-89 39-89 99S79-25 140-24" id="bm"/><path fill="#3a414a" d="M115-194c55 1 70 41 70 98S169 2 115 4C84 4 66-9 55-30l1 105H24l-1-265h31l2 30c10-21 28-34 59-34zm-8 174c40 0 45-34 45-75s-6-73-45-74c-42 0-51 32-51 76 0 43 10 73 51 73" id="bn"/><g id="u"><use transform="matrix(0.06234567901234567,0,0,0.06234567901234567,0,0)" xlink:href="#bm"/><use transform="matrix(0.06234567901234567,0,0,0.06234567901234567,17.456790123456788,0)" xlink:href="#bn"/><use transform="matrix(0.06234567901234567,0,0,0.06234567901234567,29.92592592592592,0)" xlink:href="#aw"/><use transform="matrix(0.06234567901234567,0,0,0.06234567901234567,36.16049382716049,0)" xlink:href="#aB"/><use transform="matrix(0.06234567901234567,0,0,0.06234567901234567,41.08580246913579,0)" xlink:href="#aO"/><use transform="matrix(0.06234567901234567,0,0,0.06234567901234567,53.554938271604925,0)" xlink:href="#az"/></g><g id="v"><use transform="matrix(0.04999999999999998,0,0,0.04999999999999998,0,0)" xlink:href="#aB"/><use transform="matrix(0.04999999999999998,0,0,0.04999999999999998,3.9499999999999984,0)" xlink:href="#aD"/></g><g id="w"><use transform="matrix(0.04999999999999998,0,0,0.04999999999999998,0,0)" xlink:href="#au"/><use transform="matrix(0.04999999999999998,0,0,0.04999999999999998,11.999999999999996,0)" xlink:href="#aK"/><use transform="matrix(0.04999999999999998,0,0,0.04999999999999998,21.999999999999993,0)" xlink:href="#aK"/><use transform="matrix(0.04999999999999998,0,0,0.04999999999999998,31.99999999999999,0)" xlink:href="#aB"/><use transform="matrix(0.04999999999999998,0,0,0.04999999999999998,35.94999999999999,0)" xlink:href="#az"/><use transform="matrix(0.04999999999999998,0,0,0.04999999999999998,45.94999999999999,0)" xlink:href="#aF"/></g><g id="x"><use transform="matrix(0.04999999999999998,0,0,0.04999999999999998,0,0)" xlink:href="#az"/><use transform="matrix(0.04999999999999998,0,0,0.04999999999999998,9.999999999999996,0)" xlink:href="#ax"/><use transform="matrix(0.04999999999999998,0,0,0.04999999999999998,19.999999999999993,0)" xlink:href="#aG"/></g><g id="y"><use transform="matrix(0.04999999999999998,0,0,0.04999999999999998,0,0)" xlink:href="#aH"/><use transform="matrix(0.04999999999999998,0,0,0.04999999999999998,12.949999999999996,0)" xlink:href="#aI"/><use transform="matrix(0.04999999999999998,0,0,0.04999999999999998,21.949999999999992,0)" xlink:href="#ax"/><use transform="matrix(0.04999999999999998,0,0,0.04999999999999998,31.94999999999999,0)" xlink:href="#ay"/><use transform="matrix(0.04999999999999998,0,0,0.04999999999999998,37.899999999999984,0)" xlink:href="#aI"/></g><g id="z"><use transform="matrix(0.06234567901234567,0,0,0.06234567901234567,0,0)" xlink:href="#aJ"/><use transform="matrix(0.06234567901234567,0,0,0.06234567901234567,14.96296296296296,0)" xlink:href="#av"/><use transform="matrix(0.06234567901234567,0,0,0.06234567901234567,19.888271604938268,0)" xlink:href="#aI"/><use transform="matrix(0.06234567901234567,0,0,0.06234567901234567,31.11049382716049,0)" xlink:href="#ax"/></g><path fill="#3a414a" d="M233-177c-1 41-23 64-60 70L243 0h-38l-65-103H63V0H30v-248c88 3 205-21 203 71zM63-129c60-2 137 13 137-47 0-61-80-42-137-45v92" id="bo"/><path fill="#3a414a" d="M145-31C134-9 116 4 85 4 32 4 16-35 15-94c0-59 17-99 70-100 32-1 48 14 60 33 0-11-1-24 2-32h30l-1 268h-32zM93-21c41 0 51-33 51-76s-8-73-50-73c-40 0-46 35-46 75s5 74 45 74" id="bp"/><path fill="#3a414a" d="M84 4C-5 8 30-112 23-190h32v120c0 31 7 50 39 49 72-2 45-101 50-169h31l1 190h-30c-1-10 1-25-2-33-11 22-28 36-60 37" id="bq"/><g id="A"><use transform="matrix(0.06234567901234567,0,0,0.06234567901234567,0,0)" xlink:href="#bo"/><use transform="matrix(0.06234567901234567,0,0,0.06234567901234567,16.147530864197527,0)" xlink:href="#ax"/><use transform="matrix(0.06234567901234567,0,0,0.06234567901234567,28.61666666666666,0)" xlink:href="#bp"/><use transform="matrix(0.06234567901234567,0,0,0.06234567901234567,41.08580246913579,0)" xlink:href="#bq"/><use transform="matrix(0.06234567901234567,0,0,0.06234567901234567,53.554938271604925,0)" xlink:href="#ax"/><use transform="matrix(0.06234567901234567,0,0,0.06234567901234567,66.02407407407406,0)" xlink:href="#aI"/><use transform="matrix(0.06234567901234567,0,0,0.06234567901234567,77.24629629629628,0)" xlink:href="#aw"/></g><g id="B"><use transform="matrix(0.06234567901234567,0,0,0.06234567901234567,0,0)" xlink:href="#aP"/><use transform="matrix(0.06234567901234567,0,0,0.06234567901234567,16.147530864197527,0)" xlink:href="#bq"/><use transform="matrix(0.06234567901234567,0,0,0.06234567901234567,28.61666666666666,0)" xlink:href="#ay"/><use transform="matrix(0.06234567901234567,0,0,0.06234567901234567,36.035802469135795,0)" xlink:href="#ay"/><use transform="matrix(0.06234567901234567,0,0,0.06234567901234567,43.45493827160493,0)" xlink:href="#ax"/><use transform="matrix(0.06234567901234567,0,0,0.06234567901234567,55.92407407407406,0)" xlink:href="#az"/><use transform="matrix(0.06234567901234567,0,0,0.06234567901234567,68.3932098765432,0)" xlink:href="#aw"/></g><g id="C"><use transform="matrix(0.06234567901234567,0,0,0.06234567901234567,0,0)" xlink:href="#aH"/><use transform="matrix(0.06234567901234567,0,0,0.06234567901234567,16.147530864197527,0)" xlink:href="#aI"/><use transform="matrix(0.06234567901234567,0,0,0.06234567901234567,27.36975308641975,0)" xlink:href="#ax"/><use transform="matrix(0.06234567901234567,0,0,0.06234567901234567,39.83888888888888,0)" xlink:href="#ay"/><use transform="matrix(0.06234567901234567,0,0,0.06234567901234567,47.25802469135802,0)" xlink:href="#aI"/></g><path fill="#3a414a" d="M30 0v-248h33v221h125V0H30" id="br"/><g id="D"><use transform="matrix(0.06234567901234567,0,0,0.06234567901234567,0,0)" xlink:href="#br"/><use transform="matrix(0.06234567901234567,0,0,0.06234567901234567,12.469135802469133,0)" xlink:href="#aB"/><use transform="matrix(0.06234567901234567,0,0,0.06234567901234567,17.39444444444444,0)" xlink:href="#aI"/><use transform="matrix(0.06234567901234567,0,0,0.06234567901234567,28.61666666666666,0)" xlink:href="#aw"/></g><g id="E"><use transform="matrix(0.06234567901234567,0,0,0.06234567901234567,0,0)" xlink:href="#aO"/><use transform="matrix(0.06234567901234567,0,0,0.06234567901234567,12.469135802469133,0)" xlink:href="#aD"/></g><path fill="#3a414a" d="M179-190L93 31C79 59 56 82 12 73V49c39 6 53-20 64-50L1-190h34L92-34l54-156h33" id="bs"/><g id="F"><use transform="matrix(0.06234567901234567,0,0,0.06234567901234567,0,0)" xlink:href="#aE"/><use transform="matrix(0.06234567901234567,0,0,0.06234567901234567,16.147530864197527,0)" xlink:href="#aB"/><use transform="matrix(0.06234567901234567,0,0,0.06234567901234567,21.072839506172834,0)" xlink:href="#aI"/><use transform="matrix(0.06234567901234567,0,0,0.06234567901234567,32.295061728395055,0)" xlink:href="#bn"/><use transform="matrix(0.06234567901234567,0,0,0.06234567901234567,44.76419753086419,0)" xlink:href="#av"/><use transform="matrix(0.06234567901234567,0,0,0.06234567901234567,49.689506172839494,0)" xlink:href="#aA"/><use transform="matrix(0.06234567901234567,0,0,0.06234567901234567,62.158641975308626,0)" xlink:href="#bs"/></g><g id="G"><use transform="matrix(0.06234567901234567,0,0,0.06234567901234567,0,0)" xlink:href="#au"/><use transform="matrix(0.06234567901234567,0,0,0.06234567901234567,14.96296296296296,0)" xlink:href="#aK"/><use transform="matrix(0.06234567901234567,0,0,0.06234567901234567,27.432098765432094,0)" xlink:href="#aK"/></g><g id="H"><use transform="matrix(0.06234567901234567,0,0,0.06234567901234567,0,0)" xlink:href="#aH"/><use transform="matrix(0.06234567901234567,0,0,0.06234567901234567,16.147530864197527,0)" xlink:href="#aI"/><use transform="matrix(0.06234567901234567,0,0,0.06234567901234567,27.36975308641975,0)" xlink:href="#ax"/><use transform="matrix(0.06234567901234567,0,0,0.06234567901234567,39.83888888888888,0)" xlink:href="#ay"/></g><g id="I"><use transform="matrix(0.06234567901234567,0,0,0.06234567901234567,0,0)" xlink:href="#aE"/><use transform="matrix(0.06234567901234567,0,0,0.06234567901234567,16.147530864197527,0)" xlink:href="#ax"/><use transform="matrix(0.06234567901234567,0,0,0.06234567901234567,28.61666666666666,0)" xlink:href="#aw"/><use transform="matrix(0.06234567901234567,0,0,0.06234567901234567,34.85123456790123,0)" xlink:href="#aA"/><use transform="matrix(0.06234567901234567,0,0,0.06234567901234567,47.32037037037036,0)" xlink:href="#aB"/><use transform="matrix(0.06234567901234567,0,0,0.06234567901234567,52.24567901234567,0)" xlink:href="#av"/><use transform="matrix(0.06234567901234567,0,0,0.06234567901234567,57.170987654320975,0)" xlink:href="#aI"/></g><path fill="#3a414a" d="M96-169c-40 0-48 33-48 73s9 75 48 75c24 0 41-14 43-38l32 2c-6 37-31 61-74 61-59 0-76-41-82-99-10-93 101-131 147-64 4 7 5 14 7 22l-32 3c-4-21-16-35-41-35" id="bt"/><path fill="#3a414a" d="M143 0L79-87 56-68V0H24v-261h32v163l83-92h37l-77 82L181 0h-38" id="bu"/><g id="J"><use transform="matrix(0.06234567901234567,0,0,0.06234567901234567,0,0)" xlink:href="#aP"/><use transform="matrix(0.06234567901234567,0,0,0.06234567901234567,16.147530864197527,0)" xlink:href="#bl"/><use transform="matrix(0.06234567901234567,0,0,0.06234567901234567,28.61666666666666,0)" xlink:href="#ax"/><use transform="matrix(0.06234567901234567,0,0,0.06234567901234567,41.08580246913579,0)" xlink:href="#bt"/><use transform="matrix(0.06234567901234567,0,0,0.06234567901234567,52.308024691358014,0)" xlink:href="#bu"/></g><g id="K"><use transform="matrix(0.06234567901234567,0,0,0.06234567901234567,0,0)" xlink:href="#aM"/><use transform="matrix(0.06234567901234567,0,0,0.06234567901234567,13.279629629629627,0)" xlink:href="#aA"/><use transform="matrix(0.06234567901234567,0,0,0.06234567901234567,25.748765432098757,0)" xlink:href="#av"/><use transform="matrix(0.06234567901234567,0,0,0.06234567901234567,30.674074074074063,0)" xlink:href="#aB"/><use transform="matrix(0.06234567901234567,0,0,0.06234567901234567,35.59938271604937,0)" xlink:href="#aK"/><use transform="matrix(0.06234567901234567,0,0,0.06234567901234567,48.0685185185185,0)" xlink:href="#aB"/><use transform="matrix(0.06234567901234567,0,0,0.06234567901234567,52.99382716049381,0)" xlink:href="#av"/><use transform="matrix(0.06234567901234567,0,0,0.06234567901234567,57.919135802469114,0)" xlink:href="#aB"/><use transform="matrix(0.06234567901234567,0,0,0.06234567901234567,62.84444444444442,0)" xlink:href="#aw"/><use transform="matrix(0.06234567901234567,0,0,0.06234567901234567,69.07901234567899,0)" xlink:href="#bs"/></g><g id="L"><use transform="matrix(0.06234567901234567,0,0,0.06234567901234567,0,0)" xlink:href="#az"/><use transform="matrix(0.06234567901234567,0,0,0.06234567901234567,12.469135802469133,0)" xlink:href="#ax"/><use transform="matrix(0.06234567901234567,0,0,0.06234567901234567,24.938271604938265,0)" xlink:href="#aG"/></g><g id="M"><use transform="matrix(0.06234567901234567,0,0,0.06234567901234567,0,0)" xlink:href="#aw"/><use transform="matrix(0.06234567901234567,0,0,0.06234567901234567,6.234567901234566,0)" xlink:href="#aO"/></g><path fill="#3a414a" d="M160-131c35 5 61 23 61 61C221 17 115-2 30 0v-248c76 3 177-17 177 60 0 33-19 50-47 57zm-97-11c50-1 110 9 110-42 0-47-63-36-110-37v79zm0 115c55-2 124 14 124-45 0-56-70-42-124-44v89" id="bv"/><g id="N"><use transform="matrix(0.06234567901234567,0,0,0.06234567901234567,0,0)" xlink:href="#aE"/><use transform="matrix(0.06234567901234567,0,0,0.06234567901234567,16.147530864197527,0)" xlink:href="#bv"/></g><path fill="#3a414a" d="M63-220v92h138v28H63V0H30v-248h175v28H63" id="bw"/><g id="O"><use transform="matrix(0.06234567901234567,0,0,0.06234567901234567,0,0)" xlink:href="#bw"/><use transform="matrix(0.06234567901234567,0,0,0.06234567901234567,13.653703703703702,0)" xlink:href="#aA"/><use transform="matrix(0.06234567901234567,0,0,0.06234567901234567,26.122839506172834,0)" xlink:href="#aB"/><use transform="matrix(0.06234567901234567,0,0,0.06234567901234567,31.048148148148144,0)" xlink:href="#av"/><use transform="matrix(0.06234567901234567,0,0,0.06234567901234567,35.97345679012345,0)" xlink:href="#ax"/><use transform="matrix(0.06234567901234567,0,0,0.06234567901234567,48.44259259259258,0)" xlink:href="#aK"/></g><g id="P"><use transform="matrix(0.06234567901234567,0,0,0.06234567901234567,0,0)" xlink:href="#au"/><use transform="matrix(0.06234567901234567,0,0,0.06234567901234567,14.96296296296296,0)" xlink:href="#aK"/><use transform="matrix(0.06234567901234567,0,0,0.06234567901234567,27.432098765432094,0)" xlink:href="#aK"/><use transform="matrix(0.06234567901234567,0,0,0.06234567901234567,39.90123456790123,0)" xlink:href="#aB"/><use transform="matrix(0.06234567901234567,0,0,0.06234567901234567,44.82654320987653,0)" xlink:href="#aw"/><use transform="matrix(0.06234567901234567,0,0,0.06234567901234567,51.0611111111111,0)" xlink:href="#aB"/><use transform="matrix(0.06234567901234567,0,0,0.06234567901234567,55.98641975308641,0)" xlink:href="#aO"/><use transform="matrix(0.06234567901234567,0,0,0.06234567901234567,68.45555555555555,0)" xlink:href="#az"/></g><g id="Q"><use transform="matrix(0.06234567901234567,0,0,0.06234567901234567,0,0)" xlink:href="#aP"/><use transform="matrix(0.06234567901234567,0,0,0.06234567901234567,16.147530864197527,0)" xlink:href="#aO"/><use transform="matrix(0.06234567901234567,0,0,0.06234567901234567,28.61666666666666,0)" xlink:href="#az"/><use transform="matrix(0.06234567901234567,0,0,0.06234567901234567,41.08580246913579,0)" xlink:href="#aD"/><use transform="matrix(0.06234567901234567,0,0,0.06234567901234567,47.320370370370355,0)" xlink:href="#aB"/><use transform="matrix(0.06234567901234567,0,0,0.06234567901234567,52.24567901234566,0)" xlink:href="#ay"/><use transform="matrix(0.06234567901234567,0,0,0.06234567901234567,59.6648148148148,0)" xlink:href="#aQ"/></g><g id="R"><use transform="matrix(0.06234567901234567,0,0,0.06234567901234567,0,0)" xlink:href="#aP"/><use transform="matrix(0.06234567901234567,0,0,0.06234567901234567,16.147530864197527,0)" xlink:href="#aO"/><use transform="matrix(0.06234567901234567,0,0,0.06234567901234567,28.61666666666666,0)" xlink:href="#az"/><use transform="matrix(0.06234567901234567,0,0,0.06234567901234567,41.08580246913579,0)" xlink:href="#aD"/><use transform="matrix(0.06234567901234567,0,0,0.06234567901234567,47.320370370370355,0)" xlink:href="#aB"/><use transform="matrix(0.06234567901234567,0,0,0.06234567901234567,52.24567901234566,0)" xlink:href="#ay"/><use transform="matrix(0.06234567901234567,0,0,0.06234567901234567,59.6648148148148,0)" xlink:href="#aQ"/><use transform="matrix(0.06234567901234567,0,0,0.06234567901234567,78.30617283950615,0)" xlink:href="#aA"/><use transform="matrix(0.06234567901234567,0,0,0.06234567901234567,90.77530864197527,0)" xlink:href="#aw"/><use transform="matrix(0.06234567901234567,0,0,0.06234567901234567,97.00987654320984,0)" xlink:href="#aB"/><use transform="matrix(0.06234567901234567,0,0,0.06234567901234567,101.93518518518515,0)" xlink:href="#aO"/><use transform="matrix(0.06234567901234567,0,0,0.06234567901234567,114.40432098765427,0)" xlink:href="#az"/></g><g id="S"><use transform="matrix(0.06234567901234567,0,0,0.06234567901234567,0,0)" xlink:href="#aP"/><use transform="matrix(0.06234567901234567,0,0,0.06234567901234567,16.147530864197527,0)" xlink:href="#aO"/><use transform="matrix(0.06234567901234567,0,0,0.06234567901234567,28.61666666666666,0)" xlink:href="#az"/><use transform="matrix(0.06234567901234567,0,0,0.06234567901234567,41.08580246913579,0)" xlink:href="#aD"/><use transform="matrix(0.06234567901234567,0,0,0.06234567901234567,47.320370370370355,0)" xlink:href="#aB"/><use transform="matrix(0.06234567901234567,0,0,0.06234567901234567,52.24567901234566,0)" xlink:href="#ay"/><use transform="matrix(0.06234567901234567,0,0,0.06234567901234567,59.6648148148148,0)" xlink:href="#aQ"/><use transform="matrix(0.06234567901234567,0,0,0.06234567901234567,78.30617283950615,0)" xlink:href="#aA"/><use transform="matrix(0.06234567901234567,0,0,0.06234567901234567,90.77530864197527,0)" xlink:href="#aw"/><use transform="matrix(0.06234567901234567,0,0,0.06234567901234567,97.00987654320984,0)" xlink:href="#aB"/><use transform="matrix(0.06234567901234567,0,0,0.06234567901234567,101.93518518518515,0)" xlink:href="#aO"/><use transform="matrix(0.06234567901234567,0,0,0.06234567901234567,114.40432098765427,0)" xlink:href="#az"/></g><g id="T"><use transform="matrix(0.06234567901234567,0,0,0.06234567901234567,0,0)" xlink:href="#au"/><use transform="matrix(0.06234567901234567,0,0,0.06234567901234567,14.96296296296296,0)" xlink:href="#az"/><use transform="matrix(0.06234567901234567,0,0,0.06234567901234567,27.432098765432094,0)" xlink:href="#aI"/><use transform="matrix(0.06234567901234567,0,0,0.06234567901234567,38.654320987654316,0)" xlink:href="#aG"/><use transform="matrix(0.06234567901234567,0,0,0.06234567901234567,54.80185185185184,0)" xlink:href="#ax"/><use transform="matrix(0.06234567901234567,0,0,0.06234567901234567,67.27098765432098,0)" xlink:href="#ay"/></g><path fill="#333" d="M106-169C34-169 62-67 57 0H25v-261h32l-1 103c12-21 28-36 61-36 89 0 53 116 60 194h-32v-121c2-32-8-49-39-48" id="bx"/><g id="U"><use transform="matrix(0.06234567901234567,0,0,0.06234567901234567,0,0)" xlink:href="#aU"/><use transform="matrix(0.06234567901234567,0,0,0.06234567901234567,16.147530864197527,0)" xlink:href="#bx"/><use transform="matrix(0.06234567901234567,0,0,0.06234567901234567,28.61666666666666,0)" xlink:href="#bk"/><use transform="matrix(0.06234567901234567,0,0,0.06234567901234567,41.08580246913579,0)" xlink:href="#bk"/><use transform="matrix(0.06234567901234567,0,0,0.06234567901234567,53.554938271604925,0)" xlink:href="#bb"/><use transform="matrix(0.06234567901234567,0,0,0.06234567901234567,64.77716049382714,0)" xlink:href="#bd"/></g><path fill="#333" d="M232-93c-1 65-40 97-104 97C67 4 28-28 28-90v-158h33c8 89-33 224 67 224 102 0 64-133 71-224h33v155" id="by"/><path fill="#333" d="M114-163C36-179 61-72 57 0H25l-1-190h30c1 12-1 29 2 39 6-27 23-49 58-41v29" id="bz"/><g id="V"><use transform="matrix(0.06234567901234567,0,0,0.06234567901234567,0,0)" xlink:href="#by"/><use transform="matrix(0.06234567901234567,0,0,0.06234567901234567,16.147530864197527,0)" xlink:href="#bb"/><use transform="matrix(0.06234567901234567,0,0,0.06234567901234567,27.36975308641975,0)" xlink:href="#bd"/><use transform="matrix(0.06234567901234567,0,0,0.06234567901234567,39.83888888888888,0)" xlink:href="#bz"/></g><g id="W"><use transform="matrix(0.06234567901234567,0,0,0.06234567901234567,0,0)" xlink:href="#bc"/><use transform="matrix(0.06234567901234567,0,0,0.06234567901234567,6.234567901234566,0)" xlink:href="#bk"/></g><g id="X"><use transform="matrix(0.06234567901234567,0,0,0.06234567901234567,0,0)" xlink:href="#bf"/><use transform="matrix(0.06234567901234567,0,0,0.06234567901234567,16.147530864197527,0)" xlink:href="#bd"/><use transform="matrix(0.06234567901234567,0,0,0.06234567901234567,28.61666666666666,0)" xlink:href="#aV"/><use transform="matrix(0.06234567901234567,0,0,0.06234567901234567,33.541975308641966,0)" xlink:href="#bd"/><use transform="matrix(0.06234567901234567,0,0,0.06234567901234567,46.0111111111111,0)" xlink:href="#bc"/><use transform="matrix(0.06234567901234567,0,0,0.06234567901234567,52.24567901234566,0)" xlink:href="#bd"/></g><path fill="#333" d="M205 0l-28-72H64L36 0H1l101-248h38L239 0h-34zm-38-99l-47-123c-12 45-31 82-46 123h93" id="bA"/><path fill="#333" d="M108 0H70L1-190h34L89-25l56-165h34" id="bB"/><g id="Y"><use transform="matrix(0.05,0,0,0.05,0,0)" xlink:href="#bA"/><use transform="matrix(0.05,0,0,0.05,12,0)" xlink:href="#aV"/><use transform="matrix(0.05,0,0,0.05,15.949999999999998,0)" xlink:href="#bc"/><use transform="matrix(0.05,0,0,0.05,20.95,0)" xlink:href="#bd"/><use transform="matrix(0.05,0,0,0.05,30.950000000000003,0)" xlink:href="#bz"/><use transform="matrix(0.05,0,0,0.05,36.9,0)" xlink:href="#aX"/><use transform="matrix(0.05,0,0,0.05,46.9,0)" xlink:href="#bi"/><use transform="matrix(0.05,0,0,0.05,56.900000000000006,0)" xlink:href="#bc"/><use transform="matrix(0.05,0,0,0.05,61.900000000000006,0)" xlink:href="#aW"/><use transform="matrix(0.05,0,0,0.05,65.85,0)" xlink:href="#bB"/><use transform="matrix(0.05,0,0,0.05,74.85,0)" xlink:href="#bd"/></g><path fill="#333" d="M26 75v-336h71v23H56V52h41v23H26" id="bC"/><path fill="#333" d="M3 75V52h41v-290H3v-23h71V75H3" id="bD"/><g id="Z"><use transform="matrix(0.05,0,0,0.05,0,0)" xlink:href="#bC"/><use transform="matrix(0.05,0,0,0.05,5,0)" xlink:href="#aU"/><use transform="matrix(0.05,0,0,0.05,17.950000000000003,0)" xlink:href="#bk"/><use transform="matrix(0.05,0,0,0.05,27.950000000000003,0)" xlink:href="#aX"/><use transform="matrix(0.05,0,0,0.05,37.95,0)" xlink:href="#bj"/><use transform="matrix(0.05,0,0,0.05,47.95,0)" xlink:href="#aW"/><use transform="matrix(0.05,0,0,0.05,51.900000000000006,0)" xlink:href="#bc"/><use transform="matrix(0.05,0,0,0.05,56.900000000000006,0)" xlink:href="#aW"/><use transform="matrix(0.05,0,0,0.05,60.85,0)" xlink:href="#bk"/><use transform="matrix(0.05,0,0,0.05,70.85000000000001,0)" xlink:href="#aX"/><use transform="matrix(0.05,0,0,0.05,80.85000000000001,0)" xlink:href="#bD"/></g><path fill="#333" d="M30 0v-248h187v28H63v79h144v27H63v87h162V0H30" id="bE"/><g id="aa"><use transform="matrix(0.05,0,0,0.05,0,0)" xlink:href="#bC"/><use transform="matrix(0.05,0,0,0.05,5,0)" xlink:href="#bE"/><use transform="matrix(0.05,0,0,0.05,17,0)" xlink:href="#aV"/><use transform="matrix(0.05,0,0,0.05,20.95,0)" xlink:href="#bb"/><use transform="matrix(0.05,0,0,0.05,29.950000000000003,0)" xlink:href="#bd"/><use transform="matrix(0.05,0,0,0.05,39.95,0)" xlink:href="#bD"/></g><path fill="#333" d="M233-177c-1 41-23 64-60 70L243 0h-38l-65-103H63V0H30v-248c88 3 205-21 203 71zM63-129c60-2 137 13 137-47 0-61-80-42-137-45v92" id="bF"/><path fill="#333" d="M84 4C-5 8 30-112 23-190h32v120c0 31 7 50 39 49 72-2 45-101 50-169h31l1 190h-30c-1-10 1-25-2-33-11 22-28 36-60 37" id="bG"/><g id="ab"><use transform="matrix(0.06234567901234567,0,0,0.06234567901234567,0,0)" xlink:href="#bF"/><use transform="matrix(0.06234567901234567,0,0,0.06234567901234567,16.147530864197527,0)" xlink:href="#bd"/><use transform="matrix(0.06234567901234567,0,0,0.06234567901234567,28.61666666666666,0)" xlink:href="#bc"/><use transform="matrix(0.06234567901234567,0,0,0.06234567901234567,34.85123456790123,0)" xlink:href="#bG"/><use transform="matrix(0.06234567901234567,0,0,0.06234567901234567,47.32037037037036,0)" xlink:href="#bz"/><use transform="matrix(0.06234567901234567,0,0,0.06234567901234567,54.7395061728395,0)" xlink:href="#aX"/></g><path fill="#333" d="M101-234c-31-9-42 10-38 44h38v23H63V0H32v-167H5v-23h27c-7-52 17-82 69-68v24" id="bH"/><g id="ac"><use transform="matrix(0.06234567901234567,0,0,0.06234567901234567,0,0)" xlink:href="#bH"/><use transform="matrix(0.06234567901234567,0,0,0.06234567901234567,6.234567901234566,0)" xlink:href="#bG"/><use transform="matrix(0.06234567901234567,0,0,0.06234567901234567,18.7037037037037,0)" xlink:href="#aV"/><use transform="matrix(0.06234567901234567,0,0,0.06234567901234567,23.62901234567901,0)" xlink:href="#aV"/></g><g id="ad"><use transform="matrix(0.06234567901234567,0,0,0.06234567901234567,0,0)" xlink:href="#aW"/><use transform="matrix(0.06234567901234567,0,0,0.06234567901234567,4.925308641975308,0)" xlink:href="#aX"/><use transform="matrix(0.06234567901234567,0,0,0.06234567901234567,17.39444444444444,0)" xlink:href="#bH"/><use transform="matrix(0.06234567901234567,0,0,0.06234567901234567,23.629012345679005,0)" xlink:href="#bk"/><use transform="matrix(0.06234567901234567,0,0,0.06234567901234567,36.09814814814814,0)" xlink:href="#bz"/><use transform="matrix(0.06234567901234567,0,0,0.06234567901234567,43.517283950617276,0)" xlink:href="#be"/><use transform="matrix(0.06234567901234567,0,0,0.06234567901234567,62.158641975308626,0)" xlink:href="#bi"/><use transform="matrix(0.06234567901234567,0,0,0.06234567901234567,74.62777777777777,0)" xlink:href="#bc"/><use transform="matrix(0.06234567901234567,0,0,0.06234567901234567,80.86234567901234,0)" xlink:href="#aW"/><use transform="matrix(0.06234567901234567,0,0,0.06234567901234567,85.78765432098764,0)" xlink:href="#bk"/><use transform="matrix(0.06234567901234567,0,0,0.06234567901234567,98.25679012345677,0)" xlink:href="#aX"/></g><path fill="#333" d="M115-194c53 0 69 39 70 98 0 66-23 100-70 100C84 3 66-7 56-30L54 0H23l1-261h32v101c10-23 28-34 59-34zm-8 174c40 0 45-34 45-75 0-40-5-75-45-74-42 0-51 32-51 76 0 43 10 73 51 73" id="bI"/><g id="af"><use transform="matrix(0.06234567901234567,0,0,0.06234567901234567,0,0)" xlink:href="#bi"/><use transform="matrix(0.06234567901234567,0,0,0.06234567901234567,12.469135802469133,0)" xlink:href="#bI"/><use transform="matrix(0.06234567901234567,0,0,0.06234567901234567,24.938271604938265,0)" xlink:href="#bk"/><use transform="matrix(0.06234567901234567,0,0,0.06234567901234567,37.4074074074074,0)" xlink:href="#bG"/><use transform="matrix(0.06234567901234567,0,0,0.06234567901234567,49.87654320987653,0)" xlink:href="#bc"/></g><g id="ag"><use transform="matrix(0.056172839506172814,0,0,0.056172839506172814,0,0)" xlink:href="#aH"/><use transform="matrix(0.056172839506172814,0,0,0.056172839506172814,14.548765432098758,0)" xlink:href="#aI"/><use transform="matrix(0.056172839506172814,0,0,0.056172839506172814,24.659876543209865,0)" xlink:href="#ax"/><use transform="matrix(0.056172839506172814,0,0,0.056172839506172814,35.89444444444443,0)" xlink:href="#ay"/></g><g id="ah"><use transform="matrix(0.06234567901234565,0,0,0.06234567901234565,0,0)" xlink:href="#aP"/><use transform="matrix(0.06234567901234565,0,0,0.06234567901234565,16.147530864197524,0)" xlink:href="#aO"/><use transform="matrix(0.06234567901234565,0,0,0.06234567901234565,28.616666666666653,0)" xlink:href="#az"/><use transform="matrix(0.06234567901234565,0,0,0.06234567901234565,41.085802469135785,0)" xlink:href="#aD"/><use transform="matrix(0.06234567901234565,0,0,0.06234567901234565,47.32037037037035,0)" xlink:href="#aB"/><use transform="matrix(0.06234567901234565,0,0,0.06234567901234565,52.245679012345654,0)" xlink:href="#ay"/><use transform="matrix(0.06234567901234565,0,0,0.06234567901234565,59.66481481481479,0)" xlink:href="#aQ"/><use transform="matrix(0.06234567901234565,0,0,0.06234567901234565,78.30617283950613,0)" xlink:href="#aA"/><use transform="matrix(0.06234567901234565,0,0,0.06234567901234565,90.77530864197526,0)" xlink:href="#aw"/><use transform="matrix(0.06234567901234565,0,0,0.06234567901234565,97.00987654320983,0)" xlink:href="#aB"/><use transform="matrix(0.06234567901234565,0,0,0.06234567901234565,101.93518518518513,0)" xlink:href="#aO"/><use transform="matrix(0.06234567901234565,0,0,0.06234567901234565,114.40432098765426,0)" xlink:href="#az"/></g><g id="ai"><use transform="matrix(0.06234567901234565,0,0,0.06234567901234565,0,0)" xlink:href="#au"/><use transform="matrix(0.06234567901234565,0,0,0.06234567901234565,14.962962962962957,0)" xlink:href="#az"/><use transform="matrix(0.06234567901234565,0,0,0.06234567901234565,27.432098765432087,0)" xlink:href="#aI"/><use transform="matrix(0.06234567901234565,0,0,0.06234567901234565,38.6543209876543,0)" xlink:href="#aG"/><use transform="matrix(0.06234567901234565,0,0,0.06234567901234565,54.80185185185182,0)" xlink:href="#ax"/><use transform="matrix(0.06234567901234565,0,0,0.06234567901234565,67.27098765432095,0)" xlink:href="#ay"/></g><path fill="#3a414a" d="M140-251c81 0 123 46 123 126C263-53 228-8 163 1c7 30 30 48 69 40v23c-55 16-95-15-103-61C56-3 17-48 17-125c0-80 42-126 123-126zm0 227c63 0 89-41 89-101s-29-99-89-99c-61 0-89 39-89 99S79-25 140-24" id="bJ"/><g id="aj"><use transform="matrix(0.06234567901234565,0,0,0.06234567901234565,0,0)" xlink:href="#bJ"/><use transform="matrix(0.06234567901234565,0,0,0.06234567901234565,17.456790123456784,0)" xlink:href="#bq"/><use transform="matrix(0.06234567901234565,0,0,0.06234567901234565,29.925925925925917,0)" xlink:href="#ax"/><use transform="matrix(0.06234567901234565,0,0,0.06234567901234565,42.39506172839505,0)" xlink:href="#ay"/><use transform="matrix(0.06234567901234565,0,0,0.06234567901234565,49.814197530864185,0)" xlink:href="#bs"/></g><g id="ak"><use transform="matrix(0.06234567901234565,0,0,0.06234567901234565,0,0)" xlink:href="#aw"/><use transform="matrix(0.06234567901234565,0,0,0.06234567901234565,6.234567901234565,0)" xlink:href="#aO"/></g><g id="al"><use transform="matrix(0.06234567901234565,0,0,0.06234567901234565,0,0)" xlink:href="#aK"/><use transform="matrix(0.06234567901234565,0,0,0.06234567901234565,12.46913580246913,0)" xlink:href="#ax"/><use transform="matrix(0.06234567901234565,0,0,0.06234567901234565,24.93827160493826,0)" xlink:href="#av"/><use transform="matrix(0.06234567901234565,0,0,0.06234567901234565,29.863580246913568,0)" xlink:href="#ax"/><use transform="matrix(0.06234567901234565,0,0,0.06234567901234565,42.3327160493827,0)" xlink:href="#aw"/><use transform="matrix(0.06234567901234565,0,0,0.06234567901234565,48.56728395061726,0)" xlink:href="#ax"/></g><g id="am"><use transform="matrix(0.06234567901234567,0,0,0.06234567901234567,0,0)" xlink:href="#aU"/><use transform="matrix(0.06234567901234567,0,0,0.06234567901234567,16.147530864197527,0)" xlink:href="#bx"/><use transform="matrix(0.06234567901234567,0,0,0.06234567901234567,28.61666666666666,0)" xlink:href="#bk"/><use transform="matrix(0.06234567901234567,0,0,0.06234567901234567,41.08580246913579,0)" xlink:href="#bk"/><use transform="matrix(0.06234567901234567,0,0,0.06234567901234567,53.554938271604925,0)" xlink:href="#bb"/><use transform="matrix(0.06234567901234567,0,0,0.06234567901234567,64.77716049382714,0)" xlink:href="#bd"/></g><g id="an"><use transform="matrix(0.056172839506172814,0,0,0.056172839506172814,0,0)" xlink:href="#aH"/><use transform="matrix(0.056172839506172814,0,0,0.056172839506172814,14.548765432098758,0)" xlink:href="#aI"/><use transform="matrix(0.056172839506172814,0,0,0.056172839506172814,24.659876543209865,0)" xlink:href="#ax"/><use transform="matrix(0.056172839506172814,0,0,0.056172839506172814,35.89444444444443,0)" xlink:href="#ay"/></g><g id="ao"><use transform="matrix(0.06234567901234567,0,0,0.06234567901234567,0,0)" xlink:href="#bE"/><use transform="matrix(0.06234567901234567,0,0,0.06234567901234567,14.96296296296296,0)" xlink:href="#bj"/><use transform="matrix(0.06234567901234567,0,0,0.06234567901234567,27.432098765432094,0)" xlink:href="#aW"/><use transform="matrix(0.06234567901234567,0,0,0.06234567901234567,32.3574074074074,0)" xlink:href="#bc"/></g><g id="ap"><use transform="matrix(0.06234567901234567,0,0,0.06234567901234567,0,0)" xlink:href="#aJ"/><use transform="matrix(0.06234567901234567,0,0,0.06234567901234567,14.96296296296296,0)" xlink:href="#aK"/><use transform="matrix(0.06234567901234567,0,0,0.06234567901234567,27.432098765432094,0)" xlink:href="#aB"/><use transform="matrix(0.06234567901234567,0,0,0.06234567901234567,32.3574074074074,0)" xlink:href="#aw"/></g><g id="aq"><use transform="matrix(0.06234567901234567,0,0,0.06234567901234567,0,0)" xlink:href="#aB"/><use transform="matrix(0.06234567901234567,0,0,0.06234567901234567,4.925308641975308,0)" xlink:href="#az"/><use transform="matrix(0.06234567901234567,0,0,0.06234567901234567,17.39444444444444,0)" xlink:href="#aD"/><use transform="matrix(0.06234567901234567,0,0,0.06234567901234567,23.629012345679005,0)" xlink:href="#aO"/></g><path fill="#3a414a" d="M185-189c-5-48-123-54-124 2 14 75 158 14 163 119 3 78-121 87-175 55-17-10-28-26-33-46l33-7c5 56 141 63 141-1 0-78-155-14-162-118-5-82 145-84 179-34 5 7 8 16 11 25" id="bK"/><g id="ar"><use transform="matrix(0.06234567901234567,0,0,0.06234567901234567,0,0)" xlink:href="#bK"/><use transform="matrix(0.06234567901234567,0,0,0.06234567901234567,14.96296296296296,0)" xlink:href="#aA"/><use transform="matrix(0.06234567901234567,0,0,0.06234567901234567,27.432098765432094,0)" xlink:href="#aC"/><use transform="matrix(0.06234567901234567,0,0,0.06234567901234567,38.654320987654316,0)" xlink:href="#ax"/></g><g id="as"><use transform="matrix(0.056172839506172814,0,0,0.056172839506172814,0,0)" xlink:href="#aH"/><use transform="matrix(0.056172839506172814,0,0,0.056172839506172814,14.548765432098758,0)" xlink:href="#aI"/><use transform="matrix(0.056172839506172814,0,0,0.056172839506172814,24.659876543209865,0)" xlink:href="#ax"/><use transform="matrix(0.056172839506172814,0,0,0.056172839506172814,35.89444444444443,0)" xlink:href="#ay"/></g><g id="at"><use transform="matrix(0.06234567901234567,0,0,0.06234567901234567,0,0)" xlink:href="#aL"/><use transform="matrix(0.06234567901234567,0,0,0.06234567901234567,6.234567901234566,0)" xlink:href="#az"/><use transform="matrix(0.06234567901234567,0,0,0.06234567901234567,18.7037037037037,0)" xlink:href="#aD"/><use transform="matrix(0.06234567901234567,0,0,0.06234567901234567,24.938271604938265,0)" xlink:href="#aO"/></g></defs></g></svg>