<svg xmlns="http://www.w3.org/2000/svg" xmlns:xlink="http://www.w3.org/1999/xlink" xmlns:lucid="lucid" width="1238" height="871"><g transform="translate(-936 440)" lucid:page-tab-id="0_0"><path d="M1655.04-244.35l.06 10.12m.05 10.13l.1 20.24m.07 10.12l.1 20.25m.06 10.13l.1 20.24m.07 10.13l.1 20.24m.06 10.12l.12 20.25m.06 10.13l.1 20.24m.06 10.13l.1 20.24m.07 10.12l.12 20.25m.05 10.13l.1 20.24m.07 10.13l.1 20.24m.06 10.12l.1 20.25m.07 10.13l.1 20.24m.06 10.13l.1 20.24m.07 10.12l.1 20.25m.06 10.13l.1 20.24m.07 10.13l.1 20.24m.06 10.12l.1 20.25m.06 10.13l.1 20.24m.07 10.13l.1 20.24m.06 10.12l.1 20.25m.05 10.13l.12 20.24m.05 10.13l.1 20.24m.07 10.12l.1 20.25m.05 10.13l.1 20.24m.07 10.13l.1 20.24m.06 10.12l.1 20.25m.07 10.13l.1 20.24m.06 10.13l.12 20.24m.06 10.12l.1 20.25m.06 10.13l.06 10.12" stroke="#333" fill="none"/><path d="M1655.54-244.34h-1v-.5h1z" stroke="#333" stroke-width=".05" fill="#333"/><path d="M1660 666.64v.5M2018.25-244.35v10.12m0 10.13v20.24m0 10.12v20.25m0 10.13v20.24m0 10.13v20.24m0 10.12v20.25m0 10.13v20.24m0 10.13v20.24m0 10.12V8.7m0 10.13v20.24m0 10.13v20.24m0 10.12V99.8m0 10.13v20.24m0 10.13v20.24m0 10.12v20.25m0 10.13v20.24m0 10.13v20.24m0 10.12V282m0 10.13v20.24m0 10.13v20.24m0 10.12v20.25m0 10.13v20.24m0 10.13v20.24m0 10.12v20.25m0 10.13v20.24m0 10.13v20.24m0 10.12v20.25m0 10.13v20.24m0 10.13v20.24m0 10.12v20.25m0 10.13v10.12" stroke="#333" fill="none"/><path d="M2018.75-244.34h-1v-.5h1z" stroke="#333" stroke-width=".05" fill="#333"/><path d="M2018.25 666.64v.5" stroke="#333" fill="none"/><path d="M1560-364.85a8 8 0 0 1 8-8h174.08a8 8 0 0 1 8 8v112a8 8 0 0 1-8 8H1568a8 8 0 0 1-8-8z" stroke="#000" stroke-opacity="0" fill="#6db1ff"/><use xlink:href="#a" transform="matrix(1,0,0,1,1568.0000000000002,-364.8477855701626) translate(17.28395061728395 60.44444444444444)"/><use xlink:href="#b" transform="matrix(1,0,0,1,1568.0000000000002,-364.8477855701626) translate(83.7037037037037 60.44444444444444)"/><path d="M1923.2-364.85a8 8 0 0 1 8-8h174.1a8 8 0 0 1 8 8v112a8 8 0 0 1-8 8h-174.1a8 8 0 0 1-8-8z" stroke="#000" stroke-opacity="0" fill="#6db1ff"/><use xlink:href="#c" transform="matrix(1,0,0,1,1931.2126112337344,-364.8477855701626) translate(29.537037037037045 60.44444444444444)"/><use xlink:href="#d" transform="matrix(1,0,0,1,1931.2126112337344,-364.8477855701626) translate(114.66049382716048 60.44444444444444)"/><path d="M1319.75-360.25c0 10.9-8.84 19.75-19.75 19.75-10.9 0-19.75-8.84-19.75-19.75 0-10.9 8.84-19.75 19.75-19.75 10.9 0 19.75 8.84 19.75 19.75z" stroke="#333" fill="#fff"/><path d="M1300-340.5v47.3a27.6 27.6 0 0 0 4.28 14.76L1340-222m-40-63.2l-40 63.2m0-98.75h80" stroke="#333" fill="none"/><path d="M1260-372a8 8 0 0 1 8-8h64a8 8 0 0 1 8 8v164a8 8 0 0 1-8 8h-64a8 8 0 0 1-8-8z" fill="none"/><use xlink:href="#e" transform="matrix(1,0,0,1,1180,-222) translate(87.34567901234567 17.77777777777778)"/><path d="M1299.5-300.57v10.02m0 10.03v20.04m0 10.03v20.04m0 10v20.06m0 10.02v20.05m0 10.02v20.05m0 10.02v20.05m0 10.02v20.04m0 10.02V-50m0 10.03v20.04m0 10.03v20.04m0 10.03V40.2m0 10.03v20.05m0 10.02v20.05m0 10.02v20.05m0 10.02v20.05m0 10v20.06m0 10.02v20.04m0 10.03v20.04m0 10.02v20.04m0 10.03v20.03m0 10.03v20.04m0 10.02v20.05m0 10.02v20.04m0 10.02v20.05m0 10.03v20.05m0 10.02v20.05m0 10.02v20.04m0 10.04v20.04m0 10.03v20.05m0 10.02v20.05m0 10.02v20.05m0 10v10.04M1299.5 661.62v.52" stroke="#3a414a" fill="none"/><path d="M1371.07-132.28H1300v-1h71.07zm247.08 0h-55.18v-1h55.18zM1300-132.28h-.5v-1h.5z" stroke="#3a414a" stroke-width=".05" fill="#3a414a"/><path d="M1632.92-132.78l-14.27 4.64v-9.27z" fill="#3a414a"/><path d="M1634.54-132.78l-16.4 5.33v-10.65zm-15.4 3.95l12.16-3.95-12.15-3.94z" stroke="#3a414a" stroke-width=".05" fill="#3a414a"/><use xlink:href="#f" transform="matrix(1,0,0,1,1371.068813144196,-146.2422534207446) translate(0.0049999999999954525 17.955555555555552)"/><use xlink:href="#g" transform="matrix(1,0,0,1,1371.068813144196,-146.2422534207446) translate(89.72043209876541 17.955555555555552)"/><use xlink:href="#h" transform="matrix(1,0,0,1,1371.068813144196,-146.2422534207446) translate(144.5846296296296 17.955555555555552)"/><path d="M1742.55-85.3h-62.05v-1h62.05zm240.57 0h-46.17v-1h46.16zM1680.5-85.3h-.5v-1h.5z" stroke="#3a414a" stroke-width=".05" fill="#3a414a"/><path d="M1997.88-85.8l-14.27 4.64.02-9.27z" fill="#3a414a"/><path d="M1999.5-85.8l-16.38 5.33V-91.1zm-15.38 3.95l12.14-3.94-12.14-3.94z" stroke="#3a414a" stroke-width=".05" fill="#3a414a"/><use xlink:href="#i" transform="matrix(1,0,0,1,1742.5530930363598,-99.25862451685472) translate(0.0049999999999954525 17.955555555555552)"/><use xlink:href="#j" transform="matrix(1,0,0,1,1742.5530930363598,-99.25862451685472) translate(67.27598765432097 17.955555555555552)"/><use xlink:href="#g" transform="matrix(1,0,0,1,1742.5530930363598,-99.25862451685472) translate(92.21425925925924 17.955555555555552)"/><use xlink:href="#h" transform="matrix(1,0,0,1,1742.5530930363598,-99.25862451685472) translate(147.07845679012343 17.955555555555552)"/><path d="M1999.5 14.7h-5.05v-1h5.05zm-10.1 0h-10.1v-1h10.1zm-15.16 0h-10.1v-1h10.1zm-15.15 0h-10.12v-1h10.1zm-15.17 0h-10.1v-1h10.1zm-15.16 0h-10.1v-1h10.1zm-158.5 0h-3.16v-1h3.17zm-8.2 0h-10.12v-1h10.1zm-15.17 0h-10.1v-1h10.1zm-15.15 0h-10.1v-1h10.1zm-15.16 0h-10.1v-1h10.1zm-15.16 0h-5.06v-1h5.06zm212.18 0h-3.9v-1h3.9zM2000 14.7h-.5v-1h.5z" stroke="#3a414a" stroke-width=".05" fill="#3a414a"/><path d="M1695.88 18.84l-14.26-4.63 14.26-4.63z" fill="#3a414a"/><path d="M1696.38 19.53L1680 14.2l16.38-5.3zm-13.14-5.32l12.14 3.96v-7.9z" stroke="#3a414a" stroke-width=".05" fill="#3a414a"/><use xlink:href="#i" transform="matrix(1,0,0,1,1770.2663580246913,0.7413754831453367) translate(0.0049999999999954525 17.955555555555552)"/><use xlink:href="#k" transform="matrix(1,0,0,1,1770.2663580246913,0.7413754831453367) translate(67.27598765432097 17.955555555555552)"/><path d="M1634.04 57.8H1629v-1h5.04zm-10.1 0h-10.1v-1h10.1zm-15.15 0h-10.1v-1h10.1zm-15.16 0h-10.1v-1h10.1zm-15.15 0h-10.1v-1h10.1zm-206.15 0h-.9l-.02-1h.92zm-5.97 0h-10.1v-1h10.1zm-15.15 0h-10.1v-1h10.1zm-15.15 0h-10.1v-1h10.1zm-15.15 0h-5.05v-1h5.05zm242.4 0h-1.64v-1h1.64z" stroke="#3a414a" stroke-width=".05" fill="#3a414a"/><path d="M1634.54 57.8h-.5v-1h.5z" fill="#3a414a"/><path d="M1634.56 57.82h-.56v-1.05h.56zm-.5-1v.95h.45v-.95z" stroke="#3a414a" stroke-width=".05" fill="#3a414a"/><path d="M1315.38 61.93l-14.26-4.64 14.26-4.64z" fill="#3a414a"/><path d="M1315.88 62.62l-16.38-5.33 16.38-5.33zm-13.14-5.33l12.14 3.94v-7.9z" stroke="#3a414a" stroke-width=".05" fill="#3a414a"/><use xlink:href="#l" transform="matrix(1,0,0,1,1372.3469209678765,43.82462160423782) translate(0.0049999999999954525 17.955555555555552)"/><use xlink:href="#g" transform="matrix(1,0,0,1,1372.3469209678765,43.82462160423782) translate(87.16425925925923 17.955555555555552)"/><use xlink:href="#h" transform="matrix(1,0,0,1,1372.3469209678765,43.82462160423782) translate(142.0284567901234 17.955555555555552)"/><path d="M1635.04-164.85a8 8 0 0 1 8-8h24a8 8 0 0 1 8 8v444a8 8 0 0 1-8 8h-24a8 8 0 0 1-8-8zM2000-104.85a8 8 0 0 1 8-8h24a8 8 0 0 1 8 8v144a8 8 0 0 1-8 8h-24a8 8 0 0 1-8-8z" stroke="#3a414a" fill="#f2f3f5"/><path d="M1159.75-360.25c0 10.9-8.84 19.75-19.75 19.75-10.9 0-19.75-8.84-19.75-19.75 0-10.9 8.84-19.75 19.75-19.75 10.9 0 19.75 8.84 19.75 19.75z" stroke="#333" fill="#fff"/><path d="M1140-340.5v47.3a27.6 27.6 0 0 0 4.28 14.76L1180-222m-40-63.2l-40 63.2m0-98.75h80" stroke="#333" fill="none"/><path d="M1100-372a8 8 0 0 1 8-8h64a8 8 0 0 1 8 8v164a8 8 0 0 1-8 8h-64a8 8 0 0 1-8-8z" fill="none"/><use xlink:href="#m" transform="matrix(1,0,0,1,1020,-222) translate(58.98148148148148 17.77777777777778)"/><path d="M1138.17-280.88v10.1m0 10.13v20.22m0 10.1v20.23m0 10.1v20.24m0 10.1v20.23m0 10.12v20.2m0 10.12v20.22m0 10.1v20.24m0 10.1v20.23m0 10.12V2.25m0 10.1V32.6m0 10.1v20.24m0 10.1v20.23m0 10.1v20.24m0 10.1v20.22m0 10.1v20.23m0 10.12v20.22m0 10.1v20.22m0 10.12v20.22m0 10.1v20.23m0 10.1v20.23m0 10.1v20.23m0 10.12v20.22m0 10.1v20.23m0 10.1v20.24m0 10.1v20.23m0 10.1v20.24m0 10.1v20.23m0 10.1v20.24m0 10.12v20.22m0 10.1v20.24m0 10.1v10.12M1138.17 659.5v.5M1138.67-60h190.8a12 12 0 0 0 12-12v-60.28M1138.68-60h-.5M1341.47-132.26v-.52M1358.9 57.8v4.85m0 4.86v9.74m0 4.86v9.72m0 4.86v9.72m0 4.86v9.72m0 4.87v9.72m0 4.86v4.86l-.15 1.87-.44 1.83-.7 1.74-.34.53m-4.38 4.38l-.53.33-1.74.72-1.82.44-1.88.15h-4.93m-4.93 0h-9.87m-4.93 0h-9.86m-4.94 0h-9.86m-4.93 0h-9.87m-4.93 0H1268m-4.94 0h-9.87m-4.94 0h-9.86m-4.93 0h-9.87m-4.93 0h-9.86m-4.93 0H1194m-4.92 0h-9.87m-4.92 0h-9.86m-4.93 0h-4.94M1358.9 57.8v-.5" stroke="#3a414a" fill="none"/><path d="M1139.8 157.3l14.26-4.65v9.28z" stroke="#3a414a" fill="#3a414a"/><defs><path fill="#333" d="M33-154v-36h34v36H33zM33 0v-36h34V0H33" id="n"/><path fill="#333" d="M212-179c-10-28-35-45-73-45-59 0-87 40-87 99 0 60 29 101 89 101 43 0 62-24 78-52l27 14C228-24 195 4 139 4 59 4 22-46 18-125c-6-104 99-153 187-111 19 9 31 26 39 46" id="o"/><path fill="#333" d="M24 0v-261h32V0H24" id="p"/><path fill="#333" d="M24-231v-30h32v30H24zM24 0v-190h32V0H24" id="q"/><path fill="#333" d="M117-194c89-4 53 116 60 194h-32v-121c0-31-8-49-39-48C34-167 62-67 57 0H25l-1-190h30c1 10-1 24 2 32 11-22 29-35 61-36" id="r"/><path fill="#333" d="M96-169c-40 0-48 33-48 73s9 75 48 75c24 0 41-14 43-38l32 2c-6 37-31 61-74 61-59 0-76-41-82-99-10-93 101-131 147-64 4 7 5 14 7 22l-32 3c-4-21-16-35-41-35" id="s"/><g id="a"><use transform="matrix(0.06172839506172839,0,0,0.06172839506172839,0,0)" xlink:href="#n"/><use transform="matrix(0.06172839506172839,0,0,0.06172839506172839,6.172839506172839,0)" xlink:href="#o"/><use transform="matrix(0.06172839506172839,0,0,0.06172839506172839,22.160493827160494,0)" xlink:href="#p"/><use transform="matrix(0.06172839506172839,0,0,0.06172839506172839,27.037037037037038,0)" xlink:href="#q"/><use transform="matrix(0.06172839506172839,0,0,0.06172839506172839,31.913580246913586,0)" xlink:href="#r"/><use transform="matrix(0.06172839506172839,0,0,0.06172839506172839,44.25925925925926,0)" xlink:href="#q"/><use transform="matrix(0.06172839506172839,0,0,0.06172839506172839,49.135802469135804,0)" xlink:href="#s"/><path fill="#333" d="M-1.1 1.54h68.63v1.63H-1.1z"/></g><path fill="#333" d="M185-189c-5-48-123-54-124 2 14 75 158 14 163 119 3 78-121 87-175 55-17-10-28-26-33-46l33-7c5 56 141 63 141-1 0-78-155-14-162-118-5-82 145-84 179-34 5 7 8 16 11 25" id="t"/><path fill="#333" d="M179-190L93 31C79 59 56 82 12 73V49c39 6 53-20 64-50L1-190h34L92-34l54-156h33" id="u"/><path fill="#333" d="M135-143c-3-34-86-38-87 0 15 53 115 12 119 90S17 21 10-45l28-5c4 36 97 45 98 0-10-56-113-15-118-90-4-57 82-63 122-42 12 7 21 19 24 35" id="v"/><path fill="#333" d="M59-47c-2 24 18 29 38 22v24C64 9 27 4 27-40v-127H5v-23h24l9-43h21v43h35v23H59v120" id="w"/><path fill="#333" d="M100-194c63 0 86 42 84 106H49c0 40 14 67 53 68 26 1 43-12 49-29l28 8c-11 28-37 45-77 45C44 4 14-33 15-96c1-61 26-98 85-98zm52 81c6-60-76-77-97-28-3 7-6 17-6 28h103" id="x"/><path fill="#333" d="M210-169c-67 3-38 105-44 169h-31v-121c0-29-5-50-35-48C34-165 62-65 56 0H25l-1-190h30c1 10-1 24 2 32 10-44 99-50 107 0 11-21 27-35 58-36 85-2 47 119 55 194h-31v-121c0-29-5-49-35-48" id="y"/><g id="b"><use transform="matrix(0.06172839506172839,0,0,0.06172839506172839,0,0)" xlink:href="#t"/><use transform="matrix(0.06172839506172839,0,0,0.06172839506172839,14.814814814814813,0)" xlink:href="#u"/><use transform="matrix(0.06172839506172839,0,0,0.06172839506172839,25.925925925925924,0)" xlink:href="#v"/><use transform="matrix(0.06172839506172839,0,0,0.06172839506172839,37.03703703703704,0)" xlink:href="#w"/><use transform="matrix(0.06172839506172839,0,0,0.06172839506172839,43.20987654320988,0)" xlink:href="#x"/><use transform="matrix(0.06172839506172839,0,0,0.06172839506172839,55.55555555555556,0)" xlink:href="#y"/><path fill="#333" d="M-1.1 1.54H75.1v1.63H-1.1z"/></g><g id="c"><use transform="matrix(0.04938271604938272,0,0,0.04938271604938272,0,0)" xlink:href="#n"/><path fill="#333" d="M-.9 1.23h6.73v1.3H-.9z"/><use transform="matrix(0.06172839506172839,0,0,0.06172839506172839,4.938271604938272,0)" xlink:href="#t"/><use transform="matrix(0.06172839506172839,0,0,0.06172839506172839,19.753086419753085,0)" xlink:href="#u"/><use transform="matrix(0.06172839506172839,0,0,0.06172839506172839,30.864197530864196,0)" xlink:href="#v"/><use transform="matrix(0.06172839506172839,0,0,0.06172839506172839,41.9753086419753,0)" xlink:href="#w"/><use transform="matrix(0.06172839506172839,0,0,0.06172839506172839,48.148148148148145,0)" xlink:href="#x"/><use transform="matrix(0.06172839506172839,0,0,0.06172839506172839,60.49382716049382,0)" xlink:href="#y"/><path fill="#333" d="M3.83 1.54h82.4v1.63H3.84z"/></g><path fill="#333" d="M30-248c118-7 216 8 213 122C240-48 200 0 122 0H30v-248zM63-27c89 8 146-16 146-99s-60-101-146-95v194" id="z"/><path fill="#333" d="M160-131c35 5 61 23 61 61C221 17 115-2 30 0v-248c76 3 177-17 177 60 0 33-19 50-47 57zm-97-11c50-1 110 9 110-42 0-47-63-36-110-37v79zm0 115c55-2 124 14 124-45 0-56-70-42-124-44v89" id="A"/><g id="d"><use transform="matrix(0.06172839506172839,0,0,0.06172839506172839,0,0)" xlink:href="#z"/><use transform="matrix(0.06172839506172839,0,0,0.06172839506172839,15.987654320987653,0)" xlink:href="#A"/><path fill="#333" d="M-1.1 1.54h33v1.63h-33z"/></g><path fill="#3a414a" d="M30-248c118-7 216 8 213 122C240-48 200 0 122 0H30v-248zM63-27c89 8 146-16 146-99s-60-101-146-95v194" id="B"/><path fill="#3a414a" d="M100-194c62-1 85 37 85 99 1 63-27 99-86 99S16-35 15-95c0-66 28-99 85-99zM99-20c44 1 53-31 53-75 0-43-8-75-51-75s-53 32-53 75 10 74 51 75" id="C"/><path fill="#3a414a" d="M96-169c-40 0-48 33-48 73s9 75 48 75c24 0 41-14 43-38l32 2c-6 37-31 61-74 61-59 0-76-41-82-99-10-93 101-131 147-64 4 7 5 14 7 22l-32 3c-4-21-16-35-41-35" id="D"/><path fill="#3a414a" d="M59-47c-2 24 18 29 38 22v24C64 9 27 4 27-40v-127H5v-23h24l9-43h21v43h35v23H59v120" id="E"/><path fill="#3a414a" d="M114-163C36-179 61-72 57 0H25l-1-190h30c1 12-1 29 2 39 6-27 23-49 58-41v29" id="F"/><g id="e"><use transform="matrix(0.06172839506172839,0,0,0.06172839506172839,0,0)" xlink:href="#B"/><use transform="matrix(0.06172839506172839,0,0,0.06172839506172839,15.987654320987653,0)" xlink:href="#C"/><use transform="matrix(0.06172839506172839,0,0,0.06172839506172839,28.333333333333332,0)" xlink:href="#D"/><use transform="matrix(0.06172839506172839,0,0,0.06172839506172839,39.44444444444444,0)" xlink:href="#E"/><use transform="matrix(0.06172839506172839,0,0,0.06172839506172839,45.617283950617285,0)" xlink:href="#C"/><use transform="matrix(0.06172839506172839,0,0,0.06172839506172839,57.96296296296296,0)" xlink:href="#F"/></g><path fill="#3a414a" d="M233-177c-1 41-23 64-60 70L243 0h-38l-65-103H63V0H30v-248c88 3 205-21 203 71zM63-129c60-2 137 13 137-47 0-61-80-42-137-45v92" id="G"/><path fill="#3a414a" d="M100-194c63 0 86 42 84 106H49c0 40 14 67 53 68 26 1 43-12 49-29l28 8c-11 28-37 45-77 45C44 4 14-33 15-96c1-61 26-98 85-98zm52 81c6-60-76-77-97-28-3 7-6 17-6 28h103" id="H"/><path fill="#3a414a" d="M145-31C134-9 116 4 85 4 32 4 16-35 15-94c0-59 17-99 70-100 32-1 48 14 60 33 0-11-1-24 2-32h30l-1 268h-32zM93-21c41 0 51-33 51-76s-8-73-50-73c-40 0-46 35-46 75s5 74 45 74" id="I"/><path fill="#3a414a" d="M84 4C-5 8 30-112 23-190h32v120c0 31 7 50 39 49 72-2 45-101 50-169h31l1 190h-30c-1-10 1-25-2-33-11 22-28 36-60 37" id="J"/><path fill="#3a414a" d="M135-143c-3-34-86-38-87 0 15 53 115 12 119 90S17 21 10-45l28-5c4 36 97 45 98 0-10-56-113-15-118-90-4-57 82-63 122-42 12 7 21 19 24 35" id="K"/><g id="f"><use transform="matrix(0.06234567901234567,0,0,0.06234567901234567,0,0)" xlink:href="#G"/><use transform="matrix(0.06234567901234567,0,0,0.06234567901234567,16.147530864197527,0)" xlink:href="#H"/><use transform="matrix(0.06234567901234567,0,0,0.06234567901234567,28.61666666666666,0)" xlink:href="#I"/><use transform="matrix(0.06234567901234567,0,0,0.06234567901234567,41.08580246913579,0)" xlink:href="#J"/><use transform="matrix(0.06234567901234567,0,0,0.06234567901234567,53.554938271604925,0)" xlink:href="#H"/><use transform="matrix(0.06234567901234567,0,0,0.06234567901234567,66.02407407407406,0)" xlink:href="#K"/><use transform="matrix(0.06234567901234567,0,0,0.06234567901234567,77.24629629629628,0)" xlink:href="#E"/></g><path fill="#3a414a" d="M30 0v-248h33v221h125V0H30" id="L"/><path fill="#3a414a" d="M177-190C167-65 218 103 67 71c-23-6-38-20-44-43l32-5c15 47 100 32 89-28v-30C133-14 115 1 83 1 29 1 15-40 15-95c0-56 16-97 71-98 29-1 48 16 59 35 1-10 0-23 2-32h30zM94-22c36 0 50-32 50-73 0-42-14-75-50-75-39 0-46 34-46 75s6 73 46 73" id="M"/><g id="g"><use transform="matrix(0.06234567901234567,0,0,0.06234567901234567,0,0)" xlink:href="#L"/><use transform="matrix(0.06234567901234567,0,0,0.06234567901234567,12.469135802469133,0)" xlink:href="#C"/><use transform="matrix(0.06234567901234567,0,0,0.06234567901234567,24.938271604938265,0)" xlink:href="#M"/><use transform="matrix(0.06234567901234567,0,0,0.06234567901234567,37.4074074074074,0)" xlink:href="#K"/></g><path fill="#3a414a" d="M141-36C126-15 110 5 73 4 37 3 15-17 15-53c-1-64 63-63 125-63 3-35-9-54-41-54-24 1-41 7-42 31l-33-3c5-37 33-52 76-52 45 0 72 20 72 64v82c-1 20 7 32 28 27v20c-31 9-61-2-59-35zM48-53c0 20 12 33 32 33 41-3 63-29 60-74-43 2-92-5-92 41" id="N"/><g id="h"><use transform="matrix(0.06234567901234567,0,0,0.06234567901234567,0,0)" xlink:href="#B"/><use transform="matrix(0.06234567901234567,0,0,0.06234567901234567,16.147530864197527,0)" xlink:href="#N"/><use transform="matrix(0.06234567901234567,0,0,0.06234567901234567,28.61666666666666,0)" xlink:href="#E"/><use transform="matrix(0.06234567901234567,0,0,0.06234567901234567,34.85123456790123,0)" xlink:href="#N"/></g><path fill="#3a414a" d="M140-251c81 0 123 46 123 126C263-53 228-8 163 1c7 30 30 48 69 40v23c-55 16-95-15-103-61C56-3 17-48 17-125c0-80 42-126 123-126zm0 227c63 0 89-41 89-101s-29-99-89-99c-61 0-89 39-89 99S79-25 140-24" id="O"/><path fill="#3a414a" d="M179-190L93 31C79 59 56 82 12 73V49c39 6 53-20 64-50L1-190h34L92-34l54-156h33" id="P"/><g id="i"><use transform="matrix(0.06234567901234567,0,0,0.06234567901234567,0,0)" xlink:href="#O"/><use transform="matrix(0.06234567901234567,0,0,0.06234567901234567,17.456790123456788,0)" xlink:href="#J"/><use transform="matrix(0.06234567901234567,0,0,0.06234567901234567,29.92592592592592,0)" xlink:href="#H"/><use transform="matrix(0.06234567901234567,0,0,0.06234567901234567,42.39506172839505,0)" xlink:href="#F"/><use transform="matrix(0.06234567901234567,0,0,0.06234567901234567,49.814197530864185,0)" xlink:href="#P"/></g><path fill="#3a414a" d="M101-234c-31-9-42 10-38 44h38v23H63V0H32v-167H5v-23h27c-7-52 17-82 69-68v24" id="Q"/><g id="j"><use transform="matrix(0.06234567901234567,0,0,0.06234567901234567,0,0)" xlink:href="#C"/><use transform="matrix(0.06234567901234567,0,0,0.06234567901234567,12.469135802469133,0)" xlink:href="#Q"/></g><path fill="#3a414a" d="M117-194c89-4 53 116 60 194h-32v-121c0-31-8-49-39-48C34-167 62-67 57 0H25l-1-190h30c1 10-1 24 2 32 11-22 29-35 61-36" id="R"/><path fill="#3a414a" d="M206 0h-36l-40-164L89 0H53L-1-190h32L70-26l43-164h34l41 164 42-164h31" id="S"/><g id="k"><use transform="matrix(0.06234567901234567,0,0,0.06234567901234567,0,0)" xlink:href="#N"/><use transform="matrix(0.06234567901234567,0,0,0.06234567901234567,12.469135802469133,0)" xlink:href="#R"/><use transform="matrix(0.06234567901234567,0,0,0.06234567901234567,24.938271604938265,0)" xlink:href="#K"/><use transform="matrix(0.06234567901234567,0,0,0.06234567901234567,36.16049382716049,0)" xlink:href="#S"/><use transform="matrix(0.06234567901234567,0,0,0.06234567901234567,52.308024691358014,0)" xlink:href="#H"/><use transform="matrix(0.06234567901234567,0,0,0.06234567901234567,64.77716049382715,0)" xlink:href="#F"/></g><path fill="#3a414a" d="M24-231v-30h32v30H24zM24 0v-190h32V0H24" id="T"/><path fill="#3a414a" d="M108 0H70L1-190h34L89-25l56-165h34" id="U"/><g id="l"><use transform="matrix(0.06234567901234567,0,0,0.06234567901234567,0,0)" xlink:href="#G"/><use transform="matrix(0.06234567901234567,0,0,0.06234567901234567,16.147530864197527,0)" xlink:href="#H"/><use transform="matrix(0.06234567901234567,0,0,0.06234567901234567,28.61666666666666,0)" xlink:href="#D"/><use transform="matrix(0.06234567901234567,0,0,0.06234567901234567,39.83888888888888,0)" xlink:href="#H"/><use transform="matrix(0.06234567901234567,0,0,0.06234567901234567,52.308024691358014,0)" xlink:href="#T"/><use transform="matrix(0.06234567901234567,0,0,0.06234567901234567,57.23333333333332,0)" xlink:href="#U"/><use transform="matrix(0.06234567901234567,0,0,0.06234567901234567,68.45555555555553,0)" xlink:href="#H"/></g><path fill="#3a414a" d="M115-194c55 1 70 41 70 98S169 2 115 4C84 4 66-9 55-30l1 105H24l-1-265h31l2 30c10-21 28-34 59-34zm-8 174c40 0 45-34 45-75s-6-73-45-74c-42 0-51 32-51 76 0 43 10 73 51 73" id="V"/><g id="m"><use transform="matrix(0.06172839506172839,0,0,0.06172839506172839,0,0)" xlink:href="#G"/><use transform="matrix(0.06172839506172839,0,0,0.06172839506172839,15.987654320987653,0)" xlink:href="#H"/><use transform="matrix(0.06172839506172839,0,0,0.06172839506172839,28.333333333333332,0)" xlink:href="#D"/><use transform="matrix(0.06172839506172839,0,0,0.06172839506172839,39.44444444444444,0)" xlink:href="#H"/><use transform="matrix(0.06172839506172839,0,0,0.06172839506172839,51.79012345679012,0)" xlink:href="#V"/><use transform="matrix(0.06172839506172839,0,0,0.06172839506172839,64.1358024691358,0)" xlink:href="#E"/><use transform="matrix(0.06172839506172839,0,0,0.06172839506172839,70.30864197530863,0)" xlink:href="#T"/><use transform="matrix(0.06172839506172839,0,0,0.06172839506172839,75.18518518518518,0)" xlink:href="#C"/><use transform="matrix(0.06172839506172839,0,0,0.06172839506172839,87.53086419753086,0)" xlink:href="#R"/><use transform="matrix(0.06172839506172839,0,0,0.06172839506172839,99.87654320987654,0)" xlink:href="#T"/><use transform="matrix(0.06172839506172839,0,0,0.06172839506172839,104.75308641975309,0)" xlink:href="#K"/><use transform="matrix(0.06172839506172839,0,0,0.06172839506172839,115.8641975308642,0)" xlink:href="#E"/></g></defs></g></svg>