<svg xmlns="http://www.w3.org/2000/svg" xmlns:xlink="http://www.w3.org/1999/xlink" xmlns:lucid="lucid" width="2584.87" height="1321.68"><g transform="translate(2817.101697758266 1941.182293269378)" lucid:page-tab-id="0_0"><path d="M-1780-1914.68a6 6 0 0 1 6-6h348a6 6 0 0 1 6 6v95.34a6 6 0 0 1-6 6h-348a6 6 0 0 1-6-6z" stroke="#000" stroke-opacity="0" fill="#979ea8"/><use xlink:href="#a" transform="matrix(1,0,0,1,-1768,-1908.682293269378) translate(14.96296296296299 31.833333333333332)"/><use xlink:href="#b" transform="matrix(1,0,0,1,-1768,-1908.682293269378) translate(78.59259259259262 31.833333333333332)"/><use xlink:href="#c" transform="matrix(1,0,0,1,-1768,-1908.682293269378) translate(158.44444444444446 31.833333333333332)"/><use xlink:href="#d" transform="matrix(1,0,0,1,-1768,-1908.682293269378) translate(120.62962962962963 63.83333333333333)"/><path d="M-2796.6-1594a6 6 0 0 1 6-6h230.76a6 6 0 0 1 6 6v86.98a6 6 0 0 1-6 6h-230.76a6 6 0 0 1-6-6z" stroke="#000" stroke-opacity="0" fill="#cfe4ff"/><use xlink:href="#e" transform="matrix(1,0,0,1,-2784.601697758266,-1588) translate(54.75925925925927 26.020833333333332)"/><use xlink:href="#f" transform="matrix(1,0,0,1,-2784.601697758266,-1588) translate(140.6111111111111 26.020833333333332)"/><use xlink:href="#g" transform="matrix(1,0,0,1,-2784.601697758266,-1588) translate(57.722222222222236 58.02083333333333)"/><path d="M-2367.3-1594a6 6 0 0 1 6-6h230.77a6 6 0 0 1 6 6v86.98a6 6 0 0 1-6 6h-230.76a6 6 0 0 1-6-6z" stroke="#000" stroke-opacity="0" fill="#cfe4ff"/><use xlink:href="#e" transform="matrix(1,0,0,1,-2355.2913529306797,-1588) translate(54.75925925925927 26.020833333333332)"/><use xlink:href="#h" transform="matrix(1,0,0,1,-2355.2913529306797,-1588) translate(140.6111111111111 26.020833333333332)"/><use xlink:href="#i" transform="matrix(1,0,0,1,-2355.2913529306797,-1588) translate(59.94444444444446 58.02083333333333)"/><path d="M-1937.98-1594a6 6 0 0 1 6-6h230.76a6 6 0 0 1 6 6v86.98a6 6 0 0 1-6 6h-230.76a6 6 0 0 1-6-6z" stroke="#000" stroke-opacity="0" fill="#cfe4ff"/><use xlink:href="#e" transform="matrix(1,0,0,1,-1925.9810081030932,-1588) translate(54.75925925925927 26.020833333333332)"/><use xlink:href="#j" transform="matrix(1,0,0,1,-1925.9810081030932,-1588) translate(140.6111111111111 26.020833333333332)"/><use xlink:href="#k" transform="matrix(1,0,0,1,-1925.9810081030932,-1588) translate(68.09259259259261 58.02083333333333)"/><path d="M-1079.36-1593.32a6 6 0 0 1 6-6h230.76a6 6 0 0 1 6 6v87a6 6 0 0 1-6 6h-230.76a6 6 0 0 1-6-6z" stroke="#000" stroke-opacity="0" fill="#cfe4ff"/><use xlink:href="#e" transform="matrix(1,0,0,1,-1067.3603184479207,-1587.317706730622) translate(54.75925925925927 26.020833333333332)"/><use xlink:href="#l" transform="matrix(1,0,0,1,-1067.3603184479207,-1587.317706730622) translate(140.6111111111111 26.020833333333332)"/><use xlink:href="#m" transform="matrix(1,0,0,1,-1067.3603184479207,-1587.317706730622) translate(67.35185185185186 58.02083333333333)"/><path d="M-650.05-1593.32a6 6 0 0 1 6-6h230.76a6 6 0 0 1 6 6v87a6 6 0 0 1-6 6h-230.75a6 6 0 0 1-6-6z" stroke="#000" stroke-opacity="0" fill="#cfe4ff"/><use xlink:href="#e" transform="matrix(1,0,0,1,-638.0499736203343,-1587.317706730622) translate(54.75925925925927 26.020833333333332)"/><use xlink:href="#n" transform="matrix(1,0,0,1,-638.0499736203343,-1587.317706730622) translate(140.6111111111111 26.020833333333332)"/><use xlink:href="#o" transform="matrix(1,0,0,1,-638.0499736203343,-1587.317706730622) translate(44.462962962962976 58.02083333333333)"/><path d="M-1508.67-1594a6 6 0 0 1 6-6h230.76a6 6 0 0 1 6 6v86.98a6 6 0 0 1-6 6h-230.77a6 6 0 0 1-6-6z" stroke="#000" stroke-opacity="0" fill="#cfe4ff"/><use xlink:href="#e" transform="matrix(1,0,0,1,-1496.670663275507,-1588) translate(54.75925925925927 26.020833333333332)"/><use xlink:href="#p" transform="matrix(1,0,0,1,-1496.670663275507,-1588) translate(140.6111111111111 26.020833333333332)"/><use xlink:href="#q" transform="matrix(1,0,0,1,-1496.670663275507,-1588) translate(42.94444444444446 58.02083333333333)"/><path d="M-2636.6-1394a6 6 0 0 1 6-6h230.76a6 6 0 0 1 6 6v108a6 6 0 0 1-6 6h-230.76a6 6 0 0 1-6-6z" stroke="#000" stroke-opacity="0" fill="#fcfcca"/><use xlink:href="#r" transform="matrix(1,0,0,1,-2624.601697758266,-1388) translate(34.26543209876547 22.555555555555546)"/><use xlink:href="#s" transform="matrix(1,0,0,1,-2624.601697758266,-1388) translate(111.53703703703704 22.555555555555546)"/><use xlink:href="#t" transform="matrix(1,0,0,1,-2624.601697758266,-1388) translate(35.58950617283955 51.88888888888887)"/><use xlink:href="#u" transform="matrix(1,0,0,1,-2624.601697758266,-1388) translate(142.66975308641972 51.88888888888887)"/><use xlink:href="#v" transform="matrix(1,0,0,1,-2624.601697758266,-1388) translate(76.90740740740742 81.22222222222219)"/><path d="M-2675.22-1500.52V-1346a6 6 0 0 0 6 6h16.23" stroke="#3a414a" fill="none"/><path d="M-2674.72-1500.5h-1v-.52h1z" stroke="#3a414a" stroke-width=".05" fill="#3a414a"/><path d="M-2638.22-1340l-14.27 4.63v-9.27z" stroke="#3a414a" fill="#3a414a"/><path d="M-2636.6-1234a6 6 0 0 1 6-6h230.76a6 6 0 0 1 6 6v108a6 6 0 0 1-6 6h-230.76a6 6 0 0 1-6-6z" stroke="#000" stroke-opacity="0" fill="#fcfcca"/><use xlink:href="#r" transform="matrix(1,0,0,1,-2624.601697758266,-1228) translate(1.6388888888889426 37.55555555555554)"/><use xlink:href="#w" transform="matrix(1,0,0,1,-2624.601697758266,-1228) translate(78.91049382716051 37.55555555555554)"/><use xlink:href="#x" transform="matrix(1,0,0,1,-2624.601697758266,-1228) translate(119.65123456790123 37.55555555555554)"/><use xlink:href="#y" transform="matrix(1,0,0,1,-2624.601697758266,-1228) translate(38.95061728395066 66.88888888888887)"/><use xlink:href="#w" transform="matrix(1,0,0,1,-2624.601697758266,-1228) translate(66.11111111111114 66.88888888888887)"/><use xlink:href="#z" transform="matrix(1,0,0,1,-2624.601697758266,-1228) translate(106.85185185185186 66.88888888888887)"/><path d="M-2636.6-1074a6 6 0 0 1 6-6h230.76a6 6 0 0 1 6 6v108a6 6 0 0 1-6 6h-230.76a6 6 0 0 1-6-6z" stroke="#000" stroke-opacity="0" fill="#fcfcca"/><use xlink:href="#A" transform="matrix(1,0,0,1,-2624.601697758266,-1068) translate(17.493827160493893 37.55555555555554)"/><use xlink:href="#B" transform="matrix(1,0,0,1,-2624.601697758266,-1068) translate(128.64814814814815 37.55555555555554)"/><use xlink:href="#C" transform="matrix(1,0,0,1,-2624.601697758266,-1068) translate(181.13580246913574 37.55555555555554)"/><use xlink:href="#w" transform="matrix(1,0,0,1,-2624.601697758266,-1068) translate(52.530864197530896 66.88888888888887)"/><use xlink:href="#z" transform="matrix(1,0,0,1,-2624.601697758266,-1068) translate(93.27160493827162 66.88888888888887)"/><path d="M-2653-1180h-15.03a6 6 0 0 1-6-6v-153.5" stroke="#3a414a" fill="none"/><path d="M-2638.22-1180l-14.27 4.63v-9.27z" stroke="#3a414a" fill="#3a414a"/><path d="M-2674.03-1339.5v-.5" stroke="#3a414a" fill="none"/><path d="M-2636.6-1020" stroke="#000" stroke-opacity="0" fill="none"/><path d="M-2638.22-1020l-14.27 4.63v-9.26z" stroke="#000" stroke-opacity="0" fill-opacity="0"/><path d="M-2208.17-1394a6 6 0 0 1 6-6h230.76a6 6 0 0 1 6 6v108a6 6 0 0 1-6 6h-230.77a6 6 0 0 1-6-6z" stroke="#000" stroke-opacity="0" fill="#fcfcca"/><use xlink:href="#D" transform="matrix(1,0,0,1,-2196.170713555957,-1388) translate(55.92592592592595 37.55555555555554)"/><use xlink:href="#E" transform="matrix(1,0,0,1,-2196.170713555957,-1388) translate(38.339506172839535 66.88888888888887)"/><path d="M-2208.17-1234a6 6 0 0 1 6-6h230.76a6 6 0 0 1 6 6v108a6 6 0 0 1-6 6h-230.77a6 6 0 0 1-6-6z" stroke="#000" stroke-opacity="0" fill="#fcfcca"/><use xlink:href="#F" transform="matrix(1,0,0,1,-2196.170713555957,-1228) translate(8.564814814814866 37.55555555555554)"/><use xlink:href="#G" transform="matrix(1,0,0,1,-2196.170713555957,-1228) translate(89.84259259259261 37.55555555555554)"/><use xlink:href="#H" transform="matrix(1,0,0,1,-2196.170713555957,-1228) translate(38.95061728395066 66.88888888888887)"/><use xlink:href="#z" transform="matrix(1,0,0,1,-2196.170713555957,-1228) translate(106.85185185185186 66.88888888888887)"/><path d="M-2208.3-1074a6 6 0 0 1 6-6h230.76a6 6 0 0 1 6 6v108a6 6 0 0 1-6 6h-230.76a6 6 0 0 1-6-6z" stroke="#000" stroke-opacity="0" fill="#fcfcca"/><use xlink:href="#A" transform="matrix(1,0,0,1,-2196.300848879133,-1068) translate(36.947530864197574 22.555555555555546)"/><use xlink:href="#I" transform="matrix(1,0,0,1,-2196.300848879133,-1068) translate(148.10185185185182 22.555555555555546)"/><use xlink:href="#J" transform="matrix(1,0,0,1,-2196.300848879133,-1068) translate(32.8055555555556 51.88888888888887)"/><use xlink:href="#y" transform="matrix(1,0,0,1,-2196.300848879133,-1068) translate(125.08333333333331 51.88888888888887)"/><use xlink:href="#I" transform="matrix(1,0,0,1,-2196.300848879133,-1068) translate(152.2438271604938 51.88888888888887)"/><use xlink:href="#z" transform="matrix(1,0,0,1,-2196.300848879133,-1068) translate(72.90123456790126 81.22222222222219)"/><path d="M-2245.9-1500.52V-1346a6 6 0 0 0 6 6h15.35" stroke="#3a414a" fill="none"/><path d="M-2245.4-1500.5h-1v-.52h1z" stroke="#3a414a" stroke-width=".05" fill="#3a414a"/><path d="M-2209.8-1340l-14.25 4.63v-9.27z" stroke="#3a414a" fill="#3a414a"/><path d="M-2224.55-1180h-12.8a6 6 0 0 1-6-6v-153.5" stroke="#3a414a" fill="none"/><path d="M-2209.8-1180l-14.25 4.63v-9.27z" stroke="#3a414a" fill="#3a414a"/><path d="M-2243.34-1339.5v-.5M-2224.7-1020h-12.57a6 6 0 0 1-6-6v-153.5" stroke="#3a414a" fill="none"/><path d="M-2209.92-1020l-14.26 4.63v-9.26z" stroke="#3a414a" fill="#3a414a"/><path d="M-2243.27-1179.5v-.5" stroke="#3a414a" fill="none"/><path d="M-1780-1394a6 6 0 0 1 6-6h230.76a6 6 0 0 1 6 6v108a6 6 0 0 1-6 6H-1774a6 6 0 0 1-6-6z" stroke="#000" stroke-opacity="0" fill="#fcfcca"/><use xlink:href="#K" transform="matrix(1,0,0,1,-1768,-1388) translate(17.901234567901284 52.55555555555554)"/><use xlink:href="#L" transform="matrix(1,0,0,1,-1768,-1388) translate(100.60493827160495 52.55555555555554)"/><path d="M-1780-1234a6 6 0 0 1 6-6h230.76a6 6 0 0 1 6 6v108a6 6 0 0 1-6 6H-1774a6 6 0 0 1-6-6z" stroke="#000" stroke-opacity="0" fill="#fcfcca"/><use xlink:href="#K" transform="matrix(1,0,0,1,-1768,-1228) translate(35.6234567901235 52.55555555555554)"/><use xlink:href="#M" transform="matrix(1,0,0,1,-1768,-1228) translate(118.32716049382717 52.55555555555554)"/><path d="M-1780-1074a6 6 0 0 1 6-6h230.76a6 6 0 0 1 6 6v108a6 6 0 0 1-6 6H-1774a6 6 0 0 1-6-6z" stroke="#000" stroke-opacity="0" fill="#fcfcca"/><use xlink:href="#K" transform="matrix(1,0,0,1,-1768,-1068) translate(46.45370370370374 52.55555555555554)"/><use xlink:href="#N" transform="matrix(1,0,0,1,-1768,-1068) translate(129.1574074074074 52.55555555555554)"/><path d="M-1816.6-1500.52V-1346a6 6 0 0 0 6 6h14.22" stroke="#3a414a" fill="none"/><path d="M-1816.1-1500.5h-1v-.52h1z" stroke="#3a414a" stroke-width=".05" fill="#3a414a"/><path d="M-1781.62-1340l-14.26 4.63v-9.27z" stroke="#3a414a" fill="#3a414a"/><path d="M-1780-914a6 6 0 0 1 6-6h230.76a6 6 0 0 1 6 6v108a6 6 0 0 1-6 6H-1774a6 6 0 0 1-6-6z" stroke="#000" stroke-opacity="0" fill="#fcfcca"/><use xlink:href="#K" transform="matrix(1,0,0,1,-1768,-908) translate(13.182098765432144 37.55555555555554)"/><use xlink:href="#O" transform="matrix(1,0,0,1,-1768,-908) translate(95.88580246913581 37.55555555555554)"/><use xlink:href="#P" transform="matrix(1,0,0,1,-1768,-908) translate(66.79012345679016 66.88888888888887)"/><path d="M-1780-754a6 6 0 0 1 6-6h230.76a6 6 0 0 1 6 6v108a6 6 0 0 1-6 6H-1774a6 6 0 0 1-6-6z" stroke="#000" stroke-opacity="0" fill="#fcfcca"/><use xlink:href="#K" transform="matrix(1,0,0,1,-1768,-748) translate(22.04320987654326 37.55555555555554)"/><use xlink:href="#Q" transform="matrix(1,0,0,1,-1768,-748) translate(104.74691358024693 37.55555555555554)"/><use xlink:href="#R" transform="matrix(1,0,0,1,-1768,-748) translate(42.990740740740776 66.88888888888887)"/><path d="M-1796.38-1180h-12.58a6 6 0 0 1-6-6v-153.5" stroke="#3a414a" fill="none"/><path d="M-1781.62-1180l-14.26 4.63v-9.27z" stroke="#3a414a" fill="#3a414a"/><path d="M-1814.96-1339.5v-.5M-1796.38-1020h-12.5a6 6 0 0 1-6-6v-153.5" stroke="#3a414a" fill="none"/><path d="M-1781.62-1020l-14.26 4.63v-9.26z" stroke="#3a414a" fill="#3a414a"/><path d="M-1814.88-1179.5v-.5M-1796.38-860h-12.5a6 6 0 0 1-6-6v-153.5" stroke="#3a414a" fill="none"/><path d="M-1781.62-860l-14.26 4.63v-9.26z" stroke="#3a414a" fill="#3a414a"/><path d="M-1814.87-1019.5v-.5M-1796.38-700h-12.5a6 6 0 0 1-6-6v-153.5" stroke="#3a414a" fill="none"/><path d="M-1781.62-700l-14.26 4.63v-9.26z" stroke="#3a414a" fill="#3a414a"/><path d="M-1814.87-859.5v-.5" stroke="#3a414a" fill="none"/><path d="M-1351.83-1393.32a6 6 0 0 1 6-6h230.76a6 6 0 0 1 6 6v108a6 6 0 0 1-6 6h-230.76a6 6 0 0 1-6-6z" stroke="#000" stroke-opacity="0" fill="#fcfcca"/><use xlink:href="#S" transform="matrix(1,0,0,1,-1339.8292864440432,-1387.317706730622) translate(2.3179012345679553 37.55555555555554)"/><use xlink:href="#w" transform="matrix(1,0,0,1,-1339.8292864440432,-1387.317706730622) translate(122.9783950617284 37.55555555555554)"/><use xlink:href="#T" transform="matrix(1,0,0,1,-1339.8292864440432,-1387.317706730622) translate(163.7191358024691 37.55555555555554)"/><use xlink:href="#y" transform="matrix(1,0,0,1,-1339.8292864440432,-1387.317706730622) translate(38.95061728395066 66.88888888888887)"/><use xlink:href="#w" transform="matrix(1,0,0,1,-1339.8292864440432,-1387.317706730622) translate(66.11111111111114 66.88888888888887)"/><use xlink:href="#z" transform="matrix(1,0,0,1,-1339.8292864440432,-1387.317706730622) translate(106.85185185185186 66.88888888888887)"/><path d="M-1351.83-1233.32a6 6 0 0 1 6-6h230.76a6 6 0 0 1 6 6v108a6 6 0 0 1-6 6h-230.76a6 6 0 0 1-6-6z" stroke="#000" stroke-opacity="0" fill="#fcfcca"/><use xlink:href="#U" transform="matrix(1,0,0,1,-1339.8292864440432,-1227.317706730622) translate(32.160493827160536 52.55555555555554)"/><use xlink:href="#V" transform="matrix(1,0,0,1,-1339.8292864440432,-1227.317706730622) translate(99.92592592592592 52.55555555555554)"/><use xlink:href="#W" transform="matrix(1,0,0,1,-1339.8292864440432,-1227.317706730622) translate(147.45679012345676 52.55555555555554)"/><path d="M-1351.83-1073.32a6 6 0 0 1 6-6h230.76a6 6 0 0 1 6 6v108a6 6 0 0 1-6 6h-230.76a6 6 0 0 1-6-6z" stroke="#000" stroke-opacity="0" fill="#fcfcca"/><use xlink:href="#X" transform="matrix(1,0,0,1,-1339.8292864440432,-1067.317706730622) translate(2.3518518518519045 37.55555555555554)"/><use xlink:href="#w" transform="matrix(1,0,0,1,-1339.8292864440432,-1067.317706730622) translate(63.73456790123459 37.55555555555554)"/><use xlink:href="#B" transform="matrix(1,0,0,1,-1339.8292864440432,-1067.317706730622) translate(104.47530864197532 37.55555555555554)"/><use xlink:href="#Y" transform="matrix(1,0,0,1,-1339.8292864440432,-1067.317706730622) translate(156.96296296296293 37.55555555555554)"/><use xlink:href="#I" transform="matrix(1,0,0,1,-1339.8292864440432,-1067.317706730622) translate(182.6975308641975 37.55555555555554)"/><use xlink:href="#Z" transform="matrix(1,0,0,1,-1339.8292864440432,-1067.317706730622) translate(70.83024691358027 66.88888888888887)"/><path d="M-1351.83-913.32a6 6 0 0 1 6-6h230.76a6 6 0 0 1 6 6v108a6 6 0 0 1-6 6h-230.76a6 6 0 0 1-6-6z" stroke="#000" stroke-opacity="0" fill="#fcfcca"/><use xlink:href="#aa" transform="matrix(1,0,0,1,-1339.8292864440432,-907.3177067306219) translate(15.219135802469197 52.55555555555554)"/><use xlink:href="#w" transform="matrix(1,0,0,1,-1339.8292864440432,-907.3177067306219) translate(85.70061728395063 52.55555555555554)"/><use xlink:href="#Z" transform="matrix(1,0,0,1,-1339.8292864440432,-907.3177067306219) translate(126.44135802469135 52.55555555555554)"/><path d="M-1387.3-1500.52v155.2a6 6 0 0 0 6 6h13.1" stroke="#3a414a" fill="none"/><path d="M-1386.8-1500.5h-1v-.52h1z" stroke="#3a414a" stroke-width=".05" fill="#3a414a"/><path d="M-1353.45-1339.32l-14.26 4.64v-9.27z" stroke="#3a414a" fill="#3a414a"/><path d="M-1368.2-1179.32h-10.8a6 6 0 0 1-6-6v-153.5" stroke="#3a414a" fill="none"/><path d="M-1353.45-1179.32l-14.26 4.64v-9.27z" stroke="#3a414a" fill="#3a414a"/><path d="M-1385-1338.8v-.52M-1368.2-1019.32h-9.56a6 6 0 0 1-6-6v-153.5" stroke="#3a414a" fill="none"/><path d="M-1353.45-1019.32l-14.26 4.64v-9.27z" stroke="#3a414a" fill="#3a414a"/><path d="M-1383.76-1178.8v-.52M-1368.2-859.32h-9.55a6 6 0 0 1-6-6v-153.5" stroke="#3a414a" fill="none"/><path d="M-1353.45-859.32l-14.26 4.64v-9.27z" stroke="#3a414a" fill="#3a414a"/><path d="M-1383.75-1018.8v-.52" stroke="#3a414a" fill="none"/><path d="M-923.66-1394a6 6 0 0 1 6-6h230.76a6 6 0 0 1 6 6v108a6 6 0 0 1-6 6h-230.76a6 6 0 0 1-6-6z" stroke="#000" stroke-opacity="0" fill="#fcfcca"/><g><use xlink:href="#ab" transform="matrix(1,0,0,1,-911.6585728880865,-1388) translate(24.691358024691397 37.55555555555554)"/><use xlink:href="#w" transform="matrix(1,0,0,1,-911.6585728880865,-1388) translate(76.2283950617284 37.55555555555554)"/><use xlink:href="#ac" transform="matrix(1,0,0,1,-911.6585728880865,-1388) translate(116.96913580246913 37.55555555555554)"/><use xlink:href="#ad" transform="matrix(1,0,0,1,-911.6585728880865,-1388) translate(9.074074074074133 66.88888888888887)"/><use xlink:href="#ae" transform="matrix(1,0,0,1,-911.6585728880865,-1388) translate(64.68518518518522 66.88888888888887)"/><use xlink:href="#af" transform="matrix(1,0,0,1,-911.6585728880865,-1388) translate(143.3827160493827 66.88888888888887)"/></g><path d="M-957.98-1499.83V-1346a6 6 0 0 0 6 6h11.94" stroke="#3a414a" fill="none"/><path d="M-957.48-1499.82h-1v-.5h1z" stroke="#3a414a" stroke-width=".05" fill="#3a414a"/><path d="M-925.28-1340l-14.26 4.63v-9.27z" stroke="#3a414a" fill="#3a414a"/><path d="M-495.5-1393.32a6 6 0 0 1 6-6h230.77a6 6 0 0 1 6 6v108a6 6 0 0 1-6 6H-489.5a6 6 0 0 1-6-6z" stroke="#000" stroke-opacity="0" fill="#fcfcca"/><g><use xlink:href="#ag" transform="matrix(1,0,0,1,-483.4878593321297,-1387.317706730622) translate(1.4691358024691823 22.555555555555546)"/><use xlink:href="#w" transform="matrix(1,0,0,1,-483.4878593321297,-1387.317706730622) translate(95.37654320987654 22.555555555555546)"/><use xlink:href="#ah" transform="matrix(1,0,0,1,-483.4878593321297,-1387.317706730622) translate(136.11728395061726 22.555555555555546)"/><use xlink:href="#ai" transform="matrix(1,0,0,1,-483.4878593321297,-1387.317706730622) translate(190.37037037037032 22.555555555555546)"/><use xlink:href="#aj" transform="matrix(1,0,0,1,-483.4878593321297,-1387.317706730622) translate(30.08950617283955 51.88888888888887)"/><use xlink:href="#ak" transform="matrix(1,0,0,1,-483.4878593321297,-1387.317706730622) translate(81.62654320987656 51.88888888888887)"/><use xlink:href="#al" transform="matrix(1,0,0,1,-483.4878593321297,-1387.317706730622) translate(108.78703703703704 51.88888888888887)"/><use xlink:href="#I" transform="matrix(1,0,0,1,-483.4878593321297,-1387.317706730622) translate(154.95987654320984 51.88888888888887)"/><use xlink:href="#z" transform="matrix(1,0,0,1,-483.4878593321297,-1387.317706730622) translate(72.90123456790126 81.22222222222219)"/></g><path d="M-528.67-1499.83v154.5a6 6 0 0 0 6 6h10.8" stroke="#3a414a" fill="none"/><path d="M-528.17-1499.82h-1v-.5h1z" stroke="#3a414a" stroke-width=".05" fill="#3a414a"/><path d="M-497.1-1339.32l-14.27 4.64v-9.27z" stroke="#3a414a" fill="#3a414a"/><path d="M-495.5-1233.32a6 6 0 0 1 6-6h230.77a6 6 0 0 1 6 6v108a6 6 0 0 1-6 6H-489.5a6 6 0 0 1-6-6z" stroke="#000" stroke-opacity="0" fill="#fcfcca"/><g><use xlink:href="#am" transform="matrix(1,0,0,1,-483.4878593321297,-1227.317706730622) translate(33.51851851851855 37.55555555555554)"/><use xlink:href="#I" transform="matrix(1,0,0,1,-483.4878593321297,-1227.317706730622) translate(151.53086419753083 37.55555555555554)"/><use xlink:href="#Z" transform="matrix(1,0,0,1,-483.4878593321297,-1227.317706730622) translate(70.83024691358027 66.88888888888887)"/></g><path d="M-495.5-1073.32a6 6 0 0 1 6-6h230.77a6 6 0 0 1 6 6v108a6 6 0 0 1-6 6H-489.5a6 6 0 0 1-6-6z" stroke="#000" stroke-opacity="0" fill="#fcfcca"/><g><use xlink:href="#aa" transform="matrix(1,0,0,1,-483.4878593321297,-1067.317706730622) translate(15.219135802469197 52.55555555555554)"/><use xlink:href="#w" transform="matrix(1,0,0,1,-483.4878593321297,-1067.317706730622) translate(85.70061728395063 52.55555555555554)"/><use xlink:href="#Z" transform="matrix(1,0,0,1,-483.4878593321297,-1067.317706730622) translate(126.44135802469135 52.55555555555554)"/></g><path d="M-511.87-1179.32h-10a6 6 0 0 1-6-6v-153.5" stroke="#3a414a" fill="none"/><path d="M-497.1-1179.32l-14.27 4.64v-9.27z" stroke="#3a414a" fill="#3a414a"/><path d="M-527.86-1338.8v-.52M-511.87-1019.32h-8.24a6 6 0 0 1-6-6v-153.5" stroke="#3a414a" fill="none"/><path d="M-497.1-1019.32l-14.27 4.64v-9.27z" stroke="#3a414a" fill="#3a414a"/><path d="M-526.1-1178.8v-.52M-1600-1812.84v92.34" stroke="#3a414a" fill="none"/><path d="M-1599.5-1812.82h-1v-.52h1z" stroke="#3a414a" stroke-width=".05" fill="#3a414a"/><path d="M-1600-1720.5v.5M-1600.5-1720h-210.1a6 6 0 0 0-6 6v97.62M-1600.5-1720h.5" stroke="#3a414a" fill="none"/><path d="M-1816.6-1601.62l-4.64-14.26h9.27z" stroke="#3a414a" fill="#3a414a"/><path d="M-1599.5-1720h206.2a6 6 0 0 1 6 6v97.62M-1599.5-1720h-.5" stroke="#3a414a" fill="none"/><path d="M-1387.3-1601.62l-4.63-14.26h9.27z" stroke="#3a414a" fill="#3a414a"/><path d="M-1386.8-1720h422.82a6 6 0 0 1 6 6v98.3M-1386.78-1720h-.5" stroke="#3a414a" fill="none"/><path d="M-957.98-1600.94l-4.64-14.26h9.27z" stroke="#3a414a" fill="#3a414a"/><path d="M-1817.1-1720h-422.8a6 6 0 0 0-6 6v97.62M-1817.12-1720h.52" stroke="#3a414a" fill="none"/><path d="M-2245.9-1601.62l-4.65-14.26h9.27z" stroke="#3a414a" fill="#3a414a"/><path d="M-2245.08-1720h-424.14a6 6 0 0 0-6 6v97.62M-2245.1-1720h.52" stroke="#3a414a" fill="none"/><path d="M-2675.22-1601.62l-4.64-14.26h9.27z" stroke="#3a414a" fill="#3a414a"/><path d="M-957.48-1718.74h422.8a6 6 0 0 1 6 6v97.04M-957.47-1718.74h-.5" stroke="#3a414a" fill="none"/><path d="M-528.67-1600.94l-4.64-14.26h9.26z" stroke="#3a414a" fill="#3a414a"/><path d="M-2674.03-1179.5v153.5a6 6 0 0 0 6 6h15.04M-2674.03-1179.5v-.5" stroke="#3a414a" fill="none"/><path d="M-2638.22-1020l-14.27 4.63v-9.26z" stroke="#3a414a" fill="#3a414a"/><defs><path fill="#fff" d="M24-248c93 1 206-16 204 79-1 75-69 88-152 82V0H24v-248zm52 121c47 0 100 7 100-41 0-47-54-39-100-39v80" id="an"/><path fill="#fff" d="M185-48c-13 30-37 53-82 52C43 2 14-33 14-96s30-98 90-98c62 0 83 45 84 108H66c0 31 8 55 39 56 18 0 30-7 34-22zm-45-69c5-46-57-63-70-21-2 6-4 13-4 21h74" id="ao"/><path fill="#fff" d="M115-3C79 11 28 4 28-45v-112H4v-33h27l15-45h31v45h36v33H77v99c-1 23 16 31 38 25v30" id="ap"/><path fill="#fff" d="M137-138c1-29-70-34-71-4 15 46 118 7 119 86 1 83-164 76-172 9l43-7c4 19 20 25 44 25 33 8 57-30 24-41C81-84 22-81 20-136c-2-80 154-74 161-7" id="aq"/><g id="a"><use transform="matrix(0.07407407407407407,0,0,0.07407407407407407,0,0)" xlink:href="#an"/><use transform="matrix(0.07407407407407407,0,0,0.07407407407407407,17.77777777777778,0)" xlink:href="#ao"/><use transform="matrix(0.07407407407407407,0,0,0.07407407407407407,32.592592592592595,0)" xlink:href="#ap"/><use transform="matrix(0.07407407407407407,0,0,0.07407407407407407,41.40740740740741,0)" xlink:href="#aq"/></g><path fill="#fff" d="M67-125c0 53 21 87 73 88 37 1 54-22 65-47l45 17C233-25 199 4 140 4 58 4 20-42 15-125 8-235 124-281 211-232c18 10 29 29 36 50l-46 12c-8-25-30-41-62-41-52 0-71 34-72 86" id="ar"/><path fill="#fff" d="M25 0v-261h50V0H25" id="as"/><path fill="#fff" d="M25-224v-37h50v37H25zM25 0v-190h50V0H25" id="at"/><path fill="#fff" d="M135-194c87-1 58 113 63 194h-50c-7-57 23-157-34-157-59 0-34 97-39 157H25l-1-190h47c2 12-1 28 3 38 12-26 28-41 61-42" id="au"/><path fill="#fff" d="M190-63c-7 42-38 67-86 67-59 0-84-38-90-98-12-110 154-137 174-36l-49 2c-2-19-15-32-35-32-30 0-35 28-38 64-6 74 65 87 74 30" id="av"/><g id="b"><use transform="matrix(0.07407407407407407,0,0,0.07407407407407407,0,0)" xlink:href="#ar"/><use transform="matrix(0.07407407407407407,0,0,0.07407407407407407,19.185185185185183,0)" xlink:href="#as"/><use transform="matrix(0.07407407407407407,0,0,0.07407407407407407,26.592592592592588,0)" xlink:href="#at"/><use transform="matrix(0.07407407407407407,0,0,0.07407407407407407,33.99999999999999,0)" xlink:href="#au"/><use transform="matrix(0.07407407407407407,0,0,0.07407407407407407,50.222222222222214,0)" xlink:href="#at"/><use transform="matrix(0.07407407407407407,0,0,0.07407407407407407,57.62962962962962,0)" xlink:href="#av"/></g><path fill="#fff" d="M230 0l2-204L168 0h-37L68-204 70 0H24v-248h70l56 185 57-185h69V0h-46" id="aw"/><path fill="#fff" d="M133-34C117-15 103 5 69 4 32 3 11-16 11-54c-1-60 55-63 116-61 1-26-3-47-28-47-18 1-26 9-28 27l-52-2c7-38 36-58 82-57s74 22 75 68l1 82c-1 14 12 18 25 15v27c-30 8-71 5-69-32zm-48 3c29 0 43-24 42-57-32 0-66-3-65 30 0 17 8 27 23 27" id="ax"/><path fill="#fff" d="M195-6C206 82 75 100 31 46c-4-6-6-13-8-21l49-6c3 16 16 24 34 25 40 0 42-37 40-79-11 22-30 35-61 35-53 0-70-43-70-97 0-56 18-96 73-97 30 0 46 14 59 34l2-30h47zm-90-29c32 0 41-27 41-63 0-35-9-62-40-62-32 0-39 29-40 63 0 36 9 62 39 62" id="ay"/><path fill="#fff" d="M220-157c-53 9-28 100-34 157h-49v-107c1-27-5-49-29-50C55-147 81-57 75 0H25l-1-190h47c2 12-1 28 3 38 10-53 101-56 108 0 13-22 24-43 59-42 82 1 51 116 57 194h-49v-107c-1-25-5-48-29-50" id="az"/><g id="c"><use transform="matrix(0.07407407407407407,0,0,0.07407407407407407,0,0)" xlink:href="#aw"/><use transform="matrix(0.07407407407407407,0,0,0.07407407407407407,22.148148148148145,0)" xlink:href="#ax"/><use transform="matrix(0.07407407407407407,0,0,0.07407407407407407,36.96296296296296,0)" xlink:href="#au"/><use transform="matrix(0.07407407407407407,0,0,0.07407407407407407,53.18518518518518,0)" xlink:href="#ax"/><use transform="matrix(0.07407407407407407,0,0,0.07407407407407407,68,0)" xlink:href="#ay"/><use transform="matrix(0.07407407407407407,0,0,0.07407407407407407,84.22222222222223,0)" xlink:href="#ao"/><use transform="matrix(0.07407407407407407,0,0,0.07407407407407407,99.03703703703704,0)" xlink:href="#az"/><use transform="matrix(0.07407407407407407,0,0,0.07407407407407407,122.74074074074073,0)" xlink:href="#ao"/><use transform="matrix(0.07407407407407407,0,0,0.07407407407407407,137.55555555555554,0)" xlink:href="#au"/><use transform="matrix(0.07407407407407407,0,0,0.07407407407407407,153.77777777777777,0)" xlink:href="#ap"/></g><path fill="#fff" d="M169-182c-1-43-94-46-97-3 18 66 151 10 154 114 3 95-165 93-204 36-6-8-10-19-12-30l50-8c3 46 112 56 116 5-17-69-150-10-154-114-4-87 153-88 188-35 5 8 8 18 10 28" id="aA"/><path fill="#fff" d="M123 10C108 53 80 86 19 72V37c35 8 53-11 59-39L3-190h52l48 148c12-52 28-100 44-148h51" id="aB"/><g id="d"><use transform="matrix(0.07407407407407407,0,0,0.07407407407407407,0,0)" xlink:href="#aA"/><use transform="matrix(0.07407407407407407,0,0,0.07407407407407407,17.77777777777778,0)" xlink:href="#aB"/><use transform="matrix(0.07407407407407407,0,0,0.07407407407407407,32.592592592592595,0)" xlink:href="#aq"/><use transform="matrix(0.07407407407407407,0,0,0.07407407407407407,47.407407407407405,0)" xlink:href="#ap"/><use transform="matrix(0.07407407407407407,0,0,0.07407407407407407,56.22222222222222,0)" xlink:href="#ao"/><use transform="matrix(0.07407407407407407,0,0,0.07407407407407407,71.03703703703704,0)" xlink:href="#az"/></g><path d="M24-248c93 1 206-16 204 79-1 75-69 88-152 82V0H24v-248zm52 121c47 0 100 7 100-41 0-47-54-39-100-39v80" id="aC"/><path d="M114-157C55-157 80-60 75 0H25v-261h50l-1 109c12-26 28-41 61-42 86-1 58 113 63 194h-50c-7-57 23-157-34-157" id="aD"/><path d="M133-34C117-15 103 5 69 4 32 3 11-16 11-54c-1-60 55-63 116-61 1-26-3-47-28-47-18 1-26 9-28 27l-52-2c7-38 36-58 82-57s74 22 75 68l1 82c-1 14 12 18 25 15v27c-30 8-71 5-69-32zm-48 3c29 0 43-24 42-57-32 0-66-3-65 30 0 17 8 27 23 27" id="aE"/><path d="M137-138c1-29-70-34-71-4 15 46 118 7 119 86 1 83-164 76-172 9l43-7c4 19 20 25 44 25 33 8 57-30 24-41C81-84 22-81 20-136c-2-80 154-74 161-7" id="aF"/><path d="M185-48c-13 30-37 53-82 52C43 2 14-33 14-96s30-98 90-98c62 0 83 45 84 108H66c0 31 8 55 39 56 18 0 30-7 34-22zm-45-69c5-46-57-63-70-21-2 6-4 13-4 21h74" id="aG"/><g id="e"><use transform="matrix(0.07407407407407407,0,0,0.07407407407407407,0,0)" xlink:href="#aC"/><use transform="matrix(0.07407407407407407,0,0,0.07407407407407407,17.77777777777778,0)" xlink:href="#aD"/><use transform="matrix(0.07407407407407407,0,0,0.07407407407407407,34,0)" xlink:href="#aE"/><use transform="matrix(0.07407407407407407,0,0,0.07407407407407407,48.81481481481481,0)" xlink:href="#aF"/><use transform="matrix(0.07407407407407407,0,0,0.07407407407407407,63.62962962962962,0)" xlink:href="#aG"/></g><path d="M23 0v-37h61v-169l-59 37v-38l62-41h46v211h57V0H23" id="aH"/><path d="M35-132v-50h50v50H35zM35 0v-49h50V0H35" id="aI"/><g id="f"><use transform="matrix(0.07407407407407407,0,0,0.07407407407407407,0,0)" xlink:href="#aH"/><use transform="matrix(0.07407407407407407,0,0,0.07407407407407407,14.814814814814813,0)" xlink:href="#aI"/></g><path d="M30-248c87 1 191-15 191 75 0 78-77 80-158 76V0H30v-248zm33 125c57 0 124 11 124-50 0-59-68-47-124-48v98" id="aJ"/><path d="M24 0v-261h32V0H24" id="aK"/><path d="M141-36C126-15 110 5 73 4 37 3 15-17 15-53c-1-64 63-63 125-63 3-35-9-54-41-54-24 1-41 7-42 31l-33-3c5-37 33-52 76-52 45 0 72 20 72 64v82c-1 20 7 32 28 27v20c-31 9-61-2-59-35zM48-53c0 20 12 33 32 33 41-3 63-29 60-74-43 2-92-5-92 41" id="aL"/><path d="M117-194c89-4 53 116 60 194h-32v-121c0-31-8-49-39-48C34-167 62-67 57 0H25l-1-190h30c1 10-1 24 2 32 11-22 29-35 61-36" id="aM"/><path d="M24-231v-30h32v30H24zM24 0v-190h32V0H24" id="aN"/><path d="M177-190C167-65 218 103 67 71c-23-6-38-20-44-43l32-5c15 47 100 32 89-28v-30C133-14 115 1 83 1 29 1 15-40 15-95c0-56 16-97 71-98 29-1 48 16 59 35 1-10 0-23 2-32h30zM94-22c36 0 50-32 50-73 0-42-14-75-50-75-39 0-46 34-46 75s6 73 46 73" id="aO"/><g id="g"><use transform="matrix(0.07407407407407407,0,0,0.07407407407407407,0,0)" xlink:href="#aJ"/><use transform="matrix(0.07407407407407407,0,0,0.07407407407407407,17.77777777777778,0)" xlink:href="#aK"/><use transform="matrix(0.07407407407407407,0,0,0.07407407407407407,23.62962962962963,0)" xlink:href="#aL"/><use transform="matrix(0.07407407407407407,0,0,0.07407407407407407,38.44444444444444,0)" xlink:href="#aM"/><use transform="matrix(0.07407407407407407,0,0,0.07407407407407407,53.25925925925926,0)" xlink:href="#aM"/><use transform="matrix(0.07407407407407407,0,0,0.07407407407407407,68.07407407407406,0)" xlink:href="#aN"/><use transform="matrix(0.07407407407407407,0,0,0.07407407407407407,73.92592592592591,0)" xlink:href="#aM"/><use transform="matrix(0.07407407407407407,0,0,0.07407407407407407,88.74074074074072,0)" xlink:href="#aO"/></g><path d="M182-182c0 78-84 86-111 141h115V0H12c-6-101 99-100 120-180 1-22-12-31-33-32-23 0-32 14-35 34l-49-3c5-45 32-70 84-70 51 0 83 22 83 69" id="aP"/><g id="h"><use transform="matrix(0.07407407407407407,0,0,0.07407407407407407,0,0)" xlink:href="#aP"/><use transform="matrix(0.07407407407407407,0,0,0.07407407407407407,14.814814814814813,0)" xlink:href="#aI"/></g><path d="M205 0l-28-72H64L36 0H1l101-248h38L239 0h-34zm-38-99l-47-123c-12 45-31 82-46 123h93" id="aQ"/><path d="M179-190L93 31C79 59 56 82 12 73V49c39 6 53-20 64-50L1-190h34L92-34l54-156h33" id="aR"/><path d="M135-143c-3-34-86-38-87 0 15 53 115 12 119 90S17 21 10-45l28-5c4 36 97 45 98 0-10-56-113-15-118-90-4-57 82-63 122-42 12 7 21 19 24 35" id="aS"/><g id="i"><use transform="matrix(0.07407407407407407,0,0,0.07407407407407407,0,0)" xlink:href="#aQ"/><use transform="matrix(0.07407407407407407,0,0,0.07407407407407407,17.77777777777778,0)" xlink:href="#aM"/><use transform="matrix(0.07407407407407407,0,0,0.07407407407407407,32.592592592592595,0)" xlink:href="#aL"/><use transform="matrix(0.07407407407407407,0,0,0.07407407407407407,47.407407407407405,0)" xlink:href="#aK"/><use transform="matrix(0.07407407407407407,0,0,0.07407407407407407,53.25925925925926,0)" xlink:href="#aR"/><use transform="matrix(0.07407407407407407,0,0,0.07407407407407407,66.59259259259258,0)" xlink:href="#aS"/><use transform="matrix(0.07407407407407407,0,0,0.07407407407407407,79.92592592592591,0)" xlink:href="#aN"/><use transform="matrix(0.07407407407407407,0,0,0.07407407407407407,85.77777777777776,0)" xlink:href="#aS"/></g><path d="M128-127c34 4 56 21 59 58 7 91-148 94-172 28-4-9-6-17-7-26l51-5c1 24 16 35 40 36 23 0 39-12 38-36-1-31-31-36-65-34v-40c32 2 59-3 59-33 0-20-13-33-34-33s-33 13-35 32l-50-3c6-44 37-68 86-68 50 0 83 20 83 66 0 35-22 52-53 58" id="aT"/><g id="j"><use transform="matrix(0.07407407407407407,0,0,0.07407407407407407,0,0)" xlink:href="#aT"/><use transform="matrix(0.07407407407407407,0,0,0.07407407407407407,14.814814814814813,0)" xlink:href="#aI"/></g><path d="M30-248c118-7 216 8 213 122C240-48 200 0 122 0H30v-248zM63-27c89 8 146-16 146-99s-60-101-146-95v194" id="aU"/><path d="M100-194c63 0 86 42 84 106H49c0 40 14 67 53 68 26 1 43-12 49-29l28 8c-11 28-37 45-77 45C44 4 14-33 15-96c1-61 26-98 85-98zm52 81c6-60-76-77-97-28-3 7-6 17-6 28h103" id="aV"/><g id="k"><use transform="matrix(0.07407407407407407,0,0,0.07407407407407407,0,0)" xlink:href="#aU"/><use transform="matrix(0.07407407407407407,0,0,0.07407407407407407,19.185185185185183,0)" xlink:href="#aV"/><use transform="matrix(0.07407407407407407,0,0,0.07407407407407407,34,0)" xlink:href="#aS"/><use transform="matrix(0.07407407407407407,0,0,0.07407407407407407,47.33333333333333,0)" xlink:href="#aN"/><use transform="matrix(0.07407407407407407,0,0,0.07407407407407407,53.185185185185176,0)" xlink:href="#aO"/><use transform="matrix(0.07407407407407407,0,0,0.07407407407407407,67.99999999999999,0)" xlink:href="#aM"/></g><path d="M139-81c0-46-55-55-73-27H18l9-140h149v37H72l-4 63c44-38 133-4 122 66C201 21 21 35 11-62l49-4c5 18 15 30 39 30 26 0 40-18 40-45" id="aW"/><g id="l"><use transform="matrix(0.07407407407407407,0,0,0.07407407407407407,0,0)" xlink:href="#aW"/><use transform="matrix(0.07407407407407407,0,0,0.07407407407407407,14.814814814814813,0)" xlink:href="#aI"/></g><path d="M127-220V0H93v-220H8v-28h204v28h-85" id="aX"/><path d="M59-47c-2 24 18 29 38 22v24C64 9 27 4 27-40v-127H5v-23h24l9-43h21v43h35v23H59v120" id="aY"/><g id="m"><use transform="matrix(0.07407407407407407,0,0,0.07407407407407407,0,0)" xlink:href="#aX"/><use transform="matrix(0.07407407407407407,0,0,0.07407407407407407,13.259259259259258,0)" xlink:href="#aV"/><use transform="matrix(0.07407407407407407,0,0,0.07407407407407407,28.074074074074073,0)" xlink:href="#aS"/><use transform="matrix(0.07407407407407407,0,0,0.07407407407407407,41.407407407407405,0)" xlink:href="#aY"/><use transform="matrix(0.07407407407407407,0,0,0.07407407407407407,48.81481481481481,0)" xlink:href="#aN"/><use transform="matrix(0.07407407407407407,0,0,0.07407407407407407,54.66666666666666,0)" xlink:href="#aM"/><use transform="matrix(0.07407407407407407,0,0,0.07407407407407407,69.48148148148147,0)" xlink:href="#aO"/></g><path d="M115-159c48 0 72 30 72 78 0 54-30 85-83 85-64 0-91-50-91-122 0-98 58-163 141-120 15 8 21 24 27 44l-47 6c-5-31-48-31-61-4-7 14-11 33-11 60 9-17 28-27 53-27zM102-35c24 0 36-20 36-45s-11-43-37-43c-23 0-36 14-36 38 0 27 11 50 37 50" id="aZ"/><g id="n"><use transform="matrix(0.07407407407407407,0,0,0.07407407407407407,0,0)" xlink:href="#aZ"/><use transform="matrix(0.07407407407407407,0,0,0.07407407407407407,14.814814814814813,0)" xlink:href="#aI"/></g><path d="M137 0h-34L2-248h35l83 218 83-218h36" id="ba"/><path d="M114-163C36-179 61-72 57 0H25l-1-190h30c1 12-1 29 2 39 6-27 23-49 58-41v29" id="bb"/><path d="M101-234c-31-9-42 10-38 44h38v23H63V0H32v-167H5v-23h27c-7-52 17-82 69-68v24" id="bc"/><path d="M96-169c-40 0-48 33-48 73s9 75 48 75c24 0 41-14 43-38l32 2c-6 37-31 61-74 61-59 0-76-41-82-99-10-93 101-131 147-64 4 7 5 14 7 22l-32 3c-4-21-16-35-41-35" id="bd"/><path d="M100-194c62-1 85 37 85 99 1 63-27 99-86 99S16-35 15-95c0-66 28-99 85-99zM99-20c44 1 53-31 53-75 0-43-8-75-51-75s-53 32-53 75 10 74 51 75" id="be"/><g id="o"><use transform="matrix(0.07407407407407407,0,0,0.07407407407407407,0,0)" xlink:href="#ba"/><use transform="matrix(0.07407407407407407,0,0,0.07407407407407407,16.296296296296298,0)" xlink:href="#aV"/><use transform="matrix(0.07407407407407407,0,0,0.07407407407407407,31.11111111111111,0)" xlink:href="#bb"/><use transform="matrix(0.07407407407407407,0,0,0.07407407407407407,39.925925925925924,0)" xlink:href="#aN"/><use transform="matrix(0.07407407407407407,0,0,0.07407407407407407,45.77777777777778,0)" xlink:href="#bc"/><use transform="matrix(0.07407407407407407,0,0,0.07407407407407407,53.185185185185176,0)" xlink:href="#aN"/><use transform="matrix(0.07407407407407407,0,0,0.07407407407407407,59.037037037037024,0)" xlink:href="#bd"/><use transform="matrix(0.07407407407407407,0,0,0.07407407407407407,72.37037037037035,0)" xlink:href="#aL"/><use transform="matrix(0.07407407407407407,0,0,0.07407407407407407,87.18518518518516,0)" xlink:href="#aY"/><use transform="matrix(0.07407407407407407,0,0,0.07407407407407407,94.59259259259257,0)" xlink:href="#aN"/><use transform="matrix(0.07407407407407407,0,0,0.07407407407407407,100.44444444444443,0)" xlink:href="#be"/><use transform="matrix(0.07407407407407407,0,0,0.07407407407407407,115.25925925925922,0)" xlink:href="#aM"/></g><path d="M165-50V0h-47v-50H5v-38l105-160h55v161h33v37h-33zm-47-37l2-116L46-87h72" id="bf"/><g id="p"><use transform="matrix(0.07407407407407407,0,0,0.07407407407407407,0,0)" xlink:href="#bf"/><use transform="matrix(0.07407407407407407,0,0,0.07407407407407407,14.814814814814813,0)" xlink:href="#aI"/></g><path d="M108 0H70L1-190h34L89-25l56-165h34" id="bg"/><path d="M115-194c55 1 70 41 70 98S169 2 115 4C84 4 66-9 55-30l1 105H24l-1-265h31l2 30c10-21 28-34 59-34zm-8 174c40 0 45-34 45-75s-6-73-45-74c-42 0-51 32-51 76 0 43 10 73 51 73" id="bh"/><g id="q"><use transform="matrix(0.07407407407407407,0,0,0.07407407407407407,0,0)" xlink:href="#aU"/><use transform="matrix(0.07407407407407407,0,0,0.07407407407407407,19.185185185185183,0)" xlink:href="#aV"/><use transform="matrix(0.07407407407407407,0,0,0.07407407407407407,34,0)" xlink:href="#bg"/><use transform="matrix(0.07407407407407407,0,0,0.07407407407407407,47.33333333333333,0)" xlink:href="#aV"/><use transform="matrix(0.07407407407407407,0,0,0.07407407407407407,62.14814814814814,0)" xlink:href="#aK"/><use transform="matrix(0.07407407407407407,0,0,0.07407407407407407,67.99999999999999,0)" xlink:href="#be"/><use transform="matrix(0.07407407407407407,0,0,0.07407407407407407,82.8148148148148,0)" xlink:href="#bh"/><use transform="matrix(0.07407407407407407,0,0,0.07407407407407407,97.6296296296296,0)" xlink:href="#aN"/><use transform="matrix(0.07407407407407407,0,0,0.07407407407407407,103.48148148148145,0)" xlink:href="#aM"/><use transform="matrix(0.07407407407407407,0,0,0.07407407407407407,118.29629629629626,0)" xlink:href="#aO"/></g><g id="r"><use transform="matrix(0.0679012345679012,0,0,0.0679012345679012,0,0)" xlink:href="#aU"/><use transform="matrix(0.0679012345679012,0,0,0.0679012345679012,17.58641975308641,0)" xlink:href="#aV"/><use transform="matrix(0.0679012345679012,0,0,0.0679012345679012,31.16666666666665,0)" xlink:href="#bc"/><use transform="matrix(0.0679012345679012,0,0,0.0679012345679012,37.95679012345677,0)" xlink:href="#aN"/><use transform="matrix(0.0679012345679012,0,0,0.0679012345679012,43.320987654320966,0)" xlink:href="#aM"/><use transform="matrix(0.0679012345679012,0,0,0.0679012345679012,56.901234567901206,0)" xlink:href="#aV"/></g><path d="M24-231v-30h32v30H24zM-9 49c24 4 33-6 33-30v-209h32V24c2 40-23 58-65 49V49" id="bi"/><g id="s"><use transform="matrix(0.0679012345679012,0,0,0.0679012345679012,0,0)" xlink:href="#bh"/><use transform="matrix(0.0679012345679012,0,0,0.0679012345679012,13.58024691358024,0)" xlink:href="#bb"/><use transform="matrix(0.0679012345679012,0,0,0.0679012345679012,21.660493827160483,0)" xlink:href="#be"/><use transform="matrix(0.0679012345679012,0,0,0.0679012345679012,35.24074074074072,0)" xlink:href="#bi"/><use transform="matrix(0.0679012345679012,0,0,0.0679012345679012,40.604938271604915,0)" xlink:href="#aV"/><use transform="matrix(0.0679012345679012,0,0,0.0679012345679012,54.185185185185155,0)" xlink:href="#bd"/><use transform="matrix(0.0679012345679012,0,0,0.0679012345679012,66.40740740740738,0)" xlink:href="#aY"/></g><path d="M115-194c53 0 69 39 70 98 0 66-23 100-70 100C84 3 66-7 56-30L54 0H23l1-261h32v101c10-23 28-34 59-34zm-8 174c40 0 45-34 45-75 0-40-5-75-45-74-42 0-51 32-51 76 0 43 10 73 51 73" id="bj"/><path d="M210-169c-67 3-38 105-44 169h-31v-121c0-29-5-50-35-48C34-165 62-65 56 0H25l-1-190h30c1 10-1 24 2 32 10-44 99-50 107 0 11-21 27-35 58-36 85-2 47 119 55 194h-31v-121c0-29-5-49-35-48" id="bk"/><g id="t"><use transform="matrix(0.0679012345679012,0,0,0.0679012345679012,0,0)" xlink:href="#bh"/><use transform="matrix(0.0679012345679012,0,0,0.0679012345679012,13.58024691358024,0)" xlink:href="#bb"/><use transform="matrix(0.0679012345679012,0,0,0.0679012345679012,21.660493827160483,0)" xlink:href="#be"/><use transform="matrix(0.0679012345679012,0,0,0.0679012345679012,35.24074074074072,0)" xlink:href="#bj"/><use transform="matrix(0.0679012345679012,0,0,0.0679012345679012,48.82098765432096,0)" xlink:href="#aV"/><use transform="matrix(0.0679012345679012,0,0,0.0679012345679012,62.4012345679012,0)" xlink:href="#aK"/><use transform="matrix(0.0679012345679012,0,0,0.0679012345679012,67.76543209876539,0)" xlink:href="#bk"/><use transform="matrix(0.0679012345679012,0,0,0.0679012345679012,88.06790123456784,0)" xlink:href="#aS"/></g><path d="M85-194c31 0 48 13 60 33l-1-100h32l1 261h-30c-2-10 0-23-3-31C134-8 116 4 85 4 32 4 16-35 15-94c0-66 23-100 70-100zm9 24c-40 0-46 34-46 75 0 40 6 74 45 74 42 0 51-32 51-76 0-42-9-74-50-73" id="bl"/><g id="u"><use transform="matrix(0.0679012345679012,0,0,0.0679012345679012,0,0)" xlink:href="#aL"/><use transform="matrix(0.0679012345679012,0,0,0.0679012345679012,13.58024691358024,0)" xlink:href="#aM"/><use transform="matrix(0.0679012345679012,0,0,0.0679012345679012,27.16049382716048,0)" xlink:href="#bl"/></g><g id="v"><use transform="matrix(0.0679012345679012,0,0,0.0679012345679012,0,0)" xlink:href="#aS"/><use transform="matrix(0.0679012345679012,0,0,0.0679012345679012,12.222222222222216,0)" xlink:href="#bd"/><use transform="matrix(0.0679012345679012,0,0,0.0679012345679012,24.444444444444432,0)" xlink:href="#be"/><use transform="matrix(0.0679012345679012,0,0,0.0679012345679012,38.02469135802467,0)" xlink:href="#bh"/><use transform="matrix(0.0679012345679012,0,0,0.0679012345679012,51.60493827160491,0)" xlink:href="#aV"/></g><path d="M106-169C34-169 62-67 57 0H25v-261h32l-1 103c12-21 28-36 61-36 89 0 53 116 60 194h-32v-121c2-32-8-49-39-48" id="bm"/><g id="w"><use transform="matrix(0.0679012345679012,0,0,0.0679012345679012,0,0)" xlink:href="#aY"/><use transform="matrix(0.0679012345679012,0,0,0.0679012345679012,6.79012345679012,0)" xlink:href="#bm"/><use transform="matrix(0.0679012345679012,0,0,0.0679012345679012,20.37037037037036,0)" xlink:href="#aV"/></g><path d="M84 4C-5 8 30-112 23-190h32v120c0 31 7 50 39 49 72-2 45-101 50-169h31l1 190h-30c-1-10 1-25-2-33-11 22-28 36-60 37" id="bn"/><g id="x"><use transform="matrix(0.0679012345679012,0,0,0.0679012345679012,0,0)" xlink:href="#aS"/><use transform="matrix(0.0679012345679012,0,0,0.0679012345679012,12.222222222222216,0)" xlink:href="#bd"/><use transform="matrix(0.0679012345679012,0,0,0.0679012345679012,24.444444444444432,0)" xlink:href="#bm"/><use transform="matrix(0.0679012345679012,0,0,0.0679012345679012,38.02469135802467,0)" xlink:href="#aV"/><use transform="matrix(0.0679012345679012,0,0,0.0679012345679012,51.60493827160491,0)" xlink:href="#bl"/><use transform="matrix(0.0679012345679012,0,0,0.0679012345679012,65.18518518518515,0)" xlink:href="#bn"/><use transform="matrix(0.0679012345679012,0,0,0.0679012345679012,78.76543209876537,0)" xlink:href="#aK"/><use transform="matrix(0.0679012345679012,0,0,0.0679012345679012,84.12962962962958,0)" xlink:href="#aV"/></g><g id="y"><use transform="matrix(0.0679012345679012,0,0,0.0679012345679012,0,0)" xlink:href="#be"/><use transform="matrix(0.0679012345679012,0,0,0.0679012345679012,13.58024691358024,0)" xlink:href="#bc"/></g><g id="z"><use transform="matrix(0.0679012345679012,0,0,0.0679012345679012,0,0)" xlink:href="#bh"/><use transform="matrix(0.0679012345679012,0,0,0.0679012345679012,13.58024691358024,0)" xlink:href="#bb"/><use transform="matrix(0.0679012345679012,0,0,0.0679012345679012,21.660493827160483,0)" xlink:href="#be"/><use transform="matrix(0.0679012345679012,0,0,0.0679012345679012,35.24074074074072,0)" xlink:href="#bi"/><use transform="matrix(0.0679012345679012,0,0,0.0679012345679012,40.604938271604915,0)" xlink:href="#aV"/><use transform="matrix(0.0679012345679012,0,0,0.0679012345679012,54.185185185185155,0)" xlink:href="#bd"/><use transform="matrix(0.0679012345679012,0,0,0.0679012345679012,66.40740740740738,0)" xlink:href="#aY"/></g><g id="A"><use transform="matrix(0.0679012345679012,0,0,0.0679012345679012,0,0)" xlink:href="#aU"/><use transform="matrix(0.0679012345679012,0,0,0.0679012345679012,17.58641975308641,0)" xlink:href="#aV"/><use transform="matrix(0.0679012345679012,0,0,0.0679012345679012,31.16666666666665,0)" xlink:href="#aY"/><use transform="matrix(0.0679012345679012,0,0,0.0679012345679012,37.95679012345677,0)" xlink:href="#aV"/><use transform="matrix(0.0679012345679012,0,0,0.0679012345679012,51.53703703703701,0)" xlink:href="#bk"/><use transform="matrix(0.0679012345679012,0,0,0.0679012345679012,71.83950617283946,0)" xlink:href="#aN"/><use transform="matrix(0.0679012345679012,0,0,0.0679012345679012,77.20370370370365,0)" xlink:href="#aM"/><use transform="matrix(0.0679012345679012,0,0,0.0679012345679012,90.78395061728389,0)" xlink:href="#aV"/></g><g id="B"><use transform="matrix(0.0679012345679012,0,0,0.0679012345679012,0,0)" xlink:href="#aS"/><use transform="matrix(0.0679012345679012,0,0,0.0679012345679012,12.222222222222216,0)" xlink:href="#aY"/><use transform="matrix(0.0679012345679012,0,0,0.0679012345679012,19.012345679012334,0)" xlink:href="#aL"/><use transform="matrix(0.0679012345679012,0,0,0.0679012345679012,32.592592592592574,0)" xlink:href="#bc"/><use transform="matrix(0.0679012345679012,0,0,0.0679012345679012,38.90740740740738,0)" xlink:href="#bc"/></g><g id="C"><use transform="matrix(0.0679012345679012,0,0,0.0679012345679012,0,0)" xlink:href="#be"/><use transform="matrix(0.0679012345679012,0,0,0.0679012345679012,13.58024691358024,0)" xlink:href="#bc"/></g><path d="M143 4C61 4 22-44 18-125c-5-107 100-154 193-111 17 8 29 25 37 43l-32 9c-13-25-37-40-76-40-61 0-88 39-88 99 0 61 29 100 91 101 35 0 62-11 79-27v-45h-74v-28h105v86C228-13 192 4 143 4" id="bo"/><g id="D"><use transform="matrix(0.0679012345679012,0,0,0.0679012345679012,0,0)" xlink:href="#bo"/><use transform="matrix(0.0679012345679012,0,0,0.0679012345679012,19.012345679012338,0)" xlink:href="#aL"/><use transform="matrix(0.0679012345679012,0,0,0.0679012345679012,32.59259259259258,0)" xlink:href="#aY"/><use transform="matrix(0.0679012345679012,0,0,0.0679012345679012,39.3827160493827,0)" xlink:href="#bm"/><use transform="matrix(0.0679012345679012,0,0,0.0679012345679012,52.96296296296294,0)" xlink:href="#aV"/><use transform="matrix(0.0679012345679012,0,0,0.0679012345679012,66.54320987654319,0)" xlink:href="#bb"/><use transform="matrix(0.0679012345679012,0,0,0.0679012345679012,74.62345679012343,0)" xlink:href="#aN"/><use transform="matrix(0.0679012345679012,0,0,0.0679012345679012,79.98765432098762,0)" xlink:href="#aM"/><use transform="matrix(0.0679012345679012,0,0,0.0679012345679012,93.56790123456786,0)" xlink:href="#aO"/></g><path d="M145-31C134-9 116 4 85 4 32 4 16-35 15-94c0-59 17-99 70-100 32-1 48 14 60 33 0-11-1-24 2-32h30l-1 268h-32zM93-21c41 0 51-33 51-76s-8-73-50-73c-40 0-46 35-46 75s5 74 45 74" id="bp"/><g id="E"><use transform="matrix(0.0679012345679012,0,0,0.0679012345679012,0,0)" xlink:href="#bb"/><use transform="matrix(0.0679012345679012,0,0,0.0679012345679012,8.080246913580243,0)" xlink:href="#aV"/><use transform="matrix(0.0679012345679012,0,0,0.0679012345679012,21.660493827160483,0)" xlink:href="#bp"/><use transform="matrix(0.0679012345679012,0,0,0.0679012345679012,35.24074074074072,0)" xlink:href="#bn"/><use transform="matrix(0.0679012345679012,0,0,0.0679012345679012,48.82098765432096,0)" xlink:href="#aN"/><use transform="matrix(0.0679012345679012,0,0,0.0679012345679012,54.185185185185155,0)" xlink:href="#bb"/><use transform="matrix(0.0679012345679012,0,0,0.0679012345679012,62.2654320987654,0)" xlink:href="#aV"/><use transform="matrix(0.0679012345679012,0,0,0.0679012345679012,75.84567901234564,0)" xlink:href="#bk"/><use transform="matrix(0.0679012345679012,0,0,0.0679012345679012,96.14814814814808,0)" xlink:href="#aV"/><use transform="matrix(0.0679012345679012,0,0,0.0679012345679012,109.72839506172834,0)" xlink:href="#aM"/><use transform="matrix(0.0679012345679012,0,0,0.0679012345679012,123.30864197530857,0)" xlink:href="#aY"/><use transform="matrix(0.0679012345679012,0,0,0.0679012345679012,130.0987654320987,0)" xlink:href="#aS"/></g><path d="M212-179c-10-28-35-45-73-45-59 0-87 40-87 99 0 60 29 101 89 101 43 0 62-24 78-52l27 14C228-24 195 4 139 4 59 4 22-46 18-125c-6-104 99-153 187-111 19 9 31 26 39 46" id="bq"/><g id="F"><use transform="matrix(0.0679012345679012,0,0,0.0679012345679012,0,0)" xlink:href="#bq"/><use transform="matrix(0.0679012345679012,0,0,0.0679012345679012,17.58641975308641,0)" xlink:href="#be"/><use transform="matrix(0.0679012345679012,0,0,0.0679012345679012,31.16666666666665,0)" xlink:href="#aK"/><use transform="matrix(0.0679012345679012,0,0,0.0679012345679012,36.530864197530846,0)" xlink:href="#aK"/><use transform="matrix(0.0679012345679012,0,0,0.0679012345679012,41.89506172839504,0)" xlink:href="#aV"/><use transform="matrix(0.0679012345679012,0,0,0.0679012345679012,55.47530864197528,0)" xlink:href="#bd"/><use transform="matrix(0.0679012345679012,0,0,0.0679012345679012,67.6975308641975,0)" xlink:href="#aY"/></g><g id="G"><use transform="matrix(0.0679012345679012,0,0,0.0679012345679012,0,0)" xlink:href="#aN"/><use transform="matrix(0.0679012345679012,0,0,0.0679012345679012,5.364197530864195,0)" xlink:href="#aM"/><use transform="matrix(0.0679012345679012,0,0,0.0679012345679012,18.944444444444436,0)" xlink:href="#bc"/><use transform="matrix(0.0679012345679012,0,0,0.0679012345679012,25.734567901234556,0)" xlink:href="#be"/><use transform="matrix(0.0679012345679012,0,0,0.0679012345679012,39.314814814814795,0)" xlink:href="#bb"/><use transform="matrix(0.0679012345679012,0,0,0.0679012345679012,47.395061728395035,0)" xlink:href="#bk"/><use transform="matrix(0.0679012345679012,0,0,0.0679012345679012,67.69753086419749,0)" xlink:href="#aL"/><use transform="matrix(0.0679012345679012,0,0,0.0679012345679012,81.27777777777773,0)" xlink:href="#aY"/><use transform="matrix(0.0679012345679012,0,0,0.0679012345679012,88.06790123456784,0)" xlink:href="#aN"/><use transform="matrix(0.0679012345679012,0,0,0.0679012345679012,93.43209876543203,0)" xlink:href="#be"/><use transform="matrix(0.0679012345679012,0,0,0.0679012345679012,107.01234567901227,0)" xlink:href="#aM"/></g><g id="H"><use transform="matrix(0.0679012345679012,0,0,0.0679012345679012,0,0)" xlink:href="#aL"/><use transform="matrix(0.0679012345679012,0,0,0.0679012345679012,13.58024691358024,0)" xlink:href="#bj"/><use transform="matrix(0.0679012345679012,0,0,0.0679012345679012,27.16049382716048,0)" xlink:href="#be"/><use transform="matrix(0.0679012345679012,0,0,0.0679012345679012,40.74074074074072,0)" xlink:href="#bn"/><use transform="matrix(0.0679012345679012,0,0,0.0679012345679012,54.32098765432096,0)" xlink:href="#aY"/></g><g id="I"><use transform="matrix(0.0679012345679012,0,0,0.0679012345679012,0,0)" xlink:href="#aY"/><use transform="matrix(0.0679012345679012,0,0,0.0679012345679012,6.79012345679012,0)" xlink:href="#bm"/><use transform="matrix(0.0679012345679012,0,0,0.0679012345679012,20.37037037037036,0)" xlink:href="#aV"/></g><g id="J"><use transform="matrix(0.0679012345679012,0,0,0.0679012345679012,0,0)" xlink:href="#bc"/><use transform="matrix(0.0679012345679012,0,0,0.0679012345679012,6.79012345679012,0)" xlink:href="#bn"/><use transform="matrix(0.0679012345679012,0,0,0.0679012345679012,20.37037037037036,0)" xlink:href="#aM"/><use transform="matrix(0.0679012345679012,0,0,0.0679012345679012,33.9506172839506,0)" xlink:href="#bd"/><use transform="matrix(0.0679012345679012,0,0,0.0679012345679012,46.172839506172814,0)" xlink:href="#aY"/><use transform="matrix(0.0679012345679012,0,0,0.0679012345679012,52.96296296296293,0)" xlink:href="#aN"/><use transform="matrix(0.0679012345679012,0,0,0.0679012345679012,58.32716049382712,0)" xlink:href="#be"/><use transform="matrix(0.0679012345679012,0,0,0.0679012345679012,71.90740740740736,0)" xlink:href="#aM"/></g><g id="K"><use transform="matrix(0.0679012345679012,0,0,0.0679012345679012,0,0)" xlink:href="#aU"/><use transform="matrix(0.0679012345679012,0,0,0.0679012345679012,17.58641975308641,0)" xlink:href="#aV"/><use transform="matrix(0.0679012345679012,0,0,0.0679012345679012,31.16666666666665,0)" xlink:href="#aS"/><use transform="matrix(0.0679012345679012,0,0,0.0679012345679012,43.388888888888864,0)" xlink:href="#aN"/><use transform="matrix(0.0679012345679012,0,0,0.0679012345679012,48.75308641975306,0)" xlink:href="#aO"/><use transform="matrix(0.0679012345679012,0,0,0.0679012345679012,62.3333333333333,0)" xlink:href="#aM"/></g><g id="L"><use transform="matrix(0.0679012345679012,0,0,0.0679012345679012,0,0)" xlink:href="#bl"/><use transform="matrix(0.0679012345679012,0,0,0.0679012345679012,13.58024691358024,0)" xlink:href="#aL"/><use transform="matrix(0.0679012345679012,0,0,0.0679012345679012,27.16049382716048,0)" xlink:href="#aY"/><use transform="matrix(0.0679012345679012,0,0,0.0679012345679012,33.9506172839506,0)" xlink:href="#aL"/><use transform="matrix(0.0679012345679012,0,0,0.0679012345679012,47.53086419753084,0)" xlink:href="#bj"/><use transform="matrix(0.0679012345679012,0,0,0.0679012345679012,61.11111111111107,0)" xlink:href="#aL"/><use transform="matrix(0.0679012345679012,0,0,0.0679012345679012,74.69135802469131,0)" xlink:href="#aS"/><use transform="matrix(0.0679012345679012,0,0,0.0679012345679012,86.91358024691353,0)" xlink:href="#aV"/></g><path d="M232-93c-1 65-40 97-104 97C67 4 28-28 28-90v-158h33c8 89-33 224 67 224 102 0 64-133 71-224h33v155" id="br"/><path d="M33 0v-248h34V0H33" id="bs"/><path d="M0 4l72-265h28L28 4H0" id="bt"/><path d="M195 0l-74-108L45 0H8l94-129-87-119h37l69 98 67-98h37l-84 118L233 0h-38" id="bu"/><g id="M"><use transform="matrix(0.0679012345679012,0,0,0.0679012345679012,0,0)" xlink:href="#br"/><use transform="matrix(0.0679012345679012,0,0,0.0679012345679012,17.58641975308641,0)" xlink:href="#bs"/><use transform="matrix(0.0679012345679012,0,0,0.0679012345679012,24.37654320987653,0)" xlink:href="#bt"/><use transform="matrix(0.0679012345679012,0,0,0.0679012345679012,31.16666666666665,0)" xlink:href="#br"/><use transform="matrix(0.0679012345679012,0,0,0.0679012345679012,48.75308641975306,0)" xlink:href="#bu"/></g><g id="N"><use transform="matrix(0.0679012345679012,0,0,0.0679012345679012,0,0)" xlink:href="#bo"/><use transform="matrix(0.0679012345679012,0,0,0.0679012345679012,19.012345679012338,0)" xlink:href="#br"/><use transform="matrix(0.0679012345679012,0,0,0.0679012345679012,36.59876543209874,0)" xlink:href="#bs"/></g><g id="O"><use transform="matrix(0.0679012345679012,0,0,0.0679012345679012,0,0)" xlink:href="#bs"/><use transform="matrix(0.0679012345679012,0,0,0.0679012345679012,6.79012345679012,0)" xlink:href="#aM"/><use transform="matrix(0.0679012345679012,0,0,0.0679012345679012,20.37037037037036,0)" xlink:href="#aY"/><use transform="matrix(0.0679012345679012,0,0,0.0679012345679012,27.16049382716048,0)" xlink:href="#aV"/><use transform="matrix(0.0679012345679012,0,0,0.0679012345679012,40.74074074074072,0)" xlink:href="#aO"/><use transform="matrix(0.0679012345679012,0,0,0.0679012345679012,54.32098765432096,0)" xlink:href="#bb"/><use transform="matrix(0.0679012345679012,0,0,0.0679012345679012,62.4012345679012,0)" xlink:href="#aL"/><use transform="matrix(0.0679012345679012,0,0,0.0679012345679012,75.98148148148142,0)" xlink:href="#aY"/><use transform="matrix(0.0679012345679012,0,0,0.0679012345679012,82.77160493827157,0)" xlink:href="#aV"/><use transform="matrix(0.0679012345679012,0,0,0.0679012345679012,96.3518518518518,0)" xlink:href="#bl"/></g><path d="M206 0h-36l-40-164L89 0H53L-1-190h32L70-26l43-164h34l41 164 42-164h31" id="bv"/><path d="M143 0L79-87 56-68V0H24v-261h32v163l83-92h37l-77 82L181 0h-38" id="bw"/><g id="P"><use transform="matrix(0.0679012345679012,0,0,0.0679012345679012,0,0)" xlink:href="#aM"/><use transform="matrix(0.0679012345679012,0,0,0.0679012345679012,13.58024691358024,0)" xlink:href="#aV"/><use transform="matrix(0.0679012345679012,0,0,0.0679012345679012,27.16049382716048,0)" xlink:href="#aY"/><use transform="matrix(0.0679012345679012,0,0,0.0679012345679012,33.9506172839506,0)" xlink:href="#bv"/><use transform="matrix(0.0679012345679012,0,0,0.0679012345679012,51.53703703703701,0)" xlink:href="#be"/><use transform="matrix(0.0679012345679012,0,0,0.0679012345679012,65.11728395061725,0)" xlink:href="#bb"/><use transform="matrix(0.0679012345679012,0,0,0.0679012345679012,73.19753086419747,0)" xlink:href="#bw"/></g><g id="Q"><use transform="matrix(0.0679012345679012,0,0,0.0679012345679012,0,0)" xlink:href="#aS"/><use transform="matrix(0.0679012345679012,0,0,0.0679012345679012,12.222222222222216,0)" xlink:href="#be"/><use transform="matrix(0.0679012345679012,0,0,0.0679012345679012,25.802469135802454,0)" xlink:href="#bc"/><use transform="matrix(0.0679012345679012,0,0,0.0679012345679012,32.592592592592574,0)" xlink:href="#aY"/><use transform="matrix(0.0679012345679012,0,0,0.0679012345679012,39.38271604938269,0)" xlink:href="#bv"/><use transform="matrix(0.0679012345679012,0,0,0.0679012345679012,56.969135802469104,0)" xlink:href="#aL"/><use transform="matrix(0.0679012345679012,0,0,0.0679012345679012,70.54938271604934,0)" xlink:href="#bb"/><use transform="matrix(0.0679012345679012,0,0,0.0679012345679012,78.62962962962958,0)" xlink:href="#aV"/></g><g id="R"><use transform="matrix(0.0679012345679012,0,0,0.0679012345679012,0,0)" xlink:href="#bd"/><use transform="matrix(0.0679012345679012,0,0,0.0679012345679012,12.222222222222216,0)" xlink:href="#be"/><use transform="matrix(0.0679012345679012,0,0,0.0679012345679012,25.802469135802454,0)" xlink:href="#bk"/><use transform="matrix(0.0679012345679012,0,0,0.0679012345679012,46.104938271604915,0)" xlink:href="#bh"/><use transform="matrix(0.0679012345679012,0,0,0.0679012345679012,59.685185185185155,0)" xlink:href="#be"/><use transform="matrix(0.0679012345679012,0,0,0.0679012345679012,73.26543209876539,0)" xlink:href="#aM"/><use transform="matrix(0.0679012345679012,0,0,0.0679012345679012,86.84567901234563,0)" xlink:href="#aV"/><use transform="matrix(0.0679012345679012,0,0,0.0679012345679012,100.42592592592587,0)" xlink:href="#aM"/><use transform="matrix(0.0679012345679012,0,0,0.0679012345679012,114.0061728395061,0)" xlink:href="#aY"/><use transform="matrix(0.0679012345679012,0,0,0.0679012345679012,120.79629629629622,0)" xlink:href="#aS"/></g><g id="S"><use transform="matrix(0.0679012345679012,0,0,0.0679012345679012,0,0)" xlink:href="#bs"/><use transform="matrix(0.0679012345679012,0,0,0.0679012345679012,6.79012345679012,0)" xlink:href="#bk"/><use transform="matrix(0.0679012345679012,0,0,0.0679012345679012,27.09259259259258,0)" xlink:href="#bh"/><use transform="matrix(0.0679012345679012,0,0,0.0679012345679012,40.67283950617282,0)" xlink:href="#aK"/><use transform="matrix(0.0679012345679012,0,0,0.0679012345679012,46.03703703703702,0)" xlink:href="#aV"/><use transform="matrix(0.0679012345679012,0,0,0.0679012345679012,59.61728395061726,0)" xlink:href="#bk"/><use transform="matrix(0.0679012345679012,0,0,0.0679012345679012,79.91975308641972,0)" xlink:href="#aV"/><use transform="matrix(0.0679012345679012,0,0,0.0679012345679012,93.49999999999996,0)" xlink:href="#aM"/><use transform="matrix(0.0679012345679012,0,0,0.0679012345679012,107.0802469135802,0)" xlink:href="#aY"/></g><g id="T"><use transform="matrix(0.0679012345679012,0,0,0.0679012345679012,0,0)" xlink:href="#bd"/><use transform="matrix(0.0679012345679012,0,0,0.0679012345679012,12.222222222222216,0)" xlink:href="#be"/><use transform="matrix(0.0679012345679012,0,0,0.0679012345679012,25.802469135802454,0)" xlink:href="#bl"/><use transform="matrix(0.0679012345679012,0,0,0.0679012345679012,39.38271604938269,0)" xlink:href="#aV"/></g><g id="U"><use transform="matrix(0.0679012345679012,0,0,0.0679012345679012,0,0)" xlink:href="#ba"/><use transform="matrix(0.0679012345679012,0,0,0.0679012345679012,14.938271604938267,0)" xlink:href="#aV"/><use transform="matrix(0.0679012345679012,0,0,0.0679012345679012,28.518518518518505,0)" xlink:href="#bb"/><use transform="matrix(0.0679012345679012,0,0,0.0679012345679012,36.59876543209874,0)" xlink:href="#aN"/><use transform="matrix(0.0679012345679012,0,0,0.0679012345679012,41.96296296296294,0)" xlink:href="#bc"/><use transform="matrix(0.0679012345679012,0,0,0.0679012345679012,48.75308641975306,0)" xlink:href="#aR"/></g><g id="V"><use transform="matrix(0.0679012345679012,0,0,0.0679012345679012,0,0)" xlink:href="#aL"/><use transform="matrix(0.0679012345679012,0,0,0.0679012345679012,13.58024691358024,0)" xlink:href="#aM"/><use transform="matrix(0.0679012345679012,0,0,0.0679012345679012,27.16049382716048,0)" xlink:href="#bl"/></g><g id="W"><use transform="matrix(0.0679012345679012,0,0,0.0679012345679012,0,0)" xlink:href="#aY"/><use transform="matrix(0.0679012345679012,0,0,0.0679012345679012,6.79012345679012,0)" xlink:href="#aV"/><use transform="matrix(0.0679012345679012,0,0,0.0679012345679012,20.37037037037036,0)" xlink:href="#aS"/><use transform="matrix(0.0679012345679012,0,0,0.0679012345679012,32.592592592592574,0)" xlink:href="#aY"/></g><g id="X"><use transform="matrix(0.0679012345679012,0,0,0.0679012345679012,0,0)" xlink:href="#aX"/><use transform="matrix(0.0679012345679012,0,0,0.0679012345679012,13.987654320987648,0)" xlink:href="#bb"/><use transform="matrix(0.0679012345679012,0,0,0.0679012345679012,22.06790123456789,0)" xlink:href="#aL"/><use transform="matrix(0.0679012345679012,0,0,0.0679012345679012,35.64814814814813,0)" xlink:href="#aN"/><use transform="matrix(0.0679012345679012,0,0,0.0679012345679012,41.01234567901233,0)" xlink:href="#aM"/></g><g id="Y"><use transform="matrix(0.0679012345679012,0,0,0.0679012345679012,0,0)" xlink:href="#aN"/><use transform="matrix(0.0679012345679012,0,0,0.0679012345679012,5.364197530864195,0)" xlink:href="#aM"/></g><g id="Z"><use transform="matrix(0.0679012345679012,0,0,0.0679012345679012,0,0)" xlink:href="#aS"/><use transform="matrix(0.0679012345679012,0,0,0.0679012345679012,12.222222222222216,0)" xlink:href="#aR"/><use transform="matrix(0.0679012345679012,0,0,0.0679012345679012,24.444444444444432,0)" xlink:href="#aS"/><use transform="matrix(0.0679012345679012,0,0,0.0679012345679012,36.66666666666665,0)" xlink:href="#aY"/><use transform="matrix(0.0679012345679012,0,0,0.0679012345679012,43.45679012345677,0)" xlink:href="#aV"/><use transform="matrix(0.0679012345679012,0,0,0.0679012345679012,57.03703703703701,0)" xlink:href="#bk"/></g><g id="aa"><use transform="matrix(0.0679012345679012,0,0,0.0679012345679012,0,0)" xlink:href="#bs"/><use transform="matrix(0.0679012345679012,0,0,0.0679012345679012,6.79012345679012,0)" xlink:href="#aM"/><use transform="matrix(0.0679012345679012,0,0,0.0679012345679012,20.37037037037036,0)" xlink:href="#aS"/><use transform="matrix(0.0679012345679012,0,0,0.0679012345679012,32.592592592592574,0)" xlink:href="#aY"/><use transform="matrix(0.0679012345679012,0,0,0.0679012345679012,39.38271604938269,0)" xlink:href="#aL"/><use transform="matrix(0.0679012345679012,0,0,0.0679012345679012,52.96296296296293,0)" xlink:href="#aK"/><use transform="matrix(0.0679012345679012,0,0,0.0679012345679012,58.32716049382712,0)" xlink:href="#aK"/></g><g id="ab"><use transform="matrix(0.0679012345679012,0,0,0.0679012345679012,0,0)" xlink:href="#aX"/><use transform="matrix(0.0679012345679012,0,0,0.0679012345679012,12.154320987654316,0)" xlink:href="#aV"/><use transform="matrix(0.0679012345679012,0,0,0.0679012345679012,25.734567901234556,0)" xlink:href="#aS"/><use transform="matrix(0.0679012345679012,0,0,0.0679012345679012,37.95679012345677,0)" xlink:href="#aY"/></g><g id="ac"><use transform="matrix(0.0679012345679012,0,0,0.0679012345679012,0,0)" xlink:href="#aS"/><use transform="matrix(0.0679012345679012,0,0,0.0679012345679012,12.222222222222216,0)" xlink:href="#aR"/><use transform="matrix(0.0679012345679012,0,0,0.0679012345679012,24.444444444444432,0)" xlink:href="#aS"/><use transform="matrix(0.0679012345679012,0,0,0.0679012345679012,36.66666666666665,0)" xlink:href="#aY"/><use transform="matrix(0.0679012345679012,0,0,0.0679012345679012,43.45679012345677,0)" xlink:href="#aV"/><use transform="matrix(0.0679012345679012,0,0,0.0679012345679012,57.03703703703701,0)" xlink:href="#bk"/></g><g id="ad"><use transform="matrix(0.0679012345679012,0,0,0.0679012345679012,0,0)" xlink:href="#aL"/><use transform="matrix(0.0679012345679012,0,0,0.0679012345679012,13.58024691358024,0)" xlink:href="#bc"/><use transform="matrix(0.0679012345679012,0,0,0.0679012345679012,20.37037037037036,0)" xlink:href="#aY"/><use transform="matrix(0.0679012345679012,0,0,0.0679012345679012,27.16049382716048,0)" xlink:href="#aV"/><use transform="matrix(0.0679012345679012,0,0,0.0679012345679012,40.74074074074072,0)" xlink:href="#bb"/></g><g id="ae"><use transform="matrix(0.0679012345679012,0,0,0.0679012345679012,0,0)" xlink:href="#bd"/><use transform="matrix(0.0679012345679012,0,0,0.0679012345679012,12.222222222222216,0)" xlink:href="#be"/><use transform="matrix(0.0679012345679012,0,0,0.0679012345679012,25.802469135802454,0)" xlink:href="#bl"/><use transform="matrix(0.0679012345679012,0,0,0.0679012345679012,39.38271604938269,0)" xlink:href="#aN"/><use transform="matrix(0.0679012345679012,0,0,0.0679012345679012,44.74691358024689,0)" xlink:href="#aM"/><use transform="matrix(0.0679012345679012,0,0,0.0679012345679012,58.32716049382712,0)" xlink:href="#aO"/></g><g id="af"><use transform="matrix(0.0679012345679012,0,0,0.0679012345679012,0,0)" xlink:href="#bh"/><use transform="matrix(0.0679012345679012,0,0,0.0679012345679012,13.58024691358024,0)" xlink:href="#bm"/><use transform="matrix(0.0679012345679012,0,0,0.0679012345679012,27.16049382716048,0)" xlink:href="#aL"/><use transform="matrix(0.0679012345679012,0,0,0.0679012345679012,40.74074074074072,0)" xlink:href="#aS"/><use transform="matrix(0.0679012345679012,0,0,0.0679012345679012,52.96296296296293,0)" xlink:href="#aV"/></g><g id="ag"><use transform="matrix(0.0679012345679012,0,0,0.0679012345679012,0,0)" xlink:href="#aX"/><use transform="matrix(0.0679012345679012,0,0,0.0679012345679012,13.987654320987648,0)" xlink:href="#bb"/><use transform="matrix(0.0679012345679012,0,0,0.0679012345679012,22.06790123456789,0)" xlink:href="#aL"/><use transform="matrix(0.0679012345679012,0,0,0.0679012345679012,35.64814814814813,0)" xlink:href="#aN"/><use transform="matrix(0.0679012345679012,0,0,0.0679012345679012,41.01234567901233,0)" xlink:href="#aM"/><use transform="matrix(0.0679012345679012,0,0,0.0679012345679012,54.59259259259257,0)" xlink:href="#aN"/><use transform="matrix(0.0679012345679012,0,0,0.0679012345679012,59.95679012345676,0)" xlink:href="#aM"/><use transform="matrix(0.0679012345679012,0,0,0.0679012345679012,73.53703703703701,0)" xlink:href="#aO"/></g><g id="ah"><use transform="matrix(0.0679012345679012,0,0,0.0679012345679012,0,0)" xlink:href="#bn"/><use transform="matrix(0.0679012345679012,0,0,0.0679012345679012,13.58024691358024,0)" xlink:href="#aS"/><use transform="matrix(0.0679012345679012,0,0,0.0679012345679012,25.802469135802454,0)" xlink:href="#aV"/><use transform="matrix(0.0679012345679012,0,0,0.0679012345679012,39.38271604938269,0)" xlink:href="#bb"/></g><g id="ai"><use transform="matrix(0.0679012345679012,0,0,0.0679012345679012,0,0)" xlink:href="#be"/><use transform="matrix(0.0679012345679012,0,0,0.0679012345679012,13.58024691358024,0)" xlink:href="#aM"/></g><g id="aj"><use transform="matrix(0.0679012345679012,0,0,0.0679012345679012,0,0)" xlink:href="#bm"/><use transform="matrix(0.0679012345679012,0,0,0.0679012345679012,13.58024691358024,0)" xlink:href="#be"/><use transform="matrix(0.0679012345679012,0,0,0.0679012345679012,27.16049382716048,0)" xlink:href="#bv"/></g><g id="ak"><use transform="matrix(0.0679012345679012,0,0,0.0679012345679012,0,0)" xlink:href="#aY"/><use transform="matrix(0.0679012345679012,0,0,0.0679012345679012,6.79012345679012,0)" xlink:href="#be"/></g><g id="al"><use transform="matrix(0.0679012345679012,0,0,0.0679012345679012,0,0)" xlink:href="#bn"/><use transform="matrix(0.0679012345679012,0,0,0.0679012345679012,13.58024691358024,0)" xlink:href="#aS"/><use transform="matrix(0.0679012345679012,0,0,0.0679012345679012,25.802469135802454,0)" xlink:href="#aV"/></g><g id="am"><use transform="matrix(0.0679012345679012,0,0,0.0679012345679012,0,0)" xlink:href="#aU"/><use transform="matrix(0.0679012345679012,0,0,0.0679012345679012,17.58641975308641,0)" xlink:href="#be"/><use transform="matrix(0.0679012345679012,0,0,0.0679012345679012,31.16666666666665,0)" xlink:href="#bd"/><use transform="matrix(0.0679012345679012,0,0,0.0679012345679012,43.388888888888864,0)" xlink:href="#bn"/><use transform="matrix(0.0679012345679012,0,0,0.0679012345679012,56.969135802469104,0)" xlink:href="#bk"/><use transform="matrix(0.0679012345679012,0,0,0.0679012345679012,77.27160493827157,0)" xlink:href="#aV"/><use transform="matrix(0.0679012345679012,0,0,0.0679012345679012,90.8518518518518,0)" xlink:href="#aM"/><use transform="matrix(0.0679012345679012,0,0,0.0679012345679012,104.43209876543204,0)" xlink:href="#aY"/></g></defs></g></svg>